<svg xmlns="http://www.w3.org/2000/svg" width="259" height="40" viewBox="0 0 259 40">
  <g id="Grupo_866" data-name="Grupo 866" transform="translate(-1882.663 -1997.181)" opacity="0.25">
    <ellipse id="Elipse_71" data-name="Elipse 71" cx="2" cy="2.051" rx="2" ry="2.051" transform="translate(1882.663 1997.181)" fill="#364563"/>
    <ellipse id="Elipse_72" data-name="Elipse 72" cx="2" cy="2.051" rx="2" ry="2.051" transform="translate(1894.663 1997.181)" fill="#364563"/>
    <ellipse id="Elipse_73" data-name="Elipse 73" cx="2" cy="2.051" rx="2" ry="2.051" transform="translate(1905.663 1997.181)" fill="#364563"/>
    <ellipse id="Elipse_90" data-name="Elipse 90" cx="2" cy="2.051" rx="2" ry="2.051" transform="translate(1882.663 2009.489)" fill="#364563"/>
    <ellipse id="Elipse_91" data-name="Elipse 91" cx="2" cy="2.051" rx="2" ry="2.051" transform="translate(1894.663 2009.489)" fill="#364563"/>
    <ellipse id="Elipse_92" data-name="Elipse 92" cx="2" cy="2.051" rx="2" ry="2.051" transform="translate(1905.663 2009.489)" fill="#364563"/>
    <ellipse id="Elipse_109" data-name="Elipse 109" cx="2" cy="2.051" rx="2" ry="2.051" transform="translate(1882.663 2021.796)" fill="#364563"/>
    <ellipse id="Elipse_110" data-name="Elipse 110" cx="2" cy="2.051" rx="2" ry="2.051" transform="translate(1894.663 2021.796)" fill="#364563"/>
    <ellipse id="Elipse_111" data-name="Elipse 111" cx="2" cy="2.051" rx="2" ry="2.051" transform="translate(1905.663 2021.796)" fill="#364563"/>
    <ellipse id="Elipse_128" data-name="Elipse 128" cx="2" cy="2.051" rx="2" ry="2.051" transform="translate(1882.663 2033.078)" fill="#364563"/>
    <ellipse id="Elipse_129" data-name="Elipse 129" cx="2" cy="2.051" rx="2" ry="2.051" transform="translate(1894.663 2033.078)" fill="#364563"/>
    <ellipse id="Elipse_130" data-name="Elipse 130" cx="2" cy="2.051" rx="2" ry="2.051" transform="translate(1905.663 2033.078)" fill="#364563"/>
    <ellipse id="Elipse_416" data-name="Elipse 416" cx="2.5" cy="2.051" rx="2.5" ry="2.051" transform="translate(1916.663 1997.181)" fill="#364563"/>
    <ellipse id="Elipse_417" data-name="Elipse 417" cx="2" cy="2.051" rx="2" ry="2.051" transform="translate(1928.663 1997.181)" fill="#364563"/>
    <ellipse id="Elipse_418" data-name="Elipse 418" cx="2" cy="2.051" rx="2" ry="2.051" transform="translate(1940.663 1997.181)" fill="#364563"/>
    <ellipse id="Elipse_419" data-name="Elipse 419" cx="2" cy="2.051" rx="2" ry="2.051" transform="translate(1952.663 1997.181)" fill="#364563"/>
    <ellipse id="Elipse_420" data-name="Elipse 420" cx="2" cy="2.051" rx="2" ry="2.051" transform="translate(1963.663 1997.181)" fill="#364563"/>
    <ellipse id="Elipse_421" data-name="Elipse 421" cx="2.5" cy="2.051" rx="2.5" ry="2.051" transform="translate(1974.663 1997.181)" fill="#364563"/>
    <ellipse id="Elipse_422" data-name="Elipse 422" cx="2" cy="2.051" rx="2" ry="2.051" transform="translate(1986.663 1997.181)" fill="#364563"/>
    <ellipse id="Elipse_423" data-name="Elipse 423" cx="2" cy="2.051" rx="2" ry="2.051" transform="translate(1998.663 1997.181)" fill="#364563"/>
    <ellipse id="Elipse_424" data-name="Elipse 424" cx="2" cy="2.051" rx="2" ry="2.051" transform="translate(2010.663 1997.181)" fill="#364563"/>
    <ellipse id="Elipse_425" data-name="Elipse 425" cx="2" cy="2.051" rx="2" ry="2.051" transform="translate(2021.663 1997.181)" fill="#364563"/>
    <ellipse id="Elipse_426" data-name="Elipse 426" cx="2" cy="2.051" rx="2" ry="2.051" transform="translate(2032.663 1997.181)" fill="#364563"/>
    <ellipse id="Elipse_427" data-name="Elipse 427" cx="2" cy="2.051" rx="2" ry="2.051" transform="translate(2044.663 1997.181)" fill="#364563"/>
    <ellipse id="Elipse_428" data-name="Elipse 428" cx="2" cy="2.051" rx="2" ry="2.051" transform="translate(2056.663 1997.181)" fill="#364563"/>
    <ellipse id="Elipse_429" data-name="Elipse 429" cx="2" cy="2.051" rx="2" ry="2.051" transform="translate(2068.663 1997.181)" fill="#364563"/>
    <ellipse id="Elipse_430" data-name="Elipse 430" cx="2" cy="2.051" rx="2" ry="2.051" transform="translate(2079.663 1997.181)" fill="#364563"/>
    <ellipse id="Elipse_431" data-name="Elipse 431" cx="2" cy="2.051" rx="2" ry="2.051" transform="translate(2090.663 1997.181)" fill="#364563"/>
    <ellipse id="Elipse_432" data-name="Elipse 432" cx="2" cy="2.051" rx="2" ry="2.051" transform="translate(2102.663 1997.181)" fill="#364563"/>
    <ellipse id="Elipse_433" data-name="Elipse 433" cx="2" cy="2.051" rx="2" ry="2.051" transform="translate(2114.663 1997.181)" fill="#364563"/>
    <ellipse id="Elipse_434" data-name="Elipse 434" cx="2" cy="2.051" rx="2" ry="2.051" transform="translate(2137.663 1997.181)" fill="#364563"/>
    <ellipse id="Elipse_435" data-name="Elipse 435" cx="2.5" cy="2.051" rx="2.5" ry="2.051" transform="translate(2125.663 1997.181)" fill="#364563"/>
    <ellipse id="Elipse_436" data-name="Elipse 436" cx="2.5" cy="2.051" rx="2.5" ry="2.051" transform="translate(1916.663 2009.489)" fill="#364563"/>
    <ellipse id="Elipse_437" data-name="Elipse 437" cx="2" cy="2.051" rx="2" ry="2.051" transform="translate(1928.663 2009.489)" fill="#364563"/>
    <ellipse id="Elipse_438" data-name="Elipse 438" cx="2" cy="2.051" rx="2" ry="2.051" transform="translate(1940.663 2009.489)" fill="#364563"/>
    <ellipse id="Elipse_439" data-name="Elipse 439" cx="2" cy="2.051" rx="2" ry="2.051" transform="translate(1952.663 2009.489)" fill="#364563"/>
    <ellipse id="Elipse_440" data-name="Elipse 440" cx="2" cy="2.051" rx="2" ry="2.051" transform="translate(1963.663 2009.489)" fill="#364563"/>
    <ellipse id="Elipse_441" data-name="Elipse 441" cx="2.5" cy="2.051" rx="2.5" ry="2.051" transform="translate(1974.663 2009.489)" fill="#364563"/>
    <ellipse id="Elipse_442" data-name="Elipse 442" cx="2" cy="2.051" rx="2" ry="2.051" transform="translate(1986.663 2009.489)" fill="#364563"/>
    <ellipse id="Elipse_443" data-name="Elipse 443" cx="2" cy="2.051" rx="2" ry="2.051" transform="translate(1998.663 2009.489)" fill="#364563"/>
    <ellipse id="Elipse_444" data-name="Elipse 444" cx="2" cy="2.051" rx="2" ry="2.051" transform="translate(2010.663 2009.489)" fill="#364563"/>
    <ellipse id="Elipse_445" data-name="Elipse 445" cx="2" cy="2.051" rx="2" ry="2.051" transform="translate(2021.663 2009.489)" fill="#364563"/>
    <ellipse id="Elipse_446" data-name="Elipse 446" cx="2" cy="2.051" rx="2" ry="2.051" transform="translate(2032.663 2009.489)" fill="#364563"/>
    <ellipse id="Elipse_447" data-name="Elipse 447" cx="2" cy="2.051" rx="2" ry="2.051" transform="translate(2044.663 2009.489)" fill="#364563"/>
    <ellipse id="Elipse_448" data-name="Elipse 448" cx="2" cy="2.051" rx="2" ry="2.051" transform="translate(2056.663 2009.489)" fill="#364563"/>
    <ellipse id="Elipse_449" data-name="Elipse 449" cx="2" cy="2.051" rx="2" ry="2.051" transform="translate(2068.663 2009.489)" fill="#364563"/>
    <ellipse id="Elipse_450" data-name="Elipse 450" cx="2" cy="2.051" rx="2" ry="2.051" transform="translate(2079.663 2009.489)" fill="#364563"/>
    <ellipse id="Elipse_451" data-name="Elipse 451" cx="2" cy="2.051" rx="2" ry="2.051" transform="translate(2090.663 2009.489)" fill="#364563"/>
    <ellipse id="Elipse_452" data-name="Elipse 452" cx="2" cy="2.051" rx="2" ry="2.051" transform="translate(2102.663 2009.489)" fill="#364563"/>
    <ellipse id="Elipse_453" data-name="Elipse 453" cx="2" cy="2.051" rx="2" ry="2.051" transform="translate(2114.663 2009.489)" fill="#364563"/>
    <ellipse id="Elipse_454" data-name="Elipse 454" cx="2" cy="2.051" rx="2" ry="2.051" transform="translate(2137.663 2009.489)" fill="#364563"/>
    <ellipse id="Elipse_455" data-name="Elipse 455" cx="2.5" cy="2.051" rx="2.5" ry="2.051" transform="translate(2125.663 2009.489)" fill="#364563"/>
    <ellipse id="Elipse_456" data-name="Elipse 456" cx="2.5" cy="2.051" rx="2.5" ry="2.051" transform="translate(1916.663 2021.796)" fill="#364563"/>
    <ellipse id="Elipse_457" data-name="Elipse 457" cx="2" cy="2.051" rx="2" ry="2.051" transform="translate(1928.663 2021.796)" fill="#364563"/>
    <ellipse id="Elipse_458" data-name="Elipse 458" cx="2" cy="2.051" rx="2" ry="2.051" transform="translate(1940.663 2021.796)" fill="#364563"/>
    <ellipse id="Elipse_459" data-name="Elipse 459" cx="2" cy="2.051" rx="2" ry="2.051" transform="translate(1952.663 2021.796)" fill="#364563"/>
    <ellipse id="Elipse_460" data-name="Elipse 460" cx="2" cy="2.051" rx="2" ry="2.051" transform="translate(1963.663 2021.796)" fill="#364563"/>
    <ellipse id="Elipse_461" data-name="Elipse 461" cx="2.5" cy="2.051" rx="2.5" ry="2.051" transform="translate(1974.663 2021.796)" fill="#364563"/>
    <ellipse id="Elipse_462" data-name="Elipse 462" cx="2" cy="2.051" rx="2" ry="2.051" transform="translate(1986.663 2021.796)" fill="#364563"/>
    <ellipse id="Elipse_463" data-name="Elipse 463" cx="2" cy="2.051" rx="2" ry="2.051" transform="translate(1998.663 2021.796)" fill="#364563"/>
    <ellipse id="Elipse_464" data-name="Elipse 464" cx="2" cy="2.051" rx="2" ry="2.051" transform="translate(2010.663 2021.796)" fill="#364563"/>
    <ellipse id="Elipse_465" data-name="Elipse 465" cx="2" cy="2.051" rx="2" ry="2.051" transform="translate(2021.663 2021.796)" fill="#364563"/>
    <ellipse id="Elipse_466" data-name="Elipse 466" cx="2" cy="2.051" rx="2" ry="2.051" transform="translate(2032.663 2021.796)" fill="#364563"/>
    <ellipse id="Elipse_467" data-name="Elipse 467" cx="2" cy="2.051" rx="2" ry="2.051" transform="translate(2044.663 2021.796)" fill="#364563"/>
    <ellipse id="Elipse_468" data-name="Elipse 468" cx="2" cy="2.051" rx="2" ry="2.051" transform="translate(2056.663 2021.796)" fill="#364563"/>
    <ellipse id="Elipse_469" data-name="Elipse 469" cx="2" cy="2.051" rx="2" ry="2.051" transform="translate(2068.663 2021.796)" fill="#364563"/>
    <ellipse id="Elipse_470" data-name="Elipse 470" cx="2" cy="2.051" rx="2" ry="2.051" transform="translate(2079.663 2021.796)" fill="#364563"/>
    <ellipse id="Elipse_471" data-name="Elipse 471" cx="2" cy="2.051" rx="2" ry="2.051" transform="translate(2090.663 2021.796)" fill="#364563"/>
    <ellipse id="Elipse_472" data-name="Elipse 472" cx="2" cy="2.051" rx="2" ry="2.051" transform="translate(2102.663 2021.796)" fill="#364563"/>
    <ellipse id="Elipse_473" data-name="Elipse 473" cx="2" cy="2.051" rx="2" ry="2.051" transform="translate(2114.663 2021.796)" fill="#364563"/>
    <ellipse id="Elipse_474" data-name="Elipse 474" cx="2" cy="2.051" rx="2" ry="2.051" transform="translate(2137.663 2021.796)" fill="#364563"/>
    <ellipse id="Elipse_475" data-name="Elipse 475" cx="2.5" cy="2.051" rx="2.5" ry="2.051" transform="translate(2125.663 2021.796)" fill="#364563"/>
    <ellipse id="Elipse_476" data-name="Elipse 476" cx="2.5" cy="2.051" rx="2.5" ry="2.051" transform="translate(1916.663 2033.078)" fill="#364563"/>
    <ellipse id="Elipse_477" data-name="Elipse 477" cx="2" cy="2.051" rx="2" ry="2.051" transform="translate(1928.663 2033.078)" fill="#364563"/>
    <ellipse id="Elipse_478" data-name="Elipse 478" cx="2" cy="2.051" rx="2" ry="2.051" transform="translate(1940.663 2033.078)" fill="#364563"/>
    <ellipse id="Elipse_479" data-name="Elipse 479" cx="2" cy="2.051" rx="2" ry="2.051" transform="translate(1952.663 2033.078)" fill="#364563"/>
    <ellipse id="Elipse_480" data-name="Elipse 480" cx="2" cy="2.051" rx="2" ry="2.051" transform="translate(1963.663 2033.078)" fill="#364563"/>
    <ellipse id="Elipse_481" data-name="Elipse 481" cx="2.5" cy="2.051" rx="2.5" ry="2.051" transform="translate(1974.663 2033.078)" fill="#364563"/>
    <ellipse id="Elipse_482" data-name="Elipse 482" cx="2" cy="2.051" rx="2" ry="2.051" transform="translate(1986.663 2033.078)" fill="#364563"/>
    <ellipse id="Elipse_483" data-name="Elipse 483" cx="2" cy="2.051" rx="2" ry="2.051" transform="translate(1998.663 2033.078)" fill="#364563"/>
    <ellipse id="Elipse_484" data-name="Elipse 484" cx="2" cy="2.051" rx="2" ry="2.051" transform="translate(2010.663 2033.078)" fill="#364563"/>
    <ellipse id="Elipse_485" data-name="Elipse 485" cx="2" cy="2.051" rx="2" ry="2.051" transform="translate(2021.663 2033.078)" fill="#364563"/>
    <ellipse id="Elipse_486" data-name="Elipse 486" cx="2" cy="2.051" rx="2" ry="2.051" transform="translate(2032.663 2033.078)" fill="#364563"/>
    <ellipse id="Elipse_487" data-name="Elipse 487" cx="2" cy="2.051" rx="2" ry="2.051" transform="translate(2044.663 2033.078)" fill="#364563"/>
    <ellipse id="Elipse_488" data-name="Elipse 488" cx="2" cy="2.051" rx="2" ry="2.051" transform="translate(2056.663 2033.078)" fill="#364563"/>
    <ellipse id="Elipse_489" data-name="Elipse 489" cx="2" cy="2.051" rx="2" ry="2.051" transform="translate(2068.663 2033.078)" fill="#364563"/>
    <ellipse id="Elipse_490" data-name="Elipse 490" cx="2" cy="2.051" rx="2" ry="2.051" transform="translate(2079.663 2033.078)" fill="#364563"/>
    <ellipse id="Elipse_491" data-name="Elipse 491" cx="2" cy="2.051" rx="2" ry="2.051" transform="translate(2090.663 2033.078)" fill="#364563"/>
    <ellipse id="Elipse_492" data-name="Elipse 492" cx="2" cy="2.051" rx="2" ry="2.051" transform="translate(2102.663 2033.078)" fill="#364563"/>
    <ellipse id="Elipse_493" data-name="Elipse 493" cx="2" cy="2.051" rx="2" ry="2.051" transform="translate(2114.663 2033.078)" fill="#364563"/>
    <ellipse id="Elipse_494" data-name="Elipse 494" cx="2" cy="2.051" rx="2" ry="2.051" transform="translate(2137.663 2033.078)" fill="#364563"/>
    <ellipse id="Elipse_495" data-name="Elipse 495" cx="2.5" cy="2.051" rx="2.5" ry="2.051" transform="translate(2125.663 2033.078)" fill="#364563"/>
  </g>
</svg>
