<?xml version="1.0" encoding="utf-8"?>
<!-- Generator: Adobe Illustrator 22.1.0, SVG Export Plug-In . SVG Version: 6.00 Build 0)  -->
<svg version="1.1" id="Layer_1" xmlns="http://www.w3.org/2000/svg" xmlns:xlink="http://www.w3.org/1999/xlink" x="0px" y="0px"
	 viewBox="0 0 16.5 19.8" style="enable-background:new 0 0 16.5 19.8;" xml:space="preserve">
<style type="text/css">
	.st0{fill:#00223D;}
</style>
<g id="Grupo_881" transform="translate(41 1749)">
	<g id="archivo-de-texto" transform="translate(-41 -1749)">
		<g id="Grupo_879" transform="translate(0 0)">
			<path id="Trazado_1168" class="st0" d="M16.2,5.9c-0.1-0.4-0.4-0.7-0.6-1l-4-4c-0.3-0.3-0.6-0.5-1-0.6C10.3,0.1,9.9,0,9.5,0H1.2
				C0.9,0,0.6,0.1,0.4,0.4C0.1,0.6,0,0.9,0,1.2v17.3c0,0.7,0.5,1.2,1.2,1.2c0,0,0,0,0,0h14c0.7,0,1.2-0.5,1.2-1.2c0,0,0,0,0,0V7
				C16.5,6.6,16.4,6.2,16.2,5.9z M9.9,1.8c0.2,0.1,0.4,0.2,0.5,0.3l4,4c0.1,0.2,0.2,0.3,0.3,0.5H9.9V1.8z M14.8,18.2H1.7V1.6h6.6V7
				c0,0.7,0.5,1.2,1.2,1.2c0,0,0,0,0,0h5.4L14.8,18.2z"/>
			<path id="Trazado_1169" class="st0" d="M12.8,13.2H3.7c-0.2,0-0.4,0.2-0.4,0.4c0,0,0,0,0,0v0.8c0,0.2,0.2,0.4,0.4,0.4
				c0,0,0,0,0,0h9.1c0.2,0,0.4-0.2,0.4-0.4c0,0,0,0,0,0v-0.8C13.2,13.4,13,13.2,12.8,13.2C12.8,13.2,12.8,13.2,12.8,13.2z"/>
			<path id="Trazado_1170" class="st0" d="M3.4,10c-0.1,0.1-0.1,0.2-0.1,0.3v0.8c0,0.2,0.2,0.4,0.4,0.4c0,0,0,0,0,0h9.1
				c0.2,0,0.4-0.2,0.4-0.4c0,0,0,0,0,0v-0.8c0-0.2-0.2-0.4-0.4-0.4c0,0,0,0,0,0H3.7C3.6,9.9,3.5,9.9,3.4,10z"/>
		</g>
	</g>
</g>
</svg>
