<?xml version="1.0" encoding="utf-8"?>
<!-- Generator: Adobe Illustrator 22.1.0, SVG Export Plug-In . SVG Version: 6.00 Build 0)  -->
<svg version="1.1" id="Layer_1" xmlns="http://www.w3.org/2000/svg" xmlns:xlink="http://www.w3.org/1999/xlink" x="0px" y="0px"
	 viewBox="0 0 17.9 20" style="enable-background:new 0 0 17.9 20;" xml:space="preserve">
<style type="text/css">
	.st0{fill:#00223D;}
</style>
<g id="Grupo_701" transform="translate(-26.57)">
	<g id="Grupo_700" transform="translate(26.57)">
		<g id="Grupo_699">
			<path id="Trazado_856" class="st0" d="M12.7,8.6c0-0.4-0.3-0.8-0.8-0.8c0,0,0,0,0,0h-8c-0.4,0-0.8,0.3-0.8,0.8
				c0,0.4,0.3,0.8,0.8,0.8h8C12.4,9.4,12.7,9,12.7,8.6C12.7,8.6,12.7,8.6,12.7,8.6z"/>
			<path id="Trazado_857" class="st0" d="M3.9,10.9c-0.4,0-0.8,0.3-0.8,0.8s0.3,0.8,0.8,0.8h4.9c0.4,0,0.8-0.3,0.8-0.8
				s-0.3-0.8-0.8-0.8L3.9,10.9z"/>
			<path id="Trazado_858" class="st0" d="M5.7,18.4H3.1c-0.9,0-1.6-0.7-1.6-1.6V3.1c0-0.9,0.7-1.6,1.6-1.6h9.6
				c0.9,0,1.6,0.7,1.6,1.6v4.8c0,0.4,0.3,0.8,0.8,0.8c0.4,0,0.8-0.3,0.8-0.8l0,0V3.1c0-1.7-1.4-3.1-3.1-3.1H3.1C1.4,0,0,1.4,0,3.1
				v13.8C0,18.6,1.4,20,3.1,20h2.6c0.4,0,0.8-0.3,0.8-0.8S6.2,18.4,5.7,18.4L5.7,18.4z"/>
			<path id="Trazado_859" class="st0" d="M17.2,11.3c-0.9-0.9-2.4-0.9-3.3,0l-4.3,4.3c-0.1,0.1-0.2,0.2-0.2,0.3L8.5,19
				c-0.1,0.4,0.1,0.8,0.5,1c0.1,0,0.3,0,0.4,0l3.2-0.9c0.1,0,0.2-0.1,0.3-0.2l4.3-4.3C18.1,13.7,18.2,12.2,17.2,11.3z M12,17.6
				l-1.6,0.4l0.5-1.5l2.9-2.9l1.1,1.1L12,17.6z M16.1,13.5L16,13.7l-1.1-1.1l0.2-0.2c0.3-0.3,0.8-0.3,1.1,0.1
				C16.4,12.8,16.4,13.2,16.1,13.5L16.1,13.5z"/>
			<path id="Trazado_860" class="st0" d="M11.9,4.7h-8C3.5,4.7,3.1,5,3.1,5.5s0.3,0.8,0.8,0.8h8c0.4,0,0.8-0.4,0.8-0.8
				C12.7,5,12.4,4.7,11.9,4.7L11.9,4.7z"/>
		</g>
	</g>
</g>
</svg>
