<?xml version="1.0" encoding="utf-8"?>
<!-- Generator: Adobe Illustrator 22.1.0, SVG Export Plug-In . SVG Version: 6.00 Build 0)  -->
<svg version="1.1" id="Layer_1" xmlns="http://www.w3.org/2000/svg" xmlns:xlink="http://www.w3.org/1999/xlink" x="0px" y="0px"
	 viewBox="0 0 24 23.4" style="enable-background:new 0 0 24 23.4;" xml:space="preserve">
<style type="text/css">
	.st0{fill:#FF6B00;}
</style>
<g id="Grupo_941" transform="translate(2251.933 1405.601)">
	<path id="SENA_LOGO" class="st0" d="M-2239.9-1405.6c-1.4,0-2.6,1.2-2.6,2.6c0,1.4,1.2,2.6,2.6,2.6c1.4,0,2.6-1.2,2.6-2.6l0,0l0,0
		C-2237.3-1404.4-2238.4-1405.6-2239.9-1405.6z M-2248.4-1399.6c-0.5,0-0.9,0-1.3,0.1c-0.3,0.1-0.5,0.2-0.7,0.4
		c-0.2,0.2-0.3,0.5-0.1,0.8c0.1,0.3,0.4,0.4,0.7,0.5c0.7,0.2,1.3,0.3,2,0.4c0.1,0,0.2,0.1,0.3,0.1c0.1,0.1,0,0.2-0.1,0.3
		c0,0,0,0,0,0c-0.2,0.1-0.5,0.1-0.8,0.1c-0.2,0-0.5,0-0.7-0.1c-0.1-0.1-0.2-0.2-0.1-0.3h-1.5c0,0.2,0.1,0.5,0.2,0.7
		c0.2,0.2,0.4,0.3,0.6,0.3c0.4,0.1,0.8,0.2,1.2,0.1c0.6,0,1.1,0,1.7-0.1c0.3-0.1,0.6-0.2,0.8-0.4c0.3-0.3,0.3-0.8,0-1.1
		c-0.1-0.1-0.1-0.1-0.2-0.1c-0.3-0.1-0.5-0.2-0.8-0.3c-0.4-0.1-0.9-0.1-1.3-0.2c-0.2,0-0.3-0.1-0.4-0.1c-0.1,0-0.1-0.1-0.1-0.2
		c0,0,0-0.1,0.1-0.1c0.2-0.1,0.4-0.1,0.6-0.1c0.2,0,0.4,0,0.7,0.1c0.1,0,0.1,0.1,0.1,0.2h1.4c0-0.2-0.1-0.4-0.2-0.5
		c-0.2-0.2-0.4-0.3-0.7-0.4C-2247.5-1399.6-2247.9-1399.6-2248.4-1399.6L-2248.4-1399.6z M-2245.3-1399.5v3.4h4.1v-0.7h-2.6v-0.7
		h2.3v-0.7h-2.3v-0.5h2.5v-0.7L-2245.3-1399.5z M-2238.5-1399.5h-1.9v3.4h1.4v-2.3l2,2.3h2v-3.4h-1.4v2.2L-2238.5-1399.5z
		 M-2232.5-1399.5l-2.3,3.4h1.5l0.4-0.6h2.3l0.3,0.6h1.7l-2.2-3.4L-2232.5-1399.5z M-2231.7-1398.7l0.7,1.2h-1.5L-2231.7-1398.7z
		 M-2251.9-1395.2l0,1.8l6.9,0c0.3,0.1,0.6,0.3,0.5,0.8l-4.2,7.4l1.4,1.3l6.5-11.3H-2251.9z M-2238.9-1395.2l6.4,11.2l1.4-1.3
		l-4.3-7.4c-0.1-0.5,0.1-0.8,0.5-0.8l6.9,0v-1.8L-2238.9-1395.2z M-2239.9-1393.3l-6,10.3l1.6,0.8l4-6.8c0.1-0.1,0.3-0.2,0.4-0.2
		c0.2,0,0.3,0.1,0.4,0.2l4,6.8l1.7-0.9L-2239.9-1393.3z"/>
</g>
</svg>
