<?xml version="1.0" encoding="utf-8"?>
<!-- Generator: Adobe Illustrator 22.1.0, SVG Export Plug-In . SVG Version: 6.00 Build 0)  -->
<svg version="1.1" id="Layer_1" xmlns="http://www.w3.org/2000/svg" xmlns:xlink="http://www.w3.org/1999/xlink" x="0px" y="0px"
	 viewBox="0 0 512 512" style="enable-background:new 0 0 512 512;" xml:space="preserve">
<style type="text/css">
	.st0{fill:#FF6712;}
	.st1{fill:#364563;}
</style>
<g>
	<path class="st0" d="M340.8,174.8l-120,120l-49.7-49.7c-7.8-7.8-20.5-7.8-28.3,0s-7.8,20.5,0,28.3l63.9,63.9
		c7.8,7.8,20.5,7.8,28.3,0l134.2-134.2c7.8-7.8,7.8-20.5,0-28.3C361.3,166.9,348.7,166.9,340.8,174.8z"/>
	<path class="st1" d="M256,511.9c-68.4,0-132.6-26.6-181-75C26.7,388.7,0,324.4,0,256.1S26.7,123.4,75,75c48.4-48.3,112.6-75,181-75
		s132.6,26.7,181,75c48.4,48.4,75,112.6,75,181s-26.7,132.6-75,181S324.4,511.9,256,511.9z M256,44.9
		c-116.4,0-211.1,94.7-211.1,211.1s94.7,211,211.1,211s211-94.6,211-211S372.4,44.9,256,44.9z"/>
</g>
</svg>
