<svg xmlns="http://www.w3.org/2000/svg" width="33.293" height="36.595" viewBox="0 0 33.293 36.595">
  <g id="Grupo_943" data-name="Grupo 943" transform="translate(-894.823 -578.405)">
    <path id="Trazado_618" data-name="Trazado 618" d="M47.937,15.839V8.913a.82.82,0,0,0-.222-.529L39.954.236A.779.779,0,0,0,39.4,0H27.088A4.1,4.1,0,0,0,23,4.124V27.4a4.075,4.075,0,0,0,4.088,4.1h9.72a10.488,10.488,0,1,0,11.128-15.66ZM40.161,2.68l5.21,5.482H41.991a1.839,1.839,0,0,1-1.83-1.837Zm-13.073,27.3A2.556,2.556,0,0,1,24.522,27.4V4.124a2.576,2.576,0,0,1,2.566-2.6h11.55v4.8A3.366,3.366,0,0,0,42,9.685h4.424v5.954c-.229-.007-.415-.029-.608-.029a10.644,10.644,0,0,0-6.954,2.623h-9.7a.765.765,0,0,0,0,1.53h8.27a11.98,11.98,0,0,0-1.344,2.366H29.161a.765.765,0,1,0,0,1.53h6.433a10.163,10.163,0,0,0-.293,2.459,10.06,10.06,0,0,0,.75,3.874H27.088Zm18.712,5.1a8.963,8.963,0,1,1,8.963-8.963A8.973,8.973,0,0,1,45.8,35.079Z" transform="translate(871.823 578.405)" fill="#141c33"/>
    <path id="Trazado_619" data-name="Trazado 619" d="M99.265,203.13h7.726a.765.765,0,1,0,0-1.53H99.265a.766.766,0,0,0-.765.765A.775.775,0,0,0,99.265,203.13Z" transform="translate(801.72 391.214)" fill="#141c33"/>
    <path id="Trazado_620" data-name="Trazado 620" d="M283.029,288.281a.854.854,0,0,1-.415-.107.828.828,0,0,1-.415-.715V276.252a.828.828,0,0,1,.415-.715.806.806,0,0,1,.822,0l9.706,5.6a.823.823,0,0,1,0,1.43l-9.706,5.6A.888.888,0,0,1,283.029,288.281Zm.822-10.607v8.355l7.24-4.181Z" transform="translate(631.149 322.666)" fill="#ff6712"/>
  </g>
</svg>
