<svg xmlns="http://www.w3.org/2000/svg" xmlns:xlink="http://www.w3.org/1999/xlink" width="355.702" height="446.777" viewBox="0 0 355.702 446.777">
  <defs>
    <linearGradient id="linear-gradient" x1="296.379" y1="0.5" x2="297.379" y2="0.5" gradientUnits="objectBoundingBox">
      <stop offset="0" stop-color="#ffb0c1"/>
      <stop offset="1" stop-color="#ff9ca8"/>
    </linearGradient>
    <linearGradient id="linear-gradient-2" x1="291.532" y1="0.5" x2="292.532" y2="0.5" xlink:href="#linear-gradient"/>
    <linearGradient id="linear-gradient-3" x1="1322.636" y1="0.5" x2="1323.636" y2="0.5" xlink:href="#linear-gradient"/>
  </defs>
  <g id="Grupo_1764" data-name="Grupo 1764" transform="translate(-115.227 -12.723)">
    <g id="Grupo_1699" data-name="Grupo 1699">
      <g id="Grupo_1694" data-name="Grupo 1694">
        <path id="Trazado_7550" data-name="Trazado 7550" d="M338.89,262.452s-25.9-52.96-22.756-83.146,40.6-45.557,40.5-67.175-12.535-37.3-7.528-52.169,43.063-39.948,50.145-47.239c6.776,25.609,23.275,47.626,20.928,64.561s-21.625,36.64-23.091,49.144,19.785,40.314,14.719,64.042C405.364,220.636,349.737,238.3,338.89,262.452Z" fill="#c9e5f3"/>
        <path id="Trazado_7551" data-name="Trazado 7551" d="M341.439,225.338,317.863,202.6q-.371-1.874-.681-3.723l24.639,23.768c2.821-19.4,6.506-34.646,10.928-47.233l-24.124-22.841q.7-.858,1.412-1.7l23.528,22.276a139.292,139.292,0,0,1,18.1-34.214,63.054,63.054,0,0,0,7-12.894l-22.421-20.337q-.195-1.727-.468-3.4l23.754,21.545c5.819-15.474,7.443-33.722,8.132-49.034l-27.5-29.591q.778-.765,1.588-1.534L387.791,71.7c.1-2.608.182-5.12.257-7.492.155-4.911.289-9.152.563-12.574a136.778,136.778,0,0,1,8.306-36.772c.961-.821,1.753-1.54,2.333-2.137.115.433.239.863.359,1.3a134.226,134.226,0,0,0-8.8,37.79c-.269,3.369-.4,7.585-.557,12.467-.32,10.137-.72,22.674-2.55,35.3l30.875-15.852c-.353,1.026-.754,2.057-1.187,3.091l-30.1,15.453c-2.22,13.733-6.249,27.374-13.837,37.948-2.526,3.519-4.946,7.2-7.253,11.138L400,139.765q.381,1.014.791,2.062L364.553,154.25c-6.788,12.3-12.517,27.3-16.926,48.151,20.289-6.589,49.491-13.777,64.929-18.294-.03.9-.1,1.8-.189,2.693-22.85,6.648-62.871,17.314-65.254,18.088-3.04,15.058-5.414,33.109-7.034,55.245-.44.767-.839,1.539-1.189,2.319,0,0-.38-.777-1.037-2.185C338.8,247.311,340,235.74,341.439,225.338Z" fill="#f3f8fc"/>
      </g>
      <g id="Grupo_1695" data-name="Grupo 1695">
        <path id="Trazado_7552" data-name="Trazado 7552" d="M435.819,95.124c-8.974,34.309-26.555,27.9-51.383,46.691-33.292,25.192-42.99,75.266-24.81,114.391,6.561-44.351,49.135-32.771,77.467-71.786C463.707,147.77,442.608,103.072,435.819,95.124Z" fill="#4a8dbd"/>
        <path id="Trazado_7553" data-name="Trazado 7553" d="M358.825,231.344l-8.2-19.691q.074-2.547.276-5.081l8.726,20.952a85.323,85.323,0,0,1,9.674-23.361l-11.016-28.157q.606-1.434,1.258-2.844l11.179,28.572c.22-.37.438-.738.663-1.111a64.092,64.092,0,0,1,15.17-17.414l-11.794-32.7q.842-.892,1.713-1.759l11.9,32.988c2.476-1.96,5.145-3.939,8.093-6.12,4.817-3.564,10.44-7.726,17.074-13.247L400.05,132.225q1-.5,1.981-.978L415.3,160.9c2.587-2.189,5.32-4.58,8.215-7.224a44.927,44.927,0,0,0,11.01-15.157l-10.14-20.575q.814-.835,1.593-1.758l9.65,19.58c5.3-14.63,2.043-29.625-.606-37.766.274-.926.541-1.881.8-2.874.327.382.687.852,1.073,1.4a72.408,72.408,0,0,1,3.606,16.738,53.863,53.863,0,0,1-2.732,23.155l11.541-5.29q.162,1.135.3,2.292L436.566,139.4A47.358,47.358,0,0,1,425,155.3c-2.473,2.258-4.823,4.326-7.07,6.25l30.046-.3q-.281,1.105-.6,2.213l-32.085.322c-6.824,5.7-12.587,9.963-17.514,13.608-2.628,1.944-5.034,3.725-7.273,5.475l42.5,6.728c-.576.672-1.158,1.322-1.742,1.96l-43.088-6.822a62.4,62.4,0,0,0-14.9,17.026q-.559.929-1.1,1.841L401.84,212.6q-1.451.729-2.887,1.431l-27.913-8.46c-4.7,8.222-7.98,15.714-9.81,24.7l9.277,1.506c-.585.63-1.149,1.286-1.7,1.961l-7.984-1.295a110.789,110.789,0,0,0-1.167,23.582c-.01.063-.021.122-.031.185q-1.236-2.659-2.3-5.384A102.993,102.993,0,0,1,358.825,231.344Z" fill="#72c1d9"/>
      </g>
      <g id="Grupo_1696" data-name="Grupo 1696">
        <path id="Trazado_7554" data-name="Trazado 7554" d="M464.365,187.267c-2.5-6.808-17.393-16.564-35.263-10.133S396.46,201.519,395.809,212.2s6.541,11.846,6.541,11.846,15.748,6.908,39.136-3.672S466.5,193.1,464.365,187.267Z" fill="#ffa300"/>
        <path id="Trazado_7555" data-name="Trazado 7555" d="M397.242,220.06a68.437,68.437,0,0,1,8.185-6.544l-1.547-17.975q.959-1.182,2.013-2.35l1.628,18.915c3.428-2.252,7.167-4.433,11.045-6.514l2.81-24.883q1.167-.66,2.364-1.26l-2.812,24.895c4.121-2.14,8.354-4.162,12.5-6.032l9.162-23.224c.777.043,1.543.108,2.293.2l-8.577,21.741c11.993-5.26,22.856-9.146,27.6-10.778a8.712,8.712,0,0,1,.46,1.013,9.794,9.794,0,0,1,.313,1.063c-4.566,1.586-15.221,5.419-27.02,10.577l23.224,5.976c-.412.643-.851,1.288-1.338,1.935l-25.136-6.468c-4.093,1.844-8.265,3.833-12.321,5.93l24.439,11.527c-.776.441-1.579.876-2.417,1.3L419.64,207.566c-3.855,2.062-7.561,4.218-10.944,6.433l19.35,10.9q-1.725.383-3.355.644l-18.047-10.165a64.989,64.989,0,0,0-8.088,6.472A8.715,8.715,0,0,1,397.242,220.06Z" fill="#f28100"/>
      </g>
      <g id="Grupo_1697" data-name="Grupo 1697">
        <path id="Trazado_7556" data-name="Trazado 7556" d="M168.6,182.1c-4.042,6.02-3.181,23.806,12.524,34.486s38.913,12.079,47.937,6.329,5.741-12.255,5.741-12.255-3.665-16.8-25.97-29.506S172.063,176.941,168.6,182.1Z" fill="#deeff8"/>
        <path id="Trazado_7557" data-name="Trazado 7557" d="M234.576,217.138a68.324,68.324,0,0,1-10.1-2.777l-13.635,11.816q-1.521-.083-3.085-.248L222.1,213.5c-3.837-1.451-7.8-3.194-11.761-5.109l-21.785,12.351q-1.22-.557-2.409-1.173l21.8-12.355c-4.153-2.077-8.277-4.314-12.229-6.572l-24.175,6.236c-.422-.654-.82-1.312-1.183-1.974l22.631-5.838c-11.3-6.612-20.832-13.118-24.937-15.993a8.767,8.767,0,0,1,.549-.967,9.945,9.945,0,0,1,.676-.878c3.967,2.762,13.329,9.13,24.437,15.645l-8.813-22.3c.763-.045,1.543-.068,2.352-.054l9.538,24.138c3.9,2.228,7.959,4.434,12.039,6.483l-5.035-26.548c.813.369,1.636.764,2.473,1.192l5.041,26.58c3.934,1.908,7.855,3.639,11.636,5.075l-2.553-22.062q1.323,1.171,2.493,2.337l2.38,20.575a64.925,64.925,0,0,0,9.99,2.74A8.732,8.732,0,0,1,234.576,217.138Z" fill="#f3f8fc"/>
      </g>
      <g id="Grupo_1698" data-name="Grupo 1698">
        <path id="Trazado_7558" data-name="Trazado 7558" d="M200.741,138.293c-6.5,3.217-14.587,19.081-6.262,36.151s27.773,29.814,38.462,29.306,11.07-7.784,11.07-7.784,5.165-16.4-7.882-38.508S206.312,135.535,200.741,138.293Z" fill="#4a8dbd"/>
        <path id="Trazado_7559" data-name="Trazado 7559" d="M240.6,201.476a68.39,68.39,0,0,1-7.39-7.43l-17.7,3.482q-1.278-.826-2.554-1.748l18.629-3.663c-2.609-3.165-5.181-6.646-7.67-10.276l-25.042-.1q-.783-1.089-1.509-2.214l25.055.1c-2.573-3.866-5.041-7.855-7.349-11.778l-24.079-6.6c-.042-.778-.06-1.547-.047-2.3l22.542,6.176c-6.525-11.353-11.563-21.733-13.7-26.268a8.649,8.649,0,0,1,.958-.566,9.416,9.416,0,0,1,1.023-.426c2.07,4.367,7.033,14.545,13.437,25.717l3.43-23.734c.684.34,1.373.707,2.068,1.122l-3.713,25.687c2.276,3.87,4.705,7.8,7.228,11.607l8.818-25.542c.523.724,1.041,1.476,1.555,2.263l-8.829,25.573c2.466,3.61,5.01,7.06,7.578,10.184l8.744-20.415q.565,1.674,1,3.266l-8.155,19.04a64.9,64.9,0,0,0,7.31,7.34A8.778,8.778,0,0,1,240.6,201.476Z" fill="#4b84b3"/>
      </g>
    </g>
    <g id="Grupo_1763" data-name="Grupo 1763">
      <g id="Grupo_1714" data-name="Grupo 1714">
        <path id="Trazado_7560" data-name="Trazado 7560" d="M161.9,273.864l167.1,17.409a4.048,4.048,0,0,1,3.454,5.2L294.757,420.46a4.047,4.047,0,0,1-4.284,2.85l-167.431-17.1a4.047,4.047,0,0,1-3.46-5.211l38.023-124.3A4.046,4.046,0,0,1,161.9,273.864Z" fill="#00467f" opacity="0.08"/>
        <path id="Trazado_7561" data-name="Trazado 7561" d="M155.667,269.554l175.3,18.263L290.875,419.685,115.227,401.751Z" fill="#f3f8fc"/>
        <g id="Grupo_1704" data-name="Grupo 1704">
          <g id="Grupo_1700" data-name="Grupo 1700">
            <path id="Trazado_7562" data-name="Trazado 7562" d="M189.473,307.054l-29.743-3.035,7.056-23.072,29.69,3.092Zm-25.5-5.853,23.179,2.366,5.086-16.716L169.1,284.44Z" fill="#c9e5f3"/>
          </g>
          <path id="Trazado_7563" data-name="Trazado 7563" d="M201.883,298.517l29.4,3.1-1.77,6.582-29.452-3.05Z" fill="#c9e5f3"/>
          <path id="Trazado_7564" data-name="Trazado 7564" d="M204.333,289.365l29.4,3.1-1.77,6.582L202.51,296Z" fill="#c9e5f3"/>
          <path id="Trazado_7565" data-name="Trazado 7565" d="M193.089,323.365l29.4,3.1-1.77,6.582L191.266,330Z" fill="#c9e5f3"/>
          <path id="Trazado_7566" data-name="Trazado 7566" d="M195.54,314.213l29.4,3.1-1.77,6.582-29.452-3.051Z" fill="#c9e5f3"/>
          <path id="Trazado_7567" data-name="Trazado 7567" d="M183.573,352.252l29.4,3.1-1.77,6.582-29.452-3.051Z" fill="#c9e5f3"/>
          <path id="Trazado_7568" data-name="Trazado 7568" d="M186.023,343.1l29.4,3.1-1.77,6.581-29.452-3.05Z" fill="#c9e5f3"/>
          <path id="Trazado_7569" data-name="Trazado 7569" d="M174.557,381.731l29.4,3.1-1.77,6.582-29.452-3.051Z" fill="#c9e5f3"/>
          <path id="Trazado_7570" data-name="Trazado 7570" d="M177.007,372.579l29.4,3.1-1.77,6.582-29.452-3.051Z" fill="#c9e5f3"/>
          <path id="Trazado_7571" data-name="Trazado 7571" d="M279.91,307.992l29.4,3.1-1.77,6.581-29.452-3.05Z" fill="#c9e5f3"/>
          <path id="Trazado_7572" data-name="Trazado 7572" d="M282.361,298.84l29.4,3.1-1.77,6.582-29.452-3.051Z" fill="#c9e5f3"/>
          <path id="Trazado_7573" data-name="Trazado 7573" d="M271.117,332.841l29.4,3.1-1.77,6.582-29.452-3.051Z" fill="#c9e5f3"/>
          <path id="Trazado_7574" data-name="Trazado 7574" d="M273.567,323.688l29.4,3.1-1.77,6.582-29.452-3.051Z" fill="#c9e5f3"/>
          <path id="Trazado_7575" data-name="Trazado 7575" d="M261.6,361.727l29.4,3.1-1.77,6.582-29.452-3.051Z" fill="#c9e5f3"/>
          <path id="Trazado_7576" data-name="Trazado 7576" d="M264.051,352.575l29.4,3.1-1.77,6.582-29.452-3.051Z" fill="#c9e5f3"/>
          <path id="Trazado_7577" data-name="Trazado 7577" d="M252.584,391.207l29.4,3.1-1.77,6.582-29.452-3.051Z" fill="#c9e5f3"/>
          <path id="Trazado_7578" data-name="Trazado 7578" d="M255.035,382.054l29.4,3.1-1.77,6.581-29.452-3.05Z" fill="#c9e5f3"/>
          <g id="Grupo_1701" data-name="Grupo 1701">
            <path id="Trazado_7579" data-name="Trazado 7579" d="M172.475,362.118l-29.743-3.039,7.057-23.071,29.683,3.092Zm-25.5-5.856,23.179,2.369,5.082-16.72L152.1,339.5Z" fill="#c9e5f3"/>
          </g>
          <g id="Grupo_1702" data-name="Grupo 1702">
            <path id="Trazado_7580" data-name="Trazado 7580" d="M163.448,391.713,133.7,388.677l7.06-23.075,29.683,3.093Zm-25.5-5.853,23.182,2.366,5.083-16.72-23.139-2.41Z" fill="#c9e5f3"/>
          </g>
          <g id="Grupo_1703" data-name="Grupo 1703">
            <path id="Trazado_7581" data-name="Trazado 7581" d="M181.07,333.49l-29.746-3.039,7.06-23.072,29.683,3.093Zm-25.5-5.856L178.752,330l5.082-16.72-23.138-2.41Z" fill="#c9e5f3"/>
          </g>
        </g>
        <g id="Grupo_1709" data-name="Grupo 1709">
          <g id="Grupo_1705" data-name="Grupo 1705">
            <path id="Trazado_7582" data-name="Trazado 7582" d="M266.952,314.717l-29.747-3.035,7.06-23.072,29.683,3.092Zm-25.5-5.853,23.182,2.366,5.083-16.716L246.577,292.1Z" fill="#c9e5f3"/>
          </g>
          <g id="Grupo_1706" data-name="Grupo 1706">
            <path id="Trazado_7583" data-name="Trazado 7583" d="M249.954,369.781l-29.746-3.038,7.06-23.072,29.683,3.092Zm-25.5-5.856,23.183,2.369,5.082-16.719-23.138-2.41Z" fill="#c9e5f3"/>
          </g>
          <g id="Grupo_1707" data-name="Grupo 1707">
            <path id="Trazado_7584" data-name="Trazado 7584" d="M240.923,399.376l-29.746-3.035,7.06-23.076,29.683,3.093Zm-25.5-5.853,23.183,2.366,5.082-16.72-23.138-2.41Z" fill="#c9e5f3"/>
          </g>
          <g id="Grupo_1708" data-name="Grupo 1708">
            <path id="Trazado_7585" data-name="Trazado 7585" d="M258.546,341.153,228.8,338.114l7.06-23.071,29.683,3.092Zm-25.5-5.856,23.183,2.369,5.082-16.72-23.138-2.41Z" fill="#c9e5f3"/>
          </g>
        </g>
        <g id="Grupo_1710" data-name="Grupo 1710">
          <path id="Trazado_7586" data-name="Trazado 7586" d="M225.789,394.606l-5.815-13.3a1.617,1.617,0,0,1,2.963-1.295l4.211,9.628,19.076-13.785a1.618,1.618,0,0,1,1.9,2.622Z" fill="#4b84b3"/>
        </g>
        <g id="Grupo_1711" data-name="Grupo 1711">
          <path id="Trazado_7587" data-name="Trazado 7587" d="M157.689,355.172l-5.818-13.3a1.617,1.617,0,1,1,2.963-1.3l4.213,9.628,19.076-13.785a1.618,1.618,0,1,1,1.9,2.622Z" fill="#4b84b3"/>
        </g>
        <g id="Grupo_1712" data-name="Grupo 1712">
          <path id="Trazado_7588" data-name="Trazado 7588" d="M242.237,336.5l-5.815-13.3a1.617,1.617,0,0,1,2.963-1.3l4.211,9.628,19.075-13.784a1.617,1.617,0,1,1,1.9,2.621Z" fill="#4b84b3"/>
        </g>
        <g id="Grupo_1713" data-name="Grupo 1713">
          <path id="Trazado_7589" data-name="Trazado 7589" d="M251.48,308.807l-5.816-13.3a1.617,1.617,0,0,1,2.964-1.3l4.21,9.628,19.076-13.785a1.618,1.618,0,1,1,1.895,2.622Z" fill="#4b84b3"/>
        </g>
      </g>
      <g id="Grupo_1729" data-name="Grupo 1729">
        <path id="Trazado_7590" data-name="Trazado 7590" d="M431.953,298.632l-139.559,14.54a3.381,3.381,0,0,0-2.884,4.346l31.479,103.55a3.382,3.382,0,0,0,3.578,2.38L464.4,409.17a3.382,3.382,0,0,0,2.89-4.353L435.536,301.006A3.38,3.38,0,0,0,431.953,298.632Z" fill="#00467f" opacity="0.08"/>
        <path id="Trazado_7591" data-name="Trazado 7591" d="M437.155,295.033l-146.4,15.253L324.231,420.42l146.7-14.978Z" fill="#f3f8fc"/>
        <g id="Grupo_1719" data-name="Grupo 1719">
          <g id="Grupo_1715" data-name="Grupo 1715">
            <path id="Trazado_7592" data-name="Trazado 7592" d="M403.072,307.13l24.8-2.582,5.894,19.269-24.841,2.535Zm22.865.336-19.327,2.012,4.247,13.962,19.359-1.976Z" fill="#c9e5f3"/>
          </g>
          <path id="Trazado_7593" data-name="Trazado 7593" d="M398.556,319.222,374,321.812l1.478,5.5,24.6-2.548Z" fill="#c9e5f3"/>
          <path id="Trazado_7594" data-name="Trazado 7594" d="M396.509,311.578l-24.554,2.589,1.478,5.5,24.6-2.548Z" fill="#c9e5f3"/>
          <path id="Trazado_7595" data-name="Trazado 7595" d="M405.9,339.975l-24.554,2.589,1.479,5.5,24.6-2.548Z" fill="#c9e5f3"/>
          <path id="Trazado_7596" data-name="Trazado 7596" d="M403.853,332.331,379.3,334.92l1.478,5.5,24.6-2.548Z" fill="#c9e5f3"/>
          <path id="Trazado_7597" data-name="Trazado 7597" d="M413.848,364.1l-24.554,2.589,1.478,5.5,24.6-2.548Z" fill="#c9e5f3"/>
          <path id="Trazado_7598" data-name="Trazado 7598" d="M411.8,356.457l-24.554,2.589,1.478,5.5,24.6-2.548Z" fill="#c9e5f3"/>
          <path id="Trazado_7599" data-name="Trazado 7599" d="M421.378,388.721l-24.554,2.589,1.478,5.5,24.6-2.548Z" fill="#c9e5f3"/>
          <path id="Trazado_7600" data-name="Trazado 7600" d="M419.332,381.077l-24.554,2.589,1.478,5.5,24.6-2.548Z" fill="#c9e5f3"/>
          <path id="Trazado_7601" data-name="Trazado 7601" d="M333.388,327.136l-24.554,2.589,1.478,5.5,24.6-2.548Z" fill="#c9e5f3"/>
          <path id="Trazado_7602" data-name="Trazado 7602" d="M331.342,319.492l-24.554,2.589,1.478,5.5,24.6-2.548Z" fill="#c9e5f3"/>
          <path id="Trazado_7603" data-name="Trazado 7603" d="M340.733,347.889l-24.554,2.589,1.478,5.5,24.6-2.548Z" fill="#c9e5f3"/>
          <path id="Trazado_7604" data-name="Trazado 7604" d="M338.686,340.244l-24.554,2.589,1.478,5.5,24.6-2.548Z" fill="#c9e5f3"/>
          <path id="Trazado_7605" data-name="Trazado 7605" d="M348.681,372.014,324.127,374.6l1.478,5.5,24.6-2.548Z" fill="#c9e5f3"/>
          <path id="Trazado_7606" data-name="Trazado 7606" d="M346.634,364.37l-24.554,2.589,1.478,5.5,24.6-2.548Z" fill="#c9e5f3"/>
          <path id="Trazado_7607" data-name="Trazado 7607" d="M356.211,396.635l-24.554,2.589,1.478,5.5,24.6-2.548Z" fill="#c9e5f3"/>
          <path id="Trazado_7608" data-name="Trazado 7608" d="M354.164,388.991l-24.554,2.589,1.478,5.5,24.6-2.548Z" fill="#c9e5f3"/>
          <g id="Grupo_1716" data-name="Grupo 1716">
            <path id="Trazado_7609" data-name="Trazado 7609" d="M417.273,353.116l24.791-2.582,5.894,19.269-24.841,2.538Zm22.86.336-19.325,2.012,4.245,13.964,19.359-1.978Z" fill="#c9e5f3"/>
          </g>
          <g id="Grupo_1717" data-name="Grupo 1717">
            <path id="Trazado_7610" data-name="Trazado 7610" d="M424.813,377.834l24.791-2.583,5.9,19.272-24.844,2.535Zm22.86.335-19.325,2.013,4.245,13.963,19.361-1.976Z" fill="#c9e5f3"/>
          </g>
          <g id="Grupo_1718" data-name="Grupo 1718">
            <path id="Trazado_7611" data-name="Trazado 7611" d="M410.1,329.207l24.791-2.583,5.9,19.269-24.844,2.538Zm22.859.335-19.324,2.013,4.245,13.964,19.361-1.979Z" fill="#c9e5f3"/>
          </g>
        </g>
        <g id="Grupo_1724" data-name="Grupo 1724">
          <g id="Grupo_1720" data-name="Grupo 1720">
            <path id="Trazado_7612" data-name="Trazado 7612" d="M338.368,313.531l24.791-2.583,5.9,19.269-24.844,2.535Zm22.86.335L341.9,315.879l4.245,13.961,19.361-1.976Z" fill="#c9e5f3"/>
          </g>
          <g id="Grupo_1721" data-name="Grupo 1721">
            <path id="Trazado_7613" data-name="Trazado 7613" d="M352.564,359.517l24.791-2.583,5.9,19.269-24.844,2.538Zm22.86.335L356.1,361.865l4.245,13.963L379.7,373.85Z" fill="#c9e5f3"/>
          </g>
          <g id="Grupo_1722" data-name="Grupo 1722">
            <path id="Trazado_7614" data-name="Trazado 7614" d="M360.106,384.234l24.791-2.583,5.9,19.272-24.844,2.535Zm22.86.335-19.324,2.013,4.244,13.964,19.362-1.976Z" fill="#c9e5f3"/>
          </g>
          <g id="Grupo_1723" data-name="Grupo 1723">
            <path id="Trazado_7615" data-name="Trazado 7615" d="M345.388,335.607l24.791-2.583,5.9,19.269-24.843,2.538Zm22.86.335-19.325,2.013,4.245,13.964,19.362-1.979Z" fill="#c9e5f3"/>
          </g>
        </g>
        <g id="Grupo_1725" data-name="Grupo 1725">
          <path id="Trazado_7616" data-name="Trazado 7616" d="M378.589,399.474l4.857-11.112a1.35,1.35,0,1,0-2.474-1.081l-3.517,8.041-15.932-11.513A1.351,1.351,0,0,0,359.94,386Z" fill="#4b84b3"/>
        </g>
        <g id="Grupo_1726" data-name="Grupo 1726">
          <path id="Trazado_7617" data-name="Trazado 7617" d="M435.466,366.54l4.859-11.113a1.35,1.35,0,1,0-2.474-1.081l-3.52,8.041L418.4,350.874a1.351,1.351,0,1,0-1.583,2.19Z" fill="#4b84b3"/>
        </g>
        <g id="Grupo_1727" data-name="Grupo 1727">
          <path id="Trazado_7618" data-name="Trazado 7618" d="M364.853,350.945l4.856-11.112a1.35,1.35,0,1,0-2.474-1.081l-3.517,8.041L347.786,335.28a1.351,1.351,0,1,0-1.583,2.189Z" fill="#4b84b3"/>
        </g>
        <g id="Grupo_1728" data-name="Grupo 1728">
          <path id="Trazado_7619" data-name="Trazado 7619" d="M357.133,327.816,361.99,316.7a1.35,1.35,0,1,0-2.475-1.081L356,323.664l-15.932-11.513a1.351,1.351,0,0,0-1.583,2.19Z" fill="#4b84b3"/>
        </g>
      </g>
      <g id="Grupo_1750" data-name="Grupo 1750">
        <path id="Trazado_7620" data-name="Trazado 7620" d="M404.178,424.111,434.084,406.8a2.689,2.689,0,0,0-.01-4.657l-7.063-4.173a2.687,2.687,0,0,0-2.678,0l-30.3,16.668a2.689,2.689,0,0,0-.006,4.662l7.456,4.811A2.688,2.688,0,0,0,404.178,424.111Z" fill="#00467f" opacity="0.08"/>
        <g id="Grupo_1749" data-name="Grupo 1749">
          <g id="Grupo_1735" data-name="Grupo 1735">
            <g id="Grupo_1734" data-name="Grupo 1734">
              <path id="Trazado_7621" data-name="Trazado 7621" d="M332.709,436.7l121.87-70.771a2.689,2.689,0,0,0-.01-4.657L263.416,251.43a2.69,2.69,0,0,0-2.678,0L138.475,321.562a2.69,2.69,0,0,0-.006,4.663L330.015,436.7A2.688,2.688,0,0,0,332.709,436.7Z" fill="#00467f" opacity="0.08"/>
              <path id="Trazado_7622" data-name="Trazado 7622" d="M331.358,429.616l118.518-68.824V323.807L266.822,255.6l-118.9,66.067v2.14Z" fill="#0c1e4f"/>
              <path id="Trazado_7623" data-name="Trazado 7623" d="M266.822,253.464l-118.9,68.207,183.44,105.806,116.048-67.391Z" fill="#4b84b3"/>
              <path id="Trazado_7624" data-name="Trazado 7624" d="M445.353,326.433V358.4L331.042,423.764,153.1,321.55V288.867Z" fill="#f3f8fc"/>
              <g id="Grupo_1730" data-name="Grupo 1730">
                <path id="Trazado_7625" data-name="Trazado 7625" d="M335.639,412.206a.4.4,0,0,1-.2-.753l66.023-38.34a.4.4,0,0,1,.4.7l-66.023,38.34A.432.432,0,0,1,335.639,412.206Z" fill="#c9e5f3"/>
              </g>
              <path id="Trazado_7626" data-name="Trazado 7626" d="M331.358,394.69l118.517-68.825L266.822,220.678l-118.9,66.148v2.059Z" fill="#0c1e4f"/>
              <path id="Trazado_7627" data-name="Trazado 7627" d="M331.358,392.632l118.517-68.825L266.822,218.619l-118.9,68.207Z" fill="#4b84b3"/>
              <path id="Trazado_7628" data-name="Trazado 7628" d="M237.9,235.208l-2.53,1.451L174,301.869l117.182,67.589,51.137,16.808,61.866-35.926,33.63-33.464-61.2-35.167Z" fill="#00467f" opacity="0.08"/>
              <g id="Grupo_1731" data-name="Grupo 1731">
                <path id="Trazado_7629" data-name="Trazado 7629" d="M297.661,383.9a.415.415,0,0,1-.2-.054l-66.021-38.341a.407.407,0,0,1-.148-.552.4.4,0,0,1,.552-.145l66.02,38.338a.4.4,0,0,1-.2.754Z" fill="#c9e5f3"/>
              </g>
              <g id="Grupo_1732" data-name="Grupo 1732">
                <path id="Trazado_7630" data-name="Trazado 7630" d="M324.881,407.277a.415.415,0,0,1-.2-.054L258.656,368.88a.4.4,0,1,1,.4-.7l66.023,38.34a.4.4,0,0,1-.2.754Z" fill="#c9e5f3"/>
              </g>
              <g id="Grupo_1733" data-name="Grupo 1733">
                <path id="Trazado_7631" data-name="Trazado 7631" d="M229.6,350.339a.387.387,0,0,1-.2-.056l-66.02-38.34a.4.4,0,1,1,.4-.7l66.02,38.34a.406.406,0,0,1,.149.552A.41.41,0,0,1,229.6,350.339Z" fill="#c9e5f3"/>
              </g>
            </g>
            <path id="Trazado_7632" data-name="Trazado 7632" d="M380.735,377.1l28.658-16.642c8.9,8.393-.48,29.325,23.083,43.28l-28.871,16.765C383.379,412.552,393.048,385.009,380.735,377.1Z" fill="#ffb61c"/>
          </g>
          <g id="Grupo_1738" data-name="Grupo 1738">
            <path id="Trazado_7633" data-name="Trazado 7633" d="M362.731,385.137l87.144-86.714V253.641L238.066,227.417l-83.917,86.047v3.114Z" fill="#ffc41d"/>
            <path id="Trazado_7634" data-name="Trazado 7634" d="M362.511,382.067l87.144-86.714L237.846,224.347l-83.7,89.117Z" fill="#ff9f1a"/>
            <path id="Trazado_7635" data-name="Trazado 7635" d="M445.493,254.773l-284.178,17.62v39.8L360.77,378.746l84.723-84.788Z" fill="#f3f8fc"/>
            <path id="Trazado_7636" data-name="Trazado 7636" d="M444.456,255.655,238.066,190.81l-83.917,85.4v3.766L362.731,348.53l81.725-81.321Z" fill="#00467f" opacity="0.08"/>
            <g id="Grupo_1736" data-name="Grupo 1736">
              <path id="Trazado_7637" data-name="Trazado 7637" d="M389.556,325.289a.405.405,0,0,1-.287-.689l48.993-49.031a.4.4,0,0,1,.574.57l-48.994,49.032A.4.4,0,0,1,389.556,325.289Z" fill="#c9e5f3"/>
            </g>
            <g id="Grupo_1737" data-name="Grupo 1737">
              <path id="Trazado_7638" data-name="Trazado 7638" d="M293.066,349.659a.426.426,0,0,1-.129-.02l-93.518-31.2a.4.4,0,0,1,.258-.765l93.518,31.2a.4.4,0,0,1-.129.786Z" fill="#c9e5f3"/>
            </g>
            <path id="Trazado_7639" data-name="Trazado 7639" d="M362.731,344.072l87.144-86.714L238.066,186.352l-83.917,85.4v3.766Z" fill="#ffc41d"/>
            <path id="Trazado_7640" data-name="Trazado 7640" d="M362.731,340.355l87.144-86.714L238.066,182.634l-83.917,85.4V271.8Z" fill="#ff9f1a"/>
            <path id="Trazado_7641" data-name="Trazado 7641" d="M376.044,327.107l34.886-34.713L280.937,217.7l-92.566,53.1,49.379,28.481,118.913,39.086Z" fill="#00467f" opacity="0.08"/>
          </g>
          <g id="Grupo_1744" data-name="Grupo 1744">
            <g id="Grupo_1741" data-name="Grupo 1741">
              <g id="Grupo_1740" data-name="Grupo 1740">
                <g id="Grupo_1739" data-name="Grupo 1739">
                  <path id="Trazado_7642" data-name="Trazado 7642" d="M333.171,346.443l97.639-56.7v-1.81L280,203.085l-97.958,54.428v1.763Z" fill="#294c86"/>
                  <path id="Trazado_7643" data-name="Trazado 7643" d="M280,201.323l-97.958,56.191L333.171,344.68l97.639-56.747Z" fill="#4b84b3"/>
                  <path id="Trazado_7644" data-name="Trazado 7644" d="M427.085,261.437v26.334l-96.443,55.484L186.317,257.414V230.488Z" fill="#f3f8fc"/>
                  <path id="Trazado_7645" data-name="Trazado 7645" d="M425.942,259.151,281.308,178.188,183.35,232.121v2.258L329.4,324.762l96.544-56.316Z" fill="#00467f" opacity="0.08"/>
                  <path id="Trazado_7646" data-name="Trazado 7646" d="M328.093,321.429,430.81,261.513v-2.239L280,174.855l-97.958,53.934v2.258Z" fill="#294c86"/>
                  <path id="Trazado_7647" data-name="Trazado 7647" d="M333.171,315.974l97.639-56.7L280,172.616l-97.958,56.191Z" fill="#4b84b3"/>
                  <path id="Trazado_7648" data-name="Trazado 7648" d="M353.118,238.7c0,19.547-27.422,35.392-61.249,35.392s-61.248-15.845-61.248-35.392,27.422-35.391,61.248-35.391S353.118,219.155,353.118,238.7Z" fill="#00467f" opacity="0.26"/>
                </g>
              </g>
              <path id="Trazado_7649" data-name="Trazado 7649" d="M333.171,315.974s-2.751,2.236-2.751,13.012,2.751,17.457,2.751,17.457L182.046,259.276s-2.751-5.847-2.751-16.152,2.751-14.317,2.751-14.317Z" fill="#294c86"/>
            </g>
            <g id="Grupo_1742" data-name="Grupo 1742">
              <path id="Trazado_7650" data-name="Trazado 7650" d="M333.171,326.933a.426.426,0,0,1-.213-.8l69.866-40.573a.426.426,0,1,1,.427.737l-69.866,40.573A.4.4,0,0,1,333.171,326.933Z" fill="#c9e5f3"/>
            </g>
            <g id="Grupo_1743" data-name="Grupo 1743">
              <path id="Trazado_7651" data-name="Trazado 7651" d="M427.012,282.47l-67.363,39.118a.426.426,0,0,0,.213.795.413.413,0,0,0,.214-.058l66.936-38.87Z" fill="#c9e5f3"/>
            </g>
          </g>
          <g id="Grupo_1745" data-name="Grupo 1745">
            <path id="Trazado_7652" data-name="Trazado 7652" d="M367.164,385.591a.4.4,0,0,1-.2-.753L432.986,346.5a.4.4,0,1,1,.4.7l-66.023,38.342A.426.426,0,0,1,367.164,385.591Z" fill="#c9e5f3"/>
          </g>
          <g id="Grupo_1746" data-name="Grupo 1746">
            <path id="Trazado_7653" data-name="Trazado 7653" d="M368.649,357.118a.4.4,0,0,1-.284-.118.4.4,0,0,1,0-.57l49-49.032a.4.4,0,0,1,.573.571l-49,49.031A.4.4,0,0,1,368.649,357.118Z" fill="#c9e5f3"/>
          </g>
          <g id="Grupo_1747" data-name="Grupo 1747">
            <path id="Trazado_7654" data-name="Trazado 7654" d="M294.907,333.113a.433.433,0,0,1-.13-.02l-75-25.026a.4.4,0,0,1-.252-.511.4.4,0,0,1,.511-.255l75,25.026a.4.4,0,0,1-.129.786Z" fill="#c9e5f3"/>
          </g>
          <g id="Grupo_1748" data-name="Grupo 1748">
            <path id="Trazado_7655" data-name="Trazado 7655" d="M353.037,363.394a.4.4,0,0,1-.129-.021l-93.514-31.2a.4.4,0,0,1,.258-.766l93.515,31.2a.4.4,0,0,1-.13.787Z" fill="#c9e5f3"/>
          </g>
        </g>
      </g>
      <g id="Grupo_1752" data-name="Grupo 1752">
        <g id="Grupo_1751" data-name="Grupo 1751">
          <path id="Trazado_7656" data-name="Trazado 7656" d="M346.5,225.04l-2.959.017c-7.365-12.4-27.71-21.321-51.673-21.321-24.361,0-44.991,9.217-52.036,21.943l-2.595.015v9.61c0,17.435,24.46,31.568,54.631,31.568S346.5,252.739,346.5,235.3c0-.184-.018-.366-.024-.549l.024-.024Z" fill="#ffb61c"/>
          <path id="Trazado_7657" data-name="Trazado 7657" d="M346.5,225.694c0,17.435-24.459,31.569-54.632,31.569s-54.631-14.134-54.631-31.569,24.46-31.567,54.631-31.567S346.5,208.26,346.5,225.694Z" fill="#ffe36c"/>
          <path id="Trazado_7658" data-name="Trazado 7658" d="M334.777,190.477c-5.261-23.723-24.006-31.685-34.69-34.327a21.4,21.4,0,0,0-16.523.038c-10.71,2.681-29.3,10.681-34.536,34.289-2.056,7.848-2.056,22.423-2.056,22.423v12.212c-.042.462-.066.928-.066,1.4,0,14.35,20.131,25.982,44.963,25.982,24.581,0,44.541-11.4,44.945-25.546h.019V212.9S336.833,198.325,334.777,190.477Z" fill="#b4dced"/>
          <path id="Trazado_7659" data-name="Trazado 7659" d="M251.672,196.458a137.838,137.838,0,0,0-.967,15.66v11.2c-.039.424-.061.851-.061,1.28,0,13.157,18.458,23.822,41.226,23.822,22.536,0,40.837-10.451,41.208-23.422h.017V212.118a137.84,137.84,0,0,0-.967-15.66Z" fill="#ffe36c"/>
          <path id="Trazado_7660" data-name="Trazado 7660" d="M336.551,108.08c0-48.378-42.423-11.194-44.789-9.083-2.366-2.111-44.79-39.3-44.79,9.083,0,48.159,34.092,51.825,40.15,54.557h0c.6,1.186,2.5,2.053,4.747,2.053,2.318,0,4.259-.922,4.8-2.166C303.384,159.8,336.551,155.583,336.551,108.08Z" fill="#72c1d9"/>
          <path id="Trazado_7661" data-name="Trazado 7661" d="M346.5,81.275l-2.959.018c-7.365-12.4-27.71-21.321-51.673-21.321-24.361,0-44.991,9.216-52.036,21.942l-2.595.016v9.609c0,17.435,24.46,31.569,54.631,31.569S346.5,108.974,346.5,91.539c0-.184-.018-.366-.024-.549l.024-.024Z" fill="#ffb61c"/>
          <ellipse id="Elipse_601" data-name="Elipse 601" cx="54.632" cy="31.568" rx="54.632" ry="31.568" transform="translate(237.238 50.362)" fill="#ffe36c"/>
          <path id="Trazado_7662" data-name="Trazado 7662" d="M321.1,141.451c0-9.328-13.087-14.065-29.229-14.065s-29.23,4.737-29.23,14.065a15.1,15.1,0,0,0,2.28,7.4c9.073,8.044,19.527,9.651,22.535,11.008h0c.56,1.1,2.319,1.906,4.406,1.906,2.152,0,3.953-.856,4.452-2.011,3.349-1.359,13.778-3.121,22.717-11.288A14.821,14.821,0,0,0,321.1,141.451Z" fill="#ffe36c"/>
          <path id="Trazado_7663" data-name="Trazado 7663" d="M332.531,225.694c0,12.977-18.205,23.5-40.661,23.5s-40.661-10.519-40.661-23.495,18.2-23.5,40.66-23.5S332.531,212.718,332.531,225.694Z" fill="#ffe36c"/>
          <path id="Trazado_7664" data-name="Trazado 7664" d="M332.531,199.16c0,12.976-18.205,23.5-40.661,23.5s-40.661-10.52-40.662-23.5,18.205-23.5,40.661-23.5S332.531,186.184,332.531,199.16Z" fill="#fff48f"/>
          <path id="Trazado_7665" data-name="Trazado 7665" d="M308.384,194.517c0,5.3-7.442,9.6-16.622,9.6s-16.623-4.3-16.623-9.6,7.442-9.6,16.623-9.6S308.384,189.212,308.384,194.517Z" fill="#ffe36c"/>
        </g>
        <path id="Trazado_7666" data-name="Trazado 7666" d="M294.038,165.584a2.169,2.169,0,1,0-2.168,2.169A2.169,2.169,0,0,0,294.038,165.584Z" fill="#ffe36c"/>
        <path id="Trazado_7667" data-name="Trazado 7667" d="M291.53,194.127a1.253,1.253,0,1,0-1.254,1.253A1.255,1.255,0,0,0,291.53,194.127Z" fill="#fff48f"/>
        <path id="Trazado_7668" data-name="Trazado 7668" d="M296.157,175.665a4.288,4.288,0,1,0-4.287,4.288A4.287,4.287,0,0,0,296.157,175.665Z" fill="#ffe36c"/>
        <path id="Trazado_7669" data-name="Trazado 7669" d="M289.726,184.912a2.144,2.144,0,1,0-2.144,2.143A2.144,2.144,0,0,0,289.726,184.912Z" fill="#fff48f"/>
        <path id="Trazado_7670" data-name="Trazado 7670" d="M298.3,188.66a2.143,2.143,0,1,0-2.144,2.144A2.144,2.144,0,0,0,298.3,188.66Z" fill="#fff48f"/>
      </g>
      <g id="Grupo_1756" data-name="Grupo 1756">
        <path id="Trazado_7671" data-name="Trazado 7671" d="M158.79,368.95a12.756,12.756,0,0,1,5.345.718L170,373.273a27.988,27.988,0,0,1,7.4,2.642l55.679,34.206h0L243.3,416.4l4.21,2.587,2.5,1.533q2.285,1.4,4.527,2.781l.311.191,3.641,2.238,9.476,5.821,27.339,16.8c.019.011.042.029.061.041s3.379,4.087,4.124,6.152l0,0c1.054.791,6.479,4.9,5.89,4.955-.573.057-8.591-3.957-10.094-4.744-5.266-1.7-13.68-5.072-13.7-5.083l-55.859-34.42-2.792-1.72-59.958-36.946s-2.922-1.938-.608-3.013l-5.619-3.462C156.543,369.567,157.28,369.1,158.79,368.95Z" fill="#00467f" opacity="0.08"/>
        <g id="Grupo_1755" data-name="Grupo 1755">
          <g id="Grupo_1753" data-name="Grupo 1753">
            <path id="Trazado_7672" data-name="Trazado 7672" d="M182.359,373.549a5.457,5.457,0,0,0-.817,4.651l-25.323-15.823a5.535,5.535,0,0,1,.846-4.563c1.151-1.879,2.919-2.958,4.244-2.783l25.339,15.739C185.319,370.565,183.523,371.649,182.359,373.549Z" fill="#294c86"/>
          </g>
          <path id="Trazado_7673" data-name="Trazado 7673" d="M164.02,361.927c4-6.035,10.212-2.892,10.212-2.892L298.139,436c.019.012.046.034.066.047-1.445,1.47-2.344,3.735-3.341,5.4-1.432,2.393-2.826,6.005-5.2,7.608a1.985,1.985,0,0,0-.715,1.826c-2.253-1.409-124.767-77.955-124.767-77.955S159.114,369.326,164.02,361.927Z" fill="#72c1d9"/>
          <path id="Trazado_7674" data-name="Trazado 7674" d="M289.107,440.732c2.52-4.112,6.665-6.179,9.1-4.689.016.01,8,12.315,6.71,14.606s-15.943.243-15.967.228C286.515,449.386,286.586,444.844,289.107,440.732Z" fill="#b4dced"/>
          <g id="Grupo_1754" data-name="Grupo 1754">
            <path id="Trazado_7675" data-name="Trazado 7675" d="M273.5,431.233c-2,3.269-2.536,6.792-1.581,9L222.891,409.6c-.863-2.22-.318-5.646,1.638-8.836,2.229-3.638,5.653-5.726,8.217-5.388l49.061,30.472C279.234,425.455,275.757,427.554,273.5,431.233Z" fill="#294c86"/>
          </g>
          <path id="Trazado_7676" data-name="Trazado 7676" d="M300.813,448.238a2.415,2.415,0,0,1,3.668-.652c1.185,1.039,7.3,6.469,6.906,7.112s-8.775-2.55-9.956-3.081A2.265,2.265,0,0,1,300.813,448.238Z" fill="#294c86"/>
        </g>
      </g>
      <g id="Grupo_1762" data-name="Grupo 1762">
        <path id="Trazado_7677" data-name="Trazado 7677" d="M326.243,279.858c5.109,7.428,16.195,9.973,24.025,13.193a3.688,3.688,0,0,0,.9.242c4.551,2.843,11.433,5.315,15.05,1.26,5.234-5.867-10.122-19.065,5.532-15.221,4.778,1.173,16.086,7.115,20.063.942,3.473-5.39-2.492-11.614-6.3-14.6-7.864-6.167-16.195-5.941-25.6-6.981-9.761-1.079-21.55-2.172-30.549,2.962C322.4,265.622,321.865,273.493,326.243,279.858Z" fill="#002e61" opacity="0.06"/>
        <g id="Grupo_1761" data-name="Grupo 1761">
          <path id="Trazado_7678" data-name="Trazado 7678" d="M379.744,327.566l2.44,7.947-3.276,3.346s-2.51-.628-2.58-.976-2.648-9.829-2.648-9.829Z" fill="#ffb4c4"/>
          <path id="Trazado_7679" data-name="Trazado 7679" d="M385.562,317.048c-.05.149-.747,6.879-.747,6.879l2.243,2.891h3.389l1.994-9.77Z" fill="#ffb4c4"/>
          <path id="Trazado_7680" data-name="Trazado 7680" d="M353.354,243.471s40.041,15.633,46.253,25.491-7.063,50.159-7.063,50.159a12.153,12.153,0,0,1-7.87-1.4c2.74-21.728-3.77-30.3,3.921-40.059-2.5-.195-43.747-3.075-48.758-19.522S353.354,243.471,353.354,243.471Z" fill="#091946"/>
          <path id="Trazado_7681" data-name="Trazado 7681" d="M348.465,252.088s4.152,6.338,2.691,11.821c11.453,8.712,22.3,21.238,22.3,21.238s1.382,23.245,7.193,42.488c-1.808,2.97-5.246,2.942-6.92,2.555-5.385-15.885-15.3-27.479-11.508-38.715-4-2.13-35.955-12.375-38.236-22.921s4.014-13.625,5.435-16.466S348.465,252.088,348.465,252.088Z" fill="#1a3474"/>
          <g id="Grupo_1760" data-name="Grupo 1760">
            <g id="Grupo_1758" data-name="Grupo 1758">
              <g id="Grupo_1757" data-name="Grupo 1757">
                <path id="Trazado_7682" data-name="Trazado 7682" d="M345.62,268.465v.495a2.936,2.936,0,0,0,1.573,2.34c3.81,2.583,13.679,10.645,15.643,12.045a5.3,5.3,0,0,0,5.487.616c3.532-1.566,31.03-17.48,31.614-17.776a1.858,1.858,0,0,0,1.008-1.568l-11.6-1.008Z" fill="#bbdbed"/>
                <path id="Trazado_7683" data-name="Trazado 7683" d="M382.723,249.95l17.3,12.43s2.357,2.136-.263,3.44-30.928,16.82-30.928,16.82-1.966,1.709-5.308-.474-17.558-12.729-17.558-12.729-1.689-1.941,2.393-3.627,30.366-16.5,30.366-16.5A5.519,5.519,0,0,1,382.723,249.95Z" fill="#e1f5fa"/>
                <path id="Trazado_7684" data-name="Trazado 7684" d="M372.682,255.6l6.018,4.324s.82.743-.091,1.2-10.76,5.852-10.76,5.852-.684.594-1.847-.165-6.108-4.429-6.108-4.429-.588-.675.832-1.261,10.564-5.74,10.564-5.74A1.925,1.925,0,0,1,372.682,255.6Z" fill="#bbdbed"/>
              </g>
              <path id="Trazado_7685" data-name="Trazado 7685" d="M362.592,281.951l1.169.777v.739l-1.169-.789Z" fill="#3074a7"/>
              <path id="Trazado_7686" data-name="Trazado 7686" d="M362,281.549v.718l-1.015-.707v-.7Z" fill="#3074a7"/>
              <path id="Trazado_7687" data-name="Trazado 7687" d="M374.315,280v.313l-5.208,2.9v-.379Z" fill="#0045b8"/>
              <path id="Trazado_7688" data-name="Trazado 7688" d="M398.454,266.625v.313l-5.208,2.9v-.379Z" fill="#0045b8"/>
            </g>
            <g id="Grupo_1759" data-name="Grupo 1759">
              <path id="Trazado_7689" data-name="Trazado 7689" d="M386.9,258.234l-1.615.886c-.043.023-.042.068,0,.1l1.45,1.021a.164.164,0,0,0,.158.014l1.616-.886c.043-.023.04-.068,0-.1l-1.451-1.021A.163.163,0,0,0,386.9,258.234Z" fill="#bbdbed"/>
              <path id="Trazado_7690" data-name="Trazado 7690" d="M384.645,259.469l-2.11,1.157c-.043.023-.041.067,0,.1l1.451,1.022a.164.164,0,0,0,.157.014l2.11-1.157c.042-.023.041-.068,0-.1l-1.451-1.021A.162.162,0,0,0,384.645,259.469Z" fill="#bbdbed"/>
              <path id="Trazado_7691" data-name="Trazado 7691" d="M396.653,265.655l1.327-.728c.043-.023.042-.067,0-.1l-.712-.5a.166.166,0,0,0-.158-.014l-1.328.729c-.042.023-.041.067,0,.1l.712.5A.164.164,0,0,0,396.653,265.655Z" fill="#bbdbed"/>
              <path id="Trazado_7692" data-name="Trazado 7692" d="M389.6,256.754l-2.059,1.128c-.043.024-.041.068,0,.1L388.992,259a.162.162,0,0,0,.157.014l2.059-1.128c.042-.024.041-.068,0-.1l-1.451-1.021A.162.162,0,0,0,389.6,256.754Z" fill="#bbdbed"/>
              <path id="Trazado_7693" data-name="Trazado 7693" d="M395.387,264.629a.164.164,0,0,0,.158.014l1.151-.631c.043-.023.041-.068,0-.1l-1.194-.84a.164.164,0,0,0-.158-.015l-1.151.632c-.043.023-.041.068,0,.1Z" fill="#bbdbed"/>
              <path id="Trazado_7694" data-name="Trazado 7694" d="M368.349,268.4l-1.617.887c-.042.023-.041.068,0,.1l1.451,1.021a.166.166,0,0,0,.158.014l1.616-.886c.043-.024.042-.068,0-.1l-1.451-1.022A.164.164,0,0,0,368.349,268.4Z" fill="#bbdbed"/>
              <path id="Trazado_7695" data-name="Trazado 7695" d="M376.755,266.431l-1.152.631c-.043.024-.041.068,0,.1L376.8,268a.164.164,0,0,0,.158.014l1.151-.631c.043-.023.042-.068,0-.1l-1.194-.841A.164.164,0,0,0,376.755,266.431Z" fill="#bbdbed"/>
              <path id="Trazado_7696" data-name="Trazado 7696" d="M394.756,266.7l1.329-.728c.043-.024.04-.068,0-.1l-.711-.5a.162.162,0,0,0-.157-.014l-1.329.728c-.043.023-.041.068,0,.1l.711.5A.164.164,0,0,0,394.756,266.7Z" fill="#bbdbed"/>
              <path id="Trazado_7697" data-name="Trazado 7697" d="M372.009,269.134l1.2.841a.164.164,0,0,0,.157.013l1.151-.631c.043-.023.041-.068,0-.1l-1.2-.842a.166.166,0,0,0-.158-.014l-1.151.631C371.963,269.058,371.965,269.1,372.009,269.134Z" fill="#bbdbed"/>
              <path id="Trazado_7698" data-name="Trazado 7698" d="M385.95,261.49a.164.164,0,0,0-.158-.014l-1.152.632c-.043.023-.041.067,0,.1l1.2.841a.162.162,0,0,0,.157.014l1.152-.631c.042-.024.041-.068,0-.1Z" fill="#bbdbed"/>
              <path id="Trazado_7699" data-name="Trazado 7699" d="M393.06,266.006c.043-.024.041-.068,0-.1l-1.194-.841a.166.166,0,0,0-.158-.014l-1.152.632c-.043.023-.04.067,0,.1l1.2.841a.161.161,0,0,0,.157.014Z" fill="#bbdbed"/>
              <path id="Trazado_7700" data-name="Trazado 7700" d="M376.038,276.958l1.328-.728c.043-.023.041-.068,0-.1l-.712-.5a.164.164,0,0,0-.157-.014l-1.328.728c-.042.023-.041.068,0,.1l.712.5A.164.164,0,0,0,376.038,276.958Z" fill="#bbdbed"/>
              <path id="Trazado_7701" data-name="Trazado 7701" d="M382.835,263.1c-.043.023-.042.067,0,.1l1.2.841a.162.162,0,0,0,.157.014l1.152-.631c.043-.023.041-.068,0-.1l-1.194-.841a.166.166,0,0,0-.158-.014Z" fill="#bbdbed"/>
              <path id="Trazado_7702" data-name="Trazado 7702" d="M385.381,271.835l1.328-.728c.042-.023.041-.067,0-.1l-.712-.5a.166.166,0,0,0-.158-.015l-1.327.728c-.043.024-.042.069,0,.1l.711.5A.163.163,0,0,0,385.381,271.835Z" fill="#bbdbed"/>
              <path id="Trazado_7703" data-name="Trazado 7703" d="M377.934,275.919l1.328-.728c.042-.024.041-.068,0-.1l-.712-.5a.163.163,0,0,0-.158-.014l-1.327.728c-.043.023-.041.068,0,.1l.712.5A.167.167,0,0,0,377.934,275.919Z" fill="#bbdbed"/>
              <path id="Trazado_7704" data-name="Trazado 7704" d="M387.258,270.806l1.328-.728c.043-.023.042-.068,0-.1l-.711-.5a.166.166,0,0,0-.158-.014l-1.328.728c-.042.023-.041.068,0,.1l.712.5A.164.164,0,0,0,387.258,270.806Z" fill="#bbdbed"/>
              <path id="Trazado_7705" data-name="Trazado 7705" d="M383.485,272.875l1.329-.728c.042-.024.04-.068,0-.1l-.712-.5a.16.16,0,0,0-.156-.014l-1.329.728c-.043.023-.04.067,0,.1l.712.5A.167.167,0,0,0,383.485,272.875Z" fill="#bbdbed"/>
              <path id="Trazado_7706" data-name="Trazado 7706" d="M379.761,274.917l1.328-.728c.042-.023.041-.068,0-.1l-.712-.5a.163.163,0,0,0-.158-.014l-1.327.728c-.043.023-.042.068,0,.1l.712.5A.166.166,0,0,0,379.761,274.917Z" fill="#bbdbed"/>
              <path id="Trazado_7707" data-name="Trazado 7707" d="M381.638,273.888l1.328-.728c.043-.024.041-.068,0-.1l-.712-.5a.164.164,0,0,0-.157-.013l-1.328.728c-.043.023-.041.068,0,.1l.712.5A.162.162,0,0,0,381.638,273.888Z" fill="#bbdbed"/>
              <path id="Trazado_7708" data-name="Trazado 7708" d="M373.8,268.053c-.043.024-.041.068,0,.1l1.195.842a.164.164,0,0,0,.157.013l1.151-.631c.043-.024.041-.068,0-.1l-1.195-.841a.166.166,0,0,0-.158-.014Z" fill="#bbdbed"/>
              <path id="Trazado_7709" data-name="Trazado 7709" d="M360.718,275.29c-.043.024-.042.068,0,.1l1.194.84a.163.163,0,0,0,.158.013l1.151-.631c.043-.023.042-.067,0-.1l-1.194-.841a.163.163,0,0,0-.159-.014Z" fill="#bbdbed"/>
              <path id="Trazado_7710" data-name="Trazado 7710" d="M364.989,276.757l-1.194-.84a.163.163,0,0,0-.159-.014l-1.151.631c-.043.024-.042.068,0,.1l1.2.841a.163.163,0,0,0,.158.013l1.151-.631C365.034,276.833,365.033,276.788,364.989,276.757Z" fill="#bbdbed"/>
              <path id="Trazado_7711" data-name="Trazado 7711" d="M368.753,280.953l1.182-.649c.043-.023.041-.068,0-.1l-.711-.5a.164.164,0,0,0-.158-.013l-1.182.648c-.043.023-.042.068,0,.1l.712.5A.166.166,0,0,0,368.753,280.953Z" fill="#bbdbed"/>
              <path id="Trazado_7712" data-name="Trazado 7712" d="M359.713,273.138l-1.2.656c-.043.023-.042.068,0,.1l1.451,1.021a.166.166,0,0,0,.158.014l1.2-.656c.042-.023.04-.067,0-.1l-1.451-1.021A.165.165,0,0,0,359.713,273.138Z" fill="#bbdbed"/>
              <path id="Trazado_7713" data-name="Trazado 7713" d="M367.89,278.11c-.042.023-.041.067,0,.1l1.2.841a.163.163,0,0,0,.156.014l1.153-.631c.042-.023.04-.068,0-.1l-1.194-.841a.164.164,0,0,0-.157-.014Z" fill="#bbdbed"/>
              <path id="Trazado_7714" data-name="Trazado 7714" d="M366.847,278.065l-1.195-.841a.161.161,0,0,0-.157-.013l-1.151.631c-.043.023-.043.068,0,.1l1.2.841a.166.166,0,0,0,.158.014l1.151-.631C366.893,278.141,366.891,278.1,366.847,278.065Z" fill="#bbdbed"/>
              <path id="Trazado_7715" data-name="Trazado 7715" d="M357.934,274.154l-1.151.631c-.043.023-.041.067,0,.1l3.305,2.327a.159.159,0,0,0,.156.014l1.151-.631c.044-.024.041-.068,0-.1l-3.3-2.326A.162.162,0,0,0,357.934,274.154Z" fill="#bbdbed"/>
              <path id="Trazado_7716" data-name="Trazado 7716" d="M362.535,278.834c-.043.023-.042.067,0,.1l1.2.841a.161.161,0,0,0,.158.014l1.151-.631c.043-.024.04-.067,0-.1l-1.195-.841a.16.16,0,0,0-.156-.015Z" fill="#bbdbed"/>
              <path id="Trazado_7717" data-name="Trazado 7717" d="M366.11,279.085c-.043.024-.042.069,0,.1l1.2.84a.163.163,0,0,0,.158.014l1.151-.631c.043-.024.042-.068,0-.1l-1.194-.841a.168.168,0,0,0-.159-.014Z" fill="#bbdbed"/>
              <path id="Trazado_7718" data-name="Trazado 7718" d="M366.933,281.95l1.183-.648c.043-.024.042-.069,0-.1l-.712-.5a.163.163,0,0,0-.158-.013l-1.183.648c-.042.023-.04.068,0,.1l.711.5A.164.164,0,0,0,366.933,281.95Z" fill="#bbdbed"/>
              <path id="Trazado_7719" data-name="Trazado 7719" d="M364.3,280.077c-.043.024-.042.068,0,.1l1.2.841a.166.166,0,0,0,.158.014l1.151-.632c.043-.023.04-.067,0-.1l-1.194-.841a.164.164,0,0,0-.157-.014Z" fill="#bbdbed"/>
              <path id="Trazado_7720" data-name="Trazado 7720" d="M368.627,277.09l-1.2-.842a.167.167,0,0,0-.157-.013l-1.152.631c-.042.023-.041.067,0,.1l1.2.841a.165.165,0,0,0,.157.015l1.152-.632C368.672,277.165,368.671,277.121,368.627,277.09Z" fill="#bbdbed"/>
              <path id="Trazado_7721" data-name="Trazado 7721" d="M361.828,276.894l-1.151.631c-.044.024-.042.069,0,.1l1.194.84a.165.165,0,0,0,.159.014l1.151-.631c.043-.024.04-.067,0-.1l-1.195-.84A.162.162,0,0,0,361.828,276.894Z" fill="#bbdbed"/>
              <path id="Trazado_7722" data-name="Trazado 7722" d="M363.31,271.166,360.3,272.82c-.042.023-.041.067,0,.1l1.451,1.022a.167.167,0,0,0,.157.014l3.015-1.653c.043-.024.042-.069,0-.1l-1.451-1.021A.166.166,0,0,0,363.31,271.166Z" fill="#bbdbed"/>
              <path id="Trazado_7723" data-name="Trazado 7723" d="M372.247,277.417c.042-.023.041-.067,0-.1l-1.195-.841a.163.163,0,0,0-.156-.014l-1.153.631c-.042.023-.04.068,0,.1l1.194.84a.162.162,0,0,0,.157.015Z" fill="#bbdbed"/>
              <path id="Trazado_7724" data-name="Trazado 7724" d="M372.38,278.964l1.232-.676c.041-.022.04-.067,0-.1l-.712-.5a.164.164,0,0,0-.157-.014l-1.231.675c-.042.023-.041.067,0,.1l.712.5A.167.167,0,0,0,372.38,278.964Z" fill="#bbdbed"/>
              <path id="Trazado_7725" data-name="Trazado 7725" d="M370.534,279.976l1.23-.675c.042-.023.041-.067,0-.1l-.712-.5a.165.165,0,0,0-.157-.014l-1.23.674c-.044.024-.042.068,0,.1l.711.5A.163.163,0,0,0,370.534,279.976Z" fill="#bbdbed"/>
              <path id="Trazado_7726" data-name="Trazado 7726" d="M363.65,273.683l-1.153.631c-.041.023-.04.068,0,.1l1.2.841a.162.162,0,0,0,.156.014l1.152-.632c.042-.023.042-.067,0-.1l-1.2-.841A.162.162,0,0,0,363.65,273.683Z" fill="#bbdbed"/>
              <path id="Trazado_7727" data-name="Trazado 7727" d="M367.976,275.95l1.2.841a.162.162,0,0,0,.156.014l1.153-.631c.041-.023.04-.068,0-.1l-1.195-.841a.162.162,0,0,0-.156-.014l-1.153.632C367.932,275.875,367.932,275.919,367.976,275.95Z" fill="#bbdbed"/>
              <path id="Trazado_7728" data-name="Trazado 7728" d="M366.768,275.782l-1.194-.841a.164.164,0,0,0-.157-.014l-1.153.631c-.041.023-.04.068,0,.1l1.2.84a.163.163,0,0,0,.156.015l1.153-.632C366.813,275.857,366.812,275.813,366.768,275.782Z" fill="#bbdbed"/>
              <path id="Trazado_7729" data-name="Trazado 7729" d="M366.119,274.642l1.194.841a.164.164,0,0,0,.157.014l1.152-.631c.042-.023.041-.068,0-.1l-1.195-.841a.163.163,0,0,0-.156-.014l-1.153.632C366.073,274.567,366.075,274.611,366.119,274.642Z" fill="#bbdbed"/>
              <path id="Trazado_7730" data-name="Trazado 7730" d="M365.5,272.668l-1.152.632c-.042.023-.041.067,0,.1l1.2.841a.161.161,0,0,0,.155.014l1.153-.631c.042-.023.041-.067,0-.1l-1.195-.841A.164.164,0,0,0,365.5,272.668Z" fill="#bbdbed"/>
              <path id="Trazado_7731" data-name="Trazado 7731" d="M391.7,258.236l-3.425,1.878c-.043.023-.042.068,0,.1l1.2.84a.162.162,0,0,0,.157.014l3.426-1.878c.042-.023.041-.068,0-.1l-1.194-.841A.166.166,0,0,0,391.7,258.236Z" fill="#bbdbed"/>
              <path id="Trazado_7732" data-name="Trazado 7732" d="M387.622,260.472l-1.152.632c-.042.023-.04.068,0,.1l1.2.841a.164.164,0,0,0,.158.015l1.151-.632c.043-.023.041-.068,0-.1l-1.194-.84A.166.166,0,0,0,387.622,260.472Z" fill="#bbdbed"/>
              <path id="Trazado_7733" data-name="Trazado 7733" d="M394.661,262.874l2.041-1.119c.043-.024.042-.067,0-.1l-1.2-.842a.164.164,0,0,0-.157-.013l-2.041,1.119c-.043.023-.042.067,0,.1l1.2.842A.167.167,0,0,0,394.661,262.874Z" fill="#bbdbed"/>
              <path id="Trazado_7734" data-name="Trazado 7734" d="M375.869,269.174l-1.151.632c-.043.023-.041.068,0,.1l1.194.841a.166.166,0,0,0,.158.014l1.151-.632c.043-.023.042-.067,0-.1l-1.194-.84A.166.166,0,0,0,375.869,269.174Z" fill="#bbdbed"/>
              <path id="Trazado_7735" data-name="Trazado 7735" d="M386.7,263.237l-1.152.632c-.042.023-.041.068,0,.1l1.195.84a.162.162,0,0,0,.157.015l1.152-.632c.042-.023.042-.067,0-.1l-1.194-.841A.166.166,0,0,0,386.7,263.237Z" fill="#bbdbed"/>
              <path id="Trazado_7736" data-name="Trazado 7736" d="M392.855,263.864l1.152-.631c.042-.023.041-.068,0-.1l-1.2-.842a.164.164,0,0,0-.157-.013l-1.151.631c-.043.023-.042.067,0,.1l1.2.842A.161.161,0,0,0,392.855,263.864Z" fill="#bbdbed"/>
              <path id="Trazado_7737" data-name="Trazado 7737" d="M381.081,272.574l1.152-.632c.042-.023.041-.068,0-.1l-1.194-.84a.164.164,0,0,0-.158-.015l-1.152.632c-.043.024-.041.068,0,.1l1.2.84A.164.164,0,0,0,381.081,272.574Z" fill="#bbdbed"/>
              <path id="Trazado_7738" data-name="Trazado 7738" d="M379.25,273.577l1.152-.631c.043-.024.041-.068,0-.1l-1.194-.841a.166.166,0,0,0-.158-.014l-1.151.632c-.043.023-.042.068,0,.1l1.194.841A.162.162,0,0,0,379.25,273.577Z" fill="#bbdbed"/>
              <path id="Trazado_7739" data-name="Trazado 7739" d="M377.435,274.573l1.152-.632c.043-.023.041-.068,0-.1l-1.2-.841a.164.164,0,0,0-.157-.015l-1.152.632c-.043.023-.041.068,0,.1l1.194.841A.166.166,0,0,0,377.435,274.573Z" fill="#bbdbed"/>
              <path id="Trazado_7740" data-name="Trazado 7740" d="M391.27,266.987c.043-.023.041-.068,0-.1l-1.2-.841a.164.164,0,0,0-.157-.014l-1.152.632c-.043.023-.041.068,0,.1l1.194.84a.166.166,0,0,0,.158.015Z" fill="#bbdbed"/>
              <path id="Trazado_7741" data-name="Trazado 7741" d="M375.656,275.549l1.151-.632c.043-.023.041-.068,0-.1l-1.194-.841a.166.166,0,0,0-.158-.014l-1.151.632c-.043.023-.042.068,0,.1l1.194.84A.166.166,0,0,0,375.656,275.549Z" fill="#bbdbed"/>
              <path id="Trazado_7742" data-name="Trazado 7742" d="M384.677,270.6l1.151-.631c.043-.024.042-.068,0-.1l-1.195-.841a.164.164,0,0,0-.157-.014l-1.152.631c-.042.024-.041.068,0,.1l1.194.841A.166.166,0,0,0,384.677,270.6Z" fill="#bbdbed"/>
              <path id="Trazado_7743" data-name="Trazado 7743" d="M382.886,271.584l1.153-.632c.042-.023.041-.068,0-.1l-1.2-.841a.164.164,0,0,0-.157-.014l-1.153.632c-.042.024-.04.067,0,.1l1.194.84A.165.165,0,0,0,382.886,271.584Z" fill="#bbdbed"/>
              <path id="Trazado_7744" data-name="Trazado 7744" d="M371.352,269.393l-1.152.632c-.043.023-.041.068,0,.1l1.2.841a.161.161,0,0,0,.157.013l1.151-.631c.043-.023.042-.068,0-.1l-1.2-.842A.167.167,0,0,0,371.352,269.393Z" fill="#bbdbed"/>
              <path id="Trazado_7745" data-name="Trazado 7745" d="M371.048,266.923l-2.058,1.129c-.043.023-.041.068,0,.1l1.451,1.021a.162.162,0,0,0,.157.014l2.059-1.129c.042-.023.041-.067,0-.1l-1.451-1.022A.166.166,0,0,0,371.048,266.923Z" fill="#bbdbed"/>
              <path id="Trazado_7746" data-name="Trazado 7746" d="M381.954,260.944l-10.278,5.635c-.042.023-.041.068,0,.1l1.451,1.021a.163.163,0,0,0,.158.014l10.278-5.635c.042-.024.041-.068,0-.1l-1.451-1.022A.163.163,0,0,0,381.954,260.944Z" fill="#bbdbed"/>
              <path id="Trazado_7747" data-name="Trazado 7747" d="M398.5,263.022c.042-.024.041-.068,0-.1l-1.194-.841a.167.167,0,0,0-.158-.014l-1.152.632c-.043.023-.041.067,0,.1l1.2.84a.162.162,0,0,0,.157.014Z" fill="#bbdbed"/>
              <path id="Trazado_7748" data-name="Trazado 7748" d="M398.53,264.626l1.328-.728c.042-.023.041-.068,0-.1l-.712-.5a.164.164,0,0,0-.157-.014l-1.328.728c-.043.023-.041.068,0,.1l.712.5A.164.164,0,0,0,398.53,264.626Z" fill="#bbdbed"/>
              <path id="Trazado_7749" data-name="Trazado 7749" d="M374.161,277.987l1.327-.727c.043-.024.042-.068,0-.1l-.712-.5a.163.163,0,0,0-.158-.013l-1.328.727c-.042.024-.041.068,0,.1l.712.5A.164.164,0,0,0,374.161,277.987Z" fill="#bbdbed"/>
              <path id="Trazado_7750" data-name="Trazado 7750" d="M366.1,269.638l-2.109,1.157c-.043.023-.041.068,0,.1l1.451,1.021a.165.165,0,0,0,.157.015l2.11-1.157c.042-.024.041-.068,0-.1l-1.451-1.022A.166.166,0,0,0,366.1,269.638Z" fill="#bbdbed"/>
              <path id="Trazado_7751" data-name="Trazado 7751" d="M391.032,268.737l1.327-.728c.043-.023.042-.068,0-.1l-.712-.5a.166.166,0,0,0-.158-.014l-1.327.728c-.043.024-.042.068,0,.1l.711.5A.166.166,0,0,0,391.032,268.737Z" fill="#bbdbed"/>
              <path id="Trazado_7752" data-name="Trazado 7752" d="M389.464,267.977c.043-.023.042-.068,0-.1l-1.2-.841a.164.164,0,0,0-.157-.014l-1.152.632c-.042.023-.041.068,0,.1l1.194.84a.164.164,0,0,0,.158.015Z" fill="#bbdbed"/>
              <path id="Trazado_7753" data-name="Trazado 7753" d="M389.154,269.767l1.328-.728c.043-.024.041-.068,0-.1l-.712-.5a.162.162,0,0,0-.157-.014l-1.328.728c-.043.023-.041.067,0,.1l.711.5A.165.165,0,0,0,389.154,269.767Z" fill="#bbdbed"/>
              <path id="Trazado_7754" data-name="Trazado 7754" d="M394.866,265.015c.042-.023.04-.067,0-.1l-1.194-.841a.164.164,0,0,0-.157-.014l-1.152.631c-.043.024-.041.068,0,.1l1.2.841a.162.162,0,0,0,.157.014Z" fill="#bbdbed"/>
              <path id="Trazado_7755" data-name="Trazado 7755" d="M387.634,268.981c.043-.024.041-.069,0-.1l-1.194-.841a.164.164,0,0,0-.157-.014l-1.152.631c-.043.024-.042.068,0,.1l1.194.841a.166.166,0,0,0,.158.014Z" fill="#bbdbed"/>
              <path id="Trazado_7756" data-name="Trazado 7756" d="M392.879,267.724l1.328-.728c.043-.023.041-.068,0-.1l-.711-.5a.166.166,0,0,0-.158-.014l-1.328.728c-.043.024-.041.068,0,.1l.712.5A.162.162,0,0,0,392.879,267.724Z" fill="#bbdbed"/>
              <path id="Trazado_7757" data-name="Trazado 7757" d="M369.521,270.4l-3.441,1.887c-.042.023-.041.067,0,.1l1.2.842a.162.162,0,0,0,.156.013l3.441-1.886c.043-.024.041-.068,0-.1l-1.2-.841A.163.163,0,0,0,369.521,270.4Z" fill="#bbdbed"/>
              <path id="Trazado_7758" data-name="Trazado 7758" d="M387.227,265.255l-1.152.631c-.042.023-.042.067,0,.1l1.2.841a.164.164,0,0,0,.157.013l1.152-.631c.042-.024.042-.068,0-.1l-1.194-.842A.161.161,0,0,0,387.227,265.255Z" fill="#bbdbed"/>
              <path id="Trazado_7759" data-name="Trazado 7759" d="M389.062,265.844a.161.161,0,0,0,.157.014l1.152-.631c.042-.024.041-.068,0-.1l-1.2-.841a.163.163,0,0,0-.156-.014l-1.152.632c-.043.023-.042.067,0,.1Z" fill="#bbdbed"/>
              <path id="Trazado_7760" data-name="Trazado 7760" d="M374.754,273.789l1.152-.632c.042-.023.042-.067,0-.1l-1.195-.841a.164.164,0,0,0-.157-.014l-1.152.632c-.042.023-.042.067,0,.1l1.195.841A.164.164,0,0,0,374.754,273.789Z" fill="#bbdbed"/>
              <path id="Trazado_7761" data-name="Trazado 7761" d="M378.56,265.441l-1.151.632c-.043.023-.041.067,0,.1l1.194.841a.166.166,0,0,0,.158.014l1.151-.631c.043-.024.041-.068,0-.1l-1.194-.841A.166.166,0,0,0,378.56,265.441Z" fill="#bbdbed"/>
              <path id="Trazado_7762" data-name="Trazado 7762" d="M374.064,270.165l-1.152.631c-.042.023-.041.068,0,.1l1.194.841a.163.163,0,0,0,.158.013l1.151-.63c.043-.024.042-.068,0-.1l-1.195-.841A.162.162,0,0,0,374.064,270.165Z" fill="#bbdbed"/>
              <path id="Trazado_7763" data-name="Trazado 7763" d="M372.234,271.168l-1.152.632c-.043.023-.042.067,0,.1l1.194.84a.164.164,0,0,0,.158.014l1.151-.631c.043-.023.042-.067,0-.1l-1.194-.841A.164.164,0,0,0,372.234,271.168Z" fill="#bbdbed"/>
              <path id="Trazado_7764" data-name="Trazado 7764" d="M372.948,274.779l1.152-.632c.043-.023.042-.067,0-.1l-1.195-.841a.161.161,0,0,0-.157-.013l-1.152.631c-.042.023-.042.067,0,.1l1.2.841A.163.163,0,0,0,372.948,274.779Z" fill="#bbdbed"/>
              <path id="Trazado_7765" data-name="Trazado 7765" d="M391.025,264.868l1.151-.632c.043-.023.042-.067,0-.1l-1.2-.841a.164.164,0,0,0-.157-.014l-1.151.632c-.043.023-.042.067,0,.1l1.2.841A.164.164,0,0,0,391.025,264.868Z" fill="#bbdbed"/>
              <path id="Trazado_7766" data-name="Trazado 7766" d="M388.5,262.247l-1.152.632c-.043.023-.041.068,0,.1l1.195.841a.16.16,0,0,0,.156.015l1.153-.632c.042-.024.042-.067,0-.1l-1.194-.841A.167.167,0,0,0,388.5,262.247Z" fill="#bbdbed"/>
              <path id="Trazado_7767" data-name="Trazado 7767" d="M382.2,263.448l-1.151.631c-.043.023-.041.068,0,.1l1.194.84a.163.163,0,0,0,.158.014l1.151-.631c.043-.023.041-.068,0-.1l-1.194-.841A.166.166,0,0,0,382.2,263.448Z" fill="#bbdbed"/>
              <path id="Trazado_7768" data-name="Trazado 7768" d="M393.515,259.5l-2.527,1.385c-.043.024-.041.068,0,.1l1.2.841a.164.164,0,0,0,.157.014l2.526-1.385c.043-.024.042-.068,0-.1l-1.194-.84A.164.164,0,0,0,393.515,259.5Z" fill="#bbdbed"/>
              <path id="Trazado_7769" data-name="Trazado 7769" d="M380.391,264.438l-1.152.631c-.043.023-.041.068,0,.1l1.194.84a.164.164,0,0,0,.158.015l1.151-.632c.043-.023.042-.067,0-.1l-1.2-.84A.159.159,0,0,0,380.391,264.438Z" fill="#bbdbed"/>
              <path id="Trazado_7770" data-name="Trazado 7770" d="M390.334,261.244l-1.151.631c-.043.024-.042.068,0,.1l1.2.841a.162.162,0,0,0,.157.014l1.152-.632c.043-.023.042-.067,0-.1l-1.194-.84A.163.163,0,0,0,390.334,261.244Z" fill="#bbdbed"/>
              <path id="Trazado_7771" data-name="Trazado 7771" d="M376.382,271.2l-1.151.631c-.043.024-.042.067,0,.1l1.2.841a.162.162,0,0,0,.156.013l1.152-.631c.042-.024.042-.068,0-.1l-1.2-.842A.161.161,0,0,0,376.382,271.2Z" fill="#bbdbed"/>
              <path id="Trazado_7772" data-name="Trazado 7772" d="M383.1,265.209l-1.152.631c-.042.023-.041.068,0,.1l1.194.841a.164.164,0,0,0,.158.014l1.151-.632c.043-.023.042-.067,0-.1l-1.194-.841A.164.164,0,0,0,383.1,265.209Z" fill="#bbdbed"/>
              <path id="Trazado_7773" data-name="Trazado 7773" d="M379.467,267.2l-1.152.632c-.042.023-.041.068,0,.1l1.194.84a.161.161,0,0,0,.158.014l1.151-.631c.043-.023.042-.067,0-.1l-1.194-.841A.164.164,0,0,0,379.467,267.2Z" fill="#bbdbed"/>
              <path id="Trazado_7774" data-name="Trazado 7774" d="M381.272,266.212l-1.151.632c-.043.023-.042.068,0,.1l1.194.84a.162.162,0,0,0,.157.015l1.152-.632c.043-.023.042-.067,0-.1l-1.194-.841A.166.166,0,0,0,381.272,266.212Z" fill="#bbdbed"/>
              <path id="Trazado_7775" data-name="Trazado 7775" d="M377.659,268.193l-1.151.632c-.043.024-.042.068,0,.1l1.195.84a.159.159,0,0,0,.157.014l1.152-.631c.042-.024.042-.067,0-.1l-1.194-.841A.166.166,0,0,0,377.659,268.193Z" fill="#bbdbed"/>
              <path id="Trazado_7776" data-name="Trazado 7776" d="M367.909,273.539c-.043.024-.041.068,0,.1l1.194.841a.166.166,0,0,0,.158.014l2.519-1.381c.042-.023.041-.067,0-.1l-1.2-.84a.162.162,0,0,0-.157-.015Z" fill="#bbdbed"/>
              <path id="Trazado_7777" data-name="Trazado 7777" d="M369.8,274.809c-.042.023-.041.067,0,.1l1.2.841a.162.162,0,0,0,.156.014l1.153-.632c.042-.023.041-.067,0-.1l-1.2-.841a.164.164,0,0,0-.157-.014Z" fill="#bbdbed"/>
              <path id="Trazado_7778" data-name="Trazado 7778" d="M383.793,268.833l1.151-.632c.043-.023.043-.067,0-.1l-1.195-.841a.163.163,0,0,0-.156-.014l-1.152.632c-.042.023-.042.067,0,.1l1.195.841A.164.164,0,0,0,383.793,268.833Z" fill="#bbdbed"/>
              <path id="Trazado_7779" data-name="Trazado 7779" d="M381.987,269.823l1.152-.631c.042-.024.042-.068,0-.1l-1.2-.841a.164.164,0,0,0-.157-.014l-1.152.632c-.042.023-.042.067,0,.1l1.195.841A.165.165,0,0,0,381.987,269.823Z" fill="#bbdbed"/>
              <path id="Trazado_7780" data-name="Trazado 7780" d="M384.908,264.219l-1.151.631c-.043.023-.042.068,0,.1l1.2.841a.165.165,0,0,0,.157.014l1.152-.632c.043-.023.042-.067,0-.1l-1.194-.841A.164.164,0,0,0,384.908,264.219Z" fill="#bbdbed"/>
              <path id="Trazado_7781" data-name="Trazado 7781" d="M385.623,267.829l1.152-.631c.042-.023.042-.068,0-.1l-1.2-.842a.162.162,0,0,0-.157-.013l-1.152.631c-.042.023-.042.068,0,.1l1.2.841A.162.162,0,0,0,385.623,267.829Z" fill="#bbdbed"/>
              <path id="Trazado_7782" data-name="Trazado 7782" d="M380.18,270.814l1.152-.632c.042-.023.042-.067,0-.1l-1.195-.841a.165.165,0,0,0-.157-.014l-1.152.632c-.042.023-.042.067,0,.1l1.2.841A.164.164,0,0,0,380.18,270.814Z" fill="#bbdbed"/>
              <path id="Trazado_7783" data-name="Trazado 7783" d="M372.9,277.061l2.176-1.193c.043-.023.04-.068,0-.1l-1.194-.841a.164.164,0,0,0-.157-.014l-2.176,1.193c-.042.023-.041.068,0,.1l1.195.841A.164.164,0,0,0,372.9,277.061Z" fill="#bbdbed"/>
              <path id="Trazado_7784" data-name="Trazado 7784" d="M378.188,270.21l-1.152.632c-.042.023-.042.067,0,.1l1.2.84a.16.16,0,0,0,.156.014l1.152-.631c.042-.024.042-.068,0-.1l-1.2-.841A.162.162,0,0,0,378.188,270.21Z" fill="#bbdbed"/>
            </g>
            <path id="Trazado_7785" data-name="Trazado 7785" d="M411.872,251.542l-1.169-1.018s-29.721,17.884-29.979,17.97-12.7,14.454-12.7,14.454l1.253,1.731,12.5-15.229Z" fill="#bbdbed"/>
            <path id="Trazado_7786" data-name="Trazado 7786" d="M411.872,251.542l-10.72,14.381-31.878,18.755,12.592-15.464Z" fill="#e1f5fa"/>
            <path id="Trazado_7787" data-name="Trazado 7787" d="M389.955,267.408c-1.12,1.8-1.019,3.266.225,3.266s3.161-1.462,4.28-3.266,1.019-3.267-.225-3.267S391.075,265.6,389.955,267.408Z" fill="#bbdbed"/>
          </g>
          <path id="Trazado_7788" data-name="Trazado 7788" d="M355.974,262.056c.186-.12,5.3-1.852,5.3-1.852s4.685,1.264,4.508,1.251-.259,1.062-2.306.859c-.334-.033-2.12-.258-2.12-.258l-2.265,1.853Z" fill="url(#linear-gradient)"/>
          <path id="Trazado_7789" data-name="Trazado 7789" d="M373.064,247.9l.511,3.021-1.9,3.764a26.04,26.04,0,0,1-.239,4.421c2.788.514,2.137-3.259,2.137-3.259s.79-1.069,1.209-1.069c1.069,0,1.44,3.95,1.44,3.95s.372,6.739,1.255,6.692.047-6.227.883-6.6,1.023,6.646,2.324,6.831-.883-6.459-.233-6.924,1.673,6.135,2.882,6.041-1.534-5.483-1.069-6.134,2.416,3.718,3.114,3.439-4.09-10.085-4.09-10.085-3.067-4.879-3.16-5.018S373.064,247.9,373.064,247.9Z" fill="#ffb4c4"/>
          <path id="Trazado_7790" data-name="Trazado 7790" d="M347.45,266.717c.129-.043,2.927.517,2.927.517s1.593,2.195,3.013,2.368a50.419,50.419,0,0,0,5.209,0s4.046,2.625,5.3,2.324-4.164-3.4-3.889-3.736c.617-.741,7.074,3.564,7.849,2.574s-5.9-3.449-5.682-4.049,7.059,2.5,7.92,1.81-6.328-2.97-6.155-3.4,5.682,1.478,5.854.53-10.5-3.844-12.354-3.844c-.129,0-7.1.646-7.1.646Z" fill="#ffb4c4"/>
          <path id="Trazado_7791" data-name="Trazado 7791" d="M343.625,199.765s9.288-1.846,19.457,9.707a63.6,63.6,0,0,1,9.464,13.424c1.109,2.272,6.116,24.942,6.116,24.942l-5.4.6s-8.227-21.362-9.577-22.984-20.056-16.194-20.056-16.194Z" fill="#ffb4c4"/>
          <path id="Trazado_7792" data-name="Trazado 7792" d="M359.7,214.69c1.267-1.57,2.511-3.172,3.766-4.765-.134-.155-.249-.3-.386-.453-10.169-11.553-19.457-9.707-19.457-9.707v9.493s6.666,5.193,12.327,9.724C357.219,217.436,358.654,215.988,359.7,214.69Z" fill="#f3f8fc"/>
          <path id="Trazado_7793" data-name="Trazado 7793" d="M344.179,205.624a23.032,23.032,0,0,0,3,2.043c5.46,3.3,10.75,7.128,12.7,13.427q.126.618.224,1.244c-5.8-4.767-16.475-13.08-16.475-13.08v-4.089C343.82,205.334,344.015,205.486,344.179,205.624Z" fill="#d2d2d2" opacity="0.3" style="mix-blend-mode: multiply;isolation: isolate"/>
          <path id="Trazado_7794" data-name="Trazado 7794" d="M351.632,206.372c0-3.68-5.68-8.874-14.85-5.535s-17.694,9.453-20.535,12.939,6.587,19.328,8.524,25.01,4,14.981,3.613,19.113,13.82,2.2,20.794-3.874,5.94-9.3,5.94-9.3-4.283-9.621-4.648-15.045c3.536-1.515,4.635-4.117,3.437-7.117C352.921,220.1,351.632,219.028,351.632,206.372Z" fill="#fff"/>
          <path id="Trazado_7795" data-name="Trazado 7795" d="M346.38,232.4c-2.874,1.643-5.229,3.489-7.249,4.623s-9.093,2.69-10.385-4.814c-1.719-9.991-3.373-11.457-3.373-11.457l-3.788,6.543,1.033,8.609s5.941,10.417,5.51,19.027c2.755,4.391,5.855,4.046,5.855,4.046s-.764-9.858,2.755-15.066C340.875,237.784,345.411,236.006,346.38,232.4Z" fill="#d2d2d2" opacity="0.3" style="mix-blend-mode: multiply;isolation: isolate"/>
          <path id="Trazado_7796" data-name="Trazado 7796" d="M351.118,262.575s-22.513-7.947-29.716-10.262a2.57,2.57,0,0,1-1.731-2.96c1.316-6.448,5.048-24.737,5.825-28.48.947-4.563-1.761-6.49-4.821-7.4s-4.735-.086-6.113,1.98-7.059,36.159-4.907,41.066,39.155,10.416,39.155,10.416Z" fill="#ffb4c4"/>
          <path id="Trazado_7797" data-name="Trazado 7797" d="M316.378,240.7c1.58.4,3.375.738,5,1.032,1.622-7.944,3.745-18.27,4.308-20.979.947-4.563-1.954-6.49-5.013-7.4s-4.736-.086-6.113,1.98c-.792,1.188-3.006,12.964-4.337,23.693C312.28,239.513,314.3,240.165,316.378,240.7Z" fill="#f3f8fc"/>
          <path id="Trazado_7798" data-name="Trazado 7798" d="M386.011,322.781l-1.545-.848-2.282,8.44,15.261,14.388a1.741,1.741,0,0,0,2.911-.961,3.231,3.231,0,0,0-.039-1.23c-.5-2.293-6.87-13.364-6.87-13.364l-1.372-5.5-1.777-.126s-1.894,2.343-3.29,1.944S386.011,322.781,386.011,322.781Z" fill="#1a3474"/>
          <path id="Trazado_7799" data-name="Trazado 7799" d="M381.874,332.85,379.63,334s.072,2.944-1.7,3.091-1.991-2.792-1.991-2.792L374.7,334l.215,8.307,15.257,11.618a1.942,1.942,0,0,0,2.8-.47,3.216,3.216,0,0,0,.426-3.2c-1.146-2.493-8.2-11.147-8.2-11.147Z" fill="#1a3474"/>
          <path id="Trazado_7800" data-name="Trazado 7800" d="M333.552,204.823c-2.281,3.142,4.606,7.294,6.07,5.208l3.443-4.907-4.756-9.814S334.592,203.391,333.552,204.823Z" fill="url(#linear-gradient-2)"/>
          <path id="Trazado_7801" data-name="Trazado 7801" d="M340.164,202.516l.45,3.979s5.554,5.742,8.168,5.66,4.942-2.818,5.392-3.8a9.055,9.055,0,0,0,.53-2.654l2.7-3.513s-6.821-7.147-6.943-7.229-10.5,4.248-10.5,4.248Z" fill="#ffb4c4"/>
          <path id="Trazado_7802" data-name="Trazado 7802" d="M356.108,183.593s7.588,2.381,8.667,8.718c1.045,6.14-1.661,10.224-4.567,11.21s-8.407-2.128-9.341-4.411c-2.647,2.75-3.737,2.8-3.737,2.8s-3.321-.155-3.477-.155-1.868,1.089-2.6,1.037-.363-3.113-1.037-3.892-2.183.7-2.183.7-4.772-7.863-1.035-14.61,13.218-5.813,13.218-5.813S353.306,179.545,356.108,183.593Z" fill="#294c86"/>
          <path id="Trazado_7803" data-name="Trazado 7803" d="M340.683,201.862c.315-1.3.345-3.479-1.021-3.839s-2.143,1.423-2,2.819,1.341,3.039,1.8,3.1S340.368,203.162,340.683,201.862Z" fill="#ffb4c4"/>
          <path id="Trazado_7804" data-name="Trazado 7804" d="M345.175,180.2s.43-7.49-6.543-8.695-10.159,3.271-10.246,8.695,1.916,9.513,1.776,13.194c-.13,3.412-1.7,4.735-1.1,5.424s5.667-2.822,5.323-8.246-.708-9.432,2.4-10.888a3.919,3.919,0,0,1,4.949,1.463Z" fill="#294c86"/>
          <path id="Trazado_7805" data-name="Trazado 7805" d="M353.577,206.372a10.065,10.065,0,0,0-2.181,3.236c-.2.629,1.437,1.226,1.931.747S353.176,208.022,353.577,206.372Z" fill="url(#linear-gradient-3)"/>
        </g>
      </g>
    </g>
  </g>
</svg>
