<svg id="Resource_Text" xmlns="http://www.w3.org/2000/svg" width="37.14" height="40.824" viewBox="0 0 37.14 40.824">
  <path id="Trazado_615" data-name="Trazado 615" d="M50.819,17.669V9.943a.915.915,0,0,0-.247-.59L41.913.263A.869.869,0,0,0,41.291,0H27.561A4.574,4.574,0,0,0,23,4.6V30.57a4.546,4.546,0,0,0,4.561,4.569H38.4a11.7,11.7,0,1,0,12.415-17.47ZM42.144,2.99l5.813,6.116H44.185a2.052,2.052,0,0,1-2.041-2.049ZM27.561,33.441A2.852,2.852,0,0,1,24.7,30.57V4.6a2.874,2.874,0,0,1,2.862-2.9H40.446v5.35A3.755,3.755,0,0,0,44.193,10.8h4.936v6.642c-.255-.008-.462-.032-.678-.032a11.874,11.874,0,0,0-7.758,2.926H29.873a.853.853,0,0,0,0,1.706H39.1a13.363,13.363,0,0,0-1.5,2.639H29.873a.853.853,0,0,0,0,1.706h7.176a11.338,11.338,0,0,0-.327,2.743,11.223,11.223,0,0,0,.837,4.322h-10Zm20.874,5.693a10,10,0,1,1,10-10A10.01,10.01,0,0,1,48.435,39.134Z" transform="translate(-23 0)" fill="#141c33"/>
  <path id="Trazado_616" data-name="Trazado 616" d="M99.353,203.306h8.619a.853.853,0,0,0,0-1.706H99.353a.854.854,0,0,0-.853.853A.865.865,0,0,0,99.353,203.306Z" transform="translate(-92.48 -185.526)" fill="#141c33"/>
  <path id="Trazado_617" data-name="Trazado 617" d="M274.8,288.1H263.945a.875.875,0,0,0-.845.885v1.906a.853.853,0,1,0,1.706,0V289.8h3.748v8.93h-1.619a.853.853,0,1,0,0,1.706h4.9a.853.853,0,0,0,0-1.706H270.26V289.8h3.748v1.092a.853.853,0,0,0,1.706,0v-1.906A.956.956,0,0,0,274.8,288.1Z" transform="translate(-243.956 -265.129)" fill="#ff6712"/>
</svg>
