<svg xmlns="http://www.w3.org/2000/svg" width="28" height="32" viewBox="0 0 28 32">
  <g id="Grupo_867" data-name="Grupo 867" transform="translate(-32)">
    <path id="Trazado_1157" data-name="Trazado 1157" d="M98,0a2.006,2.006,0,0,0-2,2V30a2.006,2.006,0,0,0,2,2h20a2.006,2.006,0,0,0,2-2V8l-8-8Z" transform="translate(-60)" fill="#e2e5e7"/>
    <path id="Trazado_1158" data-name="Trazado 1158" d="M354,8h6l-8-8V6A2.006,2.006,0,0,0,354,8Z" transform="translate(-300)" fill="#b0b7bd"/>
    <path id="Trazado_1159" data-name="Trazado 1159" d="M390,134l-6-6h6Z" transform="translate(-330 -120)" fill="#cad1d8"/>
    <path id="Trazado_1160" data-name="Trazado 1160" d="M56,251a1,1,0,0,1-1,1H33a1,1,0,0,1-1-1V241a1,1,0,0,1,1-1H55a1,1,0,0,1,1,1Z" transform="translate(0 -225)" fill="#f15642"/>
    <g id="Grupo_855" data-name="Grupo 855" transform="translate(36.359 18.395)">
      <path id="Trazado_1161" data-name="Trazado 1161" d="M101.744,294.872a.55.55,0,0,1,.543-.552h1.847a2,2,0,0,1,0,4H102.8v1.056a.5.5,0,0,1-.512.551.539.539,0,0,1-.543-.551Zm1.055.455v1.992h1.335a1,1,0,0,0,0-1.992Z" transform="translate(-101.744 -294.32)" fill="#fff"/>
      <path id="Trazado_1162" data-name="Trazado 1162" d="M188.376,301.005a.5.5,0,0,1-.552-.5v-4.542a.544.544,0,0,1,.552-.5h1.831c3.654,0,3.574,5.533.072,5.533Zm.5-4.557v3.582h1.327c2.159,0,2.255-3.582,0-3.582Z" transform="translate(-182.444 -295.4)" fill="#fff"/>
      <path id="Trazado_1163" data-name="Trazado 1163" d="M288.182,296.5v1.271h2.039a.618.618,0,0,1,.576.567.556.556,0,0,1-.576.48h-2.039v1.679a.474.474,0,0,1-.479.495.508.508,0,0,1-.567-.495v-4.542a.505.505,0,0,1,.567-.5h2.807a.5.5,0,0,1,.56.5.552.552,0,0,1-.56.544h-2.328Z" transform="translate(-275.549 -295.385)" fill="#fff"/>
    </g>
    <path id="Trazado_1164" data-name="Trazado 1164" d="M115,417H96v1h19a1,1,0,0,0,1-1v-1A1,1,0,0,1,115,417Z" transform="translate(-60 -390)" fill="#cad1d8"/>
  </g>
</svg>
