<?xml version="1.0" encoding="utf-8"?>
<!-- Generator: Adobe Illustrator 22.1.0, SVG Export Plug-In . SVG Version: 6.00 Build 0)  -->
<svg version="1.1" id="download" xmlns="http://www.w3.org/2000/svg" xmlns:xlink="http://www.w3.org/1999/xlink" x="0px" y="0px"
	 viewBox="0 0 18.8 20" style="enable-background:new 0 0 18.8 20;" xml:space="preserve">
<style type="text/css">
	.st0{fill:#00223D;}
</style>
<g id="Grupo_418" transform="translate(4.375)">
	<g id="Grupo_417">
		<path id="Trazado_626" class="st0" d="M9.9,9.1C9.8,8.9,9.6,8.7,9.4,8.8H6.9V0.6C6.9,0.3,6.6,0,6.3,0H3.8C3.4,0,3.1,0.3,3.1,0.6
			v8.1H0.6C0.3,8.8,0,9,0,9.4c0,0.2,0.1,0.3,0.2,0.4l4.4,5c0.2,0.3,0.6,0.3,0.9,0.1c0,0,0,0,0.1-0.1l4.4-5C10,9.6,10,9.3,9.9,9.1z"
			/>
	</g>
</g>
<g id="Grupo_420" transform="translate(0 13.75)">
	<g id="Grupo_419">
		<path id="Trazado_627" class="st0" d="M16.3,0v3.8H2.5V0H0v5c0,0.7,0.6,1.3,1.3,1.3h16.3c0.7,0,1.2-0.6,1.3-1.2c0,0,0,0,0,0V0
			H16.3z"/>
	</g>
</g>
</svg>
