<svg xmlns="http://www.w3.org/2000/svg" width="29.4" height="35.474" viewBox="0 0 29.4 35.474">
  <g id="Grupo_1471" data-name="Grupo 1471" transform="translate(-257.562 -366.263)">
    <path id="Trazado_7462" data-name="Trazado 7462" d="M261.789,401.016h24.453v-7.44m0,0V372.633m-25.363-.408h25.363a2.617,2.617,0,0,1-2.6-2.621h0a2.617,2.617,0,0,1,2.6-2.621H260.879a2.619,2.619,0,0,0-2.6,2.621h0a2.617,2.617,0,0,0,2.6,2.621Zm-2.6-3.243v28.879a2.926,2.926,0,0,0,2.6,3.156h.889m3.522-28.783v10.857l3.41-3.612,3.41,3.612V372.225" fill="none" stroke="#1a1a1a" stroke-linecap="round" stroke-linejoin="round" stroke-width="1.44"/>
    <g id="Grupo_1470" data-name="Grupo 1470">
      <path id="Trazado_7463" data-name="Trazado 7463" d="M268.424,395.547l-.484-1.367h-2.715l-.484,1.367h-1.173l2.32-6.3h1.389l2.316,6.3Zm-2.857-2.334H267.6l-1.015-2.869Z"/>
      <path id="Trazado_7464" data-name="Trazado 7464" d="M273.886,392.233a1.479,1.479,0,0,1,1.209,1.57,1.67,1.67,0,0,1-.5,1.271,1.969,1.969,0,0,1-1.415.473h-2.544v-6.3h1.995a2.178,2.178,0,0,1,1.478.459,1.565,1.565,0,0,1,.53,1.246,1.5,1.5,0,0,1-.193.767A1.29,1.29,0,0,1,273.886,392.233Zm-1.243-2.021h-.9v1.67h.988a.826.826,0,0,0,.633-.239.863.863,0,0,0,.224-.614.766.766,0,0,0-.246-.591A.994.994,0,0,0,272.643,390.212Zm.334,4.351a1.036,1.036,0,0,0,.76-.253.849.849,0,0,0,.255-.63.873.873,0,0,0-.262-.649,1.08,1.08,0,0,0-.789-.258h-1.2v1.79Z"/>
      <path id="Trazado_7465" data-name="Trazado 7465" d="M279.015,395.635a3.45,3.45,0,0,1-1.268-.229,2.992,2.992,0,0,1-1.013-.641,2.88,2.88,0,0,1-.668-1.025,3.615,3.615,0,0,1-.242-1.344,3.416,3.416,0,0,1,.418-1.711,2.819,2.819,0,0,1,1.138-1.13,3.388,3.388,0,0,1,1.635-.389,3.273,3.273,0,0,1,1.788.488A2.793,2.793,0,0,1,281.924,391l-1.059.4a1.837,1.837,0,0,0-.725-.868,2.071,2.071,0,0,0-1.125-.309,2.186,2.186,0,0,0-.811.149,1.862,1.862,0,0,0-1.088,1.112,2.553,2.553,0,0,0-.158.914,2.162,2.162,0,0,0,.582,1.593,1.992,1.992,0,0,0,1.475.587,2.063,2.063,0,0,0,1.125-.31,1.828,1.828,0,0,0,.725-.868l1.059.4a2.779,2.779,0,0,1-1.123,1.348A3.27,3.27,0,0,1,279.015,395.635Z"/>
    </g>
  </g>
</svg>
