<svg xmlns="http://www.w3.org/2000/svg" width="168.273" height="164.177" viewBox="0 0 168.273 164.177">
  <path id="SENA_LOGO" data-name="SENA LOGO" d="M85.349,1a18.09,18.09,0,1,0,18.09,18.09h0A18.1,18.1,0,0,0,85.349,1ZM25.617,42.983a33.722,33.722,0,0,0-9.386,1.024,11.156,11.156,0,0,0-5.12,2.56A5.346,5.346,0,0,0,10.086,52.2c.683,1.707,2.56,2.9,4.608,3.584,4.437,1.536,9.386,1.877,13.994,2.731a5.1,5.1,0,0,1,2.389,1.024,1.369,1.369,0,0,1-.683,2.048,9.146,9.146,0,0,1-5.291.683A8.354,8.354,0,0,1,20.5,61.244a1.962,1.962,0,0,1-.853-2.389H9.233A7.663,7.663,0,0,0,10.6,63.463a7.59,7.59,0,0,0,4.267,2.389A28.541,28.541,0,0,0,23.4,66.876,52.426,52.426,0,0,0,35,66.023a11.043,11.043,0,0,0,5.8-2.9,5.358,5.358,0,0,0-1.365-8.533,21.267,21.267,0,0,0-5.8-2.048c-3.072-.683-5.973-1.024-9.045-1.536a9.114,9.114,0,0,1-3.072-.853,1.226,1.226,0,0,1,0-2.219,9.369,9.369,0,0,1,4.437-.683,10.554,10.554,0,0,1,4.608.853A1.877,1.877,0,0,1,31.59,49.81h9.9a5.669,5.669,0,0,0-1.195-3.584A8.875,8.875,0,0,0,35.515,43.5c-3.584-.341-6.827-.512-9.9-.512Zm21.333.683V67.217H75.792V62.1H57.531V57.489H73.744V52.54H57.531V48.786H75.109v-5.12Zm47.615,0H81.253V67.217H91.322V51.346l13.824,15.872h13.824V43.666H108.9v15.7Zm42.495,0L120.676,67.217h10.581l2.56-4.267H150.2l2.389,4.267h11.776l-15.53-23.551ZM142.35,49.3l5.12,8.533h-10.41ZM.7,74.044l.171,12.8L49,86.673c2.389.512,3.925,2.048,3.413,5.8l-29.7,51.711,9.557,9.045L78.01,74.044Zm91.646,0L137.4,152.89l9.9-8.874L117.433,92.3c-.512-3.584.853-5.291,3.413-5.8l48.127.171V74.044ZM84.837,87.185,42.512,159.546l11.264,5.461,28.159-47.615a4.283,4.283,0,0,1,2.9-1.195,4.681,4.681,0,0,1,3.072,1.195l28.159,47.786,11.605-5.973Z" transform="translate(-0.7 -1)" fill="#FF6B00"/>
</svg>
