<svg xmlns="http://www.w3.org/2000/svg" width="104.018" height="102.733" viewBox="0 0 104.018 102.733">
  <g id="Grupo_12643" data-name="Grupo 12643" transform="translate(2848.385 -2238.961)">
    <path id="Trazado_5689" data-name="Trazado 5689" d="M-2760.1,2330.637h-83.372a3.39,3.39,0,0,1-3.39-3.39v-83.371a3.39,3.39,0,0,1,3.39-3.391h83.372a3.39,3.39,0,0,1,3.39,3.391v83.371a3.39,3.39,0,0,1-3.39,3.39Zm0,0" fill="#f2f2f2"/>
    <path id="Trazado_5690" data-name="Trazado 5690" d="M-2760.1,2240.485h-10.909a3.39,3.39,0,0,1,3.39,3.391v83.371a3.39,3.39,0,0,1-3.39,3.39h10.909a3.39,3.39,0,0,0,3.39-3.39v-83.371a3.39,3.39,0,0,0-3.39-3.391Zm0,0" fill="#cdd6df"/>
    <path id="Trazado_5691" data-name="Trazado 5691" d="M-2760.1,2240.485h-83.372a3.39,3.39,0,0,0-3.39,3.391v10.261h90.152v-10.261a3.39,3.39,0,0,0-3.39-3.391Zm0,0" fill="#426175"/>
    <path id="Trazado_5692" data-name="Trazado 5692" d="M-2756.709,2254.137v-10.261a3.39,3.39,0,0,0-3.39-3.391h-10.909a3.39,3.39,0,0,1,3.39,3.391v10.261Zm0,0" fill="#2c4456"/>
    <path id="Trazado_5693" data-name="Trazado 5693" d="M-2778.608,2247.311a1.623,1.623,0,0,1-1.623,1.623,1.624,1.624,0,0,1-1.623-1.623,1.624,1.624,0,0,1,1.623-1.623,1.623,1.623,0,0,1,1.623,1.623Zm0,0" fill="#46d1c0"/>
    <path id="Trazado_5694" data-name="Trazado 5694" d="M-2770.828,2247.311a1.623,1.623,0,0,1-1.623,1.623,1.624,1.624,0,0,1-1.623-1.623,1.624,1.624,0,0,1,1.623-1.623,1.623,1.623,0,0,1,1.623,1.623Zm0,0" fill="#46d1c0"/>
    <path id="Trazado_5695" data-name="Trazado 5695" d="M-2763.047,2247.311a1.624,1.624,0,0,1-1.624,1.623,1.623,1.623,0,0,1-1.622-1.623,1.623,1.623,0,0,1,1.622-1.623,1.624,1.624,0,0,1,1.624,1.623Zm0,0" fill="#46d1c0"/>
    <path id="Trazado_5696" data-name="Trazado 5696" d="M-2827.515,2288.96l10.234-6.693a1.012,1.012,0,0,1,.584-.155,2.051,2.051,0,0,1,1.868,1.946,1.364,1.364,0,0,1-.584,1.128l-8.172,5.37,8.172,5.371a1.264,1.264,0,0,1,.584,1.128,2.013,2.013,0,0,1-1.868,1.907,1.006,1.006,0,0,1-.584-.157l-10.234-6.693a1.949,1.949,0,0,1-.856-1.556,2.021,2.021,0,0,1,.856-1.6Zm0,0" fill="#4d4d4d"/>
    <path id="Trazado_5697" data-name="Trazado 5697" d="M-2793.192,2272.85a1.126,1.126,0,0,1-.157.622l-14.28,28.486a1.413,1.413,0,0,1-1.285.739,1.506,1.506,0,0,1-1.518-1.439,1.572,1.572,0,0,1,.117-.584l14.321-28.6a1.184,1.184,0,0,1,1.167-.7,1.588,1.588,0,0,1,1.635,1.479Zm0,0" fill="#4d4d4d"/>
    <path id="Trazado_5698" data-name="Trazado 5698" d="M-2776.148,2292.112l-10.234,6.693a.885.885,0,0,1-.545.157,1.984,1.984,0,0,1-1.868-1.907,1.325,1.325,0,0,1,.545-1.128l8.211-5.371-8.211-5.37a1.438,1.438,0,0,1-.545-1.128,2.021,2.021,0,0,1,1.868-1.946.89.89,0,0,1,.545.155l10.234,6.693a2.018,2.018,0,0,1,.856,1.6,1.847,1.847,0,0,1-.856,1.556Zm0,0" fill="#4d4d4d"/>
    <path id="Trazado_5699" data-name="Trazado 5699" d="M-2839,2248.835h33.132a1.523,1.523,0,0,0,1.523-1.524,1.523,1.523,0,0,0-1.523-1.524H-2839a1.524,1.524,0,0,0-1.524,1.524,1.524,1.524,0,0,0,1.524,1.524Zm0,0" fill="#4d4d4d"/>
    <path id="Trazado_5700" data-name="Trazado 5700" d="M-2790.2,2329.114h-53.272a1.87,1.87,0,0,1-1.867-1.867V2255.66h87.1v41.3a1.524,1.524,0,0,0,1.524,1.524,1.524,1.524,0,0,0,1.524-1.524v-53.086a4.92,4.92,0,0,0-4.914-4.915h-83.372a4.921,4.921,0,0,0-4.914,4.915v83.371a4.92,4.92,0,0,0,4.914,4.914h53.272a1.524,1.524,0,0,0,1.524-1.524,1.524,1.524,0,0,0-1.524-1.523Zm-53.272-87.1h83.372a1.868,1.868,0,0,1,1.866,1.867v8.737h-87.1v-8.737a1.869,1.869,0,0,1,1.867-1.867Zm0,0" fill="#4d4d4d"/>
    <g id="Grupo_12642" data-name="Grupo 12642">
      <path id="Trazado_5701" data-name="Trazado 5701" d="M-2747.992,2315.268h-1.4a2.092,2.092,0,0,1-2-1.475,16.875,16.875,0,0,0-1.341-3.2,2.1,2.1,0,0,1,.362-2.484l1-1a2.1,2.1,0,0,0,0-2.971l-1.693-1.693a2.1,2.1,0,0,0-2.971,0l-1,1a2.093,2.093,0,0,1-2.484.362,16.941,16.941,0,0,0-3.2-1.341,2.09,2.09,0,0,1-1.476-2.005v-1.4a2.1,2.1,0,0,0-2.1-2.1h-2.394a2.1,2.1,0,0,0-2.1,2.1v1.308a2.092,2.092,0,0,1-1.511,2.016,16.881,16.881,0,0,0-3.3,1.327,2.094,2.094,0,0,1-2.457-.376l-.894-.895a2.1,2.1,0,0,0-2.972,0l-1.692,1.693a2.1,2.1,0,0,0,0,2.971l.8.8a2.093,2.093,0,0,1,.351,2.5,16.889,16.889,0,0,0-1.441,3.376,2.1,2.1,0,0,1-2.016,1.479H-2787a2.1,2.1,0,0,0-2.1,2.1v2.394a2.1,2.1,0,0,0,2.1,2.1h.993a2.09,2.09,0,0,1,2.018,1.507,16.977,16.977,0,0,0,1.428,3.487,2.088,2.088,0,0,1-.367,2.475l-.691.692a2.1,2.1,0,0,0,0,2.971l1.692,1.693a2.1,2.1,0,0,0,2.972,0l.691-.692a2.091,2.091,0,0,1,2.476-.367,16.911,16.911,0,0,0,3.486,1.428,2.091,2.091,0,0,1,1.507,2.018v.993a2.1,2.1,0,0,0,2.1,2.1h2.394a2.1,2.1,0,0,0,2.1-2.1v-1.077a2.1,2.1,0,0,1,1.479-2.017,16.9,16.9,0,0,0,3.376-1.441,2.094,2.094,0,0,1,2.5.352l.8.8a2.1,2.1,0,0,0,2.971,0l1.693-1.693a2.1,2.1,0,0,0,0-2.971l-.9-.9a2.093,2.093,0,0,1-.376-2.457,16.821,16.821,0,0,0,1.327-3.3,2.093,2.093,0,0,1,2.016-1.511h1.308a2.1,2.1,0,0,0,2.1-2.1v-2.4a2.1,2.1,0,0,0-2.1-2.1Zm-19.5,12.581a9.283,9.283,0,0,1-9.282-9.283,9.283,9.283,0,0,1,9.282-9.283,9.283,9.283,0,0,1,9.283,9.283,9.283,9.283,0,0,1-9.283,9.283Zm0,0" fill="#fd715c"/>
      <path id="Trazado_5702" data-name="Trazado 5702" d="M-2767.5,2307.76a10.817,10.817,0,0,0-10.806,10.806,10.818,10.818,0,0,0,10.806,10.806,10.818,10.818,0,0,0,10.807-10.806,10.818,10.818,0,0,0-10.807-10.806Zm0,18.565a7.768,7.768,0,0,1-7.759-7.759,7.768,7.768,0,0,1,7.759-7.759,7.768,7.768,0,0,1,7.759,7.759,7.768,7.768,0,0,1-7.759,7.759Zm0,0" fill="#4d4d4d"/>
      <path id="Trazado_5703" data-name="Trazado 5703" d="M-2747.992,2313.744h-1.4a.569.569,0,0,1-.546-.393,18.5,18.5,0,0,0-1.462-3.487.573.573,0,0,1,.1-.676l1-1a3.628,3.628,0,0,0,0-5.125l-1.693-1.693a3.628,3.628,0,0,0-5.126,0l-1,1a.576.576,0,0,1-.677.1,18.511,18.511,0,0,0-3.486-1.462.569.569,0,0,1-.394-.547v-1.4a3.629,3.629,0,0,0-3.625-3.626h-2.393a3.629,3.629,0,0,0-3.626,3.626v1.307a.567.567,0,0,1-.4.55,18.454,18.454,0,0,0-3.595,1.447.571.571,0,0,1-.665-.108l-.9-.894a3.6,3.6,0,0,0-2.563-1.062,3.6,3.6,0,0,0-2.563,1.062l-1.692,1.693a3.6,3.6,0,0,0-1.062,2.563,3.6,3.6,0,0,0,1.062,2.563l.8.8a.567.567,0,0,1,.1.679,18.437,18.437,0,0,0-1.571,3.681.58.58,0,0,1-.558.4H-2787a3.628,3.628,0,0,0-3.626,3.624v2.4a3.629,3.629,0,0,0,3.626,3.624h.992a.568.568,0,0,1,.553.4,18.4,18.4,0,0,0,1.557,3.8.569.569,0,0,1-.108.668l-.691.692a3.628,3.628,0,0,0,0,5.126l1.692,1.692a3.628,3.628,0,0,0,5.126,0l.692-.692a.57.57,0,0,1,.668-.107,18.436,18.436,0,0,0,3.8,1.557.567.567,0,0,1,.4.552v.993a3.629,3.629,0,0,0,3.625,3.625h2.394a3.628,3.628,0,0,0,3.624-3.625v-1.077a.577.577,0,0,1,.4-.558,18.461,18.461,0,0,0,3.681-1.571.568.568,0,0,1,.679.1l.8.8a3.629,3.629,0,0,0,5.126,0l1.692-1.692a3.628,3.628,0,0,0,0-5.126l-.894-.9a.573.573,0,0,1-.108-.665,18.411,18.411,0,0,0,1.448-3.6.569.569,0,0,1,.55-.4h1.307a3.628,3.628,0,0,0,3.625-3.624v-2.4a3.63,3.63,0,0,0-3.625-3.625Zm.577,6.019a.577.577,0,0,1-.577.577h-1.308a3.627,3.627,0,0,0-3.481,2.618,15.323,15.323,0,0,1-1.208,3,3.6,3.6,0,0,0,.645,4.25l.9.894a.58.58,0,0,1,0,.816l-1.693,1.694a.58.58,0,0,1-.816,0l-.8-.8a3.626,3.626,0,0,0-4.327-.6,15.4,15.4,0,0,1-3.071,1.311,3.648,3.648,0,0,0-2.56,3.475v1.077a.578.578,0,0,1-.578.577h-2.394a.577.577,0,0,1-.577-.577v-.993a3.628,3.628,0,0,0-2.614-3.484,15.358,15.358,0,0,1-3.172-1.3,3.572,3.572,0,0,0-1.712-.435,3.639,3.639,0,0,0-2.572,1.061l-.692.692a.58.58,0,0,1-.816,0l-1.693-1.693a.579.579,0,0,1,0-.817l.691-.692a3.629,3.629,0,0,0,.627-4.283,15.343,15.343,0,0,1-1.3-3.171,3.627,3.627,0,0,0-3.484-2.616H-2787a.578.578,0,0,1-.578-.576v-2.4a.579.579,0,0,1,.578-.577h1.077a3.648,3.648,0,0,0,3.475-2.561,15.407,15.407,0,0,1,1.311-3.071,3.629,3.629,0,0,0-.6-4.327l-.8-.8a.577.577,0,0,1-.17-.408.58.58,0,0,1,.17-.409l1.692-1.693a.581.581,0,0,1,.409-.169.581.581,0,0,1,.408.169l.894.9a3.6,3.6,0,0,0,4.25.645,15.353,15.353,0,0,1,3-1.208,3.627,3.627,0,0,0,2.618-3.481v-1.308a.577.577,0,0,1,.577-.577h2.394a.579.579,0,0,1,.578.577v1.4a3.591,3.591,0,0,0,2.557,3.463,15.314,15.314,0,0,1,2.909,1.221,3.641,3.641,0,0,0,4.293-.623l1-1a.577.577,0,0,1,.816,0l1.694,1.693a.581.581,0,0,1,0,.817l-1,1a3.639,3.639,0,0,0-.622,4.292,15.394,15.394,0,0,1,1.22,2.909,3.593,3.593,0,0,0,3.463,2.558h1.4a.577.577,0,0,1,.577.577Zm0,0" fill="#4d4d4d"/>
    </g>
  </g>
</svg>
