<svg xmlns="http://www.w3.org/2000/svg" width="83.468" height="72.144" viewBox="0 0 83.468 72.144">
  <g id="Grupo_13498" data-name="Grupo 13498" transform="translate(2849.868 -3224.031)">
    <line id="Línea_427" data-name="Línea 427" y2="68.144" transform="translate(-2768.4 3226.031)" fill="none" stroke="#a4dbf5" stroke-linecap="round" stroke-miterlimit="10" stroke-width="4"/>
    <g id="Grupo_12654" data-name="Grupo 12654">
      <path id="Trazado_5715" data-name="Trazado 5715" d="M-2806.42,3254.458v-10.286a18.849,18.849,0,0,0-18.828-18.827,18.849,18.849,0,0,0-18.827,18.827v10.286a7.25,7.25,0,0,0-5.793,7.093v26.069a7.25,7.25,0,0,0,7.241,7.241h34.758a7.25,7.25,0,0,0,7.242-7.241v-26.069a7.25,7.25,0,0,0-5.793-7.093Zm-15.615,22.242,1.118,7.818a1.437,1.437,0,0,1-.339,1.153,1.456,1.456,0,0,1-1.095.5h-5.793a1.456,1.456,0,0,1-1.095-.5,1.441,1.441,0,0,1-.338-1.153l1.118-7.818a7.274,7.274,0,0,1-4.03-6.462,7.25,7.25,0,0,1,7.241-7.241,7.25,7.25,0,0,1,7.242,7.241,7.267,7.267,0,0,1-4.029,6.459Zm6.925-22.39h-20.275v-10.138a10.148,10.148,0,0,1,10.137-10.137,10.148,10.148,0,0,1,10.138,10.137Z" fill="#a4dbf5"/>
    </g>
  </g>
</svg>
