<svg xmlns="http://www.w3.org/2000/svg" width="93.606" height="72.144" viewBox="0 0 93.606 72.144">
  <g id="Grupo_13499" data-name="Grupo 13499" transform="translate(2860.006 -3899.637)">
    <line id="Línea_428" data-name="Línea 428" y2="68.144" transform="translate(-2768.4 3901.637)" fill="none" stroke="#a4dbf5" stroke-linecap="round" stroke-miterlimit="10" stroke-width="4"/>
    <g id="Grupo_12656" data-name="Grupo 12656">
      <path id="Trazado_5722" data-name="Trazado 5722" d="M-2790.489,3935.709a34.8,34.8,0,0,0-34.759-34.759,34.8,34.8,0,0,0-34.758,34.759,34.8,34.8,0,0,0,34.758,34.758,34.8,34.8,0,0,0,34.759-34.758Zm-60.827,0a26.1,26.1,0,0,1,26.068-26.069,26.1,26.1,0,0,1,26.069,26.069,26.1,26.1,0,0,1-26.069,26.068,26.1,26.1,0,0,1-26.068-26.068Z" fill="#a4dbf5"/>
      <path id="Trazado_5723" data-name="Trazado 5723" d="M-2820.034,3955.694l11.586-8.689a1.5,1.5,0,0,0,0-2.317l-11.586-8.689a1.45,1.45,0,0,0-1.517-.138,1.45,1.45,0,0,0-.8,1.3v4.345h-18.827a1.447,1.447,0,0,0-1.449,1.448v5.793a1.448,1.448,0,0,0,1.449,1.448h18.827v4.345a1.449,1.449,0,0,0,.8,1.3,1.449,1.449,0,0,0,1.517-.137Z" fill="#a4dbf5"/>
      <path id="Trazado_5724" data-name="Trazado 5724" d="M-2828.144,3934.26v-4.344h18.827a1.447,1.447,0,0,0,1.448-1.449v-5.793a1.447,1.447,0,0,0-1.448-1.448h-18.827v-4.345a1.449,1.449,0,0,0-.8-1.3,1.447,1.447,0,0,0-1.516.137l-11.586,8.69a1.448,1.448,0,0,0-.58,1.158,1.451,1.451,0,0,0,.58,1.158l11.586,8.69a1.45,1.45,0,0,0,1.516.137,1.449,1.449,0,0,0,.8-1.3Z" fill="#a4dbf5"/>
    </g>
  </g>
</svg>
