<svg xmlns="http://www.w3.org/2000/svg" width="1140" height="455.94" viewBox="0 0 1140 455.94">
  <g id="Grupo_13506" data-name="Grupo 13506" transform="translate(-1656.507 1649.318)">
    <rect id="Rectángulo_2747" data-name="Rectángulo 2747" width="1140" height="455.94" transform="translate(1656.507 -1649.318)" fill="#fde6ca"/>
    <g id="Grupo_4506" data-name="Grupo 4506">
      <g id="Grupo_4379" data-name="Grupo 4379">
        <g id="Grupo_4375" data-name="Grupo 4375">
          <g id="Grupo_4368" data-name="Grupo 4368">
            <path id="Trazado_2629" data-name="Trazado 2629" d="M2274.547-1480.479v23.119l-6.923,6.923H2244.5v-30.042Z" fill="#e2b17f"/>
            <g id="Grupo_4367" data-name="Grupo 4367">
              <g id="Grupo_4366" data-name="Grupo 4366">
                <path id="Trazado_2630" data-name="Trazado 2630" d="M2271.469-1483.045v23.119l-6.923,6.923h-23.125v-30.042Z" fill="#fff"/>
                <path id="Trazado_2631" data-name="Trazado 2631" d="M2271.469-1459.926l-6.923,6.923v-6.923Z" fill="#fff7e0"/>
              </g>
              <rect id="Rectángulo_2748" data-name="Rectángulo 2748" width="5.078" height="6.337" transform="translate(2253.877 -1486.159)" fill="#fff7e0"/>
            </g>
          </g>
          <g id="Grupo_4371" data-name="Grupo 4371">
            <path id="Trazado_2632" data-name="Trazado 2632" d="M2309.619-1480.479v23.119l-6.923,6.923h-23.124v-30.042Z" fill="#e2b17f"/>
            <g id="Grupo_4370" data-name="Grupo 4370">
              <g id="Grupo_4369" data-name="Grupo 4369">
                <path id="Trazado_2633" data-name="Trazado 2633" d="M2306.541-1483.045v23.119l-6.923,6.923h-23.124v-30.042Z" fill="#fff"/>
                <path id="Trazado_2634" data-name="Trazado 2634" d="M2306.541-1459.926l-6.923,6.923v-6.923Z" fill="#fff7e0"/>
              </g>
              <rect id="Rectángulo_2749" data-name="Rectángulo 2749" width="5.078" height="6.337" transform="translate(2288.949 -1486.159)" fill="#fff7e0"/>
            </g>
          </g>
          <g id="Grupo_4374" data-name="Grupo 4374">
            <path id="Trazado_2635" data-name="Trazado 2635" d="M2344.691-1480.479v23.119l-6.923,6.923h-23.125v-30.042Z" fill="#e2b17f"/>
            <g id="Grupo_4373" data-name="Grupo 4373">
              <g id="Grupo_4372" data-name="Grupo 4372">
                <path id="Trazado_2636" data-name="Trazado 2636" d="M2341.613-1483.045v23.119l-6.923,6.923h-23.124v-30.042Z" fill="#fff"/>
                <path id="Trazado_2637" data-name="Trazado 2637" d="M2341.613-1459.926l-6.923,6.923v-6.923Z" fill="#fff7e0"/>
              </g>
              <rect id="Rectángulo_2750" data-name="Rectángulo 2750" width="5.078" height="6.337" transform="translate(2324.021 -1486.159)" fill="#fff7e0"/>
            </g>
          </g>
          <path id="Trazado_2638" data-name="Trazado 2638" d="M2379.763-1480.479v23.119l-6.923,6.923h-23.124v-30.042Z" fill="#e2b17f"/>
          <path id="Trazado_2639" data-name="Trazado 2639" d="M2376.684-1483.045v23.119l-6.923,6.923h-23.125v-30.042Z" fill="#fff"/>
          <rect id="Rectángulo_2751" data-name="Rectángulo 2751" width="5.078" height="6.337" transform="translate(2359.092 -1486.159)" fill="#fff7e0"/>
        </g>
        <g id="Grupo_4378" data-name="Grupo 4378">
          <g id="Grupo_4377" data-name="Grupo 4377">
            <g id="Grupo_4376" data-name="Grupo 4376">
              <path id="Trazado_2640" data-name="Trazado 2640" d="M2376.684-1459.926l-6.923,6.923v-6.923Z" fill="#fff7e0"/>
            </g>
          </g>
        </g>
      </g>
      <g id="Grupo_4381" data-name="Grupo 4381">
        <path id="Trazado_2641" data-name="Trazado 2641" d="M2148.376-1617.315h128.407a16.988,16.988,0,0,1,16.989,16.988v77.61a16.988,16.988,0,0,1-16.989,16.988h-132.9l-12.491,13.74v-108.338A16.988,16.988,0,0,1,2148.376-1617.315Z" fill="#40405a"/>
        <g id="Grupo_4380" data-name="Grupo 4380">
          <path id="Trazado_2642" data-name="Trazado 2642" d="M2166.433-1600.43h95.209a2.083,2.083,0,0,0,2.082-2.082h0a2.082,2.082,0,0,0-2.082-2.082h-95.209a2.082,2.082,0,0,0-2.082,2.082h0A2.082,2.082,0,0,0,2166.433-1600.43Z" fill="#e8575d"/>
          <path id="Trazado_2643" data-name="Trazado 2643" d="M2228.647-1518.624h33a2.082,2.082,0,0,0,2.082-2.082h0a2.082,2.082,0,0,0-2.082-2.081h-33a2.081,2.081,0,0,0-2.081,2.081h0A2.082,2.082,0,0,0,2228.647-1518.624Z" fill="#e8575d"/>
          <path id="Trazado_2644" data-name="Trazado 2644" d="M2155.607-1553.659h95.21a2.081,2.081,0,0,0,2.081-2.082h0a2.081,2.081,0,0,0-2.081-2.081h-95.21a2.082,2.082,0,0,0-2.082,2.081h0A2.082,2.082,0,0,0,2155.607-1553.659Z" fill="#e8575d"/>
          <path id="Trazado_2645" data-name="Trazado 2645" d="M2223.059-1543.943h27.758a2.082,2.082,0,0,0,2.081-2.082h0a2.082,2.082,0,0,0-2.081-2.082h-27.758a2.082,2.082,0,0,0-2.082,2.082h0A2.082,2.082,0,0,0,2223.059-1543.943Z" fill="#e8575d"/>
          <path id="Trazado_2646" data-name="Trazado 2646" d="M2177.813-1592.1h60.235a2.082,2.082,0,0,0,2.082-2.082h0a2.082,2.082,0,0,0-2.082-2.082h-60.235a2.083,2.083,0,0,0-2.082,2.082h0A2.083,2.083,0,0,0,2177.813-1592.1Z" fill="#8bc540"/>
          <path id="Trazado_2647" data-name="Trazado 2647" d="M2177.813-1583.776h60.235a2.082,2.082,0,0,0,2.082-2.082h0a2.082,2.082,0,0,0-2.082-2.081h-60.235a2.082,2.082,0,0,0-2.082,2.081h0A2.083,2.083,0,0,0,2177.813-1583.776Z" fill="#8bc540"/>
          <path id="Trazado_2648" data-name="Trazado 2648" d="M2177.813-1574.893h60.235a2.082,2.082,0,0,0,2.082-2.082h0a2.082,2.082,0,0,0-2.082-2.082h-60.235a2.083,2.083,0,0,0-2.082,2.082h0A2.083,2.083,0,0,0,2177.813-1574.893Z" fill="#8bc540"/>
          <path id="Trazado_2649" data-name="Trazado 2649" d="M2177.813-1536.147h60.235a2.082,2.082,0,0,0,2.082-2.081h0a2.082,2.082,0,0,0-2.082-2.082h-60.235a2.083,2.083,0,0,0-2.082,2.082h0A2.082,2.082,0,0,0,2177.813-1536.147Z" fill="#8bc540"/>
          <path id="Trazado_2650" data-name="Trazado 2650" d="M2177.813-1527.264h60.235a2.082,2.082,0,0,0,2.082-2.082h0a2.082,2.082,0,0,0-2.082-2.081h-60.235a2.082,2.082,0,0,0-2.082,2.081h0A2.083,2.083,0,0,0,2177.813-1527.264Z" fill="#8bc540"/>
          <path id="Trazado_2651" data-name="Trazado 2651" d="M2190.3-1564.623h60.235a2.082,2.082,0,0,0,2.082-2.082h0a2.082,2.082,0,0,0-2.082-2.081H2190.3a2.082,2.082,0,0,0-2.082,2.081h0A2.083,2.083,0,0,0,2190.3-1564.623Z" fill="#8683be"/>
        </g>
      </g>
      <g id="Grupo_4383" data-name="Grupo 4383">
        <path id="Trazado_2652" data-name="Trazado 2652" d="M2348.371-1515.711h78.4a10.373,10.373,0,0,1,10.373,10.372v47.388a10.374,10.374,0,0,1-10.373,10.373h-81.151l-7.626,8.39v-66.151A10.372,10.372,0,0,1,2348.371-1515.711Z" fill="#40405a"/>
        <g id="Grupo_4382" data-name="Grupo 4382">
          <path id="Trazado_2653" data-name="Trazado 2653" d="M2359.4-1505.4h58.135a1.271,1.271,0,0,0,1.271-1.271h0a1.271,1.271,0,0,0-1.271-1.271H2359.4a1.272,1.272,0,0,0-1.271,1.271h0A1.272,1.272,0,0,0,2359.4-1505.4Z" fill="#e8575d"/>
          <path id="Trazado_2654" data-name="Trazado 2654" d="M2397.384-1455.451h20.147a1.271,1.271,0,0,0,1.271-1.271h0a1.271,1.271,0,0,0-1.271-1.271h-20.147a1.271,1.271,0,0,0-1.271,1.271h0A1.271,1.271,0,0,0,2397.384-1455.451Z" fill="#e8575d"/>
          <path id="Trazado_2655" data-name="Trazado 2655" d="M2352.786-1476.843h58.135a1.271,1.271,0,0,0,1.271-1.271h0a1.272,1.272,0,0,0-1.271-1.272h-58.135a1.272,1.272,0,0,0-1.271,1.272h0A1.271,1.271,0,0,0,2352.786-1476.843Z" fill="#e8575d"/>
          <path id="Trazado_2656" data-name="Trazado 2656" d="M2393.972-1470.911h16.949a1.271,1.271,0,0,0,1.271-1.271h0a1.271,1.271,0,0,0-1.271-1.271h-16.949a1.271,1.271,0,0,0-1.271,1.271h0A1.271,1.271,0,0,0,2393.972-1470.911Z" fill="#e8575d"/>
          <path id="Trazado_2657" data-name="Trazado 2657" d="M2366.345-1500.317h36.779a1.271,1.271,0,0,0,1.271-1.271h0a1.272,1.272,0,0,0-1.271-1.272h-36.779a1.272,1.272,0,0,0-1.271,1.272h0A1.271,1.271,0,0,0,2366.345-1500.317Z" fill="#8bc540"/>
          <path id="Trazado_2658" data-name="Trazado 2658" d="M2366.345-1495.233h36.779a1.271,1.271,0,0,0,1.271-1.271h0a1.271,1.271,0,0,0-1.271-1.271h-36.779a1.271,1.271,0,0,0-1.271,1.271h0A1.271,1.271,0,0,0,2366.345-1495.233Z" fill="#8bc540"/>
          <path id="Trazado_2659" data-name="Trazado 2659" d="M2366.345-1489.809h36.779a1.271,1.271,0,0,0,1.271-1.271h0a1.271,1.271,0,0,0-1.271-1.271h-36.779a1.271,1.271,0,0,0-1.271,1.271h0A1.271,1.271,0,0,0,2366.345-1489.809Z" fill="#8bc540"/>
          <path id="Trazado_2660" data-name="Trazado 2660" d="M2366.345-1466.151h36.779a1.271,1.271,0,0,0,1.271-1.271h0a1.271,1.271,0,0,0-1.271-1.271h-36.779a1.271,1.271,0,0,0-1.271,1.271h0A1.271,1.271,0,0,0,2366.345-1466.151Z" fill="#8bc540"/>
          <path id="Trazado_2661" data-name="Trazado 2661" d="M2366.345-1460.727h36.779A1.271,1.271,0,0,0,2404.4-1462h0a1.271,1.271,0,0,0-1.271-1.271h-36.779a1.271,1.271,0,0,0-1.271,1.271h0A1.271,1.271,0,0,0,2366.345-1460.727Z" fill="#8bc540"/>
          <path id="Trazado_2662" data-name="Trazado 2662" d="M2373.972-1483.538h36.779a1.271,1.271,0,0,0,1.271-1.271h0a1.271,1.271,0,0,0-1.271-1.271h-36.779a1.271,1.271,0,0,0-1.271,1.271h0A1.271,1.271,0,0,0,2373.972-1483.538Z" fill="#8683be"/>
        </g>
      </g>
      <g id="Grupo_4386" data-name="Grupo 4386">
        <g id="Grupo_4384" data-name="Grupo 4384">
          <path id="Trazado_2663" data-name="Trazado 2663" d="M2016.466-1610.514h-69.76a9.229,9.229,0,0,0-9.229,9.229v42.164a9.229,9.229,0,0,0,9.229,9.229h72.2l6.786,7.465v-58.858A9.229,9.229,0,0,0,2016.466-1610.514Z" fill="#40405a"/>
        </g>
        <g id="Grupo_4385" data-name="Grupo 4385">
          <path id="Trazado_2664" data-name="Trazado 2664" d="M1972.5-1581.328l-9.419,3.024,8.2,3.023-.93,4.68-13.75-5.378,1.046-5.174,15.9-5.379Z" fill="#e8575d"/>
          <path id="Trazado_2665" data-name="Trazado 2665" d="M1984.658-1592.869h5.988l-14.884,27.385h-5.989Z" fill="#e8575d"/>
          <path id="Trazado_2666" data-name="Trazado 2666" d="M2003.293-1581.153l-1.046,5.174-15.9,5.378,1.046-5.2,9.42-3.024-8.2-3.023.931-4.681Z" fill="#e8575d"/>
        </g>
      </g>
      <g id="Grupo_4390" data-name="Grupo 4390">
        <g id="Grupo_4387" data-name="Grupo 4387">
          <rect id="Rectángulo_2752" data-name="Rectángulo 2752" width="123.33" height="14.859" rx="6.235" transform="translate(2413.297 -1390.829)" fill="#40405a"/>
          <path id="Trazado_2667" data-name="Trazado 2667" d="M2421.59-1387.5h106.975a4.1,4.1,0,0,1,4.1,4.1h0a4.1,4.1,0,0,1-4.1,4.1H2421.59" fill="#171826"/>
        </g>
        <g id="Grupo_4389" data-name="Grupo 4389">
          <path id="Trazado_2668" data-name="Trazado 2668" d="M2485.545-1383.4a4.094,4.094,0,0,1-1.2,2.9,4.08,4.08,0,0,1-2.9,1.2H2421.59a4.072,4.072,0,0,1-1.007-.126,4.1,4.1,0,0,1-3.094-3.971,4.09,4.09,0,0,1,1.2-2.9,4.087,4.087,0,0,1,2.9-1.2h59.857c.038,0,.075,0,.112,0A4.1,4.1,0,0,1,2485.545-1383.4Z" fill="#8bc540"/>
          <g id="Grupo_4388" data-name="Grupo 4388">
            <path id="Trazado_2669" data-name="Trazado 2669" d="M2427.7-1387.5l-1.747,8.2h-4.359a4.072,4.072,0,0,1-1.007-.126l1.72-8.072Z" fill="#37b34a"/>
            <path id="Trazado_2670" data-name="Trazado 2670" d="M2438.47-1387.5l-1.746,8.2h-5.4l1.746-8.2Z" fill="#37b34a"/>
            <path id="Trazado_2671" data-name="Trazado 2671" d="M2449.24-1387.5l-1.746,8.2H2442.1l1.746-8.2Z" fill="#37b34a"/>
            <path id="Trazado_2672" data-name="Trazado 2672" d="M2460.015-1387.5l-1.747,8.2h-5.393l1.747-8.2Z" fill="#37b34a"/>
            <path id="Trazado_2673" data-name="Trazado 2673" d="M2470.789-1387.5l-1.747,8.2h-5.4l1.746-8.2Z" fill="#37b34a"/>
            <path id="Trazado_2674" data-name="Trazado 2674" d="M2481.559-1387.5l-1.746,8.195h-5.393l1.747-8.2h5.28C2481.485-1387.5,2481.522-1387.5,2481.559-1387.5Z" fill="#37b34a"/>
          </g>
        </g>
      </g>
      <g id="Grupo_4415" data-name="Grupo 4415">
        <g id="Grupo_4391" data-name="Grupo 4391">
          <path id="Trazado_2675" data-name="Trazado 2675" d="M2041.851-1516.644s6.121-18.7-10.712-21.084c-11.9-2.211-22.444.34-26.865,9.012s-.3,35.432,12.752,48.8c13.943,14.283,31.967,25.845,52.881,18.873s27.715-18.873,29.585-26.865-4.08-19.383-19.043-19.723-23.635,2.55-31.456.34S2041.851-1516.644,2041.851-1516.644Z" fill="#2f2d44"/>
          <path id="Trazado_2676" data-name="Trazado 2676" d="M2012.568-1520.752s3.1-4.989,3.608-5.584c-3.4,1.445-7.141,6.121-6.971,10.627a12.215,12.215,0,0,0,3.486,7.567Z" fill="#171826"/>
          <path id="Trazado_2677" data-name="Trazado 2677" d="M2010.055-1512.9s3.4,36.9,30.606,42.508c22.543,4.649,40.468,0,44.549-11.052,3.642-9.865-2.551-17-7.482-19.044s-18.533,4.081-32.136-.85-9.012-13.773-9.012-13.773Z" fill="#171826"/>
        </g>
        <g id="Grupo_4394" data-name="Grupo 4394">
          <g id="Grupo_4392" data-name="Grupo 4392">
            <path id="Trazado_2678" data-name="Trazado 2678" d="M1942.149-1465.32s22.906,7.3,27.268,12.778c2.851,3.579,3.571,8.332-.17,11.732s-10.529-1.087-12.922-2.89l-16.3-11.663S1936.8-1464.147,1942.149-1465.32Z" fill="#f09087"/>
            <path id="Trazado_2679" data-name="Trazado 2679" d="M1958.663-1441.15s20.278,16.387,32.136,13.263c12.5-6.518,21.284-25.668,22.941-33.32s-2.564-25.861-11.081-25.086c-2.806.255-18.491,36.089-18.491,36.089l-19.639-6.886S1957.515-1448.929,1958.663-1441.15Z" fill="#d3333b"/>
          </g>
          <g id="Grupo_4393" data-name="Grupo 4393">
            <path id="Trazado_2680" data-name="Trazado 2680" d="M1935.91-1467.642a34.387,34.387,0,0,1-5.672,3.6c-2.164.962-9.961,4.012-10.1,6.087-.225,3.362,5.118-1.107,9.268-1.937s4.7,3.736,7.609,2.905,4.427-2.351,3.6-5.118S1935.91-1467.642,1935.91-1467.642Z" fill="#f09087"/>
            <path id="Trazado_2681" data-name="Trazado 2681" d="M1943.031-1461.367s0-6.833-1.166-8.316-9.64-1.7-9.64-1.7-2.331-2.966-3.391-2.648-.741,2.86.954,4.767,5.827.636,5.827.636.423,4.661,1.589,5.827S1943.031-1461.367,1943.031-1461.367Z" fill="#f7ab9d"/>
            <path id="Trazado_2682" data-name="Trazado 2682" d="M1944.62-1457.182c.106,2.119-4.979,4.555-6.569,4.555-.089,0-.184,0-.284,0-1.644-.027-4.407-.318-4.907-2.117a2.756,2.756,0,0,1-2.86-2.33c-1.166-.636-2.225-1.272-1.589-2.861s2.86-2.225,4.555-1.695,1.183,1.8,1.183,1.8,1.678-.525,1.678,1.767v.034c1.165-2.542,6.78-4.132,6.78-4.132S1944.514-1459.3,1944.62-1457.182Z" fill="#f7ab9d"/>
            <path id="Trazado_2683" data-name="Trazado 2683" d="M1944.62-1457.182c.106,2.119-4.979,4.555-6.569,4.555-.089,0-.184,0-.284,0a3.68,3.68,0,0,1-1.834-2.593,4.093,4.093,0,0,0,1.377.423c.953.159,2.278-.9,1.642-2.012s-3.125-1.219-3.125-1.219c1.165-2.542,6.78-4.132,6.78-4.132S1944.514-1459.3,1944.62-1457.182Z" fill="#f09087"/>
          </g>
        </g>
        <g id="Grupo_4397" data-name="Grupo 4397">
          <g id="Grupo_4395" data-name="Grupo 4395">
            <path id="Trazado_2684" data-name="Trazado 2684" d="M2084.149-1383.223c-.65,5.984-4.616,19.172-9.569,33.978v0c-5.19,15.51-11.459,32.8-16.134,45.42-3.7,9.99-5.282,23.125-7.961,37.66s-23.719,71.156-23.719,71.156l-10.207-7.58-3.043-2.26-12-8.906,22.569-74.6,18.942-101.025,2.865-15.272,31.368-14.155S2086.062-1400.821,2084.149-1383.223Z" fill="#4c5d46"/>
            <path id="Trazado_2685" data-name="Trazado 2685" d="M2072.8-1379.428s-19.723,57.3-24.824,74.135-8.5,32.3-12.584,48.628c-3.129,12.513-13.951,41.315-18.83,54.078l-3.043-2.26c10.654-19.526,25.255-72.872,27.145-83.273,2.04-11.222,30.267-93.519,30.267-93.519Z" fill="#384936"/>
            <path id="Trazado_2686" data-name="Trazado 2686" d="M2084.149-1383.223c-.65,5.984-4.616,19.172-9.569,33.978-2.028-8.06-3.525-21.922-10.686-38.933-5.476.341-14.077-.419-20.864-1.2l2.865-15.272,31.368-14.155S2086.062-1400.821,2084.149-1383.223Z" fill="#384936"/>
          </g>
          <g id="Grupo_4396" data-name="Grupo 4396">
            <path id="Trazado_2687" data-name="Trazado 2687" d="M2026.766-1195.537l-52.155-1.383a14.52,14.52,0,0,1,1.673-5.631,8.211,8.211,0,0,1,3.683-3.551c4.974-2.295,21.552-7.651,21.552-7.651s6.078-2.053,19.177,11.2A73.488,73.488,0,0,1,2026.766-1195.537Z" fill="#d3333b"/>
            <path id="Trazado_2688" data-name="Trazado 2688" d="M2026.766-1195.537l-52.155-1.383a14.52,14.52,0,0,1,1.673-5.631H2020.7A73.488,73.488,0,0,1,2026.766-1195.537Z" fill="#fff"/>
          </g>
        </g>
        <g id="Grupo_4398" data-name="Grupo 4398">
          <path id="Trazado_2689" data-name="Trazado 2689" d="M2120.238-1285.06c-.512,8.412-9.187,89.523-9.187,89.523l-7.662-4.885-2.955-1.883-18.577-11.832s7.007-56.124,6.757-84.7c-2.05-36.534-11.559-71.6-17.683-90.941-3.063-9.676-5.279-15.408-5.279-15.408l16.026-7.3,13.06-5.958,2.36-1.084s2.764,2.18,6.3,5.505c5.636,5.3,13.227,13.524,14.8,20.567,2.55,11.475-2.3,81.623-2.3,81.623S2120.751-1293.473,2120.238-1285.06Z" fill="#4c5d46"/>
          <path id="Trazado_2690" data-name="Trazado 2690" d="M2103.4-1414.025c-3.754,4.762-8.845,10.467-13.518,13.938-5.116,3.8-13.084,7.687-18.95,10.312-3.065-9.679-5.279-15.413-5.279-15.413l31.447-14.339S2099.866-1417.354,2103.4-1414.025Z" fill="#384936"/>
          <path id="Trazado_2691" data-name="Trazado 2691" d="M2111.313-1262.361c-.691,13.882-6.649,53.562-7.924,61.939l-2.955-1.883c1.5-8.4,7.4-42.122,8.067-55.468.739-14.656,1.7-33.543-.906-48.331a22.862,22.862,0,0,1-.357-3.92c-.131-13.679-3.277-67.062-6.637-83.434-13.393-1.1-17.635-11.356-18.923-19.03l13.06-5.958c2.9,6.2,8,17.421,9.426,22.438,1.847,6.446,4.516,61.116,4.838,82.755a67.485,67.485,0,0,0,.893,9.926C2111.492-1293.437,2111.969-1275.73,2111.313-1262.361Z" fill="#384936"/>
          <path id="Trazado_2692" data-name="Trazado 2692" d="M2092.436-1302.658c.341-.731,11.477-1.02,12.5.765s-3.315,19.384-6.376,17.343S2090.651-1298.832,2092.436-1302.658Z" fill="#384936"/>
        </g>
        <g id="Grupo_4399" data-name="Grupo 4399">
          <path id="Trazado_2693" data-name="Trazado 2693" d="M2111.055-1195.537l-52.155-1.383a14.52,14.52,0,0,1,1.673-5.631,8.206,8.206,0,0,1,3.683-3.551c4.973-2.295,17.6-8.034,17.6-8.034s10.031-1.67,23.13,11.585A73.593,73.593,0,0,1,2111.055-1195.537Z" fill="#ef515f"/>
          <path id="Trazado_2694" data-name="Trazado 2694" d="M2111.055-1195.537l-52.155-1.383a14.52,14.52,0,0,1,1.673-5.631h44.411A73.593,73.593,0,0,1,2111.055-1195.537Z" fill="#fff"/>
        </g>
        <g id="Grupo_4401" data-name="Grupo 4401">
          <g id="Grupo_4400" data-name="Grupo 4400">
            <path id="Trazado_2695" data-name="Trazado 2695" d="M2097.1-1419.527c-4.629,6.249-23.377,16.433-28.932,17.823s-15.454,2.5-29.8,1.107c-.143-2.841-3.745-14.328-6.989-23.525-2.04-5.79-3.94-10.674-4.744-11.927-2.083-3.241-14.012-6.855-16.1-11.252s-.737-18.843-.737-18.843-9.457-17.6-7.141-20.149,14.487-8.317,14.487-8.317,9.824-2.224,14.364-1.834,32.5.3,36.893,10.487,18.284,54.856,18.284,54.856S2087.613-1428.785,2097.1-1419.527Z" fill="#ef515f"/>
            <path id="Trazado_2696" data-name="Trazado 2696" d="M2073.307-1426.867c-1.558,1.168-27.79,3.823-41.93,2.745-2.04-5.79-3.94-10.674-4.744-11.927,0,0,13.008,5.1,23.21,6.122S2075.348-1428.4,2073.307-1426.867Z" fill="#d3333b"/>
          </g>
        </g>
        <g id="Grupo_4405" data-name="Grupo 4405">
          <g id="Grupo_4402" data-name="Grupo 4402">
            <path id="Trazado_2697" data-name="Trazado 2697" d="M2042.872-1389.46c-20.727,27.032-21.85,25.59-21.85,25.59-6.21-.472-8.495-6.547-8.495-6.547l16.572-28.905A32.181,32.181,0,0,1,2042.872-1389.46Z" fill="#f7ab9d"/>
          </g>
          <g id="Grupo_4403" data-name="Grupo 4403">
            <path id="Trazado_2698" data-name="Trazado 2698" d="M2069.566-1449.821c-1.337,13.035-2.255,30.06-14.622,47.439-3.109,4.369-7.024,9.314-11.141,14.267-4.211-5.113-12.571-8.569-16.961-10.115l15.349-28.466s4.867-56.68,7.54-61.026,9.337-5.238,14.706-.668C2069.4-1484.169,2070.905-1462.857,2069.566-1449.821Z" fill="#d3333b"/>
          </g>
          <g id="Grupo_4404" data-name="Grupo 4404">
            <path id="Trazado_2699" data-name="Trazado 2699" d="M2004.289-1373.562a33.687,33.687,0,0,0-4.389.766c-.7.318-6.848,6.376-7.55,7.013s-3.921,1.531-4.272,2.168,1.346,2.615,4.389,1.658S2003.177-1371.457,2004.289-1373.562Z" fill="#ef515f"/>
            <path id="Trazado_2700" data-name="Trazado 2700" d="M2021.145-1363.87c-1.873.893-10.039.9-10.039.9s-7.285,1.4-10.211,1.525c-1.121.051-2.535.135-3.886.166-.81.018-1.6.015-2.283-.025-1.158-.072-2.032-.256-2.259-.651-.585-1.02,9.748-11.6,11.822-11.6,3.278,0,13.461,1.021,13.461,1.021C2023.837-1370.756,2023.018-1364.762,2021.145-1363.87Z" fill="#f7ab9d"/>
            <path id="Trazado_2701" data-name="Trazado 2701" d="M1997.009-1361.281c-.81.018-1.6.015-2.283-.025,2.657-3.265,8.435-8.57,8.627-8.047C2003.515-1368.915,1999.516-1364.186,1997.009-1361.281Z" fill="#ef515f"/>
          </g>
        </g>
        <g id="Grupo_4414" data-name="Grupo 4414">
          <g id="Grupo_4406" data-name="Grupo 4406">
            <path id="Trazado_2702" data-name="Trazado 2702" d="M2031.974-1498.064c-1.79,4.219-9.332,7.414-14.828,3.454a26.816,26.816,0,0,0-1-5.576c-1.648-6.437-4.752-15.132-4.752-15.132,6.134-3.581,18.022,8.18,18.022,9.97a9.887,9.887,0,0,0,1.765,6.032C2031.413-1498.926,2031.676-1498.51,2031.974-1498.064Z" fill="#f09087"/>
            <path id="Trazado_2703" data-name="Trazado 2703" d="M2031.181-1499.316a39.025,39.025,0,0,1-7.527.933,13.7,13.7,0,0,1-7.508-1.8c-1.648-6.437-4.752-15.132-4.752-15.132,6.134-3.581,18.022,8.18,18.022,9.97A9.887,9.887,0,0,0,2031.181-1499.316Z" fill="#ef515f"/>
            <path id="Trazado_2704" data-name="Trazado 2704" d="M2031.928-1499.23s-4.16,2.764-6.334,3.865c-3.756-.609-9.143-2.185-9.143-2.185s-.081,2.2.064,4.458c1.307,3.292,7.062,5.881,7.062,5.881s1.7-2.707,2.654-4.584a47.549,47.549,0,0,0,3.008,3.72c2.366-1.126,5.209-7.49,5.175-8.416A9.267,9.267,0,0,0,2031.928-1499.23Z" fill="#d3333b"/>
          </g>
          <g id="Grupo_4407" data-name="Grupo 4407">
            <path id="Trazado_2705" data-name="Trazado 2705" d="M2006-1518.76c-1.821.859-1.708,2.606-1.235,4.407s3.975,5.373,6.668,5.687a8.116,8.116,0,0,0,3.794-.266S2010.468-1520.864,2006-1518.76Z" fill="#f09087"/>
            <path id="Trazado_2706" data-name="Trazado 2706" d="M2007.061-1517.375c1.382-.362,3.772,1.242,5.329,3.764-1.457.076-2.093.724-1.542,1.629s3.167,1.663,3.774,1.417a5.087,5.087,0,0,0,.467.7c-.388.02-5.788.216-6.244-2.249-.274-1.9,2.22-2.114,2.22-2.114s-1.889-2.085-3.281-1.589c-1.305.466-1.214,2.2-1.214,2.2S2004.781-1516.777,2007.061-1517.375Z" fill="#ef515f"/>
          </g>
          <g id="Grupo_4408" data-name="Grupo 4408">
            <path id="Trazado_2707" data-name="Trazado 2707" d="M2040.6-1519.464c1.975.392,2.289,2.114,2.268,3.976s-2.554,6.177-5.09,7.135a8.115,8.115,0,0,1-3.745.662S2035.759-1520.422,2040.6-1519.464Z" fill="#f09087"/>
            <path id="Trazado_2708" data-name="Trazado 2708" d="M2039.91-1517.863c-1.428-.017-3.358,2.119-4.256,4.944,1.432-.28,2.206.194,1.891,1.206s-2.669,2.382-3.317,2.289a5.122,5.122,0,0,1-.283.795c.381-.074,5.668-1.195,5.512-3.7-.194-1.907-2.667-1.512-2.667-1.512s1.328-2.481,2.8-2.338c1.379.135,1.711,1.84,1.711,1.84S2042.268-1517.836,2039.91-1517.863Z" fill="#ef515f"/>
          </g>
          <g id="Grupo_4409" data-name="Grupo 4409">
            <path id="Trazado_2709" data-name="Trazado 2709" d="M2037.843-1521.88s-.11.711-.3,1.872c-.778,4.731-2.921,16.92-4.55,18.549-2.033,2.033-13.429-1.354-16.137-2.933s-6.206-12.525-6.206-12.525,1.579-3.385,1.918-3.836,2.821-2.03,6.545-2.933,8.35-3.836,10.268-6.769C2030.283-1524.25,2037.843-1521.88,2037.843-1521.88Z" fill="#f7ab9d"/>
            <path id="Trazado_2710" data-name="Trazado 2710" d="M2037.843-1521.88s-.11.711-.3,1.872c-3.683-.895-7.136-3.938-9-6.137-2.487,3.061-10.521,5.229-12.88,5.8s-5.017,3.425-5.017,3.425,1.579-3.385,1.918-3.836,2.821-2.03,6.545-2.933,8.35-3.836,10.268-6.769C2030.283-1524.25,2037.843-1521.88,2037.843-1521.88Z" fill="#f09087"/>
          </g>
          <g id="Grupo_4410" data-name="Grupo 4410">
            <path id="Trazado_2711" data-name="Trazado 2711" d="M2033.555-1517.33a1.739,1.739,0,0,0-1.853-1.532,1.714,1.714,0,0,0-1.532,1.853,1.737,1.737,0,0,0,1.853,1.532A1.715,1.715,0,0,0,2033.555-1517.33Z" fill="#2f2d44"/>
            <path id="Trazado_2712" data-name="Trazado 2712" d="M2036.008-1519.985a6.892,6.892,0,0,0-2.969-.962,8.285,8.285,0,0,0-2.932.9,4.372,4.372,0,0,1,2.879-2.381C2035.219-1522.762,2036.008-1519.985,2036.008-1519.985Z" fill="#2f2d44"/>
          </g>
          <g id="Grupo_4411" data-name="Grupo 4411">
            <path id="Trazado_2713" data-name="Trazado 2713" d="M2024.923-1517.33a1.739,1.739,0,0,0-1.853-1.532,1.715,1.715,0,0,0-1.532,1.853,1.739,1.739,0,0,0,1.853,1.532A1.714,1.714,0,0,0,2024.923-1517.33Z" fill="#2f2d44"/>
            <path id="Trazado_2714" data-name="Trazado 2714" d="M2019.549-1520.154a8.1,8.1,0,0,1,3.279-.944,9.974,9.974,0,0,1,3.251.92,4.775,4.775,0,0,0-3.2-2.4C2020.4-1522.927,2019.549-1520.154,2019.549-1520.154Z" fill="#2f2d44"/>
          </g>
          <g id="Grupo_4412" data-name="Grupo 4412">
            <path id="Trazado_2715" data-name="Trazado 2715" d="M2028.054-1520.343s-1.058,4.189-.381,5.458,3.47,1.862,3.47,1.862a10.768,10.768,0,0,1-2.243-2.5A22.07,22.07,0,0,1,2028.054-1520.343Z" fill="#ef515f"/>
            <path id="Trazado_2716" data-name="Trazado 2716" d="M2029.662-1512.558c-.127-.3-2.693-.234-2.623.3C2027.166-1511.288,2029.813-1512.2,2029.662-1512.558Z" fill="#f09087"/>
          </g>
          <g id="Grupo_4413" data-name="Grupo 4413">
            <path id="Trazado_2717" data-name="Trazado 2717" d="M2022.328-1510.089a4.806,4.806,0,0,0,3.61,2.933,4.734,4.734,0,0,0,5.134-2.031S2027.292-1507.607,2022.328-1510.089Z" fill="#ef515f"/>
          </g>
        </g>
      </g>
      <g id="Grupo_4449" data-name="Grupo 4449">
        <g id="Grupo_4444" data-name="Grupo 4444">
          <g id="Grupo_4416" data-name="Grupo 4416">
            <path id="Trazado_2718" data-name="Trazado 2718" d="M2127.364-1306.877v13.776h140.67v-13.776a13.007,13.007,0,0,0-13.007-13.007H2140.372A13.007,13.007,0,0,0,2127.364-1306.877Z" fill="#f9dea6"/>
          </g>
          <g id="Grupo_4443" data-name="Grupo 4443">
            <g id="Grupo_4418" data-name="Grupo 4418">
              <path id="Trazado_2719" data-name="Trazado 2719" d="M2184.96-1344.63s-56.98,13.651-66.457,19.406-32.576,112.494-32.576,112.494,22.341,7.785,29.111,16.925c11.17-48.744,27.159-100.308,27.159-100.308s45.021-12.525,54.16-15.91,23.7-13.878,27.418-27.418S2188.457-1346.773,2184.96-1344.63Z" fill="#2f2d44"/>
              <g id="Grupo_4417" data-name="Grupo 4417">
                <path id="Trazado_2720" data-name="Trazado 2720" d="M2115.038-1195.805h-15.176l-4.068.015h-36.313a39.621,39.621,0,0,1,2.866-3.316c1.832-1.892,4.288-4.042,6.626-4.823,4.52-1.505,11.376-6.1,13.824-8.322s12.092-7.5,15.859-6.593c3.1.742,12.663,10.437,15.563,18.307.179.485.332.965.457,1.431A9.6,9.6,0,0,1,2115.038-1195.805Z" fill="#9f4835"/>
                <path id="Trazado_2721" data-name="Trazado 2721" d="M2115.038-1195.805h-15.176l-4.068.015h-36.313a59.888,59.888,0,0,1,5.22-3.316h49.975A9.6,9.6,0,0,1,2115.038-1195.805Z" fill="#843528"/>
                <path id="Trazado_2722" data-name="Trazado 2722" d="M2077.713-1207.167c-4.119,2.813-10.749,4.722-11.854,6.028l-1.1,1.306,24.009-.3S2084.142-1207.568,2077.713-1207.167Z" fill="#af5647"/>
                <path id="Trazado_2723" data-name="Trazado 2723" d="M2105.438-1212.139s-7.684,5.2-12.13,6.781-8.363,2.712-9.116,6.705l-.9.151s-.9-2.11,3.164-5.048,6.48-2.336,10.322-4.671,8.062-5.048,8.062-5.048Z" fill="#843528"/>
              </g>
            </g>
            <g id="Grupo_4421" data-name="Grupo 4421">
              <g id="Grupo_4419" data-name="Grupo 4419">
                <path id="Trazado_2724" data-name="Trazado 2724" d="M2199.229-1195.805h-15.176l-4.068.015h-36.314a39.736,39.736,0,0,1,2.867-3.316c1.832-1.892,4.288-4.042,6.626-4.823,4.52-1.505,11.376-6.1,13.824-8.322s12.092-7.5,15.859-6.593c3.1.742,12.663,10.437,15.563,18.307.179.485.332.965.457,1.431A9.592,9.592,0,0,1,2199.229-1195.805Z" fill="#9f4835"/>
                <path id="Trazado_2725" data-name="Trazado 2725" d="M2199.229-1195.805h-15.176l-4.068.015h-36.314a60,60,0,0,1,5.221-3.316h49.975A9.592,9.592,0,0,1,2199.229-1195.805Z" fill="#843528"/>
                <path id="Trazado_2726" data-name="Trazado 2726" d="M2161.9-1207.167c-4.119,2.813-10.749,4.722-11.854,6.028l-1.1,1.306,24.009-.3S2168.333-1207.568,2161.9-1207.167Z" fill="#af5647"/>
                <path id="Trazado_2727" data-name="Trazado 2727" d="M2189.629-1212.139s-7.685,5.2-12.13,6.781-8.363,2.712-9.116,6.705l-.9.151s-.9-2.11,3.164-5.048,6.48-2.336,10.322-4.671,8.062-5.048,8.062-5.048Z" fill="#843528"/>
              </g>
              <g id="Grupo_4420" data-name="Grupo 4420">
                <path id="Trazado_2728" data-name="Trazado 2728" d="M2259.149-1324.377c-2.285,5.838-45.445,27.67-45.445,27.67l-14.475,100.9s-2.545-1.523-6.223-3.571c-.605-.337-1.24-.689-1.9-1.048-7.475-4.091-20.071-11.559-24.6-11.714,4.315-23.865,10.134-74.92,12.416-90.407s31.228-32.241,31.228-32.241l6.094-10.156,23.2,5.6,12.342,2.977,7.61,1.836A13.615,13.615,0,0,1,2259.149-1324.377Z" fill="#40405a"/>
                <path id="Trazado_2729" data-name="Trazado 2729" d="M2251.791-1336.369c-2.181,5.491-5.44,10.237-7.029,11.484-1.63,1.281-18.063,11.123-28.173,17.147a19.066,19.066,0,0,0-9.126,13.783l-14.457,94.579c-.605-.337-1.24-.689-1.9-1.048l14.667-94.86a19.049,19.049,0,0,1,8.939-13.637c5.826-3.561,14.558-8.922,24.8-15.288a19.7,19.7,0,0,1-.066-15.137Z" fill="#2f2d44"/>
              </g>
            </g>
            <g id="Grupo_4425" data-name="Grupo 4425">
              <g id="Grupo_4422" data-name="Grupo 4422">
                <path id="Trazado_2730" data-name="Trazado 2730" d="M2120.652-1381.3s33.176,21.2,54.526,10.137c8.755-11.366,16.9-27.033,16.742-27.493s-19.046-8.141-19.046-8.141l-12.595,18.278-35.788.154S2117.733-1385.754,2120.652-1381.3Z" fill="#f7ab9d"/>
              </g>
              <g id="Grupo_4423" data-name="Grupo 4423">
                <path id="Trazado_2731" data-name="Trazado 2731" d="M2107.671-1386.831l10.155,5.078s7.954.677,8.067-2.483-9.7-12.919-11.114-13.2-7.221,1.805-7.729,2.426-1.862,7.56-1.862,7.56Z" fill="#ef515f"/>
                <path id="Trazado_2732" data-name="Trazado 2732" d="M2108.291-1385.561c.119,1.42-.79,2.285-1.975,1.663-.788,1.806-2.319,1.087-3.948-.788-1.862-2.145-2.133-3.657-1.974-4.8.28-2.031,1.183-2.426,1.183-2.426a18.332,18.332,0,0,1,1.26-2.652,3.774,3.774,0,0,1,.658-.845c.9-.79,8.83,1.1,8.83,1.1l-5.458.661.727,4.616A34.537,34.537,0,0,1,2108.291-1385.561Z" fill="#f09087"/>
                <path id="Trazado_2733" data-name="Trazado 2733" d="M2106.316-1383.9a14.633,14.633,0,0,1-4.739-8.011,18.332,18.332,0,0,1,1.26-2.652A21.526,21.526,0,0,0,2106.316-1383.9Z" fill="#ef515f"/>
                <path id="Trazado_2734" data-name="Trazado 2734" d="M2113.425-1398.17s-6.093-1.3-7.785.4-4.4,11.96-2.708,13.314,5.246-9.309,5.246-9.309l5.134-.056Z" fill="#f7ab9d"/>
                <path id="Trazado_2735" data-name="Trazado 2735" d="M2114.1-1401.837c-2.934.564-3.046,5.528-2.934,7.785s.452,9.139,1.693,9.365c.934.17,1.676-6.5,1.986-9.808a.726.726,0,0,1,1.293-.38c1.054,1.343,2.1,2.695,3.1,4.076s2.077,2.629,1.674,4.473c-.8,3.652-5.145,3.011-6.924,5.645-1.41,2.087-.819,4.845.847,4.062.959-.452,2.707-2.313,4.174-2.539a33.135,33.135,0,0,0,6.719-1.488,4.825,4.825,0,0,0,2.926-2.227c1.825-3.794-1.873-7.569-4.153-10.232a46.831,46.831,0,0,0-7.669-7.448C2116.168-1401.039,2115.014-1402.013,2114.1-1401.837Z" fill="#f7ab9d"/>
              </g>
              <g id="Grupo_4424" data-name="Grupo 4424">
                <path id="Trazado_2736" data-name="Trazado 2736" d="M2183.776-1431.963c-5.863,2.2-20.592,34.977-20.592,34.977s19.125,7.278,24.372,13.2c6.262-15.233,12.017-25.557,11.678-33.85S2193.536-1435.63,2183.776-1431.963Z" fill="#cbebfb"/>
              </g>
            </g>
            <g id="Grupo_4427" data-name="Grupo 4427">
              <g id="Grupo_4426" data-name="Grupo 4426">
                <path id="Trazado_2737" data-name="Trazado 2737" d="M2262.138-1330.922l-77.178-13.708,7.279-23.865-1.012-7.81-3.051-23.5s-5.922-29.451-4.4-32.159,16.925-11.34,16.925-11.34c2.03-1.691,13.37-3.045,16.586-2.369s26.742,7.618,30.973,11.51,15.907,48.406,16.417,64.821S2262.138-1330.922,2262.138-1330.922Z" fill="#fff"/>
                <path id="Trazado_2738" data-name="Trazado 2738" d="M2237.824-1363.221c-.51,2.285-45.585-5.274-45.585-5.274l-1.012-7.81C2202.293-1374.655,2238.26-1365.185,2237.824-1363.221Z" fill="#cbebfb"/>
              </g>
            </g>
            <g id="Grupo_4431" data-name="Grupo 4431">
              <g id="Grupo_4428" data-name="Grupo 4428">
                <path id="Trazado_2739" data-name="Trazado 2739" d="M2273.624-1375.322c.248-.524.136-9.591-5.957-22.679-6.995.226-17.94,6.093-17.94,6.093l3.385,12.863s2.256,7.334,3.836,8.462S2268.185-1363.813,2273.624-1375.322Z" fill="#f09087"/>
                <path id="Trazado_2740" data-name="Trazado 2740" d="M2246.116-1435.574c1.144-1.332,14.668,10.719,19.069,20.761,4.236,9.666,6.319,16.248,6.319,16.248s-4.4,5.077-13.428,7.672-12.75,1.693-12.75,1.693S2234.382-1421.922,2246.116-1435.574Z" fill="#cbebfb"/>
              </g>
              <g id="Grupo_4430" data-name="Grupo 4430">
                <path id="Trazado_2741" data-name="Trazado 2741" d="M2222.9-1364.418s16.26,1.84,22.856,2.147,16.344.648,22.188-5.665,5.913-9.49,3.979-12.777-8.9-3.993-14.3-2.1-13.6,6.142-17.971,7.171a101.7,101.7,0,0,1-11.959,1.6Z" fill="#f7ab9d"/>
                <g id="Grupo_4429" data-name="Grupo 4429">
                  <path id="Trazado_2742" data-name="Trazado 2742" d="M2229.98-1373.51a9.8,9.8,0,0,1,1.376,7.621c-.977,4.552-9.239,1.231-10.981-3.956C2222.9-1375.078,2229.98-1373.51,2229.98-1373.51Z" fill="#f09087"/>
                  <path id="Trazado_2743" data-name="Trazado 2743" d="M2210.032-1371.452c-.478.063-5.257-1.054-5.77-.595s-.034,3.121,4.357,3.915,5.421-1.63,5.421-1.63a14.985,14.985,0,0,0,3.525,2.272,5.994,5.994,0,0,0,3.835.2s4.537,3.146,5.647,2.363,1.944-4.354-.076-7.607-5.674-4.976-7.641-4.741S2210.51-1371.514,2210.032-1371.452Z" fill="#ef515f"/>
                  <path id="Trazado_2744" data-name="Trazado 2744" d="M2229.98-1373.51c-.243-1.448-2.156-.446-2.156-.446a2.381,2.381,0,0,0-.863-2.751c-.574-.378-2.057.62-2.057.62s.711-2.18-.09-2.716-2.634-.007-2.634-.007-.542-.326-1.32-.715c-.737-.368-2.754.031-3.6.436-3,1.442-5.169,4.76-6.045,6.525l-.006.013a1.093,1.093,0,0,0,.67,1.544l.156.045a1.1,1.1,0,0,0,1.117-.314c1.777-1.927,5.191-4.606,5.693-4.429l1.312.464,0,0c-.116.2-4.468,7.9-3.778,8.861s1.188.987,2.228-.117a72.658,72.658,0,0,0,4.777-7.053s-2.833,7.914-2.3,8.616.863,1.014,1.813.424,3.559-7.048,3.559-7.048-1.519,7.988-.091,8.322S2230.221-1372.063,2229.98-1373.51Z" fill="#f7ab9d"/>
                  <path id="Trazado_2745" data-name="Trazado 2745" d="M2222.18-1378.81s-.544.221-2.02,3.569l-1.312-.464,2.012-3.82C2221.638-1379.136,2222.18-1378.81,2222.18-1378.81Z" fill="#f09087"/>
                </g>
              </g>
            </g>
            <g id="Grupo_4435" data-name="Grupo 4435">
              <g id="Grupo_4432" data-name="Grupo 4432">
                <path id="Trazado_2746" data-name="Trazado 2746" d="M2219.568-1464.386a76.349,76.349,0,0,1-4.425,10.294l-1.064-1.694-3.17-5.042-19.866-.35-1.874-.033s-4.619-5-4.811-7.409c-.191-2.369,2.513-8.19,2.594-8.363-.125.115-3.558,3.339-3.652,2.109-.1-1.25,4.04-5,4.04-5s-3.367-3.943-2.5-4.714,5.1,2.309,5.1,2.309a7.779,7.779,0,0,1,4.713-3.849c3.558-1.153,17.509.288,22.126,5.58S2221.685-1470.446,2219.568-1464.386Z" fill="#2f2d44"/>
                <path id="Trazado_2747" data-name="Trazado 2747" d="M2218.53-1466.773a83.593,83.593,0,0,1-4.451,10.987l-3.17-5.042-19.866-.35-3.542-4.185a9.977,9.977,0,0,1-1.467-5.134c.168-2.538,5.471-7.445,5.471-7.445s-.395-2.428.056-3.16,1.637-1.579,6.488-1.637,14.556,1.525,17.716,4.514S2219.545-1470.722,2218.53-1466.773Z" fill="#171826"/>
              </g>
              <g id="Grupo_4434" data-name="Grupo 4434">
                <g id="Grupo_4433" data-name="Grupo 4433">
                  <path id="Trazado_2748" data-name="Trazado 2748" d="M2203.635-1434.841s-1.636,15.058-.144,15.555,3.315-3.978,3.315-4.641.166-11.107.166-11.107Z" fill="#1967a5"/>
                  <path id="Trazado_2749" data-name="Trazado 2749" d="M2201.1-1447.365s-4.908,2.031-5.416,5.3c-.232,1.5-1.128,4.8-.62,6.6s4.513,8.463,4.513,8.463-.508-3.385.4-5.134,3.667-2.708,3.667-2.708,2.99,1.918,4.344,7.56c7.221-3.442,12.581-5.867,13.822-10.324s.79-6.375.4-7.729-3.893-3.95-5.3-4.57S2205.271-1449.9,2201.1-1447.365Z" fill="#3985c3"/>
                  <path id="Trazado_2750" data-name="Trazado 2750" d="M2197.825-1439.976a3.692,3.692,0,0,1,.507-3.892c1.523-2.087,7.672-5.19,10.493-5.416s8.124.508,8.237,2.878S2206.965-1435.011,2197.825-1439.976Z" fill="#1967a5"/>
                  <path id="Trazado_2751" data-name="Trazado 2751" d="M2216.724-1441.949c-1.974,2.369-9.421,6.6-13.089,7.108-2.765-.9-6.149-5.078-5.81-5.135s3.384-2.989,3.721-4.626a11.952,11.952,0,0,0-.321-1.431,17.582,17.582,0,0,0-1.821-4.1c-1.3-6.149,12.242-12.413,13.313-10.495.268.482.768,1.568,1.37,2.935,1.8,4.084,4.514,10.661,4.723,11C2219.093-1446.237,2218.7-1444.319,2216.724-1441.949Z" fill="#f09087"/>
                  <path id="Trazado_2752" data-name="Trazado 2752" d="M2214.087-1457.689c-.977,3.247-2.209,5.03-5.206,7.476a33.691,33.691,0,0,1-7.656,4.18,17.582,17.582,0,0,0-1.821-4.1c-1.3-6.149,12.242-12.413,13.313-10.495C2212.985-1460.142,2213.485-1459.056,2214.087-1457.689Z" fill="#ef515f"/>
                  <path id="Trazado_2753" data-name="Trazado 2753" d="M2200-1439.806c-.793.55,3.131,2.539,4.485,2.539s10.409-4.062,10.07-4.739-10.239,3.385-10.239,3.385S2201.1-1440.567,2200-1439.806Z" fill="#ef515f"/>
                </g>
              </g>
            </g>
            <g id="Grupo_4442" data-name="Grupo 4442">
              <g id="Grupo_4436" data-name="Grupo 4436">
                <path id="Trazado_2754" data-name="Trazado 2754" d="M2183.492-1464.312c0,1.581,2.108,5.271,4.253,6.109a6.875,6.875,0,0,0,3.173.6s-.039-.319-.126-.843c-.03-.184-.067-.4-.11-.63-.537-2.933-2.062-9.179-5.225-8.59C2183.774-1467.353,2183.492-1465.893,2183.492-1464.312Z" fill="#f09087"/>
              </g>
              <g id="Grupo_4437" data-name="Grupo 4437">
                <path id="Trazado_2755" data-name="Trazado 2755" d="M2219.586-1466.349c0,1.7-2.264,5.661-4.567,6.561a7.373,7.373,0,0,1-3.409.642s.042-.342.135-.905c.033-.2.072-.426.119-.677.577-3.15,2.215-9.858,5.612-9.226C2219.284-1469.616,2219.586-1468.048,2219.586-1466.349Z" fill="#f09087"/>
                <path id="Trazado_2756" data-name="Trazado 2756" d="M2218.167-1465.281s-.319-1.552-1.58-1.662c-1.342-.114-2.527,2.162-2.527,2.162s2.253-.386,2.45,1.352c.152,2.054-3.739,3.132-4.765,3.378.033-.2.072-.426.119-.677.691-.042,2.643-1.24,2.908-2.122.275-.926-.435-1.352-1.738-1.082.789-2.585,2.527-4.553,3.83-4.553C2219.016-1468.485,2218.167-1465.281,2218.167-1465.281Z" fill="#ef515f"/>
              </g>
              <g id="Grupo_4441" data-name="Grupo 4441">
                <path id="Trazado_2757" data-name="Trazado 2757" d="M2213.169-1469.087s-.031,1.059-.113,2.75c-.068,1.5-.181,3.507-.339,5.713-.311,4.315-2.933,6.544-5.978,8.406-2.77,1.691-9.932,5.134-13.429,3.16-2.948-1.665-4.774-13.607-5.312-18.759-.1-.956-.153-1.678-.161-2.058-.056-2.425,4.288-6.6,4.288-6.6a9.821,9.821,0,0,0,6.264,5.019C2202.9-1470.326,2213.169-1469.087,2213.169-1469.087Z" fill="#f7ab9d"/>
                <path id="Trazado_2758" data-name="Trazado 2758" d="M2213.169-1469.087s-.031,1.059-.113,2.75c-4.08-.467-14.323-1.742-16.925-3.086-3.272-1.694-4.062-3.612-4.062-3.612l-4.071,5.218c-.1-.956-.153-1.678-.161-2.058-.056-2.425,4.288-6.6,4.288-6.6a9.821,9.821,0,0,0,6.264,5.019C2202.9-1470.326,2213.169-1469.087,2213.169-1469.087Z" fill="#f09087"/>
                <path id="Trazado_2759" data-name="Trazado 2759" d="M2194.64-1456.4s1.661,1.592,4.9.816a6.33,6.33,0,0,0,4.775-4.866S2200.551-1455.809,2194.64-1456.4Z" fill="#ef515f"/>
                <g id="Grupo_4438" data-name="Grupo 4438">
                  <path id="Trazado_2760" data-name="Trazado 2760" d="M2195.906-1466.039s1.466,2.369,1.072,4.175a5.538,5.538,0,0,1-2.314,2.99S2196.357-1461.244,2195.906-1466.039Z" fill="#ef515f"/>
                  <path id="Trazado_2761" data-name="Trazado 2761" d="M2198.134-1459.354c-.2-.689-2.581.169-2.2.423S2198.346-1458.634,2198.134-1459.354Z" fill="#f09087"/>
                </g>
                <g id="Grupo_4439" data-name="Grupo 4439">
                  <path id="Trazado_2762" data-name="Trazado 2762" d="M2202.354-1464.49a1.536,1.536,0,0,0-.53-1.015l-.33-.213a1.534,1.534,0,0,0-.795-.141,1.527,1.527,0,0,0-1.015.53,1.55,1.55,0,0,0-.354,1.126,1.535,1.535,0,0,0,.53,1.014l.33.214a1.528,1.528,0,0,0,.8.14,1.526,1.526,0,0,0,1.015-.529A1.552,1.552,0,0,0,2202.354-1464.49Z" fill="#2f2d44"/>
                  <path id="Trazado_2763" data-name="Trazado 2763" d="M2198.515-1467.224a8.341,8.341,0,0,1,2.793-.508,23.026,23.026,0,0,1,2.834.466,3.362,3.362,0,0,0-3.088-1.693C2199.615-1468.932,2198.515-1467.224,2198.515-1467.224Z" fill="#2f2d44"/>
                </g>
                <g id="Grupo_4440" data-name="Grupo 4440">
                  <path id="Trazado_2764" data-name="Trazado 2764" d="M2193.638-1464.49a1.539,1.539,0,0,0-.53-1.015l-.33-.213a1.536,1.536,0,0,0-.8-.141,1.527,1.527,0,0,0-1.015.53,1.551,1.551,0,0,0-.354,1.126,1.535,1.535,0,0,0,.529,1.014l.331.214a1.526,1.526,0,0,0,.795.14,1.528,1.528,0,0,0,1.015-.529A1.551,1.551,0,0,0,2193.638-1464.49Z" fill="#2f2d44"/>
                  <path id="Trazado_2765" data-name="Trazado 2765" d="M2189.164-1466.928a8.322,8.322,0,0,1,2.793-.507,22.925,22.925,0,0,1,2.835.465,3.362,3.362,0,0,0-3.089-1.692C2190.264-1468.635,2189.164-1466.928,2189.164-1466.928Z" fill="#2f2d44"/>
                </g>
              </g>
            </g>
          </g>
        </g>
        <g id="Grupo_4445" data-name="Grupo 4445">
          <rect id="Rectángulo_2753" data-name="Rectángulo 2753" width="134.553" height="91.902" rx="6.599" transform="translate(2049.668 -1479.243)" fill="#cbebfb"/>
          <rect id="Rectángulo_2754" data-name="Rectángulo 2754" width="134.553" height="91.902" rx="6.599" transform="translate(2046.131 -1479.243)" fill="#fff"/>
          <path id="Trazado_2766" data-name="Trazado 2766" d="M2127.408-1433.4h-28.095a1.016,1.016,0,0,1-1.016-1.015h0a1.016,1.016,0,0,1,1.016-1.016h28.095a1.015,1.015,0,0,1,1.015,1.016h0A1.015,1.015,0,0,1,2127.408-1433.4Z" fill="#b6e4f9"/>
          <path id="Trazado_2767" data-name="Trazado 2767" d="M2127.408-1427.622h-28.095a1.016,1.016,0,0,1-1.016-1.016h0a1.016,1.016,0,0,1,1.016-1.015h28.095a1.015,1.015,0,0,1,1.015,1.015h0A1.015,1.015,0,0,1,2127.408-1427.622Z" fill="#b6e4f9"/>
          <path id="Trazado_2768" data-name="Trazado 2768" d="M2127.408-1445.249h-28.095a1.016,1.016,0,0,1-1.016-1.016h0a1.015,1.015,0,0,1,1.016-1.015h28.095a1.015,1.015,0,0,1,1.015,1.015h0A1.015,1.015,0,0,1,2127.408-1445.249Z" fill="#b6e4f9"/>
          <path id="Trazado_2769" data-name="Trazado 2769" d="M2127.408-1439.469h-28.095a1.016,1.016,0,0,1-1.016-1.016h0a1.015,1.015,0,0,1,1.016-1.015h28.095a1.015,1.015,0,0,1,1.015,1.015h0A1.015,1.015,0,0,1,2127.408-1439.469Z" fill="#b6e4f9"/>
          <path id="Trazado_2770" data-name="Trazado 2770" d="M2096.55-1412.644h0a3.131,3.131,0,0,1,3.132-3.131h23.525a3.131,3.131,0,0,1,3.131,3.131h0a3.131,3.131,0,0,1-3.131,3.131h-23.525A3.131,3.131,0,0,1,2096.55-1412.644Z" fill="#b6e4f9"/>
          <path id="Trazado_2771" data-name="Trazado 2771" d="M2122.677-1369.893s-4.438-17.912.074-41.9h-22.835c-2.553,7.927-9.447,29.31-8.131,44.7h48.309v-2.793Zm-15.525-10.98c-2.928,0-5.3-3.67-5.3-8.194s2.375-8.195,5.3-8.195,5.3,3.667,5.3,8.195S2110.08-1380.873,2107.152-1380.873Z" fill="#cbebfb"/>
          <path id="Trazado_2772" data-name="Trazado 2772" d="M2140.094-1369.893v2.793h-19.445c-6.187-13.326-1.989-38.16-.727-44.7h2.829c-4.512,23.99-.074,41.9-.074,41.9Z" fill="#b6e4f9"/>
        </g>
        <g id="Grupo_4446" data-name="Grupo 4446">
          <rect id="Rectángulo_2755" data-name="Rectángulo 2755" width="134.553" height="91.902" rx="6.599" transform="translate(1911.493 -1479.243)" fill="#cbebfb"/>
          <rect id="Rectángulo_2756" data-name="Rectángulo 2756" width="134.553" height="91.902" rx="6.599" transform="translate(1907.956 -1479.243)" fill="#fff"/>
          <path id="Trazado_2773" data-name="Trazado 2773" d="M1989.233-1433.4h-28.1a1.016,1.016,0,0,1-1.016-1.015h0a1.016,1.016,0,0,1,1.016-1.016h28.1a1.015,1.015,0,0,1,1.015,1.016h0A1.015,1.015,0,0,1,1989.233-1433.4Z" fill="#b6e4f9"/>
          <path id="Trazado_2774" data-name="Trazado 2774" d="M1989.233-1427.622h-28.1a1.016,1.016,0,0,1-1.016-1.016h0a1.016,1.016,0,0,1,1.016-1.015h28.1a1.015,1.015,0,0,1,1.015,1.015h0A1.015,1.015,0,0,1,1989.233-1427.622Z" fill="#b6e4f9"/>
          <path id="Trazado_2775" data-name="Trazado 2775" d="M1989.233-1445.249h-28.1a1.016,1.016,0,0,1-1.016-1.016h0a1.015,1.015,0,0,1,1.016-1.015h28.1a1.015,1.015,0,0,1,1.015,1.015h0A1.015,1.015,0,0,1,1989.233-1445.249Z" fill="#b6e4f9"/>
          <path id="Trazado_2776" data-name="Trazado 2776" d="M1989.233-1439.469h-28.1a1.016,1.016,0,0,1-1.016-1.016h0a1.015,1.015,0,0,1,1.016-1.015h28.1a1.015,1.015,0,0,1,1.015,1.015h0A1.015,1.015,0,0,1,1989.233-1439.469Z" fill="#b6e4f9"/>
          <path id="Trazado_2777" data-name="Trazado 2777" d="M1958.375-1412.644h0a3.131,3.131,0,0,1,3.132-3.131h23.525a3.131,3.131,0,0,1,3.131,3.131h0a3.131,3.131,0,0,1-3.131,3.131h-23.525A3.132,3.132,0,0,1,1958.375-1412.644Z" fill="#b6e4f9"/>
          <path id="Trazado_2778" data-name="Trazado 2778" d="M1984.5-1369.893s-4.438-17.912.074-41.9h-22.835c-2.553,7.927-9.447,29.31-8.131,44.7h48.309v-2.793Zm-15.525-10.98c-2.928,0-5.3-3.67-5.3-8.194s2.375-8.195,5.3-8.195,5.3,3.667,5.3,8.195S1971.905-1380.873,1968.977-1380.873Z" fill="#cbebfb"/>
          <path id="Trazado_2779" data-name="Trazado 2779" d="M2001.919-1369.893v2.793h-19.445c-6.188-13.326-1.989-38.16-.727-44.7h2.829c-4.512,23.99-.074,41.9-.074,41.9Z" fill="#b6e4f9"/>
        </g>
        <g id="Grupo_4448" data-name="Grupo 4448">
          <g id="Grupo_4447" data-name="Grupo 4447">
            <rect id="Rectángulo_2757" data-name="Rectángulo 2757" width="10.202" height="171.627" transform="translate(1867.198 -1367.114)" fill="#9f4835"/>
            <rect id="Rectángulo_2758" data-name="Rectángulo 2758" width="10.202" height="171.627" transform="translate(1974.581 -1367.114)" fill="#9f4835"/>
          </g>
          <path id="Trazado_2780" data-name="Trazado 2780" d="M2318.779-1367.114v171.627h-10.2v-161.425H2218.8v161.425h-10.2v-161.425H1867.2v-10.2Z" fill="#843528"/>
          <path id="Trazado_2781" data-name="Trazado 2781" d="M2217.269-1356.912v67.333h-50.348a10.542,10.542,0,0,1-10.542-10.542h0a24.145,24.145,0,0,0-24.145-24.145H1954.989a25.489,25.489,0,0,0-24.152,17.342v0a25.49,25.49,0,0,1-24.152,17.342H1867.2v-67.333Z" fill="#fff"/>
          <rect id="Rectángulo_2759" data-name="Rectángulo 2759" width="101.51" height="67.333" transform="translate(2217.269 -1356.912)" fill="#f9dea6"/>
        </g>
      </g>
      <g id="Grupo_4477" data-name="Grupo 4477">
        <g id="Grupo_4450" data-name="Grupo 4450">
          <path id="Trazado_2782" data-name="Trazado 2782" d="M2445.885-1244.457c-6.429,27.421-24.033,48.406-42.649,48.406H2277.652c-49.42-10.493-44.682-93.424-27.757-104.256a42.11,42.11,0,0,1,10.289-4.805,38.409,38.409,0,0,1,22.546-.273s.516-36.016,14.556-48.406c26.637-23.505,78.808-18.863,112.189-1.122,2.675,1.42,5.228,2.925,7.638,4.506C2449.609-1329.079,2452.318-1271.874,2445.885-1244.457Z" fill="#ef515f"/>
          <path id="Trazado_2783" data-name="Trazado 2783" d="M2401.882-1250.55c-20.988,17.265-64.992,27.421-102.9,14.9s-44.346-36.9-42.991-53.484c.67-8.233,2.512-13.13,4.2-15.973a38.409,38.409,0,0,1,22.546-.273s.516-36.016,14.556-48.406c20.469-18.062,56.013-19.5,86.524-11.153a44.342,44.342,0,0,1,32.634,43.67l-.007.318c-.339,15.571-7.108,15.91-7.108,15.91s4.4,2.706,10.154,11.847S2422.87-1267.811,2401.882-1250.55Z" fill="#d3333b"/>
          <path id="Trazado_2784" data-name="Trazado 2784" d="M2386.988-1219.407s-.508,17.771,14.724,15.74c16.3-2.173,39.6-31.48,38.081-64.991-3.046-7.109-8.754-1.563-15.74,10.662C2409.836-1233.116,2395.112-1234.639,2386.988-1219.407Z" fill="#f48f9c"/>
        </g>
        <g id="Grupo_4476" data-name="Grupo 4476">
          <g id="Grupo_4452" data-name="Grupo 4452">
            <path id="Trazado_2785" data-name="Trazado 2785" d="M2305.579-1338.052s-4.316,10.324-5.077,13.709-1.608,7.193-.254,9.563c9.816-2.708,15.909-4.739,15.909-4.739l7.362-13.709Z" fill="#f09087"/>
            <path id="Trazado_2786" data-name="Trazado 2786" d="M2301.235-1310.972s-4.4-7.108,1.918-12.186c7.155-5.749,15.12,2.031,13.766,7.334S2306.877-1304.766,2301.235-1310.972Z" fill="#f09087"/>
            <path id="Trazado_2787" data-name="Trazado 2787" d="M2317.483-1370.548c-3.857,1.433-13.787,28.821-16.025,37.275,10.2,2.984,20.639,7.212,20.639,7.212s8.7-13.677,8.7-26.607S2326.795-1374.006,2317.483-1370.548Z" fill="#f68e1e"/>
            <g id="Grupo_4451" data-name="Grupo 4451">
              <path id="Trazado_2788" data-name="Trazado 2788" d="M2309.81-1318.25l4.147,4.147a21.885,21.885,0,0,1,3.469-3.413,5.83,5.83,0,0,1,4.457.056c.9.564.988,1.693-.112,2.031a7.789,7.789,0,0,0-3.1,1.862c-.224.268-3.272,3.864-4.88,4.288s-6.347.169-6.347.169S2303.379-1316.219,2309.81-1318.25Z" fill="#ef515f"/>
              <path id="Trazado_2789" data-name="Trazado 2789" d="M2310.487-1306.4c-1.354.423-1.693-1.438-1.693-1.438a1.92,1.92,0,0,1-1.15.614,2.812,2.812,0,0,1-1.643-.275,3.1,3.1,0,0,1-.762,1.109c-.9.758-2.176.186-4.229-2.379a12.594,12.594,0,0,0,.931,5.5,1.385,1.385,0,0,1-.069,1.474.8.8,0,0,1-.946.133c-2.655-1.02-3.3-7.7-3.3-8.463,0-.372.651-.7,1.314-.949a11.994,11.994,0,0,1,1.39-.4l0,0,0,0a1.753,1.753,0,0,1,.765-1.859c1.1-.847,1.778-.424,1.778-.424a5.455,5.455,0,0,1,.591-2.624c.592-.676,2.625-.676,2.625-.676.337-1.016.759-2.117,1.945-2.453s1.777,1.267,1.777,1.267.422,2.54.677,4.739S2311.842-1306.826,2310.487-1306.4Z" fill="#f7ab9d"/>
              <path id="Trazado_2790" data-name="Trazado 2790" d="M2301.872-1301.8a8.292,8.292,0,0,1-1.426-2.122,18.791,18.791,0,0,1-1.507-7.157,11.994,11.994,0,0,1,1.39-.4c-.015.033-.1.347.681,2.7a12.594,12.594,0,0,0,.931,5.5A1.385,1.385,0,0,1,2301.872-1301.8Z" fill="#f09087"/>
              <path id="Trazado_2791" data-name="Trazado 2791" d="M2306-1307.5a3.1,3.1,0,0,1-.762,1.109c-.934-.811-2.046-2.594-2.143-6.5A11.065,11.065,0,0,0,2306-1307.5Z" fill="#f09087"/>
              <path id="Trazado_2792" data-name="Trazado 2792" d="M2308.794-1307.841a1.92,1.92,0,0,1-1.15.614,15.526,15.526,0,0,1-1.332-8.427C2306.764-1313.624,2308.794-1307.841,2308.794-1307.841Z" fill="#f09087"/>
            </g>
          </g>
          <g id="Grupo_4453" data-name="Grupo 4453">
            <path id="Trazado_2793" data-name="Trazado 2793" d="M2318.527-1259.266l-1.7,1.412a2,2,0,0,0-.705,1.781,69.614,69.614,0,0,1,0,7.9c-.085,2.539-2.86,8.476-3.2,11.607s1.2,7.207,2.724,10.422,5.416,5.382,5.416,5.382,2.962.169,3.724-.847C2322.842-1231.764,2321.319-1257.32,2318.527-1259.266Z" fill="#fff"/>
            <path id="Trazado_2794" data-name="Trazado 2794" d="M2334.69-1247.334c-1.354,2.453-2.878,11.592-3.638,15.994s-4.994,11.593-7.955,9.646c-1.38-.908-3.035-3.43-4.438-6.2-.387-.767-.755-1.553-1.094-2.331a22.971,22.971,0,0,1-1.915-6.108c-.255-3.3,3.132-10.409,3.216-13.709s-1.1-8.463-.339-9.225,8.039-5.923,8.039-5.923,1.966,3.6,4.1,7.9c.257.518.515,1.046.775,1.579C2334-1250.415,2335.389-1248.6,2334.69-1247.334Z" fill="#40405a"/>
            <path id="Trazado_2795" data-name="Trazado 2795" d="M2331.437-1255.712c-2.219,2.811-4.621,6.269-5.379,8.886-1.522,5.246-1.693,7.955-3.216,12.354a19.347,19.347,0,0,1-4.183,6.578c-.387-.767-.755-1.553-1.094-2.331a17.51,17.51,0,0,0,3.586-4.415c1.183-2.708,1.862-7.618,3.045-12.865.607-2.68,3.64-6.6,6.466-9.786C2330.919-1256.773,2331.177-1256.245,2331.437-1255.712Z" fill="#2f2d44"/>
            <path id="Trazado_2796" data-name="Trazado 2796" d="M2326.856-1249.4l8.08,6.027a1.908,1.908,0,0,0,2.9-.789h0a1.239,1.239,0,0,0-.48-1.53l-9.095-5.751a1.241,1.241,0,0,0-1.88.805h0A1.241,1.241,0,0,0,2326.856-1249.4Z" fill="#fff"/>
            <path id="Trazado_2797" data-name="Trazado 2797" d="M2322.117-1238.572l3.891,2.9,2.752,2.053a8.923,8.923,0,0,0,1.629,1.182,1.641,1.641,0,0,0,1.963-.617c1.252-2.024-3.047-3.863-4.293-4.66l-4.537-2.9a1.241,1.241,0,0,0-1.88.8A1.241,1.241,0,0,0,2322.117-1238.572Z" fill="#fff"/>
            <path id="Trazado_2798" data-name="Trazado 2798" d="M2323.922-1243.819l4.052,3.023,2.778,2.072c.679.507,1.488,1.389,2.394,1.172a1.443,1.443,0,0,0,.618-.312,1.684,1.684,0,0,0,.452-1.773c-.309-.917-1.528-1.57-2.308-2.064l-2.9-1.835-3.678-2.326a1.24,1.24,0,0,0-1.879.805A1.24,1.24,0,0,0,2323.922-1243.819Z" fill="#fff"/>
          </g>
          <g id="Grupo_4454" data-name="Grupo 4454">
            <path id="Trazado_2799" data-name="Trazado 2799" d="M2307.914-1195.319h-51.346a1.765,1.765,0,0,1-1.686-2.3c.1-.312.211-.641.339-.972.579-1.525,1.454-3.132,2.685-3.724a63.242,63.242,0,0,0,11.4-6.657,66.814,66.814,0,0,0,6.09-5.078c2.033-1.586,6.66-2.367,11.416-2.407.658-.006,1.321,0,1.977.025,5.4.184,10.531,1.311,11.77,3.285,1.714,2.729,4.573,10.2,6.173,14.556C2307.447-1196.643,2307.914-1195.319,2307.914-1195.319Z" fill="#40405a"/>
            <path id="Trazado_2800" data-name="Trazado 2800" d="M2288.788-1216.432c-3.385,3.93-7.621,8.432-10.8,10.393-5.52,3.415-8.542,3.969-11.523,10.72h-1.809a19.035,19.035,0,0,1,3.966-5.981c2.933-2.594,10.944-7.333,15.007-11.62,1.02-1.076,2.115-2.306,3.178-3.537C2287.469-1216.463,2288.132-1216.455,2288.788-1216.432Z" fill="#2f2d44"/>
            <path id="Trazado_2801" data-name="Trazado 2801" d="M2268.175-1206.991l4.7,3.208a1.329,1.329,0,0,0,1.6-.077h0a1.33,1.33,0,0,0-.027-2.065l-4.364-3.445a1.328,1.328,0,0,0-1.592-.042l-.336.238A1.329,1.329,0,0,0,2268.175-1206.991Z" fill="#fff"/>
            <path id="Trazado_2802" data-name="Trazado 2802" d="M2272.463-1210.15l4.7,3.208a1.33,1.33,0,0,0,1.6-.077h0a1.33,1.33,0,0,0-.027-2.066l-4.364-3.445a1.331,1.331,0,0,0-1.593-.041l-.335.238A1.329,1.329,0,0,0,2272.463-1210.15Z" fill="#fff"/>
            <path id="Trazado_2803" data-name="Trazado 2803" d="M2307.914-1195.319h-51.346a1.765,1.765,0,0,1-1.686-2.3c.1-.312.211-.641.339-.972h51.51C2307.447-1196.643,2307.914-1195.319,2307.914-1195.319Z" fill="#fff"/>
          </g>
          <g id="Grupo_4458" data-name="Grupo 4458">
            <g id="Grupo_4457" data-name="Grupo 4457">
              <g id="Grupo_4456" data-name="Grupo 4456">
                <path id="Trazado_2804" data-name="Trazado 2804" d="M2276.643-1213.694l4.617,3.151a1.308,1.308,0,0,0,1.573-.075h0a1.307,1.307,0,0,0-.026-2.03l-4.288-3.385a1.307,1.307,0,0,0-1.565-.04l-.329.233A1.307,1.307,0,0,0,2276.643-1213.694Z" fill="#fff"/>
                <path id="Trazado_2805" data-name="Trazado 2805" d="M2390.711-1333.313c-.113,12.525-.9,37.8-2.37,39.492s-64.089,2.145-65.894-.113,8.689-21.212,8.689-21.212a9.908,9.908,0,0,1-2.145-1.13c-.676-.564.791-2.933.791-2.933a8.172,8.172,0,0,1-2.482-1.015c-.339-.452,2.37-3.948,2.37-3.948s-8.351-28.66-9.593-32.159-4.06-12.523-2.594-14.217c1.026-1.183,6.762-3.945,10.113-5.5,1.439-.665,2.438-1.109,2.438-1.109s28.744-5.69,29.793-5.736a32.81,32.81,0,0,1,3.9,1.081c6.884,2.135,20.458,6.739,21.231,7.427C2385.972-1373.481,2390.823-1345.836,2390.711-1333.313Z" fill="#fcb912"/>
                <path id="Trazado_2806" data-name="Trazado 2806" d="M2363.726-1381.811c-2.239,4.836-7.075,11.7-16.723,12.821-10.263,1.2-16.469-3.744-19.407-7.057,1.439-.665,2.438-1.109,2.438-1.109s28.744-5.69,29.793-5.736A32.81,32.81,0,0,1,2363.726-1381.811Z" fill="#f68e1e"/>
                <g id="Grupo_4455" data-name="Grupo 4455">
                  <path id="Trazado_2807" data-name="Trazado 2807" d="M2333.167-1328.912l0-.036C2333.157-1328.936,2333.154-1328.925,2333.167-1328.912Z" fill="#fff"/>
                  <path id="Trazado_2808" data-name="Trazado 2808" d="M2373.1-1334.478c1.466-1.58-.212-15.7-3.258-17.39-1.524-.847-11.074,2.815-18.733,3.21s-18.62-.636-19.41.775c-1.58,2.82,1.239,13.447,2.138,14.61S2371.631-1332.9,2373.1-1334.478Z" fill="#f68e1e"/>
                </g>
              </g>
            </g>
          </g>
          <g id="Grupo_4459" data-name="Grupo 4459">
            <path id="Trazado_2809" data-name="Trazado 2809" d="M2386.875-1276.345c-3.538,7.312-15.663,7.552-28.2,7.45q-1.6-.012-3.2-.029c-3.966-.035-7.9-.048-11.554.176-16.188.993-48.235-6.276-47.242-5.284s6.276,50.88,11.232,77.971c-1.433-2.1-4.882-4.413-9.064-6.642q-.7-.367-1.416-.734a209.1,209.1,0,0,0-23.618-9.71l2.051-7.7s-8.368-63.606-8.368-65.588-2.033-17.6,9.985-18.958c15.6-1.757,61.156,7.9,61.156,7.9s8.291-.306,18.016-.5c1.046-.021,2.112-.041,3.184-.059,12.058-.194,25.137-.151,27.035.885C2390.509-1295.178,2391.83-1286.588,2386.875-1276.345Z" fill="#1a7db9"/>
            <path id="Trazado_2810" data-name="Trazado 2810" d="M2296.681-1274.033c-.241-.619-3.965-7.45-3.457-8.746s3.216,3.887,3.216,3.887,1.692-5.889,3.385-4.476S2296.681-1274.033,2296.681-1274.033Z" fill="#1a68a4"/>
            <path id="Trazado_2811" data-name="Trazado 2811" d="M2357.511-1281.342c-5.739.084-11.48-.362-17.208-.712s-11.47-.459-17.2-.77l-15.405-.836q-3.783-.207-7.565-.472a75.494,75.494,0,0,0-7.7-.467c-2.188.077-4.045.714-4.512,3.053-.408,2.048.146,4.236.47,6.259.805,5.024,1.55,10.059,2.308,15.091,1.543,10.23,3.1,20.455,4.578,30.7,1.29,8.919,2.346,17.874,3.576,26.8q-.7-.367-1.416-.734c-.773-4.43-1.607-8.853-2.359-13.288-1.008-5.94-1.954-11.891-2.905-17.841-1.7-10.635-3.3-21.289-4.943-31.935q-.6-3.9-1.173-7.8a30.291,30.291,0,0,1-.6-6.588,5.785,5.785,0,0,1,2.55-4.6c1.709-1.077,3.716-.947,5.647-.873,10.628.419,21.253.819,31.879,1.309,5.376.247,10.74.686,16.119.9,5.315.209,10.646.349,15.933.961A.937.937,0,0,1,2357.511-1281.342Z" fill="#1a68a4"/>
            <path id="Trazado_2812" data-name="Trazado 2812" d="M2359.84-1298.045c-.054.755-.1,1.51-.151,2.26-.27,4.463-.551,8.919-.727,13.385-.176,4.448-.229,8.893-.286,13.341,0,.054,0,.11,0,.164q-1.6-.012-3.2-.029c-.054-4.471.054-8.949.212-13.415.16-4.5.405-9.014.783-13.505.058-.709.12-1.426.183-2.142C2357.7-1298.007,2358.768-1298.027,2359.84-1298.045Z" fill="#1a68a4"/>
            <path id="Trazado_2813" data-name="Trazado 2813" d="M2279.345-1294.555c1.185,1.523-3.046,11.34-5.416,10.832s-4.4-8.293-3.723-10.324S2278.161-1296.078,2279.345-1294.555Z" fill="#1a68a4"/>
          </g>
          <g id="Grupo_4460" data-name="Grupo 4460">
            <path id="Trazado_2814" data-name="Trazado 2814" d="M2402.05-1275.769c-4.4,6.264-23.355,14.048-37.742,19.634s-25.9,16.078-25.9,16.078-5.078-.847-9.817-7.108c-2.4-3.173-3.193-7.863-3.392-11.72-.036-.691-.051-1.352-.054-1.974a40.722,40.722,0,0,1,.232-4.754c13.709-7.616,56.866-30.466,61.493-31.547a28.024,28.024,0,0,1,4.815-.74,17.61,17.61,0,0,1,2.76.059,12,12,0,0,1,8.108,4.132C2407.128-1288.463,2406.452-1282.031,2402.05-1275.769Z" fill="#3985c3"/>
            <path id="Trazado_2815" data-name="Trazado 2815" d="M2394.45-1297.841c-16.6,8.547-48.858,28.007-52.653,30.2-3.1,1.79-11.758,6.271-16.593,8.758-.036-.691-.051-1.352-.054-1.974a162.06,162.06,0,0,0,16.818-8.309c8.009-4.528,37.161-22.371,49.722-28.732A17.61,17.61,0,0,1,2394.45-1297.841Z" fill="#1a68a4"/>
          </g>
          <g id="Grupo_4463" data-name="Grupo 4463">
            <g id="Grupo_4461" data-name="Grupo 4461">
              <path id="Trazado_2816" data-name="Trazado 2816" d="M2407.3-1321.127c-.336,3.384-1.859,6.261-10.661,12.018s-32.666,8.123-32.666,8.123l-4.242-7.822,27.767-13.334-.775-4.043-1.594-8.312,16.757-5.924S2407.636-1324.511,2407.3-1321.127Z" fill="#f09087"/>
              <path id="Trazado_2817" data-name="Trazado 2817" d="M2400.7-1323.157c-6.6-2.033-13.2,1.015-13.2,1.015l-.775-4.043C2390.374-1326.672,2396.694-1326.493,2400.7-1323.157Z" fill="#ef515f"/>
              <path id="Trazado_2818" data-name="Trazado 2818" d="M2384.957-1374.384c-4.982-1.788-8.977,11.684-7.662,21.051s7.065,23.5,6.9,23,22.512-8.709,22.512-8.709S2393.6-1371.279,2384.957-1374.384Z" fill="#f68e1e"/>
            </g>
            <g id="Grupo_4462" data-name="Grupo 4462">
              <path id="Trazado_2819" data-name="Trazado 2819" d="M2362.436-1310.445a9.8,9.8,0,0,1,3.075,7.109c.085,4.654-8.716,3.3-11.594-1.354C2355.187-1310.36,2362.436-1310.445,2362.436-1310.445Z" fill="#f09087"/>
              <path id="Trazado_2820" data-name="Trazado 2820" d="M2343.48-1303.9c-.451.169-5.359.169-5.754.733s.677,3.046,5.134,2.821,4.908-2.821,4.908-2.821a14.987,14.987,0,0,0,3.949,1.41,6,6,0,0,0,3.78-.677s5.134,2.031,6.037,1.016.9-4.683-1.806-7.391-6.657-3.554-8.519-2.877S2343.932-1304.07,2343.48-1303.9Z" fill="#ef515f"/>
              <path id="Trazado_2821" data-name="Trazado 2821" d="M2362.436-1310.445c-.566-1.354-2.2.057-2.2.057a2.384,2.384,0,0,0-1.467-2.483c-.645-.237-1.861,1.072-1.861,1.072s.2-2.284-.707-2.623-2.566.591-2.566.591-.6-.193-1.448-.395c-.8-.191-2.675.657-3.4,1.243-2.6,2.087-3.95,5.812-4.4,7.73l0,.013a1.094,1.094,0,0,0,1,1.352l.162.008a1.1,1.1,0,0,0,1.017-.56c1.291-2.281,4.006-5.667,4.536-5.608l1.382.153,0,.005c-.066.224-2.553,8.707-1.663,9.488s1.383.691,2.144-.621a72.567,72.567,0,0,0,3.047-7.955s-.958,8.35-.282,8.914,1.071.791,1.861,0,1.862-7.673,1.862-7.673.339,8.124,1.806,8.124S2363-1309.09,2362.436-1310.445Z" fill="#f7ab9d"/>
              <path id="Trazado_2822" data-name="Trazado 2822" d="M2353.635-1313.831s-.479.34-1.155,3.936l-1.382-.153,1.089-4.178C2353.033-1314.024,2353.635-1313.831,2353.635-1313.831Z" fill="#f09087"/>
            </g>
          </g>
          <g id="Grupo_4464" data-name="Grupo 4464">
            <path id="Trazado_2823" data-name="Trazado 2823" d="M2261.321-1338.9l2.115-2.031,64.823.508,14.047,42.312-1.523,2.115Z" fill="#40405a"/>
            <path id="Trazado_2824" data-name="Trazado 2824" d="M2261.321-1338.9l65.5.254,13.963,42.651-65.161-1.946Z" fill="#40405a"/>
            <path id="Trazado_2825" data-name="Trazado 2825" d="M2340.783-1295.994h40.563v-3.582h-40.168Z" fill="#2f2d44"/>
            <path id="Trazado_2826" data-name="Trazado 2826" d="M2306.692-1312.5h-12.985a3.72,3.72,0,0,1-3.458-2.349h0a3.719,3.719,0,0,1,3.458-5.09h12.985a3.719,3.719,0,0,1,3.457,2.348h0A3.72,3.72,0,0,1,2306.692-1312.5Z" fill="#2f2d44"/>
          </g>
          <g id="Grupo_4475" data-name="Grupo 4475">
            <g id="Grupo_4465" data-name="Grupo 4465">
              <path id="Trazado_2827" data-name="Trazado 2827" d="M2359.827-1382.892s-4.058,11.237-15.946,11.051a20.346,20.346,0,0,1-13.847-5.315s5.035-2.239,5.734-4.336a15.778,15.778,0,0,0-.138-5.017c-.41-3.239-1.119-6.733-1.119-6.733l13.436-7.093s.346,2.336,1.025,5.109v0c.816,3.318,2.109,7.261,3.861,8.557A32.326,32.326,0,0,0,2359.827-1382.892Z" fill="#f09087"/>
              <path id="Trazado_2828" data-name="Trazado 2828" d="M2348.972-1395.226v0a16.954,16.954,0,0,1-5.224,5.678,15.6,15.6,0,0,1-8.118,3.037c-.41-3.239-1.119-6.733-1.119-6.733l13.436-7.093S2348.293-1398,2348.972-1395.226Z" fill="#ef515f"/>
            </g>
            <g id="Grupo_4474" data-name="Grupo 4474">
              <g id="Grupo_4466" data-name="Grupo 4466">
                <path id="Trazado_2829" data-name="Trazado 2829" d="M2320.3-1403.052c0,1.4,1.87,4.677,3.773,5.421a6.094,6.094,0,0,0,2.816.53s-.035-.282-.111-.747c-.027-.164-.06-.352-.1-.56-.477-2.6-1.83-8.144-4.637-7.621C2320.554-1405.751,2320.3-1404.455,2320.3-1403.052Z" fill="#f09087"/>
              </g>
              <g id="Grupo_4467" data-name="Grupo 4467">
                <path id="Trazado_2830" data-name="Trazado 2830" d="M2314.888-1411.731s13.652,11.114,42.876,7.785C2347.722-1413.367,2331.3-1421.943,2314.888-1411.731Z" fill="#2f2d44"/>
              </g>
              <path id="Trazado_2831" data-name="Trazado 2831" d="M2325.607-1402.2a12.726,12.726,0,0,1-2.877-2.877c-.847-1.411.112-6.939.112-6.939s-2.651,3.046-2.764,2.03,3.272-5.867,3.272-5.867-1.241-3.723-.62-4.231,1.692,1.692,1.692,1.692,2.031-4.795,6.544-5.246,18.5,2.877,21.044,8.8.169,12.693.112,12.863S2335.705-1397.853,2325.607-1402.2Z" fill="#9f4835"/>
              <g id="Grupo_4468" data-name="Grupo 4468">
                <path id="Trazado_2832" data-name="Trazado 2832" d="M2348.286-1404.4s-.062.8-.186,2.262c-.044.518-.1,1.12-.153,1.8a9.318,9.318,0,0,1-4.739,7.672c-3.609,2.257-7.333,4.063-12.072,3.951-3.767-.092-5.9-12.381-6.608-17.41-.186-1.3-.276-2.112-.276-2.112a16.736,16.736,0,0,0,3.951-4.626c3.5,3.723,14.553,2.144,14.553,2.144a4.887,4.887,0,0,0,.452,2.258c.566,1.354,2.821,1.239,2.821,1.239l.339,2.145Z" fill="#f7ab9d"/>
                <path id="Trazado_2833" data-name="Trazado 2833" d="M2348.286-1404.4s-.062.8-.186,2.262a6.921,6.921,0,0,1-1.026-.37c-1.637-.739-1.846-1.425-1.9-3.644-1.163.263-2.851.212-3.591-2.747-6.5,1.954-9.72.1-12.89-2.114a13.354,13.354,0,0,1-4.165,4.889c-.186-1.3-.276-2.112-.276-2.112a16.736,16.736,0,0,0,3.951-4.626c3.5,3.723,14.553,2.144,14.553,2.144a4.887,4.887,0,0,0,.452,2.258c.566,1.354,2.821,1.239,2.821,1.239l.339,2.145Z" fill="#f09087"/>
              </g>
              <g id="Grupo_4471" data-name="Grupo 4471">
                <g id="Grupo_4470" data-name="Grupo 4470">
                  <g id="Grupo_4469" data-name="Grupo 4469">
                    <path id="Trazado_2834" data-name="Trazado 2834" d="M2338.176-1403.182a1.536,1.536,0,0,0-.53-1.014l-.331-.214a1.523,1.523,0,0,0-.795-.14,1.523,1.523,0,0,0-1.014.529,1.547,1.547,0,0,0-.354,1.126,1.538,1.538,0,0,0,.529,1.015l.331.213a1.531,1.531,0,0,0,.795.141,1.53,1.53,0,0,0,1.015-.53A1.551,1.551,0,0,0,2338.176-1403.182Z" fill="#2f2d44"/>
                    <path id="Trazado_2835" data-name="Trazado 2835" d="M2329.459-1403.182a1.535,1.535,0,0,0-.529-1.014l-.331-.214a1.524,1.524,0,0,0-.8-.14,1.528,1.528,0,0,0-1.015.529,1.551,1.551,0,0,0-.354,1.126,1.539,1.539,0,0,0,.53,1.015l.331.213a1.532,1.532,0,0,0,.8.141,1.525,1.525,0,0,0,1.014-.53A1.55,1.55,0,0,0,2329.459-1403.182Z" fill="#2f2d44"/>
                    <path id="Trazado_2836" data-name="Trazado 2836" d="M2331.727-1404.731s1.467,2.37,1.072,4.175a5.538,5.538,0,0,1-2.313,2.99S2332.178-1399.935,2331.727-1404.731Z" fill="#ef515f"/>
                    <path id="Trazado_2837" data-name="Trazado 2837" d="M2330.461-1395.1s1.661,1.592,4.9.816a6.331,6.331,0,0,0,4.775-4.866S2336.372-1394.5,2330.461-1395.1Z" fill="#ef515f"/>
                    <path id="Trazado_2838" data-name="Trazado 2838" d="M2333.956-1398.046c-.2-.688-2.581.17-2.2.424S2334.167-1397.326,2333.956-1398.046Z" fill="#f09087"/>
                    <path id="Trazado_2839" data-name="Trazado 2839" d="M2334.478-1406.677a8.3,8.3,0,0,1,2.792-.508,23.091,23.091,0,0,1,2.835.465,3.362,3.362,0,0,0-3.089-1.692C2335.577-1408.385,2334.478-1406.677,2334.478-1406.677Z" fill="#2f2d44"/>
                    <path id="Trazado_2840" data-name="Trazado 2840" d="M2325.07-1406.381a8.338,8.338,0,0,1,2.793-.508,23.047,23.047,0,0,1,2.835.466,3.363,3.363,0,0,0-3.089-1.693C2326.17-1408.089,2325.07-1406.381,2325.07-1406.381Z" fill="#2f2d44"/>
                    <path id="Trazado_2841" data-name="Trazado 2841" d="M2336.38-1398.76c-.182,0-.368-.006-.558-.016a3.689,3.689,0,0,1-2.864-2.051,3.827,3.827,0,0,1-.13-3.722,3.088,3.088,0,0,1,2.009-1.341,8.954,8.954,0,0,1,5.662.467,2.426,2.426,0,0,1,1.171,1.595,4.18,4.18,0,0,1-.787,3.14C2340.013-1399.421,2338.463-1398.76,2336.38-1398.76Zm.568-6.486a7.413,7.413,0,0,0-1.878.219,2.368,2.368,0,0,0-1.463.916h0a2.949,2.949,0,0,0,.134,2.853,2.843,2.843,0,0,0,2.127,1.59c1.414.074,3.317-.127,4.278-1.526a3.343,3.343,0,0,0,.652-2.441,1.535,1.535,0,0,0-.753-1.017A7.038,7.038,0,0,0,2336.948-1405.246Z" fill="#2f2d44"/>
                    <path id="Trazado_2842" data-name="Trazado 2842" d="M2328.4-1398.76c-2.083,0-3.634-.661-4.5-1.928a4.185,4.185,0,0,1-.786-3.139,2.429,2.429,0,0,1,1.171-1.6,8.95,8.95,0,0,1,5.662-.467,3.088,3.088,0,0,1,2.009,1.341h0a3.824,3.824,0,0,1-.13,3.722,3.688,3.688,0,0,1-2.863,2.051C2328.767-1398.766,2328.58-1398.76,2328.4-1398.76Zm-.569-6.486a7.038,7.038,0,0,0-3.1.594,1.534,1.534,0,0,0-.753,1.018,3.345,3.345,0,0,0,.651,2.44c.961,1.4,2.853,1.6,4.28,1.526a2.842,2.842,0,0,0,2.126-1.589,2.949,2.949,0,0,0,.134-2.854h0a2.37,2.37,0,0,0-1.463-.916A7.414,7.414,0,0,0,2327.829-1405.246Z" fill="#2f2d44"/>
                    <path id="Trazado_2843" data-name="Trazado 2843" d="M2341.089-1403.546a.436.436,0,0,1-.41-.31.462.462,0,0,1,.3-.57c.053-.018.212-.071,8.155-1.035a.448.448,0,0,1,.5.389.445.445,0,0,1-.39.5c-3.061.373-7.723.947-8.017,1.007A.408.408,0,0,1,2341.089-1403.546Z" fill="#2f2d44"/>
                  </g>
                </g>
              </g>
              <g id="Grupo_4472" data-name="Grupo 4472">
                <path id="Trazado_2844" data-name="Trazado 2844" d="M2357.763-1403.947s-6.656-6.881-21.1-9.25c-14.27-2.342-21.6,1.375-21.776,1.464,1.466-3.27,6.654-5.639,6.654-5.639s.533-2.051,1.265-4.193a19.25,19.25,0,0,1,1.783-4.045c1.466-2.143,13.089-4.4,18.164-3.046s11.511,8.463,12.3,9.929c.413.768.146,2.678-.2,4.326-.317,1.5-.7,2.783-.7,2.783Z" fill="#40405a"/>
                <path id="Trazado_2845" data-name="Trazado 2845" d="M2354.856-1414.4c-.317,1.5-.7,2.783-.7,2.783a117.236,117.236,0,0,0-15.458-5.3,37.252,37.252,0,0,0-17.152-.451s.533-2.051,1.265-4.193a30.664,30.664,0,0,1,11.372-.661C2342.177-1421.139,2352.415-1415.737,2354.856-1414.4Z" fill="#2f2d44"/>
                <path id="Trazado_2846" data-name="Trazado 2846" d="M2341.629-1428.036c.677.508-1.862,2.37-2.764,2.483s-6.037-.508-6.206-1.072S2340.952-1428.543,2341.629-1428.036Z" fill="#2f2d44"/>
              </g>
              <g id="Grupo_4473" data-name="Grupo 4473">
                <path id="Trazado_2847" data-name="Trazado 2847" d="M2354.723-1404.717c0,1.7-2.264,5.661-4.568,6.562a7.385,7.385,0,0,1-3.408.642s.041-.342.134-.905c.033-.2.073-.426.119-.677.577-3.151,2.215-9.859,5.612-9.226C2354.42-1407.983,2354.723-1406.415,2354.723-1404.717Z" fill="#f7ab9d"/>
                <path id="Trazado_2848" data-name="Trazado 2848" d="M2353.3-1403.649s-.318-1.552-1.579-1.661c-1.343-.114-2.527,2.162-2.527,2.162s2.252-.387,2.45,1.351c.151,2.055-3.739,3.132-4.766,3.379.033-.2.073-.426.119-.677.691-.042,2.643-1.24,2.909-2.122.274-.926-.436-1.352-1.739-1.082.789-2.585,2.527-4.554,3.83-4.554C2354.153-1406.853,2353.3-1403.649,2353.3-1403.649Z" fill="#ef515f"/>
              </g>
            </g>
          </g>
        </g>
      </g>
      <g id="Grupo_4505" data-name="Grupo 4505">
        <g id="Grupo_4480" data-name="Grupo 4480">
          <g id="Grupo_4478" data-name="Grupo 4478">
            <path id="Trazado_2849" data-name="Trazado 2849" d="M2467.387-1310.266l11.757,27.015,11.588-10.156,7.683,2.214s-4.428,16.536-13.542,25-19.966-2.48-24.87-12.369C2452.191-1294.318,2459.275-1311.761,2467.387-1310.266Z" fill="#047a86"/>
          </g>
          <g id="Grupo_4479" data-name="Grupo 4479">
            <path id="Trazado_2850" data-name="Trazado 2850" d="M2493.68-1301.13s-3.249,4.573-3.759,6.953l-.51,2.381a11.519,11.519,0,0,0,4.417,1.254,4.746,4.746,0,0,0,2.55-.68s2.805.51,3.231.255,1.275-3.74,1.275-3.74Z" fill="#ef515f"/>
            <path id="Trazado_2851" data-name="Trazado 2851" d="M2499.757-1295.5s1.177-1.016,2.06-.86,4.487,4.377,4.045,4.846-2.721-.938-4.266-2.97c-.956.234-1.692.391-1.692.391Z" fill="#ef515f"/>
            <path id="Trazado_2852" data-name="Trazado 2852" d="M2502.221-1289.755c-.993-.117-3.089-4.337-3.089-4.337s.11,5.51-.772,5.041-2.317-7.034-2.317-7.034.551,7.62-.552,6.916-2.1-7.5-2.1-7.5-.148-1.37-.314-3a1.6,1.6,0,0,1,.6-1.46.452.452,0,0,1,.377-.114,2.3,2.3,0,0,1,1.875,1.993c1.876,0,1.986.7,2.428,2.228,1.324-.235,1.434.234,2.1,1.289S2503.214-1289.637,2502.221-1289.755Z" fill="#f7ab9d"/>
            <path id="Trazado_2853" data-name="Trazado 2853" d="M2491.51-1291.748a2.655,2.655,0,0,1-2.1-.048c-.986-.431-1.375-1.459-1.875-3.081-.358-1.164.51-4.251.51-4.591s.085-2.806.765-3.146,1.531,2.04,1.531,3.486a3.589,3.589,0,0,1-.022.377,4.567,4.567,0,0,0,1.6,4.084,2.165,2.165,0,0,1,.543.64A1.564,1.564,0,0,1,2491.51-1291.748Z" fill="#f7ab9d"/>
          </g>
        </g>
        <g id="Grupo_4481" data-name="Grupo 4481">
          <path id="Trazado_2854" data-name="Trazado 2854" d="M2581.2-1224.225l-9.62,12.454-8.838-5.568-10.309-6.494-9.156-5.769,12.737-14.15,6.343,4.917,8.684,6.733Z" fill="#f09087"/>
          <path id="Trazado_2855" data-name="Trazado 2855" d="M2562.359-1238.835c-2.54,3.869-6.32,9.572-9.924,15l-9.156-5.769,12.737-14.15Z" fill="#ef515f"/>
        </g>
        <g id="Grupo_4483" data-name="Grupo 4483">
          <path id="Trazado_2856" data-name="Trazado 2856" d="M2581.2-1224.225l-9.62,12.454-8.838-5.568c3.357-5.94,6.779-12.044,8.3-14.762Z" fill="#fff"/>
          <g id="Grupo_4482" data-name="Grupo 4482">
            <path id="Trazado_2857" data-name="Trazado 2857" d="M2619.335-1225.606s-3.376,2.837-8.373,7.03l-1.124.946c-2.146,1.8-4.54,3.815-7.067,5.935-5.914,4.969-12.537,10.531-18.3,15.368a9.986,9.986,0,0,1-2.477-2.286c-2.3-2.78-4.4-6.839-6.282-8.343-2.538-2.031-9.023-2.416-9.023-2.416s2.186-5.156,4.4-10.624c.164-.405.33-.814.494-1.224,1.226-3.046,2.413-6.079,3.19-8.265,2.72,2.047,14.914,5.463,17.347,5.583,1.671.084,4.41-.807,8.385-1.9,1.808-.5,3.875-1.033,6.214-1.537a18.632,18.632,0,0,1,9.5.377A13.624,13.624,0,0,1,2619.335-1225.606Z" fill="#2f2d44"/>
            <path id="Trazado_2858" data-name="Trazado 2858" d="M2610.962-1218.576l-1.124.946a17.208,17.208,0,0,0-4.93-2.385c-2.621-.512-14.043,3.583-16.068,3.934-2.539.438-14.38-2.932-17.747-3.915.164-.405.33-.814.494-1.224,3.791,1.007,14.255,3.728,17.072,3.807,3.459.1,14.517-5.16,17.928-3.619A33.371,33.371,0,0,1,2610.962-1218.576Z" fill="#2f2d44"/>
            <path id="Trazado_2859" data-name="Trazado 2859" d="M2619.335-1225.606l-34.863,29.279a9.986,9.986,0,0,1-2.477-2.286l34.225-28.347A13.624,13.624,0,0,1,2619.335-1225.606Z" fill="#fff"/>
            <path id="Trazado_2860" data-name="Trazado 2860" d="M2619.335-1225.606s-7.439,6.249-16.564,13.911c-3.67-5.84-3.207-10.961-2.262-14.105,1.808-.5,3.875-1.033,6.214-1.537a18.632,18.632,0,0,1,9.5.377A13.624,13.624,0,0,1,2619.335-1225.606Z" fill="#fff"/>
          </g>
        </g>
        <path id="Trazado_2861" data-name="Trazado 2861" d="M2445.075-1196.772s25.754,4.245,36.792-.283,44.715-37.641,44.715-37.641l18.679,10.754,13.585-20.942s-28.868-24.056-32.264-25.754S2447.056-1206.4,2445.075-1196.772Z" fill="#2f2d44"/>
        <g id="Grupo_4486" data-name="Grupo 4486">
          <g id="Grupo_4485" data-name="Grupo 4485">
            <g id="Grupo_4484" data-name="Grupo 4484">
              <path id="Trazado_2862" data-name="Trazado 2862" d="M2420.118-1233.071l3.232-18.024c-7.823-29.075-10.2-45.4-5.611-56.45,4.351-10.475,6.121-14.454,9.691-15.642a31.992,31.992,0,0,1,6.071-.941c4.555-.4,9.635-.505,9.635-.505s7.759,2.466,8.438,3.145c.415.415,6.164,3.688,10.612,6.674,2.831,1.9,5.134,3.688,5.2,4.548.17,2.211,2.55,15.984,2.721,17.685s3.06,8.5,4.081,13.092-6.573,17.733-6.912,18.243a58.54,58.54,0,0,0,2.619,7.33c3.255,8.351,8.374,20.845,8.374,20.845Z" fill="#02b8a6"/>
            </g>
          </g>
        </g>
        <path id="Trazado_2863" data-name="Trazado 2863" d="M2477.8-1272.891l1.376,2.955,48.1-13.667,8.344-52.469-3.571.51L2523.882-1287Z" fill="#2f2d44"/>
        <g id="Grupo_4490" data-name="Grupo 4490">
          <g id="Grupo_4487" data-name="Grupo 4487">
            <path id="Trazado_2864" data-name="Trazado 2864" d="M2561.807-1220.268l-10.748,10.477-14.436-13.926-8.09-7.8-7.833-7.555,12.409-16.728,9.469,12.846,6.973,8.228Z" fill="#f7ab9d"/>
            <path id="Trazado_2865" data-name="Trazado 2865" d="M2542.579-1242.957l-14.046,11.437-7.833-7.555,12.409-16.728Z" fill="#ef515f"/>
            <path id="Trazado_2866" data-name="Trazado 2866" d="M2561.807-1220.268l-10.747,10.477-14.436-13.925c2.8-2.439,9.681-8.269,12.928-11.013Z" fill="#fff"/>
          </g>
          <g id="Grupo_4488" data-name="Grupo 4488">
            <path id="Trazado_2867" data-name="Trazado 2867" d="M2540.11-1248.788s-5.427,4.777-12.227,10.626q-.869.75-1.765,1.515c-1.02.877-2.063,1.77-3.114,2.665-4.606-3.619-13.017-14.69-13.017-14.69s-.517.786-1.453,2.16c-5.7,8.384-26.951,38.714-41.647,47.192-17.109,9.87-37.837,5.922-44.417-5.593-3.591-6.287-3.964-14.1-3.558-19.9a51.473,51.473,0,0,1,1.206-8.256l28.673.192s53.345-49.583,60.254-46.951S2540.11-1248.788,2540.11-1248.788Z" fill="#40405a"/>
            <path id="Trazado_2868" data-name="Trazado 2868" d="M2527.883-1238.162q-.869.75-1.765,1.515c-4.843-4.423-21.323-21.633-23.236-23.331-6.121,2.678-11.477,8.926-28.056,28.565-10.88,12.888-19.123,18.581-24.729,20.756a10.537,10.537,0,0,1-12.069-3.162,6.42,6.42,0,0,1-.694-1.015s-5.228-8.545-5.611-18.109c11.477.128,17.068.064,17.068.064s2.826,10.962-6.267,16.586a1.99,1.99,0,0,0-.04,3.371c1.265.809,1.609.638,1.609.638s6.249,1.02,15.813-7.779,27.091-29.813,30.351-33.156c4.973-5.1,10.839-8.927,13.645-9.82C2509.98-1257.494,2524.04-1241.876,2527.883-1238.162Z" fill="#2f2d44"/>
            <path id="Trazado_2869" data-name="Trazado 2869" d="M2509.987-1248.672s-.517.786-1.453,2.16l-4.25-6.963Z" fill="#2f2d44"/>
            <path id="Trazado_2870" data-name="Trazado 2870" d="M2510.15-1277.037c-2.839-.568-5.939,1.839-5.769,3.54s11.251,5.672,11.931,3.8S2512.7-1276.527,2510.15-1277.037Z" fill="#2f2d44"/>
          </g>
          <g id="Grupo_4489" data-name="Grupo 4489">
            <path id="Trazado_2871" data-name="Trazado 2871" d="M2594.511-1206.8s-4.283,1.053-10.618,2.606l-1.426.352c-2.721.668-5.759,1.416-8.962,2.2-7.5,1.844-15.9,3.907-23.207,5.7a9.989,9.989,0,0,1-1.212-3.144c-.831-3.51-.925-8.08-1.948-10.261-1.38-2.943-7.027-6.154-7.027-6.154s4.239-3.66,8.644-7.585q.489-.437.984-.88c2.446-2.191,4.851-4.387,6.514-6,1.536,3.037,10.965,11.49,13.094,12.673,1.462.814,4.313,1.225,8.361,2,1.841.355,3.933.786,6.254,1.367a18.644,18.644,0,0,1,8.353,4.535A13.683,13.683,0,0,1,2594.511-1206.8Z" fill="#40405a"/>
            <path id="Trazado_2872" data-name="Trazado 2872" d="M2583.893-1204.194l-1.426.352a17.21,17.21,0,0,0-3.369-4.318c-2.125-1.617-14.181-2.992-16.152-3.571-2.472-.729-11.6-8.985-14.191-11.354q.489-.437.984-.88c2.956,2.578,11.141,9.643,13.633,10.959,3.06,1.615,15.3,1.785,17.682,4.675A33.3,33.3,0,0,1,2583.893-1204.194Z" fill="#2f2d44"/>
            <path id="Trazado_2873" data-name="Trazado 2873" d="M2594.511-1206.8l-44.213,10.859a9.989,9.989,0,0,1-1.212-3.144l43.229-10.307A13.683,13.683,0,0,1,2594.511-1206.8Z" fill="#fff"/>
            <path id="Trazado_2874" data-name="Trazado 2874" d="M2594.511-1206.8l-21.006,5.159c-.712-6.861,1.966-11.25,4.2-13.653,1.841.355,3.933.786,6.254,1.367a18.644,18.644,0,0,1,8.353,4.535A13.683,13.683,0,0,1,2594.511-1206.8Z" fill="#fff"/>
          </g>
        </g>
        <g id="Grupo_4493" data-name="Grupo 4493">
          <g id="Grupo_4491" data-name="Grupo 4491">
            <path id="Trazado_2875" data-name="Trazado 2875" d="M2473.508-1268.438a.051.051,0,0,1-.016.005,19.8,19.8,0,0,0-3.7,1.563c-25.135,14.286-47.373,13.878-50.487,10.763-3.321-3.32-8.513-18.037-8.3-36.283.3-25.561,13.9-33.121,16.928-29.234,4.208,5.413,4.415,39.905,4.415,39.905a17.736,17.736,0,0,0,2.846,1.661c1.186.474.3,2.492.3,2.492s23.319-2.377,29.9-4.683l0,0c2.775-.974,5.95,1.829,6.211,1.829l3.846,5.086S2478.114-1269.935,2473.508-1268.438Z" fill="#008ea6"/>
            <path id="Trazado_2876" data-name="Trazado 2876" d="M2473.508-1268.438c-1.87.171-4.249.171-7.652-5.27-3.333-5.335-.579-8.421-.467-8.541l0,0c2.775-.974,5.95,1.829,6.211,1.829l3.846,5.086S2478.114-1269.935,2473.508-1268.438Z" fill="#00818d"/>
            <path id="Trazado_2877" data-name="Trazado 2877" d="M2432.247-1277.567s-9.071,3.887-8.207,6.046,6.479-2.375,6.479-2.375-3.414,7.874-1.126,6.741C2434.571-1268.947,2432.247-1277.567,2432.247-1277.567Z" fill="#00818d"/>
          </g>
          <g id="Grupo_4492" data-name="Grupo 4492">
            <path id="Trazado_2878" data-name="Trazado 2878" d="M2491.609-1280.279c-.458,1.25-9.1-3.863-9.1-3.863s3.992,3.234,5.124,7.268a2.111,2.111,0,0,1,.114.832,1.654,1.654,0,0,1-.609,1.054s.71,2.023-.428,1.827c-.772-.133-3.741-2.742-5.576-4.412a1.4,1.4,0,0,0-2.225.468c-1.007,2.275-2.947,5.819-5.2,5.6-3.3-.325-5.727-2.513-3.807-6.87,0,0,4.71-10.451,7.062-11.333S2492.066-1281.529,2491.609-1280.279Z" fill="#f7ab9d"/>
            <path id="Trazado_2879" data-name="Trazado 2879" d="M2476.968-1289.71s.876-.778,3.235-.7,11.2.794,11.25,2.011-8.957,1.319-11.1.808S2476.327-1288.6,2476.968-1289.71Z" fill="#f7ab9d"/>
            <path id="Trazado_2880" data-name="Trazado 2880" d="M2487.142-1274.988s-4.018-4.391-5.7-6.215A11.261,11.261,0,0,1,2487.142-1274.988Z" fill="#ef515f"/>
          </g>
        </g>
        <g id="Grupo_4504" data-name="Grupo 4504">
          <g id="Grupo_4494" data-name="Grupo 4494">
            <path id="Trazado_2881" data-name="Trazado 2881" d="M2485.485-1336.96c-.676,1.064-1.74,10.439-4.155,17.012s-8.988,9.664-8.988,9.664l-1.617-2.928-10.658-19.3-6.088,14.209a89.084,89.084,0,0,1-11.133-11.23c-1.1-1.314-2.235-2.727-3.364-4.234,8.862-9.738,10.533-22.327,23.678-22.521s23.776,11.018,24.161,13.048S2485.485-1336.96,2485.485-1336.96Z" fill="#2f2d44"/>
            <path id="Trazado_2882" data-name="Trazado 2882" d="M2480.991-1327.694c-1.191,3.061-1.786,6.206-3.742,9.182-1.272,1.938-4.458,4.055-6.524,5.3l-10.658-19.3-6.088,14.209a89.084,89.084,0,0,1-11.133-11.23l8.559-9.891,12.2,3.188s14.41,1.232,20.277-1.721C2484.306-1333.942,2482.179-1330.754,2480.991-1327.694Z" fill="#171826"/>
            <path id="Trazado_2883" data-name="Trazado 2883" d="M2485.883-1339.47c-1.948,4.706-.654,9.944-1.083,14.853a12.705,12.705,0,0,1-2.263,6.693,7.548,7.548,0,0,1-2.811,2.3,18.937,18.937,0,0,1-3.26.827.189.189,0,0,0-.02.344c1.808.841,4.043-.256,5.492-1.391a10.447,10.447,0,0,0,3.476-5.7,25.247,25.247,0,0,0,.459-7.718,37.662,37.662,0,0,1,.3-10.109C2486.209-1339.535,2485.952-1339.637,2485.883-1339.47Z" fill="#2f2d44"/>
          </g>
          <g id="Grupo_4495" data-name="Grupo 4495">
            <path id="Trazado_2884" data-name="Trazado 2884" d="M2462.627-1311.286c0,4.59-6.121,17.514-10.373,14.282s-18.192-19.723-19.212-22.954a5.671,5.671,0,0,1,.459-4.17c4.555-.4,9.635-.505,9.635-.505s7.759,2.466,8.438,3.145c.415.415,6.164,3.688,10.612,6.674A16.362,16.362,0,0,1,2462.627-1311.286Z" fill="#008ea6"/>
            <path id="Trazado_2885" data-name="Trazado 2885" d="M2465.134-1324.825s-1.721,1.595-3.124,2.742c-.051.041-.1.084-.155.133-1.444,1.275-4.048,4.749-3.926,5.733a6.079,6.079,0,0,0,.572,2.681,4.587,4.587,0,0,1,.5,3.247c-.8,3.9-2.731,7-6.107,7.271-2.954.235-11.182-11.115-15.331-17.14a2.309,2.309,0,0,1,1.606-3.6,26.676,26.676,0,0,0,3.969-.879c3.755-1.11,10.049-5.244,13.8-7.858,1.856-1.3,3.093-2.217,3.093-2.217s3.061-1.53,4.017-.127S2465.134-1324.825,2465.134-1324.825Z" fill="#f09087"/>
            <path id="Trazado_2886" data-name="Trazado 2886" d="M2465.134-1324.825s-1.721,1.595-3.124,2.742c-.051.041-.1.084-.155.133a26.829,26.829,0,0,1-4.915-10.541c1.856-1.3,3.093-2.217,3.093-2.217s3.061-1.53,4.017-.127S2465.134-1324.825,2465.134-1324.825Z" fill="#ef515f"/>
            <path id="Trazado_2887" data-name="Trazado 2887" d="M2444.73-1313.6c0,1.254,12,4.119,12.179,2.686S2444.73-1314.854,2444.73-1313.6Z" fill="#ef515f"/>
          </g>
          <g id="Grupo_4503" data-name="Grupo 4503">
            <g id="Grupo_4496" data-name="Grupo 4496">
              <path id="Trazado_2888" data-name="Trazado 2888" d="M2478.609-1328.586a5.2,5.2,0,0,0,.222,2.994.938.938,0,0,1-.508,1.112,3.273,3.273,0,0,1-1.16.314,2.758,2.758,0,0,0-2.3,1.18c-1.444,1.725-3.589,3.872-4.627,4.007-3.315.424-7.694-5.017-8.459-6.611s.127-10.52,1.4-10.393,18.428-1.339,20.277-1.721a8.415,8.415,0,0,1-.332,1.923C2482.08-1332.216,2478.991-1330,2478.609-1328.586Z" fill="#f7ab9d"/>
            </g>
            <g id="Grupo_4498" data-name="Grupo 4498">
              <g id="Grupo_4497" data-name="Grupo 4497">
                <path id="Trazado_2889" data-name="Trazado 2889" d="M2459.013-1338.342c-.262,1.135-.649,3.99.51,5.228a5.87,5.87,0,0,0,2.732,1.493s.075-.224.184-.6c.038-.132.081-.285.127-.454.574-2.12,1.544-6.755-.745-7.368A2.081,2.081,0,0,0,2459.013-1338.342Z" fill="#f7ab9d"/>
                <path id="Trazado_2890" data-name="Trazado 2890" d="M2460.039-1337.6a.176.176,0,0,1-.3-.171c.267-.8.759-1.608,1.634-1.334,1.834.574,1.084,4.4,1.658,5.037-1.339-.574-2.295-.064-2.04.829a.91.91,0,0,1-.191-1.461,1.562,1.562,0,0,1,1.317-.324c-.111-1.492-.377-2.689-1.035-2.921A.912.912,0,0,0,2460.039-1337.6Z" fill="#ef515f"/>
                <path id="Trazado_2891" data-name="Trazado 2891" d="M2459.676-1335.48a2.479,2.479,0,0,0,1.314,2.239c-.144-.834-.191-1.461-.191-1.461s-.554.305-.878-.8A.125.125,0,0,0,2459.676-1335.48Z" fill="#ef515f"/>
              </g>
            </g>
            <g id="Grupo_4499" data-name="Grupo 4499">
              <path id="Trazado_2892" data-name="Trazado 2892" d="M2468.962-1327.479a4.642,4.642,0,0,0,1.232,3.373c1.225,1.053,3.35.613,3.35.613A8.077,8.077,0,0,1,2468.962-1327.479Z" fill="#ef515f"/>
              <path id="Trazado_2893" data-name="Trazado 2893" d="M2469.045-1322.465c.17-.6,1.956-.51,2.253.51S2468.875-1321.87,2469.045-1322.465Z" fill="#f09087"/>
            </g>
            <g id="Grupo_4501" data-name="Grupo 4501">
              <g id="Grupo_4500" data-name="Grupo 4500">
                <path id="Trazado_2894" data-name="Trazado 2894" d="M2477.273-1331.811a1.3,1.3,0,0,0-.879-.388,1.333,1.333,0,0,0-.924.358,1.3,1.3,0,0,0-.388.88,1.293,1.293,0,0,0,.358.924,1.3,1.3,0,0,0,.88.388,1.337,1.337,0,0,0,.924-.359,1.3,1.3,0,0,0,.388-.879A1.3,1.3,0,0,0,2477.273-1331.811Z" fill="#2f2d44"/>
              </g>
              <path id="Trazado_2895" data-name="Trazado 2895" d="M2474.911-1333.985a9.567,9.567,0,0,1,2.763.638,3.89,3.89,0,0,1,1.361,1.53,2.333,2.333,0,0,0-.851-2.3A3.158,3.158,0,0,0,2474.911-1333.985Z" fill="#2f2d44"/>
            </g>
            <g id="Grupo_4502" data-name="Grupo 4502">
              <path id="Trazado_2896" data-name="Trazado 2896" d="M2477.8-1325.441c.114-.071-2-.722-2.125-.255S2477.462-1325.228,2477.8-1325.441Z" fill="#f09087"/>
            </g>
          </g>
        </g>
      </g>
      <rect id="Rectángulo_2760" data-name="Rectángulo 2760" width="805.697" height="3.252" transform="translate(1823.659 -1196.63)" fill="#e2b17f"/>
    </g>
  </g>
</svg>
