<svg xmlns="http://www.w3.org/2000/svg" width="93.606" height="72.144" viewBox="0 0 93.606 72.144">
  <g id="Grupo_13500" data-name="Grupo 13500" transform="translate(-178.394 -710.516)">
    <line id="Línea_416" data-name="Línea 416" y2="68.144" transform="translate(270 712.516)" fill="none" stroke="#a4dbf5" stroke-linecap="round" stroke-miterlimit="10" stroke-width="4"/>
    <g id="Grupo_12632" data-name="Grupo 12632">
      <path id="Trazado_5679" data-name="Trazado 5679" d="M212.4,773.745a7.868,7.868,0,0,1-2-3.985H187.084a2.9,2.9,0,0,1-2.9-2.9V726.312h57.931v33.31h2.9a8.6,8.6,0,0,1,2.9.533V720.519a8.7,8.7,0,0,0-8.69-8.689H187.084a8.7,8.7,0,0,0-8.69,8.689v46.344a8.7,8.7,0,0,0,8.69,8.69h27Z" fill="#a4dbf5"/>
      <path id="Trazado_5680" data-name="Trazado 5680" d="M245.014,765.415H230.531V757.45a2.172,2.172,0,0,0-3.76-1.483l-10.137,10.862a2.17,2.17,0,0,0,0,2.963l10.137,10.862a2.171,2.171,0,0,0,3.76-1.481v-7.965h14.483a2.9,2.9,0,1,0,0-5.793Z" fill="#a4dbf5"/>
      <path id="Trazado_5681" data-name="Trazado 5681" d="M218.714,748.192a9.4,9.4,0,0,1-6.671,2.749l-12.655-.02a9.371,9.371,0,0,1-9.4-9.413,9.656,9.656,0,0,1,9.4-9.391l2.294,0a2.172,2.172,0,0,1,0,4.345h-2.294a5.189,5.189,0,0,0-5.058,5.034,5.025,5.025,0,0,0,5.044,5.081l12.666.02a5.05,5.05,0,0,0,5.046-4.556,2.171,2.171,0,0,1,4.321.435,9.373,9.373,0,0,1-2.7,5.714Z" fill="#a4dbf5"/>
      <path id="Trazado_5682" data-name="Trazado 5682" d="M233.57,748.184a9.312,9.312,0,0,1-6.668,2.749l-2.2,0a2.174,2.174,0,0,1,.006-4.348l2.209,0a5.059,5.059,0,1,0,.013-10.117l-12.67-.018A5.208,5.208,0,0,0,209.216,741a2.172,2.172,0,0,1-4.325-.415,9.677,9.677,0,0,1,9.371-8.478l12.654.021a9.415,9.415,0,0,1,6.654,16.058Z" fill="#a4dbf5"/>
    </g>
  </g>
</svg>
