<svg xmlns="http://www.w3.org/2000/svg" width="102.355" height="103.172" viewBox="0 0 102.355 103.172">
  <g id="Grupo_12646" data-name="Grupo 12646" transform="translate(2847.553 -3707.345)">
    <path id="Trazado_5704" data-name="Trazado 5704" d="M-2763.941,3800.137h-51.88a4.928,4.928,0,0,1-4.929-4.929v-81.423a4.929,4.929,0,0,1,4.929-4.929h51.88a4.929,4.929,0,0,1,4.929,4.929v81.423a4.929,4.929,0,0,1-4.929,4.929Zm0,0" fill="#33bdb0"/>
    <path id="Trazado_5705" data-name="Trazado 5705" d="M-2763.941,3708.856h-9.722a4.93,4.93,0,0,1,4.929,4.929v81.423a4.93,4.93,0,0,1-4.929,4.93h9.722a4.93,4.93,0,0,0,4.929-4.93v-81.423a4.929,4.929,0,0,0-4.929-4.929Zm0,0" fill="#00ad9c"/>
    <rect id="Rect치ngulo_3244" data-name="Rect치ngulo 3244" width="61.739" height="70.571" transform="translate(-2820.75 3719.291)" fill="#ffca7d"/>
    <rect id="Rect치ngulo_3245" data-name="Rect치ngulo 3245" width="9.723" height="70.571" transform="translate(-2768.734 3719.291)" fill="#ffb951"/>
    <path id="Trazado_5706" data-name="Trazado 5706" d="M-2794.782,3772.53h-46.359a4.9,4.9,0,0,1-4.9-4.9v-32.248a4.9,4.9,0,0,1,4.9-4.9h46.359a4.9,4.9,0,0,1,4.9,4.9v32.248a4.9,4.9,0,0,1-4.9,4.9Zm0,0" fill="#fff"/>
    <path id="Trazado_5707" data-name="Trazado 5707" d="M-2794.782,3730.48h-5.914v42.05h5.914a4.9,4.9,0,0,0,4.9-4.9v-32.248a4.9,4.9,0,0,0-4.9-4.9Zm0,0" fill="#e6e6e6"/>
    <path id="Trazado_5708" data-name="Trazado 5708" d="M-2836.57,3752.321l7.438-4.865a.735.735,0,0,1,.424-.113,1.491,1.491,0,0,1,1.358,1.414.99.99,0,0,1-.424.82l-5.94,3.9,5.94,3.9a.921.921,0,0,1,.424.821,1.463,1.463,0,0,1-1.358,1.385.735.735,0,0,1-.424-.113l-7.438-4.865a1.417,1.417,0,0,1-.623-1.131,1.465,1.465,0,0,1,.623-1.16Zm0,0" fill="#4d4d4d"/>
    <path id="Trazado_5709" data-name="Trazado 5709" d="M-2811.624,3740.611a.829.829,0,0,1-.114.453l-10.38,20.705a1.027,1.027,0,0,1-.933.537,1.094,1.094,0,0,1-1.1-1.046,1.152,1.152,0,0,1,.085-.425l10.409-20.789a.86.86,0,0,1,.848-.509,1.154,1.154,0,0,1,1.189,1.074Zm0,0" fill="#4d4d4d"/>
    <path id="Trazado_5710" data-name="Trazado 5710" d="M-2799.236,3754.612l-7.44,4.865a.647.647,0,0,1-.4.114,1.442,1.442,0,0,1-1.358-1.386.968.968,0,0,1,.4-.821l5.968-3.9-5.968-3.9a1.047,1.047,0,0,1-.4-.82,1.467,1.467,0,0,1,1.358-1.414.646.646,0,0,1,.4.113l7.44,4.864a1.47,1.47,0,0,1,.622,1.161,1.346,1.346,0,0,1-.622,1.13Zm0,0" fill="#4d4d4d"/>
    <path id="Trazado_5711" data-name="Trazado 5711" d="M-2767.377,3809.006a2.707,2.707,0,0,1-2.7-2.705v-.861a.937.937,0,0,0-.668-.9,15.554,15.554,0,0,1-3.208-1.313.892.892,0,0,0-.432-.11.951.951,0,0,0-.669.278l-.6.6a2.69,2.69,0,0,1-1.912.792,2.685,2.685,0,0,1-1.912-.793l-1.47-1.469a2.688,2.688,0,0,1-.792-1.912,2.69,2.69,0,0,1,.792-1.912l.6-.6a.936.936,0,0,0,.168-1.1,15.61,15.61,0,0,1-1.313-3.207.935.935,0,0,0-.9-.667h-.862a2.707,2.707,0,0,1-2.7-2.7v-2.078a2.707,2.707,0,0,1,2.7-2.7h.935a.947.947,0,0,0,.907-.657,15.487,15.487,0,0,1,1.326-3.106.938.938,0,0,0-.16-1.117l-.7-.7a2.682,2.682,0,0,1-.792-1.912,2.689,2.689,0,0,1,.792-1.912l1.47-1.469a2.684,2.684,0,0,1,1.912-.792,2.684,2.684,0,0,1,1.912.792l.776.777a.954.954,0,0,0,.668.277.9.9,0,0,0,.428-.107,15.612,15.612,0,0,1,3.034-1.22.939.939,0,0,0,.672-.9v-1.135a2.706,2.706,0,0,1,2.7-2.7h2.078a2.707,2.707,0,0,1,2.7,2.7v1.214a.939.939,0,0,0,.655.9A15.621,15.621,0,0,1-2759,3775.8a.914.914,0,0,0,.443.114.938.938,0,0,0,.666-.277l.871-.87a2.685,2.685,0,0,1,1.912-.792,2.682,2.682,0,0,1,1.912.792l1.469,1.468a2.707,2.707,0,0,1,0,3.825l-.87.871a.94.94,0,0,0-.164,1.11,15.53,15.53,0,0,1,1.234,2.941.938.938,0,0,0,.9.656h1.214a2.707,2.707,0,0,1,2.7,2.7v2.077a2.707,2.707,0,0,1-2.7,2.705h-1.135a.935.935,0,0,0-.9.67,15.661,15.661,0,0,1-1.221,3.035.939.939,0,0,0,.171,1.095l.776.777a2.685,2.685,0,0,1,.792,1.912,2.683,2.683,0,0,1-.792,1.912l-1.469,1.469a2.683,2.683,0,0,1-1.912.793,2.686,2.686,0,0,1-1.912-.793l-.7-.7a.942.942,0,0,0-.668-.277.906.906,0,0,0-.449.118,15.6,15.6,0,0,1-3.106,1.325.948.948,0,0,0-.658.907v.934a2.707,2.707,0,0,1-2.7,2.705Zm1.039-25.984a6.363,6.363,0,0,0-6.356,6.356,6.363,6.363,0,0,0,6.356,6.356,6.363,6.363,0,0,0,6.356-6.356,6.363,6.363,0,0,0-6.356-6.356Zm0,0" fill="#fd715c"/>
    <path id="Trazado_5712" data-name="Trazado 5712" d="M-2788.37,3767.629v-32.248a6.419,6.419,0,0,0-6.412-6.412h-46.359a6.419,6.419,0,0,0-6.412,6.412v32.248a6.419,6.419,0,0,0,6.412,6.412h46.359a6.419,6.419,0,0,0,6.412-6.412Zm-56.161,0v-32.248a3.394,3.394,0,0,1,3.39-3.39h46.359a3.394,3.394,0,0,1,3.39,3.39v32.248a3.393,3.393,0,0,1-3.39,3.389h-46.359a3.393,3.393,0,0,1-3.39-3.389Zm0,0" fill="#4d4d4d"/>
    <path id="Trazado_5713" data-name="Trazado 5713" d="M-2766.338,3781.511a7.876,7.876,0,0,0-7.867,7.867c0,.112,0,.224.007.335,0,.049-.007.1-.007.148a1.513,1.513,0,0,0,.046.372,7.879,7.879,0,0,0,7.821,7.012,7.876,7.876,0,0,0,7.867-7.867,7.876,7.876,0,0,0-7.867-7.867Zm0,3.023a4.853,4.853,0,0,1,4.735,3.816h-9.469a4.851,4.851,0,0,1,4.734-3.816Zm0,9.689a4.854,4.854,0,0,1-4.415-2.851h8.83a4.852,4.852,0,0,1-4.415,2.851Zm0,0" fill="#4d4d4d"/>
    <path id="Trazado_5714" data-name="Trazado 5714" d="M-2749.414,3784.124h-.8a17.045,17.045,0,0,0-1.017-2.426l.573-.572a4.188,4.188,0,0,0,1.233-2.981,4.191,4.191,0,0,0-1.233-2.981l-1.469-1.468a4.19,4.19,0,0,0-2.981-1.235,4.188,4.188,0,0,0-2.4.745v-59.421a6.448,6.448,0,0,0-6.441-6.44h-51.88a6.448,6.448,0,0,0-6.441,6.44v10.65a1.511,1.511,0,0,0,1.512,1.511,1.512,1.512,0,0,0,1.511-1.511V3720.8h58.716v52.647c-.186-.07-.372-.135-.56-.2v-.8a4.22,4.22,0,0,0-4.216-4.216h-2.078a4.22,4.22,0,0,0-4.215,4.216v.71a17.072,17.072,0,0,0-2.516,1.013l-.481-.481a4.184,4.184,0,0,0-2.981-1.235,4.185,4.185,0,0,0-2.981,1.235l-1.469,1.468a4.189,4.189,0,0,0-1.235,2.981,4.188,4.188,0,0,0,1.235,2.981l.4.4a17.159,17.159,0,0,0-1.11,2.6h-.527a4.219,4.219,0,0,0-4.215,4.215v.01h-31.762v-9.774a1.511,1.511,0,0,0-1.511-1.511,1.511,1.511,0,0,0-1.512,1.511v16.633a6.448,6.448,0,0,0,6.441,6.441h32.7a4.188,4.188,0,0,0,1.106,1.941l1.469,1.47a4.191,4.191,0,0,0,2.981,1.235,4.191,4.191,0,0,0,2.981-1.235l.3-.3a17.08,17.08,0,0,0,2.7,1.1v.44a4.22,4.22,0,0,0,4.215,4.216h2.078a4.221,4.221,0,0,0,4.216-4.216v-.526a17.081,17.081,0,0,0,2.6-1.11l.4.4a4.185,4.185,0,0,0,2.981,1.235,4.187,4.187,0,0,0,2.981-1.235l1.469-1.469a4.189,4.189,0,0,0,1.235-2.981,4.193,4.193,0,0,0-1.235-2.981l-.483-.482a16.986,16.986,0,0,0,1.013-2.515h.711a4.22,4.22,0,0,0,4.216-4.215v-2.078a4.22,4.22,0,0,0-4.216-4.215Zm-69.825-66.346v-3.993a3.421,3.421,0,0,1,3.418-3.417h51.88a3.421,3.421,0,0,1,3.418,3.417v3.993Zm0,77.43v-3.836h31.871a4.223,4.223,0,0,0,4.106,3.26h.441a17.078,17.078,0,0,0,1.1,2.695l-.3.3a4.245,4.245,0,0,0-.741,1h-33.06a3.421,3.421,0,0,1-3.418-3.418Zm71.018-4.791a1.193,1.193,0,0,1-1.193,1.192h-1.135a2.454,2.454,0,0,0-2.355,1.769,14.015,14.015,0,0,1-1.1,2.739,2.463,2.463,0,0,0,.438,2.873l.776.776a1.173,1.173,0,0,1,.349.844,1.169,1.169,0,0,1-.348.844l-1.469,1.469a1.17,1.17,0,0,1-.844.349,1.171,1.171,0,0,1-.844-.349l-.7-.7a2.443,2.443,0,0,0-1.737-.72,2.44,2.44,0,0,0-1.189.311,13.968,13.968,0,0,1-2.8,1.2,2.469,2.469,0,0,0-1.73,2.353v.935a1.194,1.194,0,0,1-1.193,1.193h-2.078a1.194,1.194,0,0,1-1.193-1.193v-.862a2.45,2.45,0,0,0-1.766-2.357,14.038,14.038,0,0,1-2.9-1.186,2.426,2.426,0,0,0-1.157-.295,2.475,2.475,0,0,0-1.738.721l-.6.6a1.166,1.166,0,0,1-.844.349,1.169,1.169,0,0,1-.843-.348l-1.47-1.47a1.169,1.169,0,0,1-.348-.843c0-.052,0-.1.008-.153s.016-.078.021-.118a1.177,1.177,0,0,1,.319-.573l.6-.6a2.456,2.456,0,0,0,.425-2.9,14.163,14.163,0,0,1-1.185-2.894,2.452,2.452,0,0,0-2.358-1.767h-.861a1.194,1.194,0,0,1-1.193-1.193v-2.078a1.2,1.2,0,0,1,1.193-1.193h.935a2.468,2.468,0,0,0,2.353-1.73,14,14,0,0,1,1.2-2.8,2.454,2.454,0,0,0-.408-2.927l-.7-.7a1.169,1.169,0,0,1-.348-.843,1.173,1.173,0,0,1,.348-.844l1.47-1.469a1.167,1.167,0,0,1,.844-.349,1.166,1.166,0,0,1,.843.349l.777.776a2.47,2.47,0,0,0,1.736.721,2.4,2.4,0,0,0,1.137-.283,14.132,14.132,0,0,1,2.738-1.1,2.453,2.453,0,0,0,1.77-2.355v-1.135a1.193,1.193,0,0,1,1.192-1.193h2.078a1.193,1.193,0,0,1,1.193,1.193v1.214a2.461,2.461,0,0,0,1.728,2.343,13.956,13.956,0,0,1,2.611,1.09l.077.041a2.444,2.444,0,0,0,1.135.282,2.438,2.438,0,0,0,1.735-.72l.871-.871a1.168,1.168,0,0,1,.844-.349,1.172,1.172,0,0,1,.844.349l1.469,1.469a1.189,1.189,0,0,1,.347.844,1.183,1.183,0,0,1-.347.843l-.871.871a2.461,2.461,0,0,0-.421,2.9,14.1,14.1,0,0,1,1.113,2.654,2.46,2.46,0,0,0,2.343,1.729h1.214a1.194,1.194,0,0,1,1.193,1.192Zm0,0" fill="#4d4d4d"/>
  </g>
</svg>
