<svg xmlns="http://www.w3.org/2000/svg" width="90.709" height="72.144" viewBox="0 0 90.709 72.144">
  <g id="Grupo_13497" data-name="Grupo 13497" transform="translate(2857.109 -1981.642)">
    <line id="Línea_426" data-name="Línea 426" y2="68.144" transform="translate(-2768.4 1983.642)" fill="none" stroke="#a4dbf5" stroke-linecap="round" stroke-miterlimit="10" stroke-width="4"/>
    <g id="Grupo_12657" data-name="Grupo 12657">
      <path id="Trazado_5725" data-name="Trazado 5725" d="M-2802.076,1991.646h-11.586v-.724a7.971,7.971,0,0,0-7.965-7.966h-27.517a7.971,7.971,0,0,0-7.965,7.966v44.9a7.971,7.971,0,0,0,7.965,7.966h6.517a8.7,8.7,0,0,0,8.69,8.689h31.861a8.7,8.7,0,0,0,8.69-8.689v-43.448a8.7,8.7,0,0,0-8.69-8.689Zm2.9,52.137a2.9,2.9,0,0,1-2.9,2.9h-31.861a2.9,2.9,0,0,1-2.9-2.9v-43.448a2.9,2.9,0,0,1,2.9-2.9h31.861a2.9,2.9,0,0,1,2.9,2.9Z" fill="#a4dbf5"/>
      <path id="Trazado_5726" data-name="Trazado 5726" d="M-2830.316,2018.438h10.137a2.173,2.173,0,0,0,2.173-2.172v-10.138a2.173,2.173,0,0,0-2.173-2.172h-10.137a2.173,2.173,0,0,0-2.173,2.172v10.138a2.173,2.173,0,0,0,2.173,2.172Z" fill="#a4dbf5"/>
      <path id="Trazado_5727" data-name="Trazado 5727" d="M-2804.972,2012.645h-6.517a2.9,2.9,0,0,0-2.9,2.9,2.9,2.9,0,0,0,2.9,2.9h6.517a2.9,2.9,0,0,0,2.9-2.9,2.9,2.9,0,0,0-2.9-2.9Z" fill="#a4dbf5"/>
      <path id="Trazado_5728" data-name="Trazado 5728" d="M-2804.972,2003.956h-6.517a2.9,2.9,0,0,0-2.9,2.9,2.9,2.9,0,0,0,2.9,2.9h6.517a2.9,2.9,0,0,0,2.9-2.9,2.9,2.9,0,0,0-2.9-2.9Z" fill="#a4dbf5"/>
      <path id="Trazado_5729" data-name="Trazado 5729" d="M-2805.7,2035.817h-24.62a2.9,2.9,0,0,0-2.9,2.9,2.9,2.9,0,0,0,2.9,2.9h24.62a2.9,2.9,0,0,0,2.9-2.9,2.9,2.9,0,0,0-2.9-2.9Z" fill="#a4dbf5"/>
      <path id="Trazado_5730" data-name="Trazado 5730" d="M-2805.7,2024.231h-24.62a2.9,2.9,0,0,0-2.9,2.9,2.9,2.9,0,0,0,2.9,2.9h24.62a2.9,2.9,0,0,0,2.9-2.9,2.9,2.9,0,0,0-2.9-2.9Z" fill="#a4dbf5"/>
    </g>
  </g>
</svg>
