<svg xmlns="http://www.w3.org/2000/svg" width="93.606" height="72.144" viewBox="0 0 93.606 72.144">
  <g id="Grupo_13501" data-name="Grupo 13501" transform="translate(-178.394 -951.926)">
    <line id="Línea_417" data-name="Línea 417" y2="68.144" transform="translate(270 953.926)" fill="none" stroke="#a4dbf5" stroke-linecap="round" stroke-miterlimit="10" stroke-width="4"/>
    <g id="Grupo_12633" data-name="Grupo 12633">
      <path id="Trazado_5683" data-name="Trazado 5683" d="M224.738,1016.962h-5.793v-8.5H207.359v8.5h-5.793a2.9,2.9,0,0,0,0,5.793h23.172a2.9,2.9,0,1,0,0-5.793Z" fill="#a4dbf5"/>
      <path id="Trazado_5684" data-name="Trazado 5684" d="M245.014,974.963h-2.9v30.413H184.187V970.618h27.372a8.068,8.068,0,0,1-1.158-5.793H183.463a5.094,5.094,0,0,0-5.069,5.069V1006.1a5.094,5.094,0,0,0,5.069,5.069h59.379a5.094,5.094,0,0,0,5.069-5.069V974.442a8.047,8.047,0,0,1-2.9.521Z" fill="#a4dbf5"/>
      <path id="Trazado_5685" data-name="Trazado 5685" d="M228.359,979.307a2.167,2.167,0,0,1-1.588-.689l-10.137-10.862a2.17,2.17,0,0,1,0-2.963l10.137-10.862a2.172,2.172,0,0,1,3.76,1.48v21.724a2.169,2.169,0,0,1-2.172,2.172Z" fill="#a4dbf5"/>
      <path id="Trazado_5686" data-name="Trazado 5686" d="M245.014,969.17H222.1a2.9,2.9,0,1,1,0-5.793h22.911a2.9,2.9,0,1,1,0,5.793Z" fill="#a4dbf5"/>
      <path id="Trazado_5687" data-name="Trazado 5687" d="M207.591,999.739a9.374,9.374,0,0,1-2.7-5.714,2.172,2.172,0,0,1,4.322-.435,5.049,5.049,0,0,0,5.046,4.556l12.666-.02a5.023,5.023,0,0,0,5.043-5.081,5.188,5.188,0,0,0-5.057-5.034h-2.294a2.172,2.172,0,1,1,0-4.345l2.294,0a9.658,9.658,0,0,1,9.4,9.392,9.371,9.371,0,0,1-9.4,9.413l-12.654.02a9.4,9.4,0,0,1-6.671-2.749Z" fill="#a4dbf5"/>
      <path id="Trazado_5688" data-name="Trazado 5688" d="M192.735,999.731a9.4,9.4,0,0,1,6.653-16.058l12.655-.021a9.674,9.674,0,0,1,9.37,8.478,2.172,2.172,0,1,1-4.325.415A5.206,5.206,0,0,0,212.046,988l-12.67.018a5.059,5.059,0,1,0,.012,10.117l2.21,0a2.174,2.174,0,0,1,.006,4.348l-2.2,0a9.309,9.309,0,0,1-6.667-2.749Z" fill="#a4dbf5"/>
    </g>
  </g>
</svg>
