<svg xmlns="http://www.w3.org/2000/svg" width="93.606" height="72.144" viewBox="0 0 93.606 72.144">
  <g id="Grupo_13502" data-name="Grupo 13502" transform="translate(-178.394 -878.154)">
    <line id="Línea_465" data-name="Línea 465" y2="68.144" transform="translate(270 880.154)" fill="none" stroke="#a4dbf5" stroke-linecap="round" stroke-miterlimit="10" stroke-width="4"/>
    <g id="Grupo_13407" data-name="Grupo 13407">
      <path id="Trazado_6219" data-name="Trazado 6219" d="M233.115,913.1c-4.524-7.456-11.986-11.908-19.963-11.908s-15.438,4.452-19.962,11.908a2.162,2.162,0,0,0,0,2.25c4.524,7.458,11.986,11.911,19.962,11.911s15.439-4.453,19.963-11.908a2.185,2.185,0,0,0,0-2.253Zm-19.963,6.919a5.793,5.793,0,1,1,5.793-5.793,5.8,5.8,0,0,1-5.793,5.793Z" fill="#a4dbf5"/>
      <path id="Trazado_6220" data-name="Trazado 6220" d="M213.152,948.984a2.9,2.9,0,0,1-2.9-2.9v-6.926a2.9,2.9,0,1,1,5.793,0v6.926a2.9,2.9,0,0,1-2.9,2.9Z" fill="#a4dbf5"/>
      <path id="Trazado_6221" data-name="Trazado 6221" d="M213.152,892.187a2.9,2.9,0,0,1-2.9-2.9v-6.926a2.9,2.9,0,1,1,5.793,0v6.926a2.9,2.9,0,0,1-2.9,2.9Z" fill="#a4dbf5"/>
      <path id="Trazado_6222" data-name="Trazado 6222" d="M188.22,917.123h-6.929a2.9,2.9,0,1,1,0-5.793h6.929a2.9,2.9,0,0,1,0,5.793Z" fill="#a4dbf5"/>
      <path id="Trazado_6223" data-name="Trazado 6223" d="M245.014,917.123h-6.929a2.9,2.9,0,0,1,0-5.793h6.929a2.9,2.9,0,1,1,0,5.793Z" fill="#a4dbf5"/>
      <path id="Trazado_6224" data-name="Trazado 6224" d="M213.152,943.915a29.689,29.689,0,1,1,29.69-29.689,29.721,29.721,0,0,1-29.69,29.689Zm0-53.585a23.9,23.9,0,1,0,23.9,23.9,23.923,23.923,0,0,0-23.9-23.9Z" fill="#a4dbf5"/>
    </g>
  </g>
</svg>
