<svg xmlns="http://www.w3.org/2000/svg" width="93.606" height="72.144" viewBox="0 0 93.606 72.144">
  <g id="Grupo_13503" data-name="Grupo 13503" transform="translate(-178.394 -1703.305)">
    <line id="Línea_466" data-name="Línea 466" y2="68.144" transform="translate(270 1705.305)" fill="none" stroke="#a4dbf5" stroke-linecap="round" stroke-miterlimit="10" stroke-width="4"/>
    <g id="Grupo_13408" data-name="Grupo 13408">
      <path id="Trazado_6225" data-name="Trazado 6225" d="M241.043,1748.066H206.635a2.173,2.173,0,0,0-2.172,2.173v8.148a15.614,15.614,0,0,0,4.976,11.406h-5.7a2.171,2.171,0,1,0,0,4.342h33.31a2.172,2.172,0,0,0,0-4.345h-5.683a15.494,15.494,0,0,0,4.359-7.241h5.318a7.252,7.252,0,0,0,0-14.483Zm0,10.138h-4.719v-5.793h4.719a2.924,2.924,0,0,1,0,5.793Z" fill="#a4dbf5"/>
      <path id="Trazado_6226" data-name="Trazado 6226" d="M226.187,1733.743c-.006-.066.1-.284.472-.532a2.172,2.172,0,0,0-2.43-3.6,4.912,4.912,0,0,0-2.369,4.5,5.442,5.442,0,0,0,3.438,4.348c.648.292.88.634.892.756.005.066-.1.283-.473.532a2.174,2.174,0,0,0,2.431,3.6,4.914,4.914,0,0,0,2.369-4.5,5.445,5.445,0,0,0-3.438-4.348c-.652-.295-.884-.637-.892-.759Z" fill="#a4dbf5"/>
      <path id="Trazado_6227" data-name="Trazado 6227" d="M216.3,1739.747a2.173,2.173,0,0,0,2.43,3.6,4.913,4.913,0,0,0,2.369-4.505,5.443,5.443,0,0,0-3.438-4.347c-.649-.292-.88-.634-.892-.756-.005-.066.1-.284.473-.532a2.172,2.172,0,0,0-2.431-3.6,4.914,4.914,0,0,0-2.37,4.5,5.447,5.447,0,0,0,3.439,4.348c.649.292.881.634.892.756.006.066-.1.281-.472.529Z" fill="#a4dbf5"/>
      <path id="Trazado_6228" data-name="Trazado 6228" d="M198.525,1759.652H187.084a2.9,2.9,0,0,1-2.9-2.9v-43.448a2.9,2.9,0,0,1,2.9-2.9h31.861a2.9,2.9,0,0,1,2.9,2.9v9.414a2.9,2.9,0,0,0,5.793,0v-9.414a8.7,8.7,0,0,0-8.69-8.689H187.084a8.7,8.7,0,0,0-8.69,8.689v43.448a8.7,8.7,0,0,0,8.69,8.689h11.441a2.9,2.9,0,0,0,0-5.793Z" fill="#a4dbf5"/>
      <path id="Trazado_6229" data-name="Trazado 6229" d="M189.98,1731.411h9.414a2.173,2.173,0,0,0,2.172-2.172v-9.414a2.173,2.173,0,0,0-2.172-2.172H189.98a2.173,2.173,0,0,0-2.172,2.172v9.414a2.173,2.173,0,0,0,2.172,2.172Z" fill="#a4dbf5"/>
      <path id="Trazado_6230" data-name="Trazado 6230" d="M218.945,1719.825a2.173,2.173,0,0,0-2.172-2.172h-7.965a2.173,2.173,0,1,0,0,4.345h7.965a2.173,2.173,0,0,0,2.172-2.173Z" fill="#a4dbf5"/>
      <path id="Trazado_6231" data-name="Trazado 6231" d="M189.98,1748.791a2.172,2.172,0,1,0,0,4.344h7.966a2.172,2.172,0,0,0,0-4.344Z" fill="#a4dbf5"/>
      <path id="Trazado_6232" data-name="Trazado 6232" d="M210.111,1740.1a2.173,2.173,0,0,0-2.172-2.172H189.98a2.172,2.172,0,1,0,0,4.344h17.959a2.173,2.173,0,0,0,2.172-2.172Z" fill="#a4dbf5"/>
    </g>
  </g>
</svg>
