<svg xmlns="http://www.w3.org/2000/svg" width="105.504" height="114.385" viewBox="0 0 105.504 114.385">
  <g id="Grupo_12631" data-name="Grupo 12631" transform="translate(-188.579 -1723.654)">
    <path id="Trazado_5664" data-name="Trazado 5664" d="M248.173,1780.847A29.043,29.043,0,1,1,219.13,1751.8a29.042,29.042,0,0,1,29.043,29.043Zm0,0" fill="#f2f2f2"/>
    <path id="Trazado_5665" data-name="Trazado 5665" d="M219.13,1751.8a29.222,29.222,0,0,0-6.016.625,29.048,29.048,0,0,1,0,56.835,29.045,29.045,0,1,0,6.016-57.46Zm0,0" fill="#cdd6df"/>
    <path id="Trazado_5666" data-name="Trazado 5666" d="M292.408,1819.311a17.052,17.052,0,1,1-17.053-17.052,17.053,17.053,0,0,1,17.053,17.052Zm0,0" fill="#f2f2f2"/>
    <path id="Trazado_5667" data-name="Trazado 5667" d="M275.355,1802.259a17.029,17.029,0,0,0-6.016,1.094,17.055,17.055,0,0,1,0,31.916,17.053,17.053,0,1,0,6.016-33.01Zm0,0" fill="#cdd6df"/>
    <path id="Trazado_5668" data-name="Trazado 5668" d="M275.355,1822.243a10.551,10.551,0,0,0-10.55,10.466,17.053,17.053,0,0,0,21.1,0,10.551,10.551,0,0,0-10.55-10.466Zm0,0" fill="#ffd553"/>
    <path id="Trazado_5669" data-name="Trazado 5669" d="M281.26,1816.339a5.9,5.9,0,1,1-5.9-5.905,5.9,5.9,0,0,1,5.9,5.905Zm0,0" fill="#ffd553"/>
    <path id="Trazado_5670" data-name="Trazado 5670" d="M292.408,1742.382a17.052,17.052,0,1,1-17.053-17.053,17.052,17.052,0,0,1,17.053,17.053Zm0,0" fill="#f2f2f2"/>
    <path id="Trazado_5671" data-name="Trazado 5671" d="M275.355,1725.329a17.009,17.009,0,0,0-6.016,1.1,17.054,17.054,0,0,1,0,31.915,17.054,17.054,0,1,0,6.016-33.011Zm0,0" fill="#cdd6df"/>
    <path id="Trazado_5672" data-name="Trazado 5672" d="M275.355,1745.314a10.551,10.551,0,0,0-10.55,10.466,17.057,17.057,0,0,0,21.1,0,10.551,10.551,0,0,0-10.55-10.466Zm0,0" fill="#33bdb0"/>
    <path id="Trazado_5673" data-name="Trazado 5673" d="M281.26,1739.409a5.9,5.9,0,1,1-5.9-5.9,5.9,5.9,0,0,1,5.9,5.9Zm0,0" fill="#33bdb0"/>
    <path id="Trazado_5674" data-name="Trazado 5674" d="M190.076,1779.378a1.675,1.675,0,0,0,1.845-1.487,27.369,27.369,0,0,1,45.556-17.351q1.032.933,1.957,1.956c.027.032.054.063.082.092a27.267,27.267,0,0,1,6.824,15.306,1.677,1.677,0,0,0,1.664,1.5c.06,0,.12,0,.181-.01a1.675,1.675,0,0,0,1.487-1.845,30.6,30.6,0,0,0-6.434-15.731l15.883-10.093a18.892,18.892,0,0,0,4.517,5.27,1.8,1.8,0,0,0,.27.213,18.692,18.692,0,0,0,22.9,0,1.824,1.824,0,0,0,.268-.211,18.721,18.721,0,1,0-29.368-8.341l-16.713,10.621q-.615-.621-1.265-1.21a30.721,30.721,0,0,0-51.136,19.479,1.675,1.675,0,0,0,1.487,1.845Zm76.45-24.413a8.875,8.875,0,0,1,17.658,0,15.346,15.346,0,0,1-17.658,0Zm4.6-15.556a4.229,4.229,0,1,1,4.228,4.229,4.233,4.233,0,0,1-4.228-4.229Zm4.228-12.4a15.37,15.37,0,0,1,11.706,25.338,12.328,12.328,0,0,0-6.427-7.5,7.579,7.579,0,1,0-10.558,0,12.32,12.32,0,0,0-6.426,7.5,15.369,15.369,0,0,1,11.705-25.338Zm0,0" fill="#4d4d4d"/>
    <path id="Trazado_5675" data-name="Trazado 5675" d="M275.355,1800.583a18.739,18.739,0,0,0-16.234,9.4l-15.883-10.094a30.512,30.512,0,0,0,6.378-15.247,1.676,1.676,0,1,0-3.326-.41,27.37,27.37,0,0,1-54.319,0,1.676,1.676,0,1,0-3.326.41,30.717,30.717,0,0,0,52.342,17.787l16.717,10.624a18.718,18.718,0,0,0,5.935,20.86,1.655,1.655,0,0,0,.271.213,18.691,18.691,0,0,0,22.893,0,1.674,1.674,0,0,0,.269-.213,18.721,18.721,0,0,0-11.717-33.328Zm-8.829,31.312a8.874,8.874,0,0,1,17.658,0,15.351,15.351,0,0,1-17.658,0Zm4.6-15.556a4.229,4.229,0,1,1,4.228,4.228,4.233,4.233,0,0,1-4.228-4.228Zm15.934,12.933a12.328,12.328,0,0,0-6.427-7.5,7.579,7.579,0,1,0-10.558,0,12.323,12.323,0,0,0-6.426,7.5,15.378,15.378,0,1,1,23.411,0Zm0,0" fill="#4d4d4d"/>
    <g id="Grupo_12630" data-name="Grupo 12630">
      <path id="Trazado_5676" data-name="Trazado 5676" d="M238.633,1777.548h-1.4a2.09,2.09,0,0,1-2-1.475,16.923,16.923,0,0,0-1.341-3.2,2.093,2.093,0,0,1,.362-2.484l1-1a2.1,2.1,0,0,0,0-2.971l-1.693-1.693a2.1,2.1,0,0,0-2.971,0l-1,1a2.1,2.1,0,0,1-2.484.362,16.89,16.89,0,0,0-3.2-1.341,2.093,2.093,0,0,1-1.475-2.006v-1.4a2.1,2.1,0,0,0-2.1-2.1h-2.394a2.1,2.1,0,0,0-2.1,2.1v1.309a2.094,2.094,0,0,1-1.511,2.016,16.813,16.813,0,0,0-3.3,1.327,2.092,2.092,0,0,1-2.457-.377l-.895-.894a2.1,2.1,0,0,0-2.971,0l-1.693,1.693a2.1,2.1,0,0,0,0,2.971l.8.8a2.093,2.093,0,0,1,.352,2.5,16.879,16.879,0,0,0-1.441,3.377,2.1,2.1,0,0,1-2.017,1.478h-1.077a2.1,2.1,0,0,0-2.1,2.1v2.394a2.1,2.1,0,0,0,2.1,2.1h.993a2.091,2.091,0,0,1,2.018,1.507,16.931,16.931,0,0,0,1.428,3.486,2.089,2.089,0,0,1-.367,2.475l-.692.692a2.1,2.1,0,0,0,0,2.971l1.693,1.693a2.1,2.1,0,0,0,2.971,0l.691-.692a2.094,2.094,0,0,1,2.477-.367,16.8,16.8,0,0,0,3.486,1.428,2.092,2.092,0,0,1,1.507,2.018v.994a2.1,2.1,0,0,0,2.1,2.1h2.4a2.1,2.1,0,0,0,2.1-2.1v-1.078a2.1,2.1,0,0,1,1.479-2.016,17,17,0,0,0,3.376-1.441,2.091,2.091,0,0,1,2.5.351l.8.8a2.1,2.1,0,0,0,2.971,0l1.693-1.693a2.1,2.1,0,0,0,0-2.971l-.9-.894a2.094,2.094,0,0,1-.376-2.457,16.872,16.872,0,0,0,1.327-3.3,2.092,2.092,0,0,1,2.016-1.511h1.308a2.1,2.1,0,0,0,2.1-2.1v-2.394a2.1,2.1,0,0,0-2.1-2.1Zm-19.5,12.581a9.283,9.283,0,1,1,9.283-9.282,9.283,9.283,0,0,1-9.283,9.282Zm0,0" fill="#fd715c"/>
      <path id="Trazado_5677" data-name="Trazado 5677" d="M219.13,1770.04a10.806,10.806,0,1,0,10.806,10.807,10.818,10.818,0,0,0-10.806-10.807Zm0,18.565a7.758,7.758,0,1,1,7.759-7.758,7.767,7.767,0,0,1-7.759,7.758Zm0,0" fill="#4d4d4d"/>
      <path id="Trazado_5678" data-name="Trazado 5678" d="M238.633,1776.025h-1.4a.57.57,0,0,1-.547-.394,18.522,18.522,0,0,0-1.461-3.486.573.573,0,0,1,.1-.676l1-1a3.628,3.628,0,0,0,0-5.125l-1.693-1.694a3.63,3.63,0,0,0-5.126,0l-1,1a.575.575,0,0,1-.677.1,18.509,18.509,0,0,0-3.487-1.463.569.569,0,0,1-.393-.547v-1.4a3.629,3.629,0,0,0-3.625-3.625h-2.394a3.629,3.629,0,0,0-3.625,3.625v1.308a.569.569,0,0,1-.4.55,18.4,18.4,0,0,0-3.6,1.447.571.571,0,0,1-.665-.108l-.894-.9a3.624,3.624,0,0,0-5.126,0l-1.693,1.694a3.626,3.626,0,0,0,0,5.126l.8.8a.568.568,0,0,1,.1.678,18.444,18.444,0,0,0-1.571,3.682.581.581,0,0,1-.559.4h-1.077A3.628,3.628,0,0,0,196,1779.65v2.394a3.629,3.629,0,0,0,3.625,3.624h.993a.569.569,0,0,1,.553.4,18.38,18.38,0,0,0,1.557,3.8.569.569,0,0,1-.108.667l-.692.692a3.629,3.629,0,0,0,0,5.126l1.693,1.693a3.629,3.629,0,0,0,5.126,0l.692-.692a.567.567,0,0,1,.667-.107,18.435,18.435,0,0,0,3.8,1.556.568.568,0,0,1,.4.552v.994a3.628,3.628,0,0,0,3.624,3.624h2.4a3.628,3.628,0,0,0,3.624-3.624v-1.077a.579.579,0,0,1,.4-.559,18.458,18.458,0,0,0,3.681-1.571.57.57,0,0,1,.679.1l.8.8a3.63,3.63,0,0,0,5.126,0l1.692-1.693a3.627,3.627,0,0,0,0-5.126l-.894-.894a.573.573,0,0,1-.108-.665,18.509,18.509,0,0,0,1.448-3.6.568.568,0,0,1,.55-.4h1.307a3.628,3.628,0,0,0,3.625-3.624v-2.394a3.63,3.63,0,0,0-3.625-3.625Zm.577,6.018a.577.577,0,0,1-.577.578h-1.308a3.627,3.627,0,0,0-3.481,2.617,15.4,15.4,0,0,1-1.208,3,3.6,3.6,0,0,0,.645,4.25l.895.894a.579.579,0,0,1,0,.816l-1.693,1.693a.579.579,0,0,1-.817,0l-.8-.8a3.626,3.626,0,0,0-4.327-.6,15.394,15.394,0,0,1-3.071,1.311,3.646,3.646,0,0,0-2.56,3.475v1.077a.579.579,0,0,1-.578.577h-2.394a.577.577,0,0,1-.577-.577v-.994a3.629,3.629,0,0,0-2.615-3.484,15.342,15.342,0,0,1-3.172-1.3,3.567,3.567,0,0,0-1.711-.435,3.636,3.636,0,0,0-2.572,1.061l-.692.692a.578.578,0,0,1-.816,0l-1.694-1.692a.581.581,0,0,1,0-.817l.692-.692a3.631,3.631,0,0,0,.626-4.284,15.376,15.376,0,0,1-1.3-3.171,3.627,3.627,0,0,0-3.484-2.615h-.993a.578.578,0,0,1-.578-.577v-2.394a.579.579,0,0,1,.578-.578H200.7a3.648,3.648,0,0,0,3.475-2.56,15.392,15.392,0,0,1,1.311-3.071,3.629,3.629,0,0,0-.6-4.328l-.8-.8a.578.578,0,0,1,0-.817l1.693-1.692a.578.578,0,0,1,.817,0l.894.894a3.6,3.6,0,0,0,4.25.646,15.32,15.32,0,0,1,3-1.208,3.629,3.629,0,0,0,2.619-3.482v-1.308a.577.577,0,0,1,.577-.577h2.394a.579.579,0,0,1,.578.577v1.4a3.593,3.593,0,0,0,2.557,3.464,15.317,15.317,0,0,1,2.909,1.22,3.639,3.639,0,0,0,4.292-.622l1-1a.576.576,0,0,1,.816,0l1.694,1.692a.581.581,0,0,1,0,.817l-1,1a3.64,3.64,0,0,0-.623,4.292,15.42,15.42,0,0,1,1.221,2.909,3.592,3.592,0,0,0,3.463,2.558h1.4a.577.577,0,0,1,.577.577Zm0,0" fill="#4d4d4d"/>
    </g>
  </g>
</svg>
