<svg xmlns="http://www.w3.org/2000/svg" width="93.606" height="72.144" viewBox="0 0 93.606 72.144">
  <g id="Grupo_13504" data-name="Grupo 13504" transform="translate(-178.394 -2230.094)">
    <line id="Línea_467" data-name="Línea 467" y2="68.144" transform="translate(270 2232.094)" fill="none" stroke="#a4dbf5" stroke-linecap="round" stroke-miterlimit="10" stroke-width="4"/>
    <g id="Grupo_13409" data-name="Grupo 13409">
      <path id="Trazado_6233" data-name="Trazado 6233" d="M239.945,2237.2a2.174,2.174,0,0,1,2.173,2.172v39.1a2.173,2.173,0,0,1-2.173,2.172H207.536a5.8,5.8,0,0,0-4.1,1.7l-7.667,7.665v-3.569a5.792,5.792,0,0,0-5.793-5.793h-3.62a2.173,2.173,0,0,1-2.173-2.172v-39.1a2.173,2.173,0,0,1,2.173-2.172Zm0-5.793H186.36a7.972,7.972,0,0,0-7.966,7.965v39.1a7.972,7.972,0,0,0,7.966,7.965h3.62v12.31a2.178,2.178,0,0,0,1.341,2.008,2.2,2.2,0,0,0,.832.165,2.161,2.161,0,0,0,1.535-.637l13.845-13.846h32.412a7.972,7.972,0,0,0,7.966-7.965v-39.1a7.972,7.972,0,0,0-7.966-7.965Z" fill="#a4dbf5"/>
      <path id="Trazado_6234" data-name="Trazado 6234" d="M204.463,2271.235a2.9,2.9,0,0,1-2.9,2.9h-2.9a2.9,2.9,0,0,1-2.9-2.9v-17.379a2.9,2.9,0,0,1,2.9-2.9h2.9a2.9,2.9,0,0,1,2.9,2.9Z" fill="#a4dbf5"/>
      <path id="Trazado_6235" data-name="Trazado 6235" d="M228.88,2268.28a7.108,7.108,0,0,1-7.038,5.851h-2.2a32.281,32.281,0,0,1-12.339-2.114,7.362,7.362,0,0,0,.057-.782v-17.379a5.785,5.785,0,0,0-.724-2.81c1.535-1.216,3.447-3.186,3.447-5.388,0-1.795,0-5.5,3.476-5.5,2.317,0,4.837,2.144,4.837,6.835a13.311,13.311,0,0,1-.608,3.969h5.764a6.984,6.984,0,0,1,6.98,6.98c0,.087-.347,7.358-1.767,10.312Z" fill="#a4dbf5"/>
    </g>
  </g>
</svg>
