<svg xmlns="http://www.w3.org/2000/svg" width="76.944" height="100.96" viewBox="0 0 76.944 100.96">
  <g id="Grupo_12738" data-name="Grupo 12738" transform="translate(-205.325 -2027.413)">
    <path id="Trazado_5856" data-name="Trazado 5856" d="M276.62,2106.118H232.728a4.17,4.17,0,0,1-4.17-4.17v-68.886a4.17,4.17,0,0,1,4.17-4.17H276.62a4.17,4.17,0,0,1,4.17,4.17v68.886a4.17,4.17,0,0,1-4.17,4.17Zm0,0" fill="#33bdb0"/>
    <path id="Trazado_5857" data-name="Trazado 5857" d="M276.62,2028.892H270.2v77.226h6.422a4.17,4.17,0,0,0,4.17-4.17v-68.886a4.17,4.17,0,0,0-4.17-4.17Zm0,0" fill="#00ad9c"/>
    <rect id="Rect치ngulo_3388" data-name="Rect치ngulo 3388" width="52.232" height="61.846" transform="translate(228.558 2036.583)" fill="#ffca7d"/>
    <rect id="Rect치ngulo_3389" data-name="Rect치ngulo 3389" width="10.593" height="61.846" transform="translate(270.198 2036.583)" fill="#ffb951"/>
    <path id="Trazado_5858" data-name="Trazado 5858" d="M255.22,2058.084c-7.535,0-13.643,6.532-13.643,14.591h27.286c0-8.059-6.108-14.591-13.643-14.591Zm0,0" fill="#fd715c"/>
    <path id="Trazado_5859" data-name="Trazado 5859" d="M249.511,2098.015l-1.158-1.069a2.464,2.464,0,0,0-3.483.141l-.3.327,1.373-1.488a2.464,2.464,0,0,0-.141-3.483l-1.159-1.069a2.465,2.465,0,0,0-3.483.14l.851-.922a2.466,2.466,0,0,0-.141-3.484l-1.158-1.068a2.465,2.465,0,0,0-3.483.141l-.353.383,10.161-11.018a3.253,3.253,0,1,0-4.783-4.411l-12.836,13.918-6.369,6.907-1-8.426a3.192,3.192,0,0,0-6.362.359l-.094,18.971a1.637,1.637,0,0,1-.379,1.528l-2.826,3.065,14.569,13.437,3.25-3.525a1.651,1.651,0,0,1,.423-.329l5.921-3.214a23.73,23.73,0,0,0,6.133-4.775l1.569-1.7,5.4-5.852a2.465,2.465,0,0,0-.141-3.483Zm0,0" fill="#ffe8c2"/>
    <path id="Trazado_5860" data-name="Trazado 5860" d="M249.511,2098.015l-1.158-1.069a2.464,2.464,0,0,0-3.483.141l-.3.327,1.373-1.488a2.464,2.464,0,0,0-.141-3.483l-1.137-1.05-7.852,8.513-1.568,1.7a23.757,23.757,0,0,1-6.133,4.775l-6.16,3.344-3.723,4.036,7.732,7.131,3.25-3.525a1.651,1.651,0,0,1,.423-.329l5.921-3.214a23.73,23.73,0,0,0,6.133-4.775l1.569-1.7,5.4-5.852a2.465,2.465,0,0,0-.141-3.483Zm0,0" fill="#efd5af"/>
    <path id="Trazado_5861" data-name="Trazado 5861" d="M227.823,2123.338l-2.8,3.04a1.605,1.605,0,0,1-2.267.092l-15.433-14.235a1.6,1.6,0,0,1-.084-2.274l2.824-3.02a1.6,1.6,0,0,1,2.259-.084l15.413,14.215a1.6,1.6,0,0,1,.091,2.266Zm0,0" fill="#68c3ef"/>
    <path id="Trazado_5862" data-name="Trazado 5862" d="M276.62,2027.413H232.728a5.656,5.656,0,0,0-5.649,5.649v46.312a1.479,1.479,0,0,0,2.958,0v-41.313h49.274v58.888H250.537l-.023-.021-1.158-1.069a3.935,3.935,0,0,0-1.363-.822,3.943,3.943,0,0,0-1.191-3.682l-1.158-1.068a3.91,3.91,0,0,0-1.534-.876,3.942,3.942,0,0,0-1.239-3.389l-1.158-1.069a4.05,4.05,0,0,0-.809-.578l7.218-7.827a4.7,4.7,0,0,0,1.185-2.4h22.846a1.479,1.479,0,1,0,0-2.957h-1.875c-.66-7.653-6.39-13.77-13.579-14.515v-.894a1.479,1.479,0,0,0-2.958,0v.894c-7.164.741-12.917,6.811-13.577,14.515h-1.878a1.479,1.479,0,0,0-.678,2.793l-13.47,14.6-.618-5.233a4.671,4.671,0,0,0-9.31.525l-.094,18.971a1.516,1.516,0,0,0,.049.385.155.155,0,0,1-.037.147l-1.676,1.818a3.091,3.091,0,0,0-3.472.724l-2.824,3.021a3.082,3.082,0,0,0,.162,4.371l15.433,14.233a3.058,3.058,0,0,0,2.087.817l.128,0a3.071,3.071,0,0,0,2.141-.99l2.8-3.04a3.09,3.09,0,0,0,.335-3.746l2.05-2.223a.217.217,0,0,1,.041-.032l5.922-3.214a25.2,25.2,0,0,0,6.515-5.072l6.966-7.553a3.928,3.928,0,0,0,1.041-2.594h27.53v2.041a2.694,2.694,0,0,1-2.691,2.691H251.694a1.479,1.479,0,0,0,0,2.958H276.62a5.656,5.656,0,0,0,5.649-5.649v-68.886a5.656,5.656,0,0,0-5.649-5.649Zm-21.4,32.149c6.244,0,11.4,5.1,12.087,11.634H248.864a4.661,4.661,0,0,0-.782-1.106l-.007-.009-.025-.024-.021-.023-.013-.014-.037-.036c-.041-.041-.084-.082-.127-.122l-.014-.013a4.707,4.707,0,0,0-3.386-1.237,4.869,4.869,0,0,0-.832.107,12.313,12.313,0,0,1,11.6-9.157Zm-28.484,62.774-2.8,3.039a.121.121,0,0,1-.087.04.122.122,0,0,1-.09-.033l-15.433-14.234a.115.115,0,0,1-.04-.087.122.122,0,0,1,.033-.09l2.825-3.02a.124.124,0,0,1,.091-.039.12.12,0,0,1,.084.033l15.413,14.214a.117.117,0,0,1,.04.086.122.122,0,0,1-.033.091Zm21.83-21.841-6.967,7.553a22.237,22.237,0,0,1-5.751,4.478l-5.922,3.215a3.11,3.11,0,0,0-.8.626l-1.981,2.148-12.4-11.431,1.557-1.689a3.1,3.1,0,0,0,.772-2.689l.094-18.805a1.723,1.723,0,0,1,1.242-1.639,1.713,1.713,0,0,1,2.172,1.446l1,8.425a1.479,1.479,0,0,0,2.556.829l19.205-20.824a1.774,1.774,0,1,1,2.608,2.405l-10.153,11.01-.007.008a1.478,1.478,0,1,0,2.173,2l.353-.382a.987.987,0,0,1,1.394-.056l1.158,1.068a.986.986,0,0,1,.057,1.393l-.851.923a1.479,1.479,0,0,0,2.174,2.006v0a.988.988,0,0,1,1.393-.054l1.158,1.068a.987.987,0,0,1,.057,1.394l-1.373,1.488a1.479,1.479,0,0,0,2.174,2l.3-.327a.986.986,0,0,1,1.393-.056l1.158,1.069a.925.925,0,0,1,.12.132c.014.022.03.044.045.065a.989.989,0,0,1-.108,1.2ZM230.037,2035.1v-2.042a2.694,2.694,0,0,1,2.691-2.691H276.62a2.694,2.694,0,0,1,2.691,2.691v2.042Zm0,0" fill="#4d4d4d"/>
  </g>
</svg>
