<svg xmlns="http://www.w3.org/2000/svg" width="1138.615" height="403.8" viewBox="0 0 1138.615 403.8">
  <g id="Grupo_13510" data-name="Grupo 13510" transform="translate(-150 -1121)">
    <g id="Grupo_13412" data-name="Grupo 13412">
      <rect id="Rectángulo_3419" data-name="Rectángulo 3419" width="1138.615" height="403.8" transform="translate(1288.614 1524.8) rotate(-180)" fill="#f0866a"/>
      <g id="Grupo_13411" data-name="Grupo 13411">
        <path id="Trazado_6236" data-name="Trazado 6236" d="M544.328,1319.553c0,.02,0,.039,0,.058h49.283a1.224,1.224,0,0,1,0,2.418h-69.78v41.55a1.046,1.046,0,1,1-2.065,0v-41.55H483.209a1.224,1.224,0,0,1,0-2.418h59.057c0-.019,0-.038,0-.058V1278H503.709a1.224,1.224,0,0,1,0-2.418h75.272v-44.8H540.425a1.224,1.224,0,0,1,0-2.417h110.4a1.223,1.223,0,0,1,0,2.417h-69.78v44.8H614.11a1.225,1.225,0,0,1,0,2.418H544.328Z" fill="#e2735a"/>
        <path id="Trazado_6237" data-name="Trazado 6237" d="M239.263,1224.791c0,.019,0,.038,0,.058h49.282a1.224,1.224,0,0,1,0,2.418H218.762v41.55a1.045,1.045,0,1,1-2.064,0v-41.55H178.144a1.224,1.224,0,0,1,0-2.418H237.2c0-.02,0-.039,0-.058v-41.552H198.643a1.224,1.224,0,0,1,0-2.418h75.272v-44.8H235.359a1.224,1.224,0,0,1,0-2.418h110.4a1.224,1.224,0,0,1,0,2.418H275.979v44.8h33.063a1.224,1.224,0,0,1,0,2.418H239.263Z" fill="#e2735a"/>
        <g id="Grupo_13410" data-name="Grupo 13410">
          <path id="Trazado_6238" data-name="Trazado 6238" d="M869.5,1351.842c.162,0-.136.078,0,0Z" fill="#e2735a"/>
          <path id="Trazado_6239" data-name="Trazado 6239" d="M812.278,1440.665h59.056c0-.02,0-.039,0-.059v-41.551H832.777a1.224,1.224,0,0,1,0-2.417h75.272v-44.8H869.5c-1.017,0-1.484-.42-1.484-1.087V1309.2H829.46a1.224,1.224,0,0,1,0-2.417h64.393v-40.876H855.3a1.224,1.224,0,0,1,0-2.417H965.7a1.224,1.224,0,0,1,0,2.417h-69.78v40.876h43.942a1.224,1.224,0,0,1,0,2.417h-69.78v40.221H979.893a1.224,1.224,0,0,1,0,2.417H910.112v44.8h33.065a1.224,1.224,0,0,1,0,2.417H873.4v41.551c0,.02,0,.039,0,.059h49.282a1.224,1.224,0,0,1,0,2.417H852.9v41.55a1.045,1.045,0,1,1-2.064,0v-41.55H812.278a1.224,1.224,0,0,1,0-2.417Z" fill="#e2735a"/>
        </g>
        <path id="Trazado_6240" data-name="Trazado 6240" d="M540.9,1492.158a1.044,1.044,0,1,1-2.062,0v-41.55H500.28a1.224,1.224,0,0,1,0-2.417h110.4a1.224,1.224,0,0,1,0,2.417H540.9Z" fill="#e2735a"/>
        <path id="Trazado_6241" data-name="Trazado 6241" d="M170.217,1469.836h64.392v-40.874H196.055a1.224,1.224,0,0,1,0-2.418h110.4a1.224,1.224,0,0,1,0,2.418h-69.78v40.874h43.942a1.225,1.225,0,0,1,0,2.419H210.835V1513.8a1.045,1.045,0,1,1-2.063,0v-41.549H170.217a1.225,1.225,0,0,1,0-2.419Z" fill="#e2735a"/>
        <path id="Trazado_6242" data-name="Trazado 6242" d="M1137.164,1176.9h64.393v-40.874H1163a1.225,1.225,0,0,1,0-2.419h110.4a1.225,1.225,0,0,1,0,2.419h-69.78V1176.9h43.941a1.225,1.225,0,0,1,0,2.419h-69.78v41.55a1.045,1.045,0,1,1-2.064,0v-41.55h-38.554a1.225,1.225,0,0,1,0-2.419Z" fill="#e2735a"/>
        <path id="Trazado_6243" data-name="Trazado 6243" d="M1118.191,1456.225h64.394v-40.874h-38.556a1.225,1.225,0,0,1,0-2.419h110.4a1.225,1.225,0,0,1,0,2.419h-69.781v40.874h43.942a1.225,1.225,0,0,1,0,2.419h-69.78v41.551a1.045,1.045,0,1,1-2.064,0v-41.551h-38.555a1.225,1.225,0,0,1,0-2.419Z" fill="#e2735a"/>
      </g>
    </g>
    <g id="Grupo_13491" data-name="Grupo 13491">
      <line id="Línea_506" data-name="Línea 506" x2="604.8" transform="translate(416.907 1522.104)" fill="none" stroke="#709ddb" stroke-linecap="round" stroke-miterlimit="10" stroke-width="4.931"/>
      <g id="Grupo_13418" data-name="Grupo 13418">
        <g id="Grupo_13416" data-name="Grupo 13416">
          <path id="Trazado_6244" data-name="Trazado 6244" d="M883.424,1254.254c1.579.067,5.328-2.776,4.718-.538-.348,1.274,6.86,58.914,14.641,119.994" fill="none" stroke="#9396ac" stroke-linecap="round" stroke-miterlimit="10" stroke-width="11.167"/>
          <path id="Trazado_6245" data-name="Trazado 6245" d="M878.308,1264.3c-.229,1.755-.549,44.017-.851,93.9" fill="none" stroke="#9396ac" stroke-linecap="round" stroke-miterlimit="10" stroke-width="11.167"/>
          <path id="Trazado_6246" data-name="Trazado 6246" d="M856.721,1263.424c-.471,1.086-7.541,44.456-15.656,94.854" fill="none" stroke="#9396ac" stroke-linecap="round" stroke-miterlimit="10" stroke-width="11.167"/>
          <g id="Grupo_13413" data-name="Grupo 13413">
            <path id="Trazado_6247" data-name="Trazado 6247" d="M914.295,1342.82H797.819L826.2,1181.848H942.678Z" fill="#c17553"/>
            <path id="Trazado_6248" data-name="Trazado 6248" d="M939.95,1181.845l-1.287,7.29L920.3,1293.28l-3.961,22.478-4.772,27.063H795.089l27.1-153.686,1.287-7.29Z" fill="#ffd8bd"/>
            <path id="Trazado_6249" data-name="Trazado 6249" d="M909.178,1329.2H805.164l25.742-147.954,104.014-.648Z" fill="#85807e" opacity="0.39" style="mix-blend-mode: multiply;isolation: isolate"/>
            <path id="Trazado_6250" data-name="Trazado 6250" d="M907.115,1326.726H803.1l25.742-147.954,104.014-.648Z" fill="#fff"/>
            <path id="Trazado_6251" data-name="Trazado 6251" d="M939.951,1181.845l-1.287,7.29H822.191l1.287-7.29Z" fill="#85807e" opacity="0.39" style="mix-blend-mode: multiply;isolation: isolate"/>
          </g>
          <g id="Grupo_13414" data-name="Grupo 13414">
            <path id="Trazado_6252" data-name="Trazado 6252" d="M942.445,1168.155v15.621H823.156v-.044a7.278,7.278,0,0,1-5.513-3.719,8.389,8.389,0,0,1-.539-7.068,7.345,7.345,0,0,1,6.783-4.914,6.868,6.868,0,0,1,1.244.124Z" fill="#4d6199"/>
          </g>
          <path id="Trazado_6253" data-name="Trazado 6253" d="M890.748,1235.645a78.453,78.453,0,0,1,11.147,7.4" fill="none" stroke="#07113d" stroke-linecap="round" stroke-linejoin="round" stroke-width="2.482"/>
          <path id="Trazado_6254" data-name="Trazado 6254" d="M900.262,1239.024a9.6,9.6,0,0,0,2.889,5.313l-3.318-.321" fill="none" stroke="#07113d" stroke-linecap="round" stroke-linejoin="round" stroke-width="2.482"/>
          <path id="Trazado_6255" data-name="Trazado 6255" d="M898.392,1250.909l7.562-.368a12.394,12.394,0,0,1,3.549.17" fill="none" stroke="#07113d" stroke-linecap="round" stroke-linejoin="round" stroke-width="2.482"/>
          <path id="Trazado_6256" data-name="Trazado 6256" d="M898.1,1254.98l7.561-.367a12.338,12.338,0,0,1,3.55.17" fill="none" stroke="#07113d" stroke-linecap="round" stroke-linejoin="round" stroke-width="2.482"/>
          <path id="Trazado_6257" data-name="Trazado 6257" d="M842.279,1297.552c-2.524-.9-5.122-1.853-7.094-3.669a15.124,15.124,0,0,1-4.093-8.034,17.219,17.219,0,0,1,.03-8.662,9.475,9.475,0,0,1,5.62-6.3" fill="none" stroke="#ff4343" stroke-miterlimit="10" stroke-width="1.749"/>
          <path id="Trazado_6258" data-name="Trazado 6258" d="M830.927,1271.664l6.765-.995a9.012,9.012,0,0,0-.932,5.257" fill="none" stroke="#ff4343" stroke-miterlimit="10" stroke-width="1.749"/>
          <path id="Trazado_6259" data-name="Trazado 6259" d="M869.008,1299.174a43.138,43.138,0,0,0,31.934-33.553" fill="none" stroke="#ff4343" stroke-miterlimit="10" stroke-width="1.749"/>
          <path id="Trazado_6260" data-name="Trazado 6260" d="M895.771,1271.495a17.952,17.952,0,0,0,5.306-5.584" fill="none" stroke="#ff4343" stroke-miterlimit="10" stroke-width="1.749"/>
          <path id="Trazado_6261" data-name="Trazado 6261" d="M901.242,1266.944a22.693,22.693,0,0,1,2.726,7.814" fill="none" stroke="#d93838" stroke-miterlimit="10" stroke-width="1.749"/>
          <g id="Grupo_13415" data-name="Grupo 13415">
            <path id="Trazado_6262" data-name="Trazado 6262" d="M869.741,1225.428a2.1,2.1,0,0,0-1.662.131c-.016-.085-.033-.169-.049-.251a.619.619,0,0,0-1.216.233l.143.769a4.249,4.249,0,0,1-.019,1.8c-.181.638-.8,1.265-1.409,1.187a.686.686,0,0,1-.461-.358,3.727,3.727,0,0,0,.24-1.116.619.619,0,0,0-.989-.53,1.421,1.421,0,0,0-.112.093v-.026a1.888,1.888,0,0,0-.76-1.553,2.373,2.373,0,0,0-2.076-.437,3.472,3.472,0,0,0-2.23,2.5,2.9,2.9,0,0,0,.907,3.31,2.6,2.6,0,0,0,1.548.348,3.968,3.968,0,0,0,2.809-1.459,1.8,1.8,0,0,0,.964.454,2.407,2.407,0,0,0,2.085-.865,59.733,59.733,0,0,0,1.339,6.549.618.618,0,0,0,.6.462.629.629,0,0,0,.136-.015.619.619,0,0,0,.473-.717l-.932-5.031a2.414,2.414,0,0,0,1.342-.121,2.585,2.585,0,0,0,1.65-1.858A3.168,3.168,0,0,0,869.741,1225.428Zm-6,3.433a2.79,2.79,0,0,1-2.211,1.434,1.454,1.454,0,0,1-.823-.161c-.519-.325-.582-1.21-.377-1.915a2.343,2.343,0,0,1,1.379-1.656.931.931,0,0,1,.249-.033,1.2,1.2,0,0,1,.725.252.681.681,0,0,1,.289.532.619.619,0,0,0,.594.643.673.673,0,0,0,.276-.053A1.7,1.7,0,0,0,863.741,1228.861Zm7.1-.172a1.359,1.359,0,0,1-.874.941,1.037,1.037,0,0,1-.981-.079.612.612,0,0,0-.193-.1l-.355-1.914c-.015-.482.071-.786.257-.906a.9.9,0,0,1,.7-.013A1.962,1.962,0,0,1,870.846,1228.689Z" fill="#37a9e2"/>
            <path id="Trazado_6263" data-name="Trazado 6263" d="M874.412,1225.385a2.453,2.453,0,0,0-.327-.035.62.62,0,0,0-.938.31,1.792,1.792,0,0,0-.506,1.06,12.481,12.481,0,0,0,.364,5.823.618.618,0,0,0,.331,1.1l.063.005a12.342,12.342,0,0,0,1.08,2.05.619.619,0,0,0,1.116-.5c-.155-.593-.315-1.2-.468-1.823a4.141,4.141,0,0,0-.715-7.991Zm2.211,4.486a3.058,3.058,0,0,1-1.781,2.284,20.283,20.283,0,0,1-.555-5.534A3.077,3.077,0,0,1,876.623,1229.871Z" fill="#37a9e2"/>
            <path id="Trazado_6264" data-name="Trazado 6264" d="M902.905,1213.244a.618.618,0,0,0-.567-.089c-.107.036-.219.059-.328.091a.616.616,0,0,0-.866.047c-.065.071-.134.139-.2.21a10.237,10.237,0,0,1-2.793.146.613.613,0,0,0-.673.56.619.619,0,0,0,.56.673,11.311,11.311,0,0,0,1.552.024,43.079,43.079,0,0,1-8.766,6.721.615.615,0,0,0-.3.583,20.806,20.806,0,0,0-7.424-3.969c-7.41-2.292-18.079-3.609-25.51-.509l0-.009a106.555,106.555,0,0,1-7.274-12.685l4.14,2.248a.619.619,0,1,0,.591-1.088l-5.7-3.095a.619.619,0,0,0-.911.613,36.1,36.1,0,0,1,.162,6.159.618.618,0,0,0,.58.654h.038a.618.618,0,0,0,.617-.582c.059-.992.074-1.991.053-2.989a108.054,108.054,0,0,0,6.57,11.291c-.37.187-.74.375-1.09.587a12.62,12.62,0,0,0-6.041,8.92,14.756,14.756,0,0,0-.286,2.76.565.565,0,0,0-.107-.019,81.22,81.22,0,0,0-12.178,1.252c1.128-.666,2.27-1.319,3.413-1.945a.619.619,0,1,0-.594-1.085c-1.656.907-3.312,1.864-4.922,2.846a.619.619,0,0,0,.148,1.122c2.32.682,4.636,1.481,6.885,2.374a.611.611,0,0,0,.228.044.619.619,0,0,0,.229-1.194c-1.1-.438-2.226-.846-3.354-1.237a79.943,79.943,0,0,1,10.178-.94.6.6,0,0,0,.175-.04,5.465,5.465,0,0,0,.382,1.267,8.2,8.2,0,0,0,3.332,3.357,28.171,28.171,0,0,0,4.153,2.13l-4.416,9.77q-.091-1.125-.106-2.251a.63.63,0,0,0-.626-.612.619.619,0,0,0-.611.626,33.909,33.909,0,0,0,.623,6.086.618.618,0,0,0,.47.485.592.592,0,0,0,.138.016.619.619,0,0,0,.495-.248,6.245,6.245,0,0,1,3.4-2.289.619.619,0,1,0-.315-1.2,7.489,7.489,0,0,0-3.184,1.758v-.005a.462.462,0,0,0,.029-.044l5.264-11.644a40.055,40.055,0,0,0,13.868,2.24q2.566,0,5.313-.246l4.592,12.506a12.557,12.557,0,0,1-2.29-1.773.619.619,0,0,0-.868.882,13.606,13.606,0,0,0,4.218,2.83.607.607,0,0,0,.243.05.619.619,0,0,0,.619-.648,17.944,17.944,0,0,1,.568-5.416.619.619,0,0,0-1.2-.314,19.335,19.335,0,0,0-.518,2.907l-4.1-11.154c.174-.019.345-.033.521-.053,3.086-.358,6.644-.964,9.635-2.749,3.3-1.967,5.366-5.2,5.4-8.433a9.239,9.239,0,0,0-3.036-6.748h0a.624.624,0,0,0,.31-.083,44.351,44.351,0,0,0,10.125-8.056c.1-.023.213-.04.318-.066l-.112,3.471a.619.619,0,0,0,.6.638h.02a.618.618,0,0,0,.618-.6l.139-4.326A.617.617,0,0,0,902.905,1213.244Zm-9.973,16.271c-.032,2.807-1.872,5.637-4.8,7.384-2.791,1.665-6.188,2.24-9.143,2.582-10.489,1.215-19.064-.2-25.483-4.212a7.1,7.1,0,0,1-2.858-2.811,7.781,7.781,0,0,1-.109-4.482,11.429,11.429,0,0,1,5.467-8.081c3.188-1.94,7.552-2.732,12.18-2.732a50.924,50.924,0,0,1,14.549,2.26C887.475,1220.889,892.99,1224.412,892.932,1229.515Z" fill="#37a9e2"/>
            <path id="Trazado_6265" data-name="Trazado 6265" d="M912.412,1208.468a46.111,46.111,0,0,1-8.679.234c-1.193-.08-1.188,1.777,0,1.857a46.173,46.173,0,0,0,8.679-.235C913.584,1210.182,913.6,1208.324,912.412,1208.468Z" fill="#37a9e2"/>
            <path id="Trazado_6266" data-name="Trazado 6266" d="M920.728,1208.67a.95.95,0,0,0-1.142-.648l-2.474.418a.937.937,0,0,0-.649,1.142.95.95,0,0,0,1.143.648l2.474-.418A.936.936,0,0,0,920.728,1208.67Z" fill="#37a9e2"/>
            <path id="Trazado_6267" data-name="Trazado 6267" d="M919.525,1202.021c-5.369,1.53-10.975-.541-16.471.935a.929.929,0,0,0,.494,1.79c5.5-1.476,11.05.611,16.47-.935A.929.929,0,0,0,919.525,1202.021Z" fill="#37a9e2"/>
            <path id="Trazado_6268" data-name="Trazado 6268" d="M847.7,1200.217a4.588,4.588,0,0,0,1.529-1.239c1.01.594,1.326.223,3.059.056a14.007,14.007,0,0,1,5.7.7c1.14.369,1.628-1.423.494-1.79a15.816,15.816,0,0,0-4.687-.825c-1.464-.018-3.133.68-4.353-.236a.933.933,0,0,0-1.27.333,2.328,2.328,0,0,1-1.41,1.4C845.7,1199.163,846.641,1200.765,847.7,1200.217Z" fill="#37a9e2"/>
            <path id="Trazado_6269" data-name="Trazado 6269" d="M873.163,1196.472q-4.3.5-8.624.58a.929.929,0,0,0,0,1.856q4.328-.082,8.624-.579C874.336,1198.193,874.349,1196.335,873.163,1196.472Z" fill="#37a9e2"/>
            <path id="Trazado_6270" data-name="Trazado 6270" d="M847.214,1193.424l25.982-1.447c1.188-.066,1.2-1.923,0-1.856l-25.982,1.446C846.026,1191.633,846.019,1193.49,847.214,1193.424Z" fill="#37a9e2"/>
            <path id="Trazado_6271" data-name="Trazado 6271" d="M831.941,1226.875a42.2,42.2,0,0,0-6.836.543c-1.176.188-.677,1.978.493,1.79a39.16,39.16,0,0,1,6.343-.477A.929.929,0,0,0,831.941,1226.875Z" fill="#37a9e2"/>
            <path id="Trazado_6272" data-name="Trazado 6272" d="M831.505,1229.888a5.766,5.766,0,0,0-2.859.151,35.166,35.166,0,0,0-3.99.906.929.929,0,0,0,.493,1.791c.928-.265,1.86-.5,2.8-.692a16.823,16.823,0,0,1,2.189-.456.838.838,0,0,0,.636.665A1.239,1.239,0,0,0,831.505,1229.888Z" fill="#37a9e2"/>
            <path id="Trazado_6273" data-name="Trazado 6273" d="M826.989,1234.734h-2.063a.929.929,0,0,0,0,1.857h2.063A.929.929,0,0,0,826.989,1234.734Z" fill="#37a9e2"/>
            <path id="Trazado_6274" data-name="Trazado 6274" d="M858.748,1255.142q-8.872-.444-17.744-.14c-1.192.041-1.2,1.9,0,1.857q8.878-.3,17.744.14C859.943,1257.059,859.939,1255.2,858.748,1255.142Z" fill="#37a9e2"/>
            <path id="Trazado_6275" data-name="Trazado 6275" d="M850.92,1258.871l-9.9.049a.928.928,0,0,0,0,1.856l9.9-.048A.929.929,0,0,0,850.92,1258.871Z" fill="#37a9e2"/>
            <path id="Trazado_6276" data-name="Trazado 6276" d="M877.737,1258.045a.929.929,0,0,0,0-1.857h-2.063a.929.929,0,0,0,0,1.857Z" fill="#37a9e2"/>
            <path id="Trazado_6277" data-name="Trazado 6277" d="M891.784,1256.421a42.021,42.021,0,0,0-10.557.349c-1.178.184-.678,1.974.493,1.79a40.13,40.13,0,0,1,10.064-.282C892.973,1258.39,892.965,1256.533,891.784,1256.421Z" fill="#37a9e2"/>
            <path id="Trazado_6278" data-name="Trazado 6278" d="M889.284,1260.819l-13.175-.848c-1.193-.077-1.188,1.78,0,1.857l13.175.847C890.477,1262.752,890.472,1260.9,889.284,1260.819Z" fill="#37a9e2"/>
            <path id="Trazado_6279" data-name="Trazado 6279" d="M844.9,1290.058c-1.11.413-.63,2.208.494,1.791a12.743,12.743,0,0,1,5.115-.8c1.194.055,1.192-1.8,0-1.857A14.145,14.145,0,0,0,844.9,1290.058Z" fill="#37a9e2"/>
            <path id="Trazado_6280" data-name="Trazado 6280" d="M854.194,1289.012c-1.17.147-1.184,2.005,0,1.857a20.257,20.257,0,0,1,8.029.566.929.929,0,0,0,.494-1.79A21.587,21.587,0,0,0,854.194,1289.012Z" fill="#37a9e2"/>
            <path id="Trazado_6281" data-name="Trazado 6281" d="M866.608,1291.074c.018,0,.178-.053.181-.054a.96.96,0,0,1,.381.018.928.928,0,0,0,.494-1.79,2.782,2.782,0,0,0-2.555.624.937.937,0,0,0,0,1.313.947.947,0,0,0,1.313,0c-.063.039-.047.028.047-.033A1.367,1.367,0,0,1,866.608,1291.074Z" fill="#37a9e2"/>
            <path id="Trazado_6282" data-name="Trazado 6282" d="M869.254,1292.685c-7.86,1.776-15.848.837-23.789.247-1.192-.088-1.187,1.769,0,1.857,8.12.6,16.249,1.5,24.282-.314C870.912,1294.212,870.419,1292.421,869.254,1292.685Z" fill="#37a9e2"/>
            <path id="Trazado_6283" data-name="Trazado 6283" d="M854.544,1297.652a17.331,17.331,0,0,0-9.631-.116.929.929,0,0,0,.493,1.79,15.433,15.433,0,0,1,8.644.117A.93.93,0,0,0,854.544,1297.652Z" fill="#37a9e2"/>
            <path id="Trazado_6284" data-name="Trazado 6284" d="M862.472,1297.859h-4.126a.929.929,0,0,0,0,1.857h4.126A.929.929,0,0,0,862.472,1297.859Z" fill="#37a9e2"/>
          </g>
          <path id="Trazado_6285" data-name="Trazado 6285" d="M942.445,1172.945v7.068h-124.8a8.389,8.389,0,0,1-.539-7.068Z" fill="#365089"/>
          <path id="Trazado_6286" data-name="Trazado 6286" d="M902.783,1373.71c8.881,69.708,19.009,141.4,19.009,141.4" fill="none" stroke="#a3a6bf" stroke-linecap="round" stroke-miterlimit="10" stroke-width="11.167"/>
          <path id="Trazado_6287" data-name="Trazado 6287" d="M877.457,1358.195c-.447,74.068-.853,156.357-.853,156.357" fill="none" stroke="#a3a6bf" stroke-linecap="round" stroke-miterlimit="10" stroke-width="11.167"/>
          <path id="Trazado_6288" data-name="Trazado 6288" d="M841.065,1358.278c-11.455,71.136-24.991,156.274-24.991,156.274" fill="none" stroke="#a3a6bf" stroke-linecap="round" stroke-miterlimit="10" stroke-width="11.167"/>
        </g>
        <path id="Trazado_6289" data-name="Trazado 6289" d="M818.174,1170.99h123.41v4.332H816.59Z" fill="#6581c1"/>
        <ellipse id="Elipse_168" data-name="Elipse 168" cx="7.321" cy="7.87" rx="7.321" ry="7.87" transform="translate(933.535 1168.034)" fill="#07113d"/>
        <ellipse id="Elipse_169" data-name="Elipse 169" cx="2.955" cy="3.324" rx="2.955" ry="3.324" transform="translate(937.902 1172.58)" fill="#4d6199"/>
        <g id="Grupo_13417" data-name="Grupo 13417">
          <path id="Trazado_6290" data-name="Trazado 6290" d="M913.07,1342.94H785.3l.927-5.257H914Z" fill="#4d6199"/>
          <path id="Trazado_6291" data-name="Trazado 6291" d="M908.514,1337.759l1.828,4.571,5.7.609.091-5.181Z" fill="#07113d"/>
        </g>
        <path id="Trazado_6292" data-name="Trazado 6292" d="M920.352,1293.434l-3.961,22.478c-.118.025-.229.043-.328.056-10.645,1.541-20.677-5.929-24.823-15.881-.044-.1-14.1-32.28-14.1-32.28l11.372-2.284s11.953,14.946,18.742,25.752a8.739,8.739,0,0,0,5.236,4.288C913.971,1296.089,917.6,1295.223,920.352,1293.434Z" fill="#444c77" opacity="0.3" style="mix-blend-mode: multiply;isolation: isolate"/>
      </g>
      <g id="Grupo_13448" data-name="Grupo 13448">
        <g id="Grupo_13447" data-name="Grupo 13447">
          <g id="Grupo_13420" data-name="Grupo 13420">
            <g id="Grupo_13419" data-name="Grupo 13419">
              <path id="Trazado_6293" data-name="Trazado 6293" d="M873.635,1244.028l-6.7-9.111a1.882,1.882,0,0,1,.381-2.615h0a1.854,1.854,0,0,1,2.6.4l6.7,9.111c.609.828,3.121,3.849,2.3,4.458l-2.684-1.843A1.854,1.854,0,0,1,873.635,1244.028Z" fill="#f4a891"/>
              <rect id="Rectángulo_3420" data-name="Rectángulo 3420" width="15.065" height="3.708" rx="1.854" transform="matrix(0.14, 0.99, -0.99, 0.14, 877.788, 1232.267)" fill="#f4a891"/>
              <path id="Trazado_6294" data-name="Trazado 6294" d="M873.354,1249.366l-8.3-10.5a1.884,1.884,0,0,1,.289-2.628h0a1.854,1.854,0,0,1,2.609.306l8.3,10.5a1.885,1.885,0,0,1-.29,2.628h0A1.853,1.853,0,0,1,873.354,1249.366Z" fill="#f4a891"/>
              <path id="Trazado_6295" data-name="Trazado 6295" d="M871.445,1252.959l-8.3-10.5a1.883,1.883,0,0,1,.289-2.627h0a1.855,1.855,0,0,1,2.609.3l8.3,10.5a1.884,1.884,0,0,1-.29,2.627h0A1.853,1.853,0,0,1,871.445,1252.959Z" fill="#f4a891"/>
            </g>
            <path id="Trazado_6296" data-name="Trazado 6296" d="M871.436,1234.914c.1.115,1.351,1.268,2.715,2.512a20.285,20.285,0,0,1,5.3,7.819l2.16,5.726s-8.611,4.677-8.951,4.4c-5.614-4.573-9.427-13.015-9.427-13.015Z" fill="#f4a891"/>
          </g>
          <path id="Trazado_6297" data-name="Trazado 6297" d="M884.072,1251.2l-2.147-5.119-14.534,6.71,3.28,5.763Z" fill="#fff"/>
          <g id="Grupo_13421" data-name="Grupo 13421">
            <path id="Trazado_6298" data-name="Trazado 6298" d="M867.718,1256.608s13.756,31.48,13.8,31.588c4.058,9.735,13.875,17.046,24.286,15.534a47.817,47.817,0,0,0,7.081-2c2.072-.812,24.315-15.755,24.315-15.755l1.983-26.041s-27.392,20.544-28.976,21.618c-2.712,1.839-6.411,2.739-7.892,2.216a8.559,8.559,0,0,1-5.128-4.2c-6.64-10.574-13.177-30.617-13.177-30.617Z" fill="#3d72b9"/>
          </g>
          <path id="Trazado_6299" data-name="Trazado 6299" d="M946.383,1489.681c.093,1.249.581,19.067.581,19.067l-13.052.246.289-22.334Z" fill="#591239"/>
          <path id="Trazado_6300" data-name="Trazado 6300" d="M952.4,1368.549c.022.15.009.978-.034,2.4-.64,20.75-4.241,133.934-4.241,133.934l-16.834-.577-4.453-132.5Z" fill="#07113d"/>
          <g id="Grupo_13423" data-name="Grupo 13423">
            <path id="Trazado_6301" data-name="Trazado 6301" d="M948.173,1519.666l-34.433.252a3.745,3.745,0,0,1-3.743-3.749h0a3.777,3.777,0,0,1,2.471-3.583l17-6.16,18.624.325Z" fill="#884c2e"/>
            <path id="Rectángulo_3421" data-name="Rectángulo 3421" d="M0,0H34.821a2.536,2.536,0,0,1,2.536,2.536v0a0,0,0,0,1,0,0H0a0,0,0,0,1,0,0V0A0,0,0,0,1,0,0Z" transform="matrix(-1, 0, 0, -1, 947.915, 1520.902)" fill="#07113d"/>
            <g id="Grupo_13422" data-name="Grupo 13422">
              <line id="Línea_507" data-name="Línea 507" x1="4.04" y1="4.39" transform="translate(925.841 1507.149)" fill="none" stroke="#07113d" stroke-linecap="round" stroke-miterlimit="10" stroke-width="1.67"/>
              <line id="Línea_508" data-name="Línea 508" x1="4.04" y1="4.39" transform="translate(922.878 1508.418)" fill="none" stroke="#07113d" stroke-linecap="round" stroke-miterlimit="10" stroke-width="1.67"/>
              <line id="Línea_509" data-name="Línea 509" x1="4.548" y1="4.978" transform="translate(919.532 1509.528)" fill="none" stroke="#07113d" stroke-linecap="round" stroke-miterlimit="10" stroke-width="1.67"/>
            </g>
          </g>
          <path id="Trazado_6302" data-name="Trazado 6302" d="M975.93,1489.464c.071,1.242.248,18.963.248,18.963l-13.054.01.679-22.2Z" fill="#591239"/>
          <path id="Trazado_6303" data-name="Trazado 6303" d="M984.057,1369.165c.019.15-.008.972-.076,2.381-1,20.615-6.577,133.056-6.577,133.056l-16.822-.876-2.14-131.786Z" fill="#07113d"/>
          <g id="Grupo_13425" data-name="Grupo 13425">
            <path id="Trazado_6304" data-name="Trazado 6304" d="M977.461,1519.37l-34.407,1.343a3.734,3.734,0,0,1-3.859-3.606h0a3.754,3.754,0,0,1,2.356-3.639l16.794-6.661,18.625-.268Z" fill="#a36440"/>
            <path id="Rectángulo_3422" data-name="Rectángulo 3422" d="M0,0H34.836a2.52,2.52,0,0,1,2.52,2.52v0a0,0,0,0,1,0,0H0a0,0,0,0,1,0,0V0A0,0,0,0,1,0,0Z" transform="matrix(-1, 0.032, -0.032, -1, 977.243, 1520.605)" fill="#07113d"/>
            <g id="Grupo_13424" data-name="Grupo 13424">
              <line id="Línea_510" data-name="Línea 510" x1="4.177" y1="4.234" transform="translate(954.747 1507.641)" fill="none" stroke="#07113d" stroke-linecap="round" stroke-miterlimit="10" stroke-width="1.666"/>
              <line id="Línea_511" data-name="Línea 511" x1="4.177" y1="4.234" transform="translate(951.825 1508.996)" fill="none" stroke="#07113d" stroke-linecap="round" stroke-miterlimit="10" stroke-width="1.666"/>
              <line id="Línea_512" data-name="Línea 512" x1="4.703" y1="4.802" transform="translate(948.515 1510.205)" fill="none" stroke="#07113d" stroke-linecap="round" stroke-miterlimit="10" stroke-width="1.666"/>
            </g>
          </g>
          <path id="Trazado_6305" data-name="Trazado 6305" d="M925.932,1365.547a15.737,15.737,0,0,0,2.595,10.291,15.481,15.481,0,0,0,11.389,6.84l26.012,2.538a14.733,14.733,0,0,0,2.288.047,15.04,15.04,0,0,0,5.492-1.318c.3-.13.6-.277.889-.433a15.679,15.679,0,0,0,8.3-12.408l.32-8.38-55.985-5.957Z" fill="#07113d"/>
          <g id="Grupo_13428" data-name="Grupo 13428">
            <path id="Trazado_6306" data-name="Trazado 6306" d="M956.377,1266.656l2.393.428a7.739,7.739,0,0,0,8.938-6.3l4.567-26a7.8,7.8,0,0,0-6.245-9.025l-2.393-.428a7.74,7.74,0,0,0-8.938,6.305l-4.567,26A7.8,7.8,0,0,0,956.377,1266.656Z" fill="#f4a891"/>
            <path id="Trazado_6307" data-name="Trazado 6307" d="M931.531,1201.932q-.069.656-.111,1.313a30.05,30.05,0,0,0,.276,6.23,29.621,29.621,0,0,0,13.615,20.75,28.927,28.927,0,0,0,12.244,4.2c7.274.777,12.986,4.713,18.546.8a29.064,29.064,0,0,0,4.908-4.333c.576-.642,1.127-1.295,1.645-1.979,3.159-4.168,6.5-15.167,7.083-20.764a29.512,29.512,0,0,0-24.7-32.336q-.658-.1-1.321-.168a29.078,29.078,0,0,0-25.033,9.845l-.01.007a29.639,29.639,0,0,0-7.14,16.434Z" fill="#a36440"/>
            <g id="Grupo_13426" data-name="Grupo 13426">
              <path id="Trazado_6308" data-name="Trazado 6308" d="M968.537,1214.416a4.823,4.823,0,0,0,.113,1.8,5.518,5.518,0,0,0,.9,2.019,5.09,5.09,0,0,0,3.331,2.021l2.967.37,2.274.289.854-6.816-.009,0,.163-1.259.121-.979.108-.9.032-.232h-.008l-5.233-.658a5,5,0,0,0-3.589.926,5.087,5.087,0,0,0-1.474,1.7A4.594,4.594,0,0,0,968.537,1214.416Z" fill="#ffc4bc"/>
              <path id="Trazado_6309" data-name="Trazado 6309" d="M933.346,1205.155l-1.365,11.022-.206,1.651a22.9,22.9,0,0,0-.175,3.241,23.27,23.27,0,0,0,16.3,21.766,8.419,8.419,0,0,0,.871.249,21.794,21.794,0,0,0,3.155.633,23.3,23.3,0,0,0,8.987-.637.027.027,0,0,0,.018-.006,23.2,23.2,0,0,0,16.538-17.572c.054-.261.107-.514.145-.779a9.03,9.03,0,0,0,.147-.931l.029-.165.1-.745.236-1.967.85-6.749,0-.067v-.009l.153-1.252.121-.979.108-.9.024-.233a18.842,18.842,0,0,0-.062-4.623,25.157,25.157,0,0,0-.578-3.114c-.029-.166-.063-.308-.1-.459a21.366,21.366,0,0,0-.775-2.47.027.027,0,0,0-.005-.018,23.418,23.418,0,0,0-5.217-8.158c-.456-.463-.931-.912-1.419-1.339a23.354,23.354,0,0,0-29.593-.84,22.449,22.449,0,0,0-5.919,7.265,17.227,17.227,0,0,0-1.4,3.4A27.963,27.963,0,0,0,933.346,1205.155Z" fill="#ffc7b0"/>
              <path id="Trazado_6310" data-name="Trazado 6310" d="M976.7,1213.784l-.849,6.842-.569,4.62,1.8.229a2.885,2.885,0,0,0,.39.027,5.963,5.963,0,0,0,6.136-5.2,5.634,5.634,0,0,0-4.628-6.2l-.009,0a2.262,2.262,0,0,0-.464-.083Z" fill="#ffc4bc"/>
            </g>
            <path id="Trazado_6311" data-name="Trazado 6311" d="M952.571,1243.747a15.23,15.23,0,0,0,8.345-.667.027.027,0,0,0,.018-.006,23.2,23.2,0,0,0,16.538-17.572,5.963,5.963,0,0,0,6.136-5.2,5.634,5.634,0,0,0-4.628-6.2v-.009l.153-1.252.121-.979.108-.9.032-.232h-.008a18.842,18.842,0,0,0-.062-4.623c-2.772-2.286-5.848-3.176-8.314.393,0,0-.13,1.791-.446,4.5-.23,2.027-.558,4.563-1.011,7.237-.915,5.5-2.319,11.581-4.374,15.053C960.8,1240.7,952.571,1243.747,952.571,1243.747Z" fill="#f4a891"/>
            <g id="Grupo_13427" data-name="Grupo 13427">
              <path id="Trazado_6312" data-name="Trazado 6312" d="M935.693,1206.389l7.191,1.288a1.314,1.314,0,0,0,1.517-1.071h0a1.324,1.324,0,0,0-1.06-1.532l-7.191-1.288a1.313,1.313,0,0,0-1.517,1.071h0A1.324,1.324,0,0,0,935.693,1206.389Z" fill="#a36440"/>
              <path id="Trazado_6313" data-name="Trazado 6313" d="M953.2,1209.523l7.19,1.288a1.315,1.315,0,0,0,1.518-1.07h0a1.325,1.325,0,0,0-1.061-1.532l-7.19-1.287a1.314,1.314,0,0,0-1.518,1.07h0A1.325,1.325,0,0,0,953.2,1209.523Z" fill="#a36440"/>
              <path id="Trazado_6314" data-name="Trazado 6314" d="M948.912,1227.872a5.356,5.356,0,0,1-4.8,1.589c-2.075-.261-4.231-1.605-4.642-3.4Z" fill="#fff"/>
              <path id="Trazado_6315" data-name="Trazado 6315" d="M941.914,1220.493c-.009.034.14.021.14.021-.171,1.173.668,2.279,3.161,2.651l1.908-9.148C943.881,1216.934,942.431,1218.617,941.914,1220.493Z" fill="#f4a891"/>
            </g>
          </g>
          <path id="Trazado_6316" data-name="Trazado 6316" d="M981.768,1377.743s-22.873-2.5-22.6-3.339.276-10.573.276-10.573-18.189-3.061-18.189-1.948-1.653,9.739-1.653,9.739l-13.5-2.505.276-14.469,58.7,6.122Z" fill="#080b2e"/>
          <g id="Grupo_13429" data-name="Grupo 13429">
            <path id="Trazado_6317" data-name="Trazado 6317" d="M937.745,1356.473l27.28,2.755,9.321-112.475-8.411-.459-7.957,21-1.749-21.064-7.117-.627Z" fill="#fff"/>
          </g>
          <g id="Grupo_13430" data-name="Grupo 13430" opacity="0.09">
            <path id="Trazado_6318" data-name="Trazado 6318" d="M951.165,1251.23c0,2.066-8.525,107.425-8.525,107.425l-5.456.344,10.052-106.221Z" fill="#080b2e"/>
            <path id="Trazado_6319" data-name="Trazado 6319" d="M971.626,1251.23,959.69,1371.05l4.774,1.033,10.762-120.716Z" fill="#080b2e"/>
          </g>
          <path id="Trazado_6320" data-name="Trazado 6320" d="M962.957,1371.381a59.257,59.257,0,0,0,7.509,1.79c1.63.29,3.485.565,5.518.785a78.129,78.129,0,0,0,9.493.441,1.952,1.952,0,0,0,.6-.138l5.552-73.8c.068-.578.129-1.149.191-1.7,1.234-11.28.852-17.684,1-27.4.028-1.4.055-2.871.109-4.428a9.378,9.378,0,0,0-.272-2.623c-1.078-4.332-5.136-7.355-9.576-9.607a82.434,82.434,0,0,0-7.856-3.333c-1.1-.427-.437-.062-1.624-.234Z" fill="#4c91db"/>
          <path id="Trazado_6321" data-name="Trazado 6321" d="M922.8,1366.891l4.514.426,10.367.968s12.087-117.826,11.021-117.425a24.938,24.938,0,0,0-5.68,3.13,29.182,29.182,0,0,0-9.855,12.138,21.888,21.888,0,0,0-1.372,4.583,1.5,1.5,0,0,0-.041.183C929.949,1280.961,922.8,1366.891,922.8,1366.891Z" fill="#4c91db"/>
          <g id="Grupo_13431" data-name="Grupo 13431">
            <path id="Trazado_6322" data-name="Trazado 6322" d="M955.786,1274.345a1.364,1.364,0,1,0,1.479-1.251A1.373,1.373,0,0,0,955.786,1274.345Z" fill="#9995a7"/>
            <path id="Trazado_6323" data-name="Trazado 6323" d="M954.575,1288.179a1.364,1.364,0,1,0,1.479-1.251A1.375,1.375,0,0,0,954.575,1288.179Z" fill="#9995a7"/>
            <path id="Trazado_6324" data-name="Trazado 6324" d="M953.365,1302.012a1.364,1.364,0,1,0,1.479-1.251A1.373,1.373,0,0,0,953.365,1302.012Z" fill="#9995a7"/>
            <path id="Trazado_6325" data-name="Trazado 6325" d="M952.154,1315.845a1.364,1.364,0,1,0,1.479-1.25A1.373,1.373,0,0,0,952.154,1315.845Z" fill="#9995a7"/>
            <path id="Trazado_6326" data-name="Trazado 6326" d="M950.943,1329.679a1.364,1.364,0,1,0,1.479-1.251A1.375,1.375,0,0,0,950.943,1329.679Z" fill="#9995a7"/>
          </g>
          <path id="Trazado_6327" data-name="Trazado 6327" d="M965.934,1246.293l1.137,8.034h6.593l.682-7.575Z" fill="#fff"/>
          <path id="Trazado_6328" data-name="Trazado 6328" d="M956.229,1246.232l-2.514,6.89-6.479-.344.852-7.4Z" fill="#fff"/>
          <path id="Trazado_6329" data-name="Trazado 6329" d="M980.029,1212.321l-1.121,5.5a1.848,1.848,0,0,1-2.589,1.32h0a1.855,1.855,0,0,1-1.03-1.286c-.562-2.54-2.268-9.854-4.126-13.794-2.273-4.821-7.729-5.05-7.729-5.05l-7.254,1.768a2.745,2.745,0,0,1-3.039-3.98l.29-.543-9.334,2.175c-2.022.471-3.289-1.529-2.667-3.528.01-.029-.005-.038-.048-.024-.369.124-5.382.248-9.914.336a2.755,2.755,0,0,1-1.776-4.881c5.611-4.663,14.5-11.067,22.147-12.211,12.277-1.837,27.963,13.083,29.1,16.527S980.029,1212.321,980.029,1212.321Z" fill="#a36440"/>
          <path id="Trazado_6330" data-name="Trazado 6330" d="M954.816,1217.383h0a.968.968,0,0,0,1.144-.754l.469-2.246a.977.977,0,0,0-.746-1.155h0a.969.969,0,0,0-1.145.753l-.468,2.246A.978.978,0,0,0,954.816,1217.383Z" fill="#07113d"/>
          <path id="Trazado_6331" data-name="Trazado 6331" d="M938.163,1214h0a.969.969,0,0,0,1.145-.753l.469-2.246a.979.979,0,0,0-.746-1.156h0a.969.969,0,0,0-1.145.753l-.469,2.246A.978.978,0,0,0,938.163,1214Z" fill="#07113d"/>
          <path id="Trazado_6332" data-name="Trazado 6332" d="M979.7,1373.805c2.851.3,2.344.647,5.781.592a1.952,1.952,0,0,0,.6-.138l5.895-76.432c.068-.579-3.017-5.188-2.955-5.739C986.691,1300.393,977.663,1373.585,979.7,1373.805Z" fill="#3d72b9"/>
          <g id="Grupo_13446" data-name="Grupo 13446">
            <g id="Grupo_13432" data-name="Grupo 13432">
              <path id="Trazado_6333" data-name="Trazado 6333" d="M983.022,1364.958l-13.168,5.592a1.9,1.9,0,0,1-2.484-1.023h0a1.923,1.923,0,0,1,1.013-2.508l13.168-5.591a1.9,1.9,0,0,1,2.484,1.023h0A1.926,1.926,0,0,1,983.022,1364.958Z" fill="#ffc7b0"/>
            </g>
            <g id="Grupo_13433" data-name="Grupo 13433">
              <path id="Trazado_6334" data-name="Trazado 6334" d="M937.437,1383.084l36.893,31.66,22.184-26.354-36.893-31.66Z" fill="#85807e"/>
              <path id="Trazado_6335" data-name="Trazado 6335" d="M937.349,1387.066l40.728,26.436,18.523-29.093-40.728-26.436Z" fill="#fff"/>
            </g>
            <g id="Grupo_13438" data-name="Grupo 13438" opacity="0.51">
              <g id="Grupo_13434" data-name="Grupo 13434">
                <path id="Trazado_6336" data-name="Trazado 6336" d="M976.93,1382.648c-.063-.157-7.4-7.621-6.312-9.367a42.757,42.757,0,0,1,6.807-8.278l4.855-4.545s6.15,6.9,6.482,7.247c4.63,4.833-6,12.571-6,12.571S978.344,1386.152,976.93,1382.648Z" fill="#85807e"/>
              </g>
              <g id="Grupo_13435" data-name="Grupo 13435">
                <path id="Trazado_6337" data-name="Trazado 6337" d="M976.468,1373.065l-10.908,10.809a2.1,2.1,0,0,1-3.063-.512h0a2.592,2.592,0,0,1-.167-3.382l10.908-10.809a2.1,2.1,0,0,1,3.063.511h0A2.593,2.593,0,0,1,976.468,1373.065Z" fill="#85807e"/>
              </g>
              <g id="Grupo_13436" data-name="Grupo 13436">
                <path id="Trazado_6338" data-name="Trazado 6338" d="M977.294,1379.219l-8.831,8.6a1.849,1.849,0,0,1-2.763-.172h0a2.281,2.281,0,0,1,.157-3.015l8.831-8.6a1.851,1.851,0,0,1,2.763.172h0A2.281,2.281,0,0,1,977.294,1379.219Z" fill="#85807e"/>
              </g>
              <g id="Grupo_13437" data-name="Grupo 13437">
                <path id="Trazado_6339" data-name="Trazado 6339" d="M984.616,1378.842l-10.452,10.175a1.85,1.85,0,0,1-2.763-.172h0a2.281,2.281,0,0,1,.157-3.015l10.452-10.175a1.85,1.85,0,0,1,2.763.171h0A2.282,2.282,0,0,1,984.616,1378.842Z" fill="#85807e"/>
              </g>
            </g>
            <g id="Grupo_13443" data-name="Grupo 13443">
              <g id="Grupo_13439" data-name="Grupo 13439">
                <path id="Trazado_6340" data-name="Trazado 6340" d="M977.33,1380.359c-.062-.141-7.172-6.835-6.118-8.4a39.128,39.128,0,0,1,6.6-7.424l4.706-4.076s5.96,6.188,6.282,6.5c4.487,4.334-5.818,11.273-5.818,11.273S978.7,1383.5,977.33,1380.359Z" fill="#ffc7b0"/>
              </g>
              <g id="Grupo_13440" data-name="Grupo 13440">
                <path id="Trazado_6341" data-name="Trazado 6341" d="M976.97,1371.856l-10.66,9.6a1.889,1.889,0,0,1-2.678-.154h0a1.934,1.934,0,0,1,.152-2.7l10.66-9.6a1.89,1.89,0,0,1,2.678.154h0A1.934,1.934,0,0,1,976.97,1371.856Z" fill="#ffc7b0"/>
              </g>
              <g id="Grupo_13441" data-name="Grupo 13441">
                <path id="Trazado_6342" data-name="Trazado 6342" d="M977.682,1377.284l-8.559,7.71a1.89,1.89,0,0,1-2.678-.154h0a1.933,1.933,0,0,1,.153-2.7l8.559-7.71a1.89,1.89,0,0,1,2.678.154h0A1.934,1.934,0,0,1,977.682,1377.284Z" fill="#ffc7b0"/>
              </g>
              <g id="Grupo_13442" data-name="Grupo 13442">
                <path id="Trazado_6343" data-name="Trazado 6343" d="M984.779,1376.945l-10.131,9.126a1.89,1.89,0,0,1-2.678-.154h0a1.935,1.935,0,0,1,.153-2.7l10.131-9.125a1.89,1.89,0,0,1,2.678.154h0A1.935,1.935,0,0,1,984.779,1376.945Z" fill="#ffc7b0"/>
              </g>
            </g>
            <g id="Grupo_13444" data-name="Grupo 13444">
              <path id="Trazado_6344" data-name="Trazado 6344" d="M979.171,1360.49l1.372-1.236,3.047-2.737,8.72,9.871,1.824,2.071-.586.526-1.282,1.162-2.544,2.288-.486-.552-6.145-6.96-2.489-2.813-.181-.2Z" fill="#e6e6e6"/>
            </g>
            <g id="Grupo_13445" data-name="Grupo 13445">
              <path id="Trazado_6345" data-name="Trazado 6345" d="M981.677,1269.649l6.789-8.213,1.138-.976c.142.169,2.082,2.49,4.818,6.275,2.335,3.235,5.259,7.544,8.146,12.5,8.838,15.189,12.972,28.791,12.3,40.437-1.4,24.2-19.48,49.068-20.248,50.114l-1.069-.8-1.966-1.471-8.1-6.061-1.14-.845-1.8-1.356-1.225-.913c.145-.2,15.459-21.356,16.531-39.792.814-14.05-5.746-28.7-12.808-38.054C982.033,1279.168,982.439,1270.555,981.677,1269.649Z" fill="#4c91db"/>
            </g>
          </g>
          <path id="Trazado_6346" data-name="Trazado 6346" d="M867.442,1252.624l-3.454-1.2,8.632-24.891,2.658-2.331.8,3.529Z" fill="#38c5fc"/>
          <path id="Trazado_6347" data-name="Trazado 6347" d="M826.018,1340.269l0-3.655,26.347-.01,3.075,1.746-3.072,1.909Z" fill="#ff4343"/>
          <rect id="Rectángulo_3423" data-name="Rectángulo 3423" width="4.042" height="8.089" rx="2.021" transform="translate(861.793 1240.71) rotate(-43.895)" fill="#ffc7b0"/>
          <rect id="Rectángulo_3424" data-name="Rectángulo 3424" width="4.044" height="8.088" rx="2.022" transform="translate(863.654 1237.954) rotate(-49.098)" fill="#ffc7b0"/>
          <rect id="Rectángulo_3425" data-name="Rectángulo 3425" width="4.043" height="8.088" rx="2.022" transform="matrix(0.811, -0.585, 0.585, 0.811, 865.271, 1232.659)" fill="#ffc7b0"/>
        </g>
      </g>
      <g id="Grupo_13487" data-name="Grupo 13487">
        <path id="Trazado_6348" data-name="Trazado 6348" d="M530.265,1231.463l7.727,4.781a12.657,12.657,0,0,1,4.608,16.511,18.99,18.99,0,0,0-.892,1.832c.293-.336-11.835-23.026-11.835-23.026" fill="#7c4b39"/>
        <rect id="Rectángulo_3426" data-name="Rectángulo 3426" width="17.335" height="32.13" rx="8.668" transform="translate(499.488 1273.239)" fill="#fcbba4"/>
        <path id="Trazado_6349" data-name="Trazado 6349" d="M541.572,1254.587c.179,1.513-6.913,4.073-7,5.67l1.153,3.205c-8.708-3.157-1.025,1.655-1.025,1.666-2.586,7.674-1.687,11.92-9.075,14.839a27.128,27.128,0,0,1-11.927,1.823c-5.649-.393-10.665,1.371-14.764-.583a8.618,8.618,0,0,1-2.407-1.7,27.479,27.479,0,0,1-3.813-4.743c-.417-.679-.822-1.358-1.192-2.073-2.228-4.3-6.786-16.932-6.416-22.116,1.024-14.632,15.043-24.427,31.177-23.319.417.029.822.036,1.239.06a27.245,27.245,0,0,1,20.71,11.94c.238.357.476.726.7,1.1v.012c1.31,2.133,2.014,11.26,2.014,11.26A16.586,16.586,0,0,1,541.572,1254.587Z" fill="#7c4b39"/>
        <path id="Trazado_6350" data-name="Trazado 6350" d="M540.922,1259.27l-.2,4.015-.346,6.661-.542,2.362c-.048,1.048-.578,6.563-.769,7.564-1.835,9.425-8.024,11.427-17.628,12.619a7.109,7.109,0,0,1-.87.083,20.764,20.764,0,0,1-3.122.072,21.039,21.039,0,0,1-3.015-.37,21.746,21.746,0,0,1-5.469-1.763.037.037,0,0,1-.024-.012,22.543,22.543,0,0,1-10-9.294,21.792,21.792,0,0,1-2.86-10.153c-.012-.25-.012-.5-.012-.762a7.746,7.746,0,0,1,.024-.906v-.155l.024-.726.107-1.9.322-6.542.012-.059V1260l.06-1.215.047-.942.048-.87.012-.226a17.642,17.642,0,0,1,.846-4.361,20.967,20.967,0,0,1,1.072-2.86c.06-.143.107-.274.179-.417a19.518,19.518,0,0,1,1.156-2.2v-.012a22.376,22.376,0,0,1,6.362-6.839c.513-.37,1.049-.715,1.585-1.037a22.931,22.931,0,0,1,12.786-3.134,19.943,19.943,0,0,1,9.824,3.229,22.628,22.628,0,0,1,5.052,4.135,21.554,21.554,0,0,1,4.444,7.877c.06.167.108.333.156.5a16.581,16.581,0,0,1,.619,2.967A27.643,27.643,0,0,1,540.922,1259.27Z" fill="#fcbba4"/>
        <path id="Trazado_6351" data-name="Trazado 6351" d="M532.813,1239.359c4.711,12.981-7.693,11.923-8.27,17.885a56.268,56.268,0,0,0-.48,6.538l-.948,3.054a2.238,2.238,0,0,1-4.385-.631v-.06l.107-4.861-2.419,6.41a36.733,36.733,0,0,1-17.361,19.614s-15.133-9-15.133-29.539a44.983,44.983,0,0,1,.3-5.112,34.659,34.659,0,0,1,.81-4.481c6.268-25.523,37.63-16.813,40.645-15.681C528.846,1233.687,532.813,1239.359,532.813,1239.359Z" fill="#7c4b39"/>
        <path id="Trazado_6352" data-name="Trazado 6352" d="M543.59,1273.027c0,.042,0,.336,0,.336-.041,1.4-1.258,2.519-4.27,2.433l.422-10.962C542.184,1268.564,543.369,1270.731,543.59,1273.027Z" fill="#fcbba4"/>
        <path id="Trazado_6353" data-name="Trazado 6353" d="M541.952,1259.76h-6.7a1.419,1.419,0,0,1-1.415-1.415h0a1.419,1.419,0,0,1,1.415-1.415h6.7a1.418,1.418,0,0,1,1.415,1.415h0A1.419,1.419,0,0,1,541.952,1259.76Z" fill="#7c4b39"/>
        <path id="Trazado_6354" data-name="Trazado 6354" d="M538.186,1264.806h0a1.014,1.014,0,0,1-1.011-1.011v-1.488a1.014,1.014,0,0,1,1.011-1.011h0a1.014,1.014,0,0,1,1.011,1.011v1.488A1.014,1.014,0,0,1,538.186,1264.806Z" fill="#081344"/>
        <path id="Trazado_6355" data-name="Trazado 6355" d="M508.7,1280.027a36.857,36.857,0,0,1-9.64,7.281s-15.133-9-15.133-29.539a44.983,44.983,0,0,1,.3-5.112,34.659,34.659,0,0,1,.81-4.481c.668,3.909,2.431,9.831,6.935,17.147C498.819,1276.452,506.254,1279.348,508.7,1280.027Z" fill="#081344" opacity="0.2"/>
        <path id="Trazado_6356" data-name="Trazado 6356" d="M539.262,1279.19l-.2,7.67c0,6.538-7.744,9.166-13.492,8.544l-9.161-.99.922-7.939,2.5-15.193-4.039-11.346,8.318,3.453v.013c-.629,9.015,5.831,16.3,14.859,15.885Z" fill="#7c4b39"/>
        <path id="Trazado_6357" data-name="Trazado 6357" d="M518.179,1259.653a1.676,1.676,0,0,1,1.666,1.687l-.039,5.707-.039,4.986-1.961-.011a3.2,3.2,0,0,1-.421-.026,6.429,6.429,0,0,1-5.848-6.39,5.913,5.913,0,0,1,1.879-4.271,6.078,6.078,0,0,1,3.953-1.661h.009a2.409,2.409,0,0,1,.509-.022Z" fill="#fcbba4"/>
        <path id="Trazado_6358" data-name="Trazado 6358" d="M701.627,1367.171s0,.29.016.831A5.053,5.053,0,0,0,701.627,1367.171Z" fill="#0c0f39" opacity="0.62"/>
        <path id="Trazado_6359" data-name="Trazado 6359" d="M701.627,1367.171s0,.29.016.831A5.053,5.053,0,0,0,701.627,1367.171Z" fill="#0c0f39" opacity="0.16" style="mix-blend-mode: multiply;isolation: isolate"/>
        <line id="Línea_513" data-name="Línea 513" y2="3.444" transform="translate(462.535 1500.54)" fill="#394679"/>
        <rect id="Rectángulo_3427" data-name="Rectángulo 3427" width="45.117" height="8.979" transform="translate(556.069 1425.762) rotate(-180)" fill="#0a194d"/>
        <rect id="Rectángulo_3428" data-name="Rectángulo 3428" width="10.146" height="133.055" transform="translate(547.236 1386.247)" fill="#9396ac"/>
        <rect id="Rectángulo_3429" data-name="Rectángulo 3429" width="10.146" height="135.791" transform="translate(509.455 1386.247)" fill="#b1aec1"/>
        <rect id="Rectángulo_3430" data-name="Rectángulo 3430" width="42.845" height="8.979" transform="translate(750.51 1426.521) rotate(-180)" fill="#9396ac"/>
        <rect id="Rectángulo_3431" data-name="Rectángulo 3431" width="10.146" height="133.055" transform="translate(741.255 1386.312)" fill="#9396ac"/>
        <rect id="Rectángulo_3432" data-name="Rectángulo 3432" width="10.146" height="135.791" transform="translate(704.354 1386.247)" fill="#b1aec1"/>
        <path id="Rectángulo_3433" data-name="Rectángulo 3433" d="M6.047,0H80.094a6.047,6.047,0,0,1,6.047,6.047v5.277a0,0,0,0,1,0,0H0a0,0,0,0,1,0,0V6.047A6.047,6.047,0,0,1,6.047,0Z" transform="translate(677.77 1375.584)" fill="#bf9645"/>
        <g id="Grupo_13449" data-name="Grupo 13449">
          <path id="Trazado_6360" data-name="Trazado 6360" d="M497.535,1379.59v7.319H722.663v-7.319a4.006,4.006,0,0,0-4.011-4H501.546A4.006,4.006,0,0,0,497.535,1379.59Z" fill="#ddba6e"/>
          <path id="Trazado_6361" data-name="Trazado 6361" d="M526.426,1375.586v11.323H603c1.346-2.95,3.521-7.769,5.065-11.323Z" fill="#bf9645"/>
        </g>
        <g id="Grupo_13461" data-name="Grupo 13461">
          <path id="Trazado_6362" data-name="Trazado 6362" d="M594.815,1375.971h57.628a5.044,5.044,0,0,0,.728-1.543l12.893-46.544a3.478,3.478,0,0,0-3.352-4.414h-50.7a3.489,3.489,0,0,0-3.352,2.551Z" fill="#ddd"/>
          <path id="Trazado_6363" data-name="Trazado 6363" d="M646.139,1376.39H592.07l14.416-52.029a3.476,3.476,0,0,1,3.35-2.546h50.657a3.476,3.476,0,0,1,3.349,4.407l-12.884,46.5A5,5,0,0,1,646.139,1376.39Z" fill="#2d2d3a"/>
          <path id="Trazado_6364" data-name="Trazado 6364" d="M660.994,1328.271l-10.529,37.917-2.209,7.942H594.614l2.2-7.942,11.013-39.642a3.219,3.219,0,0,1,3.1-2.356h46.954A3.22,3.22,0,0,1,660.994,1328.271Z" fill="#2f558c"/>
          <g id="Grupo_13456" data-name="Grupo 13456">
            <g id="Grupo_13450" data-name="Grupo 13450">
              <path id="Trazado_6365" data-name="Trazado 6365" d="M629.4,1329.348h-16.51l.368-1.161h16.51Z" fill="#eceef0"/>
              <path id="Trazado_6366" data-name="Trazado 6366" d="M644.372,1329.348h-7.817l.368-1.161h7.817Z" fill="#ea5444"/>
              <path id="Trazado_6367" data-name="Trazado 6367" d="M655.659,1329.348h-7.817l.368-1.161h7.817Z" fill="#a29fb0"/>
              <path id="Trazado_6368" data-name="Trazado 6368" d="M646.917,1329.348h-1.849l.368-1.161h1.849Z" fill="#6e89c4"/>
              <path id="Trazado_6369" data-name="Trazado 6369" d="M635.65,1329.348h-5.48l.368-1.161h5.479Z" fill="#a29fb0"/>
            </g>
            <g id="Grupo_13451" data-name="Grupo 13451">
              <path id="Trazado_6370" data-name="Trazado 6370" d="M617.9,1349.158h7.817l.368-1.161h-7.817Z" fill="#ddd"/>
              <path id="Trazado_6371" data-name="Trazado 6371" d="M606.613,1349.158h7.817L614.8,1348H606.98Z" fill="#ffc543"/>
              <path id="Trazado_6372" data-name="Trazado 6372" d="M615.354,1349.158H617.2l.368-1.161h-1.849Z" fill="#6e89c4"/>
            </g>
            <g id="Grupo_13452" data-name="Grupo 13452">
              <path id="Trazado_6373" data-name="Trazado 6373" d="M617.509,1334.3h-6.191l.368-1.161h6.191Z" fill="#ea5444"/>
              <path id="Trazado_6374" data-name="Trazado 6374" d="M632.485,1334.3h-2.658l.368-1.161h2.658Z" fill="#6e89c4"/>
              <path id="Trazado_6375" data-name="Trazado 6375" d="M654.09,1334.3H641.113l.368-1.161h12.977Z" fill="#ea5444"/>
              <path id="Trazado_6376" data-name="Trazado 6376" d="M640.189,1334.3h-7.009l.368-1.161h7.009Z" fill="#6e89c4"/>
              <path id="Trazado_6377" data-name="Trazado 6377" d="M628.922,1334.3H618.283l.368-1.161h10.639Z" fill="#6e89c4"/>
            </g>
            <g id="Grupo_13453" data-name="Grupo 13453">
              <path id="Trazado_6378" data-name="Trazado 6378" d="M608.1,1364.016h-6.191l.368-1.161h6.191Z" fill="#313d6e"/>
            </g>
            <g id="Grupo_13454" data-name="Grupo 13454">
              <path id="Trazado_6379" data-name="Trazado 6379" d="M615.941,1339.253h-6.191l.368-1.161h6.191Z" fill="#ddd"/>
              <path id="Trazado_6380" data-name="Trazado 6380" d="M626.045,1339.253h-6.191l.368-1.161h6.191Z" fill="#ddd"/>
              <path id="Trazado_6381" data-name="Trazado 6381" d="M650.8,1339.253H640.164l.368-1.161h10.639Z" fill="#6e89c4"/>
            </g>
            <g id="Grupo_13455" data-name="Grupo 13455">
              <path id="Trazado_6382" data-name="Trazado 6382" d="M608.181,1344.205H618.82l.368-1.161H608.549Z" fill="#6e89c4"/>
            </g>
          </g>
          <path id="Trazado_6383" data-name="Trazado 6383" d="M650.465,1366.188l-2.209,7.942H594.614l2.2-7.942Z" fill="#2d2d3a"/>
          <g id="Grupo_13457" data-name="Grupo 13457">
            <path id="Trazado_6384" data-name="Trazado 6384" d="M621.553,1376.513h-65.87a2.808,2.808,0,0,1-2.8-2.8h0a2.808,2.808,0,0,1,2.8-2.8h65.87a2.807,2.807,0,0,1,2.8,2.8h0A2.807,2.807,0,0,1,621.553,1376.513Z" fill="#85818e"/>
          </g>
          <path id="Trazado_6385" data-name="Trazado 6385" d="M654.473,1321.815l-33.908,48.969H599.851l33.908-48.969Z" fill="#c5cbed" opacity="0.55" style="mix-blend-mode: overlay;isolation: isolate"/>
          <g id="Grupo_13460" data-name="Grupo 13460">
            <g id="Grupo_13458" data-name="Grupo 13458">
              <path id="Trazado_6386" data-name="Trazado 6386" d="M646.455,1376.478H607.387a2.877,2.877,0,0,1-2.869-2.869h0a2.877,2.877,0,0,1,2.869-2.868h39.068a2.877,2.877,0,0,1,2.868,2.868h0A2.877,2.877,0,0,1,646.455,1376.478Z" fill="#ddd"/>
            </g>
            <g id="Grupo_13459" data-name="Grupo 13459">
              <rect id="Rectángulo_3434" data-name="Rectángulo 3434" width="5.445" height="1.633" transform="translate(627.378 1372.596)" fill="#081344"/>
              <rect id="Rectángulo_3435" data-name="Rectángulo 3435" width="3.947" height="1.633" transform="translate(621.798 1372.596)" fill="#081344"/>
            </g>
          </g>
        </g>
        <g id="Grupo_13465" data-name="Grupo 13465">
          <g id="Grupo_13463" data-name="Grupo 13463">
            <path id="Trazado_6387" data-name="Trazado 6387" d="M679.788,1361.251v14.907h12.453v-14.907a1.193,1.193,0,0,0-1.191-1.191H680.979A1.193,1.193,0,0,0,679.788,1361.251Z" fill="#f14747"/>
            <g id="Grupo_13462" data-name="Grupo 13462">
              <path id="Trazado_6388" data-name="Trazado 6388" d="M692.087,1373.607c.163-.093,3.986-2.332,4.327-6.254a3.594,3.594,0,0,0-.934-2.936,5.453,5.453,0,0,0-3.9-1.318l.1,1.82a3.7,3.7,0,0,1,2.492.769,1.825,1.825,0,0,1,.423,1.507c-.259,2.984-3.387,4.814-3.418,4.832Z" fill="#f14747"/>
            </g>
          </g>
          <path id="Trazado_6389" data-name="Trazado 6389" d="M685.608,1376.158h6.633v-14.907a1.193,1.193,0,0,0-1.191-1.191h-.4c-.018.778-.23,6.725-1.9,11.007C687.3,1374.8,686,1375.9,685.608,1376.158Z" fill="#f14747"/>
          <g id="Grupo_13464" data-name="Grupo 13464">
            <path id="Trazado_6390" data-name="Trazado 6390" d="M695.479,1364.416a5.056,5.056,0,0,0-3.238-1.312v-1.853a1.192,1.192,0,0,0-1.191-1.19h-.4c-.019.777-.231,6.724-1.9,11.007-1.452,3.73-2.746,4.829-3.14,5.091h6.633v-2.649c.741-.462,3.87-2.63,4.173-6.16A3.6,3.6,0,0,0,695.479,1364.416Zm-.881,2.776a6.3,6.3,0,0,1-2.357,4.052v-6.305a3.224,3.224,0,0,1,1.932.747A1.824,1.824,0,0,1,694.6,1367.192Z" fill="#6c1a48" opacity="0.37"/>
          </g>
        </g>
        <g id="Grupo_13486" data-name="Grupo 13486">
          <g id="Grupo_13485" data-name="Grupo 13485">
            <g id="Grupo_13466" data-name="Grupo 13466">
              <path id="Trazado_6391" data-name="Trazado 6391" d="M530.771,1519.366l32.7-.677a3.533,3.533,0,0,0,3.458-3.6h0a3.533,3.533,0,0,0-2.437-3.285l-16.3-5.308-17.676.8Z" fill="#884c2e"/>
              <path id="Trazado_6392" data-name="Trazado 6392" d="M564.145,1519.583l-33.1.932-.067-2.372,35.469-1h0A2.372,2.372,0,0,1,564.145,1519.583Z" fill="#0a194d"/>
            </g>
            <g id="Grupo_13467" data-name="Grupo 13467">
              <line id="Línea_514" data-name="Línea 514" y1="4.212" x2="3.724" transform="translate(547.93 1507.072)" fill="none" stroke="#0a194d" stroke-linecap="round" stroke-miterlimit="10" stroke-width="1.185"/>
              <line id="Línea_515" data-name="Línea 515" y1="4.212" x2="3.724" transform="translate(550.777 1508.18)" fill="none" stroke="#0a194d" stroke-linecap="round" stroke-miterlimit="10" stroke-width="1.185"/>
              <line id="Línea_516" data-name="Línea 516" y1="4.775" x2="4.191" transform="translate(553.515 1509.129)" fill="none" stroke="#0a194d" stroke-linecap="round" stroke-miterlimit="10" stroke-width="1.185"/>
            </g>
            <g id="Grupo_13468" data-name="Grupo 13468">
              <path id="Trazado_6393" data-name="Trazado 6393" d="M529.244,1508.079c1.9-31.9,1.386-61.4-1.1-67.371-2.549-3.709-22.417-11.748-42.276-12.615l9.293-20.287c26.046,1.309,44.664,11.081,51.176,22.25,2.749,4.714,5.137,14.223,3.849,46.754-.675,17.038-1.507,30.386-1.507,30.386Z" fill="#0a0a2c"/>
            </g>
            <g id="Grupo_13469" data-name="Grupo 13469">
              <path id="Trazado_6394" data-name="Trazado 6394" d="M559.495,1519.618l32.706.246a3.531,3.531,0,0,0,3.558-3.505h0a3.532,3.532,0,0,0-2.344-3.352l-16.139-5.766-17.691.3Z" fill="#a36440"/>
              <path id="Trazado_6395" data-name="Trazado 6395" d="M592.849,1520.777l-33.11,0V1518.4l35.483,0h0A2.372,2.372,0,0,1,592.849,1520.777Z" fill="#0a194d"/>
            </g>
            <g id="Grupo_13470" data-name="Grupo 13470">
              <line id="Línea_517" data-name="Línea 517" y1="4.105" x2="3.841" transform="translate(576.875 1507.919)" fill="none" stroke="#0a194d" stroke-linecap="round" stroke-miterlimit="10" stroke-width="1.185"/>
              <line id="Línea_518" data-name="Línea 518" y1="4.105" x2="3.841" transform="translate(579.689 1509.106)" fill="none" stroke="#0a194d" stroke-linecap="round" stroke-miterlimit="10" stroke-width="1.185"/>
              <line id="Línea_519" data-name="Línea 519" y1="4.654" x2="4.324" transform="translate(582.384 1510.145)" fill="none" stroke="#0a194d" stroke-linecap="round" stroke-miterlimit="10" stroke-width="1.185"/>
            </g>
            <g id="Grupo_13471" data-name="Grupo 13471">
              <path id="Trazado_6396" data-name="Trazado 6396" d="M558.3,1508.079c1.9-31.9,1.386-61.4-1.1-67.371-2.549-3.709-22.417-11.748-42.275-12.615l9.292-20.287c26.046,1.309,44.664,11.081,51.176,22.25,2.749,4.714,5.137,14.223,3.849,46.754-.675,17.038-1.507,30.386-1.507,30.386Z" fill="#25253a"/>
            </g>
            <path id="Trazado_6397" data-name="Trazado 6397" d="M530.312,1413.643a14.775,14.775,0,0,1-14.771,14.764H490.717a14.059,14.059,0,0,1-2.167-.165,14.41,14.41,0,0,1-5.073-1.736c-.275-.149-.542-.314-.8-.487a14.744,14.744,0,0,1-6.722-12.376l.455-7.877,53.471-.463Z" fill="#25253a"/>
            <g id="Grupo_13474" data-name="Grupo 13474">
              <g id="Grupo_13473" data-name="Grupo 13473">
                <g id="Grupo_13472" data-name="Grupo 13472">
                  <path id="Trazado_6398" data-name="Trazado 6398" d="M547.365,1371.574l12.8-2.046a1.725,1.725,0,0,0,1.427-1.97h0a1.725,1.725,0,0,0-1.971-1.427l-12.795,2.045a1.725,1.725,0,0,0-1.427,1.97h0A1.725,1.725,0,0,0,547.365,1371.574Z" fill="#ffc7b0"/>
                  <path id="Trazado_6399" data-name="Trazado 6399" d="M551.439,1375.033l10.274-1.642a1.725,1.725,0,0,0,1.427-1.971h0a1.725,1.725,0,0,0-1.97-1.427l-10.274,1.642a1.726,1.726,0,0,0-1.427,1.971h0A1.725,1.725,0,0,0,551.439,1375.033Z" fill="#ffc7b0"/>
                  <path id="Trazado_6400" data-name="Trazado 6400" d="M549.064,1379.519l12.16-1.943a1.727,1.727,0,0,0,1.428-1.971h0a1.726,1.726,0,0,0-1.971-1.427l-12.16,1.943a1.726,1.726,0,0,0-1.427,1.971h0A1.725,1.725,0,0,0,549.064,1379.519Z" fill="#ffc7b0"/>
                </g>
                <path id="Trazado_6401" data-name="Trazado 6401" d="M552.888,1368.265c-.137.016-1.706-.005-3.407-.033a18.512,18.512,0,0,0-8.478,1.9l-5.047,2.483s2.891,8.576,3.289,8.648c9.73,1.759,13.067-2.658,13.067-2.658Z" fill="#ffc7b0"/>
              </g>
              <rect id="Rectángulo_3436" data-name="Rectángulo 3436" width="4.319" height="14.037" transform="translate(541.036 1368.231)" fill="#fff"/>
            </g>
            <g id="Grupo_13475" data-name="Grupo 13475">
              <path id="Trazado_6402" data-name="Trazado 6402" d="M512.733,1383.792a26.23,26.23,0,0,1-23.772-15.2l-.211-.457-13.328-40.7,16.419-5.376,12.988,39.663a8.928,8.928,0,0,0,7.992,4.8l28.313-.28.171,17.275-28.313.281Z" fill="#49a352"/>
            </g>
            <g id="Grupo_13477" data-name="Grupo 13477">
              <g id="Grupo_13476" data-name="Grupo 13476">
                <path id="Trazado_6403" data-name="Trazado 6403" d="M604.9,1365.8a10.714,10.714,0,0,0-4.589-4.388l-.045-.022a18.5,18.5,0,0,0-8.484-1.874l-5.623.109s-1.13,13.33-1.057,12.932c.145-.792,5.414-1.584,19.685-1.584a1.75,1.75,0,0,0,1.558-2.6Z" fill="#ffc7b0"/>
              </g>
              <rect id="Rectángulo_3437" data-name="Rectángulo 3437" width="5.366" height="14.378" transform="translate(583.193 1359.254)" fill="#fff"/>
            </g>
            <path id="Trazado_6404" data-name="Trazado 6404" d="M474.179,1417.962s5.536.61,13.021.928c1.359.066,2.791.112,4.256.146,8.644.218,18.768-.073,25.961-1.936a69.846,69.846,0,0,0,10.156-3.4c1.014-.444,1.883-.861,2.632-1.259a15.929,15.929,0,0,0,3.944-2.658.07.07,0,0,1,.014-.02l.411-46.175.311-36.263A25.882,25.882,0,0,0,509,1301.449h-8.751a26.427,26.427,0,0,0-4.495.384,25.633,25.633,0,0,0-4.388,1.18c-.007,0-.007.007-.014.007a25.9,25.9,0,0,0-16.984,24.31Z" fill="#61da6d"/>
            <path id="Trazado_6405" data-name="Trazado 6405" d="M474.179,1417.962s5.536.61,13.021.928c1.359.066,2.791.112,4.256.146,4.614.119,9.659.086,14.445-.252l.212-97.6a29.2,29.2,0,0,1,7.3-19.358,25.407,25.407,0,0,0-4.409-.378h-8.751a26.427,26.427,0,0,0-4.495.384,25.633,25.633,0,0,0-4.388,1.18c-.007,0-.007.007-.014.007a25.9,25.9,0,0,0-16.984,24.31Z" fill="#49a352" opacity="0.33"/>
            <g id="Grupo_13483" data-name="Grupo 13483">
              <g id="Grupo_13478" data-name="Grupo 13478">
                <rect id="Rectángulo_3438" data-name="Rectángulo 3438" width="8.737" height="48.574" transform="translate(494.517 1446.33)" fill="#394679"/>
                <path id="Trazado_6406" data-name="Trazado 6406" d="M503.253,1449.157v10.978l-8.736-3.187v-7.431C496.7,1449.419,500.911,1449.254,503.253,1449.157Z" fill="#0a194d"/>
              </g>
              <rect id="Rectángulo_3439" data-name="Rectángulo 3439" width="46.847" height="7.36" rx="3.68" transform="translate(476.184 1442.898)" fill="#394679"/>
              <g id="Grupo_13480" data-name="Grupo 13480">
                <g id="Grupo_13479" data-name="Grupo 13479">
                  <path id="Trazado_6407" data-name="Trazado 6407" d="M535.565,1512.843H530.1c0-6.155-5.312-11.162-11.842-11.162H478.438c-6.53,0-11.842,5.007-11.842,11.162H461.13c0-9,7.764-16.314,17.308-16.314h39.819C527.8,1496.529,535.565,1503.847,535.565,1512.843Z" fill="#0a194d"/>
                </g>
                <rect id="Rectángulo_3440" data-name="Rectángulo 3440" width="12.753" height="10.642" transform="translate(492.45 1487.057)" fill="#0a194d"/>
              </g>
              <g id="Grupo_13481" data-name="Grupo 13481">
                <path id="Trazado_6408" data-name="Trazado 6408" d="M468.2,1517.825a4.548,4.548,0,1,1-4.54-4.28A4.416,4.416,0,0,1,468.2,1517.825Z" fill="#0a194d"/>
                <path id="Rectángulo_3441" data-name="Rectángulo 3441" d="M6.212,0h0a6.212,6.212,0,0,1,6.212,6.212v.719a0,0,0,0,1,0,0H0a0,0,0,0,1,0,0V6.212A6.212,6.212,0,0,1,6.212,0Z" transform="translate(457.777 1510.516)" fill="#394679"/>
                <path id="Trazado_6409" data-name="Trazado 6409" d="M537.628,1517.825a4.548,4.548,0,1,1-4.54-4.28A4.415,4.415,0,0,1,537.628,1517.825Z" fill="#0a194d"/>
                <path id="Rectángulo_3442" data-name="Rectángulo 3442" d="M6.212,0h0a6.212,6.212,0,0,1,6.212,6.212v.719a0,0,0,0,1,0,0H0a0,0,0,0,1,0,0V6.212A6.212,6.212,0,0,1,6.212,0Z" transform="translate(527.211 1510.516)" fill="#394679"/>
              </g>
              <rect id="Rectángulo_3443" data-name="Rectángulo 3443" width="7.234" height="15.455" transform="translate(495.118 1498.124)" fill="#0a194d"/>
              <g id="Grupo_13482" data-name="Grupo 13482">
                <path id="Trazado_6410" data-name="Trazado 6410" d="M503.427,1517.825a4.548,4.548,0,1,1-4.54-4.28A4.415,4.415,0,0,1,503.427,1517.825Z" fill="#0a194d"/>
                <path id="Rectángulo_3444" data-name="Rectángulo 3444" d="M6.212,0h0a6.212,6.212,0,0,1,6.212,6.212v.719a0,0,0,0,1,0,0H0a0,0,0,0,1,0,0V6.212A6.212,6.212,0,0,1,6.212,0Z" transform="translate(493.01 1510.516)" fill="#394679"/>
              </g>
            </g>
            <path id="Trazado_6411" data-name="Trazado 6411" d="M429.321,1351.963l11.7,84.462a10.637,10.637,0,0,0,10.206,9.173l26.649.489L461.6,1339.882l-21.726-.016A10.637,10.637,0,0,0,429.321,1351.963Z" fill="#6c1a48"/>
            <rect id="Rectángulo_3445" data-name="Rectángulo 3445" width="86.7" height="18.402" rx="9.201" transform="translate(466.848 1427.685)" fill="#f14747"/>
            <rect id="Rectángulo_3446" data-name="Rectángulo 3446" width="26.7" height="7.46" transform="translate(491.419 1295.557)" fill="#fff"/>
            <path id="Trazado_6412" data-name="Trazado 6412" d="M465.738,1434.465l-12.4-86.619a7.189,7.189,0,0,1,6.438-7.964h0a7.468,7.468,0,0,1,8.449,6.07l12.4,86.619a7.188,7.188,0,0,1-6.439,7.963h0C470.093,1441.055,467.974,1443.949,465.738,1434.465Z" fill="#f14747"/>
            <path id="Trazado_6413" data-name="Trazado 6413" d="M518.027,1327.695c1.014,4.4,7.073,31.7,9.864,44.271h0l-.32,41.739c1.014-.444,1.883-.861,2.632-1.259a15.929,15.929,0,0,0,3.944-2.658.07.07,0,0,1,.014-.02l.411-46.175C533.373,1361.957,516.7,1321.947,518.027,1327.695Z" fill="#49a352" opacity="0.48"/>
            <g id="Grupo_13484" data-name="Grupo 13484">
              <path id="Trazado_6414" data-name="Trazado 6414" d="M556.71,1375.939a26.23,26.23,0,0,1-23.772-15.2l-19.192-41.532,15.683-7.247,19.192,41.531a8.878,8.878,0,0,0,8.177,5.172l28.313-.28.171,17.276-28.313.28Z" fill="#61da6d"/>
            </g>
          </g>
        </g>
      </g>
      <g id="Grupo_13488" data-name="Grupo 13488">
        <rect id="Rectángulo_3447" data-name="Rectángulo 3447" width="16.35" height="16.35" transform="translate(600.487 1185.098)" fill="#5d5d5d" opacity="0.27" style="mix-blend-mode: multiply;isolation: isolate"/>
        <rect id="Rectángulo_3448" data-name="Rectángulo 3448" width="16.35" height="16.35" transform="translate(599.506 1183.79)" fill="#ffa21a"/>
      </g>
      <g id="Grupo_13489" data-name="Grupo 13489">
        <rect id="Rectángulo_3449" data-name="Rectángulo 3449" width="16.35" height="16.35" transform="matrix(0.055, -0.998, 0.998, 0.055, 579.532, 1201.423)" fill="#5d5d5d" opacity="0.27" style="mix-blend-mode: multiply;isolation: isolate"/>
        <rect id="Rectángulo_3450" data-name="Rectángulo 3450" width="16.35" height="16.35" transform="translate(578.551 1200.115) rotate(-86.852)" fill="#64dbff"/>
      </g>
      <g id="Grupo_13490" data-name="Grupo 13490">
        <rect id="Rectángulo_3451" data-name="Rectángulo 3451" width="16.351" height="16.35" transform="matrix(0.984, -0.176, 0.176, 0.984, 599.258, 1194.967)" fill="#5d5d5d" opacity="0.27" style="mix-blend-mode: multiply;isolation: isolate"/>
        <rect id="Rectángulo_3452" data-name="Rectángulo 3452" width="16.351" height="16.35" transform="matrix(0.984, -0.176, 0.176, 0.984, 598.277, 1193.659)" fill="#ffe527"/>
      </g>
      <path id="Trazado_6415" data-name="Trazado 6415" d="M581.98,1188.627c1.2.062,2.168.76,3.353.884a36.239,36.239,0,0,0,3.713-.024c1.178,0,3.089-.465,3.813.75a.645.645,0,0,1-1.114.651c-.336-.563-4.419-.115-4.977-.1a9.664,9.664,0,0,1-2.075-.061,18.589,18.589,0,0,0-2.713-.806C581.153,1189.874,581.148,1188.584,581.98,1188.627Z" fill="#695c70"/>
      <path id="Trazado_6416" data-name="Trazado 6416" d="M583.915,1191.852c2.033.04,4.292.051,6.132.949.746.364.093,1.477-.651,1.114-1.579-.77-3.735-.738-5.481-.772A.646.646,0,0,1,583.915,1191.852Z" fill="#695c70"/>
      <path id="Trazado_6417" data-name="Trazado 6417" d="M601.377,1196.822a19.847,19.847,0,0,1,4.355-.865,27,27,0,0,0,5.752-1.286c.774-.3,1.109.944.344,1.244a22.359,22.359,0,0,1-4.872,1.252,22.768,22.768,0,0,0-5.236.9C600.952,1198.379,600.617,1197.131,601.377,1196.822Z" fill="#695c70"/>
      <path id="Trazado_6418" data-name="Trazado 6418" d="M601.979,1199.809c1.7-.015,3.136-.871,4.768-1.08a14.575,14.575,0,0,0,2.694-.4,7.575,7.575,0,0,1,2.215-.453c.83-.028.83,1.263,0,1.29a13.513,13.513,0,0,0-2.722.689c-.83.194-1.71.036-2.533.244a18.269,18.269,0,0,1-4.422,1A.645.645,0,0,1,601.979,1199.809Z" fill="#695c70"/>
      <path id="Trazado_6419" data-name="Trazado 6419" d="M607.544,1201.5a2.649,2.649,0,0,1,1.929-.467c.874.048,1.737.063,2.613.063a.646.646,0,0,1,0,1.291c-.665,0-1.336.025-2-.016-.417-.026-1.271-.244-1.629.042C607.814,1202.929,606.9,1202.022,607.544,1201.5Z" fill="#695c70"/>
      <path id="Trazado_6420" data-name="Trazado 6420" d="M602.6,1188.025c-.025-.12,8.488-.258,9.055-.258a.645.645,0,0,1,0,1.29c-1.876,0-3.766-.068-5.641,0a18.065,18.065,0,0,1-4.171-.064.628.628,0,0,1-.451-.451l-.036-.178C601.19,1187.558,602.433,1187.211,602.6,1188.025Z" fill="#695c70"/>
    </g>
  </g>
</svg>
