<svg xmlns="http://www.w3.org/2000/svg" width="102.645" height="102.732" viewBox="0 0 102.645 102.732">
  <g id="Grupo_2498" data-name="Grupo 2498" transform="translate(-190.009 -1864.13)">
    <path id="Trazado_2002" data-name="Trazado 2002" d="M285.464,1873.117H247.713a5.685,5.685,0,0,0-5.685,5.685v21.354a5.685,5.685,0,0,0,5.685,5.685h13.429l-2.17,8.761a1.242,1.242,0,0,0,1.963,1.283l13.076-10.044h11.453a5.685,5.685,0,0,0,5.686-5.685V1878.8a5.686,5.686,0,0,0-5.686-5.685Zm0,0" fill="#88dbfd"/>
    <path id="Trazado_2003" data-name="Trazado 2003" d="M260.65,1907.826l-1.678,6.776a1.242,1.242,0,0,0,1.963,1.283l13.076-10.044H263.233Zm0,0" fill="#5abfe9"/>
    <path id="Trazado_2004" data-name="Trazado 2004" d="M285.464,1873.117H274.686a5.685,5.685,0,0,1,5.685,5.685v21.354a5.685,5.685,0,0,1-5.685,5.685h10.778a5.685,5.685,0,0,0,5.685-5.685V1878.8a5.685,5.685,0,0,0-5.685-5.685Zm0,0" fill="#5abfe9"/>
    <path id="Trazado_2005" data-name="Trazado 2005" d="M270.8,1940.465c-.283-4.825-3.346-8.756-7.9-10.892-5.579-2.612-20.775-6.565-20.775-6.565a3.1,3.1,0,0,1-2.534-3.047v-8.686H223.07v8.686a3.1,3.1,0,0,1-2.534,3.047s-15.195,3.953-20.775,6.565c-4.559,2.136-7.622,6.067-7.9,10.892l-.342,20.708a4.134,4.134,0,0,0,4.133,4.184h71.365a4.134,4.134,0,0,0,4.134-4.184Zm0,0" fill="#fcc18b"/>
    <path id="Trazado_2006" data-name="Trazado 2006" d="M270.8,1940.465c-.283-4.825-3.346-8.756-7.9-10.892-5.579-2.612-20.775-6.565-20.775-6.565a3.1,3.1,0,0,1-2.534-3.047v-8.686H228.812v13.9a3.1,3.1,0,0,0,2.533,3.046s15.2,3.954,20.776,6.566c4.558,2.135,7.621,6.067,7.9,10.891l.326,19.683h6.661a4.134,4.134,0,0,0,4.134-4.184Zm0,0" fill="#eaab65"/>
    <path id="Trazado_2007" data-name="Trazado 2007" d="M214.2,1889.285h-2.168a3.349,3.349,0,0,0-3.3,4.035l.852,4.689c.661,3.475,4.624,1.887,4.624,1.887Zm0,0" fill="#eaab65"/>
    <path id="Trazado_2008" data-name="Trazado 2008" d="M248.456,1889.285h2.168a3.349,3.349,0,0,1,3.3,4.035l-.852,4.689c-.661,3.475-4.624,1.887-4.624,1.887Zm0,0" fill="#fcc18b"/>
    <path id="Trazado_2009" data-name="Trazado 2009" d="M243.35,1871.463a17.077,17.077,0,0,0-24.041,0,18.182,18.182,0,0,0-5.545,13.362l0,17.772c0,8.4,10.921,17.1,17.562,17.1s17.561-8.7,17.561-17.1l0-17.772a18.186,18.186,0,0,0-5.546-13.362Zm0,0" fill="#fcc18b"/>
    <path id="Trazado_2010" data-name="Trazado 2010" d="M243.35,1871.463a17.74,17.74,0,0,0-12.02-4.947,17.26,17.26,0,0,0-5.389.916,18.661,18.661,0,0,1,6.631,4.031,18.183,18.183,0,0,1,5.546,13.362l0,17.772c0,6.357-6.252,12.886-12.172,15.686a13.054,13.054,0,0,0,5.388,1.417c6.641,0,17.562-8.7,17.562-17.1l0-17.772a18.182,18.182,0,0,0-5.545-13.362Zm0,0" fill="#eaab65"/>
    <path id="Trazado_2011" data-name="Trazado 2011" d="M242.2,1865.635H220.463a10.124,10.124,0,0,0-10.125,10.125v13.971a6.992,6.992,0,0,1,4.58,1.71.593.593,0,0,0,1.007-.426v-10.949a4.476,4.476,0,0,1,4.475-4.476h4.067a4.621,4.621,0,0,1,2.926,1.044l.4.326a5.589,5.589,0,0,0,7.075,0l.4-.326a4.621,4.621,0,0,1,2.926-1.044h4.066a4.476,4.476,0,0,1,4.476,4.476v10.95a.594.594,0,0,0,1.008.426,6.986,6.986,0,0,1,4.579-1.711V1875.76a10.125,10.125,0,0,0-10.125-10.125Zm0,0" fill="#805413"/>
    <path id="Trazado_2012" data-name="Trazado 2012" d="M242.2,1865.635h-3.759c1.892,2.226,3.078,5.571,3.108,9.955h.714a4.476,4.476,0,0,1,4.475,4.476v10.95a.594.594,0,0,0,1.008.426,6.986,6.986,0,0,1,4.579-1.711V1875.76a10.125,10.125,0,0,0-10.125-10.125Zm0,0" fill="#603f0e"/>
    <path id="Trazado_2013" data-name="Trazado 2013" d="M262.9,1929.573a122.951,122.951,0,0,0-14.62-4.879l-1.053.4a44.879,44.879,0,0,1-31.791,0l-1.053-.4a122.95,122.95,0,0,0-14.62,4.879c-4.559,2.136-7.622,6.067-7.9,10.892l-.342,20.708a4.134,4.134,0,0,0,4.133,4.184h71.365a4.134,4.134,0,0,0,4.134-4.184l-.343-20.708c-.283-4.825-3.346-8.756-7.9-10.892Zm0,0" fill="#33bca5"/>
    <path id="Trazado_2014" data-name="Trazado 2014" d="M256.666,1960.168H205.238a2.981,2.981,0,0,1-2.973-2.769l-2.1-29.511a2.982,2.982,0,0,1,2.974-3.194h55.633a2.982,2.982,0,0,1,2.974,3.194l-2.1,29.511a2.981,2.981,0,0,1-2.973,2.769Zm0,0" fill="#f2f2f2"/>
    <path id="Trazado_2015" data-name="Trazado 2015" d="M258.769,1924.694H247.912a2.982,2.982,0,0,1,2.974,3.194l-2.3,32.28h8.08a2.98,2.98,0,0,0,2.973-2.769l2.1-29.511a2.982,2.982,0,0,0-2.974-3.194Zm0,0" fill="#cdd6df"/>
    <path id="Trazado_2016" data-name="Trazado 2016" d="M260.354,1965.357H202.3a2.595,2.595,0,1,1,0-5.189h58.049a2.595,2.595,0,1,1,0,5.189Zm0,0" fill="#cdd6df"/>
    <path id="Trazado_2017" data-name="Trazado 2017" d="M235.482,1943.621a4.152,4.152,0,1,1-4.153-4.152,4.153,4.153,0,0,1,4.153,4.152Zm0,0" fill="#fff"/>
    <path id="Trazado_2018" data-name="Trazado 2018" d="M264.416,1887.614a1.4,1.4,0,0,0-1.264-1.356.555.555,0,0,0-.353.093l-4.721,3.066a1.229,1.229,0,0,0,0,2.082l4.721,3.066a.561.561,0,0,0,.353.093,1.405,1.405,0,0,0,1.264-1.356.853.853,0,0,0-.335-.726l-3.271-2.118,3.271-2.119a.853.853,0,0,0,.335-.725Zm0,0" fill="#4d4d4d"/>
    <path id="Trazado_2019" data-name="Trazado 2019" d="M273.764,1881.259a.818.818,0,0,0-.781.464l-6.523,13.4a.834.834,0,0,0-.093.354,1.028,1.028,0,0,0,1.041.984.933.933,0,0,0,.837-.464l6.541-13.4a.807.807,0,0,0,.075-.354,1.066,1.066,0,0,0-1.1-.984Zm0,0" fill="#4d4d4d"/>
    <path id="Trazado_2020" data-name="Trazado 2020" d="M283.149,1889.417l-4.72-3.066a.557.557,0,0,0-.353-.093,1.4,1.4,0,0,0-1.264,1.356.85.85,0,0,0,.335.725l3.271,2.119-3.271,2.118a.853.853,0,0,0-.335.726,1.4,1.4,0,0,0,1.264,1.356.562.562,0,0,0,.353-.093l4.72-3.066a1.229,1.229,0,0,0,0-2.082Zm0,0" fill="#4d4d4d"/>
    <path id="Trazado_2021" data-name="Trazado 2021" d="M285.464,1871.612h-32.4a11.65,11.65,0,0,0-10.866-7.482H220.463a11.644,11.644,0,0,0-11.63,11.63v13.206a4.905,4.905,0,0,0-1.58,4.622l.854,4.7a4.1,4.1,0,0,0,1.829,2.857,4.428,4.428,0,0,0,2.328.616v.835c0,4.239,2.472,8.91,6.784,12.817a27.328,27.328,0,0,0,2.517,2.026v2.521a1.6,1.6,0,0,1-1.3,1.568c-.035.006-.069.014-.1.023s-2.609.68-5.986,1.638H203.136a4.484,4.484,0,0,0-4.475,4.805l.03.425a14.405,14.405,0,0,0-8.337,11.956l0,.064-.342,20.715a5.637,5.637,0,0,0,5.638,5.707h71.365a5.639,5.639,0,0,0,5.638-5.714l-.342-20.708,0-.064c-.3-5.189-3.582-9.736-8.769-12.166l-.3-.136,0-.079a4.484,4.484,0,0,0-4.475-4.805h-10.28c-3.377-.958-5.961-1.631-5.987-1.638s-.069-.017-.1-.023a1.6,1.6,0,0,1-1.3-1.568v-2.52a27.527,27.527,0,0,0,2.517-2.027,21.98,21.98,0,0,0,5.83-8.068h9.778l-1.708,6.893a2.715,2.715,0,0,0,1.162,2.96,2.715,2.715,0,0,0,3.178-.12l12.671-9.733h10.942a7.2,7.2,0,0,0,7.19-7.19V1878.8a7.2,7.2,0,0,0-7.19-7.19ZM250.4,1891.565a6.474,6.474,0,0,1,1.475-.308,1.942,1.942,0,0,1,.571,1.793l-.85,4.677c-.123.653-.374.809-.456.86a1.483,1.483,0,0,1-.742.167Zm-38.556-15.8a8.63,8.63,0,0,1,8.62-8.62H242.2a8.63,8.63,0,0,1,8.62,8.62v12.608a8.773,8.773,0,0,0-2.577.867v-9.169a5.987,5.987,0,0,0-5.98-5.981h-4.067a6.148,6.148,0,0,0-3.879,1.384l-.4.326a4.088,4.088,0,0,1-5.171,0l-.4-.327a6.146,6.146,0,0,0-3.879-1.384H220.4a5.987,5.987,0,0,0-5.98,5.981v9.168a8.768,8.768,0,0,0-2.577-.866Zm-.322,22.827c-.083-.051-.334-.207-.455-.847l-.852-4.689a1.946,1.946,0,0,1,.57-1.794,6.491,6.491,0,0,1,1.476.308l0,7.189a1.481,1.481,0,0,1-.741-.167Zm-13.315,64.175a4.08,4.08,0,0,0,.147,1.09h-2.706a2.627,2.627,0,0,1-2.629-2.654l.342-20.676a11.047,11.047,0,0,1,5.567-8.795l1.837,25.778a4.437,4.437,0,0,0,.311,1.347,4.1,4.1,0,0,0-2.869,3.91Zm62.934-5.257,1.867-26.193a11.2,11.2,0,0,1,6.292,9.21l.342,20.669a2.627,2.627,0,0,1-2.629,2.661h-2.706a4.04,4.04,0,0,0,.147-1.09,4.1,4.1,0,0,0-3.564-4.064,4.455,4.455,0,0,0,.251-1.193Zm.3,5.257a1.091,1.091,0,0,1-1.09,1.09H202.3a1.09,1.09,0,1,1,0-2.179h58.049a1.091,1.091,0,0,1,1.09,1.089Zm-1.594-36.092a1.459,1.459,0,0,1,.392,1.111l-2.1,29.511a1.482,1.482,0,0,1-1.473,1.371H205.238a1.481,1.481,0,0,1-1.472-1.372l-2.1-29.51a1.477,1.477,0,0,1,1.473-1.582h55.633a1.462,1.462,0,0,1,1.081.471Zm-20.443-3.48H223.252a4.6,4.6,0,0,0,1.322-3.229v-.673a12.86,12.86,0,0,0,13.51,0v.673a4.6,4.6,0,0,0,1.323,3.229Zm2.183-10.006c-3.36,3.044-7.387,5.011-10.261,5.011s-6.9-1.967-10.26-5.011c-3.683-3.337-5.8-7.2-5.8-10.588l0-9.48h.059a2.106,2.106,0,0,0,2.1-2.1v-10.949a2.975,2.975,0,0,1,2.971-2.971h4.067a3.125,3.125,0,0,1,1.973.7l.4.327a7.093,7.093,0,0,0,8.979,0l.4-.326a3.128,3.128,0,0,1,1.974-.7h4.066a2.976,2.976,0,0,1,2.972,2.971v10.949a2.1,2.1,0,0,0,2.158,2.1l0,9.481c0,3.391-2.112,7.25-5.8,10.587Zm48.054-13.028a4.184,4.184,0,0,1-4.18,4.18H274.011a1.5,1.5,0,0,0-.916.312l-12.483,9.588,1.99-8.033a1.5,1.5,0,0,0-1.46-1.867h-10.88a11.563,11.563,0,0,0,.134-1.739v-.835a4.427,4.427,0,0,0,2.327-.616,4.1,4.1,0,0,0,1.831-2.868l.852-4.69a4.9,4.9,0,0,0-1.58-4.622V1875.76q0-.576-.056-1.138h31.694a4.184,4.184,0,0,1,4.18,4.18Zm0,0" fill="#4d4d4d"/>
    <path id="Trazado_2022" data-name="Trazado 2022" d="M231.329,1949.279a5.658,5.658,0,1,0-5.657-5.658,5.664,5.664,0,0,0,5.657,5.658Zm0-8.305a2.648,2.648,0,1,1-2.648,2.647,2.651,2.651,0,0,1,2.648-2.647Zm0,0" fill="#4d4d4d"/>
  </g>
</svg>
