<svg xmlns="http://www.w3.org/2000/svg" width="93.562" height="72.144" viewBox="0 0 93.562 72.144">
  <g id="Grupo_13493" data-name="Grupo 13493" transform="translate(-178.438 -1043.027)">
    <line id="Línea_401" data-name="Línea 401" y2="68.144" transform="translate(270 1045.027)" fill="none" stroke="#a4dbf5" stroke-linecap="round" stroke-miterlimit="10" stroke-width="4"/>
    <path id="Trazado_4823" data-name="Trazado 4823" d="M245.521,1099.171l-11.47-11.47a31.633,31.633,0,0,0,3.476-13.9,29.544,29.544,0,1,0-29.544,29.544,31.627,31.627,0,0,0,13.9-3.476l11.47,11.471a8.4,8.4,0,0,0,12.166,0,9.059,9.059,0,0,0,0-12.166Zm-37.538-2.78a22.593,22.593,0,1,1,22.592-22.593,22.548,22.548,0,0,1-22.592,22.593Zm0,0" fill="#a4dbf5"/>
  </g>
</svg>
