<svg xmlns="http://www.w3.org/2000/svg" width="93.006" height="72.144" viewBox="0 0 93.006 72.144">
  <g id="Grupo_13494" data-name="Grupo 13494" transform="translate(-178.994 -1340.104)">
    <line id="Línea_402" data-name="Línea 402" y2="68.144" transform="translate(270 1342.104)" fill="none" stroke="#a4dbf5" stroke-linecap="round" stroke-miterlimit="10" stroke-width="4"/>
    <g id="Grupo_9694" data-name="Grupo 9694">
      <path id="Trazado_4824" data-name="Trazado 4824" d="M244.492,1404.344H189.557a4.93,4.93,0,0,1,0-9.859h16.9a10.564,10.564,0,0,0,0-21.128H194.487a2.818,2.818,0,0,0,0,5.637h11.972a4.93,4.93,0,0,1,0,9.86h-16.9a10.563,10.563,0,0,0,0,21.127H244.49c1.558,0,1.558-5.637,0-5.637Z" fill="#a4dbf5"/>
      <path id="Trazado_4825" data-name="Trazado 4825" d="M193.784,1342.371a14.192,14.192,0,0,0-14.086,14.262c0,10.854,12.191,21.412,12.713,21.851a2.111,2.111,0,0,0,2.745,0c.522-.445,12.713-11,12.713-21.851a14.19,14.19,0,0,0-14.085-14.262Zm0,19.719a5.633,5.633,0,1,1,5.633-5.633,5.638,5.638,0,0,1-5.633,5.633Z" fill="#a4dbf5"/>
      <path id="Trazado_4826" data-name="Trazado 4826" d="M241.675,1407.163a2.818,2.818,0,0,0,5.636,0V1395.9h-5.634v11.268Z" fill="#a4dbf5"/>
      <path id="Trazado_4827" data-name="Trazado 4827" d="M224.066,1393.077a2.114,2.114,0,0,1-1.708-3.357l4.729-6.506-4.729-6.505a2.114,2.114,0,0,1,1.708-3.357h23.242v19.72H224.066Z" fill="#a4dbf5"/>
    </g>
  </g>
</svg>
