<svg xmlns="http://www.w3.org/2000/svg" width="93.259" height="72.144" viewBox="0 0 93.259 72.144">
  <g id="Grupo_13495" data-name="Grupo 13495" transform="translate(-178.741 -1725.47)">
    <line id="Línea_403" data-name="Línea 403" y2="68.144" transform="translate(270 1727.47)" fill="none" stroke="#a4dbf5" stroke-linecap="round" stroke-miterlimit="10" stroke-width="4"/>
    <g id="Grupo_9695" data-name="Grupo 9695">
      <path id="Trazado_4828" data-name="Trazado 4828" d="M221.849,1773.128a19.156,19.156,0,0,0,0-5.77l4.788-3.757a2.919,2.919,0,0,0,.721-3.728l-3.09-5.352a2.912,2.912,0,0,0-3.592-1.24l-5.643,2.274a18.264,18.264,0,0,0-4.981-2.882l-.858-6.025a2.91,2.91,0,0,0-2.868-2.485h-6.175a2.908,2.908,0,0,0-2.867,2.488l-.858,6.028a18.29,18.29,0,0,0-4.958,2.876l-5.669-2.274a2.915,2.915,0,0,0-3.589,1.24l-3.088,5.352a2.907,2.907,0,0,0,.727,3.731l4.783,3.731a19.155,19.155,0,0,0,0,5.77l-4.788,3.757a2.916,2.916,0,0,0-.721,3.727l3.087,5.353a2.918,2.918,0,0,0,3.592,1.24l5.643-2.274a18.264,18.264,0,0,0,4.981,2.882l.858,6.025a2.914,2.914,0,0,0,2.87,2.485h6.175a2.91,2.91,0,0,0,2.868-2.488l.858-6.028a18.315,18.315,0,0,0,4.958-2.876l5.669,2.274a2.9,2.9,0,0,0,3.589-1.24l3.087-5.353a2.906,2.906,0,0,0-.727-3.73Zm-18.607,7.241a10.138,10.138,0,1,1,10.137-10.138,10.148,10.148,0,0,1-10.137,10.138Z" fill="#a4dbf5"/>
      <path id="Trazado_4829" data-name="Trazado 4829" d="M244.381,1742.625a6.853,6.853,0,0,0,0-2.717l2.61-1.975a1.45,1.45,0,0,0,.379-1.88L245.027,1732a1.451,1.451,0,0,0-1.817-.611l-3,1.266a10.764,10.764,0,0,0-2.372-1.41l-.4-3.189a1.451,1.451,0,0,0-1.436-1.269h-4.684a1.449,1.449,0,0,0-1.437,1.269l-.4,3.189a10.809,10.809,0,0,0-2.372,1.41l-3-1.266a1.45,1.45,0,0,0-1.819.611l-2.34,4.056a1.45,1.45,0,0,0,.38,1.88l2.609,1.975a10.461,10.461,0,0,0-.139,1.359,11.012,11.012,0,0,0,.136,1.358l-2.609,1.976a1.447,1.447,0,0,0-.38,1.879l2.343,4.055a1.449,1.449,0,0,0,1.817.611l3-1.268a10.748,10.748,0,0,0,2.373,1.41l.4,3.19a1.451,1.451,0,0,0,1.437,1.271h4.683a1.447,1.447,0,0,0,1.437-1.269l.4-3.189a10.809,10.809,0,0,0,2.372-1.41l3,1.265a1.448,1.448,0,0,0,1.819-.611l2.34-4.055a1.449,1.449,0,0,0-.379-1.879Zm-10.726,4.434a5.793,5.793,0,1,1,5.793-5.792,5.791,5.791,0,0,1-5.793,5.792Z" fill="#a4dbf5"/>
    </g>
  </g>
</svg>
