<svg xmlns="http://www.w3.org/2000/svg" width="93.606" height="72.144" viewBox="0 0 93.606 72.144">
  <g id="Grupo_13496" data-name="Grupo 13496" transform="translate(2860.006 -1687.744)">
    <line id="Línea_425" data-name="Línea 425" y2="68.144" transform="translate(-2768.4 1689.744)" fill="none" stroke="#a4dbf5" stroke-linecap="round" stroke-miterlimit="10" stroke-width="4"/>
    <g id="Grupo_12655" data-name="Grupo 12655">
      <path id="Trazado_5716" data-name="Trazado 5716" d="M-2820.372,1727.989a2.636,2.636,0,0,0,.011,3.731l.935.935a.441.441,0,0,1,0,.623.439.439,0,0,1-.623,0l-2.18-2.18a2.64,2.64,0,0,0-3.732-.013,2.638,2.638,0,0,0,.013,3.732l2.18,2.18a.442.442,0,0,1,0,.623.439.439,0,0,1-.622,0l-3.43-3.429a2.64,2.64,0,0,0-3.731-.012,2.637,2.637,0,0,0,.012,3.731l3.429,3.429a.444.444,0,0,1,0,.624.439.439,0,0,1-.622,0l-12.157-12.156a2.638,2.638,0,0,0-3.731-.012,2.637,2.637,0,0,0,.012,3.731l14.631,14.63c-1.918-.3-5.145-.426-7.126,1.552-1.86,1.86-1.811,3.146-1.235,3.726,1.574,1.572,2.785-.913,9.95,2.511s11.772,3.142,14.92.046l4.34-4.339c.022-.023-.024.023,0,0,4.411-4.412,5.674-10.441,1.222-14.891l-.024-.023-8.727-8.727a2.629,2.629,0,0,0-3.724-.012Z" fill="#a4dbf5"/>
      <path id="Trazado_5717" data-name="Trazado 5717" d="M-2799.179,1729.779h-4.721a2.9,2.9,0,0,1-2.9-2.9,2.9,2.9,0,0,1,2.9-2.9h4.721a2.9,2.9,0,0,0,2.9-2.9v-23.172a2.9,2.9,0,0,0-2.9-2.9h-52.137a2.9,2.9,0,0,0-2.9,2.9v23.172a2.9,2.9,0,0,0,2.9,2.9,2.96,2.96,0,0,1,2.968,2.9,2.835,2.835,0,0,1-2.823,2.9h-.145a8.7,8.7,0,0,1-8.69-8.689v-23.172a8.7,8.7,0,0,1,8.69-8.69h52.137a8.7,8.7,0,0,1,8.69,8.69v23.172a8.7,8.7,0,0,1-8.69,8.689Z" fill="#a4dbf5"/>
      <path id="Trazado_5718" data-name="Trazado 5718" d="M-2825.248,1721.293a2.9,2.9,0,0,1-2.9-2.9v-26.271a2.9,2.9,0,0,1,2.9-2.9,2.9,2.9,0,0,1,2.9,2.9V1718.4a2.9,2.9,0,0,1-2.9,2.9Z" fill="#a4dbf5"/>
      <path id="Trazado_5719" data-name="Trazado 5719" d="M-2839.006,1718.193a2.173,2.173,0,0,1-2.172-2.172V1706.9a1.614,1.614,0,0,0-1.449-1.738,1.614,1.614,0,0,0-1.448,1.738v9.124a2.173,2.173,0,0,1-2.172,2.172,2.173,2.173,0,0,1-2.173-2.172V1706.9a5.95,5.95,0,0,1,5.793-6.083,5.949,5.949,0,0,1,5.793,6.083v9.124a2.173,2.173,0,0,1-2.172,2.172Z" fill="#a4dbf5"/>
      <path id="Trazado_5720" data-name="Trazado 5720" d="M-2839.006,1712.979h-7.241a2.173,2.173,0,0,1-2.173-2.172,2.173,2.173,0,0,1,2.173-2.172h7.241a2.173,2.173,0,0,1,2.172,2.172,2.173,2.173,0,0,1-2.172,2.172Z" fill="#a4dbf5"/>
      <path id="Trazado_5721" data-name="Trazado 5721" d="M-2807.266,1718.193h-4.223a2.174,2.174,0,0,1-2.173-2.172v-13.034a2.174,2.174,0,0,1,2.173-2.173h4.223a5.32,5.32,0,0,1,5.19,5.431,5.578,5.578,0,0,1-1.039,3.259,5.575,5.575,0,0,1,1.039,3.258,5.32,5.32,0,0,1-5.19,5.431Zm-2.051-4.345h2.051a1,1,0,0,0,.846-1.086,1,1,0,0,0-.846-1.086h-2.051Zm0-6.517h2.051a1,1,0,0,0,.846-1.086,1,1,0,0,0-.846-1.086h-2.051Z" fill="#a4dbf5"/>
    </g>
  </g>
</svg>
