<svg xmlns="http://www.w3.org/2000/svg" width="105.476" height="109.763" viewBox="0 0 105.476 109.763">
  <g id="Grupo_11542" data-name="Grupo 11542" transform="translate(-189.286 -5110.537)">
    <path id="Trazado_1956" data-name="Trazado 1956" d="M248.2,5112.145H195.214a4.32,4.32,0,0,0-4.32,4.32v97.907a4.319,4.319,0,0,0,4.32,4.319h70.774a4.319,4.319,0,0,0,4.32-4.319v-80.114Zm0,0" fill="#f2f2f2"/>
    <path id="Trazado_1957" data-name="Trazado 1957" d="M252.691,5116.641V5140a2.231,2.231,0,0,0,2.23,2.23h3.872v72.136a4.32,4.32,0,0,1-4.32,4.32h11.515a4.32,4.32,0,0,0,4.32-4.32v-80.113Zm0,0" fill="#cdd6df"/>
    <path id="Trazado_1958" data-name="Trazado 1958" d="M231.251,5198.216H222a2.4,2.4,0,0,1-2.4-2.4v-7.528a2.4,2.4,0,0,1,2.4-2.4h9.251Zm0,0" fill="#fd715c"/>
    <path id="Trazado_1959" data-name="Trazado 1959" d="M248.2,5132.027v-19.882l22.113,22.113H250.426a2.231,2.231,0,0,1-2.231-2.231Zm0,0" fill="#b3b3b3"/>
    <path id="Trazado_1960" data-name="Trazado 1960" d="M242.159,5218.419l-.461.123a4.371,4.371,0,0,1-5.351-3.093l-5-18.69,8.9-2.382,5,18.691a4.37,4.37,0,0,1-3.093,5.351Zm0,0" fill="#426175"/>
    <path id="Trazado_1961" data-name="Trazado 1961" d="M245.346,5202.024H230.377a3.878,3.878,0,0,1-3.878-3.879v-12.181a3.878,3.878,0,0,1,3.878-3.878h14.969Zm0,0" fill="#fed066"/>
    <path id="Trazado_1962" data-name="Trazado 1962" d="M286.065,5199.144h-8.379v-14.179h8.379a7.09,7.09,0,0,1,0,14.179Zm0,0" fill="#cdd6df"/>
    <path id="Trazado_1963" data-name="Trazado 1963" d="M280.973,5218.492l-35.627-16.468v-19.938l35.627-16.468a1.848,1.848,0,0,1,2.679,1.651v49.573a1.849,1.849,0,0,1-2.679,1.65Zm0,0" fill="#fd715c"/>
    <path id="Trazado_1964" data-name="Trazado 1964" d="M245.346,5202.024H230.377a3.878,3.878,0,0,1-3.878-3.879v-12.181a3.878,3.878,0,0,1,3.878-3.878h14.969Zm0,0" fill="#fed066"/>
    <path id="Trazado_1965" data-name="Trazado 1965" d="M280.973,5218.492l-35.627-16.468v-19.938l35.627-16.468a1.848,1.848,0,0,1,2.679,1.651v49.573a1.849,1.849,0,0,1-2.679,1.65Zm0,0" fill="#fd715c"/>
    <path id="Trazado_1966" data-name="Trazado 1966" d="M226.5,5198.145a3.878,3.878,0,0,0,3.878,3.879h14.969v-12.59H226.5Zm0,0" fill="#f5b556"/>
    <path id="Trazado_1967" data-name="Trazado 1967" d="M245.346,5189.434v12.589l35.627,16.468a1.848,1.848,0,0,0,2.679-1.65v-9.879Zm0,0" fill="#e5483c"/>
    <path id="Trazado_1968" data-name="Trazado 1968" d="M231.413,5217.084h-36.2a2.715,2.715,0,0,1-2.712-2.713v-97.906a2.715,2.715,0,0,1,2.712-2.712h51.373v18.274a3.844,3.844,0,0,0,3.838,3.839H268.7v28a1.607,1.607,0,0,0,3.214,0v-29.607a1.609,1.609,0,0,0-.47-1.137l-22.112-22.113a1.617,1.617,0,0,0-1.138-.471H195.214a5.934,5.934,0,0,0-5.928,5.928v97.906a5.933,5.933,0,0,0,5.928,5.928h36.2a1.607,1.607,0,0,0,0-3.215Zm18.39-85.057v-16l16.623,16.623h-16a.623.623,0,0,1-.622-.623Zm0,0" fill="#4d4d4d"/>
    <path id="Trazado_1969" data-name="Trazado 1969" d="M286.065,5183.357h-.8v-16.088a3.457,3.457,0,0,0-4.982-3.1l-35.285,16.31H230.377a5.5,5.5,0,0,0-5.223,3.809H222a4.009,4.009,0,0,0-4.006,4v7.528a4.01,4.01,0,0,0,4.006,4h3.153a5.5,5.5,0,0,0,5.223,3.809h1.147l3.271,12.232a5.986,5.986,0,0,0,4.981,4.382,1.629,1.629,0,0,0,.414.053h25.8a5.939,5.939,0,0,0,5.708-4.324l8.583,3.967a3.455,3.455,0,0,0,4.981-3.1v-16.09h.8a8.7,8.7,0,0,0,0-17.4Zm-64.854,12.462v-7.528a.79.79,0,0,1,.79-.788h2.89v9.1H222a.79.79,0,0,1-.79-.789Zm6.9,2.326v-12.181a2.273,2.273,0,0,1,2.27-2.27h13.362v16.722H230.377a2.274,2.274,0,0,1-2.27-2.271Zm6.745,5.486h6.213l2.634,9.853a2.766,2.766,0,0,1-1.955,3.382l-.461.123a2.765,2.765,0,0,1-3.381-1.955Zm31.136,13.453H246.262a5.96,5.96,0,0,0,.543-4.431l-2.412-9.021h.6l23.7,10.955a2.714,2.714,0,0,1-2.7,2.5Zm16.056-.242a.24.24,0,0,1-.348.213l-.048-.022L246.954,5201v-17.882l34.694-16.036.048-.024a.24.24,0,0,1,.348.215Zm4.021-19.306h-.8v-10.963h.8a5.481,5.481,0,0,1,0,10.963Zm0,0" fill="#4d4d4d"/>
    <g id="Grupo_11541" data-name="Grupo 11541">
      <path id="Trazado_1970" data-name="Trazado 1970" d="M220.607,5145.429a2.032,2.032,0,0,1,.477.693,2.008,2.008,0,0,1,.2.816,2.027,2.027,0,0,1-3.388,1.509,2.787,2.787,0,0,0-1.909-.708,2.79,2.79,0,0,0-2.834,2.833v14.63a2.79,2.79,0,0,0,2.834,2.834,2.783,2.783,0,0,0,1.909-.709,2.033,2.033,0,0,1,3.45,1.448,2.047,2.047,0,0,1-.216.862,1.932,1.932,0,0,1-.523.709,6.726,6.726,0,0,1-4.62,1.755,6.942,6.942,0,0,1-6.9-6.9v-14.63a6.942,6.942,0,0,1,6.9-6.9A6.726,6.726,0,0,1,220.607,5145.429Z" fill="#4d4d4d"/>
      <path id="Trazado_1971" data-name="Trazado 1971" d="M230.555,5151.189a2.051,2.051,0,0,1,2.033,2.032v2.064h2.094a1.98,1.98,0,0,1,1.432.585,1.924,1.924,0,0,1,.6,1.432,2.051,2.051,0,0,1-2.033,2.048h-2.094v2.033a2.033,2.033,0,0,1-4.066,0v-2.033h-2.094a2.051,2.051,0,0,1-2.033-2.048,1.92,1.92,0,0,1,.6-1.432,1.979,1.979,0,0,1,1.432-.585h2.094v-2.064a1.982,1.982,0,0,1,.585-1.432,1.907,1.907,0,0,1,1.417-.6Z" fill="#4d4d4d"/>
      <path id="Trazado_1972" data-name="Trazado 1972" d="M245.954,5151.189a2.049,2.049,0,0,1,2.033,2.032v2.064h2.094a1.983,1.983,0,0,1,1.433.585,1.923,1.923,0,0,1,.6,1.432,2.049,2.049,0,0,1-2.033,2.048h-2.094v2.033a2.033,2.033,0,0,1-4.065,0v-2.033h-2.1a2.049,2.049,0,0,1-2.032-2.048,1.923,1.923,0,0,1,.6-1.432,1.982,1.982,0,0,1,1.432-.585h2.1v-2.064a1.982,1.982,0,0,1,.585-1.432,1.906,1.906,0,0,1,1.417-.6Z" fill="#4d4d4d"/>
    </g>
  </g>
</svg>
