<svg xmlns="http://www.w3.org/2000/svg" width="1140" height="455.94" viewBox="0 0 1140 455.94">
  <g id="Grupo_12627" data-name="Grupo 12627" transform="translate(-150 -2975.805)">
    <rect id="Rectángulo_4192" data-name="Rectángulo 4192" width="1140" height="455.94" transform="translate(150 2975.805)" fill="#fde6ca"/>
    <path id="Trazado_1941" data-name="Trazado 1941" d="M1069.863,3416.135a77.216,77.216,0,0,1-5.575,12.254q-.953,1.691-2,3.332H386.929s-61.51-140.858,22.287-209.053q1.572-1.275,3.154-2.5,1.458-1.126,2.928-2.213,1.43-1.061,2.872-2.077c25.258-17.84,52.916-26.663,81.925-32.132,1.022-.2,2.046-.381,3.072-.565q1.463-.267,2.926-.517c23.519-4.057,47.871-6.191,72.509-9.361,8.576-1.1,17.188-2.337,25.811-3.818,34.506-5.921,69.2-15.862,102.6-37.822,41.208-27.093,83.7-33.954,119.807-28.577q3.69.547,7.284,1.264,5.285,1.051,10.348,2.444c43.365,11.9,74.063,41.793,75.825,72.7,1.187,20.833,3.658,40.853,9.13,58.219a105.576,105.576,0,0,0,9.708,22.244q1.63,2.75,3.445,5.322c11.945,16.916,30.094,28.062,57.752,29.916,19.226,1.289,35.422,9.9,47.75,22.65l.344.357C1072.231,3343.124,1081.424,3383.562,1069.863,3416.135Z" fill="#fcddbc"/>
    <g id="Grupo_11654" data-name="Grupo 11654">
      <g id="Grupo_11551" data-name="Grupo 11551">
        <g id="Grupo_11549" data-name="Grupo 11549">
          <path id="Trazado_1998" data-name="Trazado 1998" d="M845.194,3103.4c4.639,6.317,13.946,7.366,13.946,7.366s1.785-9.194-2.854-15.512-13.946-7.365-13.946-7.365S840.555,3097.079,845.194,3103.4Z" fill="#517f38"/>
          <path id="Trazado_1999" data-name="Trazado 1999" d="M864.674,3099.619c-4.252,4.191-4.02,11.322-4.02,11.322s7.127.336,11.379-3.855,4.021-11.323,4.021-11.323S868.927,3095.428,864.674,3099.619Z" fill="#3b6837"/>
          <path id="Trazado_2000" data-name="Trazado 2000" d="M854.134,3096.448c-.864,7.79,5.275,14.864,5.275,14.864s7.539-5.557,8.4-13.347-5.274-14.863-5.274-14.863S855,3088.658,854.134,3096.448Z" fill="#65b15b"/>
        </g>
        <g id="Grupo_11550" data-name="Grupo 11550">
          <path id="Trazado_2001" data-name="Trazado 2001" d="M854.71,3132.834h16.143l5.293-23.553H849.417Z" fill="#62324a"/>
          <path id="Trazado_2002" data-name="Trazado 2002" d="M848.623,3132.834h16.143l2.382-23.553H843.33Z" fill="#a0523a"/>
        </g>
      </g>
      <g id="Grupo_11556" data-name="Grupo 11556">
        <g id="Grupo_11552" data-name="Grupo 11552">
          <rect id="Rectángulo_4204" data-name="Rectángulo 4204" width="2.461" height="33.96" transform="translate(792.561 3248.262) rotate(10.036)" fill="#6075b0"/>
          <rect id="Rectángulo_4205" data-name="Rectángulo 4205" width="3.814" height="10.213" transform="translate(792.106 3247.306) rotate(10.037)" fill="#6075b0"/>
        </g>
        <g id="Grupo_11553" data-name="Grupo 11553">
          <path id="Trazado_2003" data-name="Trazado 2003" d="M785.026,3286.4l-2.452-.206,2.838-33.842,1.484-2.165.969,2.37Z" fill="#794061"/>
        </g>
        <g id="Grupo_11554" data-name="Grupo 11554">
          <path id="Trazado_2004" data-name="Trazado 2004" d="M781.618,3288.13l-2.416.47-6.49-33.334.838-2.487,1.578,2.017Z" fill="#072859"/>
        </g>
        <g id="Grupo_11555" data-name="Grupo 11555">
          <path id="Trazado_2005" data-name="Trazado 2005" d="M787.048,3295.884H776.53l-3.448-27.844H790.5Z" fill="#f3885e"/>
          <path id="Trazado_2006" data-name="Trazado 2006" d="M791.014,3295.884H780.5l-1.552-27.844h15.518Z" fill="#ffbe62"/>
        </g>
      </g>
      <rect id="Rectángulo_4206" data-name="Rectángulo 4206" width="125.453" height="8.91" transform="translate(751.357 3140.79)" fill="#efbc8e"/>
      <g id="Grupo_11557" data-name="Grupo 11557">
        <path id="Trazado_2007" data-name="Trazado 2007" d="M829.729,3167.235l-6.927,4.287a11.347,11.347,0,0,0-4.132,14.8,16.707,16.707,0,0,1,.8,1.643c-.262-.3,10.611-20.645,10.611-20.645" fill="#7c4b39"/>
        <rect id="Rectángulo_4207" data-name="Rectángulo 4207" width="15.542" height="28.807" rx="7.771" transform="translate(857.323 3233.497) rotate(180)" fill="#fcbba4"/>
        <path id="Trazado_2008" data-name="Trazado 2008" d="M819.591,3187.968c-.16,1.357,6.2,3.651,6.273,5.083l-1.034,2.873c7.807-2.83.919,1.484.919,1.495,2.319,6.88,1.513,10.687,8.136,13.3a24.32,24.32,0,0,0,10.694,1.634c5.064-.352,9.562,1.229,13.237-.523a7.715,7.715,0,0,0,2.158-1.528,24.625,24.625,0,0,0,3.419-4.252c.373-.609.737-1.218,1.068-1.858,2-3.857,6.084-15.181,5.753-19.829-.919-13.119-13.488-21.9-27.953-20.907-.373.026-.737.032-1.111.054a24.423,24.423,0,0,0-18.567,10.7c-.214.321-.428.652-.631.983v.011c-1.175,1.912-1.806,10.095-1.806,10.095A14.948,14.948,0,0,0,819.591,3187.968Z" fill="#7c4b39"/>
        <path id="Trazado_2009" data-name="Trazado 2009" d="M820.174,3192.166l.182,3.6.31,5.972.485,2.118c.043.94.519,5.884.69,6.781,1.645,8.451,7.194,10.246,15.8,11.314a6.415,6.415,0,0,0,.78.075,18.7,18.7,0,0,0,2.8.064,18.912,18.912,0,0,0,2.7-.331,19.532,19.532,0,0,0,4.9-1.581.031.031,0,0,0,.021-.011,20.209,20.209,0,0,0,8.964-8.333,19.526,19.526,0,0,0,2.564-9.1c.011-.225.011-.449.011-.684a7.011,7.011,0,0,0-.022-.812v-.139l-.021-.651-.1-1.7-.287-5.865-.011-.054v-.01l-.054-1.09-.042-.844-.043-.78-.011-.2a15.869,15.869,0,0,0-.759-3.91,18.826,18.826,0,0,0-.961-2.564c-.054-.128-.1-.245-.16-.374a17.446,17.446,0,0,0-1.037-1.976v-.011a20.051,20.051,0,0,0-5.7-6.132c-.46-.331-.94-.641-1.421-.929a20.548,20.548,0,0,0-11.463-2.81,17.873,17.873,0,0,0-8.808,2.9,20.231,20.231,0,0,0-4.53,3.707,19.355,19.355,0,0,0-3.985,7.062c-.053.149-.1.3-.139.448a14.943,14.943,0,0,0-.555,2.661A24.757,24.757,0,0,0,820.174,3192.166Z" fill="#fcbba4"/>
        <path id="Trazado_2010" data-name="Trazado 2010" d="M827.445,3174.314c-4.225,11.639,6.9,10.69,7.414,16.035a50.309,50.309,0,0,1,.431,5.863l.85,2.738a2.006,2.006,0,0,0,3.931-.566v-.054l-.1-4.358,2.169,5.747a32.933,32.933,0,0,0,15.565,17.585s13.568-8.066,13.568-26.484a40.567,40.567,0,0,0-.267-4.583,30.872,30.872,0,0,0-.727-4.017c-5.619-22.883-33.738-15.074-36.44-14.059C831,3169.229,827.445,3174.314,827.445,3174.314Z" fill="#7c4b39"/>
        <path id="Trazado_2011" data-name="Trazado 2011" d="M817.782,3204.5c0,.038,0,.3,0,.3.037,1.259,1.127,2.258,3.828,2.181l-.378-9.828C819.043,3200.5,817.98,3202.442,817.782,3204.5Z" fill="#fcbba4"/>
        <path id="Trazado_2012" data-name="Trazado 2012" d="M819.25,3192.6h6.01a1.273,1.273,0,0,0,1.268-1.269h0a1.272,1.272,0,0,0-1.268-1.268h-6.01a1.272,1.272,0,0,0-1.268,1.268h0A1.272,1.272,0,0,0,819.25,3192.6Z" fill="#7c4b39"/>
        <path id="Trazado_2013" data-name="Trazado 2013" d="M822.627,3197.13h0a.909.909,0,0,0,.907-.907v-1.334a.909.909,0,0,0-.907-.907h0a.909.909,0,0,0-.906.907v1.334A.909.909,0,0,0,822.627,3197.13Z" fill="#081344"/>
        <path id="Trazado_2014" data-name="Trazado 2014" d="M849.066,3210.776a33.018,33.018,0,0,0,8.643,6.528s13.568-8.066,13.568-26.484a40.567,40.567,0,0,0-.267-4.583,30.872,30.872,0,0,0-.727-4.017,43.7,43.7,0,0,1-6.217,15.373C857.923,3207.571,851.256,3210.167,849.066,3210.776Z" fill="#081344" opacity="0.2"/>
        <path id="Trazado_2015" data-name="Trazado 2015" d="M821.662,3210.026l.179,6.876c0,5.862,6.943,8.218,12.1,7.661l8.213-.888-.826-7.118-2.242-13.621,3.621-10.173-7.457,3.1v.012c.564,8.083-5.228,14.616-13.322,14.242Z" fill="#7c4b39"/>
        <path id="Trazado_2016" data-name="Trazado 2016" d="M840.565,3192.51a1.5,1.5,0,0,0-1.494,1.512l.035,5.117.035,4.471,1.758-.011a2.929,2.929,0,0,0,.378-.023,5.764,5.764,0,0,0,5.243-5.729,5.305,5.305,0,0,0-1.684-3.83,5.448,5.448,0,0,0-3.545-1.488h-.008a2.17,2.17,0,0,0-.457-.02Z" fill="#fcbba4"/>
      </g>
      <g id="Grupo_11642" data-name="Grupo 11642">
        <g id="Grupo_11559" data-name="Grupo 11559">
          <rect id="Rectángulo_4208" data-name="Rectángulo 4208" width="68.202" height="14.511" transform="translate(761.168 3110.367)" fill="#dadae0"/>
          <rect id="Rectángulo_4209" data-name="Rectángulo 4209" width="31.54" height="14.84" transform="translate(798.009 3110.202)" fill="#fff"/>
          <g id="Grupo_11558" data-name="Grupo 11558">
            <line id="Línea_326" data-name="Línea 326" x2="68.262" transform="translate(761.228 3113.038)" fill="none" stroke="#b0acbf" stroke-miterlimit="10" stroke-width="1.799"/>
            <line id="Línea_327" data-name="Línea 327" x2="68.262" transform="translate(761.228 3115.956)" fill="none" stroke="#b0acbf" stroke-miterlimit="10" stroke-width="1.799"/>
            <line id="Línea_328" data-name="Línea 328" x2="68.262" transform="translate(761.228 3118.875)" fill="none" stroke="#b0acbf" stroke-miterlimit="10" stroke-width="1.799"/>
            <line id="Línea_329" data-name="Línea 329" x2="68.262" transform="translate(761.228 3121.793)" fill="none" stroke="#b0acbf" stroke-miterlimit="10" stroke-width="1.799"/>
          </g>
        </g>
        <g id="Grupo_11564" data-name="Grupo 11564">
          <g id="Grupo_11563" data-name="Grupo 11563">
            <path id="Trazado_2017" data-name="Trazado 2017" d="M702.1,3180.035l-2.211,84.517H649.733l-1.329-83.53c0-10.681,8.088-19.568,18.733-21.36a24.179,24.179,0,0,1,3.943-.323l7.667,0C691.272,3159.334,702.1,3168.065,702.1,3180.035Z" fill="#244689"/>
            <g id="Grupo_11561" data-name="Grupo 11561">
              <path id="Rectángulo_4210" data-name="Rectángulo 4210" d="M22.966,0h0A22.966,22.966,0,0,1,45.931,22.966V31.8A18.269,18.269,0,0,1,27.663,50.066H18.269A18.269,18.269,0,0,1,0,31.8V22.966A22.966,22.966,0,0,1,22.966,0Z" transform="translate(654.07 3098.16)" fill="#d26552"/>
              <path id="Trazado_2018" data-name="Trazado 2018" d="M660.165,3124.216l-.308,5.123-.213,3.458-1.616-.068a3,3,0,0,1-.347-.031c-2.693-.272-4.723-2.339-4.591-4.612a3.919,3.919,0,0,1,1.7-2.906,5.6,5.6,0,0,1,3.32-1.031h.008a2.277,2.277,0,0,1,.42,0Z" fill="#ffc7b0"/>
              <path id="Trazado_2019" data-name="Trazado 2019" d="M695.387,3124.325l.311,5.122.215,3.459,1.616-.069a3.166,3.166,0,0,0,.347-.031c2.693-.274,4.721-2.342,4.588-4.614a3.916,3.916,0,0,0-1.705-2.906,5.6,5.6,0,0,0-3.321-1.029h-.007a2.246,2.246,0,0,0-.421,0Z" fill="#ffc7b0"/>
              <rect id="Rectángulo_4211" data-name="Rectángulo 4211" width="15.931" height="30.278" rx="7.965" transform="translate(668.815 3137.178)" fill="#f4a891"/>
              <path id="Trazado_2020" data-name="Trazado 2020" d="M698.489,3123.5l-.5,9.371-.074,1.4a18.315,18.315,0,0,1-.346,2.722,20.073,20.073,0,0,1-15.078,15.207,21.186,21.186,0,0,1-2.6.473,8.041,8.041,0,0,1-.8.078c-.561.056-1.122.085-1.69.085-.406,0-.811-.014-1.225-.028a21.5,21.5,0,0,1-2.722-.317c-.369-.063-.731-.141-1.092-.225a20.409,20.409,0,0,1-3.941-1.325.025.025,0,0,1-.015-.007,19.937,19.937,0,0,1-11.522-14.269.161.161,0,0,1-.007-.057c-.118-.677-.207-1.361-.259-2.052-.022-.219-.029-.43-.037-.649s-.015-.444-.007-.669a7.112,7.112,0,0,1,.014-.8v-.14l.03-.642.095-1.671.147-2.863v-.028l.146-2.892.008-.056v-.007l.059-1.065.044-.832.044-.762.015-.2a15.106,15.106,0,0,1,.766-3.836,20.555,20.555,0,0,1,.988-2.5,3.974,3.974,0,0,1,.162-.366,17.778,17.778,0,0,1,1.062-1.94.025.025,0,0,1,.007-.014,20.147,20.147,0,0,1,5.843-6.009c.472-.318.958-.621,1.453-.9a21.783,21.783,0,0,1,11.753-2.76,21.318,21.318,0,0,1,14.383,6.463,16.628,16.628,0,0,1,2.6,3.6,21.648,21.648,0,0,1,1.477,3.328,13.988,13.988,0,0,1,.6,2.249v.014c.045.261.081.515.111.776.059.458.1.924.126,1.4A25.81,25.81,0,0,1,698.489,3123.5Z" fill="#ffc7b0"/>
              <g id="Grupo_11560" data-name="Grupo 11560">
                <path id="Rectángulo_4212" data-name="Rectángulo 4212" d="M.922,0h0a.923.923,0,0,1,.923.923V3.661a.922.922,0,0,1-.922.922h0A.923.923,0,0,1,0,3.661V.922A.922.922,0,0,1,.922,0Z" transform="translate(684.404 3124.954)" fill="#0a194d"/>
                <path id="Rectángulo_4213" data-name="Rectángulo 4213" d="M.923,0h0a.921.921,0,0,1,.921.921v2.74a.922.922,0,0,1-.922.922h0A.922.922,0,0,1,0,3.661V.923A.923.923,0,0,1,.923,0Z" transform="matrix(1, -0.001, 0.001, 1, 668.291, 3124.9)" fill="#0a194d"/>
                <path id="Trazado_2021" data-name="Trazado 2021" d="M688.719,3122.415h-6.978a.941.941,0,0,1-.939-.937h0a.941.941,0,0,1,.938-.939h6.978a.94.94,0,0,1,.939.937h0A.942.942,0,0,1,688.719,3122.415Z" fill="#d26552"/>
                <path id="Trazado_2022" data-name="Trazado 2022" d="M672.855,3122.419h-6.978a.94.94,0,0,1-.938-.937h0a.94.94,0,0,1,.937-.939l6.979,0a.941.941,0,0,1,.938.938h0A.942.942,0,0,1,672.855,3122.419Z" fill="#d26552"/>
                <path id="Trazado_2023" data-name="Trazado 2023" d="M682.759,3138.19c-1.888,2.646-3.623,4.406-6.2,4.025a6.79,6.79,0,0,1-5-4.172Z" fill="#fff"/>
                <path id="Trazado_2024" data-name="Trazado 2024" d="M674.978,3132.419h4.428A2.633,2.633,0,0,1,674.978,3132.419Z" fill="#fc9f7b"/>
              </g>
              <path id="Trazado_2025" data-name="Trazado 2025" d="M698.489,3123.5l-.5,9.371-.074,1.4a18.315,18.315,0,0,1-.346,2.722,20.073,20.073,0,0,1-15.078,15.207,21.186,21.186,0,0,1-2.6.473,8.041,8.041,0,0,1-.8.078c-.561.056-1.122.085-1.69.085-.406,0-.811-.014-1.225-.028a25.009,25.009,0,0,1-3.106-.324c-.207-.035-.406-.063-.613-.1a20.534,20.534,0,0,1-3.97-1.325.022.022,0,0,1-.014-.007,20,20,0,0,1-11.589-14.382.161.161,0,0,1-.007-.057,17.591,17.591,0,0,1-.259-2.052c-.022-.219-.029-.43-.037-.649s-.015-.444-.007-.669a7.112,7.112,0,0,1,.014-.8v-.14l.03-.642.095-1.671.147-2.863c.925,10.485,4.81,23.734,18.49,24.267,18.941.735,22.868-19.165,23.16-30.617A25.81,25.81,0,0,1,698.489,3123.5Z" fill="#ffc7b0"/>
            </g>
            <g id="Grupo_11562" data-name="Grupo 11562">
              <path id="Trazado_2026" data-name="Trazado 2026" d="M686.305,3264.552H666.336l.619-106.694,4.423-.145,4.7,10.109,5.179-9.821,4.717.082Z" fill="#244689"/>
            </g>
          </g>
          <path id="Trazado_2027" data-name="Trazado 2027" d="M671.465,3157.63l-2.93,4.744-3.861-2,4.151-5.816Z" fill="#b0acbf"/>
          <path id="Trazado_2028" data-name="Trazado 2028" d="M681.3,3157.932l3.136,4.438,3.831-1.249-3.432-6.007Z" fill="#b0acbf"/>
          <ellipse id="Elipse_1" data-name="Elipse 1" cx="7.282" cy="6.96" rx="7.282" ry="6.96" transform="translate(686.424 3104.104)" fill="#d26552"/>
          <ellipse id="Elipse_2" data-name="Elipse 2" cx="5.602" cy="5.354" rx="5.602" ry="5.354" transform="translate(676.528 3108.032)" fill="#d26552"/>
          <path id="Trazado_2029" data-name="Trazado 2029" d="M678.582,3113.744a5.234,5.234,0,1,1-5.23-5A5.116,5.116,0,0,1,678.582,3113.744Z" fill="#d26552"/>
          <path id="Trazado_2030" data-name="Trazado 2030" d="M668.685,3112.408a4.953,4.953,0,1,1-4.949-4.728A4.842,4.842,0,0,1,668.685,3112.408Z" fill="#d26552"/>
          <path id="Trazado_2031" data-name="Trazado 2031" d="M670.27,3102.414s10.456-2.858,16.058.888a30.31,30.31,0,0,1,8.592,8.921l-21.473,1.79-12.884-1.96,4.945-9.013" fill="#d26552"/>
          <path id="Trazado_2032" data-name="Trazado 2032" d="M660.937,3113.748l-2.376,15.11a1.037,1.037,0,0,1-1.564.684h0a.976.976,0,0,1-.477-.769l-.717-11.009S659.628,3108.663,660.937,3113.748Z" fill="#d26552"/>
          <path id="Trazado_2033" data-name="Trazado 2033" d="M693.8,3115.7l2.384,15.109a1.036,1.036,0,0,0,1.564.683h0a.972.972,0,0,0,.476-.769l.711-14.043S695.106,3110.617,693.8,3115.7Z" fill="#d26552"/>
          <path id="Trazado_2034" data-name="Trazado 2034" d="M658.7,3128.114c-.279,3.658,1.779,20.432,17.651,20.785s19.068-15.883,19.321-19.277,2.613-3.035,2.613-2.321l-.091,8.75c0,10.247-8.686,18.555-19.408,18.558h-2.253c-10.722,0-20.162-7.772-20.165-18.018l.091-8.387S658.724,3127.8,658.7,3128.114Z" fill="#d26552"/>
        </g>
        <rect id="Rectángulo_4214" data-name="Rectángulo 4214" width="10.55" height="10.195" transform="translate(661.137 3414.139) rotate(-1.596)" fill="#0c0f39"/>
        <g id="Grupo_11565" data-name="Grupo 11565">
          <path id="Trazado_2035" data-name="Trazado 2035" d="M674.47,3425.115l-15.5.433h0a6.129,6.129,0,0,1,5.957-6.3l3.245-.091a6.129,6.129,0,0,1,6.3,5.955Z" fill="#87888d"/>
          <rect id="Rectángulo_4215" data-name="Rectángulo 4215" width="16.001" height="2.507" transform="matrix(1, -0.028, 0.028, 1, 658.637, 3425.417)" fill="#0a194d"/>
        </g>
        <path id="Trazado_2036" data-name="Trazado 2036" d="M673.9,3274.436l-.077,3.1-.734,119.6v.007l-.148,18.841-.028.935v.056l-12.336.415-1.224.042-5.659-83.486-2.567-54.767-.077-1.645-.091-1.955-.021-.394,20.375-.668,1.505-.05Z" fill="#6c1a48"/>
        <path id="Trazado_2037" data-name="Trazado 2037" d="M676.091,3288.907s0,.26-.015.745A4.448,4.448,0,0,1,676.091,3288.907Z" fill="#0c0f39" opacity="0.62"/>
        <path id="Trazado_2038" data-name="Trazado 2038" d="M699.771,3262.718l-.262,15.177-48.451-.236-1.29-14.941Z" fill="#6c1a48"/>
        <path id="Trazado_2039" data-name="Trazado 2039" d="M676.091,3288.907s0,.26-.015.745A4.448,4.448,0,0,1,676.091,3288.907Z" fill="#0c0f39" opacity="0.16" style="mix-blend-mode: multiply;isolation: isolate"/>
        <path id="Trazado_2040" data-name="Trazado 2040" d="M658.565,3414.013l14.859-.2-.293,3.421-14.273.391Z" fill="#747577"/>
        <path id="Trazado_2041" data-name="Trazado 2041" d="M686.942,3423.757l10.546-.3-.339-10.19-10.546.3Z" fill="#0c0f39"/>
        <g id="Grupo_11566" data-name="Grupo 11566">
          <path id="Trazado_2042" data-name="Trazado 2042" d="M684.508,3424.974l15.5-.434h0a6.169,6.169,0,0,0-6.331-5.954l-3.245.091a6.091,6.091,0,0,0-5.924,6.3Z" fill="#87888d"/>
          <path id="Trazado_2043" data-name="Trazado 2043" d="M684.422,3427.345l15.994-.448-.083-2.506-15.994.448Z" fill="#0a194d"/>
        </g>
        <path id="Trazado_2044" data-name="Trazado 2044" d="M676.654,3274.5l.267,3.091,8.043,119.357v.007l.51,18.823.085.932,0,.056,12.341-.275,1.224-.026,1.336-83.682-.785-54.817-.023-1.647-.028-1.957,0-.394-20.381.47-1.506.035Z" fill="#6c1a48"/>
        <path id="Trazado_2045" data-name="Trazado 2045" d="M699.708,3413l-14.846.634.5,3.4,14.272-.406Z" fill="#747577"/>
        <g id="Grupo_11568" data-name="Grupo 11568">
          <path id="Trazado_2046" data-name="Trazado 2046" d="M654.381,3178.971a159.283,159.283,0,0,0-6.943,41.9c-.508,17.965-1.255,59.6-1.255,59.6l-8.128-.165s-2.494-24.125-2.365-57.338,9.321-47.736,12.788-48.878S654.686,3174.994,654.381,3178.971Z" fill="#f1ae9b"/>
          <g id="Grupo_11567" data-name="Grupo 11567">
            <path id="Trazado_2047" data-name="Trazado 2047" d="M652.167,3290.854l-4.194-7.763a1.874,1.874,0,0,0-2.44-.863l-.157.079a1.754,1.754,0,0,0-.662,2.429l4.194,7.764a1.877,1.877,0,0,0,2.441.863l.156-.079A1.754,1.754,0,0,0,652.167,3290.854Z" fill="#f1ae9b"/>
            <path id="Trazado_2048" data-name="Trazado 2048" d="M636.442,3283.949s.557,5.8.672,7.473c.223,3.245,1.143,4.851,3.27,5.025l4.305-.827c2.294-.813,3.336-1.308,3.489-3.346l.506-6.706c.154-2.037-2.1-7.611-4.225-7.785l-4.361-.552C637.971,3277.057,636.595,3281.912,636.442,3283.949Z" fill="#f1ae9b"/>
            <path id="Trazado_2049" data-name="Trazado 2049" d="M644.955,3293.7l1.058,7.6c.132,1.233.924,2.184,1.759,2.115h0c.835-.07,1.41-1.136,1.278-2.369l-1.058-7.6c-.132-1.233-.923-2.184-1.758-2.115h0C645.4,3291.4,644.823,3292.468,644.955,3293.7Z" fill="#f1ae9b"/>
            <path id="Trazado_2050" data-name="Trazado 2050" d="M641.535,3295.727l1.058,7.6c.132,1.233.924,2.185,1.759,2.115h0c.835-.07,1.41-1.136,1.278-2.369l-1.058-7.6c-.132-1.233-.923-2.184-1.758-2.114h0C641.978,3293.428,641.4,3294.494,641.535,3295.727Z" fill="#f1ae9b"/>
            <path id="Trazado_2051" data-name="Trazado 2051" d="M637.607,3294.027l1.058,7.6c.132,1.233.923,2.184,1.758,2.114h0c.835-.07,1.411-1.136,1.279-2.368l-1.058-7.6c-.132-1.233-.924-2.184-1.759-2.114h0C638.05,3291.729,637.475,3292.795,637.607,3294.027Z" fill="#f1ae9b"/>
          </g>
        </g>
        <g id="Grupo_11570" data-name="Grupo 11570">
          <path id="Trazado_2052" data-name="Trazado 2052" d="M697.023,3178.971a159.308,159.308,0,0,1,6.942,41.9c.508,17.965,1.256,59.6,1.256,59.6l8.128-.165s2.493-24.125,2.364-57.338-9.32-47.736-12.787-48.878S696.718,3174.994,697.023,3178.971Z" fill="#f1ae9b"/>
          <g id="Grupo_11569" data-name="Grupo 11569">
            <path id="Trazado_2053" data-name="Trazado 2053" d="M699.236,3290.854l4.194-7.763a1.875,1.875,0,0,1,2.441-.863l.156.079a1.752,1.752,0,0,1,.662,2.429l-4.194,7.764a1.876,1.876,0,0,1-2.44.863l-.157-.079A1.754,1.754,0,0,1,699.236,3290.854Z" fill="#f1ae9b"/>
            <path id="Trazado_2054" data-name="Trazado 2054" d="M714.962,3283.949s-.557,5.8-.672,7.473c-.224,3.245-1.143,4.851-3.271,5.025l-4.3-.827c-2.293-.813-3.335-1.308-3.488-3.346l-.506-6.706c-.154-2.037,2.1-7.611,4.225-7.785l4.36-.552C713.433,3277.057,714.809,3281.912,714.962,3283.949Z" fill="#f1ae9b"/>
            <path id="Trazado_2055" data-name="Trazado 2055" d="M706.448,3293.7l-1.057,7.6c-.133,1.233-.924,2.184-1.759,2.115h0c-.835-.07-1.411-1.136-1.278-2.369l1.057-7.6c.132-1.233.924-2.184,1.759-2.115h0C706.005,3291.4,706.581,3292.468,706.448,3293.7Z" fill="#f1ae9b"/>
            <path id="Trazado_2056" data-name="Trazado 2056" d="M709.869,3295.727l-1.058,7.6c-.132,1.233-.924,2.185-1.759,2.115h0c-.835-.07-1.41-1.136-1.278-2.369l1.057-7.6c.133-1.233.924-2.184,1.759-2.114h0C709.425,3293.428,710,3294.494,709.869,3295.727Z" fill="#f1ae9b"/>
            <path id="Trazado_2057" data-name="Trazado 2057" d="M713.8,3294.027l-1.058,7.6c-.132,1.233-.923,2.184-1.758,2.114h0c-.836-.07-1.411-1.136-1.279-2.368l1.058-7.6c.132-1.233.923-2.184,1.759-2.114h0C713.354,3291.729,713.929,3292.795,713.8,3294.027Z" fill="#f1ae9b"/>
          </g>
        </g>
        <g id="Grupo_11571" data-name="Grupo 11571">
          <ellipse id="Elipse_3" data-name="Elipse 3" cx="1.276" cy="1.22" rx="1.276" ry="1.22" transform="translate(674.985 3186.389)" fill="#fff"/>
          <path id="Trazado_2058" data-name="Trazado 2058" d="M677.538,3204.724a1.278,1.278,0,1,1-1.276-1.219A1.249,1.249,0,0,1,677.538,3204.724Z" fill="#fff"/>
          <path id="Trazado_2059" data-name="Trazado 2059" d="M677.538,3221.84a1.278,1.278,0,1,1-1.276-1.22A1.249,1.249,0,0,1,677.538,3221.84Z" fill="#fff"/>
          <ellipse id="Elipse_4" data-name="Elipse 4" cx="1.276" cy="1.22" rx="1.276" ry="1.22" transform="translate(674.985 3237.736)" fill="#fff"/>
          <path id="Trazado_2060" data-name="Trazado 2060" d="M677.538,3256.071a1.278,1.278,0,1,1-1.276-1.219A1.249,1.249,0,0,1,677.538,3256.071Z" fill="#fff"/>
        </g>
        <path id="Trazado_2061" data-name="Trazado 2061" d="M662.872,3160.82l-6.487,2.346a26.655,26.655,0,0,0-16.844,19.031l-3.621,15.636,18.144,3.754Z" fill="#244689"/>
        <path id="Trazado_2062" data-name="Trazado 2062" d="M687.763,3161.413l6.595,2.4a26.655,26.655,0,0,1,16.844,19.032l3.621,15.635-18.144,3.754Z" fill="#244689"/>
        <rect id="Rectángulo_4216" data-name="Rectángulo 4216" width="459.017" height="4.957" rx="2.479" transform="translate(950.508 3431.745) rotate(-180)" fill="#b0acbf" opacity="0.54"/>
        <g id="Grupo_11591" data-name="Grupo 11591">
          <path id="Trazado_2063" data-name="Trazado 2063" d="M582.674,3186.825l-1.609-2.854a13.146,13.146,0,0,0-10.575-6.657h0a13.144,13.144,0,0,0-11.39,5.229h0q-.316.422-.615.854c-3.785,5.484-5.267,14.442-2.493,27.518l5.259,33.382,17.526,2.479,5.581-52.938A13.133,13.133,0,0,0,582.674,3186.825Z" fill="#d26552"/>
          <g id="Grupo_11575" data-name="Grupo 11575">
            <g id="Grupo_11573" data-name="Grupo 11573">
              <g id="Grupo_11572" data-name="Grupo 11572">
                <path id="Trazado_2064" data-name="Trazado 2064" d="M643.157,3283.567l8.185-2.367a1.134,1.134,0,0,0,.773-1.4h0a1.134,1.134,0,0,0-1.4-.772l-8.186,2.366a1.135,1.135,0,0,0-.773,1.4h0A1.136,1.136,0,0,0,643.157,3283.567Z" fill="#ffc7b0"/>
                <path id="Trazado_2065" data-name="Trazado 2065" d="M646.094,3285.5l6.573-1.9a1.134,1.134,0,0,0,.772-1.4h0a1.134,1.134,0,0,0-1.4-.773l-6.572,1.9a1.135,1.135,0,0,0-.773,1.4h0A1.135,1.135,0,0,0,646.094,3285.5Z" fill="#ffc7b0"/>
                <path id="Trazado_2066" data-name="Trazado 2066" d="M644.906,3288.615l7.779-2.249a1.134,1.134,0,0,0,.773-1.4h0a1.134,1.134,0,0,0-1.4-.772l-7.78,2.249a1.134,1.134,0,0,0-.772,1.4h0A1.135,1.135,0,0,0,644.906,3288.615Z" fill="#ffc7b0"/>
              </g>
              <path id="Trazado_2067" data-name="Trazado 2067" d="M646.494,3280.962c-.088.022-1.114.134-2.226.253a12.169,12.169,0,0,0-5.38,1.923l-3.094,2.027s2.578,5.364,2.844,5.379c6.492.363,8.314-2.789,8.314-2.789Z" fill="#ffc7b0"/>
            </g>
            <g id="Grupo_11574" data-name="Grupo 11574">
              <path id="Trazado_2068" data-name="Trazado 2068" d="M590.485,3259.761s3.8,10.182,7.649,18.459c1.071,2.3,2.143,4.446,3.133,6.193.29.506.585,1,.895,1.47,3.838,5.972,8.985,9.3,16.266,8.4.067-.008,21.438-3.644,21.438-3.644l-1.229-7.413-22.107,1.913c-2.4.326-5.933-3.019-7.469-5.3-.12-.176-.227-.347-.321-.508-.726-1.251-1.52-2.8-2.354-4.519-4.988-10.356-11.265-27.317-11.265-27.317Z" fill="#ffc7b0"/>
            </g>
          </g>
          <path id="Trazado_2069" data-name="Trazado 2069" d="M593.281,3240.65c.442.664,10.614,20.565,10.614,20.565l-7.961,7.3Z" fill="#ffbd48"/>
          <g id="Grupo_11582" data-name="Grupo 11582">
            <path id="Trazado_2070" data-name="Trazado 2070" d="M596.857,3340.879l-47.9,4.754-17.579-89.223,27.1-.149a25.159,25.159,0,0,1,24.7,19.953Z" fill="#6c1a48"/>
            <path id="Trazado_2071" data-name="Trazado 2071" d="M536.076,3341.459l-10.537-78.074a6.4,6.4,0,0,1,5.47-7.177h0a6.4,6.4,0,0,1,7.178,5.47l10.538,78.074a6.4,6.4,0,0,1-5.471,7.177h0A6.4,6.4,0,0,1,536.076,3341.459Z" fill="#f14747"/>
            <g id="Grupo_11581" data-name="Grupo 11581">
              <g id="Grupo_11576" data-name="Grupo 11576">
                <rect id="Rectángulo_4217" data-name="Rectángulo 4217" width="7.423" height="52.178" transform="translate(572.165 3352.154)" fill="#394679"/>
                <path id="Trazado_2072" data-name="Trazado 2072" d="M579.588,3354.7v9.9l-7.423-2.873v-6.7C574.022,3354.938,577.6,3354.789,579.588,3354.7Z" fill="#0a194d"/>
              </g>
              <path id="Trazado_2073" data-name="Trazado 2073" d="M593.074,3355.694H559.906a3.327,3.327,0,0,1-3.317-3.317h0a3.326,3.326,0,0,1,3.317-3.317h33.168a3.327,3.327,0,0,1,3.317,3.317h0A3.327,3.327,0,0,1,593.074,3355.694Z" fill="#394679"/>
              <rect id="Rectángulo_4218" data-name="Rectángulo 4218" width="54.709" height="16.587" rx="8.293" transform="translate(562.891 3335.127)" fill="#6c1a48"/>
              <path id="Trazado_2074" data-name="Trazado 2074" d="M575.807,3351.935H545.313a8.318,8.318,0,0,1-8.293-8.293h0a8.318,8.318,0,0,1,8.293-8.294h30.494a8.318,8.318,0,0,1,8.293,8.294h0A8.318,8.318,0,0,1,575.807,3351.935Z" fill="#f14747"/>
              <g id="Grupo_11578" data-name="Grupo 11578">
                <g id="Grupo_11577" data-name="Grupo 11577">
                  <path id="Trazado_2075" data-name="Trazado 2075" d="M607.336,3418.928h-4.643a10.073,10.073,0,0,0-10.061-10.061H558.8a10.073,10.073,0,0,0-10.061,10.061H544.1a14.72,14.72,0,0,1,14.7-14.7h33.832A14.72,14.72,0,0,1,607.336,3418.928Z" fill="#0a194d"/>
                </g>
                <rect id="Rectángulo_4219" data-name="Rectángulo 4219" width="10.835" height="7.076" transform="translate(570.409 3397.258)" fill="#0a194d"/>
              </g>
              <g id="Grupo_11579" data-name="Grupo 11579">
                <path id="Trazado_2076" data-name="Trazado 2076" d="M550.1,3423.418a3.857,3.857,0,1,1-3.857-3.857A3.857,3.857,0,0,1,550.1,3423.418Z" fill="#0a194d"/>
                <path id="Rectángulo_4220" data-name="Rectángulo 4220" d="M5.278,0h0a5.278,5.278,0,0,1,5.278,5.278v.97a0,0,0,0,1,0,0H0a0,0,0,0,1,0,0v-.97A5.278,5.278,0,0,1,5.278,0Z" transform="translate(541.247 3416.83)" fill="#394679"/>
                <path id="Trazado_2077" data-name="Trazado 2077" d="M609.09,3423.418a3.858,3.858,0,1,1-3.858-3.857A3.858,3.858,0,0,1,609.09,3423.418Z" fill="#0a194d"/>
                <path id="Rectángulo_4221" data-name="Rectángulo 4221" d="M5.278,0h0a5.278,5.278,0,0,1,5.278,5.278v.97a0,0,0,0,1,0,0H0a0,0,0,0,1,0,0v-.97A5.278,5.278,0,0,1,5.278,0Z" transform="translate(600.239 3416.83)" fill="#394679"/>
              </g>
              <rect id="Rectángulo_4222" data-name="Rectángulo 4222" width="6.146" height="13.931" transform="translate(572.972 3405.661)" fill="#0a194d"/>
              <g id="Grupo_11580" data-name="Grupo 11580">
                <path id="Trazado_2078" data-name="Trazado 2078" d="M580.032,3423.418a3.857,3.857,0,1,1-3.857-3.857A3.857,3.857,0,0,1,580.032,3423.418Z" fill="#0a194d"/>
                <path id="Rectángulo_4223" data-name="Rectángulo 4223" d="M5.278,0h0a5.278,5.278,0,0,1,5.278,5.278v.97a0,0,0,0,1,0,0H0a0,0,0,0,1,0,0v-.97A5.278,5.278,0,0,1,5.278,0Z" transform="translate(571.181 3416.83)" fill="#394679"/>
              </g>
            </g>
          </g>
          <path id="Trazado_2079" data-name="Trazado 2079" d="M590.463,3345.833l-.275-.11A.221.221,0,0,0,590.463,3345.833Z" fill="#072859"/>
          <path id="Trazado_2080" data-name="Trazado 2080" d="M590.463,3345.833l-.275-.11A.221.221,0,0,0,590.463,3345.833Z" fill="#072859"/>
          <path id="Trazado_2081" data-name="Trazado 2081" d="M562.1,3308.093l.346,14.221c.191,7.809,3.3,14.3,13.253,14.635l25.871,3.317v-15.589l-3.317-10.614Z" fill="#1c1c2d"/>
          <g id="Grupo_11586" data-name="Grupo 11586">
            <g id="Grupo_11583" data-name="Grupo 11583">
              <path id="Trazado_2082" data-name="Trazado 2082" d="M621.374,3426.476l26.967.727a2.942,2.942,0,0,0,2.989-2.9h0a2.979,2.979,0,0,0-1.88-2.863l-13.22-5.117-14.593-.03Z" fill="#848383"/>
              <path id="Rectángulo_4224" data-name="Rectángulo 4224" d="M0,0H29.267a0,0,0,0,1,0,0V0a2,2,0,0,1-2,2H0A0,0,0,0,1,0,2V0A0,0,0,0,1,0,0Z" transform="translate(621.595 3425.454) rotate(1.11)" fill="#0a194d"/>
            </g>
            <g id="Grupo_11584" data-name="Grupo 11584">
              <line id="Línea_330" data-name="Línea 330" y1="3.399" x2="3.303" transform="translate(635.482 3416.951)" fill="none" stroke="#0a194d" stroke-linecap="round" stroke-miterlimit="10" stroke-width="1.114"/>
              <line id="Línea_331" data-name="Línea 331" y1="3.399" x2="3.303" transform="translate(637.835 3417.997)" fill="none" stroke="#0a194d" stroke-linecap="round" stroke-miterlimit="10" stroke-width="1.114"/>
              <line id="Línea_332" data-name="Línea 332" y1="3.854" x2="3.719" transform="translate(640.081 3418.923)" fill="none" stroke="#0a194d" stroke-linecap="round" stroke-miterlimit="10" stroke-width="1.114"/>
            </g>
            <g id="Grupo_11585" data-name="Grupo 11585">
              <path id="Trazado_2083" data-name="Trazado 2083" d="M621.406,3417.676c1.6-26.9,2.624-66.635.529-71.671-2.149-3.127-16.05-6.4-29.217-10.044l2.774-18.139c10.614,1.658,36.081,10.042,41.571,19.459,2.317,3.974,3.084,18.211,2,45.637-.568,14.364-1.27,34.013-1.27,34.013Z" fill="#1c1c2d"/>
            </g>
          </g>
          <g id="Grupo_11590" data-name="Grupo 11590">
            <g id="Grupo_11587" data-name="Grupo 11587">
              <path id="Trazado_2084" data-name="Trazado 2084" d="M601.473,3426.807l26.967.728a2.941,2.941,0,0,0,2.989-2.9h0a2.978,2.978,0,0,0-1.88-2.863l-13.22-5.117-14.593-.03Z" fill="#9c9694"/>
              <path id="Rectángulo_4225" data-name="Rectángulo 4225" d="M0,0H29.268a0,0,0,0,1,0,0V0a2,2,0,0,1-2,2H0A0,0,0,0,1,0,2V0A0,0,0,0,1,0,0Z" transform="translate(601.694 3425.785) rotate(1.11)" fill="#0a194d"/>
            </g>
            <g id="Grupo_11588" data-name="Grupo 11588">
              <line id="Línea_333" data-name="Línea 333" y1="3.399" x2="3.303" transform="translate(615.581 3417.283)" fill="none" stroke="#0a194d" stroke-linecap="round" stroke-miterlimit="10" stroke-width="1.114"/>
              <line id="Línea_334" data-name="Línea 334" y1="3.399" x2="3.303" transform="translate(617.934 3418.329)" fill="none" stroke="#0a194d" stroke-linecap="round" stroke-miterlimit="10" stroke-width="1.114"/>
              <line id="Línea_335" data-name="Línea 335" y1="3.854" x2="3.719" transform="translate(620.18 3419.255)" fill="none" stroke="#0a194d" stroke-linecap="round" stroke-miterlimit="10" stroke-width="1.114"/>
            </g>
            <g id="Grupo_11589" data-name="Grupo 11589">
              <path id="Trazado_2085" data-name="Trazado 2085" d="M601.505,3418.007c1.6-26.9,2.624-66.634.529-71.67-1.951-1.975-17.5-5.711-30.351-9.446a12.829,12.829,0,0,1-9.13-10.6l-.672-8.244,14.152-.663c10.614,1.658,35.639,10.816,41.129,20.232,2.318,3.975,3.084,18.212,2,45.637-.568,14.365-1.27,34.013-1.27,34.013Z" fill="#25253a"/>
            </g>
          </g>
          <path id="Trazado_2086" data-name="Trazado 2086" d="M599.42,3316.031l-26.641,1.141-11.156.481h-.047l-3.264-54.73c-.338-7.448.44-13,1.813-17.136,4.03-12.209,13.2-12.108,14.093-12.108l9.647.119c8.184,0,14.532,13.867,15.346,28.109l.143,37.338.054,13.047Z" fill="#ffbd48"/>
          <path id="Trazado_2087" data-name="Trazado 2087" d="M599.42,3316.031l-26.641,1.141-11.156.481h-.047l-3.264-54.73c-.338-7.448.44-13,1.813-17.136l5.177,7.923,9.314,30.712,15.454,7.524,9.284,7.3.054,13.047Z" fill="#f4a22a"/>
        </g>
        <rect id="Rectángulo_4226" data-name="Rectángulo 4226" width="40.45" height="8.051" transform="translate(806.594 3333.388)" fill="#0a194d"/>
        <rect id="Rectángulo_4227" data-name="Rectángulo 4227" width="9.096" height="112.337" transform="translate(814.513 3418.347) rotate(180)" fill="#716f82"/>
        <rect id="Rectángulo_4228" data-name="Rectángulo 4228" width="9.096" height="112.337" transform="translate(848.386 3418.347) rotate(180)" fill="#b1aec1"/>
        <rect id="Rectángulo_4229" data-name="Rectángulo 4229" width="38.414" height="8.051" transform="translate(582.614 3334.068)" fill="#716f82"/>
        <rect id="Rectángulo_4230" data-name="Rectángulo 4230" width="9.096" height="120.733" transform="translate(590.912 3426.798) rotate(180)" fill="#716f82"/>
        <rect id="Rectángulo_4231" data-name="Rectángulo 4231" width="9.096" height="120.733" transform="translate(623.996 3426.743) rotate(180)" fill="#b1aec1"/>
        <path id="Rectángulo_4232" data-name="Rectángulo 4232" d="M0,0H126.882a0,0,0,0,1,0,0V4.106a6.047,6.047,0,0,1-6.047,6.047H6.047A6.047,6.047,0,0,1,0,4.106V0A0,0,0,0,1,0,0Z" transform="translate(697.481 3306.603) rotate(180)" fill="#d26552"/>
        <g id="Grupo_11592" data-name="Grupo 11592">
          <path id="Trazado_2088" data-name="Trazado 2088" d="M859.074,3300.042v6.562H607.58v-6.562a3.592,3.592,0,0,1,3.6-3.59h244.3A3.592,3.592,0,0,1,859.074,3300.042Z" fill="#fc9f7b"/>
          <path id="Trazado_2089" data-name="Trazado 2089" d="M833.171,3296.452V3306.6H764.52c-1.207-2.645-3.156-6.966-4.541-10.152Z" fill="#d26552"/>
        </g>
        <g id="Grupo_11604" data-name="Grupo 11604">
          <path id="Trazado_2090" data-name="Trazado 2090" d="M771.855,3296.8H720.188a4.525,4.525,0,0,1-.653-1.383l-11.559-41.731a3.118,3.118,0,0,1,3.005-3.957H756.44a3.128,3.128,0,0,1,3.006,2.287Z" fill="#ddd"/>
          <path id="Trazado_2091" data-name="Trazado 2091" d="M725.84,3297.172h48.477l-12.926-46.647a3.117,3.117,0,0,0-3-2.283H712.971a3.116,3.116,0,0,0-3,3.951l11.551,41.693A4.484,4.484,0,0,0,725.84,3297.172Z" fill="#2d2d3a"/>
          <path id="Trazado_2092" data-name="Trazado 2092" d="M712.521,3254.03l9.44,34,1.981,7.12h48.093l-1.974-7.12-9.875-35.543a2.885,2.885,0,0,0-2.784-2.111H715.3A2.887,2.887,0,0,0,712.521,3254.03Z" fill="#2f558c"/>
          <g id="Grupo_11599" data-name="Grupo 11599">
            <g id="Grupo_11593" data-name="Grupo 11593">
              <path id="Trazado_2093" data-name="Trazado 2093" d="M740.851,3255h14.8l-.33-1.041h-14.8Z" fill="#eceef0"/>
              <path id="Trazado_2094" data-name="Trazado 2094" d="M727.424,3255h7.009l-.33-1.041h-7.009Z" fill="#ea5444"/>
              <path id="Trazado_2095" data-name="Trazado 2095" d="M717.3,3255h7.009l-.33-1.041h-7.009Z" fill="#a29fb0"/>
              <path id="Trazado_2096" data-name="Trazado 2096" d="M725.142,3255H726.8l-.33-1.041h-1.658Z" fill="#6e89c4"/>
              <path id="Trazado_2097" data-name="Trazado 2097" d="M735.244,3255h4.913l-.33-1.041h-4.913Z" fill="#a29fb0"/>
            </g>
            <g id="Grupo_11594" data-name="Grupo 11594">
              <path id="Trazado_2098" data-name="Trazado 2098" d="M751.159,3272.757H744.15l-.33-1.041h7.009Z" fill="#ddd"/>
              <path id="Trazado_2099" data-name="Trazado 2099" d="M761.278,3272.757h-7.009l-.33-1.041h7.009Z" fill="#ffc543"/>
              <path id="Trazado_2100" data-name="Trazado 2100" d="M753.441,3272.757h-1.658l-.33-1.041h1.658Z" fill="#6e89c4"/>
            </g>
            <g id="Grupo_11595" data-name="Grupo 11595">
              <path id="Trazado_2101" data-name="Trazado 2101" d="M751.509,3259.436h5.551l-.33-1.041h-5.551Z" fill="#ea5444"/>
              <path id="Trazado_2102" data-name="Trazado 2102" d="M738.081,3259.436h2.383l-.33-1.041h-2.383Z" fill="#6e89c4"/>
              <path id="Trazado_2103" data-name="Trazado 2103" d="M718.711,3259.436h11.635l-.33-1.041H718.381Z" fill="#ea5444"/>
              <path id="Trazado_2104" data-name="Trazado 2104" d="M731.174,3259.436h6.284l-.33-1.041h-6.284Z" fill="#6e89c4"/>
              <path id="Trazado_2105" data-name="Trazado 2105" d="M741.276,3259.436h9.539l-.33-1.041h-9.539Z" fill="#6e89c4"/>
            </g>
            <g id="Grupo_11596" data-name="Grupo 11596">
              <path id="Trazado_2106" data-name="Trazado 2106" d="M759.945,3286.078H765.5l-.33-1.041h-5.551Z" fill="#313d6e"/>
            </g>
            <g id="Grupo_11597" data-name="Grupo 11597">
              <path id="Trazado_2107" data-name="Trazado 2107" d="M752.915,3263.876h5.551l-.33-1.041h-5.551Z" fill="#ddd"/>
              <path id="Trazado_2108" data-name="Trazado 2108" d="M743.855,3263.876h5.551l-.33-1.041h-5.551Z" fill="#ddd"/>
              <path id="Trazado_2109" data-name="Trazado 2109" d="M721.658,3263.876H731.2l-.33-1.041h-9.539Z" fill="#6e89c4"/>
            </g>
            <g id="Grupo_11598" data-name="Grupo 11598">
              <path id="Trazado_2110" data-name="Trazado 2110" d="M759.872,3268.317h-9.539l-.33-1.041h9.539Z" fill="#6e89c4"/>
            </g>
          </g>
          <path id="Trazado_2111" data-name="Trazado 2111" d="M721.961,3288.026l1.981,7.12h48.094l-1.975-7.12Z" fill="#2d2d3a"/>
          <g id="Grupo_11600" data-name="Grupo 11600">
            <path id="Trazado_2112" data-name="Trazado 2112" d="M747.883,3297.283H806.94a2.517,2.517,0,0,0,2.51-2.51h0a2.517,2.517,0,0,0-2.51-2.51H747.883a2.517,2.517,0,0,0-2.51,2.51h0A2.518,2.518,0,0,0,747.883,3297.283Z" fill="#85818e"/>
          </g>
          <path id="Trazado_2113" data-name="Trazado 2113" d="M718.368,3248.242l30.4,43.9H767.34l-30.4-43.9Z" fill="#c5cbed" opacity="0.55" style="mix-blend-mode: overlay;isolation: isolate"/>
          <g id="Grupo_11603" data-name="Grupo 11603">
            <g id="Grupo_11601" data-name="Grupo 11601">
              <path id="Trazado_2114" data-name="Trazado 2114" d="M725.557,3297.252h35.027a2.58,2.58,0,0,0,2.572-2.573h0a2.58,2.58,0,0,0-2.572-2.572H725.557a2.58,2.58,0,0,0-2.572,2.572h0A2.58,2.58,0,0,0,725.557,3297.252Z" fill="#ddd"/>
            </g>
            <g id="Grupo_11602" data-name="Grupo 11602">
              <rect id="Rectángulo_4233" data-name="Rectángulo 4233" width="4.882" height="1.464" transform="translate(742.66 3295.236) rotate(180)" fill="#081344"/>
              <rect id="Rectángulo_4234" data-name="Rectángulo 4234" width="3.539" height="1.464" transform="translate(747.663 3295.236) rotate(180)" fill="#081344"/>
            </g>
          </g>
        </g>
        <g id="Grupo_11608" data-name="Grupo 11608">
          <g id="Grupo_11606" data-name="Grupo 11606">
            <path id="Trazado_2115" data-name="Trazado 2115" d="M672.473,3283.6v13.366h11.165V3283.6a1.069,1.069,0,0,0-1.068-1.067h-9.03A1.069,1.069,0,0,0,672.473,3283.6Z" fill="#f14747"/>
            <g id="Grupo_11605" data-name="Grupo 11605">
              <path id="Trazado_2116" data-name="Trazado 2116" d="M683.5,3294.677c.146-.083,3.573-2.091,3.879-5.607a3.222,3.222,0,0,0-.837-2.632,4.89,4.89,0,0,0-3.493-1.182l.089,1.632a3.312,3.312,0,0,1,2.234.69,1.637,1.637,0,0,1,.379,1.35c-.232,2.676-3.037,4.316-3.065,4.333Z" fill="#f14747"/>
            </g>
          </g>
          <path id="Trazado_2117" data-name="Trazado 2117" d="M677.69,3296.965h5.948V3283.6a1.069,1.069,0,0,0-1.068-1.067h-.359a34.054,34.054,0,0,1-1.705,9.869C679.2,3295.744,678.044,3296.73,677.69,3296.965Z" fill="#f14747"/>
          <g id="Grupo_11607" data-name="Grupo 11607">
            <path id="Trazado_2118" data-name="Trazado 2118" d="M686.541,3286.437a4.533,4.533,0,0,0-2.9-1.176V3283.6a1.07,1.07,0,0,0-1.068-1.068h-.359a34.054,34.054,0,0,1-1.705,9.869c-1.3,3.344-2.462,4.33-2.816,4.564h5.948v-2.375c.664-.414,3.469-2.358,3.741-5.522A3.23,3.23,0,0,0,686.541,3286.437Zm-.79,2.489a5.651,5.651,0,0,1-2.113,3.633v-5.653a2.9,2.9,0,0,1,1.732.669A1.64,1.64,0,0,1,685.751,3288.926Z" fill="#6c1a48" opacity="0.37"/>
          </g>
        </g>
        <g id="Grupo_11618" data-name="Grupo 11618">
          <g id="Grupo_11613" data-name="Grupo 11613">
            <g id="Grupo_11612" data-name="Grupo 11612">
              <path id="Trazado_2119" data-name="Trazado 2119" d="M684.78,3297.414H644.82a3.569,3.569,0,0,1-3.232-5.084l13.937-29.732a7.381,7.381,0,0,1,6.683-4.248H699a2.6,2.6,0,0,1,2.356,3.707Z" fill="#ddd"/>
              <g id="Grupo_11611" data-name="Grupo 11611">
                <g id="Grupo_11609" data-name="Grupo 11609">
                  <path id="Trazado_2120" data-name="Trazado 2120" d="M644.968,3297.516H616.475a2.1,2.1,0,0,1-2.092-2.092h0a2.1,2.1,0,0,1,2.092-2.093h28.493a2.1,2.1,0,0,1,2.092,2.093h0A2.1,2.1,0,0,1,644.968,3297.516Z" fill="#dadae0"/>
                </g>
                <g id="Grupo_11610" data-name="Grupo 11610">
                  <rect id="Rectángulo_4235" data-name="Rectángulo 4235" width="4.069" height="1.221" transform="translate(630.659 3294.718)" fill="#fff"/>
                  <rect id="Rectángulo_4236" data-name="Rectángulo 4236" width="2.95" height="1.221" transform="translate(626.488 3294.718)" fill="#fff"/>
                </g>
              </g>
              <path id="Trazado_2121" data-name="Trazado 2121" d="M684.178,3297.414H644.124a1.963,1.963,0,0,1-1.777-2.8l15.009-32.019a7.381,7.381,0,0,1,6.683-4.248h36.789a2.6,2.6,0,0,1,2.356,3.707l-15.541,33.154A3.826,3.826,0,0,1,684.178,3297.414Z" fill="#a29fb0"/>
            </g>
            <path id="Trazado_2122" data-name="Trazado 2122" d="M675.427,3280.164c-.949,2.221-2.724,3.593-3.964,3.063s-1.475-2.761-.526-4.982,2.725-3.593,3.965-3.063S676.377,3277.942,675.427,3280.164Z" fill="#fff"/>
          </g>
          <g id="Grupo_11617" data-name="Grupo 11617">
            <g id="Grupo_11615" data-name="Grupo 11615">
              <g id="Grupo_11614" data-name="Grupo 11614">
                <path id="Trazado_2123" data-name="Trazado 2123" d="M611.5,3289.489l8.421-1.3a1.135,1.135,0,0,0,.944-1.292h0a1.133,1.133,0,0,0-1.291-.944l-8.42,1.3a1.135,1.135,0,0,0-.945,1.291h0A1.135,1.135,0,0,0,611.5,3289.489Z" fill="#ffc7b0"/>
                <path id="Trazado_2124" data-name="Trazado 2124" d="M614.166,3291.776l6.761-1.048a1.133,1.133,0,0,0,.944-1.291h0a1.135,1.135,0,0,0-1.291-.945l-6.761,1.048a1.136,1.136,0,0,0-.945,1.292h0A1.134,1.134,0,0,0,614.166,3291.776Z" fill="#ffc7b0"/>
                <path id="Trazado_2125" data-name="Trazado 2125" d="M612.59,3294.719l8-1.24a1.136,1.136,0,0,0,.945-1.292h0a1.134,1.134,0,0,0-1.291-.944l-8,1.24a1.134,1.134,0,0,0-.944,1.291h0A1.135,1.135,0,0,0,612.59,3294.719Z" fill="#ffc7b0"/>
              </g>
              <path id="Trazado_2126" data-name="Trazado 2126" d="M615.14,3287.331c-.091.01-1.123-.009-2.241-.033a12.166,12.166,0,0,0-5.581,1.222l-3.326,1.617s1.874,5.649,2.136,5.7c6.392,1.187,8.6-1.708,8.6-1.708Z" fill="#ffc7b0"/>
            </g>
            <g id="Grupo_11616" data-name="Grupo 11616">
              <path id="Trazado_2127" data-name="Trazado 2127" d="M562.284,3259.173s2.477,10.584,5.238,19.283c.77,2.414,1.559,4.683,2.319,6.542.223.538.453,1.064.7,1.572,3.046,6.411,7.727,10.37,15.064,10.4.067,0,21.728-.886,21.728-.886l-.276-7.509-22.171-.916c-2.418.019-5.5-3.75-6.734-6.2-.1-.19-.181-.373-.254-.544-.561-1.334-1.152-2.966-1.76-4.782-3.629-10.906-7.7-28.529-7.7-28.529Z" fill="#ffc7b0"/>
            </g>
          </g>
          <path id="Trazado_2128" data-name="Trazado 2128" d="M570.284,3240.872l4.865,21.669-13.931,4.2s-.773-2.73-1.362-5.9-1.255-11.315.269-15.056C561.576,3242.227,566.242,3241.6,570.284,3240.872Z" fill="#ffbd48"/>
        </g>
        <g id="Grupo_11639" data-name="Grupo 11639">
          <g id="Grupo_11638" data-name="Grupo 11638">
            <g id="Grupo_11619" data-name="Grupo 11619">
              <path id="Trazado_2129" data-name="Trazado 2129" d="M829.275,3425.361l-29.318-.608a3.164,3.164,0,0,1-3.1-3.231h0a3.165,3.165,0,0,1,2.184-2.945l14.611-4.759,15.847.715Z" fill="#884c2e"/>
              <path id="Trazado_2130" data-name="Trazado 2130" d="M799.353,3425.555l29.674.835.06-2.126-31.8-.9h0A2.126,2.126,0,0,0,799.353,3425.555Z" fill="#0a194d"/>
            </g>
            <g id="Grupo_11620" data-name="Grupo 11620">
              <line id="Línea_336" data-name="Línea 336" x1="3.339" y1="3.776" transform="translate(810.552 3414.338)" fill="none" stroke="#0a194d" stroke-linecap="round" stroke-miterlimit="10" stroke-width="1.185"/>
              <line id="Línea_337" data-name="Línea 337" x1="3.339" y1="3.776" transform="translate(808 3415.331)" fill="none" stroke="#0a194d" stroke-linecap="round" stroke-miterlimit="10" stroke-width="1.185"/>
              <line id="Línea_338" data-name="Línea 338" x1="3.758" y1="4.281" transform="translate(805.126 3416.182)" fill="none" stroke="#0a194d" stroke-linecap="round" stroke-miterlimit="10" stroke-width="1.185"/>
            </g>
            <g id="Grupo_11621" data-name="Grupo 11621">
              <path id="Trazado_2131" data-name="Trazado 2131" d="M830.644,3415.241c-1.7-28.6-1.242-55.047.986-60.4,2.285-3.326,20.1-10.533,37.9-11.31l-8.332-18.189c-23.352,1.173-40.044,9.935-45.882,19.949-2.465,4.227-4.606,12.752-3.451,41.918.605,15.276,1.35,27.243,1.35,27.243Z" fill="#0a0a2c"/>
            </g>
            <g id="Grupo_11622" data-name="Grupo 11622">
              <path id="Trazado_2132" data-name="Trazado 2132" d="M803.522,3425.587l-29.323.22a3.166,3.166,0,0,1-3.19-3.142h0a3.168,3.168,0,0,1,2.1-3.006l14.471-5.17,15.86.268Z" fill="#a36440"/>
              <path id="Trazado_2133" data-name="Trazado 2133" d="M773.618,3426.626l29.685,0V3424.5l-31.813,0h0A2.127,2.127,0,0,0,773.618,3426.626Z" fill="#0a194d"/>
            </g>
            <g id="Grupo_11623" data-name="Grupo 11623">
              <line id="Línea_339" data-name="Línea 339" x1="3.444" y1="3.68" transform="translate(784.496 3415.097)" fill="none" stroke="#0a194d" stroke-linecap="round" stroke-miterlimit="10" stroke-width="1.185"/>
              <line id="Línea_340" data-name="Línea 340" x1="3.444" y1="3.68" transform="translate(781.973 3416.162)" fill="none" stroke="#0a194d" stroke-linecap="round" stroke-miterlimit="10" stroke-width="1.185"/>
              <line id="Línea_341" data-name="Línea 341" x1="3.877" y1="4.173" transform="translate(779.124 3417.094)" fill="none" stroke="#0a194d" stroke-linecap="round" stroke-miterlimit="10" stroke-width="1.185"/>
            </g>
            <g id="Grupo_11624" data-name="Grupo 11624">
              <path id="Trazado_2134" data-name="Trazado 2134" d="M804.593,3415.241c-1.7-28.6-1.242-55.047.986-60.4,2.285-3.326,20.1-10.533,37.9-11.31l-8.332-18.189c-23.352,1.173-40.044,9.935-45.882,19.949-2.465,4.227-4.606,12.752-3.451,41.918.6,15.276,1.35,27.243,1.35,27.243Z" fill="#25253a"/>
            </g>
            <path id="Trazado_2135" data-name="Trazado 2135" d="M829.687,3330.572a13.245,13.245,0,0,0,13.243,13.237h22.256a12.568,12.568,0,0,0,1.944-.148,12.9,12.9,0,0,0,4.548-1.556c.246-.134.486-.281.718-.436a13.223,13.223,0,0,0,6.027-11.1l-.408-7.062-47.941-.415Z" fill="#25253a"/>
            <g id="Grupo_11627" data-name="Grupo 11627">
              <g id="Grupo_11626" data-name="Grupo 11626">
                <g id="Grupo_11625" data-name="Grupo 11625">
                  <path id="Trazado_2136" data-name="Trazado 2136" d="M814.4,3292.854l-11.472-1.833a1.547,1.547,0,0,1-1.279-1.767h0a1.547,1.547,0,0,1,1.766-1.28l11.472,1.834a1.547,1.547,0,0,1,1.28,1.767h0A1.547,1.547,0,0,1,814.4,3292.854Z" fill="#ffc7b0"/>
                  <path id="Trazado_2137" data-name="Trazado 2137" d="M810.745,3295.956l-9.211-1.472a1.547,1.547,0,0,1-1.28-1.767h0a1.547,1.547,0,0,1,1.767-1.28l9.21,1.473a1.546,1.546,0,0,1,1.28,1.766h0A1.547,1.547,0,0,1,810.745,3295.956Z" fill="#ffc7b0"/>
                  <path id="Trazado_2138" data-name="Trazado 2138" d="M812.874,3299.978l-10.9-1.742a1.547,1.547,0,0,1-1.28-1.767h0a1.547,1.547,0,0,1,1.767-1.28l10.9,1.743a1.547,1.547,0,0,1,1.28,1.766h0A1.547,1.547,0,0,1,812.874,3299.978Z" fill="#ffc7b0"/>
                </g>
                <path id="Trazado_2139" data-name="Trazado 2139" d="M809.445,3289.888c.123.015,1.53,0,3.055-.03a16.593,16.593,0,0,1,7.6,1.7l4.525,2.226s-2.591,7.689-2.948,7.754c-8.724,1.577-11.716-2.384-11.716-2.384Z" fill="#ffc7b0"/>
              </g>
              <rect id="Rectángulo_4237" data-name="Rectángulo 4237" width="3.872" height="12.585" transform="translate(820.072 3302.443) rotate(180)" fill="#fff"/>
            </g>
            <g id="Grupo_11628" data-name="Grupo 11628">
              <path id="Trazado_2140" data-name="Trazado 2140" d="M845.448,3303.809a23.513,23.513,0,0,0,21.312-13.629l.19-.41,11.95-36.491-14.721-4.821-11.645,35.561a8,8,0,0,1-7.165,4.3l-25.385-.252-.154,15.49,25.385.251Z" fill="#6c1a48"/>
            </g>
            <g id="Grupo_11630" data-name="Grupo 11630">
              <g id="Grupo_11629" data-name="Grupo 11629">
                <path id="Trazado_2141" data-name="Trazado 2141" d="M762.818,3287.673a9.611,9.611,0,0,1,4.114-3.934l.041-.02a16.6,16.6,0,0,1,7.606-1.68l5.042.1s1.013,11.951.947,11.594c-.13-.71-4.854-1.42-17.649-1.42a1.568,1.568,0,0,1-1.4-2.329Z" fill="#ffc7b0"/>
              </g>
              <rect id="Rectángulo_4238" data-name="Rectángulo 4238" width="4.811" height="12.891" transform="translate(782.275 3294.699) rotate(180)" fill="#fff"/>
            </g>
            <path id="Trazado_2142" data-name="Trazado 2142" d="M880.014,3334.444s-4.963.547-11.674.833c-1.218.059-2.5.1-3.816.13-7.75.2-16.827-.065-23.276-1.735a62.846,62.846,0,0,1-9.106-3.044c-.909-.4-1.687-.772-2.359-1.129a14.275,14.275,0,0,1-3.537-2.383.077.077,0,0,0-.012-.018l-.368-41.4-.279-32.513a23.205,23.205,0,0,1,23.2-23.205h7.846a23.694,23.694,0,0,1,4.03.345,23.071,23.071,0,0,1,3.934,1.058c.007,0,.007.006.012.006a23.226,23.226,0,0,1,15.228,21.8Z" fill="#f14747"/>
            <path id="Trazado_2143" data-name="Trazado 2143" d="M880.014,3334.444s-4.963.547-11.674.833c-1.218.059-2.5.1-3.816.13-4.137.107-8.66.078-12.951-.225l-.19-87.5a26.177,26.177,0,0,0-6.545-17.356,22.776,22.776,0,0,1,3.953-.339h7.846a23.694,23.694,0,0,1,4.03.345,23.071,23.071,0,0,1,3.934,1.058c.007,0,.007.006.012.006a23.226,23.226,0,0,1,15.228,21.8Z" fill="#6c1a48" opacity="0.33"/>
            <path id="Trazado_2144" data-name="Trazado 2144" d="M840.7,3253.514c-.909,3.941-6.341,28.417-8.844,39.692l-.148-19.216a35.358,35.358,0,0,1-3.121,7.442l-1.165-10.087S841.89,3248.361,840.7,3253.514Z" fill="#6c1a48" opacity="0.48"/>
            <g id="Grupo_11636" data-name="Grupo 11636">
              <g id="Grupo_11631" data-name="Grupo 11631">
                <rect id="Rectángulo_4239" data-name="Rectángulo 4239" width="7.833" height="43.55" transform="translate(853.947 3359.879)" fill="#394679"/>
                <path id="Trazado_2145" data-name="Trazado 2145" d="M853.947,3362.414v9.842l7.833-2.857v-6.663C859.82,3362.648,856.047,3362.5,853.947,3362.414Z" fill="#0a194d"/>
              </g>
              <rect id="Rectángulo_4240" data-name="Rectángulo 4240" width="42.001" height="6.598" rx="3.299" transform="translate(878.217 3363.4) rotate(-180)" fill="#394679"/>
              <g id="Grupo_11633" data-name="Grupo 11633">
                <g id="Grupo_11632" data-name="Grupo 11632">
                  <path id="Trazado_2146" data-name="Trazado 2146" d="M824.977,3419.512h4.9c0-5.518,4.762-10.007,10.617-10.007h35.7c5.854,0,10.617,4.489,10.617,10.007h4.9c0-8.065-6.961-14.626-15.517-14.626h-35.7C831.938,3404.886,824.977,3411.447,824.977,3419.512Z" fill="#0a194d"/>
                </g>
                <rect id="Rectángulo_4241" data-name="Rectángulo 4241" width="11.434" height="9.541" transform="translate(863.633 3405.934) rotate(180)" fill="#0a194d"/>
              </g>
              <g id="Grupo_11634" data-name="Grupo 11634">
                <path id="Trazado_2147" data-name="Trazado 2147" d="M885.379,3423.979a4.078,4.078,0,1,0,4.071-3.837A3.959,3.959,0,0,0,885.379,3423.979Z" fill="#0a194d"/>
                <path id="Rectángulo_4242" data-name="Rectángulo 4242" d="M0,0H11.14a0,0,0,0,1,0,0V.645a5.57,5.57,0,0,1-5.57,5.57h0A5.57,5.57,0,0,1,0,.645V0A0,0,0,0,1,0,0Z" transform="translate(894.72 3423.64) rotate(180)" fill="#394679"/>
                <path id="Trazado_2148" data-name="Trazado 2148" d="M823.127,3423.979a4.078,4.078,0,1,0,4.071-3.837A3.959,3.959,0,0,0,823.127,3423.979Z" fill="#0a194d"/>
                <path id="Rectángulo_4243" data-name="Rectángulo 4243" d="M0,0H11.14a0,0,0,0,1,0,0V.645a5.57,5.57,0,0,1-5.57,5.57h0A5.57,5.57,0,0,1,0,.645V0A0,0,0,0,1,0,0Z" transform="translate(832.467 3423.64) rotate(180)" fill="#394679"/>
              </g>
              <rect id="Rectángulo_4244" data-name="Rectángulo 4244" width="6.486" height="13.857" transform="translate(861.241 3420.172) rotate(180)" fill="#0a194d"/>
              <g id="Grupo_11635" data-name="Grupo 11635">
                <path id="Trazado_2149" data-name="Trazado 2149" d="M853.791,3423.979a4.078,4.078,0,1,0,4.07-3.837A3.958,3.958,0,0,0,853.791,3423.979Z" fill="#0a194d"/>
                <path id="Rectángulo_4245" data-name="Rectángulo 4245" d="M0,0H11.139a0,0,0,0,1,0,0V.645a5.57,5.57,0,0,1-5.57,5.57h0A5.57,5.57,0,0,1,0,.645V0A0,0,0,0,1,0,0Z" transform="translate(863.131 3423.64) rotate(180)" fill="#394679"/>
              </g>
            </g>
            <path id="Trazado_2150" data-name="Trazado 2150" d="M920.233,3275.272,909.743,3351a9.539,9.539,0,0,1-9.151,8.225l-23.893.438,14.592-95.22,19.479-.015A9.538,9.538,0,0,1,920.233,3275.272Z" fill="#6c1a48"/>
            <g id="Grupo_11637" data-name="Grupo 11637">
              <path id="Trazado_2151" data-name="Trazado 2151" d="M806.019,3296.768a23.516,23.516,0,0,0,21.313-13.629L844.54,3245.9l-14.061-6.5-17.208,37.236a7.958,7.958,0,0,1-7.33,4.637l-25.386-.251-.153,15.489,25.385.251Z" fill="#f14747"/>
            </g>
            <rect id="Rectángulo_4246" data-name="Rectángulo 4246" width="77.733" height="16.499" rx="8.249" transform="translate(886.586 3359.661) rotate(180)" fill="#f14747"/>
            <rect id="Rectángulo_4247" data-name="Rectángulo 4247" width="23.939" height="6.689" transform="translate(840.619 3224.7)" fill="#fff"/>
            <path id="Trazado_2152" data-name="Trazado 2152" d="M887.582,3349.241l11.12-77.661a6.446,6.446,0,0,0-5.773-7.139h0a6.7,6.7,0,0,0-7.575,5.441l-11.119,77.661a6.444,6.444,0,0,0,5.772,7.139h0C883.678,3355.149,885.577,3357.744,887.582,3349.241Z" fill="#f14747"/>
            <path id="Trazado_2153" data-name="Trazado 2153" d="M832.142,3330.628c-.909-.4-1.687-.772-2.359-1.129a14.275,14.275,0,0,1-3.537-2.383.077.077,0,0,0-.012-.018l-.368-41.4a37.883,37.883,0,0,0,5.843-11.71Z" fill="#6c1a48" opacity="0.48"/>
          </g>
        </g>
        <rect id="Rectángulo_4248" data-name="Rectángulo 4248" width="125.453" height="9.65" transform="translate(759.542 3132.469)" fill="#d26552"/>
        <rect id="Rectángulo_4249" data-name="Rectángulo 4249" width="63.507" height="8.482" transform="translate(768.763 3124.532)" fill="#6c1a48"/>
        <rect id="Rectángulo_4250" data-name="Rectángulo 4250" width="63.507" height="8.482" transform="translate(748.605 3124.532)" fill="#f14747"/>
        <g id="Grupo_11641" data-name="Grupo 11641">
          <g id="Grupo_11640" data-name="Grupo 11640">
            <rect id="Rectángulo_4251" data-name="Rectángulo 4251" width="23.322" height="6.956" transform="translate(686.923 3290.217)" fill="#0a194d"/>
            <rect id="Rectángulo_4252" data-name="Rectángulo 4252" width="23.322" height="6.956" transform="translate(680.376 3290.217)" fill="#6075b0"/>
          </g>
          <path id="Trazado_2154" data-name="Trazado 2154" d="M689.682,3294.705h0a4.8,4.8,0,0,0-4.071,4.649l-.061,3a8.441,8.441,0,0,1-8.322,8.27l-7.785.107a6.651,6.651,0,0,1-6.729-6.2l-.057-.846a7.658,7.658,0,0,0-6.945-7.111h0l-20.755-.049a2.251,2.251,0,0,1-1.757-.849l-.26-.327" fill="none" stroke="#fff" stroke-linecap="round" stroke-miterlimit="10" stroke-width="2.065"/>
          <path id="Trazado_2155" data-name="Trazado 2155" d="M693.875,3295.319h0a3.79,3.79,0,0,0-3.579,3.891l.618,22.133a10.2,10.2,0,0,1-10.5,10.475h0a10.194,10.194,0,0,1-9.886-9.95l-.506-21.52a3.792,3.792,0,0,0-3.682-3.7l-9.913-.038" fill="none" stroke="#fff" stroke-linecap="round" stroke-miterlimit="10" stroke-width="2.065"/>
          <path id="Trazado_2156" data-name="Trazado 2156" d="M697.251,3296.342h-4.5a.921.921,0,0,1-.92-.921h0a.92.92,0,0,1,.92-.921h4.5a.92.92,0,0,1,.92.921h0A.921.921,0,0,1,697.251,3296.342Z" fill="#fff"/>
          <path id="Trazado_2157" data-name="Trazado 2157" d="M689.889,3295.887h-4.5a.92.92,0,0,1-.92-.92h0a.92.92,0,0,1,.92-.921h4.5a.921.921,0,0,1,.921.921h0A.92.92,0,0,1,689.889,3295.887Z" fill="#fff"/>
        </g>
      </g>
      <rect id="Rectángulo_4253" data-name="Rectángulo 4253" width="125.453" height="9.65" transform="translate(740.885 3132.469)" fill="#fc9f7b"/>
      <rect id="Rectángulo_4254" data-name="Rectángulo 4254" width="11.455" height="24.426" rx="5.727" transform="translate(572.783 3213.786)" fill="#f4a891"/>
      <g id="Grupo_11646" data-name="Grupo 11646">
        <path id="Trazado_2158" data-name="Trazado 2158" d="M578.753,3180.078l-1.687-1.847s-8.474,1.385-11.908,8.754l1.245,1.828Z" fill="#fff"/>
        <g id="Grupo_11645" data-name="Grupo 11645">
          <path id="Trazado_2159" data-name="Trazado 2159" d="M605.748,3201.039q-.033.462-.084.922a20.882,20.882,0,0,1-.957,4.275c-1.968,5.832-21.987-11.671-27.609-9.453-2.791,1.1-4.542,24.746-4.99,24.34-9.509-8.624-9.02-19.226-8.743-23.17.781-11.123,11.157-19.4,22.188-19.128q.473.014.944.047a20.724,20.724,0,0,1,16.274,9.91l.006.007a20.725,20.725,0,0,1,2.971,12.25Z" fill="#f3885e"/>
          <g id="Grupo_11643" data-name="Grupo 11643">
            <path id="Trazado_2160" data-name="Trazado 2160" d="M578.1,3205.3a3.5,3.5,0,0,1-.311,1.282,4.02,4.02,0,0,1-.915,1.337,3.77,3.77,0,0,1-2.68,1.025l-2.2-.116-1.69-.085.25-5.018h.006l.043-.927.037-.721.036-.659.006-.171h.006l3.888.2a3.71,3.71,0,0,1,3.345,2.546A3.321,3.321,0,0,1,578.1,3205.3Z" fill="#ffdcd4"/>
            <path id="Trazado_2161" data-name="Trazado 2161" d="M570.183,3211.552c-.006.2,0,.385.006.58,0,.061.006.122.012.183a16.626,16.626,0,0,0,1.783,6.824c.048.1.1.207.158.311a17.228,17.228,0,0,0,7.825,7.465.019.019,0,0,0,.012.006,16.771,16.771,0,0,0,4.163,1.343c.537.1,1.074.177,1.624.232.22.018.439.031.665.043a16.3,16.3,0,0,0,2.374-.049,6.278,6.278,0,0,0,.666-.067,17.038,17.038,0,0,0,14.631-13.569,16.539,16.539,0,0,0,.286-2.356l.061-1.215.416-8.112a20.34,20.34,0,0,0-.092-3.564,12.546,12.546,0,0,0-.586-2.631,16.471,16.471,0,0,0-3.375-5.994,17.37,17.37,0,0,0-21.62-3.21c-.409.244-.812.506-1.2.781a17.092,17.092,0,0,0-4.835,5.2.022.022,0,0,0-.006.013,15.81,15.81,0,0,0-.879,1.678c-.049.1-.091.2-.134.318a18.49,18.49,0,0,0-.818,2.166,13.692,13.692,0,0,0-.635,3.321l-.012.171-.037.659-.036.72-.049.922v.006l-.006.049-.006.158-.025.428-.213,4.382-.08,1.447-.024.549v.122A6.65,6.65,0,0,0,570.183,3211.552Z" fill="#ffc7b0"/>
            <path id="Trazado_2162" data-name="Trazado 2162" d="M567.65,3207.371a3.457,3.457,0,0,0,2.545,3.473,3.181,3.181,0,0,0,.439.085,1.227,1.227,0,0,0,.226.025l1.044.055.116-2.179.024-.489.2-3.955-1.05-.055a2.066,2.066,0,0,0-.275,0h-.006a2.731,2.731,0,0,0-.4.031s-.006-.006-.006,0a3.236,3.236,0,0,0-2.862,3.009Z" fill="#ffdcd4"/>
          </g>
          <path id="Trazado_2163" data-name="Trazado 2163" d="M570.2,3210.844v.018a6.65,6.65,0,0,0-.012.69c-.006.2,0,.385.006.58,0,.061.006.122.012.183a.511.511,0,0,0,.092.018,16.648,16.648,0,0,0,1.691,6.806c.048.1.1.207.158.311a17.177,17.177,0,0,0,7.929,7.667.019.019,0,0,0,.012.006c2.93,1.758,3.119,1.5,3.119,1.5s1.41-.183,1.221-.3a19.314,19.314,0,0,1-6.189-8.8c-1.05-2.764-1.294-7.324-1.258-11.4v-.305c.019-1.868.1-3.626.189-5.036a.3.3,0,0,1,.007-.079c.116-1.948.244-3.217.244-3.217-1.337-2.887-3.687-2.643-5.994-1.355a13.652,13.652,0,0,0-.623,3.125c-.006.067-.006.128-.012.2h-.006l-.006.171-.037.659-.036.721-.049.921v.006a.733.733,0,0,0-.116.006l-.025.428a3.236,3.236,0,0,0-2.862,3.009A3.457,3.457,0,0,0,570.2,3210.844Z" fill="#ffc7b0"/>
          <path id="Trazado_2164" data-name="Trazado 2164" d="M599.32,3194.075a4.333,4.333,0,0,1-4.251,5.1s-16.953,1.267-19.4,6.516l-1.814,3.336a1.428,1.428,0,0,1-1.357.74l-.031,0a1.419,1.419,0,0,1-1.3-1.234c-.421-3.266-2.307-12.647-2.307-13.379,0-1.19,1.112-2.569,1.894-3.356a4.315,4.315,0,0,1,3.051-1.27h21.088A4.453,4.453,0,0,1,599.32,3194.075Z" fill="#f3885e"/>
          <path id="Trazado_2165" data-name="Trazado 2165" d="M591.747,3218.96h2.7a.664.664,0,0,0,.662-.661h0a.664.664,0,0,0-.662-.662h-2.7a.664.664,0,0,0-.661.662h0A.664.664,0,0,0,591.747,3218.96Z" fill="#f14747"/>
          <path id="Trazado_2166" data-name="Trazado 2166" d="M591.83,3220.117h1.892a.863.863,0,0,0,.861-.861h0a.864.864,0,0,0-.861-.862H591.83a.865.865,0,0,0-.862.862h0A.864.864,0,0,0,591.83,3220.117Z" fill="#f14747"/>
          <path id="Trazado_2167" data-name="Trazado 2167" d="M595.969,3213.772s-.2,1.227-1.933,1.17c-1.526-.051-1.678-1.119-1.678-1.119Z" fill="#ffc7b0"/>
          <path id="Trazado_2168" data-name="Trazado 2168" d="M567.841,3211.839a1.831,1.831,0,1,0,1.831-1.831A1.831,1.831,0,0,0,567.841,3211.839Z" fill="#394679"/>
          <path id="Trazado_2169" data-name="Trazado 2169" d="M598.156,3193.375s5.148-.2,7.228,5.925c0,0,1.165-6.23-7.38-12.639s-23.652-1.068-24.873,1.678a11.23,11.23,0,0,0-1.068,4.883Z" fill="#f3885e"/>
          <g id="Grupo_11644" data-name="Grupo 11644">
            <path id="Trazado_2170" data-name="Trazado 2170" d="M590.374,3204.209a6.674,6.674,0,0,0-5.951.458" fill="none" stroke="#f3885e" stroke-linecap="round" stroke-miterlimit="10" stroke-width="2.054"/>
            <path id="Trazado_2171" data-name="Trazado 2171" d="M602.429,3203.828a6.673,6.673,0,0,0-5.951.457" fill="none" stroke="#f3885e" stroke-linecap="round" stroke-miterlimit="10" stroke-width="2.054"/>
          </g>
          <path id="Trazado_2172" data-name="Trazado 2172" d="M587.577,3209.694h0a.765.765,0,0,1-.763-.763v-1.411a.765.765,0,0,1,.763-.763h0a.765.765,0,0,1,.763.763v1.411A.765.765,0,0,1,587.577,3209.694Z" fill="#0a194d"/>
          <path id="Trazado_2173" data-name="Trazado 2173" d="M599.378,3209.694h0a.765.765,0,0,1-.763-.763v-1.411a.765.765,0,0,1,.763-.763h0a.765.765,0,0,1,.763.763v1.411A.765.765,0,0,1,599.378,3209.694Z" fill="#0a194d"/>
        </g>
      </g>
      <g id="Grupo_11649" data-name="Grupo 11649">
        <g id="Grupo_11647" data-name="Grupo 11647">
          <path id="Trazado_2174" data-name="Trazado 2174" d="M568.481,3095.494h-69.76a9.229,9.229,0,0,0-9.229,9.229v42.164a9.229,9.229,0,0,0,9.229,9.229h72.2l6.786,7.465v-58.858A9.229,9.229,0,0,0,568.481,3095.494Z" fill="#40405a"/>
        </g>
        <g id="Grupo_11648" data-name="Grupo 11648">
          <path id="Trazado_2175" data-name="Trazado 2175" d="M524.519,3124.68,515.1,3127.7l8.2,3.024-.93,4.68-13.751-5.378,1.047-5.175,15.9-5.378Z" fill="#e8575d"/>
          <path id="Trazado_2176" data-name="Trazado 2176" d="M536.673,3113.139h5.988l-14.884,27.385h-5.989Z" fill="#e8575d"/>
          <path id="Trazado_2177" data-name="Trazado 2177" d="M555.308,3124.854l-1.046,5.175-15.9,5.378,1.046-5.2,9.419-3.024-8.2-3.023.931-4.681Z" fill="#e8575d"/>
        </g>
      </g>
      <g id="Grupo_11653" data-name="Grupo 11653">
        <g id="Grupo_11650" data-name="Grupo 11650">
          <rect id="Rectángulo_4255" data-name="Rectángulo 4255" width="123.33" height="14.859" rx="6.235" transform="translate(612.238 3063.96)" fill="#40405a"/>
          <path id="Trazado_2178" data-name="Trazado 2178" d="M620.531,3067.29H727.506a4.1,4.1,0,0,1,4.1,4.1h0a4.1,4.1,0,0,1-4.1,4.1H620.531" fill="#171826"/>
        </g>
        <g id="Grupo_11652" data-name="Grupo 11652">
          <path id="Trazado_2179" data-name="Trazado 2179" d="M684.486,3071.391a4.1,4.1,0,0,1-4.1,4.1H620.531a4.1,4.1,0,1,1,0-8.2h59.857c.037,0,.075,0,.112,0A4.1,4.1,0,0,1,684.486,3071.391Z" fill="#8bc540"/>
          <g id="Grupo_11651" data-name="Grupo 11651">
            <path id="Trazado_2180" data-name="Trazado 2180" d="M626.637,3067.29l-1.747,8.2h-4.359a4.073,4.073,0,0,1-1.007-.127l1.72-8.072Z" fill="#37b34a"/>
            <path id="Trazado_2181" data-name="Trazado 2181" d="M637.411,3067.29l-1.746,8.2h-5.4l1.747-8.2Z" fill="#37b34a"/>
            <path id="Trazado_2182" data-name="Trazado 2182" d="M648.181,3067.29l-1.746,8.2h-5.393l1.746-8.2Z" fill="#37b34a"/>
            <path id="Trazado_2183" data-name="Trazado 2183" d="M658.956,3067.29l-1.747,8.2h-5.393l1.746-8.2Z" fill="#37b34a"/>
            <path id="Trazado_2184" data-name="Trazado 2184" d="M669.73,3067.29l-1.747,8.2h-5.4l1.746-8.2Z" fill="#37b34a"/>
            <path id="Trazado_2185" data-name="Trazado 2185" d="M680.5,3067.293l-1.746,8.2h-5.393l1.746-8.2h5.281C680.425,3067.29,680.463,3067.29,680.5,3067.293Z" fill="#37b34a"/>
          </g>
        </g>
      </g>
    </g>
  </g>
</svg>
