<svg xmlns="http://www.w3.org/2000/svg" width="1138.615" height="403.8" viewBox="0 0 1138.615 403.8">
  <g id="Grupo_12632" data-name="Grupo 12632" transform="translate(-1684.293 -5187.669)">
    <rect id="Rectángulo_4353" data-name="Rectángulo 4353" width="1138.615" height="403.8" transform="translate(2822.907 5591.469) rotate(-180)" fill="#f0866a"/>
    <g id="Grupo_11776" data-name="Grupo 11776">
      <path id="Trazado_2410" data-name="Trazado 2410" d="M2078.621,5386.222c0,.02,0,.039,0,.058H2127.9a1.225,1.225,0,0,1,0,2.419h-69.78v41.55a1.045,1.045,0,1,1-2.065,0V5388.7H2017.5a1.225,1.225,0,0,1,0-2.419h59.057c0-.019,0-.038,0-.058V5344.67H2038a1.224,1.224,0,0,1,0-2.418h75.272v-44.794h-38.556a1.224,1.224,0,0,1,0-2.418h110.4a1.224,1.224,0,0,1,0,2.418h-69.78v44.794H2148.4a1.225,1.225,0,0,1,0,2.418h-69.782Z" fill="#e2735a"/>
      <path id="Trazado_2411" data-name="Trazado 2411" d="M1773.556,5291.46c0,.019,0,.038,0,.058h49.282a1.224,1.224,0,0,1,0,2.418h-69.781v41.55a1.045,1.045,0,1,1-2.064,0v-41.55h-38.554a1.224,1.224,0,0,1,0-2.418h59.056c0-.02,0-.039,0-.058v-41.552h-38.556a1.224,1.224,0,0,1,0-2.418h75.272v-44.8h-38.556a1.224,1.224,0,0,1,0-2.418h110.4a1.224,1.224,0,0,1,0,2.418h-69.779v44.8h33.063a1.224,1.224,0,0,1,0,2.418h-69.779Z" fill="#e2735a"/>
      <g id="Grupo_11775" data-name="Grupo 11775">
        <path id="Trazado_2412" data-name="Trazado 2412" d="M2403.792,5418.512c.162,0-.136.077,0,0Z" fill="#e2735a"/>
        <path id="Trazado_2413" data-name="Trazado 2413" d="M2346.571,5507.334h59.056c0-.019,0-.039,0-.059v-41.551h-38.555a1.223,1.223,0,0,1,0-2.417h75.271v-44.795h-38.55c-1.017,0-1.484-.421-1.484-1.088v-41.551h-38.555a1.224,1.224,0,0,1,0-2.417h64.393V5332.58h-38.555a1.224,1.224,0,0,1,0-2.417h110.4a1.224,1.224,0,0,1,0,2.417h-69.78v40.876h43.942a1.224,1.224,0,0,1,0,2.417h-69.78v40.221h109.814a1.224,1.224,0,0,1,0,2.418h-69.781v44.795h33.065a1.224,1.224,0,0,1,0,2.417h-69.78v41.551c0,.02,0,.04,0,.059h49.282a1.224,1.224,0,0,1,0,2.417h-69.78V5551.3a1.045,1.045,0,1,1-2.064,0v-41.551h-38.555a1.224,1.224,0,0,1,0-2.417Z" fill="#e2735a"/>
      </g>
      <path id="Trazado_2414" data-name="Trazado 2414" d="M2075.191,5558.828a1.044,1.044,0,1,1-2.062,0v-41.551h-38.556a1.224,1.224,0,0,1,0-2.417h110.4a1.224,1.224,0,0,1,0,2.417h-69.781Z" fill="#e2735a"/>
      <path id="Trazado_2415" data-name="Trazado 2415" d="M1704.51,5536.506H1768.9v-40.875h-38.555a1.224,1.224,0,0,1,0-2.418h110.4a1.224,1.224,0,0,1,0,2.418h-69.78v40.875h43.942a1.224,1.224,0,0,1,0,2.418h-69.78v41.55a1.045,1.045,0,1,1-2.064,0v-41.55H1704.51a1.224,1.224,0,0,1,0-2.418Z" fill="#e2735a"/>
      <path id="Trazado_2416" data-name="Trazado 2416" d="M2671.457,5243.571h64.393V5202.7h-38.555a1.225,1.225,0,0,1,0-2.419h110.4a1.225,1.225,0,0,1,0,2.419h-69.78v40.875h43.941a1.224,1.224,0,0,1,0,2.418h-69.78v41.55a1.045,1.045,0,1,1-2.064,0v-41.55h-38.554a1.224,1.224,0,0,1,0-2.418Z" fill="#e2735a"/>
      <path id="Trazado_2417" data-name="Trazado 2417" d="M2652.484,5522.9h64.394V5482.02h-38.556a1.224,1.224,0,0,1,0-2.418h110.4a1.224,1.224,0,0,1,0,2.418h-69.781V5522.9h43.942a1.224,1.224,0,0,1,0,2.418H2693.1v41.551a1.045,1.045,0,1,1-2.064,0v-41.551h-38.555a1.224,1.224,0,0,1,0-2.418Z" fill="#e2735a"/>
    </g>
    <g id="Grupo_11832" data-name="Grupo 11832">
      <g id="Grupo_11793" data-name="Grupo 11793">
        <g id="Grupo_11778" data-name="Grupo 11778">
          <rect id="Rectángulo_4354" data-name="Rectángulo 4354" width="153.608" height="120.92" transform="translate(2180.113 5242.923)" fill="#e8e0e4" opacity="0.3"/>
          <rect id="Rectángulo_4355" data-name="Rectángulo 4355" width="136.905" height="107.771" transform="translate(2188.464 5249.497)" fill="#f1f1f1" opacity="0.3"/>
        </g>
        <g id="Grupo_11779" data-name="Grupo 11779">
          <path id="Trazado_2418" data-name="Trazado 2418" d="M2267.482,5292.927l-8.589,5.582a1.957,1.957,0,0,1-2.135,0l-8.589-5.582a1.959,1.959,0,0,1,0-3.286l8.589-5.583a1.959,1.959,0,0,1,2.135,0l8.589,5.583A1.959,1.959,0,0,1,2267.482,5292.927Z" fill="none" stroke="#2f3767" stroke-linecap="round" stroke-linejoin="round" stroke-width="0.5"/>
          <path id="Trazado_2419" data-name="Trazado 2419" d="M2259.622,5302.454l-1.643,1.643a.218.218,0,0,1-.307,0l-1.643-1.643a.217.217,0,0,1,.154-.371h3.285A.218.218,0,0,1,2259.622,5302.454Z" fill="none" stroke="#2f3767" stroke-miterlimit="10" stroke-width="0.5"/>
          <path id="Trazado_2420" data-name="Trazado 2420" d="M2267.482,5316.423l-8.589,5.582a1.959,1.959,0,0,1-2.135,0l-8.589-5.582a1.959,1.959,0,0,1,0-3.286l8.589-5.583a1.957,1.957,0,0,1,2.135,0l8.589,5.583A1.959,1.959,0,0,1,2267.482,5316.423Z" fill="none" stroke="#2f3767" stroke-linecap="round" stroke-linejoin="round" stroke-width="0.5"/>
          <path id="Trazado_2421" data-name="Trazado 2421" d="M2222.422,5302.454l-1.642,1.643a.22.22,0,0,1-.308,0l-1.642-1.643a.217.217,0,0,1,.154-.371h3.284A.217.217,0,0,1,2222.422,5302.454Z" fill="none" stroke="#2f3767" stroke-miterlimit="10" stroke-width="0.5"/>
          <path id="Trazado_2422" data-name="Trazado 2422" d="M2222.422,5326.859l-1.642,1.642a.218.218,0,0,1-.308,0l-1.642-1.642a.217.217,0,0,1,.154-.371h3.284A.217.217,0,0,1,2222.422,5326.859Z" fill="none" stroke="#2f3767" stroke-miterlimit="10" stroke-width="0.5"/>
          <path id="Trazado_2423" data-name="Trazado 2423" d="M2230.283,5316.423l-8.589,5.582a1.961,1.961,0,0,1-2.136,0l-8.588-5.582a1.959,1.959,0,0,1,0-3.286l8.588-5.583a1.959,1.959,0,0,1,2.136,0l8.589,5.583A1.96,1.96,0,0,1,2230.283,5316.423Z" fill="none" stroke="#2f3767" stroke-linecap="round" stroke-linejoin="round" stroke-width="0.5"/>
          <path id="Trazado_2424" data-name="Trazado 2424" d="M2259.622,5326.859l-1.643,1.642a.217.217,0,0,1-.307,0l-1.643-1.642a.217.217,0,0,1,.154-.371h3.285A.218.218,0,0,1,2259.622,5326.859Z" fill="none" stroke="#2f3767" stroke-miterlimit="10" stroke-width="0.5"/>
          <path id="Trazado_2425" data-name="Trazado 2425" d="M2296.821,5326.859l-1.643,1.642a.217.217,0,0,1-.307,0l-1.642-1.642a.217.217,0,0,1,.153-.371h3.285A.217.217,0,0,1,2296.821,5326.859Z" fill="none" stroke="#2f3767" stroke-miterlimit="10" stroke-width="0.5"/>
          <path id="Trazado_2426" data-name="Trazado 2426" d="M2275.583,5289.488l1.642,1.642a.217.217,0,0,1,0,.307l-1.642,1.643a.217.217,0,0,1-.371-.154v-3.285A.217.217,0,0,1,2275.583,5289.488Z" fill="none" stroke="#2f3767" stroke-miterlimit="10" stroke-width="0.5"/>
          <path id="Trazado_2427" data-name="Trazado 2427" d="M2259.622,5278.567l-1.643,1.642a.217.217,0,0,1-.307,0l-1.643-1.642a.217.217,0,0,1,.154-.371h3.285A.218.218,0,0,1,2259.622,5278.567Z" fill="none" stroke="#2f3767" stroke-miterlimit="10" stroke-width="0.5"/>
          <path id="Trazado_2428" data-name="Trazado 2428" d="M2266.91,5274.748h-18.6a3.1,3.1,0,0,1-3.1-3.1h0a3.1,3.1,0,0,1,3.1-3.1h18.6a3.1,3.1,0,0,1,3.1,3.1h0A3.1,3.1,0,0,1,2266.91,5274.748Z" fill="none" stroke="#2f3767" stroke-miterlimit="10" stroke-width="0.5"/>
          <path id="Trazado_2429" data-name="Trazado 2429" d="M2229.927,5341.643h-18.6a3.1,3.1,0,0,1-3.1-3.1h0a3.1,3.1,0,0,1,3.1-3.1h18.6a3.1,3.1,0,0,1,3.1,3.1h0A3.1,3.1,0,0,1,2229.927,5341.643Z" fill="none" stroke="#2f3767" stroke-miterlimit="10" stroke-width="0.5"/>
          <rect id="Rectángulo_4356" data-name="Rectángulo 4356" width="25.659" height="13.056" rx="2.157" transform="translate(2282.195 5284.755)" fill="none" stroke="#2f3767" stroke-miterlimit="10" stroke-width="0.5"/>
          <rect id="Rectángulo_4357" data-name="Rectángulo 4357" width="25.659" height="13.056" rx="2.157" transform="translate(2282.195 5308.251)" fill="none" stroke="#2f3767" stroke-miterlimit="10" stroke-width="0.5"/>
          <rect id="Rectángulo_4358" data-name="Rectángulo 4358" width="25.659" height="13.056" rx="2.157" transform="translate(2282.195 5332.016)" fill="none" stroke="#2f3767" stroke-miterlimit="10" stroke-width="0.5"/>
          <path id="Trazado_2430" data-name="Trazado 2430" d="M2240.068,5289.488l-1.643,1.642a.217.217,0,0,0,0,.307l1.643,1.643a.217.217,0,0,0,.371-.154v-3.285A.217.217,0,0,0,2240.068,5289.488Z" fill="none" stroke="#2f3767" stroke-miterlimit="10" stroke-width="0.5"/>
          <path id="Trazado_2431" data-name="Trazado 2431" d="M2240.376,5316.576l1.642-1.642a.218.218,0,0,0,0-.308l-1.642-1.642a.217.217,0,0,0-.371.154v3.284A.217.217,0,0,0,2240.376,5316.576Z" fill="none" stroke="#2f3767" stroke-miterlimit="10" stroke-width="0.5"/>
          <path id="Trazado_2432" data-name="Trazado 2432" d="M2275.583,5316.576l1.642-1.642a.218.218,0,0,0,0-.308l-1.642-1.642a.217.217,0,0,0-.371.154v3.284A.217.217,0,0,0,2275.583,5316.576Z" fill="none" stroke="#2f3767" stroke-miterlimit="10" stroke-width="0.5"/>
          <rect id="Rectángulo_4359" data-name="Rectángulo 4359" width="25.659" height="13.056" rx="2.157" transform="translate(2233.456 5297.812) rotate(180)" fill="none" stroke="#2f3767" stroke-miterlimit="10" stroke-width="0.5"/>
          <path id="Trazado_2433" data-name="Trazado 2433" d="M2253.4,5339.351l3.643,3.736a1.1,1.1,0,0,0,1.571,0l3.643-3.736a1.1,1.1,0,0,0,.311-.766v-3.818a1.1,1.1,0,0,0-1.1-1.1h-7.285a1.1,1.1,0,0,0-1.1,1.1v3.818A1.094,1.094,0,0,0,2253.4,5339.351Z" fill="none" stroke="#2f3767" stroke-miterlimit="10" stroke-width="0.5"/>
        </g>
        <g id="Grupo_11792" data-name="Grupo 11792">
          <g id="Grupo_11781" data-name="Grupo 11781">
            <path id="Trazado_2434" data-name="Trazado 2434" d="M2213.153,5273.665h-15.73l.716-14.56h15.73Z" fill="#e8e0e4" style="mix-blend-mode: multiply;isolation: isolate"/>
            <rect id="Rectángulo_4360" data-name="Rectángulo 4360" width="15.73" height="13.572" transform="translate(2198.138 5259.104)" fill="#ffd994"/>
            <g id="Grupo_11780" data-name="Grupo 11780">
              <rect id="Rectángulo_4361" data-name="Rectángulo 4361" width="9.356" height="1.136" transform="translate(2201.325 5262.64)" fill="#2f3767"/>
              <rect id="Rectángulo_4362" data-name="Rectángulo 4362" width="9.356" height="1.136" transform="translate(2201.325 5264.913)" fill="#2f3767"/>
              <rect id="Rectángulo_4363" data-name="Rectángulo 4363" width="9.356" height="1.136" transform="translate(2201.325 5267.185)" fill="#2f3767"/>
            </g>
          </g>
          <g id="Grupo_11783" data-name="Grupo 11783">
            <path id="Trazado_2435" data-name="Trazado 2435" d="M2242,5352.849h-15.73l.716-14.56h15.73Z" fill="#e8e0e4" style="mix-blend-mode: multiply;isolation: isolate"/>
            <rect id="Rectángulo_4364" data-name="Rectángulo 4364" width="15.73" height="13.573" transform="translate(2226.987 5338.289)" fill="#fc9a80"/>
            <g id="Grupo_11782" data-name="Grupo 11782">
              <rect id="Rectángulo_4365" data-name="Rectángulo 4365" width="9.356" height="1.136" transform="translate(2230.174 5341.825)" fill="#2f3767"/>
              <rect id="Rectángulo_4366" data-name="Rectángulo 4366" width="9.356" height="1.136" transform="translate(2230.174 5344.097)" fill="#2f3767"/>
              <rect id="Rectángulo_4367" data-name="Rectángulo 4367" width="9.356" height="1.136" transform="translate(2230.174 5346.369)" fill="#2f3767"/>
            </g>
          </g>
          <g id="Grupo_11785" data-name="Grupo 11785">
            <path id="Trazado_2436" data-name="Trazado 2436" d="M2232.311,5277.112h-15.73l.716-14.56h15.73Z" fill="#e8e0e4" style="mix-blend-mode: multiply;isolation: isolate"/>
            <rect id="Rectángulo_4368" data-name="Rectángulo 4368" width="15.73" height="13.572" transform="translate(2217.297 5262.552)" fill="#fc9a80"/>
            <g id="Grupo_11784" data-name="Grupo 11784">
              <rect id="Rectángulo_4369" data-name="Rectángulo 4369" width="9.356" height="1.136" transform="translate(2220.483 5266.087)" fill="#2f3767"/>
              <rect id="Rectángulo_4370" data-name="Rectángulo 4370" width="9.356" height="1.136" transform="translate(2220.483 5268.359)" fill="#2f3767"/>
              <rect id="Rectángulo_4371" data-name="Rectángulo 4371" width="9.356" height="1.136" transform="translate(2220.483 5270.632)" fill="#2f3767"/>
            </g>
          </g>
          <g id="Grupo_11787" data-name="Grupo 11787">
            <path id="Trazado_2437" data-name="Trazado 2437" d="M2310.19,5285.736h-15.73l.716-14.56h15.73Z" fill="#e8e0e4" style="mix-blend-mode: multiply;isolation: isolate"/>
            <rect id="Rectángulo_4372" data-name="Rectángulo 4372" width="15.73" height="13.573" transform="translate(2295.177 5271.176)" fill="#78cfd8"/>
            <g id="Grupo_11786" data-name="Grupo 11786">
              <rect id="Rectángulo_4373" data-name="Rectángulo 4373" width="9.356" height="1.136" transform="translate(2298.363 5274.712)" fill="#2f3767"/>
              <rect id="Rectángulo_4374" data-name="Rectángulo 4374" width="9.356" height="1.136" transform="translate(2298.363 5276.984)" fill="#2f3767"/>
              <rect id="Rectángulo_4375" data-name="Rectángulo 4375" width="9.356" height="1.136" transform="translate(2298.363 5279.256)" fill="#2f3767"/>
            </g>
          </g>
          <g id="Grupo_11789" data-name="Grupo 11789">
            <path id="Trazado_2438" data-name="Trazado 2438" d="M2211.68,5336.739h-15.73l.716-14.56h15.73Z" fill="#e8e0e4" style="mix-blend-mode: multiply;isolation: isolate"/>
            <rect id="Rectángulo_4376" data-name="Rectángulo 4376" width="15.73" height="13.573" transform="translate(2196.667 5322.179)" fill="#78cfd8"/>
            <g id="Grupo_11788" data-name="Grupo 11788">
              <rect id="Rectángulo_4377" data-name="Rectángulo 4377" width="9.356" height="1.136" transform="translate(2199.853 5325.714)" fill="#2f3767"/>
              <rect id="Rectángulo_4378" data-name="Rectángulo 4378" width="9.356" height="1.136" transform="translate(2199.853 5327.986)" fill="#2f3767"/>
              <rect id="Rectángulo_4379" data-name="Rectángulo 4379" width="9.356" height="1.136" transform="translate(2199.853 5330.259)" fill="#2f3767"/>
            </g>
          </g>
          <g id="Grupo_11791" data-name="Grupo 11791">
            <path id="Trazado_2439" data-name="Trazado 2439" d="M2310.19,5305.887h-15.73l.716-14.56h15.73Z" fill="#e8e0e4" style="mix-blend-mode: multiply;isolation: isolate"/>
            <rect id="Rectángulo_4380" data-name="Rectángulo 4380" width="15.73" height="13.573" transform="translate(2295.177 5291.327)" fill="#ffd994"/>
            <g id="Grupo_11790" data-name="Grupo 11790">
              <rect id="Rectángulo_4381" data-name="Rectángulo 4381" width="9.356" height="1.136" transform="translate(2298.363 5294.862)" fill="#2f3767"/>
              <rect id="Rectángulo_4382" data-name="Rectángulo 4382" width="9.356" height="1.136" transform="translate(2298.363 5297.135)" fill="#2f3767"/>
              <rect id="Rectángulo_4383" data-name="Rectángulo 4383" width="9.356" height="1.136" transform="translate(2298.363 5299.407)" fill="#2f3767"/>
            </g>
          </g>
        </g>
      </g>
      <g id="Grupo_11795" data-name="Grupo 11795">
        <path id="Trazado_2440" data-name="Trazado 2440" d="M2194.392,5231.131h-47.3a7.665,7.665,0,0,0-7.665,7.665V5281l4.338-6.25a11.153,11.153,0,0,1,9.162-4.794h41.465a7.664,7.664,0,0,0,7.664-7.665V5238.8A7.664,7.664,0,0,0,2194.392,5231.131Z" fill="#463840"/>
        <g id="Grupo_11794" data-name="Grupo 11794">
          <path id="Trazado_2441" data-name="Trazado 2441" d="M2164.073,5262.318a4.609,4.609,0,0,1-3.188-.87,4.334,4.334,0,0,1-.918-3.188v-3.3q0-1.958-.408-2.287a1.989,1.989,0,0,0-1.261-.33v-2.881a1.957,1.957,0,0,0,1.153-.24,1.22,1.22,0,0,0,.408-.7,8.575,8.575,0,0,0,.108-1.68v-3.3a4.331,4.331,0,0,1,.918-3.187,4.6,4.6,0,0,1,3.188-.871h.72v2.389a1.884,1.884,0,0,0-1.369.343,2.447,2.447,0,0,0-.3,1.482v2.953a13.793,13.793,0,0,1-.15,2.366,2.4,2.4,0,0,1-.54,1.212.795.795,0,1,0,0,1.345,2.4,2.4,0,0,1,.54,1.212,13.773,13.773,0,0,1,.15,2.365v2.953a2.447,2.447,0,0,0,.3,1.483,1.889,1.889,0,0,0,1.369.342v2.389Z" fill="#78cfd8"/>
          <path id="Trazado_2442" data-name="Trazado 2442" d="M2176.69,5262.318v-2.389a1.887,1.887,0,0,0,1.369-.342,2.448,2.448,0,0,0,.3-1.483v-2.953a13.743,13.743,0,0,1,.15-2.365,2.369,2.369,0,0,1,.546-1.212.8.8,0,1,0,0-1.345,2.371,2.371,0,0,1-.546-1.212,13.762,13.762,0,0,1-.15-2.366V5243.7a2.448,2.448,0,0,0-.3-1.482,1.882,1.882,0,0,0-1.369-.343v-2.389h.721a4.6,4.6,0,0,1,3.187.871,4.331,4.331,0,0,1,.918,3.187v3.3q0,1.956.408,2.287a1.989,1.989,0,0,0,1.261.33v2.881a1.951,1.951,0,0,0-1.152.24,1.212,1.212,0,0,0-.409.7,8.6,8.6,0,0,0-.108,1.681v3.3a4.334,4.334,0,0,1-.918,3.188,4.605,4.605,0,0,1-3.187.87Z" fill="#78cfd8"/>
        </g>
      </g>
      <g id="Grupo_11798" data-name="Grupo 11798">
        <rect id="Rectángulo_4384" data-name="Rectángulo 4384" width="7.132" height="44.669" transform="translate(2308.158 5355.336)" fill="#33252f"/>
        <g id="Grupo_11796" data-name="Grupo 11796">
          <path id="Trazado_2443" data-name="Trazado 2443" d="M2338.86,5383.94h-71.238a2,2,0,0,1-1.966-2.364l9.833-53.206a2,2,0,0,1,1.967-1.637h71.238a2,2,0,0,1,1.967,2.364l-9.834,53.206A2,2,0,0,1,2338.86,5383.94Z" fill="#85818e"/>
          <path id="Trazado_2444" data-name="Trazado 2444" d="M2268.494,5381.214l9.565-51.756h69.763l-9.566,51.756Z" fill="#2f558c"/>
        </g>
        <g id="Grupo_11797" data-name="Grupo 11797">
          <path id="Trazado_2445" data-name="Trazado 2445" d="M2286.185,5336.251H2281.8l.3-1.685h4.389Z" fill="#78cfd8"/>
          <path id="Trazado_2446" data-name="Trazado 2446" d="M2297,5336.251h-9.29l.3-1.685h9.29Z" fill="#ff6a66"/>
          <path id="Trazado_2447" data-name="Trazado 2447" d="M2292,5363.843h-9.29l.3-1.685h9.29Z" fill="#ff6a66"/>
          <path id="Trazado_2448" data-name="Trazado 2448" d="M2289.783,5376.106h-9.29l.3-1.685h9.29Z" fill="#ff6a66"/>
          <path id="Trazado_2449" data-name="Trazado 2449" d="M2292.558,5360.777h-9.29l.3-1.685h9.29Z" fill="#ff6a66"/>
          <path id="Trazado_2450" data-name="Trazado 2450" d="M2305.653,5339.317h-15.988l.3-1.685h15.988Z" fill="#ffd994"/>
          <path id="Trazado_2451" data-name="Trazado 2451" d="M2321.044,5348.515h-29.528l.3-1.685h29.528Z" fill="#ffd994"/>
          <path id="Trazado_2452" data-name="Trazado 2452" d="M2339.209,5342.383h-23.152l.3-1.685h23.152Z" fill="#ffd994"/>
          <path id="Trazado_2453" data-name="Trazado 2453" d="M2322.708,5339.317H2306.72l.305-1.685h15.988Z" fill="#eceef0"/>
          <path id="Trazado_2454" data-name="Trazado 2454" d="M2315.023,5342.383h-25.914l.3-1.685h25.914Z" fill="#eceef0"/>
          <path id="Trazado_2455" data-name="Trazado 2455" d="M2336.99,5354.646h-46.584l.3-1.685h46.584Z" fill="#eceef0"/>
          <path id="Trazado_2456" data-name="Trazado 2456" d="M2339.764,5339.317h-15.988l.3-1.685h15.988Z" fill="#fc9a80"/>
          <path id="Trazado_2457" data-name="Trazado 2457" d="M2303.433,5351.58H2290.96l.3-1.685h12.472Z" fill="#ffd994"/>
          <path id="Trazado_2458" data-name="Trazado 2458" d="M2320.489,5351.58H2304.5l.3-1.685h15.988Z" fill="#eceef0"/>
          <path id="Trazado_2459" data-name="Trazado 2459" d="M2337.544,5351.58h-15.988l.3-1.685h15.988Z" fill="#fc9a80"/>
          <path id="Trazado_2460" data-name="Trazado 2460" d="M2338.1,5348.515h-15.988l.3-1.685H2338.4Z" fill="#78cfd8"/>
          <path id="Trazado_2461" data-name="Trazado 2461" d="M2338.654,5345.449h-50.1l.3-1.685h50.1Z" fill="#fc9a80"/>
          <path id="Trazado_2462" data-name="Trazado 2462" d="M2300.658,5366.909H2284.67l.3-1.685h15.988Z" fill="#ffd994"/>
          <path id="Trazado_2463" data-name="Trazado 2463" d="M2334.215,5369.974h-23.152l.3-1.685h23.152Z" fill="#ffd994"/>
          <path id="Trazado_2464" data-name="Trazado 2464" d="M2317.714,5366.909h-15.988l.3-1.685h15.988Z" fill="#eceef0"/>
          <path id="Trazado_2465" data-name="Trazado 2465" d="M2310.029,5369.974h-25.913l.3-1.685h25.913Z" fill="#eceef0"/>
          <path id="Trazado_2466" data-name="Trazado 2466" d="M2334.77,5366.909h-15.989l.3-1.685h15.988Z" fill="#fc9a80"/>
          <path id="Trazado_2467" data-name="Trazado 2467" d="M2333.66,5373.04h-50.1l.3-1.685h50.1Z" fill="#fc9a80"/>
          <path id="Trazado_2468" data-name="Trazado 2468" d="M2336.435,5357.711h-50.1l.3-1.685h50.1Z" fill="#fc9a80"/>
          <path id="Trazado_2469" data-name="Trazado 2469" d="M2285.63,5339.317h-4.389l.3-1.685h4.389Z" fill="#78cfd8"/>
          <path id="Trazado_2470" data-name="Trazado 2470" d="M2285.075,5342.383h-4.389l.3-1.685h4.389Z" fill="#78cfd8"/>
          <path id="Trazado_2471" data-name="Trazado 2471" d="M2284.52,5345.449h-4.389l.3-1.685h4.389Z" fill="#78cfd8"/>
          <path id="Trazado_2472" data-name="Trazado 2472" d="M2283.965,5348.515h-4.389l.3-1.685h4.389Z" fill="#78cfd8"/>
          <path id="Trazado_2473" data-name="Trazado 2473" d="M2283.41,5351.58h-4.389l.3-1.685h4.389Z" fill="#78cfd8"/>
          <path id="Trazado_2474" data-name="Trazado 2474" d="M2282.855,5354.646h-4.389l.3-1.685h4.389Z" fill="#78cfd8"/>
          <path id="Trazado_2475" data-name="Trazado 2475" d="M2282.3,5357.711h-4.389l.3-1.685h4.389Z" fill="#78cfd8"/>
          <path id="Trazado_2476" data-name="Trazado 2476" d="M2281.745,5360.777h-4.389l.3-1.685h4.389Z" fill="#78cfd8"/>
          <path id="Trazado_2477" data-name="Trazado 2477" d="M2281.19,5363.843H2276.8l.3-1.685h4.389Z" fill="#78cfd8"/>
          <path id="Trazado_2478" data-name="Trazado 2478" d="M2280.635,5366.909h-4.389l.3-1.685h4.389Z" fill="#78cfd8"/>
          <path id="Trazado_2479" data-name="Trazado 2479" d="M2280.081,5369.974h-4.389l.3-1.685h4.389Z" fill="#78cfd8"/>
          <path id="Trazado_2480" data-name="Trazado 2480" d="M2279.526,5373.04h-4.389l.3-1.685h4.389Z" fill="#78cfd8"/>
          <path id="Trazado_2481" data-name="Trazado 2481" d="M2278.971,5376.106h-4.389l.3-1.685h4.389Z" fill="#78cfd8"/>
        </g>
      </g>
      <path id="Trazado_2482" data-name="Trazado 2482" d="M2258.517,5400.006v-1.255a1.01,1.01,0,0,1,.941-1.007l35.4-2.426a1.009,1.009,0,0,1,1.078,1.006v3.682Z" fill="#e8e0e4"/>
      <g id="Grupo_11804" data-name="Grupo 11804">
        <g id="Grupo_11801" data-name="Grupo 11801">
          <g id="Grupo_11799" data-name="Grupo 11799">
            <path id="Trazado_2483" data-name="Trazado 2483" d="M2319.844,5514.364c-15.877-17.753-35.008-74.038-44.654-88.953l-16.581,20.676c3.4,1.4,5.868,8.138,5.868,8.138,3.624,22.884,16.921,42.156,27.36,52.574s10.383,15.278,10.383,15.278S2313.068,5515.131,2319.844,5514.364Z" fill="#78cfd8"/>
            <path id="Trazado_2484" data-name="Trazado 2484" d="M2264.477,5454.225c3.624,22.884,16.921,42.156,27.36,52.574-6.487-7.4-11.167-44.949-12.984-50.63s-4.991-9.772-20.244-10.082C2262.01,5447.49,2264.477,5454.225,2264.477,5454.225Z" fill="#5ab3b7"/>
            <path id="Trazado_2485" data-name="Trazado 2485" d="M2336.073,5529.29c-7.009-3.851-15.176-13.789-15.176-13.789-.352-.362-.7-.745-1.053-1.137-6.776.767-17.624,7.713-17.624,7.713a25.283,25.283,0,0,0-1.294,14.843,1.9,1.9,0,0,0,1.671,1.476c23.915,2.392,39.238,2.245,44.094,2.109a1.889,1.889,0,0,0,1.848-1.837C2348.638,5532.666,2342.5,5532.824,2336.073,5529.29Z" fill="#874f5b"/>
          </g>
          <g id="Grupo_11800" data-name="Grupo 11800">
            <path id="Trazado_2486" data-name="Trazado 2486" d="M2290.322,5561.189c-.114-11.131-16.95-85.979-16.106-95.582.877-9.98-1.951-15.972-14.161-19.311,0,0-12.156-9.236-31.626,0s-26.757,19.391-26.757,19.391c13.823,0,29.226.042,39.232.076a9.045,9.045,0,0,1,8.991,9.853c-3.638,39.765,34.314,73.875,21.634,84.754l.1.7C2280.412,5564.549,2287.118,5560.132,2290.322,5561.189Z" fill="#78cfd8"/>
            <path id="Trazado_2487" data-name="Trazado 2487" d="M2249.7,5483.421c-.256-12.056,6.9-15.472,5.31-18.777s-14.1,1.119-11.523-4.709,10.692-11.584,23.046-11.182a31.822,31.822,0,0,0-6.475-2.457s-12.156-9.236-31.626,0-26.757,19.391-26.757,19.391c13.823,0,29.225.042,39.232.076a9.046,9.046,0,0,1,8.992,9.853A60.634,60.634,0,0,0,2249.7,5483.421Z" fill="#5ab3b7"/>
            <path id="Trazado_2488" data-name="Trazado 2488" d="M2290.322,5561.189c-3.275-1.08-9.722,3.1-18.793-.819-7.517,5.205-5,10.764-4.243,12.871l17.175,17.551a9.78,9.78,0,0,0,3.573.677h12.7a2.226,2.226,0,0,0,2.215-2.225c.022-3.348-1.35-4.843-8.137-7.261C2288.91,5579.882,2291.014,5570.417,2290.322,5561.189Z" fill="#874f5b"/>
          </g>
          <path id="Trazado_2489" data-name="Trazado 2489" d="M2147.222,5442.878c3.017,12.516,5.43,22.924,27.724,22.924h28.426c12.463,0,25.53-6.616,33.995-11.613,16.7-9.862,22.688-7.893,22.688-7.893s17.952-17,15.135-20.885-19.495-5.9-46.633-1.43-41.6,3.849-45.879.777Z" fill="#78cfd8"/>
        </g>
        <g id="Grupo_11802" data-name="Grupo 11802">
          <path id="Trazado_2490" data-name="Trazado 2490" d="M2265.938,5393.16a6.435,6.435,0,0,0-4.731-2.087l-13.191-.273a27.424,27.424,0,0,0-8.241,1.09c-5.928,1.728-17.6,4.711-27.743,4.757-9.468.042-18,.435-24.241.823l-1,18.307c20.1-3.017,51.709-16.624,54.863-16.538l6.462.176c3.037.083,7.964-2.532,9.586-1.606,3.436,1.961,2.63,1.939,10.183,2.144C2271.259,5400.045,2268.206,5395.726,2265.938,5393.16Z" fill="#fca586"/>
          <path id="Trazado_2491" data-name="Trazado 2491" d="M2177.174,5398.284c-7.5-6.03-17.752-12.427-23.708-20.757-5.98-8.364-13.392-17.51-23.241-13.32-9.625,4.1-7,21.131,2.666,27.015,9.729,5.922,28.566,25.226,46.893,25.161a48.978,48.978,0,0,0,7.006-.606l1-18.307C2181.246,5397.877,2177.174,5398.284,2177.174,5398.284Z" fill="#692332"/>
        </g>
        <path id="Trazado_2492" data-name="Trazado 2492" d="M2149.344,5343.277l-8.968,19.311s-6.086-5.54-18.738-6.015a59.909,59.909,0,0,0,5.166-14.914,38.973,38.973,0,0,1,4.923-13.109S2150.145,5334.255,2149.344,5343.277Z" fill="#fcbba4"/>
        <path id="Trazado_2493" data-name="Trazado 2493" d="M2131.727,5328.55a38.973,38.973,0,0,0-4.923,13.109,59.909,59.909,0,0,1-5.166,14.914,42.2,42.2,0,0,1,4.5.4c1.135-2.372,2.962-6.074,5.274-10.361,3.653-6.773,9.97-.411,13.969,5.2l3.968-8.544C2150.145,5334.255,2131.727,5328.55,2131.727,5328.55Z" fill="#fca586"/>
        <path id="Trazado_2494" data-name="Trazado 2494" d="M2159.682,5317.821c4.636,12.458,2.376,26.784-2.506,28.5s-14.282-4.28-15.186-8.561-1.808,1.541-4.881-.343-6.328-10.444-1.627-10.615,5.062,3.938,7.231,2.739,1.026-19.054,7.557-19.054C2155.028,5310.483,2158.648,5315.041,2159.682,5317.821Z" fill="#fcbba4"/>
        <path id="Trazado_2495" data-name="Trazado 2495" d="M2157.557,5308.455c6.041,10.446-.2,17.3-6.889,22.125s-19.887,2.323-23.864,11.079a5.907,5.907,0,0,0-2.893-4.289c-2.531-1.251-5.423-.714-5.966-8.04s-1.265-16.8,7.232-23.943S2151.581,5298.121,2157.557,5308.455Z" fill="#463840"/>
        <path id="Trazado_2496" data-name="Trazado 2496" d="M2151.785,5368.292c-18.033-12.313-24.984-12.326-30.147-11.719s-11.456,9.106-11.142,20.094,3.641,24.315,16.561,36.417,15.548,10.9,20.165,29.794c0,0,26.2-3.775,35.456-18.12,0,0-6.3-.731-7.943-12.4s-4.9-22.176-9.663-29.882S2151.785,5368.292,2151.785,5368.292Z" fill="#8e3948"/>
        <path id="Trazado_2497" data-name="Trazado 2497" d="M2171.462,5427.72c-2.444-.474-6.474,7.325-13.833-2.854-1.846-2.552-2.584-6.911,12.465-4.543,14.7,2.314-36.791-33.344-41.321-44.973-3.156-8.1-4.476-14.8-2.64-18.372l-.2-.564a23.16,23.16,0,0,0-4.3.159c-5.163.606-11.456,9.106-11.142,20.094s3.641,24.315,16.561,36.417,15.548,10.9,20.165,29.794c0,0,26.2-3.775,35.456-18.12C2182.678,5424.758,2178.986,5429.182,2171.462,5427.72Z" fill="#692332"/>
        <path id="Trazado_2498" data-name="Trazado 2498" d="M2278.112,5398.958a.653.653,0,0,0-.234-.923c-1.46-.835-5.719-2.791-13.568-2.791s-12.108,1.956-13.568,2.791a.653.653,0,0,0-.234.923l.315.494a1.232,1.232,0,0,0,1.041.568h24.892a1.232,1.232,0,0,0,1.041-.568Z" fill="#f1f1f1"/>
        <path id="Trazado_2499" data-name="Trazado 2499" d="M2144.735,5302.17c6.837-4.288,17.979,4.671,19.854,11.748,1.571,5.933-.9,10.766-4.339,12.731s-14.825-16.974-14.825-16.974Z" fill="#463840"/>
        <g id="Grupo_11803" data-name="Grupo 11803">
          <path id="Trazado_2500" data-name="Trazado 2500" d="M2269.86,5393.1a6.676,6.676,0,0,0-4.805-2.027h-12.918a25.376,25.376,0,0,0-8.077,1.311c-5.794,1.942-17.447,5.39-27.985,5.717-10,.31-19.114.979-25.859,1.585v20.387c21.673-4.266,53.282-20.056,56.46-20.056h6.464c3.017,0,7.577-2.851,9.267-1.935,3.572,1.935,2.785,1.935,10.128,1.935C2275.789,5400.02,2272.342,5395.672,2269.86,5393.1Z" fill="#fcbba4"/>
          <path id="Trazado_2501" data-name="Trazado 2501" d="M2178.579,5400.9c-8.638-6.443-20.422-13.25-27.431-22.271s-15.637-18.847-26.969-14.336-8.236,23.518,3.336,29.962,34.065,27.8,54.927,26.834a53.829,53.829,0,0,0,7.774-1.017v-20.387C2183.063,5400.331,2178.579,5400.9,2178.579,5400.9Z" fill="#8e3948"/>
        </g>
      </g>
      <g id="Grupo_11806" data-name="Grupo 11806">
        <path id="Trazado_2502" data-name="Trazado 2502" d="M2148.362,5476.8l-13.614,114.62h0a8.436,8.436,0,0,0,8.272-6.518l20.364-90.61h30.983V5476.8Z" fill="#ffd994"/>
        <path id="Trazado_2503" data-name="Trazado 2503" d="M2240.373,5476.8l13.614,114.62h0a8.435,8.435,0,0,1-8.272-6.518l-20.364-90.61h-30.984V5476.8Z" fill="#e5af70"/>
        <path id="Trazado_2504" data-name="Trazado 2504" d="M2243.706,5476.8h-98.677a4.285,4.285,0,0,1-4.327-4.242h0a6.873,6.873,0,0,1,6.94-6.805h93.451a6.873,6.873,0,0,1,6.94,6.805h0A4.285,4.285,0,0,1,2243.706,5476.8Z" fill="#463840"/>
        <g id="Grupo_11805" data-name="Grupo 11805">
          <path id="Trazado_2505" data-name="Trazado 2505" d="M2113.908,5411.711l32.673,78.98-1.778,16.175-34.53-95.155Z" fill="#ffd994"/>
          <path id="Trazado_2506" data-name="Trazado 2506" d="M2144.8,5506.867l-34.53-95.156h0a1.561,1.561,0,0,0-1.468,2.093l35.429,97.742Z" fill="#e5af70"/>
        </g>
        <path id="Trazado_2507" data-name="Trazado 2507" d="M2106.3,5384.347a2.54,2.54,0,0,0-2.345,3.516l18.007,43.241a2.465,2.465,0,0,0,3.685,1.172h0a26.757,26.757,0,0,0,10.165-31.383l-4.155-11.351a7.915,7.915,0,0,0-7.434-5.195Z" fill="#ffd994"/>
      </g>
      <g id="Grupo_11809" data-name="Grupo 11809">
        <rect id="Rectángulo_4385" data-name="Rectángulo 4385" width="110.583" height="22.638" transform="translate(2280.197 5414.941)" fill="#ffd994"/>
        <rect id="Rectángulo_4386" data-name="Rectángulo 4386" width="110.583" height="5.659" transform="translate(2280.197 5414.941)" fill="#e59940"/>
        <rect id="Rectángulo_4387" data-name="Rectángulo 4387" width="178.881" height="14.936" transform="translate(2246.048 5400.006)" fill="#ffd994"/>
        <rect id="Rectángulo_4388" data-name="Rectángulo 4388" width="178.881" height="7.468" transform="translate(2246.048 5407.474)" fill="#e5af70"/>
        <g id="Grupo_11808" data-name="Grupo 11808">
          <g id="Grupo_11807" data-name="Grupo 11807">
            <path id="Trazado_2508" data-name="Trazado 2508" d="M2262.559,5548.12h145.859l-5.007-14.006H2267.323Z" fill="#ffd994"/>
            <path id="Trazado_2509" data-name="Trazado 2509" d="M2405.915,5541.116l-2.5-7H2267.323l-2.382,7Z" fill="#e5af70"/>
          </g>
          <path id="Trazado_2510" data-name="Trazado 2510" d="M2280.2,5437.579l-27.948,153.89h0a5.825,5.825,0,0,0,5.768-5.224l44.052-148.666Z" fill="#ffd994"/>
          <path id="Trazado_2511" data-name="Trazado 2511" d="M2390.78,5437.579l27.948,153.89h0a5.826,5.826,0,0,1-5.769-5.224l-44.052-148.666Z" fill="#ffd994"/>
        </g>
      </g>
      <path id="Trazado_2512" data-name="Trazado 2512" d="M2122.282,5352.28c-1.243-1.508-3.06-3.012-2.754-4.934.273-1.714,2.239-3.034,1.909-4.738-.17-.874-.92-1.527-1.227-2.363-.722-1.976,6.01-9.983.753-9-1.977.368-3.295,2.358-4.995,3.288-2.461,1.344-5.292,1.835-7.963,2.606-8.822,2.548-10.288,8.443-7.939,12.891a20.588,20.588,0,0,0-11.314-4.516c-17.5-1.289-20.829,23.181-8.666,32,4.319,3.131,10.5,4.135,13.924,2.55-8.426,5.4-8.839,15.793,1.514,18.924,12.115,3.664,22.426-6.1,19.688-15.886-1.494-5.34-6.844-9.464-6.727-15.185.058-2.8,1.982-5.73,4.793-6.045,2.188-.245,4.33,1.085,6.515.813C2123.81,5362.178,2125.973,5356.761,2122.282,5352.28Z" fill="#463840"/>
      <g id="Grupo_11811" data-name="Grupo 11811">
        <path id="Trazado_2513" data-name="Trazado 2513" d="M2382.851,5348.072h0l9.892,41.005a6.616,6.616,0,0,1-1.886,6.365,7.057,7.057,0,0,1-4.907,1.873h-25.309a2.708,2.708,0,0,0-2.726,2.691h27.955a9.893,9.893,0,0,0,7.075-2.82,9.263,9.263,0,0,0,2.449-8.733l-9.092-37.69A3.54,3.54,0,0,0,2382.851,5348.072Z" fill="#e8e0e4"/>
        <g id="Grupo_11810" data-name="Grupo 11810">
          <path id="Trazado_2514" data-name="Trazado 2514" d="M2374.49,5313.023l1.993.365a3.174,3.174,0,0,1,2.3,1.763c2.229,4.721,8.573,20.134,5.474,37.036s-14.5,29.063-18.255,32.685a3.172,3.172,0,0,1-2.78.832l-1.993-.366Z" fill="#f1f1f1"/>
          <rect id="Rectángulo_4389" data-name="Rectángulo 4389" width="2.026" height="73.521" transform="matrix(0.984, 0.18, -0.18, 0.984, 2374.49, 5313.022)" fill="#e8e0e4"/>
        </g>
      </g>
      <g id="Grupo_11814" data-name="Grupo 11814">
        <g id="Grupo_11813" data-name="Grupo 11813">
          <g id="Grupo_11812" data-name="Grupo 11812">
            <path id="Trazado_2515" data-name="Trazado 2515" d="M2370.658,5396.437h-96.025a3.569,3.569,0,0,0,3.569,3.569h88.887a3.569,3.569,0,0,0,3.569-3.569Z" fill="#85818e"/>
          </g>
        </g>
        <path id="Trazado_2516" data-name="Trazado 2516" d="M2303.812,5400.006h63.514a4.275,4.275,0,0,0,4.22-3.592l7.635-47.168a3.278,3.278,0,0,0-3.235-3.8h-63.515a4.276,4.276,0,0,0-4.22,3.592l-7.634,47.168A3.277,3.277,0,0,0,2303.812,5400.006Z" fill="#ddd"/>
      </g>
      <g id="Grupo_11818" data-name="Grupo 11818">
        <path id="Trazado_2517" data-name="Trazado 2517" d="M2369.22,5272.307c2.877-2.668,8.024-1.841,8.024,2.38v4.1a6.781,6.781,0,0,0,1.15,3.778l3.083,4.6a4.834,4.834,0,0,1,.821,2.7v4.321" fill="none" stroke="#397fc1" stroke-miterlimit="10" stroke-width="1"/>
        <path id="Trazado_2518" data-name="Trazado 2518" d="M2416.829,5325.785l-6.68-4.078a4.287,4.287,0,0,1-1.7-5.361l1.963-4.539" fill="none" stroke="#397fc1" stroke-miterlimit="10" stroke-width="1"/>
        <g id="Grupo_11815" data-name="Grupo 11815">
          <path id="Trazado_2519" data-name="Trazado 2519" d="M2390.4,5396.965h3.634v-13.207a18.009,18.009,0,0,1,1.578-7.4l25.949-58.021-3.318-1.483-25.948,58.02a21.607,21.607,0,0,0-1.9,8.88Z" fill="#66c9ff"/>
        </g>
        <path id="Rectángulo_4390" data-name="Rectángulo 4390" d="M0,0H16.394a0,0,0,0,1,0,0V3.383a4.262,4.262,0,0,1-4.262,4.262H4.262A4.262,4.262,0,0,1,0,3.383V0A0,0,0,0,1,0,0Z" transform="translate(2400.41 5397.746) rotate(180)" fill="#397fc1"/>
        <path id="Rectángulo_4391" data-name="Rectángulo 4391" d="M.878,0H42a.879.879,0,0,1,.879.879V5.2A.879.879,0,0,1,42,6.082H.879A.879.879,0,0,1,0,5.2V.878A.878.878,0,0,1,.878,0Z" transform="translate(2413.655 5400.006) rotate(180)" fill="#66c9ff"/>
        <g id="Grupo_11816" data-name="Grupo 11816">
          <rect id="Rectángulo_4392" data-name="Rectángulo 4392" width="3.634" height="64.139" transform="translate(2364.212 5285.724) rotate(-58.587)" fill="#66c9ff"/>
        </g>
        <path id="Trazado_2520" data-name="Trazado 2520" d="M2416.829,5317.6a3.07,3.07,0,1,0,3.07-3.07A3.07,3.07,0,0,0,2416.829,5317.6Z" fill="#397fc1"/>
        <circle id="Elipse_8" data-name="Elipse 8" cx="3.07" cy="3.07" r="3.07" transform="translate(2370.273 5286.222)" fill="#397fc1"/>
        <g id="Grupo_11817" data-name="Grupo 11817">
          <path id="Trazado_2521" data-name="Trazado 2521" d="M2354.527,5281l7.773-6.986a.919.919,0,0,1,1.2-.025l5.136,4.247a.92.92,0,0,1,.2,1.185l-5.4,8.946a3.13,3.13,0,0,0-.405,2.141c1.077,6.37-1.737,15.215-7.862,23.28a1.99,1.99,0,0,1-2.852.331l-21-17.359a1.993,1.993,0,0,1-.211-2.864c6.771-7.531,14.93-11.957,21.389-12.095A3.132,3.132,0,0,0,2354.527,5281Z" fill="#66c9ff"/>
          <path id="Trazado_2522" data-name="Trazado 2522" d="M2364.5,5274.823l3.131,2.589,1.914-3.17a1.505,1.505,0,0,0-.329-1.935h0a1.5,1.5,0,0,0-1.962.041Z" fill="#397fc1"/>
          <path id="Trazado_2523" data-name="Trazado 2523" d="M2358.068,5282.043l5.3-5.513a.75.75,0,0,1,1.018-.058l1.656,1.369a.749.749,0,0,1,.133,1.01l-4.42,6.238a.749.749,0,0,1-1.089.145l-2.532-2.094A.75.75,0,0,1,2358.068,5282.043Z" fill="#397fc1"/>
        </g>
      </g>
      <g id="Grupo_11826" data-name="Grupo 11826">
        <g id="Grupo_11825" data-name="Grupo 11825">
          <g id="Grupo_11819" data-name="Grupo 11819">
            <path id="Trazado_2524" data-name="Trazado 2524" d="M2430.882,5441.54c-2.234,20.213-43.57,26.769-55.9,57.213,3.878-9.543,14.061-47.356,39.007-57.951C2419.6,5438.365,2425.928,5437.764,2430.882,5441.54Z" fill="#2f8468"/>
            <path id="Trazado_2525" data-name="Trazado 2525" d="M2371.547,5508.929a105.3,105.3,0,0,1,48-61.711" fill="none" stroke="#216d55" stroke-linecap="round" stroke-miterlimit="10" stroke-width="2"/>
          </g>
          <g id="Grupo_11820" data-name="Grupo 11820">
            <path id="Trazado_2526" data-name="Trazado 2526" d="M2310.864,5426.21c5.669-3.169,12.146-1.653,17.658,1.747,24.311,14.718,29.08,55.3,31.7,66.085C2352.042,5460.166,2310.179,5447.974,2310.864,5426.21Z" fill="#2f8468"/>
            <path id="Trazado_2527" data-name="Trazado 2527" d="M2362.206,5505.134a109.59,109.59,0,0,0-40.416-71.343" fill="none" stroke="#216d55" stroke-linecap="round" stroke-miterlimit="10" stroke-width="2"/>
          </g>
          <g id="Grupo_11821" data-name="Grupo 11821">
            <path id="Trazado_2528" data-name="Trazado 2528" d="M2369.936,5504.639c19.257-33.023,17.116-72.656,3.286-99.093" fill="none" stroke="#216d55" stroke-miterlimit="10" stroke-width="2"/>
            <path id="Trazado_2529" data-name="Trazado 2529" d="M2351.471,5376.059c4.589-4.911,29.473,8.378,31.769,46.139.275,7.23-.265,13.031.33,18.5C2383.07,5436.62,2344.042,5383.976,2351.471,5376.059Z" fill="#216d55"/>
          </g>
          <g id="Grupo_11822" data-name="Grupo 11822">
            <path id="Trazado_2530" data-name="Trazado 2530" d="M2381.532,5475.07a125.883,125.883,0,0,1,33.506-58.484" fill="none" stroke="#216d55" stroke-miterlimit="10" stroke-width="2"/>
            <path id="Trazado_2531" data-name="Trazado 2531" d="M2433.853,5401.114c5.071,7.575-29.623,27.169-34.451,34.154.97-1.474,1.407-5.033,2.852-9.688C2409.147,5404.1,2431.38,5397.416,2433.853,5401.114Z" fill="#216d55"/>
          </g>
          <g id="Grupo_11823" data-name="Grupo 11823">
            <path id="Trazado_2532" data-name="Trazado 2532" d="M2379.6,5429.374c6.892,13.351-16.282,34.369-14.81,57.566-.519-8.287-6.475-35.687,4.163-51.234C2371.478,5431.969,2375.077,5429.132,2379.6,5429.374Z" fill="#2f8468"/>
            <path id="Trazado_2533" data-name="Trazado 2533" d="M2365.668,5494.8a95.385,95.385,0,0,1,9.288-57.329" fill="none" stroke="#216d55" stroke-linecap="round" stroke-miterlimit="10" stroke-width="2"/>
          </g>
          <g id="Grupo_11824" data-name="Grupo 11824">
            <path id="Trazado_2534" data-name="Trazado 2534" d="M2364.638,5483.388a122.206,122.206,0,0,0-16.668-59.12" fill="none" stroke="#216d55" stroke-miterlimit="10" stroke-width="2"/>
            <path id="Trazado_2535" data-name="Trazado 2535" d="M2355.018,5433.491c.7,3.8,1.219,7.774,2.316,10.8-1.006-2.973-9.74-8.448-15.52-18.19C2321.506,5392.607,2349.663,5404.072,2355.018,5433.491Z" fill="#216d55"/>
          </g>
        </g>
        <path id="Trazado_2536" data-name="Trazado 2536" d="M2386.535,5591.469h-31.753a14.891,14.891,0,0,1-14.87-14.087l-4.727-87.472a7.147,7.147,0,0,1,7.136-7.533H2399a7.148,7.148,0,0,1,7.137,7.533l-4.728,87.472A14.891,14.891,0,0,1,2386.535,5591.469Z" fill="#b2ddfb"/>
      </g>
      <g id="Grupo_11830" data-name="Grupo 11830">
        <g id="Grupo_11827" data-name="Grupo 11827">
          <rect id="Rectángulo_4393" data-name="Rectángulo 4393" width="83.03" height="15.55" rx="0.571" transform="translate(2103.76 5575.919)" fill="#95d469"/>
          <rect id="Rectángulo_4394" data-name="Rectángulo 4394" width="2.732" height="15.55" transform="translate(2170.735 5575.919)" fill="#cae9b4"/>
          <rect id="Rectángulo_4395" data-name="Rectángulo 4395" width="2.732" height="15.55" transform="translate(2165.593 5575.919)" fill="#cae9b4"/>
        </g>
        <g id="Grupo_11828" data-name="Grupo 11828">
          <rect id="Rectángulo_4396" data-name="Rectángulo 4396" width="83.03" height="15.55" rx="0.571" transform="translate(2111.908 5548.312)" fill="#65398e"/>
          <rect id="Rectángulo_4397" data-name="Rectángulo 4397" width="25.571" height="2.73" transform="translate(2140.637 5554.722)" fill="#462369"/>
          <rect id="Rectángulo_4398" data-name="Rectángulo 4398" width="12.786" height="2.73" transform="translate(2121.109 5554.722)" fill="#462369"/>
          <path id="Trazado_2537" data-name="Trazado 2537" d="M2183.56,5556.086a5.649,5.649,0,1,1-5.649-5.648A5.649,5.649,0,0,1,2183.56,5556.086Z" fill="#d463d6"/>
        </g>
        <g id="Grupo_11829" data-name="Grupo 11829">
          <rect id="Rectángulo_4399" data-name="Rectángulo 4399" width="49.497" height="7.869" transform="translate(2156.111 5565.956)" fill="#e8e0e4"/>
          <path id="Trazado_2538" data-name="Trazado 2538" d="M2208.192,5564.909h0a1.048,1.048,0,0,0-1.047-1.048h-88.489a1.275,1.275,0,0,0-1.275,1.275v9.509a1.275,1.275,0,0,0,1.275,1.275h88.489a1.047,1.047,0,0,0,1.047-1.048h0a1.047,1.047,0,0,0-1.047-1.047h-50.216a.818.818,0,0,1-.818-.818v-6.233a.817.817,0,0,1,.818-.818h50.216A1.047,1.047,0,0,0,2208.192,5564.909Z" fill="#2f3767"/>
          <rect id="Rectángulo_4400" data-name="Rectángulo 4400" width="27.62" height="2.727" transform="translate(2122.063 5568.527)" fill="#5ab3b7"/>
        </g>
      </g>
      <g id="Grupo_11831" data-name="Grupo 11831">
        <rect id="Rectángulo_4401" data-name="Rectángulo 4401" width="9.172" height="3.754" transform="translate(2150.317 5509.508)" fill="#c1674a"/>
        <path id="Rectángulo_4402" data-name="Rectángulo 4402" d="M2.118,0H7.054A2.118,2.118,0,0,1,9.172,2.118V3.754a0,0,0,0,1,0,0H0a0,0,0,0,1,0,0V2.118A2.118,2.118,0,0,1,2.118,0Z" transform="translate(2150.317 5505.754)" fill="#ffb9b8"/>
        <path id="Trazado_2539" data-name="Trazado 2539" d="M2159.15,5548.312h-8.493a3.837,3.837,0,0,1-3.817-4.281,165.92,165.92,0,0,0,1.227-17.817c0-6.178-.706-6.091-1.227-10.549a3.837,3.837,0,0,1,3.817-4.28h8.493a3.838,3.838,0,0,1,3.817,4.28c-.521,4.458-1.228,4.371-1.228,10.549a165.891,165.891,0,0,0,1.228,17.817A3.838,3.838,0,0,1,2159.15,5548.312Z" fill="#ffb9b8"/>
      </g>
    </g>
  </g>
</svg>
