<svg xmlns="http://www.w3.org/2000/svg" width="1022.19" height="577.546" viewBox="0 0 1022.19 577.546">
  <g id="Grupo_11773" data-name="Grupo 11773" transform="translate(-1742.505 -6498.388)">
    <rect id="Rectángulo_4350" data-name="Rectángulo 4350" width="1022.19" height="5.122" transform="translate(1742.505 6498.388)" fill="#a9c4e9"/>
    <rect id="Rectángulo_4351" data-name="Rectángulo 4351" width="1022.19" height="570.562" transform="translate(1742.505 6503.51)" fill="#4d4d4d"/>
    <text id="int_numero1_int_numero2_int_main_system_pause_return_0_int_funcion1_instrucciones_de_la_función_1_void_funcion2_instrucciones_de_la_función_2_int_cantidades_int_funcion3_" data-name="int numero1;
int numero2;

int main(){

          system(&quot;pause&quot;);
          return 0;
}

int funcion1()
{
           //instrucciones de la función 1
}

void funcion2 ()
{
          //instrucciones de la función 2
}

int cantidades;

int funcion3 ()
{
    " transform="translate(1767.125 6511.934)" fill="#fff" font-size="18" font-family="OpenSans-Regular, Open Sans"><tspan x="0" y="19">int numero1;</tspan><tspan x="0" y="40.6">int numero2;</tspan><tspan x="0" y="62.2"></tspan><tspan x="0" y="83.8">int main(){</tspan><tspan x="0" y="105.4"></tspan><tspan x="0" y="127" xml:space="preserve">          system(&quot;pause&quot;);</tspan><tspan x="0" y="148.6" xml:space="preserve">          return 0;</tspan><tspan x="0" y="170.2">}</tspan><tspan x="0" y="191.8"></tspan><tspan x="0" y="213.4">int funcion1()</tspan><tspan x="0" y="235">{</tspan><tspan x="0" y="256.6" xml:space="preserve">           //instrucciones de la función 1</tspan><tspan x="0" y="278.2">}</tspan><tspan x="0" y="299.8"></tspan><tspan x="0" y="321.4">void funcion2 ()</tspan><tspan x="0" y="343">{</tspan><tspan x="0" y="364.6" xml:space="preserve">          //instrucciones de la función 2</tspan><tspan x="0" y="386.2">}</tspan><tspan x="0" y="407.8"></tspan><tspan x="0" y="429.4">int cantidades;</tspan><tspan x="0" y="451"></tspan><tspan x="0" y="472.6">int funcion3 ()</tspan><tspan x="0" y="494.2">{</tspan><tspan x="0" y="515.8" xml:space="preserve">          //instrucciones de la función 3</tspan><tspan x="0" y="537.4">}</tspan></text>
  </g>
</svg>
