<svg xmlns="http://www.w3.org/2000/svg" width="90.709" height="72.144" viewBox="0 0 90.709 72.144">
  <g id="Grupo_12640" data-name="Grupo 12640" transform="translate(-1706.293 -4832.588)">
    <line id="Línea_371" data-name="Línea 371" y2="68.144" transform="translate(1795.002 4834.588)" fill="none" stroke="#a4dbf5" stroke-linecap="round" stroke-miterlimit="10" stroke-width="4"/>
    <g id="Grupo_11768" data-name="Grupo 11768">
      <path id="Trazado_2395" data-name="Trazado 2395" d="M1761.326,4842.592H1749.74v-.725a7.972,7.972,0,0,0-7.965-7.965h-27.517a7.972,7.972,0,0,0-7.965,7.965v44.9a7.972,7.972,0,0,0,7.965,7.966h6.517a8.7,8.7,0,0,0,8.69,8.689h31.861a8.7,8.7,0,0,0,8.69-8.689v-43.448a8.7,8.7,0,0,0-8.69-8.689Zm2.9,52.137a2.9,2.9,0,0,1-2.9,2.9h-31.861a2.9,2.9,0,0,1-2.9-2.9v-43.448a2.9,2.9,0,0,1,2.9-2.9h31.861a2.9,2.9,0,0,1,2.9,2.9Z" fill="#a4dbf5"/>
      <path id="Trazado_2396" data-name="Trazado 2396" d="M1733.085,4869.384h10.138a2.173,2.173,0,0,0,2.173-2.172v-10.138a2.173,2.173,0,0,0-2.173-2.172h-10.138a2.173,2.173,0,0,0-2.172,2.172v10.138a2.172,2.172,0,0,0,2.172,2.172Z" fill="#a4dbf5"/>
      <path id="Trazado_2397" data-name="Trazado 2397" d="M1758.43,4863.591h-6.517a2.9,2.9,0,1,0,0,5.793h6.517a2.9,2.9,0,0,0,0-5.793Z" fill="#a4dbf5"/>
      <path id="Trazado_2398" data-name="Trazado 2398" d="M1758.43,4854.9h-6.517a2.9,2.9,0,1,0,0,5.793h6.517a2.9,2.9,0,0,0,0-5.793Z" fill="#a4dbf5"/>
      <path id="Trazado_2399" data-name="Trazado 2399" d="M1757.706,4886.763h-24.621a2.9,2.9,0,0,0,0,5.793h24.621a2.9,2.9,0,0,0,0-5.793Z" fill="#a4dbf5"/>
      <path id="Trazado_2400" data-name="Trazado 2400" d="M1757.706,4875.177h-24.621a2.9,2.9,0,0,0,0,5.793h24.621a2.9,2.9,0,0,0,0-5.793Z" fill="#a4dbf5"/>
    </g>
  </g>
</svg>
