<svg xmlns="http://www.w3.org/2000/svg" width="93.606" height="72.144" viewBox="0 0 93.606 72.144">
  <g id="Grupo_12641" data-name="Grupo 12641" transform="translate(-1703.396 -5081.77)">
    <line id="Línea_372" data-name="Línea 372" y2="68.144" transform="translate(1795.002 5083.77)" fill="none" stroke="#a4dbf5" stroke-linecap="round" stroke-miterlimit="10" stroke-width="4"/>
    <g id="Grupo_11833" data-name="Grupo 11833">
      <path id="Trazado_2540" data-name="Trazado 2540" d="M1713.579,5152.6h49.15a10.194,10.194,0,0,0,10.183-10.183,2.036,2.036,0,0,0-2.036-2.037h-2.037v-34.622a2.036,2.036,0,0,0-2.036-2.037h-17.152l-9.672-19.505a2.036,2.036,0,0,0-3.649,0l-9.673,19.505h-17.151a2.037,2.037,0,0,0-2.037,2.037v34.622h-2.036a2.037,2.037,0,0,0-2.037,2.037,10.194,10.194,0,0,0,10.183,10.183Zm49.15-4.073h-49.15a6.121,6.121,0,0,1-5.761-4.075h60.672a6.119,6.119,0,0,1-5.761,4.075Zm-24.575-58.822c.321.652,12.185,24.573,12.51,25.227l-10.473-2.618v-6.556a2.036,2.036,0,1,0-4.073,0v6.556l-10.473,2.618c1.026-2.07,11.158-22.481,12.509-25.227Zm-26.611,18.089h13.095l-4.6,9.279a2.036,2.036,0,0,0,2.318,2.88l13.763-3.44v5.538a6.117,6.117,0,0,0,6.11,6.109h8.146a2.037,2.037,0,1,1,0,4.074h-28.513a2.037,2.037,0,0,0,0,4.073h28.513a6.11,6.11,0,0,0,0-12.22h-8.146a2.039,2.039,0,0,1-2.037-2.036v-5.538l13.762,3.44a2.036,2.036,0,0,0,2.319-2.88l-4.6-9.279h13.095v32.586h-53.223Zm0,0" fill="#a4dbf5"/>
    </g>
  </g>
</svg>
