<svg xmlns="http://www.w3.org/2000/svg" width="98.395" height="72.144" viewBox="0 0 98.395 72.144">
  <g id="Grupo_12642" data-name="Grupo 12642" transform="translate(-1698.607 -5783.781)">
    <line id="Línea_373" data-name="Línea 373" y2="68.144" transform="translate(1795.002 5785.781)" fill="none" stroke="#a4dbf5" stroke-linecap="round" stroke-miterlimit="10" stroke-width="4"/>
    <g id="Grupo_11834" data-name="Grupo 11834">
      <path id="Trazado_2541" data-name="Trazado 2541" d="M1700.925,5854.611h74.459a2.316,2.316,0,0,0,2.317-2.317v-64.881a2.317,2.317,0,0,0-2.317-2.318h-74.459a2.317,2.317,0,0,0-2.318,2.318v64.881a2.316,2.316,0,0,0,2.318,2.317Zm2.317-64.881h69.825v60.247h-69.825Zm0,0" fill="#a4dbf5"/>
      <path id="Trazado_2542" data-name="Trazado 2542" d="M1768.432,5796.681a2.317,2.317,0,1,1-2.317-2.317,2.317,2.317,0,0,1,2.317,2.317Zm0,0" fill="#a4dbf5"/>
      <path id="Trazado_2543" data-name="Trazado 2543" d="M1759.164,5796.681a2.317,2.317,0,1,1-2.318-2.317,2.318,2.318,0,0,1,2.318,2.317Zm0,0" fill="#a4dbf5"/>
      <path id="Trazado_2544" data-name="Trazado 2544" d="M1749.9,5796.681a2.318,2.318,0,1,1-2.317-2.317,2.317,2.317,0,0,1,2.317,2.317Zm0,0" fill="#a4dbf5"/>
      <path id="Trazado_2545" data-name="Trazado 2545" d="M1710.193,5799h28.116a2.318,2.318,0,0,0,0-4.635h-28.116a2.318,2.318,0,0,0,0,4.635Zm0,0" fill="#a4dbf5"/>
      <path id="Trazado_2546" data-name="Trazado 2546" d="M1766.115,5803.633h-55.922a2.317,2.317,0,0,0-2.317,2.317v37.075a2.316,2.316,0,0,0,2.317,2.318h55.922a2.316,2.316,0,0,0,2.317-2.318V5805.95a2.317,2.317,0,0,0-2.317-2.317Zm-2.317,37.075h-51.287v-32.441H1763.8Zm0,0" fill="#a4dbf5"/>
      <path id="Trazado_2547" data-name="Trazado 2547" d="M1747.967,5830.408a2.316,2.316,0,0,0,3.213.642l6.951-4.635a2.315,2.315,0,0,0,0-3.855l-6.951-4.634a2.317,2.317,0,1,0-2.57,3.855l4.059,2.707-4.06,2.706a2.318,2.318,0,0,0-.642,3.214Zm0,0" fill="#a4dbf5"/>
      <path id="Trazado_2548" data-name="Trazado 2548" d="M1718.177,5826.415l6.952,4.635a2.317,2.317,0,1,0,2.57-3.856l-4.059-2.706,4.059-2.707a2.317,2.317,0,1,0-2.57-3.855l-6.952,4.634a2.316,2.316,0,0,0,0,3.855Zm0,0" fill="#a4dbf5"/>
      <path id="Trazado_2549" data-name="Trazado 2549" d="M1732.3,5835.815a2.316,2.316,0,0,0,3.122-1l9.578-18.537a2.318,2.318,0,0,0-4.118-2.128l-9.578,18.538a2.317,2.317,0,0,0,1,3.122Zm0,0" fill="#a4dbf5"/>
    </g>
  </g>
</svg>
