<svg xmlns="http://www.w3.org/2000/svg" width="102.355" height="103.172" viewBox="0 0 102.355 103.172">
  <g id="Grupo_11837" data-name="Grupo 11837" transform="translate(1340.354 -4767.32)">
    <path id="Trazado_2571" data-name="Trazado 2571" d="M-1256.741,4860.112h-51.881a4.929,4.929,0,0,1-4.929-4.929V4773.76a4.929,4.929,0,0,1,4.929-4.929h51.881a4.929,4.929,0,0,1,4.929,4.929v81.423a4.929,4.929,0,0,1-4.929,4.929Zm0,0" fill="#33bdb0"/>
    <path id="Trazado_2572" data-name="Trazado 2572" d="M-1256.741,4768.831h-9.723a4.929,4.929,0,0,1,4.929,4.929v81.423a4.929,4.929,0,0,1-4.929,4.93h9.723a4.929,4.929,0,0,0,4.929-4.93V4773.76a4.929,4.929,0,0,0-4.929-4.929Zm0,0" fill="#00ad9c"/>
    <rect id="Rect치ngulo_4407" data-name="Rect치ngulo 4407" width="61.739" height="70.571" transform="translate(-1313.551 4779.265)" fill="#ffca7d"/>
    <rect id="Rect치ngulo_4408" data-name="Rect치ngulo 4408" width="9.723" height="70.571" transform="translate(-1261.535 4779.265)" fill="#ffb951"/>
    <path id="Trazado_2573" data-name="Trazado 2573" d="M-1287.582,4832.5h-46.36a4.9,4.9,0,0,1-4.9-4.9v-32.249a4.9,4.9,0,0,1,4.9-4.9h46.36a4.9,4.9,0,0,1,4.9,4.9V4827.6a4.9,4.9,0,0,1-4.9,4.9Zm0,0" fill="#fff"/>
    <path id="Trazado_2574" data-name="Trazado 2574" d="M-1287.582,4790.455h-5.914v42.05h5.914a4.9,4.9,0,0,0,4.9-4.9v-32.249a4.9,4.9,0,0,0-4.9-4.9Zm0,0" fill="#e6e6e6"/>
    <path id="Trazado_2575" data-name="Trazado 2575" d="M-1329.371,4812.3l7.439-4.865a.734.734,0,0,1,.424-.113,1.491,1.491,0,0,1,1.358,1.414.99.99,0,0,1-.425.82l-5.939,3.9,5.939,3.9a.92.92,0,0,1,.425.82,1.462,1.462,0,0,1-1.358,1.386.741.741,0,0,1-.424-.113l-7.439-4.865a1.417,1.417,0,0,1-.622-1.131,1.467,1.467,0,0,1,.622-1.16Zm0,0" fill="#4d4d4d"/>
    <path id="Trazado_2576" data-name="Trazado 2576" d="M-1304.425,4800.586a.83.83,0,0,1-.113.453l-10.381,20.705a1.024,1.024,0,0,1-.933.536,1.092,1.092,0,0,1-1.1-1.046,1.128,1.128,0,0,1,.085-.424l10.408-20.789a.86.86,0,0,1,.849-.509,1.153,1.153,0,0,1,1.188,1.074Zm0,0" fill="#4d4d4d"/>
    <path id="Trazado_2577" data-name="Trazado 2577" d="M-1292.037,4814.587l-7.439,4.865a.647.647,0,0,1-.4.113,1.441,1.441,0,0,1-1.358-1.386.968.968,0,0,1,.4-.82l5.968-3.9-5.968-3.9a1.049,1.049,0,0,1-.4-.82,1.469,1.469,0,0,1,1.358-1.415.648.648,0,0,1,.4.114l7.439,4.864a1.467,1.467,0,0,1,.622,1.161,1.345,1.345,0,0,1-.622,1.13Zm0,0" fill="#4d4d4d"/>
    <path id="Trazado_2578" data-name="Trazado 2578" d="M-1260.177,4868.981a2.707,2.707,0,0,1-2.7-2.705v-.861a.934.934,0,0,0-.667-.9,15.615,15.615,0,0,1-3.208-1.313.9.9,0,0,0-.433-.111.952.952,0,0,0-.669.279l-.6.6a2.687,2.687,0,0,1-1.911.792,2.683,2.683,0,0,1-1.912-.793l-1.47-1.469a2.689,2.689,0,0,1-.792-1.912,2.691,2.691,0,0,1,.792-1.912l.6-.6a.936.936,0,0,0,.167-1.1,15.681,15.681,0,0,1-1.313-3.207.935.935,0,0,0-.9-.668h-.862a2.707,2.707,0,0,1-2.7-2.7v-2.078a2.707,2.707,0,0,1,2.7-2.7h.935a.949.949,0,0,0,.907-.658,15.532,15.532,0,0,1,1.325-3.106.937.937,0,0,0-.16-1.117l-.7-.7a2.684,2.684,0,0,1-.792-1.912,2.688,2.688,0,0,1,.792-1.912l1.47-1.47a2.687,2.687,0,0,1,1.912-.791,2.686,2.686,0,0,1,1.911.791l.777.777a.952.952,0,0,0,.668.278.9.9,0,0,0,.428-.107,15.6,15.6,0,0,1,3.034-1.221.936.936,0,0,0,.671-.9v-1.135a2.707,2.707,0,0,1,2.7-2.7h2.078a2.707,2.707,0,0,1,2.7,2.7v1.214a.939.939,0,0,0,.655.9,15.6,15.6,0,0,1,2.942,1.233.915.915,0,0,0,.443.113.94.94,0,0,0,.667-.276l.871-.871a2.687,2.687,0,0,1,1.912-.791,2.69,2.69,0,0,1,1.912.791l1.469,1.469a2.709,2.709,0,0,1,0,3.825l-.87.871a.939.939,0,0,0-.164,1.109,15.568,15.568,0,0,1,1.233,2.942.941.941,0,0,0,.9.656h1.213a2.707,2.707,0,0,1,2.7,2.7v2.077a2.707,2.707,0,0,1-2.7,2.7h-1.135a.937.937,0,0,0-.9.671,15.552,15.552,0,0,1-1.221,3.035.94.94,0,0,0,.172,1.1l.776.777a2.686,2.686,0,0,1,.792,1.912,2.684,2.684,0,0,1-.792,1.912l-1.469,1.469a2.686,2.686,0,0,1-1.912.793,2.683,2.683,0,0,1-1.912-.793l-.7-.7a.943.943,0,0,0-.668-.277.921.921,0,0,0-.45.117,15.568,15.568,0,0,1-3.105,1.326.946.946,0,0,0-.658.907v.934a2.707,2.707,0,0,1-2.7,2.705Zm1.039-25.985a6.363,6.363,0,0,0-6.356,6.357,6.364,6.364,0,0,0,6.356,6.356,6.363,6.363,0,0,0,6.355-6.356,6.364,6.364,0,0,0-6.355-6.357Zm0,0" fill="#fd715c"/>
    <path id="Trazado_2579" data-name="Trazado 2579" d="M-1281.17,4827.6v-32.249a6.42,6.42,0,0,0-6.412-6.412h-46.36a6.419,6.419,0,0,0-6.412,6.412V4827.6a6.419,6.419,0,0,0,6.412,6.412h46.36a6.419,6.419,0,0,0,6.412-6.412Zm-56.161,0v-32.249a3.394,3.394,0,0,1,3.389-3.389h46.36a3.394,3.394,0,0,1,3.389,3.389V4827.6a3.393,3.393,0,0,1-3.389,3.389h-46.36a3.393,3.393,0,0,1-3.389-3.389Zm0,0" fill="#4d4d4d"/>
    <path id="Trazado_2580" data-name="Trazado 2580" d="M-1259.138,4841.486a7.876,7.876,0,0,0-7.867,7.867c0,.112,0,.224.007.335,0,.049-.007.1-.007.148a1.523,1.523,0,0,0,.046.372,7.878,7.878,0,0,0,7.821,7.012,7.876,7.876,0,0,0,7.867-7.867,7.876,7.876,0,0,0-7.867-7.867Zm0,3.023a4.854,4.854,0,0,1,4.735,3.816h-9.47a4.853,4.853,0,0,1,4.735-3.816Zm0,9.688a4.852,4.852,0,0,1-4.415-2.851h8.829a4.849,4.849,0,0,1-4.414,2.851Zm0,0" fill="#4d4d4d"/>
    <path id="Trazado_2581" data-name="Trazado 2581" d="M-1242.214,4844.1h-.8a17.161,17.161,0,0,0-1.017-2.425l.572-.572a4.189,4.189,0,0,0,1.234-2.981,4.188,4.188,0,0,0-1.234-2.981l-1.469-1.469a4.189,4.189,0,0,0-2.98-1.235,4.188,4.188,0,0,0-2.4.746V4773.76a6.447,6.447,0,0,0-6.44-6.44h-51.881a6.447,6.447,0,0,0-6.44,6.44v10.649a1.511,1.511,0,0,0,1.511,1.512,1.512,1.512,0,0,0,1.512-1.512v-3.633h58.716v52.646q-.279-.1-.561-.2v-.8a4.22,4.22,0,0,0-4.215-4.216h-2.078a4.22,4.22,0,0,0-4.215,4.216v.71a17.018,17.018,0,0,0-2.516,1.013l-.482-.482a4.185,4.185,0,0,0-2.98-1.235,4.188,4.188,0,0,0-2.981,1.235l-1.469,1.468a4.189,4.189,0,0,0-1.235,2.982,4.187,4.187,0,0,0,1.235,2.981l.395.4a17.037,17.037,0,0,0-1.11,2.6h-.527a4.219,4.219,0,0,0-4.215,4.216v.01h-31.762v-9.774a1.512,1.512,0,0,0-1.512-1.512,1.511,1.511,0,0,0-1.511,1.512v16.633a6.447,6.447,0,0,0,6.44,6.44h32.695a4.176,4.176,0,0,0,1.107,1.942l1.469,1.47a4.189,4.189,0,0,0,2.981,1.235,4.189,4.189,0,0,0,2.98-1.235l.3-.3a17.08,17.08,0,0,0,2.7,1.1v.44a4.22,4.22,0,0,0,4.215,4.216h2.078a4.22,4.22,0,0,0,4.215-4.216v-.526a17.081,17.081,0,0,0,2.6-1.11l.4.4a4.188,4.188,0,0,0,2.981,1.235,4.189,4.189,0,0,0,2.98-1.235l1.469-1.469a4.187,4.187,0,0,0,1.235-2.981,4.187,4.187,0,0,0-1.235-2.981l-.482-.482a16.978,16.978,0,0,0,1.013-2.515h.711a4.22,4.22,0,0,0,4.215-4.215v-2.078a4.22,4.22,0,0,0-4.215-4.216Zm-69.825-66.345v-3.993a3.421,3.421,0,0,1,3.417-3.418h51.881a3.423,3.423,0,0,1,3.418,3.418v3.993Zm0,77.43v-3.837h31.871a4.222,4.222,0,0,0,4.106,3.261h.44a17.029,17.029,0,0,0,1.1,2.695l-.3.3a4.246,4.246,0,0,0-.742,1h-33.06a3.421,3.421,0,0,1-3.417-3.418Zm71.018-4.791a1.193,1.193,0,0,1-1.193,1.192h-1.135a2.453,2.453,0,0,0-2.356,1.769,14.017,14.017,0,0,1-1.1,2.739,2.462,2.462,0,0,0,.437,2.873l.776.776a1.166,1.166,0,0,1,.35.844,1.167,1.167,0,0,1-.349.844l-1.469,1.469a1.169,1.169,0,0,1-.843.349,1.17,1.17,0,0,1-.844-.349l-.7-.7a2.441,2.441,0,0,0-1.736-.719,2.442,2.442,0,0,0-1.19.311,13.932,13.932,0,0,1-2.8,1.2,2.468,2.468,0,0,0-1.73,2.353v.935a1.2,1.2,0,0,1-1.194,1.193h-2.077a1.194,1.194,0,0,1-1.193-1.193v-.862a2.452,2.452,0,0,0-1.766-2.358,14.027,14.027,0,0,1-2.9-1.185,2.42,2.42,0,0,0-1.157-.295,2.476,2.476,0,0,0-1.738.721l-.6.6a1.166,1.166,0,0,1-.843.349,1.166,1.166,0,0,1-.843-.349l-1.47-1.469a1.17,1.17,0,0,1-.349-.843c0-.052,0-.1.009-.154a.911.911,0,0,0,.02-.118,1.177,1.177,0,0,1,.32-.572l.6-.6a2.456,2.456,0,0,0,.425-2.9,14.094,14.094,0,0,1-1.185-2.9,2.452,2.452,0,0,0-2.358-1.766h-.861a1.2,1.2,0,0,1-1.194-1.193v-2.078a1.2,1.2,0,0,1,1.194-1.193h.934a2.47,2.47,0,0,0,2.354-1.73,14,14,0,0,1,1.2-2.8,2.455,2.455,0,0,0-.409-2.928l-.7-.7a1.17,1.17,0,0,1-.349-.843,1.17,1.17,0,0,1,.349-.844l1.47-1.469a1.167,1.167,0,0,1,.844-.349,1.165,1.165,0,0,1,.842.349l.777.776a2.474,2.474,0,0,0,1.737.721,2.41,2.41,0,0,0,1.137-.283,14.057,14.057,0,0,1,2.738-1.1,2.454,2.454,0,0,0,1.77-2.355v-1.135a1.193,1.193,0,0,1,1.192-1.193h2.078a1.194,1.194,0,0,1,1.193,1.193v1.214a2.461,2.461,0,0,0,1.727,2.343,13.931,13.931,0,0,1,2.611,1.09l.077.041a2.449,2.449,0,0,0,1.135.281,2.444,2.444,0,0,0,1.736-.719l.871-.871a1.168,1.168,0,0,1,.844-.349,1.171,1.171,0,0,1,.843.349l1.469,1.469a1.182,1.182,0,0,1,.348.844,1.18,1.18,0,0,1-.348.843l-.87.871a2.458,2.458,0,0,0-.421,2.9,14.059,14.059,0,0,1,1.112,2.655,2.462,2.462,0,0,0,2.344,1.729h1.214a1.194,1.194,0,0,1,1.193,1.192Zm0,0" fill="#4d4d4d"/>
  </g>
</svg>
