<svg xmlns="http://www.w3.org/2000/svg" width="93.606" height="72.144" viewBox="0 0 93.606 72.144">
  <g id="Grupo_12637" data-name="Grupo 12637" transform="translate(-169.796 -3488.738)">
    <line id="Línea_322" data-name="Línea 322" y2="68.144" transform="translate(261.402 3490.738)" fill="none" stroke="#a4dbf5" stroke-linecap="round" stroke-miterlimit="10" stroke-width="4"/>
    <g id="Grupo_11655" data-name="Grupo 11655">
      <path id="Trazado_2186" data-name="Trazado 2186" d="M209.429,3528.983a2.635,2.635,0,0,0,.012,3.73l.935.936a.438.438,0,1,1-.62.62l-2.181-2.181a2.63,2.63,0,1,0-3.719,3.719l2.181,2.181a.438.438,0,1,1-.619.62l-3.43-3.429a2.629,2.629,0,1,0-3.719,3.718l3.429,3.43a.438.438,0,1,1-.619.62l-12.157-12.156a2.63,2.63,0,1,0-3.719,3.719l14.63,14.63c-1.917-.3-5.144-.426-7.126,1.552-1.859,1.86-1.81,3.145-1.234,3.725,1.574,1.573,2.784-.913,9.95,2.511s11.771,3.143,14.92.046l4.339-4.338h0c4.412-4.412,5.675-10.442,1.222-14.891l-.023-.024-8.727-8.727a2.631,2.631,0,0,0-3.725-.011Z" fill="#a4dbf5"/>
      <path id="Trazado_2187" data-name="Trazado 2187" d="M230.623,3530.773H225.9a2.9,2.9,0,1,1,0-5.793h4.721a2.9,2.9,0,0,0,2.9-2.9v-23.172a2.9,2.9,0,0,0-2.9-2.9H178.486a2.9,2.9,0,0,0-2.9,2.9v23.172a2.9,2.9,0,0,0,2.9,2.9,2.96,2.96,0,0,1,2.968,2.9,2.836,2.836,0,0,1-2.823,2.9h-.145a8.7,8.7,0,0,1-8.69-8.69v-23.172a8.7,8.7,0,0,1,8.69-8.689h52.137a8.7,8.7,0,0,1,8.689,8.689v23.172a8.7,8.7,0,0,1-8.689,8.69Z" fill="#a4dbf5"/>
      <path id="Trazado_2188" data-name="Trazado 2188" d="M204.554,3522.286a2.9,2.9,0,0,1-2.9-2.9v-26.272a2.9,2.9,0,0,1,5.793,0v26.272a2.9,2.9,0,0,1-2.9,2.9Z" fill="#a4dbf5"/>
      <path id="Trazado_2189" data-name="Trazado 2189" d="M190.8,3519.187a2.173,2.173,0,0,1-2.172-2.172v-9.124a1.473,1.473,0,1,0-2.9,0v9.124a2.173,2.173,0,0,1-4.345,0v-9.124a5.8,5.8,0,1,1,11.586,0v9.124a2.173,2.173,0,0,1-2.172,2.172Z" fill="#a4dbf5"/>
      <path id="Trazado_2190" data-name="Trazado 2190" d="M190.8,3513.973h-7.241a2.172,2.172,0,1,1,0-4.345H190.8a2.172,2.172,0,0,1,0,4.345Z" fill="#a4dbf5"/>
      <path id="Trazado_2191" data-name="Trazado 2191" d="M222.536,3519.187h-4.223a2.173,2.173,0,0,1-2.173-2.172V3503.98a2.173,2.173,0,0,1,2.173-2.172h4.223a5.32,5.32,0,0,1,5.19,5.431,5.629,5.629,0,0,0,0,6.517,5.32,5.32,0,0,1-5.19,5.431Zm-2.051-4.345h2.051a1.12,1.12,0,0,0,0-2.172h-2.051Zm0-6.517h2.051a1.12,1.12,0,0,0,0-2.172h-2.051Z" fill="#a4dbf5"/>
    </g>
  </g>
</svg>
