<svg xmlns="http://www.w3.org/2000/svg" width="102.646" height="102.733" viewBox="0 0 102.646 102.733">
  <g id="Grupo_11836" data-name="Grupo 11836" transform="translate(1340.499 -5521.51)">
    <path id="Trazado_2550" data-name="Trazado 2550" d="M-1245.044,5530.5h-37.75a5.686,5.686,0,0,0-5.685,5.686v21.353a5.686,5.686,0,0,0,5.685,5.686h13.429l-2.171,8.76a1.243,1.243,0,0,0,1.964,1.284l13.076-10.044h11.453a5.686,5.686,0,0,0,5.686-5.686v-21.353a5.687,5.687,0,0,0-5.687-5.686Zm0,0" fill="#88dbfd"/>
    <path id="Trazado_2551" data-name="Trazado 2551" d="M-1269.858,5565.206l-1.678,6.776a1.243,1.243,0,0,0,1.964,1.284l13.076-10.044h-10.778Zm0,0" fill="#5abfe9"/>
    <path id="Trazado_2552" data-name="Trazado 2552" d="M-1245.044,5530.5h-10.777a5.686,5.686,0,0,1,5.685,5.686v21.353a5.686,5.686,0,0,1-5.685,5.686h10.777a5.685,5.685,0,0,0,5.686-5.686v-21.353a5.686,5.686,0,0,0-5.686-5.686Zm0,0" fill="#5abfe9"/>
    <path id="Trazado_2553" data-name="Trazado 2553" d="M-1259.7,5597.845c-.283-4.824-3.346-8.756-7.905-10.891-5.58-2.612-20.775-6.565-20.775-6.565a3.1,3.1,0,0,1-2.534-3.047v-8.686h-16.52v8.686a3.1,3.1,0,0,1-2.533,3.047s-15.2,3.953-20.776,6.565c-4.558,2.135-7.621,6.067-7.9,10.891l-.343,20.709a4.134,4.134,0,0,0,4.134,4.184h71.364a4.136,4.136,0,0,0,4.135-4.184Zm0,0" fill="#fcc18b"/>
    <path id="Trazado_2554" data-name="Trazado 2554" d="M-1259.7,5597.845c-.283-4.824-3.346-8.756-7.905-10.891-5.58-2.612-20.775-6.565-20.775-6.565a3.1,3.1,0,0,1-2.534-3.047v-8.686H-1301.7v13.9a3.1,3.1,0,0,0,2.534,3.047s15.2,3.953,20.775,6.566c4.559,2.134,7.622,6.066,7.9,10.89l.326,19.684h6.66a4.136,4.136,0,0,0,4.135-4.184Zm0,0" fill="#eaab65"/>
    <path id="Trazado_2555" data-name="Trazado 2555" d="M-1316.3,5546.665h-2.169a3.4,3.4,0,0,0-2.086.712,3.419,3.419,0,0,0-1.215,3.323l.852,4.689c.661,3.476,4.624,1.888,4.624,1.888Zm0,0" fill="#eaab65"/>
    <path id="Trazado_2556" data-name="Trazado 2556" d="M-1282.052,5546.665h2.169a3.4,3.4,0,0,1,2.086.712,3.417,3.417,0,0,1,1.215,3.323l-.852,4.689c-.66,3.476-4.623,1.888-4.623,1.888Zm0,0" fill="#fcc18b"/>
    <path id="Trazado_2557" data-name="Trazado 2557" d="M-1287.157,5528.843a17.742,17.742,0,0,0-12.02-4.946,17.74,17.74,0,0,0-12.021,4.946,18.184,18.184,0,0,0-5.545,13.362l0,17.773c0,8.4,10.921,17.1,17.562,17.1s17.561-8.7,17.561-17.1l.005-17.773a18.193,18.193,0,0,0-5.546-13.362Zm0,0" fill="#fcc18b"/>
    <path id="Trazado_2558" data-name="Trazado 2558" d="M-1287.157,5528.843a17.742,17.742,0,0,0-12.02-4.946,17.257,17.257,0,0,0-5.39.915,18.7,18.7,0,0,1,6.632,4.031,18.184,18.184,0,0,1,5.545,13.362l-.005,17.773c0,6.357-6.252,12.885-12.172,15.686a13.079,13.079,0,0,0,5.389,1.417c6.641,0,17.561-8.7,17.561-17.1l0-17.773a18.188,18.188,0,0,0-5.545-13.362Zm0,0" fill="#eaab65"/>
    <path id="Trazado_2559" data-name="Trazado 2559" d="M-1288.311,5523.015h-21.734a10.125,10.125,0,0,0-10.125,10.125v13.972a6.989,6.989,0,0,1,4.58,1.709.593.593,0,0,0,1.007-.425v-10.95a4.475,4.475,0,0,1,4.476-4.475h4.067a4.616,4.616,0,0,1,2.926,1.044l.4.326a5.584,5.584,0,0,0,3.537,1.262,5.589,5.589,0,0,0,3.538-1.262l.4-.326a4.614,4.614,0,0,1,2.926-1.044h4.066a4.475,4.475,0,0,1,4.476,4.475v10.95a.593.593,0,0,0,1.007.426,6.985,6.985,0,0,1,4.58-1.71v-13.971a10.125,10.125,0,0,0-10.125-10.126Zm0,0" fill="#805413"/>
    <path id="Trazado_2560" data-name="Trazado 2560" d="M-1288.311,5523.015h-3.759c1.891,2.227,3.078,5.571,3.108,9.956h.714a4.475,4.475,0,0,1,4.475,4.475v10.95a.593.593,0,0,0,1.007.426,6.986,6.986,0,0,1,4.58-1.71v-13.971a10.125,10.125,0,0,0-10.125-10.126Zm0,0" fill="#603f0e"/>
    <path id="Trazado_2561" data-name="Trazado 2561" d="M-1267.609,5586.954a122.73,122.73,0,0,0-14.62-4.879l-1.053.4a44.88,44.88,0,0,1-31.791,0l-1.054-.4a122.85,122.85,0,0,0-14.62,4.879c-4.558,2.135-7.621,6.067-7.9,10.891l-.343,20.709a4.134,4.134,0,0,0,4.134,4.184h71.364a4.136,4.136,0,0,0,4.135-4.184l-.343-20.709c-.283-4.824-3.346-8.756-7.905-10.891Zm0,0" fill="#33bca5"/>
    <path id="Trazado_2562" data-name="Trazado 2562" d="M-1273.842,5617.548h-51.427a2.98,2.98,0,0,1-2.973-2.769l-2.1-29.51a2.982,2.982,0,0,1,2.973-3.194h55.634a2.982,2.982,0,0,1,2.974,3.194l-2.1,29.51a2.98,2.98,0,0,1-2.974,2.769Zm0,0" fill="#f2f2f2"/>
    <path id="Trazado_2563" data-name="Trazado 2563" d="M-1271.738,5582.075h-10.857a2.982,2.982,0,0,1,2.974,3.194l-2.3,32.279h8.08a2.979,2.979,0,0,0,2.974-2.769l2.1-29.51a2.982,2.982,0,0,0-2.974-3.194Zm0,0" fill="#cdd6df"/>
    <path id="Trazado_2564" data-name="Trazado 2564" d="M-1270.153,5622.738h-58.05a2.6,2.6,0,0,1-2.594-2.595,2.6,2.6,0,0,1,2.594-2.6h58.05a2.594,2.594,0,0,1,2.594,2.6,2.594,2.594,0,0,1-2.594,2.595Zm0,0" fill="#cdd6df"/>
    <path id="Trazado_2565" data-name="Trazado 2565" d="M-1295.026,5601a4.152,4.152,0,0,1-4.152,4.152,4.153,4.153,0,0,1-4.153-4.152,4.153,4.153,0,0,1,4.153-4.153,4.152,4.152,0,0,1,4.152,4.153Zm0,0" fill="#fff"/>
    <path id="Trazado_2566" data-name="Trazado 2566" d="M-1266.091,5545a1.406,1.406,0,0,0-1.265-1.357.56.56,0,0,0-.352.093l-4.721,3.066a1.269,1.269,0,0,0-.576,1.041,1.266,1.266,0,0,0,.576,1.041l4.721,3.066a.552.552,0,0,0,.352.094,1.407,1.407,0,0,0,1.265-1.357.85.85,0,0,0-.335-.725l-3.272-2.119,3.272-2.118a.854.854,0,0,0,.335-.725Zm0,0" fill="#4d4d4d"/>
    <path id="Trazado_2567" data-name="Trazado 2567" d="M-1256.743,5538.639a.817.817,0,0,0-.781.465l-6.523,13.4a.827.827,0,0,0-.094.353,1.03,1.03,0,0,0,1.042.985.931.931,0,0,0,.836-.465l6.542-13.4a.815.815,0,0,0,.074-.354,1.065,1.065,0,0,0-1.1-.984Zm0,0" fill="#4d4d4d"/>
    <path id="Trazado_2568" data-name="Trazado 2568" d="M-1247.358,5546.8l-4.72-3.066a.568.568,0,0,0-.354-.093,1.4,1.4,0,0,0-1.263,1.357.851.851,0,0,0,.335.725l3.27,2.118-3.27,2.119a.85.85,0,0,0-.335.725,1.4,1.4,0,0,0,1.263,1.357.559.559,0,0,0,.354-.094l4.72-3.066a1.263,1.263,0,0,0,.576-1.041,1.266,1.266,0,0,0-.576-1.041Zm0,0" fill="#4d4d4d"/>
    <path id="Trazado_2569" data-name="Trazado 2569" d="M-1245.044,5528.992h-32.4a11.653,11.653,0,0,0-10.867-7.482h-21.733a11.644,11.644,0,0,0-11.629,11.63v13.206a4.906,4.906,0,0,0-1.581,4.623l.855,4.7a4.091,4.091,0,0,0,1.829,2.856,4.425,4.425,0,0,0,2.327.616v.836c0,4.238,2.473,8.91,6.785,12.817a27.809,27.809,0,0,0,2.516,2.026v2.521a1.593,1.593,0,0,1-1.3,1.567c-.035.007-.07.014-.1.023s-2.609.68-5.987,1.638h-11.035a4.5,4.5,0,0,0-3.283,1.429,4.494,4.494,0,0,0-1.191,3.376l.029.425a14.41,14.41,0,0,0-8.337,11.957l0,.063-.343,20.715a5.6,5.6,0,0,0,1.627,4.032,5.6,5.6,0,0,0,4.012,1.676h71.364a5.6,5.6,0,0,0,4.012-1.676,5.6,5.6,0,0,0,1.627-4.038l-.343-20.709c0-.021,0-.042,0-.063-.3-5.19-3.582-9.737-8.769-12.166-.094-.045-.194-.09-.3-.136l.006-.08a4.509,4.509,0,0,0-1.191-3.376,4.5,4.5,0,0,0-3.284-1.429h-10.281c-3.376-.958-5.96-1.631-5.986-1.637s-.069-.017-.1-.024a1.594,1.594,0,0,1-1.3-1.567v-2.52a27.866,27.866,0,0,0,2.517-2.027,21.988,21.988,0,0,0,5.83-8.068h9.777l-1.708,6.893a2.716,2.716,0,0,0,1.163,2.959,2.745,2.745,0,0,0,1.507.457,2.737,2.737,0,0,0,1.671-.576l12.671-9.733h10.941a7.2,7.2,0,0,0,7.191-7.191v-21.353a7.2,7.2,0,0,0-7.191-7.191Zm-35.065,19.954a6.485,6.485,0,0,1,1.475-.309,1.939,1.939,0,0,1,.572,1.793l-.85,4.678c-.124.653-.375.808-.457.859a1.462,1.462,0,0,1-.741.167Zm-38.556-15.806a8.631,8.631,0,0,1,8.62-8.62h21.734a8.63,8.63,0,0,1,8.62,8.62v12.609a8.72,8.72,0,0,0-2.577.867v-9.17a5.987,5.987,0,0,0-5.98-5.98h-4.067a6.147,6.147,0,0,0-3.879,1.383l-.4.326a4.091,4.091,0,0,1-2.585.923,4.1,4.1,0,0,1-2.585-.922l-.4-.327a6.145,6.145,0,0,0-3.879-1.383h-4.066a5.987,5.987,0,0,0-5.981,5.98v9.169a8.736,8.736,0,0,0-2.577-.866Zm-.322,22.827c-.082-.051-.333-.206-.454-.846l-.852-4.69a1.944,1.944,0,0,1,.569-1.793,6.478,6.478,0,0,1,1.477.307l0,7.189a1.472,1.472,0,0,1-.742-.167Zm-13.315,64.175a4.087,4.087,0,0,0,.148,1.091h-2.706a2.613,2.613,0,0,1-1.871-.782,2.613,2.613,0,0,1-.759-1.873l.343-20.675a11.045,11.045,0,0,1,5.566-8.795l1.837,25.778a4.439,4.439,0,0,0,.312,1.346,4.107,4.107,0,0,0-2.87,3.91Zm62.935-5.256,1.867-26.194a11.208,11.208,0,0,1,6.292,9.211l.342,20.669a2.618,2.618,0,0,1-.759,1.879,2.611,2.611,0,0,1-1.871.782h-2.705a4.081,4.081,0,0,0,.147-1.091,4.1,4.1,0,0,0-3.564-4.063,4.458,4.458,0,0,0,.251-1.193Zm.3,5.256a1.091,1.091,0,0,1-1.089,1.091h-58.05a1.091,1.091,0,0,1-1.089-1.091,1.091,1.091,0,0,1,1.089-1.089h58.05a1.091,1.091,0,0,1,1.089,1.089Zm-1.593-36.092a1.462,1.462,0,0,1,.392,1.112l-2.1,29.511a1.481,1.481,0,0,1-1.473,1.37h-51.427a1.483,1.483,0,0,1-1.473-1.371l-2.1-29.51a1.462,1.462,0,0,1,.391-1.112,1.466,1.466,0,0,1,1.081-.47h55.634a1.466,1.466,0,0,1,1.081.47Zm-20.444-3.48h-16.154a4.6,4.6,0,0,0,1.322-3.228v-.674a15.243,15.243,0,0,0,6.755,1.917,15.248,15.248,0,0,0,6.755-1.917v.674a4.6,4.6,0,0,0,1.322,3.228Zm2.183-10.006c-3.36,3.044-7.387,5.012-10.26,5.012s-6.9-1.968-10.26-5.012c-3.684-3.336-5.8-7.2-5.8-10.587l0-9.481h.059a2.094,2.094,0,0,0,.809-.163,2.1,2.1,0,0,0,1.291-1.938v-10.95a2.974,2.974,0,0,1,2.971-2.97h4.067a3.129,3.129,0,0,1,1.973.7l.4.327a7.117,7.117,0,0,0,4.49,1.6,7.111,7.111,0,0,0,4.49-1.6l.4-.326a3.13,3.13,0,0,1,1.974-.7h4.066a2.974,2.974,0,0,1,2.971,2.97v10.95a2.1,2.1,0,0,0,1.292,1.938,2.1,2.1,0,0,0,.867.162l0,9.482c0,3.39-2.112,7.25-5.8,10.586Zm48.055-13.028a4.186,4.186,0,0,1-4.181,4.181H-1256.5a1.507,1.507,0,0,0-.917.312l-12.482,9.588,1.99-8.033a1.505,1.505,0,0,0-.275-1.289,1.506,1.506,0,0,0-1.185-.578h-10.88a11.7,11.7,0,0,0,.134-1.739v-.836a4.421,4.421,0,0,0,2.326-.616,4.094,4.094,0,0,0,1.832-2.868l.852-4.689a4.907,4.907,0,0,0-1.58-4.623V5533.14q0-.575-.056-1.138h31.693a4.186,4.186,0,0,1,4.181,4.181Zm0,0" fill="#4d4d4d"/>
    <path id="Trazado_2570" data-name="Trazado 2570" d="M-1299.178,5606.659a5.664,5.664,0,0,0,5.657-5.657,5.664,5.664,0,0,0-5.657-5.658,5.664,5.664,0,0,0-5.658,5.658,5.664,5.664,0,0,0,5.658,5.657Zm0-8.305a2.65,2.65,0,0,1,2.647,2.648,2.649,2.649,0,0,1-2.647,2.647,2.65,2.65,0,0,1-2.648-2.647,2.651,2.651,0,0,1,2.648-2.648Zm0,0" fill="#4d4d4d"/>
  </g>
</svg>
