<svg xmlns="http://www.w3.org/2000/svg" width="1138.615" height="403.801" viewBox="0 0 1138.615 403.801">
  <g id="Grupo_12635" data-name="Grupo 12635" transform="translate(1380.507 -3116.725)">
    <rect id="Rectángulo_4419" data-name="Rectángulo 4419" width="1138.615" height="403.8" transform="translate(-241.893 3520.525) rotate(-180)" fill="#f0866a"/>
    <g id="Grupo_11845" data-name="Grupo 11845">
      <path id="Trazado_2588" data-name="Trazado 2588" d="M-986.179,3315.278c0,.02,0,.039,0,.059H-936.9a1.13,1.13,0,0,1,1.031,1.208,1.131,1.131,0,0,1-1.031,1.21h-69.78v41.55a1.133,1.133,0,0,1-1.032,1.209,1.132,1.132,0,0,1-1.033-1.209v-41.55H-1047.3a1.132,1.132,0,0,1-1.031-1.21,1.132,1.132,0,0,1,1.031-1.208h59.057c0-.02,0-.039,0-.059v-41.551H-1026.8a1.132,1.132,0,0,1-1.031-1.209,1.131,1.131,0,0,1,1.031-1.209h75.272v-44.8h-38.556a1.131,1.131,0,0,1-1.031-1.209,1.13,1.13,0,0,1,1.031-1.208h110.4a1.133,1.133,0,0,1,1.033,1.208,1.134,1.134,0,0,1-1.033,1.209h-69.78v44.8H-916.4a1.131,1.131,0,0,1,1.03,1.209,1.132,1.132,0,0,1-1.03,1.209h-69.782Z" fill="#e2735a"/>
      <path id="Trazado_2589" data-name="Trazado 2589" d="M-1291.244,3220.517c0,.018,0,.038,0,.057h49.282a1.133,1.133,0,0,1,1.032,1.21,1.132,1.132,0,0,1-1.032,1.208h-69.781v41.551a1.132,1.132,0,0,1-1.03,1.209,1.134,1.134,0,0,1-1.034-1.209v-41.551h-38.554a1.132,1.132,0,0,1-1.032-1.208,1.133,1.133,0,0,1,1.032-1.21h59.056c0-.019,0-.039,0-.057v-41.553h-38.556a1.13,1.13,0,0,1-1.031-1.208,1.132,1.132,0,0,1,1.031-1.21h75.272v-44.794h-38.556a1.133,1.133,0,0,1-1.032-1.209,1.132,1.132,0,0,1,1.032-1.209h110.4a1.131,1.131,0,0,1,1.032,1.209,1.132,1.132,0,0,1-1.032,1.209h-69.779v44.794h33.063a1.133,1.133,0,0,1,1.032,1.21,1.131,1.131,0,0,1-1.032,1.208h-69.779Z" fill="#e2735a"/>
      <g id="Grupo_11844" data-name="Grupo 11844">
        <path id="Trazado_2590" data-name="Trazado 2590" d="M-661.008,3347.568c.162,0-.136.077,0,0Z" fill="#e2735a"/>
        <path id="Trazado_2591" data-name="Trazado 2591" d="M-718.229,3436.391h59.056c0-.02,0-.04,0-.059V3394.78h-38.555a1.133,1.133,0,0,1-1.033-1.209,1.132,1.132,0,0,1,1.033-1.208h75.271v-44.795h-38.55c-1.017,0-1.484-.421-1.484-1.088v-41.55h-38.555a1.132,1.132,0,0,1-1.031-1.209,1.131,1.131,0,0,1,1.031-1.209h64.393v-40.875h-38.555a1.132,1.132,0,0,1-1.032-1.209,1.132,1.132,0,0,1,1.032-1.209h110.4a1.132,1.132,0,0,1,1.032,1.209,1.132,1.132,0,0,1-1.032,1.209h-69.78v40.875h43.942a1.132,1.132,0,0,1,1.032,1.209,1.133,1.133,0,0,1-1.032,1.209h-69.78v40.22h109.814a1.133,1.133,0,0,1,1.032,1.208,1.134,1.134,0,0,1-1.032,1.21H-620.4v44.795h33.065a1.131,1.131,0,0,1,1.031,1.208,1.132,1.132,0,0,1-1.031,1.209h-69.78v41.552c0,.019,0,.039,0,.059h49.282a1.132,1.132,0,0,1,1.032,1.208,1.132,1.132,0,0,1-1.032,1.209h-69.78v41.55a1.134,1.134,0,0,1-1.032,1.211,1.133,1.133,0,0,1-1.032-1.211v-41.55h-38.555a1.132,1.132,0,0,1-1.032-1.209A1.132,1.132,0,0,1-718.229,3436.391Z" fill="#e2735a"/>
      </g>
      <path id="Trazado_2592" data-name="Trazado 2592" d="M-989.609,3487.884a1.131,1.131,0,0,1-1.031,1.209,1.131,1.131,0,0,1-1.031-1.209v-41.55h-38.556a1.133,1.133,0,0,1-1.032-1.21,1.132,1.132,0,0,1,1.032-1.208h110.4a1.132,1.132,0,0,1,1.032,1.208,1.133,1.133,0,0,1-1.032,1.21h-69.781Z" fill="#e2735a"/>
      <path id="Trazado_2593" data-name="Trazado 2593" d="M-1360.29,3465.562h64.393v-40.874h-38.555a1.132,1.132,0,0,1-1.032-1.21,1.131,1.131,0,0,1,1.032-1.208h110.4a1.131,1.131,0,0,1,1.031,1.208,1.132,1.132,0,0,1-1.031,1.21h-69.78v40.874h43.942a1.133,1.133,0,0,1,1.031,1.21,1.133,1.133,0,0,1-1.031,1.209h-69.78v41.549a1.133,1.133,0,0,1-1.033,1.21,1.133,1.133,0,0,1-1.031-1.21v-41.549h-38.555a1.133,1.133,0,0,1-1.032-1.209A1.133,1.133,0,0,1-1360.29,3465.562Z" fill="#e2735a"/>
      <path id="Trazado_2594" data-name="Trazado 2594" d="M-393.343,3172.627h64.393v-40.874h-38.555a1.132,1.132,0,0,1-1.032-1.21,1.131,1.131,0,0,1,1.032-1.209h110.4a1.132,1.132,0,0,1,1.032,1.209,1.133,1.133,0,0,1-1.032,1.21h-69.78v40.874h43.941a1.133,1.133,0,0,1,1.033,1.21,1.132,1.132,0,0,1-1.033,1.208h-69.78v41.55a1.132,1.132,0,0,1-1.032,1.21,1.132,1.132,0,0,1-1.032-1.21v-41.55h-38.554a1.132,1.132,0,0,1-1.032-1.208A1.133,1.133,0,0,1-393.343,3172.627Z" fill="#e2735a"/>
      <path id="Trazado_2595" data-name="Trazado 2595" d="M-412.316,3451.951h64.394v-40.874h-38.556a1.133,1.133,0,0,1-1.032-1.21,1.133,1.133,0,0,1,1.032-1.209h110.4a1.132,1.132,0,0,1,1.031,1.209,1.132,1.132,0,0,1-1.031,1.21h-69.781v40.874h43.942a1.133,1.133,0,0,1,1.032,1.21,1.132,1.132,0,0,1-1.032,1.208H-371.7v41.551a1.133,1.133,0,0,1-1.033,1.21,1.133,1.133,0,0,1-1.031-1.21v-41.551h-38.555a1.132,1.132,0,0,1-1.031-1.208A1.133,1.133,0,0,1-412.316,3451.951Z" fill="#e2735a"/>
    </g>
    <g id="Grupo_11892" data-name="Grupo 11892">
      <g id="Grupo_11850" data-name="Grupo 11850">
        <g id="Grupo_11847" data-name="Grupo 11847">
          <rect id="Rectángulo_4420" data-name="Rectángulo 4420" width="98.049" height="39.891" transform="translate(-971.988 3151.667)" fill="#78cfd8"/>
          <rect id="Rectángulo_4421" data-name="Rectángulo 4421" width="98.049" height="39.891" transform="translate(-971.988 3199.918)" fill="#78cfd8"/>
        </g>
        <g id="Grupo_11848" data-name="Grupo 11848">
          <rect id="Rectángulo_4422" data-name="Rectángulo 4422" width="98.049" height="39.891" transform="translate(-867.386 3151.667)" fill="#78cfd8"/>
          <rect id="Rectángulo_4423" data-name="Rectángulo 4423" width="98.049" height="39.891" transform="translate(-867.386 3199.918)" fill="#78cfd8"/>
        </g>
        <g id="Grupo_11849" data-name="Grupo 11849">
          <rect id="Rectángulo_4424" data-name="Rectángulo 4424" width="98.049" height="39.891" transform="translate(-762.783 3151.667)" fill="#78cfd8"/>
          <rect id="Rectángulo_4425" data-name="Rectángulo 4425" width="98.049" height="39.891" transform="translate(-762.783 3199.918)" fill="#78cfd8"/>
        </g>
      </g>
      <g id="Grupo_11854" data-name="Grupo 11854">
        <g id="Grupo_11853" data-name="Grupo 11853">
          <path id="Trazado_2596" data-name="Trazado 2596" d="M-891.577,3396.964l-12.07,123.562h0c3.525,0,6.575-2.923,7.334-7.027l18.055-97.678h27.471v-18.857Z" fill="#e5af70"/>
          <path id="Trazado_2597" data-name="Trazado 2597" d="M-810,3396.964l12.07,123.562h0c-3.525,0-6.575-2.923-7.334-7.027l-18.055-97.678h-27.47v-18.857Z" fill="#e5af70"/>
          <path id="Trazado_2598" data-name="Trazado 2598" d="M-910.222,3396.964l-12.07,123.562h0c3.525,0,6.575-2.923,7.334-7.027l18.055-97.678h27.47v-18.857Z" fill="#e5af70"/>
          <path id="Trazado_2599" data-name="Trazado 2599" d="M-807.117,3396.964H-911.425A4.574,4.574,0,0,1-916,3392.39h0a7.336,7.336,0,0,1,7.336-7.336h98.782a7.336,7.336,0,0,1,7.336,7.336h0A4.573,4.573,0,0,1-807.117,3396.964Z" fill="#e5af70"/>
          <g id="Grupo_11851" data-name="Grupo 11851">
            <path id="Trazado_2600" data-name="Trazado 2600" d="M-859.079,3345.963l-5.438,39.091h5.438l6.043-45.965Z" fill="#e5af70"/>
            <path id="Trazado_2601" data-name="Trazado 2601" d="M-859.079,3385.054h4.532l4.23-51.5-2.719,5.539Z" fill="#e5af70"/>
          </g>
          <g id="Grupo_11852" data-name="Grupo 11852">
            <path id="Trazado_2602" data-name="Trazado 2602" d="M-923.681,3345.963l19.622,69.857h-8.006l-18.853-76.731Z" fill="#e5af70"/>
            <path id="Trazado_2603" data-name="Trazado 2603" d="M-912.064,3415.821H-916l-18.175-82.27,3.256,5.539Z" fill="#e5af70"/>
          </g>
          <path id="Rectángulo_4426" data-name="Rectángulo 4426" d="M8.541,0h85.6a8.541,8.541,0,0,1,8.541,8.541v.5a44.5,44.5,0,0,1-44.5,44.5H44.5A44.5,44.5,0,0,1,0,9.044v-.5A8.541,8.541,0,0,1,8.541,0Z" transform="translate(-944.947 3303.632)" fill="#e5af70"/>
        </g>
        <path id="Trazado_2604" data-name="Trazado 2604" d="M-808.156,3415.821-810,3396.964h-40.789v18.857Z" fill="#e5af70"/>
        <path id="Trazado_2605" data-name="Trazado 2605" d="M-828.644,3396.964l12.071,123.562h0c-3.525,0-6.576-2.923-7.334-7.027l-18.056-97.678h-27.47v-18.857Z" fill="#e5af70"/>
      </g>
      <g id="Grupo_11856" data-name="Grupo 11856">
        <g id="Grupo_11855" data-name="Grupo 11855">
          <path id="Trazado_2606" data-name="Trazado 2606" d="M-772.393,3475.076h106.6l-4.318-14.685h-98.175Z" fill="#e5af70"/>
        </g>
        <path id="Trazado_2607" data-name="Trazado 2607" d="M-757.179,3359.18l-24.107,161.346h0c2.554,0,4.7-2.361,4.976-5.478l38-155.868Z" fill="#e5af70"/>
        <path id="Trazado_2608" data-name="Trazado 2608" d="M-681,3359.18l24.106,161.346h0c-2.554,0-4.7-2.361-4.976-5.478l-38-155.868Z" fill="#e5af70"/>
      </g>
      <g id="Grupo_11858" data-name="Grupo 11858">
        <g id="Grupo_11857" data-name="Grupo 11857">
          <path id="Trazado_2609" data-name="Trazado 2609" d="M-825.46,3287.143c-.5-.771-1-1.576-1.517-2.425-4.8-7.9-12.31-16.615-26.136-19.206l2.548,21.714,11.6,10.763C-838.024,3291.872-830.58,3285.258-825.46,3287.143Z" fill="#ff6a66"/>
          <path id="Trazado_2610" data-name="Trazado 2610" d="M-825.46,3287.143c-5.12-1.885-12.564,4.729-13.506,10.846l16.5,15.315c10.281-7.272,16.3-3.761,16.3-3.761C-812.058,3302.234-817.652,3299.266-825.46,3287.143Z" fill="#fcbba4"/>
        </g>
        <path id="Trazado_2611" data-name="Trazado 2611" d="M-852.294,3272.49l1.729,14.736,11.6,10.763a12.2,12.2,0,0,1,1.787-4.54c-7.1-7.333-8.9-12.171-14.582-22.446Z" fill="#8e3948"/>
        <path id="Trazado_2612" data-name="Trazado 2612" d="M-822.463,3313.3a31.332,31.332,0,0,1,4.105-2.476,203.461,203.461,0,0,1-18.821-17.379,12.2,12.2,0,0,0-1.787,4.54Z" fill="#fca586"/>
      </g>
      <path id="Trazado_2613" data-name="Trazado 2613" d="M-908.224,3268.6c7.7-5.89,24.2-1.126,28.491-6.216s18.4.187,21.943,1.6a26.862,26.862,0,0,0,4.677,1.527c1.56.347,6.748,16.754,7.523,29.42,1.244,20.327-17.173,37.021-6.751,48.931,3.731,4.264,6.812,7.107,6.812,7.107s-4.858,6.185-15.873,6.185-33.934-9.028-49.036,6.252c0,0-.613-2.665,7.866-14.569s7.591-16.167,5.1-23.274S-917.38,3275.606-908.224,3268.6Z" fill="#ff6a66"/>
      <path id="Trazado_2614" data-name="Trazado 2614" d="M-892.427,3333.026c1.1-5.5,3.592-14.656,1.722-29.191-1.43-11.119.325-14.825-2.163-23.947l-17.945-4.469c-.794,14.4,11.3,44.311,13.345,50.145,2.487,7.107,3.375,11.37-5.1,23.274s-7.866,14.569-7.866,14.569c6.48-6.556,14.4-8.632,22.2-8.871l0,0C-901.921,3355.432-894.27,3342.265-892.427,3333.026Z" fill="#8e3948"/>
      <g id="Grupo_11859" data-name="Grupo 11859">
        <path id="Trazado_2615" data-name="Trazado 2615" d="M-839.078,3232.625c.2-1.613-1.778-3.27-3.075-2.291a4.127,4.127,0,0,0,1.369-5.4,3.949,3.949,0,0,1-.882-1.883c.015-1,1.081-1.6,1.715-2.379,1.2-1.47.778-3.769-.429-5.232a12.5,12.5,0,0,0-4.728-3.068,4.664,4.664,0,0,0,1.708-6.78,4.664,4.664,0,0,0-6.991-.095c.306-.791-1-1.359-1.693-.868a4.57,4.57,0,0,0-1.211,2.192c-.322.785-1.046,1.6-1.869,1.389-1.11-.28-.969-2.022-.132-2.8s2.043-1.119,2.78-2c1.641-1.949-.523-5.261-3.071-5.284s-4.635,2.181-5.535,4.564a5.03,5.03,0,0,0-1.323-6.749,5.03,5.03,0,0,0-6.736,1.391,4.455,4.455,0,0,0-4.487-4.1,6.228,6.228,0,0,0-5.287,3.635,10.588,10.588,0,0,0-.609,6.615c-3.116-.113-6.371-.2-9.191,1.131s-5.01,4.557-4.085,7.535c.4,1.295,1.338,2.422,1.47,3.771.3,3.076-3.328,4.764-6.042,6.241-2.936,1.6-5.6,4.266-5.917,7.592s2.711,6.923,5.969,6.18c1.783-.407,3.741-1.9,5.185-.776,1.043.812.872,2.483.189,3.615s-1.747,2.007-2.359,3.178a4.873,4.873,0,0,0,1.373,6.011,4.63,4.63,0,0,0,6.061-.728,5.005,5.005,0,0,0,1.289,6.79,5.006,5.006,0,0,0,6.746-1.505c.4,2.085,1.311,4.653,3.43,4.786,2.145.134,3.373-2.378,3.847-4.474s1.164-4.649,3.252-5.155c3.286-.8,5.269,2.653,8.368-.114,2.094-1.869,2.985-4.37,5.54-5.878,2.051-1.21,4.392-1.942,6.488-3.093C-845.438,3237.206-839.492,3236.043-839.078,3232.625Z" fill="#33252f"/>
        <path id="Trazado_2616" data-name="Trazado 2616" d="M-877.738,3239.847a130.55,130.55,0,0,1-1.995,22.542c-.6,3.392,1.6,28.726,15.561,28.726s11.37-19.35,6.382-27.13l-2.393-1.2,2.393-12.368-14.562-12.777Z" fill="#fcbba4"/>
        <path id="Trazado_2617" data-name="Trazado 2617" d="M-860.183,3262.788l2.393-12.368-14.562-12.777-5.386,2.2a130.55,130.55,0,0,1-1.995,22.542c1-5.186,3.79-10.971,7.58-6.782C-868.938,3259.16-865.442,3264.4-860.183,3262.788Z" fill="#fca586"/>
        <path id="Trazado_2618" data-name="Trazado 2618" d="M-849.051,3223.795c3.959,6.108.952,27.435-5.907,30.1-6.641,2.582-15.069-3.053-19.4-12.754a.4.4,0,0,0-.733-.005,2.665,2.665,0,0,1-1.934,1.684c-1.507.223-4.032-.934-4.032-6.072.813.989,2.955.241,3.952-.562s1.764-1.939,2.949-2.423a17.183,17.183,0,0,1,2.1-.5,5.214,5.214,0,0,0,3.186-7.014c.166.351.757.113.854-.264a4.64,4.64,0,0,0-.068-1.158c0-1.05,1.165-1.74,2.214-1.8s2.095.262,3.142.171,2.188-.853,2.105-1.9a2.865,2.865,0,0,0,3.006,2.387,2.863,2.863,0,0,0,2.484-2.925,2,2,0,0,0,1.461,2.164,2,2,0,0,0,2.275-1.282C-851.441,3222.69-849.62,3222.918-849.051,3223.795Z" fill="#fcbba4"/>
      </g>
      <g id="Grupo_11860" data-name="Grupo 11860">
        <path id="Trazado_2619" data-name="Trazado 2619" d="M-892.893,3296.278a23.362,23.362,0,0,1,.149-6.427c2.285-14.432-2.708-25.3-11.218-23.443-5.051,1.1-8.755,5.452-8.755,20.172a63.54,63.54,0,0,0,1.175,12.329C-906.352,3295.413-898.9,3293.463-892.893,3296.278Z" fill="#ff6a66"/>
        <path id="Trazado_2620" data-name="Trazado 2620" d="M-817.416,3316.979c-1.349-2.77-3.484-6.628-5.733-8.592-3.745-3.271-14.043,1.636-20.55,1.636s-17.524,0-25.671-2.453-19.941-2.726-19.941-2.726-2.892-2.7-3.582-8.566c-6.01-2.815-13.459-.865-18.649,2.631a47.661,47.661,0,0,0,8.241,19.473,4.8,4.8,0,0,0,3.834,1.8h19.125c13.65,0,29.73-2.528,32.449-2.528s5.707,2.528,8.22,2.528,2.793-1.166,5.289-2.528c1.832-1,4.335.827,5.539,1.872a2.808,2.808,0,0,0,1.843.656h7.15C-817.959,3320.184-816.676,3318.5-817.416,3316.979Z" fill="#fcbba4"/>
      </g>
      <g id="Grupo_11863" data-name="Grupo 11863">
        <g id="Grupo_11862" data-name="Grupo 11862">
          <g id="Grupo_11861" data-name="Grupo 11861">
            <path id="Trazado_2621" data-name="Trazado 2621" d="M-752.228,3316.412h-101.5a3.772,3.772,0,0,0,3.773,3.772H-756a3.772,3.772,0,0,0,3.772-3.772Z" fill="#33252f"/>
          </g>
        </g>
        <path id="Trazado_2622" data-name="Trazado 2622" d="M-822.888,3320.184h67.138a4.519,4.519,0,0,0,4.461-3.8l8.07-49.86a3.464,3.464,0,0,0-3.42-4.017h-67.138a4.517,4.517,0,0,0-4.46,3.8l-8.07,49.86A3.463,3.463,0,0,0-822.888,3320.184Z" fill="#463840"/>
      </g>
      <g id="Grupo_11868" data-name="Grupo 11868">
        <g id="Grupo_11866" data-name="Grupo 11866">
          <g id="Grupo_11864" data-name="Grupo 11864">
            <path id="Trazado_2623" data-name="Trazado 2623" d="M-845.529,3350.97c38.113,13.738,50.79,25.766,52.231,35.273,2.432,16.046,5.985,24.4,5.985,46.131s-.7,68.177-.7,68.177h-13.8s1.051-17.663-4.761-47.367c-6.042-30.875-8.742-46.415-7.471-58.475a3.253,3.253,0,0,0-2.052-3.509c-3.772-1.2-13.149-3.025-35.32-3.025l-20.137-31.445Z" fill="#463840"/>
            <path id="Trazado_2624" data-name="Trazado 2624" d="M-809.36,3409.426c0-10.815,4.59-21.031-1.932-24.636-5.137-2.839-16.2-18.044-48.581-30.646l-3.224.714-4.393,8.613,16.069,24.7c22.171,0,31.548,1.824,35.32,3.025a3.253,3.253,0,0,1,2.052,3.509c-1.271,12.06,1.152,27.673,7.471,58.475a245.462,245.462,0,0,1,4.761,47.367h13.8s.319-18.673.528-40.381C-796.072,3446.106-809.36,3416.749-809.36,3409.426Z" fill="#33252f"/>
          </g>
          <path id="Trazado_2625" data-name="Trazado 2625" d="M-801.817,3500.551" fill="#33252f"/>
          <g id="Grupo_11865" data-name="Grupo 11865">
            <path id="Trazado_2626" data-name="Trazado 2626" d="M-801.817,3500.551a22.777,22.777,0,0,1-.936,5.3c3.547.162,8.01-5.3,11.124-5.3Z" fill="#fc9a80"/>
            <path id="Trazado_2627" data-name="Trazado 2627" d="M-768.789,3513.076c-2.394-2.483-12.829-6.829-14.181-8.527-3.185-4-5.047-4-5.047-4h-3.612c-3.114,0-7.577,5.465-11.124,5.3-1.171,4.536-2.756,9.905-.428,14.672h36.955S-766.4,3515.559-768.789,3513.076Z" fill="#874f5b"/>
          </g>
        </g>
        <g id="Grupo_11867" data-name="Grupo 11867">
          <path id="Trazado_2628" data-name="Trazado 2628" d="M-786.174,3497.071l6.265,1.389v-10.931l-7.4,4.036Z" fill="#fc9a80"/>
          <path id="Trazado_2629" data-name="Trazado 2629" d="M-910.438,3365.246c-5.582,12.044,4.6,22.929,13.415,22.929h45.6c6.149,0,10.082,9.617,12.455,23.656,4.615,27.313,19.6,42.806,34.768,62.714s18.024,22.526,18.024,22.526l11.338-12.452s-8.119-9.411-21.7-36.726-16.544-36.813-21.823-59.718-47.781-33.336-47.781-33.336S-902.057,3347.161-910.438,3365.246Z" fill="#463840"/>
          <path id="Trazado_2630" data-name="Trazado 2630" d="M-786.174,3497.071c2.9,4.248,3.193,7.891,6.354,9.567s5.506,3.437,9.447,5.2,14.929-4.079,16.247-7.382-2.637-9.356-4.688-10.365-13-7.736-16.022-11.6-7.417,3.7-6.685,9.586S-786.174,3497.071-786.174,3497.071Z" fill="#874f5b"/>
          <path id="Trazado_2631" data-name="Trazado 2631" d="M-762.352,3510.538c-6.984-.237-13.372-4.221-20.6-14.1a5.055,5.055,0,0,1-3.227.637c2.9,4.248,3.193,7.891,6.354,9.567s5.506,3.437,9.447,5.2c1.763.787,4.934.052,8.02-1.294Z" fill="#8e3948"/>
        </g>
      </g>
      <g id="Grupo_11871" data-name="Grupo 11871">
        <rect id="Rectángulo_4427" data-name="Rectángulo 4427" width="274.716" height="23.494" transform="translate(-955.719 3335.686)" fill="#ffd994"/>
        <rect id="Rectángulo_4428" data-name="Rectángulo 4428" width="274.716" height="11.747" transform="translate(-955.719 3335.686)" fill="#e5af70"/>
        <rect id="Rectángulo_4429" data-name="Rectángulo 4429" width="346.911" height="15.501" transform="translate(-991.817 3320.185)" fill="#ffd994"/>
        <rect id="Rectángulo_4430" data-name="Rectángulo 4430" width="346.911" height="7.751" transform="translate(-991.817 3327.935)" fill="#e5af70"/>
        <g id="Grupo_11870" data-name="Grupo 11870">
          <g id="Grupo_11869" data-name="Grupo 11869">
            <path id="Trazado_2632" data-name="Trazado 2632" d="M-970.932,3475.076h106.6l-4.318-14.685h-98.175Z" fill="#ffd994"/>
          </g>
          <path id="Trazado_2633" data-name="Trazado 2633" d="M-955.719,3359.18l-24.107,161.346h0c2.554,0,4.7-2.361,4.976-5.478l38-155.868Z" fill="#ffd994"/>
          <path id="Trazado_2634" data-name="Trazado 2634" d="M-879.543,3359.18l24.106,161.346h0c-2.554,0-4.7-2.361-4.975-5.478l-38-155.868Z" fill="#ffd994"/>
        </g>
      </g>
      <g id="Grupo_11873" data-name="Grupo 11873">
        <path id="Trazado_2635" data-name="Trazado 2635" d="M-748.013,3182.175l-9.129,96.226h47.818l9.129-96.226Z" fill="#f1f1f1"/>
        <path id="Trazado_2636" data-name="Trazado 2636" d="M-744.1,3182.175l-9.129,96.226h47.818l9.129-96.226Z" fill="#e8e0e4"/>
        <g id="Grupo_11872" data-name="Grupo 11872">
          <path id="Trazado_2637" data-name="Trazado 2637" d="M-720.816,3245.59l-6.662,70.223H-712.1l6.662-70.223Z" fill="#e8e0e4"/>
          <path id="Trazado_2638" data-name="Trazado 2638" d="M-705.44,3245.59-710,3233.281h-15.376l4.556,12.308Z" fill="#f1f1f1"/>
          <path id="Trazado_2639" data-name="Trazado 2639" d="M-720.816,3245.59l-6.662,70.223H-733.2l7.83-82.532Z" fill="#f1f1f1"/>
        </g>
        <path id="Trazado_2640" data-name="Trazado 2640" d="M-760.619,3320.184h53.469a4.371,4.371,0,0,0-4.371-4.371h-44.727a4.371,4.371,0,0,0-4.371,4.371Z" fill="#f1f1f1"/>
      </g>
      <g id="Grupo_11875" data-name="Grupo 11875">
        <g id="Grupo_11874" data-name="Grupo 11874">
          <path id="Trazado_2641" data-name="Trazado 2641" d="M-949.191,3288.315l-2.62,31.869h-13.057l-2.62-31.869Z" fill="#e5af70"/>
          <rect id="Rectángulo_4431" data-name="Rectángulo 4431" width="22.492" height="2.189" transform="translate(-969.585 3286.126)" fill="#d67363"/>
          <path id="Trazado_2642" data-name="Trazado 2642" d="M-948.8,3286.126l-1.9-2.336h-15.289l-1.9,2.336Z" fill="#d67363"/>
          <path id="Trazado_2643" data-name="Trazado 2643" d="M-967.882,3286.126l.949-1.168h17.187l.949,1.168Z" fill="#8e3948"/>
        </g>
        <path id="Trazado_2644" data-name="Trazado 2644" d="M-950.773,3307.558h-15.133l-.688-8.363h16.508Z" fill="#ffd994"/>
        <circle id="Elipse_9" data-name="Elipse 9" cx="5.482" cy="5.482" r="5.482" transform="translate(-963.821 3297.895)" fill="#f1f1f1"/>
      </g>
      <g id="Grupo_11878" data-name="Grupo 11878">
        <g id="Grupo_11876" data-name="Grupo 11876">
          <path id="Trazado_2645" data-name="Trazado 2645" d="M-907.233,3237.217l27.559-17.586a1.037,1.037,0,0,0,.224-1.556l-22.913-26.292a1.038,1.038,0,0,0-1.34-.193l-18.838,12.02a1.037,1.037,0,0,0-.389,1.3l14.191,31.857A1.038,1.038,0,0,0-907.233,3237.217Z" fill="#049be5"/>
          <rect id="Rectángulo_4432" data-name="Rectángulo 4432" width="2.559" height="23.401" transform="translate(-912.043 3196.912) rotate(147.458)" fill="#ffd994"/>
        </g>
        <path id="Trazado_2646" data-name="Trazado 2646" d="M-956.405,3217.288c0,1.329.808,2.406,1.8,2.406s1.8-1.077,1.8-2.406-.808-2.407-1.8-2.407S-956.405,3215.959-956.405,3217.288Z" fill="#e5af70"/>
        <path id="Trazado_2647" data-name="Trazado 2647" d="M-950.585,3214.881c1,0,1.8,1.078,1.8,2.407s-.808,2.406-1.8,2.406H-954.6c1,0,1.8-1.077,1.8-2.406s-.808-2.407-1.8-2.407Z" fill="#ffd994"/>
        <g id="Grupo_11877" data-name="Grupo 11877">
          <path id="Trazado_2648" data-name="Trazado 2648" d="M-953.4,3214.881l32.834-28.433,2.306,2.578L-951,3217.288s-.62.4-1.072-.643C-952.8,3214.984-953.4,3214.881-953.4,3214.881Z" fill="#ffd994"/>
          <path id="Trazado_2649" data-name="Trazado 2649" d="M-949.892,3219.694l16.661,95.538-3.407.594-16.765-96.132s.477-1.1,2.391-.879A1.145,1.145,0,0,1-949.892,3219.694Z" fill="#ffd994"/>
        </g>
        <rect id="Rectángulo_4433" data-name="Rectángulo 4433" width="46.612" height="4.953" transform="translate(-912.748 3320.185) rotate(180)" fill="#049be5"/>
      </g>
      <g id="Grupo_11880" data-name="Grupo 11880">
        <path id="Trazado_2650" data-name="Trazado 2650" d="M-801.353,3139.628h-50a8.1,8.1,0,0,0-8.1,8.1v44.61l4.585-6.607a11.789,11.789,0,0,1,9.685-5.067h43.831a8.1,8.1,0,0,0,8.1-8.1V3147.73A8.1,8.1,0,0,0-801.353,3139.628Z" fill="#463840"/>
        <g id="Grupo_11879" data-name="Grupo 11879">
          <path id="Trazado_2651" data-name="Trazado 2651" d="M-834.916,3149.31a1.744,1.744,0,0,1,.409.593,1.738,1.738,0,0,1,.171.7,1.677,1.677,0,0,1-.514,1.228,1.675,1.675,0,0,1-1.227.514,1.687,1.687,0,0,1-1.161-.448,2.387,2.387,0,0,0-1.637-.607,2.347,2.347,0,0,0-1.728.7,2.349,2.349,0,0,0-.7,1.728v12.536a2.348,2.348,0,0,0,.7,1.728,2.344,2.344,0,0,0,1.728.7,2.387,2.387,0,0,0,1.637-.607,1.652,1.652,0,0,1,1.213-.5,1.676,1.676,0,0,1,1.228.515,1.675,1.675,0,0,1,.514,1.227,1.759,1.759,0,0,1-.185.739,1.665,1.665,0,0,1-.448.607,5.762,5.762,0,0,1-3.959,1.5,5.689,5.689,0,0,1-4.169-1.742,5.688,5.688,0,0,1-1.742-4.169v-12.536a5.688,5.688,0,0,1,1.742-4.169,5.689,5.689,0,0,1,4.169-1.742A5.763,5.763,0,0,1-834.916,3149.31Z" fill="#e8575d"/>
          <path id="Trazado_2652" data-name="Trazado 2652" d="M-826.392,3154.244a1.676,1.676,0,0,1,1.227.515,1.675,1.675,0,0,1,.514,1.227v1.768h1.795a1.694,1.694,0,0,1,1.227.5,1.647,1.647,0,0,1,.515,1.227,1.69,1.69,0,0,1-.515,1.24,1.675,1.675,0,0,1-1.227.515h-1.795v1.741a1.673,1.673,0,0,1-.514,1.227,1.675,1.675,0,0,1-1.227.515,1.679,1.679,0,0,1-1.228-.515,1.673,1.673,0,0,1-.514-1.227v-1.741h-1.8a1.676,1.676,0,0,1-1.227-.515,1.689,1.689,0,0,1-.514-1.24,1.646,1.646,0,0,1,.514-1.227,1.694,1.694,0,0,1,1.227-.5h1.8v-1.768a1.7,1.7,0,0,1,.5-1.227,1.633,1.633,0,0,1,1.214-.515Z" fill="#e8575d"/>
          <path id="Trazado_2653" data-name="Trazado 2653" d="M-813.2,3154.244a1.676,1.676,0,0,1,1.227.515,1.675,1.675,0,0,1,.514,1.227v1.768h1.795a1.694,1.694,0,0,1,1.227.5,1.646,1.646,0,0,1,.514,1.227,1.689,1.689,0,0,1-.514,1.24,1.675,1.675,0,0,1-1.227.515h-1.795v1.741a1.673,1.673,0,0,1-.514,1.227,1.675,1.675,0,0,1-1.227.515,1.676,1.676,0,0,1-1.228-.515,1.673,1.673,0,0,1-.514-1.227v-1.741h-1.795a1.676,1.676,0,0,1-1.227-.515,1.689,1.689,0,0,1-.514-1.24,1.646,1.646,0,0,1,.514-1.227,1.694,1.694,0,0,1,1.227-.5h1.795v-1.768a1.7,1.7,0,0,1,.5-1.227,1.633,1.633,0,0,1,1.214-.515Z" fill="#e8575d"/>
        </g>
      </g>
      <g id="Grupo_11891" data-name="Grupo 11891">
        <path id="Trazado_2654" data-name="Trazado 2654" d="M-681,3467.925c2.583-71.99-7.494-84.107-22.862-143.51-7.16-27.674,1.23-59.884,29.6-81.086" fill="none" stroke="#216d55" stroke-miterlimit="10" stroke-width="2"/>
        <g id="Grupo_11881" data-name="Grupo 11881">
          <path id="Trazado_2655" data-name="Trazado 2655" d="M-667.316,3238.358l.7-.66.8-.764,1.073-.928,2.668-2.352,1.489-1.357,1.55-1.333c1.033-.9,2.046-1.811,2.958-2.7.457-.445.887-.883,1.282-1.308s.763-.79,1.077-1.164c1.26-1.485,1.752-2.7.722-3.285-.862-.474-2.971.209-5.651,1.915a51.869,51.869,0,0,0-4.385,3.019c-1.535,1.244-3.132,2.616-4.717,4.04-1.571,1.466-3.081,3.113-4.539,4.662a30.954,30.954,0,0,0-2.063,2.422l-1.877,2.391a47.9,47.9,0,0,0-3.058,4.436,40.182,40.182,0,0,0-2.075,3.466,69.821,69.821,0,0,0-16.346,19.823,82.331,82.331,0,0,0-8.552,24.257l1.853.358a80.705,80.705,0,0,1,9.072-24.969,59.44,59.44,0,0,1,3.591-5.591,28.9,28.9,0,0,1,2.021-2.635l2.1-2.58,2.3-2.4a31.011,31.011,0,0,1,2.365-2.337c1.686-1.443,3.262-3.015,5.091-4.289,1.189-.445,2.465-.847,3.78-1.213,1.373-.29,2.793-.537,4.21-.761l2.121-.318,2.179-.177,4.179-.339a57.559,57.559,0,0,0,7.367-.656,8.284,8.284,0,0,0,4.845-1.982c2.579-2.437-.419-3.394-4.14-3.4a31.216,31.216,0,0,0-5.48.368c-1.558.24-2.664.464-2.664.464s1.392-.5,3.468-1.311l7.834-2.735c5.784-2.008,11.866-3.989,12.32-6.129.226-1.055-.7-1.553-2.456-1.622a19.531,19.531,0,0,0-3.2.2,28.027,28.027,0,0,0-4.137.822A69.217,69.217,0,0,0-667.316,3238.358Z" fill="#216d55"/>
        </g>
        <g id="Grupo_11882" data-name="Grupo 11882">
          <path id="Trazado_2656" data-name="Trazado 2656" d="M-701.757,3230.478s-.548-1.005-1.4-2.434a41.26,41.26,0,0,0-3.39-4.914c-2.68-3.33-5.76-5.857-6.672-4.266-.372.659.177,2.075,1.371,3.926.621.918,1.235,2.01,2.037,3.156l1.233,1.793,1.245,1.925a131.335,131.335,0,0,1,8.522,14.779,94.1,94.1,0,0,1-5.988,41.621l1.454.57a96.449,96.449,0,0,0,5.863-44.8c.214-1.069.439-2.2.672-3.368.267-1.194.543-2.426.822-3.675.448-2.5,1.073-5.175,1.285-7.712.133-1.274.244-2.53.287-3.728a31.252,31.252,0,0,0-.172-3.365,8.553,8.553,0,0,0-1.749-4.861c-2.256-2.532-2.745.364-2.758,3.682-.046,1.682-.038,3.51.023,4.9.032.7.059,1.285.053,1.709l.011.667a30.852,30.852,0,0,0-.688-3.184c-.24-.954-.522-2.072-.856-3.271-.39-1.18-.825-2.443-1.288-3.71a33.307,33.307,0,0,0-1.594-3.676,23.4,23.4,0,0,0-1.76-3.166c-1.237-1.816-2.389-3.01-3.266-2.994s-1.108.894-.882,2.322a41.423,41.423,0,0,0,1.763,5.757C-705.841,3218.828-703.49,3224.964-701.757,3230.478Z" fill="#216d55"/>
        </g>
        <g id="Grupo_11883" data-name="Grupo 11883">
          <path id="Trazado_2657" data-name="Trazado 2657" d="M-683.205,3278.048s.728-.876,1.8-2.167c1.1-1.278,2.595-2.981,4.151-4.606,3.045-3.294,6.406-6.4,4.653-7.251a2.488,2.488,0,0,0-1.816.268,14.309,14.309,0,0,0-2.907,1.681,37.5,37.5,0,0,0-6.979,6.664,46.72,46.72,0,0,0-5.612,8.72,44.074,44.074,0,0,0-2.8,7.048,54.529,54.529,0,0,0-11.252,38.816l1.5-.154a52.921,52.921,0,0,1,12.415-39.521,26.733,26.733,0,0,1,5.934-2.731,54.2,54.2,0,0,1,6.485-1.624c4.148-.839,7.567-1.157,8.965-2.88.86-1,.753-1.664.046-2.069a6.869,6.869,0,0,0-3.459-.467,22.537,22.537,0,0,0-4.212.694c-.605.148-1.12.292-1.472.418l-.565.191a83.633,83.633,0,0,1,8.5-3.978c4.38-1.888,9.137-3.145,9.615-4.807.231-.83-.472-1.279-1.888-1.42a18.2,18.2,0,0,0-5.946.757,37.259,37.259,0,0,0-7.8,3.235A40.249,40.249,0,0,0-683.205,3278.048Z" fill="#216d55"/>
        </g>
        <g id="Grupo_11884" data-name="Grupo 11884">
          <path id="Trazado_2658" data-name="Trazado 2658" d="M-722.182,3265.351s-.058-.314-.121-.864-.191-1.346-.243-2.3a39.182,39.182,0,0,1,.1-7.169c.256-2.642.858-5.306,1.212-7.305.385-1.974.4-3.327-.782-3.132a3.944,3.944,0,0,0-1.863,1.6,17.342,17.342,0,0,0-2.016,3.934A27.812,27.812,0,0,0-727.347,3262a30.829,30.829,0,0,0,.456,3.21l.345,1.57c.138.5.3.987.449,1.471a33.511,33.511,0,0,0,2.172,5.4,29.659,29.659,0,0,0,4.986,6.939c1.434,3.532,3.123,6.921,4.6,10.4,1.513,3.465,2.787,7.024,3.962,10.615a177.392,177.392,0,0,1,5.285,22.046l1.644-.291a171.383,171.383,0,0,0-5.751-23.527c-1.27-3.848-2.767-7.627-4.4-11.322s-3.435-7.276-4.667-10.932a17.83,17.83,0,0,1,1.234-6.817,30.375,30.375,0,0,1,1.447-3.266,22.973,22.973,0,0,1,1.733-2.741c1.209-1.667,2.453-2.987,3.353-4.07a8.767,8.767,0,0,0,1.059-1.519,2.784,2.784,0,0,0,.383-1.411c-.017-1.16-.485-1.714-1.322-1.783a3.749,3.749,0,0,0-1.463.283,8.638,8.638,0,0,0-1.706.99,14.268,14.268,0,0,0-2.962,3.159,14.1,14.1,0,0,0-.848,1.345c-.2.342-.309.548-.309.548s.1-.287.279-.79l.318-.9c.14-.342.3-.728.471-1.149a29.763,29.763,0,0,1,3.26-5.735,29.505,29.505,0,0,1,4.546-4.769c.355-.315.685-.622,1.009-.87s.588-.552.837-.79a2.523,2.523,0,0,0,.889-1.42c.129-.939-.649-1.356-2.271-1.257a12.347,12.347,0,0,0-6.149,2.962,20.923,20.923,0,0,0-5.641,7.826A25.979,25.979,0,0,0-722.182,3265.351Z" fill="#216d55"/>
        </g>
        <g id="Grupo_11885" data-name="Grupo 11885">
          <path id="Trazado_2659" data-name="Trazado 2659" d="M-677.494,3225.016s-.109-.718-.3-1.758a28.147,28.147,0,0,0-.935-3.687c-.851-2.588-2.1-4.813-3-4.071-.777.622.2,3.9,1.094,7.815a100.919,100.919,0,0,1,1.966,10.7,67.914,67.914,0,0,1-11.567,24.133l.79.6a69.449,69.449,0,0,0,12.114-26.022c.691-1.187,1.476-2.514,2.37-3.9.8-1.4,1.74-2.85,2.423-4.3.356-.724.7-1.443.981-2.141a19.693,19.693,0,0,0,.643-2.021,5.4,5.4,0,0,0,.048-3.246c-.767-1.992-1.711-.405-2.468,1.553-.4.983-.8,2.068-1.072,2.9-.135.419-.25.775-.345,1.026l-.139.4s.168-.8.291-2.041c.063-.62.137-1.346.216-2.128.034-.786.062-1.63.073-2.483a22.93,22.93,0,0,0-.1-2.531,15.569,15.569,0,0,0-.309-2.27c-.3-1.356-.7-2.328-1.226-2.525s-.864.264-1.065,1.161a24.46,24.46,0,0,0-.294,3.817C-677.363,3217.164-677.341,3221.345-677.494,3225.016Z" fill="#216d55"/>
        </g>
        <g id="Grupo_11886" data-name="Grupo 11886">
          <path id="Trazado_2660" data-name="Trazado 2660" d="M-670.792,3299.3l1.993-2.771c1.217-1.64,2.872-3.829,4.588-5.94,3.353-4.265,7.025-8.372,4.828-9.216a2.972,2.972,0,0,0-2.147.506,15.082,15.082,0,0,0-1.551.936c-.549.4-1.137.859-1.755,1.374a47.316,47.316,0,0,0-7.746,8.654,60.509,60.509,0,0,0-6.087,10.945,58.09,58.09,0,0,0-2.964,8.7,72.4,72.4,0,0,0-13.246,47.447l1.83-.144a70.455,70.455,0,0,1,14.606-48.5,34.327,34.327,0,0,1,7.045-3.717,73.106,73.106,0,0,1,7.782-2.511c5-1.393,9.164-2.16,10.713-4.406.956-1.309.757-2.1-.147-2.516a4.984,4.984,0,0,0-1.817-.353,17.118,17.118,0,0,0-2.447.158,28.769,28.769,0,0,0-5.062,1.256c-.722.238-1.334.461-1.751.644l-.671.283s4.76-3.072,9.959-5.663c5.129-2.751,10.748-4.884,11.114-6.952.174-1.032-.736-1.484-2.462-1.478a22.7,22.7,0,0,0-7.087,1.617,47.694,47.694,0,0,0-9.084,4.719A51.947,51.947,0,0,0-670.792,3299.3Z" fill="#216d55"/>
        </g>
        <g id="Grupo_11887" data-name="Grupo 11887">
          <path id="Trazado_2661" data-name="Trazado 2661" d="M-722.42,3320.734s-.8-.252-1.983-.573a28.571,28.571,0,0,0-4.3-.843c-3.116-.362-6.011-.065-5.666,1.236.146.534,1.152.986,2.719,1.327.793.153,1.667.412,2.672.6l1.559.3,1.632.375a83.667,83.667,0,0,1,12,3.549,62.358,62.358,0,0,1,17.011,25.78l1.09-.368a64.051,64.051,0,0,0-18.7-27.482l-1.342-2.149-1.426-2.387c-1.04-1.562-2.07-3.315-3.269-4.77-.586-.745-1.176-1.471-1.774-2.131a23.276,23.276,0,0,0-1.841-1.693,6.326,6.326,0,0,0-3.462-1.662c-2.512-.164-1.245,1.613.475,3.36.85.91,1.8,1.872,2.549,2.572.376.35.695.648.909.877l.349.348a21.06,21.06,0,0,0-2.005-1.33c-.619-.38-1.346-.825-2.143-1.285-.818-.417-1.7-.854-2.605-1.278a23.03,23.03,0,0,0-2.754-1.089,16.337,16.337,0,0,0-2.576-.726c-1.6-.29-2.823-.3-3.266.167s-.1,1.045.768,1.663a32.755,32.755,0,0,0,3.921,2.055C-730.543,3316.691-726.149,3318.691-722.42,3320.734Z" fill="#216d55"/>
        </g>
        <g id="Grupo_11888" data-name="Grupo 11888">
          <path id="Trazado_2662" data-name="Trazado 2662" d="M-668.87,3339.269s.545-1.17,1.345-2.891c.823-1.72,1.938-4.021,3.092-6.273,2.24-4.523,4.669-8.993,2.507-9.325-.465-.073-1.082.256-1.831.876a16.5,16.5,0,0,0-2.513,2.726,47.6,47.6,0,0,0-5.384,9.269,63.882,63.882,0,0,0-3.733,11.01,62.862,62.862,0,0,0-1.462,8.46,80.32,80.32,0,0,0-8.386,45.642l1.71-.195a78.492,78.492,0,0,1,9.468-47,35.37,35.37,0,0,1,5.984-4.542c2.254-1.374,4.6-2.61,6.82-3.693,4.408-2.213,8.16-3.814,9.178-6.217.637-1.417.294-2.1-.626-2.29a8.345,8.345,0,0,0-3.983.7,29.307,29.307,0,0,0-4.444,2.146c-.623.356-1.148.678-1.5.922l-.569.384s3.858-3.7,8.118-7.158c4.178-3.573,8.838-6.832,8.7-8.793-.109-1.928-3.888-.9-8.668,2.236a49.2,49.2,0,0,0-7.338,6.129A54.416,54.416,0,0,0-668.87,3339.269Z" fill="#216d55"/>
        </g>
        <g id="Grupo_11889" data-name="Grupo 11889">
          <path id="Trazado_2663" data-name="Trazado 2663" d="M-650.33,3374.486s.481-1.457,1-3.631a45.1,45.1,0,0,0,1.19-7.838,19.8,19.8,0,0,0-.727-7.219c-.61-1.791-1.562-2.716-2.659-2.359-.95.307-1.338,1.975-1.728,4.621s-.82,6.312-1.624,10.379c-1.516,8.1-4.531,17.823-5.746,22.424-5.718,7.664-11.481,15.471-15.351,24.337a55.7,55.7,0,0,0-4.148,13.831,42.562,42.562,0,0,0-.506,7.231,39.232,39.232,0,0,0,.852,7.209l2.059-.463a37.2,37.2,0,0,1-.188-14.445,55.66,55.66,0,0,1,4.528-14c4.2-8.974,10.374-16.986,16.436-25.1,4.6-3.48,11.136-6.968,16.641-11.487a37.417,37.417,0,0,0,6.931-7.132c1.737-2.467,2.806-4.911,2.787-7.011.01-2.491-.86-3.011-1.968-2.408a19.811,19.811,0,0,0-4.216,3.96c-3.129,3.545-6.716,7.5-6.716,7.5s1.006-1.452,2.355-3.8a50.935,50.935,0,0,0,4.161-9.27,33.144,33.144,0,0,0,1.8-10.647,13.561,13.561,0,0,0-.169-2.178,10.525,10.525,0,0,0-.385-1.774,3.31,3.31,0,0,0-1.327-1.984c-1.073-.523-1.876.435-2.466,2.248-.663,1.821-1.238,4.522-2.137,7.679a91.341,91.341,0,0,1-3.605,10.453C-646.746,3367.291-648.559,3371.021-650.33,3374.486Z" fill="#216d55"/>
        </g>
        <g id="Grupo_11890" data-name="Grupo 11890">
          <path id="Trazado_2664" data-name="Trazado 2664" d="M-713.277,3370.918l-2.552-2.074c-1.52-1.252-3.559-2.916-5.561-4.631l-2.961-2.495c-.966-.773-1.845-1.5-2.639-2.061-1.606-1.094-2.8-1.56-3.24-.466a3.024,3.024,0,0,0,.441,2.141,17.094,17.094,0,0,0,2.165,3.315,48.256,48.256,0,0,0,8.014,7.659c6.379,4.938,13.809,8.91,17.339,10.908,5.152,6.237,10.128,12.666,13.967,19.774a55.85,55.85,0,0,1,4.629,11.134,39.21,39.21,0,0,1,1.565,11.9l1.784.053a41.629,41.629,0,0,0-1.842-13.136,59.855,59.855,0,0,0-5.251-12.058c-4.288-7.624-9.8-14.385-15.264-20.974a94.419,94.419,0,0,1-4.555-15.614c-1.218-5.139-1.93-9.242-4.034-10.778-1.224-.939-2-.771-2.437.086a8.123,8.123,0,0,0-.328,4.116,34.975,34.975,0,0,0,1.907,7.414s-.707-1.21-1.709-3.055c-.53-.911-1.058-2.009-1.691-3.162-.566-1.177-1.238-2.411-1.807-3.689-.627-1.258-1.155-2.555-1.735-3.766-.488-1.236-1.071-2.379-1.5-3.417-.232-.514-.47-.992-.712-1.424a13.308,13.308,0,0,0-.662-1.166,2.779,2.779,0,0,0-1.413-1.253c-.984-.267-1.508.554-1.656,2.236a19.627,19.627,0,0,0,1.123,7.022,42.944,42.944,0,0,0,4.3,9.006A63.539,63.539,0,0,0-713.277,3370.918Z" fill="#216d55"/>
        </g>
        <path id="Trazado_2665" data-name="Trazado 2665" d="M-662.772,3520.526h-33.565a15.742,15.742,0,0,1-15.718-14.892l-5-92.462a7.555,7.555,0,0,1,7.544-7.963H-649.6a7.555,7.555,0,0,1,7.544,7.963l-5,92.462A15.74,15.74,0,0,1-662.772,3520.526Z" fill="#8e3948"/>
      </g>
    </g>
  </g>
</svg>
