<svg xmlns="http://www.w3.org/2000/svg" width="105.504" height="114.385" viewBox="0 0 105.504 114.385">
  <g id="Grupo_11544" data-name="Grupo 11544" transform="translate(-189.272 -3663.447)">
    <path id="Trazado_1973" data-name="Trazado 1973" d="M248.865,3720.639a29.043,29.043,0,1,1-29.042-29.042,29.042,29.042,0,0,1,29.042,29.042Zm0,0" fill="#f2f2f2"/>
    <path id="Trazado_1974" data-name="Trazado 1974" d="M219.823,3691.6a29.222,29.222,0,0,0-6.016.625,29.048,29.048,0,0,1,0,56.835,29.045,29.045,0,1,0,6.016-57.46Zm0,0" fill="#cdd6df"/>
    <path id="Trazado_1975" data-name="Trazado 1975" d="M293.1,3759.1a17.052,17.052,0,1,1-17.052-17.052A17.051,17.051,0,0,1,293.1,3759.1Zm0,0" fill="#f2f2f2"/>
    <path id="Trazado_1976" data-name="Trazado 1976" d="M276.048,3742.052a17.029,17.029,0,0,0-6.016,1.094,17.054,17.054,0,0,1,0,31.915,17.053,17.053,0,1,0,6.016-33.009Zm0,0" fill="#cdd6df"/>
    <path id="Trazado_1977" data-name="Trazado 1977" d="M276.048,3762.035A10.552,10.552,0,0,0,265.5,3772.5a17.057,17.057,0,0,0,21.1,0,10.552,10.552,0,0,0-10.55-10.467Zm0,0" fill="#ffd553"/>
    <path id="Trazado_1978" data-name="Trazado 1978" d="M281.953,3756.132a5.9,5.9,0,1,1-5.9-5.905,5.9,5.9,0,0,1,5.9,5.905Zm0,0" fill="#ffd553"/>
    <path id="Trazado_1979" data-name="Trazado 1979" d="M293.1,3682.175a17.052,17.052,0,1,1-17.052-17.053,17.051,17.051,0,0,1,17.052,17.053Zm0,0" fill="#f2f2f2"/>
    <path id="Trazado_1980" data-name="Trazado 1980" d="M276.048,3665.122a17.008,17.008,0,0,0-6.016,1.095,17.055,17.055,0,0,1,0,31.916,17.053,17.053,0,1,0,6.016-33.011Zm0,0" fill="#cdd6df"/>
    <path id="Trazado_1981" data-name="Trazado 1981" d="M276.048,3685.107a10.551,10.551,0,0,0-10.55,10.466,17.057,17.057,0,0,0,21.1,0,10.551,10.551,0,0,0-10.55-10.466Zm0,0" fill="#33bdb0"/>
    <path id="Trazado_1982" data-name="Trazado 1982" d="M281.953,3679.2a5.9,5.9,0,1,1-5.9-5.9,5.905,5.905,0,0,1,5.9,5.9Zm0,0" fill="#33bdb0"/>
    <path id="Trazado_1983" data-name="Trazado 1983" d="M190.769,3719.171a1.674,1.674,0,0,0,1.844-1.487,27.37,27.37,0,0,1,45.557-17.351q1.03.933,1.956,1.955c.027.033.054.063.083.093a27.267,27.267,0,0,1,6.824,15.306,1.675,1.675,0,0,0,1.664,1.5c.059,0,.119,0,.181-.009a1.677,1.677,0,0,0,1.487-1.845,30.6,30.6,0,0,0-6.435-15.731l15.883-10.094a18.91,18.91,0,0,0,4.517,5.271,1.862,1.862,0,0,0,.271.213,18.7,18.7,0,0,0,22.895,0,1.839,1.839,0,0,0,.268-.211,18.722,18.722,0,1,0-29.368-8.342l-16.714,10.622q-.614-.621-1.264-1.211a30.722,30.722,0,0,0-51.136,19.48,1.676,1.676,0,0,0,1.487,1.845Zm76.45-24.413a8.875,8.875,0,0,1,17.658,0,15.351,15.351,0,0,1-17.658,0Zm4.6-15.556a4.229,4.229,0,1,1,4.228,4.229,4.232,4.232,0,0,1-4.228-4.229Zm4.228-12.4a15.369,15.369,0,0,1,11.706,25.337,12.333,12.333,0,0,0-6.427-7.5,7.579,7.579,0,1,0-10.558,0,12.326,12.326,0,0,0-6.426,7.5,15.368,15.368,0,0,1,11.705-25.337Zm0,0" fill="#4d4d4d"/>
    <path id="Trazado_1984" data-name="Trazado 1984" d="M276.048,3740.376a18.741,18.741,0,0,0-16.235,9.4L243.93,3739.68a30.509,30.509,0,0,0,6.379-15.247,1.676,1.676,0,1,0-3.326-.41,27.37,27.37,0,0,1-54.32,0,1.676,1.676,0,1,0-3.326.41,30.718,30.718,0,0,0,52.343,17.787l16.717,10.623a18.72,18.72,0,0,0,5.935,20.861,1.661,1.661,0,0,0,.271.213,18.691,18.691,0,0,0,22.893,0,1.735,1.735,0,0,0,.269-.213,18.721,18.721,0,0,0-11.717-33.328Zm-8.829,31.311a8.875,8.875,0,0,1,17.658,0,15.347,15.347,0,0,1-17.658,0Zm4.6-15.555a4.229,4.229,0,1,1,4.228,4.228,4.233,4.233,0,0,1-4.228-4.228Zm15.934,12.933a12.322,12.322,0,0,0-6.427-7.5,7.579,7.579,0,1,0-10.558,0,12.318,12.318,0,0,0-6.426,7.5,15.378,15.378,0,1,1,23.411,0Zm0,0" fill="#4d4d4d"/>
    <g id="Grupo_11543" data-name="Grupo 11543">
      <path id="Trazado_1985" data-name="Trazado 1985" d="M239.326,3717.341h-1.4a2.092,2.092,0,0,1-2.006-1.475,16.771,16.771,0,0,0-1.341-3.2,2.1,2.1,0,0,1,.362-2.484l1-1a2.1,2.1,0,0,0,0-2.972l-1.692-1.692a2.1,2.1,0,0,0-2.972,0l-1,1a2.1,2.1,0,0,1-2.484.362,16.85,16.85,0,0,0-3.2-1.342,2.091,2.091,0,0,1-1.475-2.005v-1.4a2.1,2.1,0,0,0-2.1-2.1h-2.4a2.1,2.1,0,0,0-2.1,2.1v1.308a2.092,2.092,0,0,1-1.512,2.016,16.992,16.992,0,0,0-3.3,1.327,2.094,2.094,0,0,1-2.457-.376l-.894-.894a2.1,2.1,0,0,0-2.971,0l-1.693,1.692a2.1,2.1,0,0,0,0,2.972l.8.8a2.094,2.094,0,0,1,.352,2.5,16.876,16.876,0,0,0-1.441,3.377,2.1,2.1,0,0,1-2.017,1.478h-1.078a2.1,2.1,0,0,0-2.1,2.1v2.394a2.1,2.1,0,0,0,2.1,2.1h.994a2.094,2.094,0,0,1,2.018,1.507,16.886,16.886,0,0,0,1.428,3.487,2.09,2.09,0,0,1-.368,2.475l-.691.692a2.1,2.1,0,0,0,0,2.971l1.693,1.693a2.1,2.1,0,0,0,2.971,0l.691-.692a2.093,2.093,0,0,1,2.476-.367,16.887,16.887,0,0,0,3.487,1.428,2.093,2.093,0,0,1,1.507,2.018v.994a2.1,2.1,0,0,0,2.1,2.1h2.394a2.1,2.1,0,0,0,2.1-2.1v-1.078a2.1,2.1,0,0,1,1.478-2.016,16.915,16.915,0,0,0,3.376-1.442,2.094,2.094,0,0,1,2.5.352l.8.8a2.1,2.1,0,0,0,2.972,0l1.692-1.693a2.1,2.1,0,0,0,0-2.971l-.894-.894a2.094,2.094,0,0,1-.376-2.457,16.922,16.922,0,0,0,1.327-3.3,2.092,2.092,0,0,1,2.015-1.512h1.309a2.1,2.1,0,0,0,2.1-2.1v-2.4a2.1,2.1,0,0,0-2.1-2.1Zm-19.5,12.581a9.283,9.283,0,1,1,9.282-9.283,9.283,9.283,0,0,1-9.282,9.283Zm0,0" fill="#fd715c"/>
      <path id="Trazado_1986" data-name="Trazado 1986" d="M219.823,3709.833a10.807,10.807,0,1,0,10.806,10.806,10.818,10.818,0,0,0-10.806-10.806Zm0,18.565a7.759,7.759,0,1,1,7.759-7.759,7.768,7.768,0,0,1-7.759,7.759Zm0,0" fill="#4d4d4d"/>
      <path id="Trazado_1987" data-name="Trazado 1987" d="M239.326,3715.817h-1.4a.568.568,0,0,1-.547-.393,18.524,18.524,0,0,0-1.462-3.486.576.576,0,0,1,.1-.677l1-1a3.627,3.627,0,0,0,0-5.124l-1.694-1.694a3.628,3.628,0,0,0-5.125,0l-1,1a.576.576,0,0,1-.677.1,18.524,18.524,0,0,0-3.486-1.462.568.568,0,0,1-.393-.547v-1.4a3.629,3.629,0,0,0-3.625-3.625h-2.394a3.629,3.629,0,0,0-3.625,3.625v1.307a.567.567,0,0,1-.4.55,18.527,18.527,0,0,0-3.6,1.447.569.569,0,0,1-.665-.108l-.894-.894a3.624,3.624,0,0,0-5.126,0l-1.693,1.694a3.623,3.623,0,0,0,0,5.125l.8.8a.568.568,0,0,1,.1.678,18.466,18.466,0,0,0-1.571,3.681.581.581,0,0,1-.559.4H200.32a3.629,3.629,0,0,0-3.625,3.624v2.4a3.629,3.629,0,0,0,3.625,3.624h.993a.568.568,0,0,1,.553.4,18.438,18.438,0,0,0,1.556,3.8.566.566,0,0,1-.108.667l-.691.692a3.629,3.629,0,0,0,0,5.126l1.693,1.693a3.629,3.629,0,0,0,5.126,0l.692-.692a.567.567,0,0,1,.667-.108,18.438,18.438,0,0,0,3.8,1.557.568.568,0,0,1,.4.552v.994a3.628,3.628,0,0,0,3.624,3.624h2.394a3.628,3.628,0,0,0,3.625-3.624v-1.077a.579.579,0,0,1,.4-.559,18.467,18.467,0,0,0,3.682-1.571.568.568,0,0,1,.678.1l.8.8a3.629,3.629,0,0,0,5.125,0l1.693-1.693a3.629,3.629,0,0,0,0-5.126l-.894-.894a.571.571,0,0,1-.108-.665,18.442,18.442,0,0,0,1.447-3.6.57.57,0,0,1,.55-.4h1.308a3.628,3.628,0,0,0,3.624-3.624v-2.4a3.629,3.629,0,0,0-3.624-3.625Zm.577,6.019a.579.579,0,0,1-.577.578h-1.309a3.626,3.626,0,0,0-3.48,2.617,15.4,15.4,0,0,1-1.208,3,3.594,3.594,0,0,0,.645,4.249l.9.9a.579.579,0,0,1,0,.816l-1.693,1.693a.579.579,0,0,1-.817,0l-.8-.8a3.627,3.627,0,0,0-4.328-.6,15.434,15.434,0,0,1-3.071,1.311,3.646,3.646,0,0,0-2.56,3.475v1.077a.578.578,0,0,1-.577.577h-2.4a.578.578,0,0,1-.577-.577v-.994a3.627,3.627,0,0,0-2.614-3.484,15.38,15.38,0,0,1-3.172-1.3,3.568,3.568,0,0,0-1.712-.435,3.639,3.639,0,0,0-2.572,1.061l-.692.692a.577.577,0,0,1-.815,0l-1.694-1.693a.578.578,0,0,1,0-.816l.692-.692a3.631,3.631,0,0,0,.626-4.284,15.4,15.4,0,0,1-1.3-3.171,3.627,3.627,0,0,0-3.484-2.615h-.994a.578.578,0,0,1-.577-.577v-2.4a.578.578,0,0,1,.577-.577H201.4a3.646,3.646,0,0,0,3.475-2.56,15.38,15.38,0,0,1,1.312-3.071,3.629,3.629,0,0,0-.6-4.328l-.8-.8a.578.578,0,0,1,0-.817l1.693-1.693a.577.577,0,0,1,.816,0l.9.9a3.593,3.593,0,0,0,4.249.645,15.409,15.409,0,0,1,3-1.208,3.626,3.626,0,0,0,2.618-3.481v-1.308a.578.578,0,0,1,.577-.577h2.4a.578.578,0,0,1,.577.577v1.4a3.592,3.592,0,0,0,2.558,3.463,15.313,15.313,0,0,1,2.909,1.221,3.641,3.641,0,0,0,4.292-.622l1-1a.579.579,0,0,1,.817,0l1.694,1.693a.581.581,0,0,1,0,.817l-1,1a3.64,3.64,0,0,0-.622,4.292,15.4,15.4,0,0,1,1.221,2.909,3.591,3.591,0,0,0,3.463,2.558h1.4a.578.578,0,0,1,.577.577Zm0,0" fill="#4d4d4d"/>
    </g>
  </g>
</svg>
