<svg xmlns="http://www.w3.org/2000/svg" width="98.395" height="72.144" viewBox="0 0 98.395 72.144">
  <g id="Grupo_12638" data-name="Grupo 12638" transform="translate(-165.007 -3887.148)">
    <line id="Línea_324" data-name="Línea 324" y2="68.144" transform="translate(261.402 3889.148)" fill="none" stroke="#a4dbf5" stroke-linecap="round" stroke-miterlimit="10" stroke-width="4"/>
    <g id="Grupo_11539" data-name="Grupo 11539">
      <path id="Trazado_1948" data-name="Trazado 1948" d="M241.784,3897.731H197.448V3893.1h2.317a2.318,2.318,0,1,0,0-4.635H190.5a2.318,2.318,0,1,0,0,4.635h2.317v4.634H167.325a2.317,2.317,0,0,0-2.318,2.317v27.807a2.317,2.317,0,0,0,2.318,2.317h25.489v4.634H190.5a2.318,2.318,0,1,0,0,4.635h9.268a2.318,2.318,0,1,0,0-4.635h-2.317v-4.634h44.336a2.317,2.317,0,0,0,2.317-2.317v-27.807a2.317,2.317,0,0,0-2.317-2.317Zm-72.142,27.806v-23.172h23.172v23.172Zm69.825,0H197.448v-23.172h42.019Zm0,0" fill="#a4dbf5"/>
      <path id="Trazado_1949" data-name="Trazado 1949" d="M185.862,3907h-9.269a2.317,2.317,0,0,0,0,4.634h2.318v6.952a2.317,2.317,0,1,0,4.634,0v-6.952h2.317a2.317,2.317,0,0,0,0-4.634Zm0,0" fill="#a4dbf5"/>
      <path id="Trazado_1950" data-name="Trazado 1950" d="M241.784,3944.075H167.325a2.318,2.318,0,1,0,0,4.635h74.459a2.318,2.318,0,0,0,0-4.635Zm0,0" fill="#a4dbf5"/>
      <path id="Trazado_1951" data-name="Trazado 1951" d="M241.784,3953.344H167.325a2.317,2.317,0,1,0,0,4.634h74.459a2.317,2.317,0,0,0,0-4.634Zm0,0" fill="#a4dbf5"/>
    </g>
  </g>
</svg>
