<svg xmlns="http://www.w3.org/2000/svg" width="102.789" height="112.601" viewBox="0 0 102.789 112.601">
  <g id="Grupo_11545" data-name="Grupo 11545" transform="translate(-190.629 -4385.813)">
    <path id="Trazado_1988" data-name="Trazado 1988" d="M260.3,4496.764H198.182a5.9,5.9,0,0,1-5.9-5.9v-97.5a5.9,5.9,0,0,1,5.9-5.9H260.3a5.9,5.9,0,0,1,5.9,5.9v97.5a5.9,5.9,0,0,1-5.9,5.9Zm0,0" fill="#b3b3b3"/>
    <path id="Trazado_1989" data-name="Trazado 1989" d="M260.3,4387.463H248.661a5.9,5.9,0,0,1,5.9,5.9v97.5a5.9,5.9,0,0,1-5.9,5.9H260.3a5.9,5.9,0,0,0,5.9-5.9v-97.5a5.9,5.9,0,0,0-5.9-5.9Zm0,0" fill="#999"/>
    <rect id="Rect치ngulo_4196" data-name="Rect치ngulo 4196" width="73.927" height="84.503" transform="translate(192.279 4399.957)" fill="#f2f2f2"/>
    <rect id="Rect치ngulo_4197" data-name="Rect치ngulo 4197" width="11.642" height="84.503" transform="translate(254.563 4399.957)" fill="#cdd6df"/>
    <path id="Trazado_1990" data-name="Trazado 1990" d="M281.276,4414.03H239.735a10.493,10.493,0,0,0-10.493,10.492v19.307a10.493,10.493,0,0,0,10.493,10.492h6.126l-3.121,13.973a1.558,1.558,0,0,0,2.589,1.473l16.382-15.446h19.565a10.493,10.493,0,0,0,10.493-10.492v-19.307a10.493,10.493,0,0,0-10.493-10.492Zm0,0" fill="#fed066"/>
    <path id="Trazado_1991" data-name="Trazado 1991" d="M244.79,4459.118l-2.05,9.176a1.558,1.558,0,0,0,2.589,1.473l16.382-15.446H252.46a6.51,6.51,0,0,0-4.463,1.772Zm0,0" fill="#f5b556"/>
    <path id="Trazado_1992" data-name="Trazado 1992" d="M281.276,4414.03H269.442a10.492,10.492,0,0,1,10.493,10.492v19.307a10.492,10.492,0,0,1-10.493,10.492h11.834a10.493,10.493,0,0,0,10.493-10.492v-19.307a10.493,10.493,0,0,0-10.493-10.492Zm0,0" fill="#f5b556"/>
    <path id="Trazado_1993" data-name="Trazado 1993" d="M277.467,4422.275H243.544a1.65,1.65,0,1,0,0,3.3h33.923a1.65,1.65,0,0,0,0-3.3Zm0,0" fill="#4d4d4d"/>
    <path id="Trazado_1994" data-name="Trazado 1994" d="M277.467,4432.555H243.544a1.649,1.649,0,1,0,0,3.3h33.923a1.649,1.649,0,1,0,0-3.3Zm0,0" fill="#4d4d4d"/>
    <path id="Trazado_1995" data-name="Trazado 1995" d="M277.467,4442.834H243.544a1.649,1.649,0,1,0,0,3.3h33.923a1.649,1.649,0,0,0,0-3.3Zm0,0" fill="#4d4d4d"/>
    <path id="Trazado_1996" data-name="Trazado 1996" d="M281.276,4412.38H239.735a12.156,12.156,0,0,0-12.142,12.142v19.307a12.155,12.155,0,0,0,12.142,12.141H243.8l-2.673,11.965a3.205,3.205,0,0,0,5.33,3.032l15.906-15h18.91a12.155,12.155,0,0,0,12.142-12.141v-19.307a12.155,12.155,0,0,0-12.142-12.142Zm8.844,31.449a8.854,8.854,0,0,1-8.844,8.843H261.71a1.649,1.649,0,0,0-1.132.449l-16.164,15.241,3.057-13.681a1.65,1.65,0,0,0-1.61-2.009h-6.127a8.853,8.853,0,0,1-8.842-8.843v-19.307a8.852,8.852,0,0,1,8.842-8.843h41.542a8.853,8.853,0,0,1,8.844,8.843Zm0,0" fill="#4d4d4d"/>
    <path id="Trazado_1997" data-name="Trazado 1997" d="M266.2,4459.28a1.65,1.65,0,0,0-1.649,1.65v21.88H193.928v-81.2h70.628v5.829a1.65,1.65,0,1,0,3.3,0v-14.069a7.56,7.56,0,0,0-7.551-7.553H198.182a7.561,7.561,0,0,0-7.553,7.553v97.5a7.561,7.561,0,0,0,7.553,7.552H260.3a7.561,7.561,0,0,0,7.552-7.552V4460.93a1.651,1.651,0,0,0-1.651-1.65Zm-68.023-70.168H260.3a4.258,4.258,0,0,1,4.253,4.254v4.941H193.928v-4.941a4.259,4.259,0,0,1,4.254-4.254Zm62.122,106H198.182a4.258,4.258,0,0,1-4.254-4.253v-4.754h70.628v4.754a4.257,4.257,0,0,1-4.252,4.253Zm0,0" fill="#4d4d4d"/>
  </g>
</svg>
