<svg xmlns="http://www.w3.org/2000/svg" width="98.395" height="72.144" viewBox="0 0 98.395 72.144">
  <g id="Grupo_12639" data-name="Grupo 12639" transform="translate(-165.007 -4923.148)">
    <line id="Línea_323" data-name="Línea 323" y2="68.144" transform="translate(261.402 4925.148)" fill="none" stroke="#a4dbf5" stroke-linecap="round" stroke-miterlimit="10" stroke-width="4"/>
    <g id="Grupo_11540" data-name="Grupo 11540">
      <path id="Trazado_1952" data-name="Trazado 1952" d="M167.325,4961.537a2.317,2.317,0,1,0,0,4.635h2.317v6.952a2.317,2.317,0,0,0,2.317,2.317H188.9a33.989,33.989,0,0,0,5.994,13.9h-8.873a2.317,2.317,0,1,0,0,4.634h37.075a2.317,2.317,0,1,0,0-4.634h-8.873a33.871,33.871,0,0,0,2.851-4.634h6.022a6.96,6.96,0,0,0,6.952-6.952v-2.317h11.74a2.317,2.317,0,0,0,2.317-2.317v-46.345a2.317,2.317,0,0,0-2.317-2.317H171.959a2.317,2.317,0,0,0-2.317,2.317v6.952h-2.317a2.317,2.317,0,1,0,0,4.634h2.317V4943h-2.317a2.317,2.317,0,1,0,0,4.634h2.317v4.635h-2.317a2.317,2.317,0,1,0,0,4.634h2.317v4.634Zm33.578,27.807a29.118,29.118,0,0,1-7.935-20.06v-7.747H216.14v7.747a29.13,29.13,0,0,1-7.934,20.06Zm24.506-11.586a2.319,2.319,0,0,1-2.317,2.317h-4.078a33.743,33.743,0,0,0,1.761-10.791v-3.112h2.317a2.319,2.319,0,0,1,2.317,2.317ZM174.276,4956.9h2.317a2.317,2.317,0,1,0,0-4.634h-2.317v-4.635h2.317a2.317,2.317,0,1,0,0-4.634h-2.317v-4.635h2.317a2.317,2.317,0,1,0,0-4.634h-2.317V4929.1h65.191v41.709h-9.423v-2.317a6.96,6.96,0,0,0-6.952-6.952h-2.317v-2.317a2.317,2.317,0,0,0-2.317-2.317H190.651a2.317,2.317,0,0,0-2.317,2.317s.013,11.08.035,11.586H174.276v-4.634h2.317a2.317,2.317,0,1,0,0-4.635h-2.317Zm0,0" fill="#a4dbf5"/>
      <path id="Trazado_1953" data-name="Trazado 1953" d="M203.164,4944.854a2.028,2.028,0,0,1,0,3.244,2.317,2.317,0,0,0,2.781,3.707,6.662,6.662,0,0,0,0-10.659,2.026,2.026,0,0,1,0-3.244,2.318,2.318,0,0,0-2.781-3.708,6.663,6.663,0,0,0,0,10.66Zm0,0" fill="#a4dbf5"/>
      <path id="Trazado_1954" data-name="Trazado 1954" d="M193.9,4944.854a2.028,2.028,0,0,1,0,3.244,2.317,2.317,0,0,0,2.781,3.707,6.662,6.662,0,0,0,0-10.659,2.028,2.028,0,0,1,0-3.244,2.318,2.318,0,0,0-2.781-3.708,6.663,6.663,0,0,0,0,10.66Zm0,0" fill="#a4dbf5"/>
      <path id="Trazado_1955" data-name="Trazado 1955" d="M212.433,4944.854a2.028,2.028,0,0,1,0,3.244,2.317,2.317,0,1,0,2.78,3.707,6.662,6.662,0,0,0,0-10.659,2.028,2.028,0,0,1,0-3.244,2.317,2.317,0,0,0-2.78-3.708,6.663,6.663,0,0,0,0,10.66Zm0,0" fill="#a4dbf5"/>
    </g>
  </g>
</svg>
