<svg xmlns="http://www.w3.org/2000/svg" width="35.176" height="32.779" viewBox="0 0 35.176 32.779">
  <path id="Trazado_7461" data-name="Trazado 7461" d="M262.367,222.393h6.444a1.065,1.065,0,0,1,1.062,1.062v28.477a1.065,1.065,0,0,1-1.062,1.062h-6.444a1.065,1.065,0,0,1-1.062-1.062V223.455a1.065,1.065,0,0,1,1.062-1.062Zm5.244,6.347h-4.044m0-2.8h4.044m0,22.846h-4.044m0-2.8h4.044m3.451-23.591h6.444a1.065,1.065,0,0,1,1.062,1.062v28.477a1.065,1.065,0,0,1-1.062,1.062h-6.444A1.065,1.065,0,0,1,270,251.932V223.455a1.065,1.065,0,0,1,1.062-1.062Zm5.244,6.347h-4.044m0-2.8h4.044m0,22.846h-4.044m0-2.8h4.044m3.8-22.585,6.225-1.667a1.065,1.065,0,0,1,1.3.751L295,249.989a1.066,1.066,0,0,1-.751,1.3l-6.224,1.668a1.066,1.066,0,0,1-1.3-.751L279.354,224.7a1.066,1.066,0,0,1,.751-1.3Zm6.709,4.774-3.907,1.047m-.725-2.706,3.907-1.047M292,247.535l-3.907,1.047m-.725-2.706,3.907-1.047" transform="translate(-260.585 -220.971)" fill="none" stroke="#1a1a1a" stroke-linecap="round" stroke-linejoin="round" stroke-width="1.44"/>
</svg>
