<svg xmlns="http://www.w3.org/2000/svg" width="24" height="19.435" viewBox="0 0 24 19.435">
  <path id="Trazado_1167" data-name="Trazado 1167" d="M3.441,7.537,7.588,8.931a7.744,7.744,0,0,0,4.838.03C16.058,8.06,23.921,6.5,24,6.483l-.293-1.478-.052.011L16.161,3.959a10.756,10.756,0,0,0-2.972.077L3.17,5.98a2.936,2.936,0,0,0-2.036,5.191,2.927,2.927,0,0,0-.015,4.618,2.942,2.942,0,0,0,.929,5.11l7.223,2.31a3.232,3.232,0,0,0,1.453.061L23.4,20.365s-.076-.329-.168-.734a.753.753,0,0,0-.9-.566L10.79,21.708a3.25,3.25,0,0,1-1.453-.061L2.508,19.464a1.436,1.436,0,0,1-.931-1.8,1.443,1.443,0,0,1,1.806-.932c0-.007,4.179,1.328,5.889,1.873a3.232,3.232,0,0,0,1.453.061l12.68-2.9s-.076-.329-.168-.734a.753.753,0,0,0-.9-.566L10.79,17.1a3.267,3.267,0,0,1-1.453-.061l-6.83-2.183a1.436,1.436,0,0,1-.931-1.8,1.442,1.442,0,0,1,1.806-.932s4.235,1.351,5.959,1.9a3.23,3.23,0,0,0,1.452.061l12.68-2.905s-.076-.328-.168-.734a.753.753,0,0,0-.9-.566L10.859,12.519a3.233,3.233,0,0,1-1.453-.061l-6.83-2.183a1.436,1.436,0,0,1,.864-2.738Z" transform="translate(0 -3.891)"/>
</svg>
