<?xml version="1.0" encoding="utf-8"?>
<!-- Generator: Adobe Illustrator 22.1.0, SVG Export Plug-In . SVG Version: 6.00 Build 0)  -->
<svg version="1.1" id="search" xmlns="http://www.w3.org/2000/svg" xmlns:xlink="http://www.w3.org/1999/xlink" x="0px" y="0px"
	 viewBox="0 0 20 20" style="enable-background:new 0 0 20 20;" xml:space="preserve">
<style type="text/css">
	.st0{fill:#00223D;}
</style>
<g id="Grupo_421">
	<path id="Trazado_634" class="st0" d="M9,0c5,0,9,4,9,9c0,1.7-0.5,3.4-1.4,4.8l2.8,2.8c0.8,0.8,0.8,2.1,0,2.8
		c-0.8,0.8-2.1,0.8-2.8,0l0,0l-2.8-2.8C9.6,19.3,4,18,1.4,13.8S0,4,4.2,1.4C5.7,0.5,7.3,0,9,0z M9,16c3.9,0,7-3.1,7-7
		c0-3.9-3.1-7-7-7C5.1,2,2,5.1,2,9C2,12.9,5.1,16,9,16z"/>
</g>
</svg>
