<svg id="Capa_1" data-name="Capa 1" xmlns="http://www.w3.org/2000/svg" viewBox="0 0 65.93 65.93"><defs><style>.cls-1{fill:#d7e9ff;}.cls-2{fill:#2d3c74;}.cls-3{fill:#fdbf00;}.cls-4{fill:#00dec2;}.cls-5{fill:#f13700;}.cls-6{fill:#a3d8f5;}.cls-7{fill:#00cbf3;}.cls-8{fill:#f6c358;}.cls-9{fill:#fcd462;}.cls-10{fill:#2f4859;}</style></defs><path class="cls-1" d="M62.64,65.93H3.29A3.3,3.3,0,0,1,0,62.64V3.29A3.3,3.3,0,0,1,3.29,0H62.64a3.3,3.3,0,0,1,3.29,3.29V62.64A3.3,3.3,0,0,1,62.64,65.93Z"/><path class="cls-2" d="M65.93,3.29A3.3,3.3,0,0,0,62.64,0H3.29A3.3,3.3,0,0,0,0,3.29V16.58H65.93Z"/><path class="cls-3" d="M52.2,7.32a2.63,2.63,0,1,1-2.62-2.63A2.62,2.62,0,0,1,52.2,7.32Z"/><path class="cls-4" d="M60,7.32a2.63,2.63,0,1,1-2.63-2.63A2.62,2.62,0,0,1,60,7.32Z"/><path class="cls-5" d="M44.41,7.32a2.63,2.63,0,1,1-2.63-2.63A2.63,2.63,0,0,1,44.41,7.32Z"/><path class="cls-6" d="M36.1,25.11h0a17.61,17.61,0,0,0-3.1-.28,16.63,16.63,0,0,0-3.1.28h0A16.78,16.78,0,1,0,50,41.58,16.86,16.86,0,0,0,36.1,25.11Z"/><path class="cls-7" d="M46,39.65H40.67a37.58,37.58,0,0,0-1.45-9.41A12.94,12.94,0,0,1,46,39.65Z"/><path class="cls-7" d="M34.5,28.78c1.26,2.4,2.11,6.43,2.31,10.87H29.13c.19-4.44,1-8.47,2.3-10.87A13,13,0,0,1,33,28.69,12.83,12.83,0,0,1,34.5,28.78Z"/><path class="cls-7" d="M26.71,30.24a37.58,37.58,0,0,0-1.45,9.41H19.93A12.94,12.94,0,0,1,26.71,30.24Z"/><path class="cls-7" d="M19.93,43.51h5.33a37.72,37.72,0,0,0,1.45,9.41A12.94,12.94,0,0,1,19.93,43.51Z"/><path class="cls-7" d="M31.43,54.37C30.17,52,29.32,48,29.13,43.51h7.68c-.2,4.44-1.05,8.47-2.3,10.86a13.22,13.22,0,0,1-3.08,0Z"/><path class="cls-7" d="M39.22,52.92a37.72,37.72,0,0,0,1.45-9.41H46A12.94,12.94,0,0,1,39.22,52.92Z"/><path class="cls-8" d="M52,36.41H13.94a1.12,1.12,0,0,0-1.11,1.12V47a1.12,1.12,0,0,0,1.11,1.12H52A1.12,1.12,0,0,0,53.11,47V37.53A1.12,1.12,0,0,0,52,36.41Z"/><path class="cls-9" d="M52,35.08H13.94a1.12,1.12,0,0,0-1.11,1.12v9.43a1.11,1.11,0,0,0,1.11,1.11H52a1.12,1.12,0,0,0,1.12-1.11V36.2A1.12,1.12,0,0,0,52,35.08Z"/><path class="cls-10" d="M22.53,43.62H21.22L19.35,38.2h1.18l1.34,4.1,1.35-4.1H24.4l1.34,4.1,1.35-4.1h1.18L26.4,43.62H25.09l-1.28-3.71Z"/><path class="cls-10" d="M31.68,43.62h-1.3L28.5,38.2h1.19L31,42.3l1.34-4.1h1.19l1.34,4.1,1.35-4.1h1.18l-1.88,5.42h-1.3L33,39.91Z"/><path class="cls-10" d="M40.84,43.62h-1.3L37.66,38.2h1.18l1.35,4.1,1.34-4.1h1.18l1.35,4.1,1.34-4.1h1.18l-1.87,5.42h-1.3l-1.29-3.71Z"/></svg>