<svg id="Resource_link" xmlns="http://www.w3.org/2000/svg" width="37.927" height="41.688" viewBox="0 0 37.927 41.688">
  <path id="Trazado_621" data-name="Trazado 621" d="M51.408,18.043v-7.89a.934.934,0,0,0-.252-.6L42.313.269A.887.887,0,0,0,41.678,0H27.657A4.67,4.67,0,0,0,23,4.7V31.217a4.643,4.643,0,0,0,4.657,4.666H38.731a11.948,11.948,0,1,0,12.677-17.84ZM42.55,3.053,48.485,9.3H44.634A2.1,2.1,0,0,1,42.55,7.206Zm-14.892,31.1a2.912,2.912,0,0,1-2.923-2.931V4.7a2.935,2.935,0,0,1,2.923-2.964H40.815V7.2a3.835,3.835,0,0,0,3.827,3.835h5.04v6.783c-.261-.008-.472-.033-.692-.033a12.126,12.126,0,0,0-7.922,2.988H30.019a.871.871,0,0,0,0,1.742h9.421a13.648,13.648,0,0,0-1.531,2.7h-7.89a.871.871,0,0,0,0,1.742h7.328a11.577,11.577,0,0,0-.334,2.8,11.46,11.46,0,0,0,.855,4.413H27.657Zm21.316,5.814a10.21,10.21,0,1,1,10.21-10.21A10.222,10.222,0,0,1,48.974,39.962Z" transform="translate(-23)" fill="#141c33"/>
  <path id="Trazado_622" data-name="Trazado 622" d="M99.371,203.342h8.8a.871.871,0,1,0,0-1.742h-8.8a.872.872,0,0,0-.871.871A.883.883,0,0,0,99.371,203.342Z" transform="translate(-92.353 -185.185)" fill="#141c33"/>
  <g id="Grupo_409" data-name="Grupo 409" transform="translate(18.69 22.51)">
    <path id="Trazado_623" data-name="Trazado 623" d="M323.728,341.006a.864.864,0,0,0-1.221,1.221l1.156,1.156a2.879,2.879,0,0,1-4.071,4.071l-1.164-1.148a.864.864,0,0,0-1.221,1.221l1.164,1.164a4.62,4.62,0,0,0,6.53-6.538Z" transform="translate(-311.705 -335.515)" fill="#ff6712"/>
    <path id="Trazado_624" data-name="Trazado 624" d="M259.195,279.038l1.156,1.156a.864.864,0,0,0,1.221-1.221l-1.164-1.164a4.62,4.62,0,1,0-6.53,6.538l1.156,1.156a.861.861,0,0,0,.619.252.911.911,0,0,0,.619-.252.855.855,0,0,0,0-1.221l-1.156-1.156a2.887,2.887,0,0,1,4.079-4.087Z" transform="translate(-252.537 -276.462)" fill="#ff6712"/>
    <path id="Trazado_625" data-name="Trazado 625" d="M316.7,341.468a.911.911,0,0,0,.619-.252.855.855,0,0,0,0-1.221l-2.988-2.988a.864.864,0,1,0-1.221,1.221l2.988,2.988A.825.825,0,0,0,316.7,341.468Z" transform="translate(-307.939 -331.841)" fill="#ff6712"/>
  </g>
</svg>
