<?xml version="1.0" encoding="utf-8"?>
<!-- Generator: Adobe Illustrator 22.1.0, SVG Export Plug-In . SVG Version: 6.00 Build 0)  -->
<svg version="1.1" id="Layer_1" xmlns="http://www.w3.org/2000/svg" xmlns:xlink="http://www.w3.org/1999/xlink" x="0px" y="0px"
	 viewBox="0 0 20.3 20.3" style="enable-background:new 0 0 20.3 20.3;" xml:space="preserve">
<style type="text/css">
	.st0{fill:#00223D;}
</style>
<path id="enchufar" class="st0" d="M17.6,11.1h1.9c0.5,0,0.9-0.4,0.9-0.9V4.6c0-0.5-0.4-0.9-0.9-0.9h-4.7v-1C14.8,1.2,13.5,0,12,0
	S9.3,1.2,9.3,2.8v0.9H4.6c-0.5,0-0.9,0.4-0.9,0.9l0,0v4.7h-1C1.2,9.3,0,10.5,0,12s1.2,2.8,2.8,2.8c0,0,0,0,0,0h0.9v4.7
	c0,0.5,0.4,0.9,0.9,0.9h5.6c0.5,0,0.9-0.4,0.9-0.9v-1.9c0-0.5,0.4-0.9,0.9-0.9S13,17,13,17.6v1.9c0,0.5,0.4,0.9,0.9,0.9h5.6
	c0.5,0,0.9-0.4,0.9-0.9v-5.6c0-0.5-0.4-0.9-0.9-0.9h-1.9c-0.5,0-0.9-0.4-0.9-0.9S17,11.1,17.6,11.1L17.6,11.1z M14.8,12
	c0,1.5,1.2,2.8,2.8,2.8h0.9v3.8h-3.8v-0.9c0-1.5-1.2-2.8-2.8-2.8c-1.5,0-2.8,1.2-2.8,2.8c0,0,0,0,0,0v0.9H5.5v-4.7
	c0-0.5-0.4-0.9-0.9-0.9H2.8c-0.5,0-0.9-0.4-0.9-0.9s0.4-0.9,0.9-0.9h1.9c0.5,0,0.9-0.4,0.9-0.9V5.5h4.7c0.5,0,0.9-0.4,0.9-0.9V2.8
	c0-0.5,0.4-0.9,0.9-0.9S13,2.2,13,2.8v1.9c0,0.5,0.4,0.9,0.9,0.9h4.7v3.8h-0.9C16.1,9.3,14.8,10.5,14.8,12z"/>
</svg>
