<?xml version="1.0" encoding="utf-8"?>
<!-- Generator: Adobe Illustrator 22.1.0, SVG Export Plug-In . SVG Version: 6.00 Build 0)  -->
<svg version="1.1" id="Layer_1" xmlns="http://www.w3.org/2000/svg" xmlns:xlink="http://www.w3.org/1999/xlink" x="0px" y="0px"
	 viewBox="0 0 492 492" style="enable-background:new 0 0 492 492;" xml:space="preserve">
<style type="text/css">
	.st0{fill:#00223D;}
</style>
<g>
	<g>
		<path class="st0" d="M300.2,246l184-184c5.1-5.1,7.9-11.8,7.9-19c0-7.2-2.8-14-7.9-19L468,7.9C463,2.8,456.2,0,449,0
			c-7.2,0-14,2.8-19,7.9L246,191.8L62,7.9C57,2.8,50.2,0,43,0c-7.2,0-14,2.8-19,7.9L7.9,24C-2.6,34.5-2.6,51.6,7.9,62l184,184
			L7.9,430C2.8,435,0,441.8,0,449s2.8,14,7.9,19L24,484.1c5.1,5.1,11.8,7.9,19,7.9c7.2,0,14-2.8,19-7.9l184-184l184,184
			c5.1,5.1,11.8,7.9,19,7.9h0c7.2,0,14-2.8,19-7.9l16.1-16.1c5.1-5.1,7.9-11.8,7.9-19s-2.8-14-7.9-19L300.2,246z"/>
	</g>
</g>
</svg>
