<svg xmlns="http://www.w3.org/2000/svg" width="2400" height="1847.522" viewBox="0 0 2400 1847.522">
  <g id="Grupo_1" data-name="Grupo 1" transform="translate(3 -1.239)">
    <path id="Trazado_1" data-name="Trazado 1" d="M1924.465,1807.053a.958.958,0,0,0,.13-.228c0-.008.01-.015.014-.024L1997,1740.779l72.391,66.022c0,.009.01.016.014.024a.962.962,0,0,0,.13.228l9.145,41.708h2.046l-8.666-39.524,43.337,39.524h2.969l-45.982-41.938,214.394-68.149-23.964,109.309-2.449.778h4.786l-.384-.351,24.212-110.435,106.647-33.9-31.721,144.688h2.047L2397,1707.144V1701.5h-.013a.9.9,0,0,0-.127,0l-93.377-29.682,20.982-95.7a1.007,1.007,0,0,0,.131-.229.183.183,0,0,1,.013-.022L2397,1509.838v-2.707l-47.845-43.637L2397,1245.263v-5.648a.769.769,0,0,0-.144,0l-93.373-29.681,20.982-95.7a.981.981,0,0,0,.13-.228c0-.009.011-.017.015-.025l72.39-66.023v-2.707l-47.845-43.636L2397,783.383v-5.649a1.021,1.021,0,0,0-.146,0l-93.371-29.68,20.982-95.7a1.022,1.022,0,0,0,.131-.228c0-.009.01-.016.013-.025L2397,586.077V583.37l-47.845-43.636L2397,321.5v-5.649a.88.88,0,0,0-.145,0l-93.372-29.68,20.982-95.7a1.007,1.007,0,0,0,.131-.229c0-.008.01-.015.013-.024L2397,124.2V121.49l-47.845-43.636,16.8-76.615h-2.047L2347.449,76.3l-82.3-75.059h-4.784l-105.3,33.473-36.7-33.473H2115.4l37.468,34.172L2092.43,54.622l-11.7-53.383h-2.046l11.837,53.991-93.371,29.68a1.125,1.125,0,0,0-.142,0,1.079,1.079,0,0,0-.15,0l-93.371-29.68L1915.32,1.239h-2.046l-11.7,53.383-60.435-19.211L1878.6,1.239h-2.968l-36.7,33.473-105.3-33.473h-4.784l-82.3,75.059L1630.095,1.239h-2.047l16.8,76.615L1597,121.49l-47.845-43.636,16.8-76.615h-2.047L1547.449,76.3l-82.3-75.059h-4.784l-105.3,33.473-36.7-33.473H1315.4l37.468,34.172L1292.43,54.622l-11.7-53.383h-2.046l11.837,53.991-93.372,29.68a1.113,1.113,0,0,0-.141,0,1.09,1.09,0,0,0-.151,0l-93.37-29.68L1115.32,1.239h-2.046l-11.7,53.383-60.435-19.211L1078.6,1.239h-2.967l-36.7,33.473L933.633,1.239h-4.784L846.551,76.3,830.095,1.239h-2.048l16.8,76.615L797,121.49,749.156,77.854l16.8-76.615h-2.048L747.449,76.3,665.15,1.239h-4.782l-105.3,33.473-36.7-33.473H515.4l37.468,34.172L492.43,54.622l-11.7-53.383h-2.048l11.838,53.992-93.372,29.68a5.189,5.189,0,0,1-.288,0l-93.372-29.68L315.322,1.239h-2.048l-11.7,53.383L241.134,35.411,278.6,1.239h-2.967l-36.7,33.473L133.632,1.239H128.85L46.551,76.3,30.095,1.239H28.047l16.8,76.615L-3,121.49V124.2L69.391,190.22c0,.008.01.015.014.023a.954.954,0,0,0,.129.227l20.982,95.7L-2.86,315.852a1.322,1.322,0,0,0-.14,0v5.653L44.844,539.735-3,583.37v2.707L69.391,652.1c0,.009.01.015.014.023a.98.98,0,0,0,.129.228l20.982,95.7-93.371,29.68a1.009,1.009,0,0,0-.145,0v5.654l47.844,218.227L-3,1045.25v2.707l72.391,66.024c0,.008.01.015.014.023a.951.951,0,0,0,.13.228l20.981,95.7-93.377,29.681a1.292,1.292,0,0,0-.139,0v5.653l47.844,218.227L-3,1507.131v2.707l72.392,66.024c0,.007.009.014.013.022a.985.985,0,0,0,.129.228l20.982,95.7-93.377,29.681a1.081,1.081,0,0,0-.139,0v5.653l31.047,141.612h2.048L-1.627,1704.073l106.648,33.9,24.212,110.436-.384.351h4.787l-2.449-.778-23.965-109.309,214.394,68.15-45.982,41.937H278.6l43.337-39.524-8.666,39.524h2.047l9.144-41.708a1.027,1.027,0,0,0,.13-.229.205.205,0,0,0,.013-.022L397,1740.779l72.392,66.023a.205.205,0,0,0,.013.022,1.027,1.027,0,0,0,.13.229l9.144,41.708h2.047l-8.666-39.524,43.337,39.524h2.969l-45.982-41.937,214.394-68.15-23.965,109.309-2.449.778h4.787l-.384-.351,24.212-110.436,106.648-33.9-31.722,144.688h2.048L797,1707.149l31.047,141.612h2.048l-31.722-144.688,106.648,33.9,24.212,110.436-.384.351h4.786l-2.449-.778-23.964-109.309,214.394,68.149-45.982,41.938h2.968l43.336-39.524-8.665,39.524h2.047l9.145-41.708a.958.958,0,0,0,.13-.228c0-.008.01-.015.014-.024L1197,1740.779l72.391,66.022a.184.184,0,0,0,.014.024.958.958,0,0,0,.13.228l9.145,41.708h2.047l-8.666-39.524,43.336,39.524h2.969l-45.982-41.938,214.394-68.149-23.964,109.309-2.449.778h4.786l-.384-.351,24.211-110.435,106.648-33.9-31.721,144.688h2.047L1597,1707.144l31.048,141.617h2.047l-31.721-144.688,106.648,33.9,24.211,110.435-.384.351h4.786l-2.449-.778-23.964-109.309,214.394,68.149-45.982,41.938h2.969l43.337-39.524-8.666,39.524h2.046Zm.774-3.533,23.421-106.828,46.856,42.733ZM301.57,1440.264l-60.436-19.211,80.806-73.7Zm1.484,2.57,90.645,28.814-104.225,33.13Zm0-923.761L393.7,547.886,289.474,581.017ZM301.57,516.5l-60.436-19.211,80.806-73.7Zm94.056,32.87L347.449,769.118l-82.682-75.409,24.212-110.436Zm291.152-196.34-23.965,109.31-107.747,34.25-82.682-75.409ZM474.359,418.456,639.428,267.907l61.712,19.617-13.868,63.253Zm647.257,2.727-82.682,75.409-107.747-34.25-23.965-109.31ZM906.727,350.777,892.86,287.524l61.712-19.616,165.069,150.548Zm580.05,2.255-23.964,109.31-107.747,34.25-82.682-75.409Zm-212.418,65.424,165.069-150.549,61.712,19.617-13.868,63.253Zm647.257,2.727-82.682,75.409-107.746-34.25-23.965-109.31Zm-214.888-70.406-13.868-63.253,61.712-19.617,165.069,150.549Zm397.8,230.24L2000.3,547.886l90.645-28.814ZM2072.06,423.6l80.8,73.7L2092.43,516.5Zm32.962,159.678,24.211,110.436-82.682,75.409-48.177-219.746Zm-32.962,764.083,80.8,73.7-60.435,19.21Zm32.467,157.422-104.226-33.13,90.645-28.815ZM397,817.017l72.391,66.023c0,.009.01.015.014.024a.95.95,0,0,0,.13.228l20.981,95.7-93.374,29.681a3.373,3.373,0,0,1-.284,0l-93.374-29.681,20.981-95.7a.95.95,0,0,0,.13-.228c0-.009.011-.015.014-.024Zm-71.76,62.741L348.661,772.93l46.855,42.734ZM721.616,652.123l-82.682,75.409-107.747-34.25-23.965-109.31ZM506.727,581.717,492.86,518.464l61.712-19.616L719.641,649.4Zm-2.2,461.181L400.3,1009.767l90.645-28.814ZM472.06,885.475l80.8,73.7L492.43,978.383Zm20.8,94.87,61.711-19.617L719.64,1111.277,506.727,1043.6Zm-20.476-97.282,214.394-68.15L662.813,924.222l-107.747,34.25Zm1.975-2.726L639.428,729.788l61.712,19.617-13.868,63.252Zm214.62-66.124,106.647-33.9-48.177,219.746L664.767,924.65Zm.495-2.256,13.58-61.944L793.7,778.827Zm12.1-64.514-60.436-19.211,80.805-73.7Zm-64.343-18.354L471.01,880.684l-23.965-109.31,83.534-76.186ZM468.76,879.758l-70.276-64.094,46.855-42.734Zm36.261,165.4,24.212,110.435L446.55,1231l-48.176-219.745Zm2.2.7L721.616,1114l-82.682,75.409-107.747-34.25Zm132.207,145.815,61.711,19.617-13.868,63.252-212.912,67.68Zm63.625,20.226,90.645,28.813-104.225,33.131Zm-1.484-2.571-60.435-19.21,80.8-73.7Zm-144.8-249.294,106.647-33.9,83.535,76.187L722.99,1111.624Zm191.888,43.842,46.855,42.733L725.24,1110.7Zm.495-2.256L797,783.388l47.845,218.226L797,1045.25Zm337.621-417.643-23.965,109.31-107.746,34.25-82.682-75.409ZM874.359,649.4l165.069-150.548,61.712,19.616-13.868,63.253Zm248.63,231.288-166.217-151.6,106.649-33.9,83.533,76.186ZM1148.66,772.93l46.856,42.734-70.277,64.095Zm-27.044,110.133-82.682,75.409-107.747-34.25L907.222,814.913ZM906.727,812.657,892.86,749.405l61.712-19.617,165.069,150.548Zm132.7,148.071,61.711,19.617-13.868,63.252-212.912,67.68Zm63.625,20.225,90.645,28.814L1089.473,1042.9Zm-1.484-2.57-60.435-19.211,80.8-73.7Zm-148.7-250.151L892.43,747.443l-20.37-92.908Zm-48.338,83.725L800.3,778.827l90.645-28.814Zm.494,2.256,24.212,110.436-82.682,75.41L798.373,780.313ZM845.339,1003.87,868.76,1110.7,798.484,1046.6Zm1.706-1.555,83.535-76.187,106.647,33.9-166.217,151.6Zm57.482,271.523L800.3,1240.707l90.645-28.813ZM872.06,1116.416l80.8,73.7-60.435,19.21Zm20.8,94.869,61.711-19.617,165.069,150.549-212.913-67.68ZM872.384,1114l214.394-68.15-23.966,109.309-107.746,34.25Zm216.594-68.849,106.648-33.9L1147.449,1231l-82.682-75.41Zm14.505-66.163,20.982-95.7a1,1,0,0,0,.131-.229.189.189,0,0,1,.014-.024L1197,817.017l72.39,66.023a.189.189,0,0,1,.014.024,1,1,0,0,0,.131.229l20.982,95.7-93.375,29.682a.992.992,0,0,0-.122,0,1.011,1.011,0,0,0-.165,0Zm418.133-326.868-82.682,75.409-107.747-34.25-23.965-109.31Zm-214.889-70.406-13.867-63.253,61.712-19.616L1519.641,649.4Zm-2.2,461.181L1200.3,1009.767l90.645-28.814ZM1272.06,885.476l80.8,73.7-60.435,19.211Zm20.8,94.869,61.711-19.617,165.069,150.549-212.913-67.68Zm-20.476-97.282,214.393-68.15-23.964,109.309-107.747,34.25Zm1.975-2.727,165.069-150.548,61.712,19.617-13.868,63.252Zm214.619-66.123,106.648-33.9-48.177,219.746-82.682-75.41Zm.495-2.256,13.581-61.944,90.645,28.814Zm12.1-64.514-60.435-19.211,80.8-73.7Zm-64.342-18.354-166.217,151.6-23.965-109.31,83.533-76.186Zm-168.467,150.67-70.277-64.095,46.856-42.734Zm36.26,165.4,24.212,110.434L1246.551,1231l-48.177-219.745Zm2.2.7L1521.616,1114l-82.682,75.409-107.747-34.25Zm132.207,145.815,61.711,19.617-13.868,63.252-212.912,67.68Zm63.625,20.226,90.645,28.813-104.226,33.131Zm-1.484-2.571-60.435-19.21,80.8-73.7Zm-144.8-249.294,106.648-33.9,83.535,76.187-23.966,109.309Zm191.888,43.841,46.856,42.734-70.277,64.094Zm.495-2.256L1597,783.383l47.845,218.231L1597,1045.25Zm337.622-417.642-23.964,109.31-107.747,34.25-82.682-75.409ZM1674.359,649.4l165.069-150.548,61.712,19.616-13.868,63.253ZM2069.39,883.04a.19.19,0,0,1,.014.024,1.009,1.009,0,0,0,.131.229l20.982,95.7-93.376,29.682a.96.96,0,0,0-.12,0,1.025,1.025,0,0,0-.166,0l-93.372-29.68,20.982-95.7a1,1,0,0,0,.131-.229.189.189,0,0,1,.014-.024L1997,817.017Zm-70.906-67.376,46.856-42.734,23.421,106.829Zm-76.868,67.4-82.682,75.409-107.746-34.25-23.965-109.309Zm-214.888-70.406-13.868-63.252,61.712-19.617,165.069,150.548ZM1901.57,978.383l-60.435-19.211,80.8-73.7Zm1.484,2.57,90.645,28.814L1889.473,1042.9Zm-63.625-20.225,61.711,19.617-13.868,63.252-212.912,67.68Zm47.348,85.125-23.964,109.309-107.747,34.25L1672.384,1114Zm2.2-.7,106.647-33.9L1947.449,1231l-82.682-75.41Zm36.26-165.4L1948.66,772.93l46.856,42.734Zm-2.25.925-166.217-151.6,106.649-33.9,83.534,76.186ZM1752.865,728.232l-60.435,19.211-20.37-92.908Zm-48.338,83.725L1600.3,778.827l90.645-28.814Zm.495,2.256,24.211,110.436-82.682,75.41-48.177-219.746ZM1645.34,1003.87l23.421,106.828-70.277-64.094Zm1.705-1.555,83.535-76.187,106.648,33.9-166.217,151.6Zm105.82,187.8-60.435,19.21-20.37-92.907Zm-48.338,83.725L1600.3,1240.707l90.645-28.813Zm-11.667-62.553,61.711-19.617,165.069,150.549-212.912-67.68Zm63.912-20.316,106.648-33.9,83.535,76.185-23.966,109.311Zm191.888,43.842,46.856,42.733-70.277,64.094Zm.495-2.257L1997,1014.322l47.845,218.232L1997,1276.19Zm96.185,2.257,23.421,106.827-70.277-64.094Zm1.705-1.557,83.535-76.185,106.648,33.9-166.217,151.6Zm-.494-2.256-48.177-219.745,106.648,33.9,24.211,110.434Zm-46.25-221.231,90.645-28.814,13.581,61.945Zm71.759-124.291,80.8,73.7-60.435,19.211Zm-1.049-4.792-23.966-109.31,83.534-76.186,106.649,33.9Zm-26.166-110.01L1997,814.31l-47.845-43.636L1997,552.443Zm-97.4-1.556-82.682-75.409,24.212-110.436,106.647-33.9Zm-57.976-188.1,13.581-61.945,90.645,28.814Zm12.1-64.515-60.435-19.211,80.8-73.7Zm-64.342-18.354L1671.011,649.743l-23.966-109.309,83.535-76.186ZM1668.761,648.819l-70.277-64.095,46.856-42.735Zm.63,3.28c0,.009.01.016.013.025a1.018,1.018,0,0,0,.131.228l20.982,95.7-93.37,29.68a1.031,1.031,0,0,0-.147,0,1.02,1.02,0,0,0-.146,0l-93.371-29.68,20.982-95.7a1.018,1.018,0,0,0,.131-.228c0-.009.01-.016.013-.025L1597,586.077Zm-144.152-3.28,23.421-106.83,46.856,42.735Zm-2.25.924L1356.772,498.148l106.648-33.9,83.535,76.186ZM1352.865,497.291,1292.43,516.5,1272.06,423.6Zm-48.338,83.726L1200.3,547.886l90.645-28.814Zm.494,2.256,24.212,110.436-82.682,75.409-48.177-219.746Zm-60.176,187.4L1197,814.31l-47.845-43.636L1197,552.443Zm-97.4-1.556-82.682-75.409,24.211-110.436,106.648-33.9Zm-57.976-188.1,13.581-61.945,90.645,28.814Zm12.1-64.515-60.435-19.211,80.8-73.7Zm-64.343-18.354L871.01,649.744l-23.965-109.31,83.535-76.186ZM868.76,648.818l-70.276-64.094,46.855-42.734Zm.631,3.282a.17.17,0,0,0,.014.023.948.948,0,0,0,.13.228l20.981,95.7-93.371,29.68a3.541,3.541,0,0,1-.291,0l-93.37-29.68,20.982-95.7a1.017,1.017,0,0,0,.129-.228c0-.008.01-.014.014-.023L797,586.077ZM725.24,648.818,748.661,541.99l46.855,42.734Zm-2.25.926-166.218-151.6,106.648-33.9,83.535,76.186ZM552.866,497.291,492.43,516.5l-20.37-92.908Zm-48.34,83.726L400.3,547.886l90.645-28.813Zm.495,2.256,24.212,110.436-82.682,75.409L398.374,549.372Zm-60.177,187.4L397,814.31l-47.844-43.635L397,552.447Zm-97.889.7L322.99,880.684l-166.217-151.6,106.648-33.9ZM301.57,978.383l-60.435-19.211,80.805-73.7Zm1.484,2.57,90.645,28.814L289.474,1042.9Zm92.572,30.3L347.45,1231l-82.683-75.409,24.212-110.435Zm-48.671,222-23.965,109.31-166.217-151.6,106.647-33.9Zm1.706,1.556,46.855,42.733-70.276,64.093Zm.495-2.256L397,1014.327l47.844,218.228L397,1276.19Zm96.183,2.256,23.421,106.826-70.276-64.093Zm1.706-1.556,83.535-76.186,106.647,33.9-166.217,151.6Zm57.481,271.523L400.3,1471.648l90.645-28.814ZM472.06,1347.356l80.806,73.7-60.436,19.211Zm20.8,94.87,61.712-19.617L719.64,1573.156l-212.913-67.678Zm-20.475-97.282,214.393-68.151L662.813,1386.1l-107.746,34.249Zm216.593-68.85,106.648-33.9L747.45,1461.939l-82.683-75.409Zm14.506-66.162,20.981-95.7a.986.986,0,0,0,.13-.228c0-.008.01-.015.014-.023L797,1047.957l72.391,66.024c0,.008.01.015.014.023a1.03,1.03,0,0,0,.13.229l20.981,95.7-93.377,29.681c-.045-.005-.093,0-.139,0s-.093-.007-.139,0Zm201.537,66.162,24.212,110.436-82.683,75.409-48.177-219.745Zm2.2.7,214.393,68.151-82.682,75.409L931.187,1386.1Zm132.206,145.816,61.712,19.616-13.868,63.253L874.36,1573.156Zm63.626,20.224,90.645,28.815-104.226,33.13Zm-1.484-2.57-60.435-19.21,80.8-73.7Zm-144.8-249.294,106.648-33.9,83.535,76.185-23.966,109.311Zm191.888,43.842,46.856,42.733-70.277,64.094Zm.495-2.257L1197,1014.322l47.845,218.232L1197,1276.19Zm96.185,2.257,23.421,106.827-70.277-64.094Zm1.705-1.557,83.535-76.185,106.648,33.9-166.217,151.6Zm57.482,271.524-104.226-33.13,90.645-28.815Zm-32.467-157.422,80.8,73.7-60.435,19.211Zm20.8,94.87,61.712-19.617,165.068,150.547-212.913-67.679Zm-20.475-97.282,214.392-68.151L1462.813,1386.1l-107.746,34.249Zm216.593-68.85,106.648-33.9-48.177,219.745-82.682-75.409Zm14.505-66.162,20.982-95.7a.977.977,0,0,0,.13-.228c0-.009.011-.017.015-.025l72.39-66.023,72.39,66.023c0,.008.011.016.015.025a.977.977,0,0,0,.13.228l20.982,95.7-93.376,29.681a1.081,1.081,0,0,0-.127,0,.926.926,0,0,0-.158,0Zm201.539,66.162,24.211,110.436-82.682,75.409-48.177-219.745Zm2.2.7,214.392,68.151-82.681,75.409L1731.188,1386.1Zm214.717,70.563-20.37,92.907-60.435-19.21Zm-82.512,75.253,61.712,19.616-13.868,63.252-212.912,67.679Zm63.626,20.224,90.645,28.815-104.226,33.13Zm.429-1.962,20.982-95.7a.979.979,0,0,0,.13-.228c0-.01.012-.017.015-.027L1997,1278.9l72.39,66.021c0,.01.011.017.015.027a.983.983,0,0,0,.13.228l20.982,95.7-93.374,29.682a.863.863,0,0,0-.143,0,.985.985,0,0,0-.143,0Zm201.539,66.162,24.211,110.436-82.682,75.41-48.177-219.746Zm2.2.7,214.394,68.149-82.682,75.41-107.746-34.25Zm-.494-2.257-13.868-63.252,61.712-19.616,165.068,150.547Zm-34.343-160.533,214.392-68.151L2262.813,1386.1l-107.747,34.249Zm1.975-2.727,165.069-150.549,61.711,19.617-13.868,63.252Zm164.574-152.805-107.746-34.25-23.965-109.309L2321.616,1114ZM2106.728,1043.6l-13.868-63.252,61.711-19.617,165.069,150.549Zm-34.344-160.534,214.393-68.15-23.964,109.309-107.747,34.25Zm1.975-2.727,165.069-150.548,61.712,19.617-13.868,63.252Zm164.575-152.8-107.746-34.25-23.965-109.31,214.393,68.151ZM2106.728,581.717l-13.868-63.253,61.712-19.616L2319.641,649.4Zm-34.344-160.534,214.393-68.151-23.964,109.31-107.747,34.25Zm1.975-2.727,165.069-150.549,61.712,19.617-13.868,63.253Zm164.575-152.8L2131.188,231.4l-23.965-109.31,214.393,68.15Zm-1.706,1.556L2071.011,418.8l-23.966-109.31,83.534-76.185Zm-168.467,150.67-70.277-64.1,46.856-42.734Zm.629,3.28c0,.009.01.017.014.026a1.022,1.022,0,0,0,.131.228l20.982,95.7-93.37,29.679a1.043,1.043,0,0,0-.147,0,1.032,1.032,0,0,0-.146,0l-93.371-29.679,20.982-95.7a1.017,1.017,0,0,0,.131-.228c0-.009.011-.017.014-.026L1997,355.136Zm-144.151-3.28,23.421-106.829,46.856,42.734Zm-2.25.925-166.217-151.6,106.649-33.9,83.534,76.185Zm-60.176-187.4-107.747,34.25-82.682-75.41,214.393-68.15Zm-109.948,34.949-60.435,19.211-20.37-92.907Zm-48.338,83.726L1600.3,316.946l90.645-28.813Zm.495,2.256,24.211,110.436-82.682,75.409-48.177-219.746Zm-60.177,187.4L1597,583.37l-47.845-43.636L1597,321.5Zm-97.4-1.556-82.682-75.409,24.211-110.436,106.648-33.9Zm-57.976-188.1,13.581-61.944,90.645,28.813Zm12.1-64.515-60.435-19.211,80.8-73.7Zm-62.636-19.91L1331.187,231.4l-23.965-109.31,214.394,68.15Zm-1.706,1.556L1271.011,418.8l-23.965-109.31,83.533-76.185Zm-168.467,150.67-70.278-64.1,46.857-42.734Zm.629,3.28c0,.009.01.017.014.026a1.017,1.017,0,0,0,.131.228l20.982,95.7-93.37,29.679a1.043,1.043,0,0,0-.147,0,1.054,1.054,0,0,0-.148,0l-93.369-29.679,20.982-95.7a1.017,1.017,0,0,0,.131-.228c0-.009.011-.017.014-.026L1197,355.136Zm-144.151-3.28,23.421-106.829,46.857,42.734Zm-2.25.925-166.217-151.6,106.649-33.9,83.533,76.185Zm-60.177-187.4-107.746,34.25-82.682-75.41,214.393-68.15ZM952.865,266.351,892.43,285.562l-20.37-92.907Zm-48.338,83.726L800.3,316.946l90.645-28.813Zm.494,2.256,24.212,110.436-82.682,75.409L798.373,318.432Zm-60.177,187.4L797,583.37l-47.844-43.635L797,321.507Zm-97.4-1.557-82.682-75.409,24.212-110.436,106.647-33.9Zm-57.975-188.1,13.58-61.944L793.7,316.946Zm12.1-64.515-60.436-19.211,80.805-73.7Zm-62.636-19.91L531.187,231.4l-23.965-109.31,214.394,68.15Zm-1.707,1.556L471.01,418.8,447.045,309.493l83.534-76.185ZM468.76,417.877l-70.276-64.094,46.855-42.733Zm.631,3.282a.193.193,0,0,0,.014.024.982.982,0,0,0,.129.228l20.982,95.7-93.371,29.68a3.516,3.516,0,0,1-.29,0l-93.371-29.68,20.982-95.7a.982.982,0,0,0,.129-.228.193.193,0,0,0,.014-.024L397,355.136ZM325.24,417.877,348.661,311.05l46.855,42.733Zm-2.25.927-166.217-151.6,106.648-33.9,83.534,76.185ZM262.813,231.4l-107.747,34.25-82.682-75.41,214.394-68.15Zm56.828,187.054L106.727,350.777,92.86,287.524l61.712-19.616Zm1.975,2.727-82.682,75.409-107.747-34.25-23.965-109.31Zm-82.188,77.665,61.712,19.616-13.867,63.253L74.359,649.4Zm47.35,85.124-23.965,109.31-107.747,34.25L72.384,652.123Zm32.863,296.365-212.914-67.68L92.86,749.405l61.712-19.617Zm1.975,2.726-82.682,75.409-107.747-34.25L107.222,814.913Zm-82.187,77.665,61.711,19.617L287.273,1043.6,74.36,1111.277Zm47.349,85.125-23.965,109.309-107.747,34.25L72.384,1114Zm32.862,296.364-212.913-67.68L92.86,1211.285l61.711-19.617Zm1.975,2.727-82.682,75.409L131.187,1386.1l-23.965-109.311Zm-82.187,77.665,61.712,19.617-13.867,63.252L74.36,1573.156Zm47.35,85.125-23.965,109.309-107.746,34.25-82.683-75.41Zm2.2-.7,106.648-33.9-48.178,219.746-82.682-75.409Zm14.505-66.161,20.981-95.7a.957.957,0,0,0,.13-.227c0-.009.011-.016.015-.025L397,1278.9l72.39,66.022c0,.009.011.016.015.025a.957.957,0,0,0,.13.227l20.981,95.7-93.378,29.682a4.59,4.59,0,0,1-.276,0Zm201.537,66.161,24.212,110.437-82.682,75.409-48.178-219.746Zm2.2.7,214.394,68.149-82.683,75.41-107.746-34.25ZM721.939,1578.3,701.57,1671.2l-60.435-19.211ZM556.773,1421.909l106.647-33.9,83.535,76.187L722.99,1573.5Zm191.888,43.842,46.855,42.734-70.276,64.093Zm.495-2.256L797,1245.268l47.844,218.226L797,1507.131Zm96.183,2.256,23.421,106.827-70.276-64.093Zm1.706-1.555,83.535-76.187,106.647,33.9L871.01,1573.5Zm25.339,111.687,214.394-68.149-23.966,109.309-107.745,34.25Zm80.481,76.109L892.43,1671.2,872.06,1578.3Zm136.113-144.959,106.648-33.9-48.177,219.746-82.682-75.41Zm14.505-66.162,20.982-95.7a.979.979,0,0,0,.13-.228c0-.01.012-.017.015-.027L1197,1278.9l72.39,66.021c0,.01.011.017.015.027a.979.979,0,0,0,.13.228l20.982,95.7-93.373,29.682a.875.875,0,0,0-.144,0,.985.985,0,0,0-.143,0Zm201.538,66.162,24.212,110.436-82.682,75.41-48.177-219.746Zm2.2.7,214.394,68.149-82.682,75.41-107.747-34.25ZM1521.94,1578.3l-20.37,92.907-60.435-19.211Zm-165.167-156.387,106.647-33.9,83.535,76.187L1522.99,1573.5Zm191.887,43.842,46.856,42.734-70.277,64.093Zm.495-2.257L1597,1245.263l47.845,218.231L1597,1507.131Zm96.185,2.257,23.421,106.827-70.277-64.093Zm1.705-1.555,83.535-76.187,106.647,33.9L1671.01,1573.5Zm25.339,111.687,214.394-68.149-23.965,109.309-107.747,34.25Zm80.481,76.109L1692.43,1671.2l-20.37-92.907Zm136.114-144.959,106.647-33.9-48.177,219.746-82.682-75.41Zm60.176,187.4L1997,1476.2l47.845,218.232L1997,1738.071Zm49.329,44.99,46.856-42.733,23.421,106.828Zm72.527,65.02-23.966-109.31,83.535-76.186,106.647,33.9Zm216.261-68.027L2074.36,1804.1l165.068-150.548,61.712,19.617Zm106.427-33.83-104.226,33.13,13.581-61.944ZM2301.57,1671.2l-60.435-19.211,80.8-73.7Zm21.42-97.7-166.217-151.595,106.647-33.9,83.535,76.187Zm72.526-65.019-70.277,64.093,23.421-106.827Zm-48.067-46.546-82.682-75.409,24.212-110.436,106.647-33.9Zm46.25-221.232-104.226,33.131,13.581-61.944Zm-92.129-31.384-60.435-19.21,80.8-73.7Zm21.419-97.7-166.217-151.6,106.648-33.9,83.535,76.187Zm72.527-65.02-70.277,64.094,23.421-106.828Zm-48.067-46.545-82.682-75.41,24.212-110.436,106.647-33.9Zm46.25-221.232-104.226,33.13,13.581-61.944Zm-92.129-31.384-60.435-19.211,80.8-73.7Zm21.419-97.7L2156.772,498.148l106.648-33.9,83.535,76.186Zm72.527-65.019-70.277,64.095,23.421-106.83Zm-48.067-46.546-82.682-75.409,24.212-110.436,106.647-33.9Zm46.25-221.232-104.226,33.131,13.581-61.944Zm-92.129-31.384-60.435-19.211,80.8-73.7Zm47.09-205.453,46.856,42.734-70.277,64.1ZM2263.42,2.367l83.534,76.186-23.965,109.31-166.217-151.6Zm-108.848,34.6,165.069,150.548-212.913-67.679L2092.86,56.584Zm-63.626,20.225,13.581,61.944L2000.3,86.006Zm14.076,64.2,24.211,110.436-82.682,75.41L1998.374,87.492ZM1997,90.563l47.845,218.231L1997,352.43l-47.845-43.636Zm-49.551,216.675-82.682-75.41,24.212-110.436,106.647-33.9Zm-44.4-250.046L1993.7,86.006l-104.226,33.13Zm-63.626-20.225,61.712,19.617-13.868,63.252-212.913,67.679ZM1730.58,2.367l106.648,33.9-166.217,151.6-23.965-109.31Zm-85.24,77.742,23.421,106.829-70.277-64.1Zm24.051,110.11c0,.009.01.016.013.024a1,1,0,0,0,.131.229l20.982,95.7-93.372,29.68a.977.977,0,0,0-.143,0,.9.9,0,0,0-.147,0l-93.372-29.68,20.982-95.7a1,1,0,0,0,.131-.229c0-.008.01-.015.013-.024L1597,124.2ZM1548.66,80.109l46.856,42.734-70.277,64.1ZM1463.42,2.367l83.534,76.186-23.965,109.31-166.217-151.6Zm-108.848,34.6,165.069,150.548-212.914-67.679L1292.86,56.584Zm-63.626,20.225,13.581,61.944L1200.3,86.006Zm14.075,64.2,24.212,110.436-82.682,75.41L1198.374,87.492ZM1197,90.563l47.845,218.231L1197,352.43l-47.845-43.636Zm-49.551,216.675-82.682-75.41,24.211-110.435,106.648-33.9Zm-44.4-250.046L1193.7,86.006l-104.226,33.131Zm-63.626-20.225,61.712,19.617-13.868,63.252-212.913,67.68ZM930.58,2.367l106.647,33.9L871.01,187.863,847.045,78.553ZM845.339,80.11,868.76,186.938l-70.276-64.1Zm24.052,110.11c0,.008.01.015.014.023a.948.948,0,0,0,.13.228l20.981,95.7L797.14,315.852a4.868,4.868,0,0,1-.28,0l-93.376-29.681,20.982-95.7a.989.989,0,0,0,.129-.227c0-.008.01-.015.014-.023L797,124.2ZM748.661,80.11l46.855,42.733L725.24,186.937ZM663.42,2.367l83.535,76.186L722.99,187.863,556.772,36.268Zm-108.848,34.6L719.641,187.516l-212.914-67.68L492.86,56.584ZM490.946,57.193l13.58,61.943L400.3,86.006Zm14.075,64.2,24.212,110.437-82.682,75.409L398.374,87.492ZM397,90.567l47.844,218.227L397,352.43l-47.844-43.636ZM347.449,307.238l-82.682-75.409,24.212-110.437,106.647-33.9Zm-44.4-250.045L393.7,86.006l-104.225,33.13ZM239.428,36.967,301.14,56.584l-13.867,63.252L74.359,187.516ZM-1.516,122.843,45.339,80.11,68.76,186.937Zm48.561-44.29L130.58,2.367l106.647,33.9L71.01,187.863Zm25.015,114.1,80.806,73.7L92.43,285.562Zm18.886,95.478,13.58,61.944L.3,316.946Zm-92.573,30.3,106.648,33.9,24.212,110.436L46.551,538.178Zm.111,266.292L45.339,541.99,68.76,648.818Zm48.561-44.29,83.535-76.186,106.647,33.9L71.01,649.744Zm25.015,114.1,80.806,73.7L92.43,747.443Zm18.886,95.478,13.58,61.944L.3,778.827Zm-92.573,30.3,106.648,33.9L129.233,924.65l-82.682,75.409Zm.111,266.291,46.855-42.733L68.76,1110.7Zm48.561-44.289,83.535-76.187,106.647,33.9L71.01,1111.624Zm25.015,114.1,80.805,73.7-60.435,19.21Zm18.886,95.478,13.58,61.944L.3,1240.707Zm-92.573,30.3,106.648,33.9,24.212,110.436L46.55,1461.939Zm.111,266.291,46.855-42.734L68.76,1572.578ZM47.045,1464.2l83.535-76.187,106.647,33.9L71.01,1573.5ZM72.06,1578.3l80.806,73.7L92.43,1671.2ZM.3,1702.588l90.645-28.813,13.58,61.943Zm106.426,33.83L92.86,1673.166l61.712-19.617L319.64,1804.1Zm216.263,68.027L156.773,1652.85l106.647-33.9,83.535,76.187Zm2.25-.926,23.421-106.827,46.855,42.733Zm23.915-109.083L397,1476.208l47.845,218.228L397,1738.071Zm49.329,44.989,46.855-42.733,23.421,106.827Zm72.526,65.02-23.965-109.309,83.535-76.187,106.647,33.9Zm216.262-68.027L474.36,1804.1l165.068-150.548,61.712,19.617Zm2.2-.7,13.58-61.944,90.645,28.814Zm107.665-34.224a4.946,4.946,0,0,1-.278,0l-93.377-29.681,20.982-95.7a1.023,1.023,0,0,0,.129-.228c0-.008.01-.015.013-.022L797,1509.838l72.392,66.024c0,.007.009.014.013.022a.952.952,0,0,0,.13.228l20.981,95.7Zm3.162,1.094,90.645-28.814,13.581,61.944Zm106.426,33.83-13.867-63.252,61.712-19.617L1119.64,1804.1Zm216.262,68.027L956.773,1652.85l106.647-33.9,83.534,76.186Zm2.25-.925,23.421-106.828,46.856,42.733Zm23.916-109.085L1197,1476.2l47.845,218.232L1197,1738.071Zm49.329,44.99,46.856-42.733,23.421,106.828Zm72.527,65.02-23.965-109.31,83.534-76.186,106.647,33.9Zm216.261-68.027L1274.36,1804.1l165.068-150.548,61.712,19.617Zm2.2-.7,13.581-61.944,90.645,28.814Zm107.669-34.225a1,1,0,0,0-.155,0,.9.9,0,0,0-.127,0l-93.377-29.682,20.982-95.7a1,1,0,0,0,.131-.229.156.156,0,0,1,.013-.022L1597,1509.838l72.391,66.024a.156.156,0,0,1,.013.022,1,1,0,0,0,.131.229l20.982,95.7Zm3.159,1.095,90.645-28.814,13.581,61.944Zm106.427,33.83-13.868-63.252,61.712-19.617L1919.64,1804.1Zm50.045-83.568,106.647-33.9,83.535,76.186-23.966,109.31Z" fill="#ddd"/>
  </g>
</svg>
