<?xml version="1.0" encoding="utf-8"?>
<!-- Generator: Adobe Illustrator 22.1.0, SVG Export Plug-In . SVG Version: 6.00 Build 0)  -->
<svg version="1.1" id="Layer_1" xmlns="http://www.w3.org/2000/svg" xmlns:xlink="http://www.w3.org/1999/xlink" x="0px" y="0px"
	 viewBox="0 0 256 40" style="enable-background:new 0 0 256 40;" xml:space="preserve">
<style type="text/css">
	.st0{fill:#5488A8;}
</style>
<g id="Grupo_1474" transform="translate(2185 7041)">
	<g>
		<g id="Grupo_1452_8_">
			<circle id="Elipse_568_8_" class="st0" cx="-2183" cy="-7015" r="2"/>
			<circle id="Elipse_571_8_" class="st0" cx="-2171" cy="-7015" r="2"/>
			<circle id="Elipse_569_8_" class="st0" cx="-2183" cy="-7003" r="2"/>
			<circle id="Elipse_570_8_" class="st0" cx="-2171" cy="-7003" r="2"/>
		</g>
		<g id="Grupo_1454_8_" transform="translate(24)">
			<circle id="Elipse_568-2_8_" class="st0" cx="-2183" cy="-7015" r="2"/>
			<circle id="Elipse_571-2_8_" class="st0" cx="-2171" cy="-7015" r="2"/>
			<circle id="Elipse_569-2_8_" class="st0" cx="-2183" cy="-7003" r="2"/>
			<circle id="Elipse_570-2_8_" class="st0" cx="-2171" cy="-7003" r="2"/>
		</g>
		<g id="Grupo_1456_8_" transform="translate(48)">
			<circle id="Elipse_568-3_8_" class="st0" cx="-2183" cy="-7015" r="2"/>
			<circle id="Elipse_571-3_8_" class="st0" cx="-2171" cy="-7015" r="2"/>
			<circle id="Elipse_569-3_8_" class="st0" cx="-2183" cy="-7003" r="2"/>
			<circle id="Elipse_570-3_8_" class="st0" cx="-2171" cy="-7003" r="2"/>
		</g>
		<g id="Grupo_1458_8_" transform="translate(72)">
			<circle id="Elipse_568-4_8_" class="st0" cx="-2183" cy="-7015" r="2"/>
			<circle id="Elipse_571-4_8_" class="st0" cx="-2171" cy="-7015" r="2"/>
			<circle id="Elipse_569-4_8_" class="st0" cx="-2183" cy="-7003" r="2"/>
			<circle id="Elipse_570-4_8_" class="st0" cx="-2171" cy="-7003" r="2"/>
		</g>
		<g id="Grupo_1460_8_" transform="translate(96)">
			<circle id="Elipse_568-5_8_" class="st0" cx="-2183" cy="-7015" r="2"/>
			<circle id="Elipse_571-5_8_" class="st0" cx="-2171" cy="-7015" r="2"/>
			<circle id="Elipse_569-5_8_" class="st0" cx="-2183" cy="-7003" r="2"/>
			<circle id="Elipse_570-5_8_" class="st0" cx="-2171" cy="-7003" r="2"/>
		</g>
		<g id="Grupo_1462_8_" transform="translate(120)">
			<circle id="Elipse_568-6_8_" class="st0" cx="-2183" cy="-7015" r="2"/>
			<circle id="Elipse_571-6_8_" class="st0" cx="-2171" cy="-7015" r="2"/>
			<circle id="Elipse_569-6_8_" class="st0" cx="-2183" cy="-7003" r="2"/>
			<circle id="Elipse_570-6_8_" class="st0" cx="-2171" cy="-7003" r="2"/>
		</g>
		<g id="Grupo_1464_8_" transform="translate(144)">
			<circle id="Elipse_568-7_8_" class="st0" cx="-2183" cy="-7015" r="2"/>
			<circle id="Elipse_571-7_8_" class="st0" cx="-2171" cy="-7015" r="2"/>
			<circle id="Elipse_569-7_8_" class="st0" cx="-2183" cy="-7003" r="2"/>
			<circle id="Elipse_570-7_8_" class="st0" cx="-2171" cy="-7003" r="2"/>
		</g>
		<g id="Grupo_1466_8_" transform="translate(168)">
			<circle id="Elipse_568-8_8_" class="st0" cx="-2183" cy="-7015" r="2"/>
			<circle id="Elipse_571-8_8_" class="st0" cx="-2171" cy="-7015" r="2"/>
			<circle id="Elipse_569-8_8_" class="st0" cx="-2183" cy="-7003" r="2"/>
			<circle id="Elipse_570-8_8_" class="st0" cx="-2171" cy="-7003" r="2"/>
		</g>
		<g id="Grupo_1468_8_" transform="translate(192)">
			<circle id="Elipse_568-9_8_" class="st0" cx="-2183" cy="-7015" r="2"/>
			<circle id="Elipse_571-9_8_" class="st0" cx="-2171" cy="-7015" r="2"/>
			<circle id="Elipse_569-9_8_" class="st0" cx="-2183" cy="-7003" r="2"/>
			<circle id="Elipse_570-9_8_" class="st0" cx="-2171" cy="-7003" r="2"/>
		</g>
		<g id="Grupo_1470_8_" transform="translate(216)">
			<circle id="Elipse_568-10_8_" class="st0" cx="-2183" cy="-7015" r="2"/>
			<circle id="Elipse_571-10_8_" class="st0" cx="-2171" cy="-7015" r="2"/>
			<circle id="Elipse_569-10_8_" class="st0" cx="-2183" cy="-7003" r="2"/>
			<circle id="Elipse_570-10_8_" class="st0" cx="-2171" cy="-7003" r="2"/>
		</g>
		<g id="Grupo_1472_8_" transform="translate(240)">
			<circle id="Elipse_568-11_8_" class="st0" cx="-2183" cy="-7015" r="2"/>
			<circle id="Elipse_571-11_8_" class="st0" cx="-2171" cy="-7015" r="2"/>
			<circle id="Elipse_569-11_8_" class="st0" cx="-2183" cy="-7003" r="2"/>
			<circle id="Elipse_570-11_8_" class="st0" cx="-2171" cy="-7003" r="2"/>
		</g>
		<g id="Grupo_1453_8_" transform="translate(0 -24)">
			<circle id="Elipse_568-12_8_" class="st0" cx="-2183" cy="-7015" r="2"/>
			<circle id="Elipse_571-12_8_" class="st0" cx="-2171" cy="-7015" r="2"/>
			<circle id="Elipse_569-12_8_" class="st0" cx="-2183" cy="-7003" r="2"/>
			<circle id="Elipse_570-12_8_" class="st0" cx="-2171" cy="-7003" r="2"/>
		</g>
		<g id="Grupo_1455_8_" transform="translate(24 -24)">
			<circle id="Elipse_568-13_8_" class="st0" cx="-2183" cy="-7015" r="2"/>
			<circle id="Elipse_571-13_8_" class="st0" cx="-2171" cy="-7015" r="2"/>
			<circle id="Elipse_569-13_8_" class="st0" cx="-2183" cy="-7003" r="2"/>
			<circle id="Elipse_570-13_8_" class="st0" cx="-2171" cy="-7003" r="2"/>
		</g>
		<g id="Grupo_1457_8_" transform="translate(48 -24)">
			<circle id="Elipse_568-14_8_" class="st0" cx="-2183" cy="-7015" r="2"/>
			<circle id="Elipse_571-14_8_" class="st0" cx="-2171" cy="-7015" r="2"/>
			<circle id="Elipse_569-14_8_" class="st0" cx="-2183" cy="-7003" r="2"/>
			<circle id="Elipse_570-14_8_" class="st0" cx="-2171" cy="-7003" r="2"/>
		</g>
		<g id="Grupo_1459_8_" transform="translate(72 -24)">
			<circle id="Elipse_568-15_8_" class="st0" cx="-2183" cy="-7015" r="2"/>
			<circle id="Elipse_571-15_8_" class="st0" cx="-2171" cy="-7015" r="2"/>
			<circle id="Elipse_569-15_8_" class="st0" cx="-2183" cy="-7003" r="2"/>
			<circle id="Elipse_570-15_8_" class="st0" cx="-2171" cy="-7003" r="2"/>
		</g>
		<g id="Grupo_1461_8_" transform="translate(96 -24)">
			<circle id="Elipse_568-16_8_" class="st0" cx="-2183" cy="-7015" r="2"/>
			<circle id="Elipse_571-16_8_" class="st0" cx="-2171" cy="-7015" r="2"/>
			<circle id="Elipse_569-16_8_" class="st0" cx="-2183" cy="-7003" r="2"/>
			<circle id="Elipse_570-16_8_" class="st0" cx="-2171" cy="-7003" r="2"/>
		</g>
		<g id="Grupo_1463_8_" transform="translate(120 -24)">
			<circle id="Elipse_568-17_8_" class="st0" cx="-2183" cy="-7015" r="2"/>
			<circle id="Elipse_571-17_8_" class="st0" cx="-2171" cy="-7015" r="2"/>
			<circle id="Elipse_569-17_8_" class="st0" cx="-2183" cy="-7003" r="2"/>
			<circle id="Elipse_570-17_8_" class="st0" cx="-2171" cy="-7003" r="2"/>
		</g>
		<g id="Grupo_1465_8_" transform="translate(144 -24)">
			<circle id="Elipse_568-18_8_" class="st0" cx="-2183" cy="-7015" r="2"/>
			<circle id="Elipse_571-18_8_" class="st0" cx="-2171" cy="-7015" r="2"/>
			<circle id="Elipse_569-18_8_" class="st0" cx="-2183" cy="-7003" r="2"/>
			<circle id="Elipse_570-18_8_" class="st0" cx="-2171" cy="-7003" r="2"/>
		</g>
		<g id="Grupo_1467_8_" transform="translate(168 -24)">
			<circle id="Elipse_568-19_8_" class="st0" cx="-2183" cy="-7015" r="2"/>
			<circle id="Elipse_571-19_8_" class="st0" cx="-2171" cy="-7015" r="2"/>
			<circle id="Elipse_569-19_8_" class="st0" cx="-2183" cy="-7003" r="2"/>
			<circle id="Elipse_570-19_8_" class="st0" cx="-2171" cy="-7003" r="2"/>
		</g>
		<g id="Grupo_1469_8_" transform="translate(192 -24)">
			<circle id="Elipse_568-20_8_" class="st0" cx="-2183" cy="-7015" r="2"/>
			<circle id="Elipse_571-20_8_" class="st0" cx="-2171" cy="-7015" r="2"/>
			<circle id="Elipse_569-20_8_" class="st0" cx="-2183" cy="-7003" r="2"/>
			<circle id="Elipse_570-20_8_" class="st0" cx="-2171" cy="-7003" r="2"/>
		</g>
		<g id="Grupo_1471_8_" transform="translate(216 -24)">
			<circle id="Elipse_568-21_8_" class="st0" cx="-2183" cy="-7015" r="2"/>
			<circle id="Elipse_571-21_8_" class="st0" cx="-2171" cy="-7015" r="2"/>
			<circle id="Elipse_569-21_8_" class="st0" cx="-2183" cy="-7003" r="2"/>
			<circle id="Elipse_570-21_8_" class="st0" cx="-2171" cy="-7003" r="2"/>
		</g>
		<g id="Grupo_1473_8_" transform="translate(240 -24)">
			<circle id="Elipse_568-22_8_" class="st0" cx="-2183" cy="-7015" r="2"/>
			<circle id="Elipse_571-22_8_" class="st0" cx="-2171" cy="-7015" r="2"/>
			<circle id="Elipse_569-22_8_" class="st0" cx="-2183" cy="-7003" r="2"/>
			<circle id="Elipse_570-22_8_" class="st0" cx="-2171" cy="-7003" r="2"/>
		</g>
	</g>
</g>
</svg>
