<svg xmlns="http://www.w3.org/2000/svg" width="119.333" height="41.767" viewBox="0 0 119.333 41.767">
  <g id="layer1" transform="translate(0)">
    <g id="g117" transform="translate(0)">
      <path id="path3817_5_" d="M440.516,74.89l112.724.2c1.575,0,2.983-.234,2.983,3.143l-.138,37.122H437.671V78.095C437.671,76.43,437.832,74.89,440.516,74.89Z" transform="translate(-437.126 -74.439)" fill="#aab2ab"/>
      <path id="path120" d="M554.222,74.437H439.359a2.238,2.238,0,0,0-2.235,2.235V115.7a.5.5,0,0,0,.5.5H555.951a.505.505,0,0,0,.505-.5V76.671A2.238,2.238,0,0,0,554.222,74.437ZM439.359,75.446H554.222a1.226,1.226,0,0,1,1.224,1.225V103.74h-82.1a17.649,17.649,0,0,1-30.92,0h-4.3V76.671A1.227,1.227,0,0,1,439.359,75.446Z" transform="translate(-437.123 -74.437)"/>
      <g id="g5908_5_" transform="translate(5.238 3.889)">
        <path id="path5906_5_" d="M421.68-48.4A13.558,13.558,0,0,1,408.129-34.83a13.559,13.559,0,0,1-13.567-13.549V-48.4a13.558,13.558,0,0,1,13.551-13.566A13.558,13.558,0,0,1,421.68-48.412Z" transform="translate(-392.588 63.949)" fill="#fff"/>
        <g id="g5706_5_" transform="translate(0)">
          <path id="path5708_5_" d="M670.371-145.378a15.017,15.017,0,0,1,4.509,11.043,14.765,14.765,0,0,1-4.433,10.927,15.33,15.33,0,0,1-11.12,4.627A14.912,14.912,0,0,1,648.4-123.37a14.96,14.96,0,0,1-4.588-10.965,15.219,15.219,0,0,1,4.588-11.043,14.794,14.794,0,0,1,10.925-4.511A15.016,15.016,0,0,1,670.371-145.378Zm-19.944,2.023a12.416,12.416,0,0,0-3.813,9.024,12.227,12.227,0,0,0,3.773,8.946,12.277,12.277,0,0,0,8.987,3.774,12.468,12.468,0,0,0,9.064-3.812,11.879,11.879,0,0,0,3.657-8.908,12.312,12.312,0,0,0-3.716-9.044,12.266,12.266,0,0,0-9-3.714A12.042,12.042,0,0,0,650.427-143.355Zm6.689,7.507a1.867,1.867,0,0,0-1.745-1.271q-2.055,0-2.056,2.768t2.056,2.768a1.992,1.992,0,0,0,1.94-1.35l1.9,1.012a4.4,4.4,0,0,1-4.077,2.414,4.5,4.5,0,0,1-3.358-1.284,4.844,4.844,0,0,1-1.262-3.544,4.771,4.771,0,0,1,1.3-3.524,4.395,4.395,0,0,1,3.242-1.305,4.329,4.329,0,0,1,4.116,2.263Zm8.941,0a1.849,1.849,0,0,0-1.711-1.271q-2.1,0-2.1,2.768t2.1,2.768a1.927,1.927,0,0,0,1.9-1.35l1.943,1.012a4.39,4.39,0,0,1-4.07,2.414,4.484,4.484,0,0,1-3.352-1.284,4.85,4.85,0,0,1-1.26-3.544,4.815,4.815,0,0,1,1.279-3.524,4.364,4.364,0,0,1,3.256-1.305,4.316,4.316,0,0,1,4.107,2.263Z" transform="translate(-643.816 149.889)"/>
        </g>
      </g>
      <g id="g126" transform="translate(39.932 3.374)">
        <ellipse id="circle128" cx="10.679" cy="10.678" rx="10.679" ry="10.678" transform="translate(0.865 1.087)" fill="#fff"/>
        <g id="g130" transform="translate(8.428 4.084)">
          <path id="path132" d="M491.96,86.549a.745.745,0,0,0-.745-.745H486.5a.745.745,0,0,0-.745.745v4.716h1.316v5.585h3.575V91.266h1.316V86.549Z" transform="translate(-485.753 -81.958)"/>
          <ellipse id="circle134" cx="1.613" cy="1.613" rx="1.613" ry="1.613" transform="translate(1.491)"/>
        </g>
        <path id="path136" d="M488.794,77.829a11,11,0,0,0-8.111,3.344,11.279,11.279,0,0,0-3.406,8.187,11.622,11.622,0,0,0,11.516,11.531,11.389,11.389,0,0,0,8.257-3.431,10.936,10.936,0,0,0,3.29-8.1,11.426,11.426,0,0,0-11.547-11.53Zm.031,2.075a9.458,9.458,0,0,1,9.439,9.456,8.8,8.8,0,0,1-2.715,6.6,9.253,9.253,0,0,1-6.724,2.825,9.395,9.395,0,0,1-6.64-16.113A8.943,8.943,0,0,1,488.825,79.9Z" transform="translate(-477.278 -77.829)" fill-rule="evenodd"/>
      </g>
      <g id="g138" transform="translate(45.027 32.565)">
        <path id="path140" d="M485.507,107.184a4.186,4.186,0,0,1,.859.083,1.86,1.86,0,0,1,.666.273,1.279,1.279,0,0,1,.43.5,1.778,1.778,0,0,1,.152.776,1.425,1.425,0,0,1-.227.828,1.636,1.636,0,0,1-.669.544,1.585,1.585,0,0,1,.911.614,2.011,2.011,0,0,1,.108,1.92,1.686,1.686,0,0,1-.523.594,2.292,2.292,0,0,1-.748.342,3.368,3.368,0,0,1-.865.111h-3.2v-6.585Zm-.186,2.664a1.046,1.046,0,0,0,.637-.185.691.691,0,0,0,.25-.6.756.756,0,0,0-.083-.376.624.624,0,0,0-.222-.231.958.958,0,0,0-.318-.115,2.2,2.2,0,0,0-.375-.032h-1.357v1.537Zm.085,2.794a1.941,1.941,0,0,0,.407-.042,1.057,1.057,0,0,0,.342-.138.694.694,0,0,0,.236-.264.91.91,0,0,0,.087-.423.851.851,0,0,0-.287-.724,1.231,1.231,0,0,0-.757-.215h-1.581v1.806Z" transform="translate(-482.402 -107.184)" fill="#fff"/>
        <path id="path142" d="M488.218,107.184h1.624l1.542,2.6,1.534-2.6h1.615l-2.446,4.058v2.527h-1.452v-2.563Z" transform="translate(-482.434 -107.184)" fill="#fff"/>
      </g>
      <g id="g144" transform="translate(96.369 32.403)">
        <path id="path146" d="M535.555,112.141a1.054,1.054,0,0,0,.317.374,1.387,1.387,0,0,0,.465.212,2.208,2.208,0,0,0,.551.069,2.845,2.845,0,0,0,.414-.033,1.469,1.469,0,0,0,.414-.125.915.915,0,0,0,.322-.254.642.642,0,0,0,.128-.41.58.58,0,0,0-.171-.434,1.346,1.346,0,0,0-.446-.277,4.528,4.528,0,0,0-.626-.194q-.35-.083-.71-.185a6.252,6.252,0,0,1-.718-.225,2.465,2.465,0,0,1-.626-.347,1.554,1.554,0,0,1-.617-1.3,1.728,1.728,0,0,1,.216-.881,1.991,1.991,0,0,1,.566-.624,2.469,2.469,0,0,1,.794-.369,3.36,3.36,0,0,1,.883-.12,4.17,4.17,0,0,1,.991.116,2.453,2.453,0,0,1,.843.374,1.912,1.912,0,0,1,.586.66,2.045,2.045,0,0,1,.216.974h-1.405a1.147,1.147,0,0,0-.124-.489.817.817,0,0,0-.281-.3,1.167,1.167,0,0,0-.4-.156,2.377,2.377,0,0,0-.491-.046,1.682,1.682,0,0,0-.349.037.913.913,0,0,0-.316.129.777.777,0,0,0-.234.23.623.623,0,0,0-.092.351.588.588,0,0,0,.073.313.666.666,0,0,0,.291.222,3.845,3.845,0,0,0,.6.2c.254.067.588.154,1,.258.123.025.294.07.511.134a2.429,2.429,0,0,1,.649.309,1.983,1.983,0,0,1,.558.567,1.618,1.618,0,0,1,.234.909,2.016,2.016,0,0,1-.176.839,1.814,1.814,0,0,1-.521.669,2.5,2.5,0,0,1-.858.439,4.043,4.043,0,0,1-1.186.157,4.172,4.172,0,0,1-1.055-.134,2.639,2.639,0,0,1-.9-.421,2.078,2.078,0,0,1-.623-.73,2.173,2.173,0,0,1-.221-1.052h1.4A1.2,1.2,0,0,0,535.555,112.141Z" transform="translate(-534.03 -107.021)" fill="#fff"/>
        <path id="path148" d="M543.746,107.184l2.464,6.585h-1.5l-.5-1.466h-2.463l-.517,1.466h-1.458l2.491-6.585Zm.083,4.038L543,108.808h-.02l-.857,2.414Z" transform="translate(-534.062 -107.022)" fill="#fff"/>
      </g>
      <g id="g150" transform="translate(70.674 32.403)">
        <path id="path152" d="M509.633,107.184l2.751,4.418h.015v-4.418h1.359v6.585H512.31l-2.741-4.409h-.018v4.409h-1.359v-6.585Z" transform="translate(-508.192 -107.022)" fill="#fff"/>
        <path id="path154" d="M519.293,108.938a1.442,1.442,0,0,0-.323-.366,1.512,1.512,0,0,0-.95-.331,1.689,1.689,0,0,0-.831.189,1.551,1.551,0,0,0-.553.507,2.216,2.216,0,0,0-.309.723,3.565,3.565,0,0,0-.1.839,3.313,3.313,0,0,0,.1.806,2.166,2.166,0,0,0,.309.706,1.576,1.576,0,0,0,.553.5,1.688,1.688,0,0,0,.831.189,1.341,1.341,0,0,0,1.038-.406,1.868,1.868,0,0,0,.456-1.07h1.4a3.333,3.333,0,0,1-.286,1.117,2.666,2.666,0,0,1-.609.85,2.577,2.577,0,0,1-.886.537,3.231,3.231,0,0,1-1.116.186,3.371,3.371,0,0,1-1.362-.264,2.931,2.931,0,0,1-1.02-.723,3.217,3.217,0,0,1-.638-1.085,3.992,3.992,0,0,1-.222-1.343A4.13,4.13,0,0,1,515,109.13a3.28,3.28,0,0,1,.638-1.1,2.9,2.9,0,0,1,1.02-.738,3.528,3.528,0,0,1,2.389-.111,2.771,2.771,0,0,1,.868.458,2.452,2.452,0,0,1,.632.743,2.671,2.671,0,0,1,.314,1.015h-1.4A1.2,1.2,0,0,0,519.293,108.938Z" transform="translate(-508.229 -107.021)" fill="#fff"/>
      </g>
      <g id="g6332_1_" transform="translate(91.821 3.368)">
        <path id="path6334_1_" d="M400.23-225.566a10.525,10.525,0,0,1-10.518,10.533,10.526,10.526,0,0,1-10.534-10.518v-.015A10.527,10.527,0,0,1,389.7-236.1a10.526,10.526,0,0,1,10.533,10.518Z" transform="translate(-378.111 237.097)" fill="#fff"/>
        <g id="g6336_1_" transform="translate(0 0)">
          <path id="path6338_1_" d="M404.5-181.377a10.993,10.993,0,0,0-8.11,3.344,11.278,11.278,0,0,0-3.407,8.187,11.088,11.088,0,0,0,3.407,8.129,11.082,11.082,0,0,0,8.11,3.4,11.391,11.391,0,0,0,8.256-3.43,10.94,10.94,0,0,0,3.291-8.1,11.124,11.124,0,0,0-3.349-8.187A11.159,11.159,0,0,0,404.5-181.377Zm.029,2.076a9.033,9.033,0,0,1,6.668,2.768,9.042,9.042,0,0,1,2.771,6.687,8.8,8.8,0,0,1-2.714,6.6,9.256,9.256,0,0,1-6.725,2.824,9.111,9.111,0,0,1-6.668-2.8,9.054,9.054,0,0,1-2.8-6.63,9.19,9.19,0,0,1,2.829-6.687A8.936,8.936,0,0,1,404.529-179.3Z" transform="translate(-392.982 181.377)"/>
          <path id="path6340_1_" d="M399.419-171.443a4.912,4.912,0,0,1,5.062-4.453c3.681,0,5.924,2.671,5.924,6.233a5.865,5.865,0,0,1-5.983,6.175A4.94,4.94,0,0,1,399.333-168h2.9c.086,1.551,1.093,2.1,2.531,2.1,1.639,0,2.7-1.522,2.7-3.849,0-2.442-.92-3.734-2.647-3.734a2.275,2.275,0,0,0-2.588,2.04l.844-.006-2.286,2.287-2.286-2.287Z" transform="translate(-393.013 181.347)"/>
        </g>
      </g>
      <g id="g6361_1_" transform="translate(65.876 3.367)">
        <path id="path6363_1_" d="M611.022-75.743A10.728,10.728,0,0,1,600.3-65.009a10.728,10.728,0,0,1-10.736-10.719v-.016a10.728,10.728,0,0,1,10.719-10.735,10.729,10.729,0,0,1,10.736,10.719Z" transform="translate(-588.762 87.274)" fill="#fff"/>
        <path id="path6365_1_" d="M600.275-87.278a11.157,11.157,0,0,1,8.2,3.343,11.123,11.123,0,0,1,3.349,8.187,10.943,10.943,0,0,1-3.29,8.1,11.39,11.39,0,0,1-8.256,3.43,11.081,11.081,0,0,1-8.11-3.4,11.084,11.084,0,0,1-3.407-8.129,11.278,11.278,0,0,1,3.407-8.187A11,11,0,0,1,600.275-87.278Zm-8.922,8.433a9.207,9.207,0,0,0-.517,3.1,9.054,9.054,0,0,0,2.8,6.63,9.108,9.108,0,0,0,6.668,2.8,9.254,9.254,0,0,0,6.725-2.825,8.917,8.917,0,0,0,1.575-2.017L604.259-73.1a3.344,3.344,0,0,1-3.175,2.566v1.778H599.76v-1.778a5.48,5.48,0,0,1-3.5-1.381l1.589-1.6a3.475,3.475,0,0,0,2.574,1.043c.677,0,1.427-.264,1.427-1.146a.861.861,0,0,0-.312-.692l-1.1-.49-1.369-.609-1.826-.813ZM600.3-85.2a8.939,8.939,0,0,0-6.639,2.768,10.657,10.657,0,0,0-1.284,1.558l4.408,1.962a3.149,3.149,0,0,1,2.972-2.047v-1.778h1.324v1.778a4.974,4.974,0,0,1,2.9,1.058l-1.515,1.557a3.507,3.507,0,0,0-1.972-.676c-.572,0-1.382.176-1.382.9a.464.464,0,0,0,.1.293l1.475.657,1,.445,1.852.824,5.909,2.631a10.072,10.072,0,0,0,.292-2.469,9.044,9.044,0,0,0-2.77-6.687A9.036,9.036,0,0,0,600.3-85.2Z" transform="translate(-588.758 87.278)"/>
      </g>
    </g>
  </g>
</svg>
