<svg xmlns="http://www.w3.org/2000/svg" width="40" height="38.261" viewBox="0 0 40 38.261">
  <g id="select" transform="translate(40 38.261) rotate(180)">
    <path id="Trazado_612" data-name="Trazado 612" d="M25.638,2.522H1.261A1.261,1.261,0,0,1,1.261,0H25.638a1.261,1.261,0,1,1,0,2.522Zm0,0" transform="translate(13.101 17.87)" fill="#ff6712"/>
    <path id="Trazado_613" data-name="Trazado 613" d="M7.985,15.972a1.251,1.251,0,0,1-.891-.37L.369,8.878a1.262,1.262,0,0,1,0-1.784L7.094.369A1.261,1.261,0,0,1,8.878,2.153L3.044,7.987l5.834,5.834a1.26,1.26,0,0,1-.893,2.152Zm0,0" transform="translate(12.302 11.144)" fill="#ff6712"/>
    <path id="Trazado_614" data-name="Trazado 614" d="M19.182,38.261A19.131,19.131,0,1,1,37.034,12.132a1.307,1.307,0,0,1-2.434.955,16.521,16.521,0,1,0,0,12.089,1.307,1.307,0,0,1,2.434.955,19.083,19.083,0,0,1-17.853,12.13Zm0,0" transform="translate(0 0)"/>
  </g>
</svg>
