<?xml version="1.0" encoding="utf-8"?>
<!-- Generator: Adobe Illustrator 22.1.0, SVG Export Plug-In . SVG Version: 6.00 Build 0)  -->
<svg version="1.1" id="Layer_1" xmlns="http://www.w3.org/2000/svg" xmlns:xlink="http://www.w3.org/1999/xlink" x="0px" y="0px"
	 viewBox="0 0 24.6 18.1" style="enable-background:new 0 0 24.6 18.1;" xml:space="preserve">
<style type="text/css">
	.st0{fill:#00223D;}
</style>
<g id="abrir-esquema-de-carpeta" transform="translate(0 -71.516)">
	<path id="Trazado_1166" class="st0" d="M24.4,81c-0.2-0.4-0.5-0.7-0.9-0.9c-0.4-0.2-0.8-0.3-1.3-0.3h-2.5v-2.1
		c0-1.6-1.3-2.9-2.9-2.9h-7v-0.4c0-0.8-0.3-1.5-0.9-2c-0.5-0.6-1.3-0.9-2-0.9H2.9c-0.8,0-1.5,0.3-2,0.8c-0.6,0.5-0.9,1.3-0.9,2v12.4
		c0,0.8,0.3,1.5,0.9,2c0.5,0.6,1.3,0.9,2,0.8h14c0.6,0,1.2-0.2,1.8-0.4c0.6-0.3,1.1-0.6,1.5-1.1l3.8-4.7c0.4-0.4,0.6-1,0.6-1.5
		C24.6,81.6,24.5,81.3,24.4,81z M1.6,74.4c0-0.7,0.5-1.2,1.2-1.2c0,0,0,0,0,0H7c0.7,0,1.2,0.5,1.2,1.2c0,0,0,0,0,0v0.8
		c0,0.7,0.5,1.2,1.2,1.2c0,0,0,0,0,0h7.4c0.7,0,1.2,0.5,1.2,1.2c0,0,0,0,0,0v2.1H8.2c-0.6,0-1.2,0.2-1.8,0.4
		c-0.6,0.3-1.1,0.6-1.5,1.1l-3.3,4.1L1.6,74.4L1.6,74.4z M22.7,82.4L18.9,87c-0.5,0.6-1.2,0.9-2,1h-14c-0.5,0-0.7-0.2-0.7-0.5
		c0-0.2,0.1-0.4,0.2-0.5l3.8-4.7c0.3-0.3,0.6-0.5,0.9-0.7c0.3-0.2,0.7-0.3,1.1-0.3h14c0.5,0,0.7,0.2,0.7,0.5
		C22.9,82,22.8,82.2,22.7,82.4z"/>
</g>
</svg>
