<?xml version="1.0" encoding="utf-8"?>
<!-- Generator: Adobe Illustrator 22.1.0, SVG Export Plug-In . SVG Version: 6.00 Build 0)  -->
<svg version="1.1" id="Layer_1" xmlns="http://www.w3.org/2000/svg" xmlns:xlink="http://www.w3.org/1999/xlink" x="0px" y="0px"
	 viewBox="0 0 19.5 19.5" style="enable-background:new 0 0 19.5 19.5;" xml:space="preserve">
<style type="text/css">
	.st0{fill:#00223D;}
</style>
<g id="Grupo_884" transform="translate(-487 1875)">
	<g id="boton-de-reproduccion-dentro-de-un-circulo" transform="translate(487 -1875)">
		<g id="play-circle-outline">
			<path id="Trazado_1171" class="st0" d="M7.8,14.1l5.8-4.4L7.8,5.4V14.1z M9.8,0C4.4,0,0,4.4,0,9.8s4.4,9.8,9.8,9.8
				s9.8-4.4,9.8-9.8C19.5,4.4,15.1,0,9.8,0z M9.8,17.5c-4.3,0-7.8-3.5-7.8-7.8c0-4.3,3.5-7.8,7.8-7.8c4.3,0,7.8,3.5,7.8,7.8v0
				C17.5,14.1,14.1,17.5,9.8,17.5z"/>
		</g>
	</g>
</g>
</svg>
