<svg xmlns="http://www.w3.org/2000/svg" width="105.504" height="114.386" viewBox="0 0 105.504 114.386">
  <g id="Grupo_10358" data-name="Grupo 10358" transform="translate(-188.579 -2872.643)">
    <path id="Trazado_3618" data-name="Trazado 3618" d="M248.173,2929.836a29.043,29.043,0,1,1-29.043-29.042,29.042,29.042,0,0,1,29.043,29.042Zm0,0" fill="#f2f2f2"/>
    <path id="Trazado_3619" data-name="Trazado 3619" d="M219.13,2900.794a29.155,29.155,0,0,0-6.016.625,29.048,29.048,0,0,1,0,56.835,29.045,29.045,0,1,0,6.016-57.46Zm0,0" fill="#cdd6df"/>
    <path id="Trazado_3620" data-name="Trazado 3620" d="M292.408,2968.3a17.052,17.052,0,1,1-17.053-17.052,17.052,17.052,0,0,1,17.053,17.052Zm0,0" fill="#f2f2f2"/>
    <path id="Trazado_3621" data-name="Trazado 3621" d="M275.355,2951.249a17.029,17.029,0,0,0-6.016,1.094,17.054,17.054,0,0,1,0,31.915,17.053,17.053,0,1,0,6.016-33.009Zm0,0" fill="#cdd6df"/>
    <path id="Trazado_3622" data-name="Trazado 3622" d="M275.355,2971.232A10.551,10.551,0,0,0,264.8,2981.7a17.057,17.057,0,0,0,21.1,0,10.551,10.551,0,0,0-10.55-10.467Zm0,0" fill="#ffd553"/>
    <path id="Trazado_3623" data-name="Trazado 3623" d="M281.26,2965.328a5.9,5.9,0,1,1-5.9-5.9,5.9,5.9,0,0,1,5.9,5.9Zm0,0" fill="#ffd553"/>
    <path id="Trazado_3624" data-name="Trazado 3624" d="M292.408,2891.371a17.052,17.052,0,1,1-17.053-17.052,17.053,17.053,0,0,1,17.053,17.052Zm0,0" fill="#f2f2f2"/>
    <path id="Trazado_3625" data-name="Trazado 3625" d="M275.355,2874.319a17.008,17.008,0,0,0-6.016,1.095,17.054,17.054,0,0,1,0,31.915,17.053,17.053,0,1,0,6.016-33.01Zm0,0" fill="#cdd6df"/>
    <path id="Trazado_3626" data-name="Trazado 3626" d="M275.355,2894.3a10.55,10.55,0,0,0-10.55,10.466,17.057,17.057,0,0,0,21.1,0,10.55,10.55,0,0,0-10.55-10.466Zm0,0" fill="#33bdb0"/>
    <path id="Trazado_3627" data-name="Trazado 3627" d="M281.26,2888.4a5.9,5.9,0,1,1-5.9-5.9,5.9,5.9,0,0,1,5.9,5.9Zm0,0" fill="#33bdb0"/>
    <path id="Trazado_3628" data-name="Trazado 3628" d="M190.076,2928.367a1.674,1.674,0,0,0,1.845-1.487,27.369,27.369,0,0,1,45.556-17.351q1.032.935,1.957,1.956c.027.032.054.063.082.093a27.268,27.268,0,0,1,6.824,15.306,1.677,1.677,0,0,0,1.664,1.5c.06,0,.12,0,.181-.009a1.676,1.676,0,0,0,1.487-1.845,30.6,30.6,0,0,0-6.434-15.731l15.883-10.094a18.862,18.862,0,0,0,4.517,5.27,1.731,1.731,0,0,0,.27.213,18.692,18.692,0,0,0,22.9,0,1.762,1.762,0,0,0,.268-.211,18.721,18.721,0,1,0-29.368-8.341l-16.713,10.622q-.615-.621-1.265-1.211a30.721,30.721,0,0,0-51.136,19.48,1.674,1.674,0,0,0,1.487,1.844Zm76.45-24.412a8.875,8.875,0,0,1,17.658,0,15.351,15.351,0,0,1-17.658,0Zm4.6-15.556a4.229,4.229,0,1,1,4.228,4.229,4.232,4.232,0,0,1-4.228-4.229Zm4.228-12.4a15.369,15.369,0,0,1,11.706,25.337,12.333,12.333,0,0,0-6.427-7.5,7.579,7.579,0,1,0-10.558,0,12.325,12.325,0,0,0-6.426,7.5A15.368,15.368,0,0,1,275.355,2876Zm0,0" fill="#4d4d4d"/>
    <path id="Trazado_3629" data-name="Trazado 3629" d="M275.355,2949.573a18.739,18.739,0,0,0-16.234,9.4l-15.883-10.094a30.516,30.516,0,0,0,6.378-15.247,1.676,1.676,0,1,0-3.326-.41,27.37,27.37,0,0,1-54.319,0,1.676,1.676,0,1,0-3.326.41,30.717,30.717,0,0,0,52.342,17.787L257.7,2962.04a18.719,18.719,0,0,0,5.935,20.861,1.7,1.7,0,0,0,.271.213,18.691,18.691,0,0,0,22.893,0,1.723,1.723,0,0,0,.269-.213,18.721,18.721,0,0,0-11.717-33.328Zm-8.829,31.311a8.875,8.875,0,0,1,17.658,0,15.347,15.347,0,0,1-17.658,0Zm4.6-15.556a4.229,4.229,0,1,1,4.228,4.229,4.232,4.232,0,0,1-4.228-4.229Zm15.934,12.934a12.322,12.322,0,0,0-6.427-7.5,7.579,7.579,0,1,0-10.558,0,12.318,12.318,0,0,0-6.426,7.5,15.378,15.378,0,1,1,23.411,0Zm0,0" fill="#4d4d4d"/>
    <g id="Grupo_10357" data-name="Grupo 10357">
      <path id="Trazado_3630" data-name="Trazado 3630" d="M238.633,2926.538h-1.4a2.091,2.091,0,0,1-2-1.475,16.9,16.9,0,0,0-1.341-3.2,2.094,2.094,0,0,1,.362-2.485l1-1a2.1,2.1,0,0,0,0-2.971l-1.693-1.692a2.1,2.1,0,0,0-2.971,0l-1,1a2.094,2.094,0,0,1-2.484.361,16.962,16.962,0,0,0-3.2-1.341,2.091,2.091,0,0,1-1.475-2.005v-1.4a2.1,2.1,0,0,0-2.1-2.1h-2.394a2.1,2.1,0,0,0-2.1,2.1v1.308a2.092,2.092,0,0,1-1.511,2.016,16.957,16.957,0,0,0-3.3,1.327,2.093,2.093,0,0,1-2.457-.376l-.895-.894a2.1,2.1,0,0,0-2.971,0l-1.693,1.692a2.1,2.1,0,0,0,0,2.971l.8.8a2.093,2.093,0,0,1,.352,2.5,16.886,16.886,0,0,0-1.441,3.376,2.1,2.1,0,0,1-2.017,1.479h-1.077a2.1,2.1,0,0,0-2.1,2.1v2.394a2.1,2.1,0,0,0,2.1,2.1h.993a2.093,2.093,0,0,1,2.018,1.507,16.963,16.963,0,0,0,1.428,3.487,2.089,2.089,0,0,1-.367,2.475l-.692.692a2.1,2.1,0,0,0,0,2.971l1.693,1.693a2.1,2.1,0,0,0,2.971,0l.691-.692a2.094,2.094,0,0,1,2.477-.367,16.842,16.842,0,0,0,3.486,1.428,2.093,2.093,0,0,1,1.507,2.018v.993a2.1,2.1,0,0,0,2.1,2.1h2.4a2.1,2.1,0,0,0,2.1-2.1v-1.077a2.1,2.1,0,0,1,1.479-2.017,16.9,16.9,0,0,0,3.376-1.441,2.092,2.092,0,0,1,2.5.352l.8.8a2.1,2.1,0,0,0,2.971,0l1.693-1.693a2.1,2.1,0,0,0,0-2.971l-.9-.9a2.093,2.093,0,0,1-.376-2.457,16.873,16.873,0,0,0,1.327-3.3,2.093,2.093,0,0,1,2.016-1.511h1.308a2.1,2.1,0,0,0,2.1-2.1v-2.4a2.1,2.1,0,0,0-2.1-2.1Zm-19.5,12.581a9.282,9.282,0,1,1,9.283-9.283,9.283,9.283,0,0,1-9.283,9.283Zm0,0" fill="#fd715c"/>
      <path id="Trazado_3631" data-name="Trazado 3631" d="M219.13,2919.03a10.806,10.806,0,1,0,10.806,10.806,10.817,10.817,0,0,0-10.806-10.806Zm0,18.565a7.759,7.759,0,1,1,7.759-7.759,7.768,7.768,0,0,1-7.759,7.759Zm0,0" fill="#4d4d4d"/>
      <path id="Trazado_3632" data-name="Trazado 3632" d="M238.633,2925.014h-1.4a.571.571,0,0,1-.547-.393,18.5,18.5,0,0,0-1.461-3.487.573.573,0,0,1,.1-.676l1-1a3.628,3.628,0,0,0,0-5.125l-1.693-1.693a3.628,3.628,0,0,0-5.126,0l-1,1a.576.576,0,0,1-.677.1,18.561,18.561,0,0,0-3.487-1.462.57.57,0,0,1-.393-.547v-1.4a3.629,3.629,0,0,0-3.625-3.626h-2.394a3.629,3.629,0,0,0-3.625,3.626v1.307a.567.567,0,0,1-.4.55,18.527,18.527,0,0,0-3.6,1.447.571.571,0,0,1-.665-.108l-.894-.894a3.624,3.624,0,0,0-5.126,0l-1.693,1.693a3.626,3.626,0,0,0,0,5.126l.8.8a.569.569,0,0,1,.1.679,18.44,18.44,0,0,0-1.571,3.681.58.58,0,0,1-.559.4h-1.077a3.628,3.628,0,0,0-3.625,3.624v2.4a3.629,3.629,0,0,0,3.625,3.624h.993a.568.568,0,0,1,.553.4,18.37,18.37,0,0,0,1.557,3.8.57.57,0,0,1-.108.668l-.692.692a3.629,3.629,0,0,0,0,5.126l1.693,1.692a3.627,3.627,0,0,0,5.126,0l.692-.692a.568.568,0,0,1,.667-.107,18.438,18.438,0,0,0,3.8,1.557.567.567,0,0,1,.4.552v.993a3.629,3.629,0,0,0,3.624,3.625h2.4a3.628,3.628,0,0,0,3.624-3.625v-1.076a.579.579,0,0,1,.4-.559,18.472,18.472,0,0,0,3.681-1.571.569.569,0,0,1,.679.1l.8.8a3.628,3.628,0,0,0,5.126,0l1.692-1.692a3.627,3.627,0,0,0,0-5.126l-.894-.9a.571.571,0,0,1-.108-.664,18.509,18.509,0,0,0,1.448-3.6.568.568,0,0,1,.55-.4h1.307a3.628,3.628,0,0,0,3.625-3.624v-2.4a3.63,3.63,0,0,0-3.625-3.625Zm.577,6.019a.578.578,0,0,1-.577.578h-1.308a3.627,3.627,0,0,0-3.481,2.617,15.4,15.4,0,0,1-1.208,3,3.6,3.6,0,0,0,.645,4.25l.895.9a.578.578,0,0,1,0,.815l-1.693,1.694a.581.581,0,0,1-.817,0l-.8-.8a3.626,3.626,0,0,0-4.327-.6,15.4,15.4,0,0,1-3.071,1.311,3.648,3.648,0,0,0-2.56,3.476v1.076a.578.578,0,0,1-.578.577h-2.394a.577.577,0,0,1-.577-.577v-.993a3.628,3.628,0,0,0-2.615-3.484,15.4,15.4,0,0,1-3.172-1.3,3.567,3.567,0,0,0-1.711-.435,3.636,3.636,0,0,0-2.572,1.061l-.692.692a.58.58,0,0,1-.816,0l-1.694-1.693a.579.579,0,0,1,0-.816l.692-.692a3.631,3.631,0,0,0,.626-4.284,15.4,15.4,0,0,1-1.3-3.171,3.627,3.627,0,0,0-3.484-2.615h-.993a.578.578,0,0,1-.578-.577v-2.4a.578.578,0,0,1,.578-.577H200.7a3.649,3.649,0,0,0,3.475-2.561,15.424,15.424,0,0,1,1.311-3.071,3.628,3.628,0,0,0-.6-4.327l-.8-.8a.578.578,0,0,1,0-.817l1.693-1.693a.578.578,0,0,1,.817,0l.894.9a3.6,3.6,0,0,0,4.25.645,15.374,15.374,0,0,1,3-1.208,3.628,3.628,0,0,0,2.619-3.481v-1.308a.577.577,0,0,1,.577-.577h2.394a.579.579,0,0,1,.578.577v1.4a3.591,3.591,0,0,0,2.557,3.463,15.313,15.313,0,0,1,2.909,1.221,3.641,3.641,0,0,0,4.292-.622l1-1a.577.577,0,0,1,.816,0l1.694,1.693a.581.581,0,0,1,0,.817l-1,1a3.639,3.639,0,0,0-.623,4.292,15.4,15.4,0,0,1,1.221,2.909,3.592,3.592,0,0,0,3.463,2.558h1.4a.577.577,0,0,1,.577.577Zm0,0" fill="#4d4d4d"/>
    </g>
  </g>
</svg>
