<svg xmlns="http://www.w3.org/2000/svg" width="66.1" height="101.228" viewBox="0 0 66.1 101.228">
  <g id="Grupo_8710" data-name="Grupo 8710" transform="translate(-208.281 -3960.958)">
    <path id="Trazado_1521" data-name="Trazado 1521" d="M247.421,4060.7H235.242a5.311,5.311,0,0,1-5.312-5.312v-7.172h22.8v7.172a5.312,5.312,0,0,1-5.312,5.312Zm0,0" fill="#e6e6e6"/>
    <path id="Trazado_1522" data-name="Trazado 1522" d="M252.688,4054.461H229.975a2.83,2.83,0,0,1-2.831-2.831V4032.3a2.83,2.83,0,0,1,2.831-2.83h22.713a2.83,2.83,0,0,1,2.83,2.83v19.331a2.83,2.83,0,0,1-2.83,2.831Zm0,0" fill="#cdd6df"/>
    <path id="Trazado_1523" data-name="Trazado 1523" d="M252.688,4029.469H244.9v24.992h7.79a2.83,2.83,0,0,0,2.83-2.831V4032.3a2.83,2.83,0,0,0-2.83-2.83Zm0,0" fill="#abb2ba"/>
    <path id="Trazado_1524" data-name="Trazado 1524" d="M272.9,3994.008a31.567,31.567,0,1,0-63.134,0,33.413,33.413,0,0,0,5.484,18.217c4.8,7.351,8.242,13.05,9,21.106a3.8,3.8,0,0,0,3.779,3.457h26.6a3.8,3.8,0,0,0,3.78-3.457c.76-8.056,4.206-13.755,9-21.106a33.42,33.42,0,0,0,5.483-18.217Zm0,0" fill="#fed066"/>
    <path id="Trazado_1525" data-name="Trazado 1525" d="M241.331,3962.441a31.73,31.73,0,0,0-5.31.447,31.575,31.575,0,0,1,26.257,31.12,33.413,33.413,0,0,1-5.484,18.217c-5.454,8.359-9.161,14.581-9.161,24.563h7a3.8,3.8,0,0,0,3.78-3.457c.76-8.056,4.206-13.755,9-21.106a33.42,33.42,0,0,0,5.483-18.217,31.567,31.567,0,0,0-31.567-31.567Zm0,0" fill="#f5b556"/>
    <path id="Trazado_1526" data-name="Trazado 1526" d="M259.236,3994.692h-1.285a1.92,1.92,0,0,1-1.84-1.356,15.492,15.492,0,0,0-1.231-2.934,1.922,1.922,0,0,1,.332-2.281l.92-.921a1.928,1.928,0,0,0,0-2.728l-1.553-1.554a1.93,1.93,0,0,0-2.728,0l-.921.921a1.923,1.923,0,0,1-2.28.332,15.551,15.551,0,0,0-2.936-1.231,1.92,1.92,0,0,1-1.355-1.841v-1.284a1.929,1.929,0,0,0-1.929-1.929h-2.2a1.929,1.929,0,0,0-1.928,1.929v1.2a1.92,1.92,0,0,1-1.387,1.85,15.375,15.375,0,0,0-3.028,1.219,1.921,1.921,0,0,1-2.256-.346l-.821-.821a1.93,1.93,0,0,0-2.728,0l-1.554,1.554a1.928,1.928,0,0,0,0,2.728l.737.737a1.922,1.922,0,0,1,.323,2.3,15.494,15.494,0,0,0-1.323,3.1,1.93,1.93,0,0,1-1.852,1.357h-.988a1.928,1.928,0,0,0-1.928,1.928v2.2a1.928,1.928,0,0,0,1.928,1.929h.912a1.921,1.921,0,0,1,1.853,1.383,15.511,15.511,0,0,0,1.31,3.2,1.919,1.919,0,0,1-.337,2.273l-.635.636a1.927,1.927,0,0,0,0,2.727l1.554,1.554a1.93,1.93,0,0,0,2.728,0l.634-.635a1.919,1.919,0,0,1,2.273-.337,15.463,15.463,0,0,0,3.2,1.31,1.921,1.921,0,0,1,1.384,1.853v.912a1.929,1.929,0,0,0,1.928,1.929h2.2a1.929,1.929,0,0,0,1.929-1.929v-.989a1.928,1.928,0,0,1,1.357-1.851,15.535,15.535,0,0,0,3.1-1.323,1.922,1.922,0,0,1,2.3.322l.737.738a1.93,1.93,0,0,0,2.728,0l1.554-1.554a1.928,1.928,0,0,0,0-2.727l-.821-.822a1.922,1.922,0,0,1-.346-2.256,15.44,15.44,0,0,0,1.219-3.028,1.92,1.92,0,0,1,1.85-1.387h1.2a1.929,1.929,0,0,0,1.929-1.928v-2.2a1.929,1.929,0,0,0-1.929-1.929Zm-17.9,12.36a9.333,9.333,0,1,1,9.333-9.333,9.333,9.333,0,0,1-9.333,9.333Zm0,0" fill="#f2f2f2"/>
    <path id="Trazado_1527" data-name="Trazado 1527" d="M268.1,3974.623a1.482,1.482,0,0,0-2.4,1.741,29.865,29.865,0,0,1,5.714,17.644,31.811,31.811,0,0,1-5.243,17.406c-5.071,7.774-8.454,13.489-9.237,21.778a2.32,2.32,0,0,1-1.675,2.026,1.358,1.358,0,0,0-.176.043,2.391,2.391,0,0,1-.452.044h-26.6a2.41,2.41,0,0,1-.453-.044,1.443,1.443,0,0,0-.176-.043,2.318,2.318,0,0,1-1.673-2.026c-.784-8.289-4.166-14-9.238-21.778a31.8,31.8,0,0,1-5.243-17.406,30.085,30.085,0,0,1,50.624-21.982,1.483,1.483,0,1,0,2.025-2.167,33.051,33.051,0,0,0-55.615,24.149,34.772,34.772,0,0,0,5.725,19.027c4.83,7.4,8.05,12.825,8.769,20.436a5.28,5.28,0,0,0,2.886,4.243v13.916a4.323,4.323,0,0,0,2.791,4.037,6.8,6.8,0,0,0,6.79,6.519h12.179a6.8,6.8,0,0,0,6.789-6.519A4.32,4.32,0,0,0,257,4051.63v-13.916a5.276,5.276,0,0,0,2.886-4.243c.719-7.611,3.939-13.033,8.769-20.436a34.763,34.763,0,0,0,5.725-19.027,32.8,32.8,0,0,0-6.28-19.385Zm-30.183,69.408h16.118v2.705H228.627v-2.705h3.36a1.483,1.483,0,0,0,0-2.966h-3.36v-2.795h25.409v2.795H237.918a1.483,1.483,0,0,0,0,2.966Zm14.842,8.946h-.046l-.062,0H230.011l-.063,0H229.9a1.35,1.35,0,0,1-1.275-1.346V4049.7h25.41v1.928a1.35,1.35,0,0,1-1.276,1.347Zm-5.339,6.243H235.242a3.836,3.836,0,0,1-3.79-3.276h19.759a3.836,3.836,0,0,1-3.79,3.276Zm0,0" fill="#4d4d4d"/>
    <path id="Trazado_1528" data-name="Trazado 1528" d="M257.611,4002.539a.437.437,0,0,1,.423-.31h1.2a3.415,3.415,0,0,0,3.411-3.411v-2.2a3.415,3.415,0,0,0-3.411-3.411h-1.285a.439.439,0,0,1-.421-.3,17.1,17.1,0,0,0-1.349-3.217.443.443,0,0,1,.079-.521l.921-.921a3.409,3.409,0,0,0,0-4.824l-1.554-1.555a3.415,3.415,0,0,0-4.825,0l-.921.922a.441.441,0,0,1-.521.078,17.081,17.081,0,0,0-3.217-1.348.439.439,0,0,1-.3-.422v-1.284a3.416,3.416,0,0,0-3.412-3.412h-2.2a3.415,3.415,0,0,0-3.411,3.412v1.2a.439.439,0,0,1-.31.424,17.028,17.028,0,0,0-3.318,1.335.442.442,0,0,1-.512-.084l-.821-.822a3.412,3.412,0,0,0-4.824,0l-1.555,1.555a3.411,3.411,0,0,0,0,4.824l.738.737a.44.44,0,0,1,.079.523,17.023,17.023,0,0,0-1.45,3.4.448.448,0,0,1-.433.3h-.988a3.416,3.416,0,0,0-3.412,3.411v2.2a3.416,3.416,0,0,0,3.412,3.411h.911a.437.437,0,0,1,.426.307,16.987,16.987,0,0,0,1.437,3.506.438.438,0,0,1-.085.514l-.635.635a3.411,3.411,0,0,0,0,4.824l1.554,1.554a3.412,3.412,0,0,0,4.825,0l.635-.635a.436.436,0,0,1,.513-.084,17.069,17.069,0,0,0,3.507,1.436.437.437,0,0,1,.306.426v.912a3.414,3.414,0,0,0,3.411,3.411h2.2a3.415,3.415,0,0,0,3.412-3.411v-.989a.448.448,0,0,1,.305-.433,16.987,16.987,0,0,0,3.4-1.449.44.44,0,0,1,.523.079l.737.737a3.412,3.412,0,0,0,4.825,0l1.554-1.554a3.409,3.409,0,0,0,0-4.824l-.821-.822a.44.44,0,0,1-.085-.512,16.919,16.919,0,0,0,1.336-3.318Zm-2.853-.811a14.074,14.074,0,0,1-1.1,2.739,3.383,3.383,0,0,0,.607,4l.821.821a.446.446,0,0,1,0,.631l-1.554,1.553a.445.445,0,0,1-.63,0l-.738-.736a3.413,3.413,0,0,0-4.073-.568,14,14,0,0,1-2.8,1.2,3.433,3.433,0,0,0-2.409,3.271v.988a.447.447,0,0,1-.446.446h-2.2a.446.446,0,0,1-.445-.446v-.912a3.416,3.416,0,0,0-2.462-3.279,13.962,13.962,0,0,1-2.894-1.185,3.359,3.359,0,0,0-1.611-.409,3.428,3.428,0,0,0-2.422,1l-.635.634a.444.444,0,0,1-.63,0l-1.555-1.554a.445.445,0,0,1,0-.63l.635-.635a3.418,3.418,0,0,0,.59-4.033,14.054,14.054,0,0,1-1.186-2.895,3.414,3.414,0,0,0-3.279-2.461h-.912a.446.446,0,0,1-.445-.446v-2.2a.445.445,0,0,1,.445-.445h.989a3.433,3.433,0,0,0,3.271-2.41,14.046,14.046,0,0,1,1.2-2.8,3.417,3.417,0,0,0-.566-4.074l-.738-.737a.445.445,0,0,1,0-.63l1.555-1.555a.446.446,0,0,1,.63,0l.821.822a3.385,3.385,0,0,0,4,.606,14.019,14.019,0,0,1,2.737-1.1,3.415,3.415,0,0,0,2.465-3.278v-1.2a.446.446,0,0,1,.446-.445h2.2a.446.446,0,0,1,.446.445v1.285a3.381,3.381,0,0,0,2.408,3.26,14.07,14.07,0,0,1,2.654,1.113,3.423,3.423,0,0,0,4.04-.585l.922-.921a.445.445,0,0,1,.63,0l1.554,1.555a.447.447,0,0,1,0,.63l-.921.921a3.424,3.424,0,0,0-.585,4.04,14.028,14.028,0,0,1,1.113,2.655,3.381,3.381,0,0,0,3.26,2.407h1.285a.447.447,0,0,1,.445.446v2.2a.446.446,0,0,1-.445.446h-1.2a3.416,3.416,0,0,0-3.276,2.465Zm0,0" fill="#4d4d4d"/>
    <path id="Trazado_1529" data-name="Trazado 1529" d="M241.331,3986.9a10.815,10.815,0,1,0,10.815,10.815,10.826,10.826,0,0,0-10.815-10.815Zm0,18.666a7.851,7.851,0,1,1,7.85-7.851,7.86,7.86,0,0,1-7.85,7.851Zm0,0" fill="#4d4d4d"/>
  </g>
</svg>
