<svg xmlns="http://www.w3.org/2000/svg" width="93.606" height="72.144" viewBox="0 0 93.606 72.144">
  <g id="Grupo_10600" data-name="Grupo 10600" transform="translate(-169.103 -3094.135)">
    <line id="Línea_426" data-name="Línea 426" y2="68.144" transform="translate(260.709 3096.135)" fill="none" stroke="#a4dbf5" stroke-linecap="round" stroke-miterlimit="10" stroke-width="4"/>
    <g id="Grupo_10453" data-name="Grupo 10453">
      <path id="Trazado_3766" data-name="Trazado 3766" d="M231.752,3138.9H197.344a2.173,2.173,0,0,0-2.172,2.172v8.148a15.617,15.617,0,0,0,4.976,11.407h-5.7a2.171,2.171,0,1,0,0,4.341h33.31a2.172,2.172,0,1,0,0-4.344h-5.683a15.5,15.5,0,0,0,4.359-7.242h5.318a7.251,7.251,0,0,0,0-14.482Zm0,10.138h-4.718v-5.793h4.718a2.924,2.924,0,0,1,0,5.793Z" fill="#a4dbf5"/>
      <path id="Trazado_3767" data-name="Trazado 3767" d="M216.9,3124.572c-.006-.066.1-.283.472-.532a2.172,2.172,0,0,0-2.43-3.6,4.913,4.913,0,0,0-2.369,4.505,5.443,5.443,0,0,0,3.438,4.347c.648.292.88.635.892.756.005.067-.1.284-.473.533a2.173,2.173,0,0,0,2.431,3.6,4.911,4.911,0,0,0,2.369-4.5,5.445,5.445,0,0,0-3.438-4.349c-.652-.3-.884-.637-.892-.759Z" fill="#a4dbf5"/>
      <path id="Trazado_3768" data-name="Trazado 3768" d="M207.01,3130.577a2.173,2.173,0,0,0,2.43,3.6,4.914,4.914,0,0,0,2.369-4.5,5.445,5.445,0,0,0-3.438-4.348c-.648-.292-.88-.634-.892-.756-.005-.066.1-.283.473-.532a2.172,2.172,0,0,0-2.431-3.6,4.913,4.913,0,0,0-2.369,4.505,5.443,5.443,0,0,0,3.438,4.347c.649.292.881.635.892.756.006.067-.1.281-.472.53Z" fill="#a4dbf5"/>
      <path id="Trazado_3769" data-name="Trazado 3769" d="M189.234,3150.482H177.793a2.9,2.9,0,0,1-2.9-2.9v-43.447a2.9,2.9,0,0,1,2.9-2.9h31.862a2.9,2.9,0,0,1,2.9,2.9v9.413a2.9,2.9,0,1,0,5.793,0v-9.413a8.7,8.7,0,0,0-8.689-8.69H177.793a8.7,8.7,0,0,0-8.69,8.69v43.447a8.7,8.7,0,0,0,8.69,8.69h11.441a2.9,2.9,0,1,0,0-5.793Z" fill="#a4dbf5"/>
      <path id="Trazado_3770" data-name="Trazado 3770" d="M180.69,3122.241H190.1a2.173,2.173,0,0,0,2.173-2.172v-9.414a2.174,2.174,0,0,0-2.173-2.172H180.69a2.173,2.173,0,0,0-2.173,2.172v9.414a2.173,2.173,0,0,0,2.173,2.172Z" fill="#a4dbf5"/>
      <path id="Trazado_3771" data-name="Trazado 3771" d="M209.655,3110.655a2.173,2.173,0,0,0-2.173-2.172h-7.965a2.172,2.172,0,1,0,0,4.344h7.965a2.173,2.173,0,0,0,2.173-2.172Z" fill="#a4dbf5"/>
      <path id="Trazado_3772" data-name="Trazado 3772" d="M180.69,3139.62a2.172,2.172,0,1,0,0,4.345h7.965a2.172,2.172,0,0,0,0-4.345Z" fill="#a4dbf5"/>
      <path id="Trazado_3773" data-name="Trazado 3773" d="M200.82,3130.93a2.173,2.173,0,0,0-2.172-2.172H180.69a2.172,2.172,0,1,0,0,4.345h17.958a2.173,2.173,0,0,0,2.172-2.173Z" fill="#a4dbf5"/>
    </g>
  </g>
</svg>
