<svg xmlns="http://www.w3.org/2000/svg" width="98.394" height="72.144" viewBox="0 0 98.394 72.144">
  <g id="Grupo_10601" data-name="Grupo 10601" transform="translate(-164.315 -4947.716)">
    <line id="Línea_434" data-name="Línea 434" y2="68.144" transform="translate(260.709 4949.716)" fill="none" stroke="#a4dbf5" stroke-linecap="round" stroke-miterlimit="10" stroke-width="4"/>
    <g id="Grupo_10454" data-name="Grupo 10454">
      <path id="Trazado_3774" data-name="Trazado 3774" d="M166.632,5018.546h74.459a2.317,2.317,0,0,0,2.317-2.317v-64.882a2.317,2.317,0,0,0-2.317-2.317H166.632a2.317,2.317,0,0,0-2.317,2.317v64.882a2.317,2.317,0,0,0,2.317,2.317Zm2.317-64.882h69.825v60.247H168.949Zm0,0" fill="#a4dbf5"/>
      <path id="Trazado_3775" data-name="Trazado 3775" d="M234.14,4960.616a2.317,2.317,0,1,1-2.318-2.317,2.317,2.317,0,0,1,2.318,2.317Zm0,0" fill="#a4dbf5"/>
      <path id="Trazado_3776" data-name="Trazado 3776" d="M224.871,4960.616a2.318,2.318,0,1,1-2.317-2.317,2.317,2.317,0,0,1,2.317,2.317Zm0,0" fill="#a4dbf5"/>
      <path id="Trazado_3777" data-name="Trazado 3777" d="M215.6,4960.616a2.317,2.317,0,1,1-2.317-2.317,2.317,2.317,0,0,1,2.317,2.317Zm0,0" fill="#a4dbf5"/>
      <path id="Trazado_3778" data-name="Trazado 3778" d="M175.9,4962.933h28.115a2.317,2.317,0,0,0,0-4.634H175.9a2.317,2.317,0,1,0,0,4.634Zm0,0" fill="#a4dbf5"/>
      <path id="Trazado_3779" data-name="Trazado 3779" d="M231.822,4967.567H175.9a2.317,2.317,0,0,0-2.318,2.318v37.075a2.316,2.316,0,0,0,2.318,2.317h55.921a2.316,2.316,0,0,0,2.318-2.317v-37.075a2.317,2.317,0,0,0-2.318-2.318Zm-2.317,37.076H178.218V4972.2h51.287Zm0,0" fill="#a4dbf5"/>
      <path id="Trazado_3780" data-name="Trazado 3780" d="M213.674,4994.342a2.315,2.315,0,0,0,3.213.642l6.952-4.634a2.316,2.316,0,0,0,0-3.855l-6.952-4.635a2.317,2.317,0,1,0-2.57,3.856l4.059,2.706-4.06,2.707a2.317,2.317,0,0,0-.642,3.213Zm0,0" fill="#a4dbf5"/>
      <path id="Trazado_3781" data-name="Trazado 3781" d="M183.885,4990.35l6.951,4.634a2.317,2.317,0,1,0,2.57-3.855l-4.059-2.707,4.06-2.706a2.317,2.317,0,1,0-2.571-3.856l-6.951,4.635a2.315,2.315,0,0,0,0,3.855Zm0,0" fill="#a4dbf5"/>
      <path id="Trazado_3782" data-name="Trazado 3782" d="M198.009,4999.75a2.319,2.319,0,0,0,3.123-1l9.577-18.538a2.317,2.317,0,0,0-4.117-2.127l-9.578,18.537a2.317,2.317,0,0,0,.995,3.123Zm0,0" fill="#a4dbf5"/>
    </g>
  </g>
</svg>
