<svg xmlns="http://www.w3.org/2000/svg" width="1138.615" height="331.116" viewBox="0 0 1138.615 331.116">
  <g id="Grupo_10592" data-name="Grupo 10592" transform="translate(-150 -3557.759)">
    <rect id="Rectángulo_4204" data-name="Rectángulo 4204" width="1138.615" height="331.116" transform="translate(150 3557.759)" fill="#f0746a"/>
    <path id="Trazado_3589" data-name="Trazado 3589" d="M894.286,3721.572c0,.016,0,.032,0,.048H845.006a.992.992,0,1,0,0,1.983h69.779v34.071a1.033,1.033,0,0,0,2.065,0V3723.6h38.555a.992.992,0,1,0,0-1.983H896.348c0-.016,0-.032,0-.048V3687.5h38.555a.992.992,0,1,0,0-1.983H859.633v-36.732h38.556a.992.992,0,1,0,0-1.982H787.79a.992.992,0,1,0,0,1.982h69.78v36.732H824.505a.992.992,0,1,0,0,1.983h69.781Z" transform="translate(0 -1)" fill="#e2615a"/>
    <path id="Trazado_3590" data-name="Trazado 3590" d="M1199.351,3643.867l0,.048h-49.282a.992.992,0,1,0,0,1.982h69.781v34.072a1.033,1.033,0,0,0,2.064,0V3645.9h38.554a.992.992,0,1,0,0-1.982h-59.056c0-.016,0-.033,0-.048v-34.073h38.556a.992.992,0,1,0,0-1.982H1164.7V3571.08h38.555a.992.992,0,1,0,0-1.983h-110.4a.992.992,0,1,0,0,1.983h69.779v36.732h-33.063a.992.992,0,1,0,0,1.982h69.779Z" transform="translate(0 -1)" fill="#e2615a"/>
    <path id="Trazado_3591" data-name="Trazado 3591" d="M569.115,3748.049c-.162,0,.136.064,0,0Z" transform="translate(0 -1)" fill="#e2615a"/>
    <path id="Trazado_3592" data-name="Trazado 3592" d="M626.336,3820.884H567.28c0-.016,0-.032,0-.048v-34.072h38.556a.992.992,0,1,0,0-1.982H530.565v-36.733h38.55c1.017,0,1.484-.345,1.484-.891v-34.072h38.556a.992.992,0,1,0,0-1.982H544.761v-33.518h38.555a.992.992,0,1,0,0-1.982h-110.4a.992.992,0,1,0,0,1.982H542.7V3711.1H498.755a.992.992,0,1,0,0,1.982h69.78v32.981H458.721a.992.992,0,1,0,0,1.982H528.5v36.733H495.437a.992.992,0,1,0,0,1.982h69.781v34.072c0,.016,0,.032,0,.048H515.937a.992.992,0,1,0,0,1.982h69.781v34.071a1.032,1.032,0,0,0,2.063,0v-34.071h38.555a.992.992,0,1,0,0-1.982Z" transform="translate(0 -1)" fill="#e2615a"/>
    <path id="Trazado_3593" data-name="Trazado 3593" d="M897.716,3863.109a1.032,1.032,0,0,0,2.063,0v-34.072h38.555a.992.992,0,1,0,0-1.982h-110.4a.992.992,0,1,0,0,1.982h69.781Z" transform="translate(0 -1)" fill="#e2615a"/>
    <path id="Trazado_3594" data-name="Trazado 3594" d="M1268.4,3844.8h-64.393v-33.516h38.554a.992.992,0,1,0,0-1.983h-110.4a.992.992,0,1,0,0,1.983h69.779V3844.8H1158a.993.993,0,1,0,0,1.984h69.781v34.07a1.033,1.033,0,0,0,2.064,0v-34.07H1268.4a.993.993,0,1,0,0-1.984Z" transform="translate(0 -1)" fill="#e2615a"/>
    <path id="Trazado_3595" data-name="Trazado 3595" d="M301.451,3604.6H237.057v-33.517h38.556a.993.993,0,1,0,0-1.984h-110.4a.993.993,0,1,0,0,1.984h69.78V3604.6H191.052a.992.992,0,1,0,0,1.983h69.78v34.071a1.033,1.033,0,0,0,2.064,0v-34.071h38.555a.992.992,0,1,0,0-1.983Z" transform="translate(0 -1)" fill="#e2615a"/>
    <path id="Trazado_3596" data-name="Trazado 3596" d="M320.423,3833.643H256.03v-33.516h38.555a.993.993,0,1,0,0-1.984h-110.4a.993.993,0,1,0,0,1.984h69.78v33.516H210.024a.993.993,0,1,0,0,1.984H279.8V3869.7a1.033,1.033,0,0,0,2.064,0v-34.071h38.555a.993.993,0,1,0,0-1.984Z" transform="translate(0 -1)" fill="#e2615a"/>
    <path id="Trazado_3633" data-name="Trazado 3633" d="M858.275,3726.4s-2.268,16.8,3.128,18.9l4.2-16.925Z" transform="translate(0 -1)" fill="#f39f85"/>
    <g id="Grupo_10371" data-name="Grupo 10371" transform="translate(0 -1)">
      <g id="Grupo_10362" data-name="Grupo 10362">
        <g id="Grupo_10359" data-name="Grupo 10359">
          <rect id="Rectángulo_4237" data-name="Rectángulo 4237" width="15.733" height="15.733" transform="translate(641.317 3621.763) rotate(-4.379)" fill="#5d5d5d" opacity="0.27" style="mix-blend-mode: multiply;isolation: isolate"/>
          <rect id="Rectángulo_4238" data-name="Rectángulo 4238" width="15.733" height="15.733" transform="translate(640.373 3620.504) rotate(-4.379)" fill="#ffa21a"/>
        </g>
        <g id="Grupo_10360" data-name="Grupo 10360">
          <rect id="Rectángulo_4239" data-name="Rectángulo 4239" width="15.733" height="15.735" transform="translate(639.213 3641.264) rotate(-3.608)" fill="#5d5d5d" opacity="0.27" style="mix-blend-mode: multiply;isolation: isolate"/>
          <rect id="Rectángulo_4240" data-name="Rectángulo 4240" width="15.733" height="15.735" transform="matrix(0.998, -0.063, 0.063, 0.998, 638.269, 3640.005)" fill="#bee51c"/>
        </g>
        <g id="Grupo_10361" data-name="Grupo 10361">
          <path id="Trazado_3634" data-name="Trazado 3634" d="M625.13,3636.726l15.514,2.5a.009.009,0,0,0,.011-.007l2.5-15.514a.009.009,0,0,0-.007-.011l-15.514-2.5a.01.01,0,0,0-.011.008l-2.5,15.514A.008.008,0,0,0,625.13,3636.726Z" fill="#5d5d5d" opacity="0.27" style="mix-blend-mode: multiply;isolation: isolate"/>
          <path id="Trazado_3635" data-name="Trazado 3635" d="M624.186,3635.467l15.514,2.5a.011.011,0,0,0,.011-.008l2.5-15.514a.008.008,0,0,0-.007-.01l-15.514-2.5a.011.011,0,0,0-.011.008l-2.5,15.514A.008.008,0,0,0,624.186,3635.467Z" fill="#bee51c"/>
        </g>
      </g>
      <path id="Trazado_3636" data-name="Trazado 3636" d="M628.766,3625.745c1.405.533,3.419.31,4.925.426a14.339,14.339,0,0,1,4.322.864c.756.315.424,1.564-.343,1.244a16.905,16.905,0,0,0-5.17-.865,15.577,15.577,0,0,1-4.077-.425C627.654,3626.7,627.988,3625.45,628.766,3625.745Z" fill="#695c70"/>
      <path id="Trazado_3637" data-name="Trazado 3637" d="M628.121,3627.9c1.246.282,2.472.707,3.721,1.017,1.482.368,2.973.743,4.451,1.134a.646.646,0,0,1-.343,1.244c-1.478-.391-2.969-.766-4.451-1.134-1.244-.309-2.482-.736-3.721-1.016C626.969,3628.956,627.311,3627.712,628.121,3627.9Z" fill="#695c70"/>
      <path id="Trazado_3638" data-name="Trazado 3638" d="M631.347,3631.766c.9.159,1.655.712,2.544.9a.63.63,0,0,1,.45.451c.012.058.025.115.037.173a.654.654,0,0,1-1.161.532,18.348,18.348,0,0,0-2.213-.814C630.188,3632.867,630.534,3631.623,631.347,3631.766Z" fill="#695c70"/>
      <path id="Trazado_3639" data-name="Trazado 3639" d="M644.938,3624.432a9.6,9.6,0,0,0,1.6-.412c.71-.119,1.44-.093,2.156-.21.525-.085,1.039-.18,1.572-.215.584-.039,1.479.123,1.961-.265.641-.516,1.56.392.912.913-1.089.876-2.572.552-3.877.765-.695.114-1.348.2-2.05.257-.8.064-1.474.461-2.271.457A.645.645,0,0,1,644.938,3624.432Z" fill="#695c70"/>
      <path id="Trazado_3640" data-name="Trazado 3640" d="M646.272,3627.25c.771-.163,1.535-.229,2.305-.382a4.451,4.451,0,0,1,2.087-.011.642.642,0,0,1,.451.451c.012.059.024.118.037.178a.662.662,0,0,1-1.15.563,4.764,4.764,0,0,0-1.466.151c-.64.13-1.279.159-1.921.294C645.8,3628.666,645.459,3627.422,646.272,3627.25Z" fill="#695c70"/>
      <path id="Trazado_3641" data-name="Trazado 3641" d="M642.186,3646.82a36.456,36.456,0,0,1,8.774-1.1.646.646,0,0,1,0,1.291,35.6,35.6,0,0,0-8.431,1.052A.646.646,0,0,1,642.186,3646.82Z" fill="#695c70"/>
      <g id="Grupo_10365" data-name="Grupo 10365">
        <path id="Trazado_3642" data-name="Trazado 3642" d="M789.253,3639.963h-37.78l1.29-56.047h37.78Z" fill="#695c70" opacity="0.6" style="mix-blend-mode: multiply;isolation: isolate"/>
        <path id="Trazado_3643" data-name="Trazado 3643" d="M792.145,3637.2H754.232c-1.276-14.633-1.468-29.37-1.468-53.933h37.913C790.677,3606.058,790.909,3619.873,792.145,3637.2Z" fill="#f2fafd"/>
        <g id="Grupo_10363" data-name="Grupo 10363">
          <path id="Trazado_3644" data-name="Trazado 3644" d="M756.422,3585.868a3.337,3.337,0,1,0-3.337,3.337A3.337,3.337,0,0,0,756.422,3585.868Z" fill="#b1b6bc" opacity="0.5"/>
          <circle id="Elipse_52" data-name="Elipse 52" cx="3.338" cy="3.338" r="3.338" transform="translate(750.227 3581.668)" fill="#f24938"/>
          <path id="Trazado_3645" data-name="Trazado 3645" d="M755.3,3587.409a3.335,3.335,0,0,1-2.378-5.677,3.337,3.337,0,1,0,3.021,5.614A3.4,3.4,0,0,1,755.3,3587.409Z" fill="#a72e1f"/>
        </g>
        <g id="Grupo_10364" data-name="Grupo 10364">
          <path id="Trazado_3646" data-name="Trazado 3646" d="M793.234,3585.468a3.337,3.337,0,1,0-3.338,3.338A3.337,3.337,0,0,0,793.234,3585.468Z" fill="#b1b6bc" opacity="0.5"/>
          <circle id="Elipse_53" data-name="Elipse 53" cx="3.338" cy="3.338" r="3.338" transform="translate(787.039 3581.269)" fill="#f24938"/>
          <path id="Trazado_3647" data-name="Trazado 3647" d="M792.111,3587.01a3.336,3.336,0,0,1-2.378-5.677,3.337,3.337,0,1,0,3.021,5.614A3.392,3.392,0,0,1,792.111,3587.01Z" fill="#a72e1f"/>
        </g>
        <line id="Línea_428" data-name="Línea 428" x2="11.792" transform="translate(765.535 3590.012)" fill="none" stroke="#1784ad" stroke-linecap="round" stroke-linejoin="round" stroke-width="4.691"/>
        <line id="Línea_429" data-name="Línea 429" x2="19.215" transform="translate(760.694 3597.775)" fill="none" stroke="#66e6ef" stroke-linecap="round" stroke-linejoin="round" stroke-width="2"/>
        <line id="Línea_430" data-name="Línea 430" x2="21.171" transform="translate(760.694 3603.517)" fill="none" stroke="#66e6ef" stroke-linecap="round" stroke-linejoin="round" stroke-width="2"/>
        <line id="Línea_431" data-name="Línea 431" x2="9.839" transform="translate(760.694 3609.26)" fill="none" stroke="#66e6ef" stroke-linecap="round" stroke-linejoin="round" stroke-width="2"/>
        <line id="Línea_432" data-name="Línea 432" x2="22.54" transform="translate(760.694 3615.002)" fill="none" stroke="#66e6ef" stroke-linecap="round" stroke-linejoin="round" stroke-width="2"/>
        <line id="Línea_433" data-name="Línea 433" x2="7.805" transform="translate(760.694 3620.745)" fill="none" stroke="#66e6ef" stroke-linecap="round" stroke-linejoin="round" stroke-width="2"/>
      </g>
      <g id="Grupo_10366" data-name="Grupo 10366">
        <rect id="Rectángulo_4241" data-name="Rectángulo 4241" width="16.35" height="16.35" transform="translate(832.162 3594.782)" fill="#5d5d5d" opacity="0.27" style="mix-blend-mode: multiply;isolation: isolate"/>
        <rect id="Rectángulo_4242" data-name="Rectángulo 4242" width="16.35" height="16.35" transform="translate(831.181 3593.474)" fill="#ffa21a"/>
      </g>
      <g id="Grupo_10367" data-name="Grupo 10367">
        <rect id="Rectángulo_4243" data-name="Rectángulo 4243" width="16.35" height="16.35" transform="matrix(0.055, -0.998, 0.998, 0.055, 811.206, 3611.106)" fill="#5d5d5d" opacity="0.27" style="mix-blend-mode: multiply;isolation: isolate"/>
        <rect id="Rectángulo_4244" data-name="Rectángulo 4244" width="16.35" height="16.35" transform="translate(810.225 3609.799) rotate(-86.852)" fill="#64dbff"/>
      </g>
      <g id="Grupo_10368" data-name="Grupo 10368">
        <rect id="Rectángulo_4245" data-name="Rectángulo 4245" width="16.351" height="16.35" transform="matrix(0.984, -0.176, 0.176, 0.984, 830.933, 3604.651)" fill="#5d5d5d" opacity="0.27" style="mix-blend-mode: multiply;isolation: isolate"/>
        <rect id="Rectángulo_4246" data-name="Rectángulo 4246" width="16.351" height="16.35" transform="matrix(0.984, -0.176, 0.176, 0.984, 829.952, 3603.343)" fill="#ffe527"/>
      </g>
      <g id="Grupo_10369" data-name="Grupo 10369">
        <rect id="Rectángulo_4247" data-name="Rectángulo 4247" width="15.826" height="15.826" transform="translate(726.967 3586.784)" fill="#5d5d5d" opacity="0.27" style="mix-blend-mode: multiply;isolation: isolate"/>
        <rect id="Rectángulo_4248" data-name="Rectángulo 4248" width="15.826" height="15.826" transform="translate(726.017 3585.518)" fill="#ff5592"/>
      </g>
      <g id="Grupo_10370" data-name="Grupo 10370">
        <rect id="Rectángulo_4249" data-name="Rectángulo 4249" width="15.826" height="15.826" transform="translate(707.552 3601.919) rotate(-85.194)" fill="#5d5d5d" opacity="0.27" style="mix-blend-mode: multiply;isolation: isolate"/>
        <rect id="Rectángulo_4250" data-name="Rectángulo 4250" width="15.826" height="15.826" transform="translate(706.602 3600.653) rotate(-85.194)" fill="#bee51c"/>
      </g>
      <path id="Trazado_3648" data-name="Trazado 3648" d="M710.724,3588.091c3.207,1.259,6.583.968,9.936,1.267.82.074.828,1.365,0,1.291-3.477-.311-6.95-.007-10.279-1.314C709.617,3589.035,709.95,3587.787,710.724,3588.091Z" fill="#8e9ead"/>
      <path id="Trazado_3649" data-name="Trazado 3649" d="M709.649,3590.672c2.483.56,5.058.5,7.574.9,1.16.185,3.277.219,3.994,1.33.452.7-.665,1.347-1.114.651-.27-.417-1.3-.323-1.748-.4-1.119-.184-2.2-.405-3.33-.533a51.912,51.912,0,0,1-5.719-.709C708.5,3591.733,708.839,3590.489,709.649,3590.672Z" fill="#8e9ead"/>
      <path id="Trazado_3650" data-name="Trazado 3650" d="M730.982,3589.143c1.1-.019,2.236-.191,3.35-.232,1.323-.048,2.637-.19,3.962-.2a.645.645,0,0,1,0,1.29c-1.325.008-2.639.15-3.962.2-1.124.041-2.239.212-3.35.232A.646.646,0,0,1,730.982,3589.143Z" fill="#695c70"/>
      <path id="Trazado_3651" data-name="Trazado 3651" d="M729.736,3591.747c2.924-.934,5.954-.574,8.988-.238.816.09.825,1.381,0,1.29-2.838-.314-5.883-.69-8.645.192C729.286,3593.244,728.946,3592,729.736,3591.747Z" fill="#695c70"/>
      <path id="Trazado_3652" data-name="Trazado 3652" d="M730.337,3594.089c1.733,0,3.5-.087,5.226.029a6.527,6.527,0,0,1,3.272.705c.662.485.019,1.606-.652,1.114-.865-.635-2.74-.546-3.76-.557-1.362-.015-2.724,0-4.086,0A.646.646,0,0,1,730.337,3594.089Z" fill="#695c70"/>
      <path id="Trazado_3653" data-name="Trazado 3653" d="M813.654,3598.31c1.2.062,2.168.76,3.354.884a36.219,36.219,0,0,0,3.712-.024c1.179,0,3.09-.464,3.813.75a.646.646,0,0,1-1.114.651c-.335-.562-4.418-.114-4.976-.1a9.664,9.664,0,0,1-2.075-.061,18.535,18.535,0,0,0-2.714-.806C812.828,3599.558,812.823,3598.267,813.654,3598.31Z" fill="#695c70"/>
      <path id="Trazado_3654" data-name="Trazado 3654" d="M815.59,3601.536c2.033.039,4.292.05,6.131.948.747.364.093,1.477-.651,1.114-1.578-.77-3.734-.738-5.48-.772A.645.645,0,0,1,815.59,3601.536Z" fill="#695c70"/>
      <path id="Trazado_3655" data-name="Trazado 3655" d="M833.052,3606.5a19.96,19.96,0,0,1,4.355-.865,26.923,26.923,0,0,0,5.752-1.285c.773-.3,1.109.943.343,1.244a22.432,22.432,0,0,1-4.871,1.251,22.813,22.813,0,0,0-5.236.9C832.626,3608.062,832.292,3606.815,833.052,3606.5Z" fill="#695c70"/>
      <path id="Trazado_3656" data-name="Trazado 3656" d="M833.654,3609.493c1.7-.015,3.136-.871,4.768-1.081a14.425,14.425,0,0,0,2.694-.4,7.578,7.578,0,0,1,2.215-.453c.83-.027.829,1.263,0,1.29a13.606,13.606,0,0,0-2.723.689c-.83.194-1.709.036-2.533.244a18.246,18.246,0,0,1-4.421,1A.645.645,0,0,1,833.654,3609.493Z" fill="#695c70"/>
      <path id="Trazado_3657" data-name="Trazado 3657" d="M839.219,3611.187a2.643,2.643,0,0,1,1.929-.468c.873.049,1.737.064,2.613.064a.645.645,0,0,1,0,1.29c-.666,0-1.336.026-2-.016-.416-.026-1.271-.244-1.629.042C839.488,3612.612,838.569,3611.705,839.219,3611.187Z" fill="#695c70"/>
      <path id="Trazado_3658" data-name="Trazado 3658" d="M834.276,3597.708c-.025-.12,8.488-.258,9.055-.258a.645.645,0,0,1,0,1.29c-1.876,0-3.767-.068-5.641.005a18.119,18.119,0,0,1-4.171-.065.627.627,0,0,1-.451-.45l-.036-.178C832.865,3597.241,834.108,3596.9,834.276,3597.708Z" fill="#695c70"/>
    </g>
    <g id="Grupo_10377" data-name="Grupo 10377" transform="translate(0 -1)">
      <g id="Grupo_10373" data-name="Grupo 10373">
        <path id="Trazado_3659" data-name="Trazado 3659" d="M582.022,3645.592l-9.054-.049a16.224,16.224,0,0,0,.431-4.869,2.7,2.7,0,0,0-1.265-1.933c-8.874-5.548-6.7-11.885-6.7-11.885s.966-8.046,12.371-8.764c12.161-.765,11.375,10.036,11.375,10.036s.522,6.015-5.808,10.063a3.646,3.646,0,0,0-1.617,2.622A13.024,13.024,0,0,0,582.022,3645.592Z" fill="#ffd147"/>
        <path id="Trazado_3660" data-name="Trazado 3660" d="M572.968,3645.521l-.018,3.243a2.031,2.031,0,0,0,1.752,2.219l5.513.03a2.032,2.032,0,0,0,1.777-2.2l.017-3.243Z" fill="#01888b"/>
        <path id="Trazado_3661" data-name="Trazado 3661" d="M575.272,3650.986l.615,1.485,3.428.019.758-1.478Z" fill="#fff"/>
        <g id="Grupo_10372" data-name="Grupo 10372">
          <path id="Trazado_3662" data-name="Trazado 3662" d="M576.115,3632.678c.115,0,.244-.007.369-.012l-.07,12.847.619,0,.07-12.9a10.45,10.45,0,0,0,1.364-.237c.007.242.012.479.009.7q-.029,2.125-.059,4.25-.057,4.095-.114,8.189l.619,0q.093-6.663.185-13.324a5.313,5.313,0,0,0,2.005-1.066c2.111-2-1.487-4.189-2.445-1.384a6.35,6.35,0,0,0-.212,2.126,13.375,13.375,0,0,1-1.422.321s.017-1.186.006-1.947a1.792,1.792,0,0,0-.422-1.182c-1.592-1.763-4.984-.51-3.621,2.06A3.477,3.477,0,0,0,576.115,3632.678Zm3.018-1.905c-.007-.31.454-2.782,1.979-1.4a.669.669,0,0,1,.222.574c-.12.87-1.356,1.453-2.229,1.738A7.433,7.433,0,0,1,579.133,3630.773Zm-5.355-1.893a1.928,1.928,0,0,1,2.32.438,1.365,1.365,0,0,1,.4.98l-.011,1.975a3.045,3.045,0,0,1-2.961-1.244A1.57,1.57,0,0,1,573.778,3628.88Z" fill="#fff"/>
        </g>
      </g>
      <g id="Grupo_10374" data-name="Grupo 10374">
        <path id="Trazado_3663" data-name="Trazado 3663" d="M589.4,3615.946a.478.478,0,0,1,0-.677l4.6-4.546a.479.479,0,1,1,.674.68l-4.6,4.547A.479.479,0,0,1,589.4,3615.946Z" fill="#ffda70"/>
      </g>
      <g id="Grupo_10375" data-name="Grupo 10375">
        <path id="Trazado_3664" data-name="Trazado 3664" d="M569.221,3615.837a.479.479,0,0,0,0-.677l-4.547-4.6a.479.479,0,0,0-.681.674l4.547,4.6A.479.479,0,0,0,569.221,3615.837Z" fill="#ffda70"/>
      </g>
      <g id="Grupo_10376" data-name="Grupo 10376">
        <path id="Trazado_3665" data-name="Trazado 3665" d="M577.873,3614.206a.478.478,0,0,1-.476-.481l.035-6.465a.479.479,0,1,1,.958,0l-.035,6.465A.48.48,0,0,1,577.873,3614.206Z" fill="#ffda70"/>
      </g>
    </g>
    <g id="Grupo_10384" data-name="Grupo 10384" transform="translate(0 -1)">
      <path id="Trazado_3666" data-name="Trazado 3666" d="M856.309,3728.377s-4.875-72.255,21.908-78.116l-11.128,79.513Z" fill="#a9f3f9"/>
      <g id="Grupo_10383" data-name="Grupo 10383">
        <g id="Grupo_10378" data-name="Grupo 10378">
          <path id="Trazado_3667" data-name="Trazado 3667" d="M861.454,3878.278s-3.776,3.5-12.384,5.695c-1.9.482-3.939-.163-3.939,2.964h10.447l8.689-1.5v1.5h4.693s1.306-7.675-1.435-8.659Z" fill="#212b53"/>
          <path id="Trazado_3668" data-name="Trazado 3668" d="M861.983,3872.765l-.529,5.513h0a5.307,5.307,0,0,0,5.749.192l.322-.192.975-5.513Z" fill="#f7b58e"/>
        </g>
        <g id="Grupo_10379" data-name="Grupo 10379">
          <path id="Trazado_3669" data-name="Trazado 3669" d="M899.291,3878.278s-3.776,3.5-12.385,5.695c-1.9.482-3.939-.163-3.939,2.964h10.448l8.688-1.5v1.5H906.8s1.307-7.675-1.434-8.659Z" fill="#212b53"/>
          <path id="Trazado_3670" data-name="Trazado 3670" d="M899.819,3872.765l-.528,5.513h0a5.307,5.307,0,0,0,5.749.192l.322-.192.975-5.513Z" fill="#f7b58e"/>
        </g>
        <g id="Grupo_10381" data-name="Grupo 10381">
          <path id="Trazado_3671" data-name="Trazado 3671" d="M884.1,3639.013,883,3649.8l11.563.458-2.317-16.728Z" fill="#f39f85"/>
          <g id="Grupo_10380" data-name="Grupo 10380">
            <path id="Trazado_3672" data-name="Trazado 3672" d="M880.546,3640.985a5.8,5.8,0,0,1-3.24-.769c-3.875-5.635.539-20.824.539-20.824l6.192-2.607,7.868,4.908.448,10.178a8.257,8.257,0,0,1-3.513,7.021h0A16.129,16.129,0,0,1,880.546,3640.985Z" fill="#f7b58e"/>
          </g>
          <path id="Trazado_3673" data-name="Trazado 3673" d="M890.666,3627.461c-.433-1.71-.207-5.655-1.948-5.37-1.27.208-5.622.387-7.087.387-3.49,0-9.711-1.365-9.711-6.676,0-2.655,2.576-4.945,4.207-5.625a7.069,7.069,0,0,1,5.047-.064c3.843,1.343,8.94,4.307,10.972,3.9,3.42-.688,6.831,1.318,6.783,4.223-.051,3.1-1.671,7.772-3.2,10.738a16.327,16.327,0,0,1-3.486,4.56h0Z" fill="#603813"/>
          <path id="Trazado_3674" data-name="Trazado 3674" d="M894.2,3627.845a2.626,2.626,0,0,0-3.251.291c-1.018.847-1.213,2.091-.435,2.778a2.627,2.627,0,0,0,3.251-.291C894.787,3629.776,894.982,3628.532,894.2,3627.845Z" fill="#f7b58e"/>
        </g>
        <path id="Trazado_3675" data-name="Trazado 3675" d="M888.783,3646.672q-.594,0-1.17.021c-12.751.468-22.711,18.063-22.711,30.823v46.147h49.216V3670.85a23.931,23.931,0,0,0-20.007-23.783A35.075,35.075,0,0,0,888.783,3646.672Z" fill="#c2f5f9"/>
        <path id="Trazado_3676" data-name="Trazado 3676" d="M873.083,3714.73l-10.891,1.252c-4.454.171-8.023-6.17-9.221-11.02a1,1,0,0,1,1.22-1.2c3.825.938,13.666,3.417,16.273,4.715Z" fill="#f7b58e"/>
        <path id="Trazado_3677" data-name="Trazado 3677" d="M911.224,3659.325s24.822,33.151,9.229,49.232-50.678,9.258-50.678,9.258v-10.233s33.135.081,35.085-11.167-7.879-23.43-7.879-23.43" fill="#c2f5f9"/>
        <g id="Grupo_10382" data-name="Grupo 10382">
          <path id="Trazado_3678" data-name="Trazado 3678" d="M914.118,3712.817c-15.707,9.047-40.438,5.183-43.855,4.591v-9.34c4.3-.035,33.189-.677,35.076-11.57,1.965-11.335-7.572-23.315-7.98-23.819l-.757.612c.1.12,9.667,12.136,7.778,23.041-1.848,10.662-33.944,10.763-34.6,10.763h-.5v11.123l.394.076a99.744,99.744,0,0,0,16.857,1.407c8.746,0,19.293-1.208,27.579-5.786Z" fill="#85ebf2"/>
        </g>
        <path id="Trazado_3679" data-name="Trazado 3679" d="M864.9,3723.663c-5.626,27.3-6.49,56.674-6.618,81.332a652.436,652.436,0,0,0,3.054,68.745h8.122L886.417,3760.2s1.85,16.885,4.352,45.516c1.964,22.468,2.891,41.46,8.167,68.022h8.148s7.034-81.982,7.034-150.077Z" fill="#053c5e"/>
        <path id="Trazado_3680" data-name="Trazado 3680" d="M883.517,3643.758H893.8l1.636,3.785H882.193Z" fill="#fff"/>
      </g>
    </g>
    <g id="Grupo_10410" data-name="Grupo 10410" transform="translate(0 -1)">
      <g id="Grupo_10396" data-name="Grupo 10396">
        <g id="Grupo_10385" data-name="Grupo 10385">
          <path id="Trazado_3681" data-name="Trazado 3681" d="M719.037,3878.282l10.643-77.541-1.951-.268-10.68,77.809Z" fill="#ffca7d"/>
        </g>
        <g id="Grupo_10386" data-name="Grupo 10386">
          <path id="Trazado_3682" data-name="Trazado 3682" d="M788.068,3886.4l-16.046-85.656,1.951-.268,16.083,85.924Z" fill="#ffca7d"/>
        </g>
        <g id="Grupo_10395" data-name="Grupo 10395">
          <path id="Trazado_3683" data-name="Trazado 3683" d="M780.68,3797.371s24.16-55.4,7.434-71.43c-9.931-9.517-28.416-8.135-41.8-5.44a19.793,19.793,0,0,0-15.926,19.389v56.793Z" fill="#00718b"/>
          <g id="Grupo_10387" data-name="Grupo 10387">
            <path id="Trazado_3684" data-name="Trazado 3684" d="M728.555,3720.974a28.22,28.22,0,0,1,14.561-10.083,55.418,55.418,0,0,1,15.342-2q.766,0,1.506.022c11.952.361,21.691,7.548,26.965,18.279l2.651,5.319-13.927,5.412-2.567-4.059,4.1,40.823-40.7-2.139.4-43.7-13.535.239Z" fill="#7ac943"/>
            <path id="Trazado_3685" data-name="Trazado 3685" d="M753.194,3705.763l-.663,5s-.283,2.594,4.351,2.594a6.958,6.958,0,0,0,3.883-.94,2.8,2.8,0,0,0,1.2-2.726l-1.437-10.764Z" fill="#f39f85"/>
            <path id="Trazado_3686" data-name="Trazado 3686" d="M788.784,3732.913s6.686,14.8,3.82,18.862-41.027-4.536-41.027-4.536v-5.014l28.851,1.91-4.018-6.5Z" fill="#f7b58e"/>
            <path id="Trazado_3687" data-name="Trazado 3687" d="M719.9,3740.327s-9.3,6.037-9.306,10.6,17.031,1.1,17.031,1.1Z" fill="#f7b58e"/>
            <path id="Trazado_3688" data-name="Trazado 3688" d="M749.867,3728.377h-40.35l11.813,25.083h40.047Z" fill="#ccc"/>
            <path id="Trazado_3689" data-name="Trazado 3689" d="M752.031,3706.281a5.338,5.338,0,0,1-3.3-.167c-4.975-5.191-4.035-22.149-4.035-22.149l14.084-.372,2.66,10.684a9.24,9.24,0,0,1-1.857,8.133h0A14.833,14.833,0,0,1,752.031,3706.281Z" fill="#f7b58e"/>
            <path id="Trazado_3690" data-name="Trazado 3690" d="M741.083,3681.366c1.835-2.061,4.739-2.472,6.117-1.667,1.024.6,4.557-5.233,11.562-4.8,4.814.3,11.244,7.762,3.345,22.565-.523-1.651-4.1-10.758-6.534-9.073a14.129,14.129,0,0,1-6.979,3.21,9.5,9.5,0,0,1-8.155-3.246C739.06,3686.5,738.41,3684.408,741.083,3681.366Z" fill="#603813"/>
            <path id="Trazado_3691" data-name="Trazado 3691" d="M761.372,3689.848a2.419,2.419,0,0,0-3.077.957,2.085,2.085,0,0,0,.187,3.027,2.421,2.421,0,0,0,3.078-.957A2.086,2.086,0,0,0,761.372,3689.848Z" fill="#f7b58e"/>
            <path id="Trazado_3692" data-name="Trazado 3692" d="M759.927,3673.113s1.59-3.1,7.052-1.913c9.836,2.676,8.6,14.465,7.592,20.488a11.489,11.489,0,0,0,2.285,9.018c4.869,6.2,12.124,18.137,2.485,24.957a7.6,7.6,0,0,1-6.286,1.281,6.849,6.849,0,0,1-4.238-3.283,7.967,7.967,0,0,1-.7-6.221c.457-1.587.892-3.764.269-4.876-1.05-1.873-7.071-5.534-7.463-11.2s3.207-7.854,4.088-13.835c1.549-10.526-.742-11.853-.742-11.853Z" fill="#603813"/>
            <path id="Trazado_3693" data-name="Trazado 3693" d="M763.426,3677.438l-4.664-2.54,1.166-1.786,4.345,2.559Z" fill="#f6a505"/>
          </g>
          <path id="Trazado_3694" data-name="Trazado 3694" d="M781.211,3806.483h-53.17c0-3.552,1.931-6.644,4.682-7.483,9.684-2.952,29.3-9.085,43.136-7.088,4.587.662,7.773,6.343,6.44,11.888A8.019,8.019,0,0,1,781.211,3806.483Z" fill="#0096b9"/>
          <g id="Grupo_10390" data-name="Grupo 10390">
            <path id="Trazado_3695" data-name="Trazado 3695" d="M680.993,3879.464l-12.8-9.324c-1.873-1-4.244-1.733-5.992,0a18.823,18.823,0,0,0-2.078,2.472c-.062,1.04,17.511,12.571,17.511,12.571l.133-.027A5.318,5.318,0,0,0,680.993,3879.464Z" fill="#01888b"/>
            <path id="Trazado_3696" data-name="Trazado 3696" d="M660.126,3872.616l17.51,12.572-.809.8-17.315-12.575Z" fill="#92cec6"/>
            <g id="Grupo_10388" data-name="Grupo 10388">
              <path id="Trazado_3697" data-name="Trazado 3697" d="M675.936,3875.761l-1.161-.827-1.163,2.357,1.119.813Z" fill="#fff"/>
            </g>
            <g id="Grupo_10389" data-name="Grupo 10389">
              <path id="Trazado_3698" data-name="Trazado 3698" d="M673.463,3873.965l-1.161-.828-1.163,2.357,1.119.813Z" fill="#fff"/>
            </g>
            <path id="Trazado_3699" data-name="Trazado 3699" d="M686.117,3873.51l-5.124,5.954h0a3.985,3.985,0,0,1-3.514-2.386l-.111-.255,1.269-3.753Z" fill="#f7b58e"/>
          </g>
          <path id="Trazado_3700" data-name="Trazado 3700" d="M754.4,3797.082s-15.233,22.294-37.883,32.481c-5.926,13.848-32.312,46.531-32.312,46.531l-5.571-3.024,47.911-82.823Z" fill="#212b53"/>
          <g id="Grupo_10393" data-name="Grupo 10393">
            <path id="Trazado_3701" data-name="Trazado 3701" d="M733,3878.187l-15.834-.025c-2.1.293-4.452,1.091-4.846,3.524a18.779,18.779,0,0,0-.229,3.221c.561.878,21.556-.117,21.556-.117l.091-.1A5.316,5.316,0,0,0,733,3878.187Z" fill="#01888b"/>
            <path id="Trazado_3702" data-name="Trazado 3702" d="M712.091,3884.907l21.556-.117-.187,1.12h-21.4Z" fill="#92cec6"/>
            <g id="Grupo_10391" data-name="Grupo 10391">
              <path id="Trazado_3703" data-name="Trazado 3703" d="M726.732,3878.162l-1.426.013.444,2.591h1.383Z" fill="#fff"/>
            </g>
            <g id="Grupo_10392" data-name="Grupo 10392">
              <path id="Trazado_3704" data-name="Trazado 3704" d="M723.675,3878.162l-1.426.013.444,2.591h1.383Z" fill="#fff"/>
            </g>
            <path id="Trazado_3705" data-name="Trazado 3705" d="M733.647,3870.358l-.647,7.829h0a3.985,3.985,0,0,1-4.245.134l-.241-.141-1.381-7.034Z" fill="#f7b58e"/>
          </g>
          <path id="Trazado_3706" data-name="Trazado 3706" d="M775.414,3773.056v6.619a21.514,21.514,0,0,1-17.685,21.218,67.279,67.279,0,0,1-35.32-3.324c13.1,22.6,11.461,75.5,11.461,75.5h-6.245l-27.857-84.691a11.633,11.633,0,0,1,10.941-15.827Z" fill="#053c5e"/>
          <g id="Grupo_10394" data-name="Grupo 10394">
            <rect id="Rectángulo_4251" data-name="Rectángulo 4251" width="30.239" height="2.865" transform="translate(741.353 3755.866)" fill="#fff"/>
          </g>
        </g>
      </g>
      <g id="Grupo_10409" data-name="Grupo 10409">
        <path id="Trazado_3707" data-name="Trazado 3707" d="M685.708,3707.565l2.864,2.98-3.057,17.56-2.9,1.67Z" fill="gray"/>
        <path id="Trazado_3708" data-name="Trazado 3708" d="M562.777,3729.88s13.42,26.669,21.608,28.193,45.448-11.957,45.448-11.957V3740.8l-37.26.893-8.841-18.288Z" fill="#f39f85"/>
        <path id="Trazado_3709" data-name="Trazado 3709" d="M577.3,3697.4c-44.139,2.235-39.133,77.292-39.133,77.292h47.321S593.739,3747.259,577.3,3697.4Z" fill="#36afea"/>
        <g id="Grupo_10397" data-name="Grupo 10397">
          <path id="Trazado_3710" data-name="Trazado 3710" d="M578.595,3874.4s.026,5.945,11.969,9.515c2.45.732,1.653,1.457,2.113,2.487H578.933l-5.381-6.05-1.674,1.438-3.88-3.812s1.812-5.517,4.766-5.566Z" fill="#212b53"/>
          <path id="Trazado_3711" data-name="Trazado 3711" d="M581.754,3867.114l-3.159,7.282h0a5.387,5.387,0,0,1-5.584-1.7l-.247-.291,1.8-5.294Z" fill="#f7b58e"/>
        </g>
        <g id="Grupo_10398" data-name="Grupo 10398">
          <path id="Trazado_3712" data-name="Trazado 3712" d="M569.126,3685.358l-1.5,13.9a8.566,8.566,0,0,0,6.22,4.166c4.244.458,4.574-2.6,4.574-2.6l.976-9.055-6.1-2.313Z" fill="#f39f85"/>
          <path id="Trazado_3713" data-name="Trazado 3713" d="M579.649,3694.509a5.283,5.283,0,0,0,3.239-.48c4.416-5.6,1.87-22.25,1.87-22.25l-13.94.977-1.606,10.8a9.168,9.168,0,0,0,2.61,7.852h0A14.7,14.7,0,0,0,579.649,3694.509Z" fill="#f7b58e"/>
          <path id="Trazado_3714" data-name="Trazado 3714" d="M577.221,3673.734a29.422,29.422,0,0,0,9.315,1c4.866-.333,2.378-5.925,2.378-5.925s-3.708,1.232-9.889-.374c-4.171-1.084-5.222-2.029-8.1-.873-3.9,1.57-3.732,8.342-3.732,8.342l.513,14.341.78,1s1.076-9.292,1.385-12.15c.938-1.216,1.8-1.123,2.435-.725a2.145,2.145,0,0,1,.924,2.062l-1.581,14.662s8.9,5.032,11.358,4.559,2.038-11.509,2.038-11.509a4.386,4.386,0,0,0-4.99.664c-2.357,2.128-4.645-.6-4.645-.6Z" fill="#943b1e"/>
          <path id="Trazado_3715" data-name="Trazado 3715" d="M571.165,3677.874a2.4,2.4,0,0,1,2.009,2.486c.051,1.347-.766,2.418-1.824,2.392a2.4,2.4,0,0,1-2.009-2.487C569.29,3678.919,570.107,3677.848,571.165,3677.874Z" fill="#f7b58e"/>
        </g>
        <path id="Trazado_3716" data-name="Trazado 3716" d="M585.488,3774.691s22.007,12.349,33.055,27.279a10.973,10.973,0,0,1,.222,12.79c-15.944,22.983-37.024,53.4-37.024,53.4h-8.268s10.922-39.623,24.13-62.991C598.873,3796.535,585.488,3774.691,585.488,3774.691Z" fill="#212b53"/>
        <path id="Trazado_3717" data-name="Trazado 3717" d="M629.833,3740.8l6.664,1.067,6.254,6.775s-3.048,1.476-7.621-3.256c-9.025-.638-6.575-2.26-6.575-2.26Z" fill="#f39f85"/>
        <path id="Trazado_3718" data-name="Trazado 3718" d="M555.693,3737.734s13.42,26.67,21.607,28.194,43.986-15.977,43.986-15.977l1.462-5.74-37.26,5.334-8.84-18.288Z" fill="#f7b58e"/>
        <g id="Grupo_10399" data-name="Grupo 10399">
          <path id="Trazado_3719" data-name="Trazado 3719" d="M637.063,3877.612s3.831,3.553,12.566,5.778c1.923.49,4-.164,4,3.008h-10.6l-8.816-1.525v1.525h-4.761s-1.326-7.787,1.455-8.786Z" fill="#212b53"/>
          <path id="Trazado_3720" data-name="Trazado 3720" d="M636.127,3872.019l.936,5.593h0a5.387,5.387,0,0,1-5.833.2l-.327-.2-1.383-5.593Z" fill="#f7b58e"/>
        </g>
        <path id="Trazado_3721" data-name="Trazado 3721" d="M636.845,3747.119a1.4,1.4,0,0,0-.888-1.413l-5.579-2.172a6.014,6.014,0,0,0-4.3-.026l-5.514,1.083-.59.99-.391,5.083c1.072-.441,1.7-.713,1.7-.713l3.539-.45s7.608,5.141,10.068-.741c1.024,5.693,2.63,4.994,2.63,4.994Z" fill="#f7b58e"/>
        <path id="Trazado_3722" data-name="Trazado 3722" d="M538.167,3774.691s-6.885,28.968,56.614,38.927a11.129,11.129,0,0,1,9.042,8.311c5.448,21.512,25.494,52.329,25.494,52.329h8.206l-13.311-58.774a21.292,21.292,0,0,0-6.338-10.956l-32.386-29.837Z" fill="#053c5e"/>
        <g id="Grupo_10405" data-name="Grupo 10405">
          <g id="Grupo_10400" data-name="Grupo 10400">
            <path id="Trazado_3723" data-name="Trazado 3723" d="M577.809,3888.609,567.128,3810.8l-1.951.268,10.643,77.541Z" fill="#ffca7d"/>
          </g>
          <g id="Grupo_10404" data-name="Grupo 10404">
            <g id="Grupo_10402" data-name="Grupo 10402">
              <path id="Trazado_3724" data-name="Trazado 3724" d="M580.808,3810.934H534v-9.194c16.419-7.553,46.809,4.6,46.809,4.6Z" fill="#0096b9"/>
              <g id="Grupo_10401" data-name="Grupo 10401">
                <path id="Trazado_3725" data-name="Trazado 3725" d="M534,3809.949v-1.97c-.262,0-6.568-.207-6.568-10.508,0-11.167,6.979-28.085,7.05-28.255l-1.82-.756c-.294.707-7.2,17.455-7.2,29.011C525.461,3809.807,533.913,3809.949,534,3809.949Z" fill="#ffca7d"/>
              </g>
              <path id="Trazado_3726" data-name="Trazado 3726" d="M544.835,3771.528c-11.493-2.69-12.926-1.174-12.926-1.174s3.535-13.6.162-21.714c14.1-8.137,16.705,1.543,16.705,1.543S551.212,3758.407,544.835,3771.528Z" fill="#0096b9"/>
            </g>
            <g id="Grupo_10403" data-name="Grupo 10403">
              <path id="Trazado_3727" data-name="Trazado 3727" d="M529.391,3888.609l10.643-77.541-1.951-.268-10.68,77.809Z" fill="#ffca7d"/>
            </g>
          </g>
        </g>
        <g id="Grupo_10408" data-name="Grupo 10408">
          <g id="Grupo_10406" data-name="Grupo 10406">
            <path id="Trazado_3728" data-name="Trazado 3728" d="M625.385,3888.609l-2.964-.4,13.6-129.094,2.963.4Z" fill="#ffca7d"/>
          </g>
          <g id="Grupo_10407" data-name="Grupo 10407">
            <path id="Trazado_3729" data-name="Trazado 3729" d="M853.345,3888.609l2.964-.4-13.6-129.094-2.963.4Z" fill="#ffca7d"/>
          </g>
        </g>
      </g>
    </g>
    <g id="Grupo_10414" data-name="Grupo 10414" transform="translate(0 -1)">
      <path id="Trazado_3730" data-name="Trazado 3730" d="M526.637,3857.462s30.684-10.11,38.395-24.6a10.232,10.232,0,0,0-9.464-14.981c-23.118.451-31.629,37.167-31.629,37.167Z" fill="#8db1e2"/>
      <g id="Grupo_10411" data-name="Grupo 10411">
        <path id="Trazado_3731" data-name="Trazado 3731" d="M524.346,3859.5l-.816-.481c.846-1.434,20.64-35.122,40.024-37.757l.676.817C545.3,3824.649,524.551,3859.15,524.346,3859.5Z" fill="#709ddb"/>
      </g>
      <path id="Trazado_3732" data-name="Trazado 3732" d="M503.075,3833.663a42.474,42.474,0,0,1-6.953-13.077,18.05,18.05,0,0,1,14.388-22.778c5.941-1.011,13.269-.033,20.162,6.955,15.148,15.36-5.26,57.29-5.26,57.29h-7.365S517.769,3853.3,503.075,3833.663Z" fill="#cae4fd"/>
      <path id="Trazado_3733" data-name="Trazado 3733" d="M509.842,3862.053s-21.475-4.679-25.37-21.111a7.974,7.974,0,0,1,8.207-9.692c26.593,1.355,25.368,30.8,25.368,30.8Z" fill="#a9c4e9"/>
      <g id="Grupo_10412" data-name="Grupo 10412">
        <path id="Trazado_3734" data-name="Trazado 3734" d="M521.454,3862.16l-.922-.214c.1-.423,9.335-42.672-14.172-62.911l1.019-.4C531.322,3819.246,521.554,3861.732,521.454,3862.16Z" fill="#e2ebf8"/>
      </g>
      <g id="Grupo_10413" data-name="Grupo 10413">
        <path id="Trazado_3735" data-name="Trazado 3735" d="M514.537,3862.292c-.148-.251-15.061-25.13-29.447-26.609l.533-.906c14.864,1.528,29.121,25.995,29.731,27.037Z" fill="#8db1e2"/>
      </g>
      <rect id="Rectángulo_4252" data-name="Rectángulo 4252" width="27.403" height="26.556" transform="translate(505.002 3862.053)" fill="#ffe7ba"/>
      <path id="Trazado_3736" data-name="Trazado 3736" d="M534.374,3865.359H503.052a1.9,1.9,0,0,1-1.894-1.894h0a1.9,1.9,0,0,1,1.894-1.894h31.322a1.9,1.9,0,0,1,1.893,1.894h0A1.9,1.9,0,0,1,534.374,3865.359Z" fill="#ffa726"/>
    </g>
    <rect id="Rectángulo_4253" data-name="Rectángulo 4253" width="21.281" height="1.768" transform="translate(626.105 3751.781)" fill="#b3b3b3"/>
    <g id="Grupo_10415" data-name="Grupo 10415" transform="translate(0 -1)">
      <path id="Trazado_3737" data-name="Trazado 3737" d="M670.225,3754.168H655.132v-2.286h15.093a8.235,8.235,0,0,0,8.126-7.085l10.325-63.626,2.256.366-10.321,63.6A10.521,10.521,0,0,1,670.225,3754.168Z" fill="#b3b3b3"/>
    </g>
    <path id="Trazado_3738" data-name="Trazado 3738" d="M688.676,3682.171l-1.539,1.19-9.716,58.239,1.363,1.524Z" transform="translate(0 -1)" fill="#fff"/>
    <path id="Trazado_3739" data-name="Trazado 3739" d="M736.022,3740.432a2.457,2.457,0,1,1-2.457-2.457A2.456,2.456,0,0,1,736.022,3740.432Z" transform="translate(0 -1)" fill="#fff"/>
    <rect id="Rectángulo_4254" data-name="Rectángulo 4254" width="249.626" height="12.356" rx="4.719" transform="translate(613.387 3752.666)" fill="#3f2c3c"/>
  </g>
</svg>
