<svg xmlns="http://www.w3.org/2000/svg" width="117.396" height="115.069" viewBox="0 0 117.396 115.069">
  <g id="Grupo_10335" data-name="Grupo 10335" transform="translate(-182.633 -4713.673)">
    <path id="Trazado_3603" data-name="Trazado 3603" d="M282.3,4817.17H188.18a3.828,3.828,0,0,1-3.827-3.828V4719.22a3.827,3.827,0,0,1,3.827-3.827H282.3a3.828,3.828,0,0,1,3.828,3.827v94.122a3.829,3.829,0,0,1-3.828,3.828Zm0,0" fill="#f2f2f2"/>
    <path id="Trazado_3604" data-name="Trazado 3604" d="M282.3,4715.393H269.986a3.827,3.827,0,0,1,3.828,3.827v94.122a3.829,3.829,0,0,1-3.828,3.828H282.3a3.828,3.828,0,0,0,3.828-3.828V4719.22a3.828,3.828,0,0,0-3.828-3.827Zm0,0" fill="#cdd6df"/>
    <path id="Trazado_3605" data-name="Trazado 3605" d="M282.3,4715.393H188.18a3.827,3.827,0,0,0-3.827,3.827v11.585H286.129V4719.22a3.828,3.828,0,0,0-3.828-3.827Zm0,0" fill="#426175"/>
    <path id="Trazado_3606" data-name="Trazado 3606" d="M286.129,4730.805V4719.22a3.828,3.828,0,0,0-3.828-3.827H269.987a3.827,3.827,0,0,1,3.827,3.827v11.585Zm0,0" fill="#2c4456"/>
    <path id="Trazado_3607" data-name="Trazado 3607" d="M261.407,4723.1a1.833,1.833,0,1,1-1.832-1.831,1.833,1.833,0,0,1,1.832,1.831Zm0,0" fill="#46d1c0"/>
    <path id="Trazado_3608" data-name="Trazado 3608" d="M270.19,4723.1a1.832,1.832,0,1,1-1.832-1.831,1.832,1.832,0,0,1,1.832,1.831Zm0,0" fill="#46d1c0"/>
    <path id="Trazado_3609" data-name="Trazado 3609" d="M278.974,4723.1a1.833,1.833,0,1,1-1.832-1.831,1.832,1.832,0,0,1,1.832,1.831Zm0,0" fill="#46d1c0"/>
    <path id="Trazado_3610" data-name="Trazado 3610" d="M206.194,4770.118l11.554-7.557a1.15,1.15,0,0,1,.659-.175,2.315,2.315,0,0,1,2.109,2.2,1.542,1.542,0,0,1-.659,1.274l-9.227,6.063,9.227,6.063a1.427,1.427,0,0,1,.659,1.273,2.272,2.272,0,0,1-2.109,2.154,1.14,1.14,0,0,1-.659-.176l-11.554-7.557a2.2,2.2,0,0,1-.967-1.757,2.277,2.277,0,0,1,.967-1.8Zm0,0" fill="#4d4d4d"/>
    <path id="Trazado_3611" data-name="Trazado 3611" d="M244.942,4751.93a1.285,1.285,0,0,1-.175.7l-16.124,32.159a1.594,1.594,0,0,1-1.45.835A1.7,1.7,0,0,1,225.48,4784a1.776,1.776,0,0,1,.131-.659l16.168-32.291a1.337,1.337,0,0,1,1.318-.791,1.792,1.792,0,0,1,1.845,1.67Zm0,0" fill="#4d4d4d"/>
    <path id="Trazado_3612" data-name="Trazado 3612" d="M264.185,4773.676l-11.554,7.557a1.007,1.007,0,0,1-.615.176,2.239,2.239,0,0,1-2.109-2.154,1.5,1.5,0,0,1,.615-1.273l9.27-6.063-9.27-6.063a1.624,1.624,0,0,1-.615-1.274,2.28,2.28,0,0,1,2.109-2.2,1.016,1.016,0,0,1,.615.175l11.554,7.557a2.275,2.275,0,0,1,.966,1.8,2.086,2.086,0,0,1-.966,1.757Zm0,0" fill="#4d4d4d"/>
    <path id="Trazado_3613" data-name="Trazado 3613" d="M279.89,4784.311c-5.03,4.614-15.075,5.768-20.348,6.051a4.485,4.485,0,0,0-4.144,3.559l-6.636,31.517a1.313,1.313,0,0,0,1.555,1.555l31.517-6.635a4.484,4.484,0,0,0,3.559-4.144c.283-5.274,1.437-15.319,6.052-20.348Zm-7.376,26.4a5.278,5.278,0,1,1,0-7.465,5.277,5.277,0,0,1,0,7.465Zm0,0" fill="#46d1c0"/>
    <path id="Trazado_3614" data-name="Trazado 3614" d="M285.786,4778.376l-5.9,5.935,11.555,11.555,5.935-5.9a3.15,3.15,0,0,0,.007-4.462l-7.139-7.139a3.149,3.149,0,0,0-4.462.007Zm0,0" fill="#426175"/>
    <path id="Trazado_3615" data-name="Trazado 3615" d="M230.636,4721.379h-37.4a1.719,1.719,0,0,0,0,3.439h37.4a1.719,1.719,0,1,0,0-3.439Zm0,0" fill="#4d4d4d"/>
    <path id="Trazado_3616" data-name="Trazado 3616" d="M243.753,4815.45H188.18a2.111,2.111,0,0,1-2.108-2.107v-80.819H284.41v38.369a1.719,1.719,0,0,0,3.439,0V4719.22a5.555,5.555,0,0,0-5.548-5.547H188.18a5.554,5.554,0,0,0-5.547,5.547v94.122a5.554,5.554,0,0,0,5.547,5.547h55.573a1.719,1.719,0,1,0,0-3.439Zm-57.681-96.23a2.111,2.111,0,0,1,2.108-2.107H282.3a2.111,2.111,0,0,1,2.109,2.107v9.865H186.072Zm0,0" fill="#4d4d4d"/>
    <path id="Trazado_3617" data-name="Trazado 3617" d="M298.6,4784.292l-7.14-7.139a4.834,4.834,0,0,0-3.443-1.426h-.008a4.827,4.827,0,0,0-3.446,1.437l-5.868,5.906c-4.784,4.355-15.051,5.349-19.248,5.575a6.211,6.211,0,0,0-5.735,4.922l-6.636,31.518a3.024,3.024,0,0,0,.813,2.757l.011.011.033.032a3.014,3.014,0,0,0,2.735.791l31.517-6.635a6.211,6.211,0,0,0,4.922-5.735c.226-4.2,1.221-14.469,5.578-19.252l5.9-5.864a4.871,4.871,0,0,0,.011-6.9Zm-14.927,31.83a2.767,2.767,0,0,1-2.2,2.553l-27.825,5.858,11.546-11.546a6.981,6.981,0,1,0-2.434-2.431L251.223,4822.1l5.858-27.825a2.767,2.767,0,0,1,2.553-2.2c5.262-.283,14.513-1.375,20.136-5.458l9.363,9.363c-4.082,5.624-5.174,14.875-5.457,20.137Zm-18.453-9.149a3.559,3.559,0,1,1,1.049,2.523l-.007-.006-.005-.006a3.533,3.533,0,0,1-1.037-2.511Zm30.945-18.223-4.718,4.687-9.132-9.131,4.687-4.718a1.419,1.419,0,0,1,1.012-.422h0a1.416,1.416,0,0,1,1.011.418l7.141,7.14a1.431,1.431,0,0,1,0,2.026Zm0,0" fill="#4d4d4d"/>
  </g>
</svg>
