<svg xmlns="http://www.w3.org/2000/svg" width="102.355" height="103.173" viewBox="0 0 102.355 103.173">
  <g id="Grupo_10428" data-name="Grupo 10428" transform="translate(-190.154 -6677.493)">
    <path id="Trazado_3748" data-name="Trazado 3748" d="M273.766,6770.286h-51.88a4.929,4.929,0,0,1-4.929-4.929v-81.423a4.929,4.929,0,0,1,4.929-4.929h51.88a4.929,4.929,0,0,1,4.929,4.929v81.423a4.929,4.929,0,0,1-4.929,4.929Zm0,0" fill="#33bdb0"/>
    <path id="Trazado_3749" data-name="Trazado 3749" d="M273.766,6679h-9.723a4.93,4.93,0,0,1,4.93,4.929v81.423a4.931,4.931,0,0,1-4.93,4.93h9.723a4.93,4.93,0,0,0,4.929-4.93v-81.423a4.929,4.929,0,0,0-4.929-4.929Zm0,0" fill="#00ad9c"/>
    <rect id="Rect치ngulo_4273" data-name="Rect치ngulo 4273" width="61.739" height="70.571" transform="translate(216.957 6689.439)" fill="#ffca7d"/>
    <rect id="Rect치ngulo_4274" data-name="Rect치ngulo 4274" width="9.723" height="70.571" transform="translate(268.973 6689.439)" fill="#ffb951"/>
    <path id="Trazado_3750" data-name="Trazado 3750" d="M242.925,6742.678H196.566a4.9,4.9,0,0,1-4.9-4.9v-32.249a4.9,4.9,0,0,1,4.9-4.9h46.359a4.9,4.9,0,0,1,4.9,4.9v32.249a4.9,4.9,0,0,1-4.9,4.9Zm0,0" fill="#fff"/>
    <path id="Trazado_3751" data-name="Trazado 3751" d="M242.925,6700.628h-5.914v42.05h5.914a4.9,4.9,0,0,0,4.9-4.9v-32.249a4.9,4.9,0,0,0-4.9-4.9Zm0,0" fill="#e6e6e6"/>
    <path id="Trazado_3752" data-name="Trazado 3752" d="M201.137,6722.47l7.438-4.865a.736.736,0,0,1,.424-.114,1.491,1.491,0,0,1,1.358,1.415.992.992,0,0,1-.424.82l-5.94,3.9,5.94,3.9a.918.918,0,0,1,.424.82,1.463,1.463,0,0,1-1.358,1.386.743.743,0,0,1-.424-.113l-7.438-4.865a1.418,1.418,0,0,1-.623-1.132,1.464,1.464,0,0,1,.623-1.159Zm0,0" fill="#4d4d4d"/>
    <path id="Trazado_3753" data-name="Trazado 3753" d="M226.083,6710.76a.826.826,0,0,1-.114.452l-10.38,20.705a1.025,1.025,0,0,1-.933.537,1.094,1.094,0,0,1-1.1-1.046,1.143,1.143,0,0,1,.085-.424l10.408-20.79a.863.863,0,0,1,.849-.509,1.155,1.155,0,0,1,1.189,1.075Zm0,0" fill="#4d4d4d"/>
    <path id="Trazado_3754" data-name="Trazado 3754" d="M238.471,6724.761l-7.44,4.865a.646.646,0,0,1-.4.113,1.441,1.441,0,0,1-1.358-1.386.965.965,0,0,1,.4-.82l5.968-3.9-5.968-3.9a1.048,1.048,0,0,1-.4-.82,1.468,1.468,0,0,1,1.358-1.415.64.64,0,0,1,.4.114l7.44,4.864a1.468,1.468,0,0,1,.622,1.16,1.347,1.347,0,0,1-.622,1.131Zm0,0" fill="#4d4d4d"/>
    <path id="Trazado_3755" data-name="Trazado 3755" d="M270.33,6779.155a2.707,2.707,0,0,1-2.7-2.7v-.861a.937.937,0,0,0-.668-.9,15.525,15.525,0,0,1-3.208-1.313.9.9,0,0,0-.433-.11.955.955,0,0,0-.669.279l-.6.6a2.7,2.7,0,0,1-3.824,0l-1.47-1.469a2.7,2.7,0,0,1,0-3.824l.6-.6a.933.933,0,0,0,.167-1.1,15.755,15.755,0,0,1-1.313-3.207.934.934,0,0,0-.9-.668h-.862a2.707,2.707,0,0,1-2.7-2.7v-2.078a2.706,2.706,0,0,1,2.7-2.7h.935a.947.947,0,0,0,.907-.658,15.457,15.457,0,0,1,1.326-3.106.94.94,0,0,0-.16-1.117l-.7-.7a2.7,2.7,0,0,1,0-3.824l1.47-1.47a2.7,2.7,0,0,1,3.824,0l.776.777a.949.949,0,0,0,.668.277.9.9,0,0,0,.428-.106,15.56,15.56,0,0,1,3.034-1.221.939.939,0,0,0,.672-.9V6742.6a2.706,2.706,0,0,1,2.7-2.705h2.078a2.707,2.707,0,0,1,2.7,2.705v1.214a.936.936,0,0,0,.655.9,15.664,15.664,0,0,1,2.942,1.234.928.928,0,0,0,.444.113.938.938,0,0,0,.666-.276l.871-.871a2.7,2.7,0,0,1,3.824,0l1.469,1.469a2.709,2.709,0,0,1,0,3.825l-.87.87a.94.94,0,0,0-.164,1.11,15.539,15.539,0,0,1,1.234,2.942.938.938,0,0,0,.9.656h1.214a2.705,2.705,0,0,1,2.7,2.7v2.078a2.706,2.706,0,0,1-2.7,2.7h-1.135a.936.936,0,0,0-.9.671,15.692,15.692,0,0,1-1.221,3.034.94.94,0,0,0,.171,1.1l.776.777a2.7,2.7,0,0,1,0,3.824l-1.469,1.469a2.7,2.7,0,0,1-3.824,0l-.7-.7a.939.939,0,0,0-.668-.277.916.916,0,0,0-.449.117,15.6,15.6,0,0,1-3.106,1.326.947.947,0,0,0-.658.906v.935a2.708,2.708,0,0,1-2.7,2.7Zm1.039-25.985a6.356,6.356,0,1,0,6.356,6.356,6.363,6.363,0,0,0-6.356-6.356Zm0,0" fill="#fd715c"/>
    <path id="Trazado_3756" data-name="Trazado 3756" d="M249.337,6737.778v-32.249a6.419,6.419,0,0,0-6.412-6.412H196.566a6.419,6.419,0,0,0-6.412,6.412v32.249a6.419,6.419,0,0,0,6.412,6.412h46.359a6.42,6.42,0,0,0,6.412-6.412Zm-56.161,0v-32.249a3.393,3.393,0,0,1,3.39-3.389h46.359a3.393,3.393,0,0,1,3.39,3.389v32.249a3.394,3.394,0,0,1-3.39,3.389H196.566a3.394,3.394,0,0,1-3.39-3.389Zm0,0" fill="#4d4d4d"/>
    <path id="Trazado_3757" data-name="Trazado 3757" d="M271.369,6751.66a7.875,7.875,0,0,0-7.867,7.866c0,.113,0,.225.007.336,0,.048-.007.1-.007.148a1.518,1.518,0,0,0,.046.372,7.867,7.867,0,1,0,7.821-8.722Zm0,3.022a4.854,4.854,0,0,1,4.735,3.816h-9.469a4.851,4.851,0,0,1,4.734-3.816Zm0,9.689a4.852,4.852,0,0,1-4.415-2.851h8.83a4.851,4.851,0,0,1-4.415,2.851Zm0,0" fill="#4d4d4d"/>
    <path id="Trazado_3758" data-name="Trazado 3758" d="M288.293,6754.272h-.8a17.015,17.015,0,0,0-1.017-2.425l.573-.572a4.22,4.22,0,0,0,0-5.962l-1.469-1.469a4.216,4.216,0,0,0-5.376-.489v-59.421a6.448,6.448,0,0,0-6.441-6.441h-51.88a6.448,6.448,0,0,0-6.441,6.441v10.649a1.511,1.511,0,1,0,3.023,0v-3.633h58.716V6743.6c-.186-.069-.372-.134-.561-.2v-.8a4.219,4.219,0,0,0-4.215-4.216H270.33a4.219,4.219,0,0,0-4.215,4.216v.71a17.016,17.016,0,0,0-2.516,1.013l-.481-.482a4.214,4.214,0,0,0-5.962,0l-1.469,1.468a4.216,4.216,0,0,0,0,5.963l.4.4a17.128,17.128,0,0,0-1.11,2.6h-.527a4.22,4.22,0,0,0-4.215,4.215v.01H218.468v-9.773a1.511,1.511,0,1,0-3.023,0v16.633a6.447,6.447,0,0,0,6.441,6.44H254.58a4.2,4.2,0,0,0,1.107,1.942l1.469,1.47a4.216,4.216,0,0,0,5.962,0l.3-.3a17.173,17.173,0,0,0,2.695,1.1v.44a4.221,4.221,0,0,0,4.215,4.216h2.078a4.22,4.22,0,0,0,4.215-4.216v-.527a16.953,16.953,0,0,0,2.6-1.11l.395.4a4.216,4.216,0,0,0,5.962,0l1.469-1.469a4.216,4.216,0,0,0,0-5.962l-.483-.483a16.97,16.97,0,0,0,1.013-2.514h.711a4.221,4.221,0,0,0,4.216-4.216v-2.078a4.221,4.221,0,0,0-4.216-4.215Zm-69.825-66.345v-3.993a3.421,3.421,0,0,1,3.418-3.418h51.88a3.421,3.421,0,0,1,3.418,3.418v3.993Zm0,77.43v-3.837h31.871a4.224,4.224,0,0,0,4.106,3.261h.441a17.064,17.064,0,0,0,1.1,2.7l-.3.3a4.229,4.229,0,0,0-.741,1h-33.06a3.42,3.42,0,0,1-3.418-3.417Zm71.018-4.792a1.194,1.194,0,0,1-1.193,1.193h-1.135a2.452,2.452,0,0,0-2.355,1.769,14.114,14.114,0,0,1-1.1,2.739,2.463,2.463,0,0,0,.438,2.873l.776.776a1.2,1.2,0,0,1,0,1.688l-1.469,1.468a1.192,1.192,0,0,1-1.688,0l-.7-.7a2.448,2.448,0,0,0-2.926-.409,14.028,14.028,0,0,1-2.8,1.2,2.468,2.468,0,0,0-1.73,2.352v.936a1.194,1.194,0,0,1-1.193,1.193H270.33a1.194,1.194,0,0,1-1.193-1.193v-.862a2.452,2.452,0,0,0-1.766-2.358,14.107,14.107,0,0,1-2.895-1.185,2.415,2.415,0,0,0-1.158-.295,2.473,2.473,0,0,0-1.738.721l-.6.6a1.192,1.192,0,0,1-1.687,0l-1.47-1.469a1.172,1.172,0,0,1-.348-.843c0-.052,0-.1.008-.154a1.123,1.123,0,0,0,.021-.118,1.177,1.177,0,0,1,.319-.572l.6-.6a2.455,2.455,0,0,0,.425-2.9,14.067,14.067,0,0,1-1.185-2.894,2.452,2.452,0,0,0-2.358-1.766h-.861a1.2,1.2,0,0,1-1.193-1.194v-2.077a1.194,1.194,0,0,1,1.193-1.193h.934a2.47,2.47,0,0,0,2.354-1.73,13.955,13.955,0,0,1,1.2-2.8,2.456,2.456,0,0,0-.408-2.928l-.7-.7a1.2,1.2,0,0,1,0-1.687l1.47-1.469a1.194,1.194,0,0,1,1.687,0l.777.776a2.474,2.474,0,0,0,1.736.72,2.406,2.406,0,0,0,1.137-.282,14.085,14.085,0,0,1,2.738-1.1,2.453,2.453,0,0,0,1.77-2.355V6742.6a1.193,1.193,0,0,1,1.192-1.193h2.078a1.194,1.194,0,0,1,1.193,1.193v1.214a2.462,2.462,0,0,0,1.728,2.343,14.019,14.019,0,0,1,2.611,1.089l.077.042a2.445,2.445,0,0,0,2.87-.439l.871-.87a1.195,1.195,0,0,1,1.688,0l1.469,1.469a1.2,1.2,0,0,1,0,1.687l-.871.871a2.46,2.46,0,0,0-.421,2.9,14.089,14.089,0,0,1,1.113,2.655,2.459,2.459,0,0,0,2.343,1.728h1.214a1.2,1.2,0,0,1,1.193,1.193Zm0,0" fill="#4d4d4d"/>
  </g>
</svg>
