<svg xmlns="http://www.w3.org/2000/svg" width="102.789" height="112.6" viewBox="0 0 102.789 112.6">
  <g id="Grupo_10462" data-name="Grupo 10462" transform="translate(1322.063 -2828.483)">
    <path id="Trazado_3797" data-name="Trazado 3797" d="M-1252.389,2939.434h-62.122a5.9,5.9,0,0,1-5.9-5.9v-97.5a5.9,5.9,0,0,1,5.9-5.9h62.122a5.9,5.9,0,0,1,5.9,5.9v97.5a5.9,5.9,0,0,1-5.9,5.9Zm0,0" fill="#b3b3b3"/>
    <path id="Trazado_3798" data-name="Trazado 3798" d="M-1252.389,2830.132h-11.643a5.9,5.9,0,0,1,5.9,5.9v97.5a5.9,5.9,0,0,1-5.9,5.9h11.643a5.9,5.9,0,0,0,5.9-5.9v-97.5a5.9,5.9,0,0,0-5.9-5.9Zm0,0" fill="#999"/>
    <rect id="Rect치ngulo_4325" data-name="Rect치ngulo 4325" width="73.927" height="84.503" transform="translate(-1320.414 2842.626)" fill="#f2f2f2"/>
    <rect id="Rect치ngulo_4326" data-name="Rect치ngulo 4326" width="11.642" height="84.503" transform="translate(-1258.129 2842.626)" fill="#cdd6df"/>
    <path id="Trazado_3799" data-name="Trazado 3799" d="M-1231.417,2856.7h-41.541a10.492,10.492,0,0,0-10.493,10.492V2886.5a10.492,10.492,0,0,0,10.493,10.491h6.126l-3.121,13.973a1.558,1.558,0,0,0,2.589,1.474l16.382-15.447h19.565a10.491,10.491,0,0,0,10.493-10.491v-19.308a10.492,10.492,0,0,0-10.493-10.492Zm0,0" fill="#fed066"/>
    <path id="Trazado_3800" data-name="Trazado 3800" d="M-1267.9,2901.787l-2.05,9.176a1.558,1.558,0,0,0,2.589,1.474l16.382-15.447h-9.251a6.505,6.505,0,0,0-4.462,1.773Zm0,0" fill="#f5b556"/>
    <path id="Trazado_3801" data-name="Trazado 3801" d="M-1231.417,2856.7h-11.833a10.491,10.491,0,0,1,10.492,10.492V2886.5a10.491,10.491,0,0,1-10.492,10.491h11.833a10.491,10.491,0,0,0,10.493-10.491v-19.308a10.492,10.492,0,0,0-10.493-10.492Zm0,0" fill="#f5b556"/>
    <path id="Trazado_3802" data-name="Trazado 3802" d="M-1235.226,2864.944h-33.923a1.649,1.649,0,0,0-1.649,1.65,1.649,1.649,0,0,0,1.649,1.649h33.923a1.649,1.649,0,0,0,1.65-1.649,1.649,1.649,0,0,0-1.65-1.65Zm0,0" fill="#4d4d4d"/>
    <path id="Trazado_3803" data-name="Trazado 3803" d="M-1235.226,2875.224h-33.923a1.649,1.649,0,0,0-1.649,1.65,1.649,1.649,0,0,0,1.649,1.649h33.923a1.649,1.649,0,0,0,1.65-1.649,1.649,1.649,0,0,0-1.65-1.65Zm0,0" fill="#4d4d4d"/>
    <path id="Trazado_3804" data-name="Trazado 3804" d="M-1235.226,2885.5h-33.923a1.649,1.649,0,0,0-1.649,1.649,1.649,1.649,0,0,0,1.649,1.65h33.923a1.649,1.649,0,0,0,1.65-1.65,1.649,1.649,0,0,0-1.65-1.649Zm0,0" fill="#4d4d4d"/>
    <path id="Trazado_3805" data-name="Trazado 3805" d="M-1231.417,2855.05h-41.541a12.155,12.155,0,0,0-12.142,12.141V2886.5a12.156,12.156,0,0,0,12.142,12.141h4.068l-2.673,11.964a3.192,3.192,0,0,0,1.544,3.487,3.2,3.2,0,0,0,1.59.423,3.2,3.2,0,0,0,2.2-.877l15.906-15h18.91a12.156,12.156,0,0,0,12.143-12.141v-19.308a12.155,12.155,0,0,0-12.143-12.141Zm8.844,31.449a8.853,8.853,0,0,1-8.844,8.842h-19.566a1.651,1.651,0,0,0-1.131.449l-16.165,15.241,3.057-13.68a1.654,1.654,0,0,0-.323-1.391,1.65,1.65,0,0,0-1.287-.619h-6.127a8.852,8.852,0,0,1-8.842-8.842v-19.308a8.852,8.852,0,0,1,8.842-8.842h41.542a8.852,8.852,0,0,1,8.844,8.842Zm0,0" fill="#4d4d4d"/>
    <path id="Trazado_3806" data-name="Trazado 3806" d="M-1246.487,2901.95a1.65,1.65,0,0,0-1.65,1.649v21.88h-70.627v-81.2h70.627v5.83a1.649,1.649,0,0,0,1.65,1.649,1.649,1.649,0,0,0,1.649-1.649v-14.07a7.559,7.559,0,0,0-7.551-7.552h-62.122a7.56,7.56,0,0,0-7.552,7.552v97.5a7.559,7.559,0,0,0,7.552,7.552h62.122a7.56,7.56,0,0,0,7.552-7.552V2903.6a1.65,1.65,0,0,0-1.65-1.649Zm-68.024-70.168h62.122a4.258,4.258,0,0,1,4.253,4.253v4.941h-70.628v-4.941a4.258,4.258,0,0,1,4.253-4.253Zm62.122,106h-62.122a4.258,4.258,0,0,1-4.253-4.253v-4.753h70.627v4.753a4.257,4.257,0,0,1-4.252,4.253Zm0,0" fill="#4d4d4d"/>
  </g>
</svg>
