<svg xmlns="http://www.w3.org/2000/svg" width="1070.402" height="175.684" viewBox="0 0 1070.402 175.684">
  <g id="Grupo_10597" data-name="Grupo 10597" transform="translate(-237 -9589.5)">
    <path id="Rectángulo_4313" data-name="Rectángulo 4313" d="M0,0H892.615a21.5,21.5,0,0,1,21.5,21.5V154.189a21.5,21.5,0,0,1-21.5,21.5H0a0,0,0,0,1,0,0V0A0,0,0,0,1,0,0Z" transform="translate(393.292 9589.5)" fill="#d4f4f7"/>
    <path id="Rectángulo_4314" data-name="Rectángulo 4314" d="M21.5,0H157.216a0,0,0,0,1,0,0V175.684a0,0,0,0,1,0,0H21.5A21.5,21.5,0,0,1,0,154.189V21.5A21.5,21.5,0,0,1,21.5,0Z" transform="translate(237 9589.5)" fill="#b8ecf3"/>
    <text id="Si_se_desea_eliminar_del_arreglo_la_materia_Lenguaje_al_encontrarse_ubicada_en_la_última_posición_no_ocasiona_ningún_desplazamiento_visible_ya_que_al_efectuar_el_borrado_el_contenido_de_dicha_posición_será_nulo_si_en_cambio_se_desea_eliminar_la_mater" data-name="Si se desea eliminar del arreglo la materia “Lenguaje”, al encontrarse ubicada en la última posición no ocasiona ningún desplazamiento visible ya que, al efectuar el borrado, el contenido de dicha posición será nulo; si en cambio se desea eliminar la mater" transform="translate(420.193 9649.79)" fill="#00223d" font-size="16" font-family="OpenSans-Regular, Open Sans"><tspan x="0" y="17">Si se desea eliminar del arreglo la materia “Lenguaje”, al encontrarse ubicada en la última posición no ocasiona </tspan><tspan x="0" y="39">ningún desplazamiento visible ya que, al efectuar el borrado, el contenido de dicha posición será nulo; si en cambio </tspan><tspan x="0" y="61">se desea eliminar la materia Ética y Valores, debe haber lugar a un desplazamiento, ya que la materia Lenguaje </tspan><tspan x="0" y="83">debe pasar a ocupar la posición 4 del arreglo y la posición 5 quedará con valor nulo.</tspan></text>
    <text id="Eliminar_elementos" data-name="Eliminar elementos" transform="translate(420.193 9612.527)" fill="#00223d" font-size="16" font-family="OpenSans-Bold, Open Sans" font-weight="700"><tspan x="0" y="17">Eliminar elementos</tspan></text>
    <line id="Línea_436" data-name="Línea 436" x2="863.109" transform="translate(420.193 9639.347)" fill="none" stroke="#94e3ec" stroke-linecap="round" stroke-miterlimit="10" stroke-width="2"/>
    <g id="Grupo_10451" data-name="Grupo 10451" transform="translate(41 666)">
      <path id="Trazado_3764" data-name="Trazado 3764" d="M296.585,8985.269a1.51,1.51,0,0,0,2.135,2.136l5.017-5.019a5.3,5.3,0,0,0-7.5-7.5l-11.635,11.64-11.636-11.64a5.3,5.3,0,0,0-7.5,7.5l11.636,11.638-11.635,11.637a5.3,5.3,0,1,0,7.5,7.5l11.636-11.637,11.637,11.637a5.3,5.3,0,1,0,7.5-7.5L292.1,8994.023l2.347-2.348a1.51,1.51,0,0,0-2.135-2.135l-3.416,3.414a1.51,1.51,0,0,0,0,2.135l12.7,12.707a2.284,2.284,0,0,1-3.231,3.229l-12.7-12.7a1.509,1.509,0,0,0-2.135,0l-12.7,12.7a2.284,2.284,0,1,1-3.23-3.229L280.3,8995.09a1.51,1.51,0,0,0,0-2.135l-12.705-12.7a2.284,2.284,0,0,1,3.231-3.229l12.7,12.705a1.51,1.51,0,0,0,2.136,0l12.7-12.705a2.283,2.283,0,1,1,3.229,3.229Zm0,0" fill="#4dd0e0"/>
      <path id="Trazado_3765" data-name="Trazado 3765" d="M318.808,8994.926a36.586,36.586,0,0,0-35.111-35.11,31.963,31.963,0,0,0-33.234,29.886,35.461,35.461,0,0,0,4.163,19.163,11.672,11.672,0,0,0-12.257,7.691l-1.761,5.008a1.511,1.511,0,0,0,.923,1.927,1.551,1.551,0,0,0,.5.085,1.512,1.512,0,0,0,1.425-1.009l1.762-5.008a8.633,8.633,0,0,1,9.844-5.571l1.678.345a37.291,37.291,0,0,0,9.652,9.62l-6.141,6.142a1.51,1.51,0,0,0,2.136,2.135l17.3-17.3a6.05,6.05,0,0,1,8.556,8.557l-12.334,12.336a1.514,1.514,0,0,0-.435.925l-.49,5.151a16.327,16.327,0,0,1-16.556,14.786l-4.787-.089a1.507,1.507,0,0,0-1.1.442l-4.2,4.2-14.305-14.306,2.15-2.149a1.49,1.49,0,0,0,.356-.566l4.913-13.965a1.51,1.51,0,0,0-2.849-1l-4.8,13.64-2.974,2.976a1.507,1.507,0,0,0,0,2.135l16.44,16.441a1.509,1.509,0,0,0,2.135,0l4.813-4.813,4.146.078a19.35,19.35,0,0,0,19.619-17.521l.438-4.611,7.335-7.336c.258,0,.516.009.774.009a32,32,0,0,0,32.272-33.32Zm-11.487,21.821a28.882,28.882,0,0,1-18.459,8.39l1.515-1.515a9.07,9.07,0,0,0-12.827-12.827l-8.981,8.983a34.344,34.344,0,0,1-9.667-9.637,32.6,32.6,0,0,1-5.427-20.226,28.94,28.94,0,0,1,30.135-27.082,33.567,33.567,0,0,1,32.179,32.179,29.175,29.175,0,0,1-8.468,21.734Zm0,0" fill="#4dd0e0"/>
    </g>
  </g>
</svg>
