<svg xmlns="http://www.w3.org/2000/svg" width="1138.615" height="331.116" viewBox="0 0 1138.615 331.116">
  <g id="Grupo_10591" data-name="Grupo 10591" transform="translate(-150 -1139.666)">
    <rect id="Rectángulo_4321" data-name="Rectángulo 4321" width="1138.615" height="331.116" transform="translate(150 1139.666)" fill="#f0746a"/>
    <path id="Trazado_3783" data-name="Trazado 3783" d="M-617.714,1303.48c0,.016,0,.032,0,.047h-49.282a1.013,1.013,0,0,0-1.032.991,1.012,1.012,0,0,0,1.032.992h69.779v34.072a1.014,1.014,0,0,0,1.033.991,1.014,1.014,0,0,0,1.032-.991V1305.51h38.555a1.014,1.014,0,0,0,1.032-.992,1.014,1.014,0,0,0-1.032-.991h-59.057c0-.015,0-.031,0-.047v-34.073h38.555a1.013,1.013,0,0,0,1.031-.991,1.012,1.012,0,0,0-1.031-.991h-75.272v-36.732h38.556a1.012,1.012,0,0,0,1.031-.992,1.011,1.011,0,0,0-1.031-.99h-110.4a1.013,1.013,0,0,0-1.032.99,1.014,1.014,0,0,0,1.032.992h69.78v36.732h-33.065a1.013,1.013,0,0,0-1.031.991,1.013,1.013,0,0,0,1.031.991h69.781Z" transform="translate(1512 -1)" fill="#e2615a"/>
    <path id="Trazado_3784" data-name="Trazado 3784" d="M-312.649,1225.775l0,.047h-49.282a1.014,1.014,0,0,0-1.032.992,1.014,1.014,0,0,0,1.032.991h69.781v34.072a1.013,1.013,0,0,0,1.031.991,1.014,1.014,0,0,0,1.033-.991v-34.072h38.554a1.013,1.013,0,0,0,1.032-.991,1.014,1.014,0,0,0-1.032-.992h-59.056c0-.016,0-.032,0-.047V1191.7h38.556a1.011,1.011,0,0,0,1.031-.991,1.012,1.012,0,0,0-1.031-.992H-347.3v-36.731h38.555a1.013,1.013,0,0,0,1.032-.992,1.013,1.013,0,0,0-1.032-.991h-110.4a1.013,1.013,0,0,0-1.032.991,1.013,1.013,0,0,0,1.032.992h69.779v36.731h-33.063a1.013,1.013,0,0,0-1.032.992,1.012,1.012,0,0,0,1.032.991h69.779Z" transform="translate(1512 -1)" fill="#e2615a"/>
    <g id="Grupo_10456" data-name="Grupo 10456" transform="translate(1512 -1)">
      <path id="Trazado_3785" data-name="Trazado 3785" d="M-942.885,1329.957c-.162,0,.136.064,0,0Z" fill="#e2615a"/>
      <path id="Trazado_3786" data-name="Trazado 3786" d="M-885.664,1402.792H-944.72c0-.016,0-.032,0-.049v-34.072h38.556a1.014,1.014,0,0,0,1.032-.991,1.013,1.013,0,0,0-1.032-.991h-75.272v-36.732h38.55c1.017,0,1.484-.345,1.484-.892v-34.071h38.556a1.013,1.013,0,0,0,1.031-.991,1.014,1.014,0,0,0-1.031-.992h-64.394v-33.517h38.555a1.014,1.014,0,0,0,1.032-.992,1.014,1.014,0,0,0-1.032-.991h-110.4a1.014,1.014,0,0,0-1.032.991,1.014,1.014,0,0,0,1.032.992h69.78v33.517h-43.942a1.014,1.014,0,0,0-1.032.992,1.014,1.014,0,0,0,1.032.991h69.78v32.981h-109.814a1.013,1.013,0,0,0-1.032.99,1.014,1.014,0,0,0,1.032.992H-983.5v36.732h-33.065a1.012,1.012,0,0,0-1.031.991,1.013,1.013,0,0,0,1.031.991h69.781v34.072c0,.017,0,.033,0,.049h-49.282a1.013,1.013,0,0,0-1.031.991,1.013,1.013,0,0,0,1.031.991h69.781v34.071a1.015,1.015,0,0,0,1.032.993,1.014,1.014,0,0,0,1.031-.993v-34.071h38.555a1.012,1.012,0,0,0,1.032-.991A1.013,1.013,0,0,0-885.664,1402.792Z" fill="#e2615a"/>
    </g>
    <path id="Trazado_3787" data-name="Trazado 3787" d="M-614.284,1445.016a1.013,1.013,0,0,0,1.031.992,1.014,1.014,0,0,0,1.032-.992v-34.071h38.555a1.015,1.015,0,0,0,1.033-.992,1.014,1.014,0,0,0-1.033-.99h-110.4a1.013,1.013,0,0,0-1.032.99,1.014,1.014,0,0,0,1.032.992h69.781Z" transform="translate(1512 -1)" fill="#e2615a"/>
    <path id="Trazado_3788" data-name="Trazado 3788" d="M-243.6,1426.712h-64.393v-33.517h38.554a1.012,1.012,0,0,0,1.032-.992,1.012,1.012,0,0,0-1.032-.99h-110.4a1.012,1.012,0,0,0-1.032.99,1.012,1.012,0,0,0,1.032.992h69.779v33.517H-354a1.014,1.014,0,0,0-1.031.992,1.014,1.014,0,0,0,1.031.992h69.781v34.07a1.014,1.014,0,0,0,1.032.992,1.014,1.014,0,0,0,1.032-.992V1428.7H-243.6a1.014,1.014,0,0,0,1.031-.992A1.013,1.013,0,0,0-243.6,1426.712Z" transform="translate(1512 -1)" fill="#e2615a"/>
    <path id="Trazado_3789" data-name="Trazado 3789" d="M-1210.549,1186.505h-64.394v-33.516h38.556a1.013,1.013,0,0,0,1.031-.993,1.013,1.013,0,0,0-1.031-.991h-110.4a1.014,1.014,0,0,0-1.032.991,1.014,1.014,0,0,0,1.032.993h69.78v33.516h-43.941a1.014,1.014,0,0,0-1.032.992,1.013,1.013,0,0,0,1.032.992h69.78v34.071a1.012,1.012,0,0,0,1.032.991,1.013,1.013,0,0,0,1.032-.991v-34.071h38.555a1.013,1.013,0,0,0,1.031-.992A1.014,1.014,0,0,0-1210.549,1186.505Z" transform="translate(1512 -1)" fill="#e2615a"/>
    <path id="Trazado_3790" data-name="Trazado 3790" d="M-1191.577,1415.551h-64.393v-33.517h38.555a1.013,1.013,0,0,0,1.032-.992,1.013,1.013,0,0,0-1.032-.991h-110.4a1.013,1.013,0,0,0-1.032.991,1.012,1.012,0,0,0,1.032.992h69.78v33.517h-43.942a1.013,1.013,0,0,0-1.031.993,1.013,1.013,0,0,0,1.031.991h69.78v34.071a1.014,1.014,0,0,0,1.033.992,1.013,1.013,0,0,0,1.031-.992v-34.071h38.555a1.014,1.014,0,0,0,1.032-.991A1.014,1.014,0,0,0-1191.577,1415.551Z" transform="translate(1512 -1)" fill="#e2615a"/>
    <g id="Grupo_10531" data-name="Grupo 10531" transform="translate(1512 -1)">
      <g id="Grupo_10475" data-name="Grupo 10475">
        <g id="Grupo_10474" data-name="Grupo 10474">
          <rect id="Rectángulo_4329" data-name="Rectángulo 4329" width="188.154" height="103.332" rx="5.751" transform="translate(-926.618 1175.892)" fill="gray" opacity="0.5" style="mix-blend-mode: multiply;isolation: isolate"/>
          <rect id="Rectángulo_4330" data-name="Rectángulo 4330" width="179.954" height="95.586" rx="4.002" transform="translate(-922.6 1179.499)" fill="#f6aca6"/>
          <g id="Grupo_10473" data-name="Grupo 10473" opacity="0.5" style="mix-blend-mode: multiply;isolation: isolate">
            <g id="Grupo_10464" data-name="Grupo 10464">
              <rect id="Rectángulo_4331" data-name="Rectángulo 4331" width="0.911" height="95.228" transform="translate(-898.234 1179.499)" fill="gray"/>
            </g>
            <g id="Grupo_10465" data-name="Grupo 10465">
              <rect id="Rectángulo_4332" data-name="Rectángulo 4332" width="0.911" height="95.228" transform="translate(-872.84 1179.499)" fill="gray"/>
            </g>
            <g id="Grupo_10466" data-name="Grupo 10466">
              <rect id="Rectángulo_4333" data-name="Rectángulo 4333" width="0.911" height="95.228" transform="translate(-846.698 1179.499)" fill="gray"/>
            </g>
            <g id="Grupo_10467" data-name="Grupo 10467">
              <rect id="Rectángulo_4334" data-name="Rectángulo 4334" width="0.911" height="95.228" transform="translate(-820.392 1179.499)" fill="gray"/>
            </g>
            <g id="Grupo_10468" data-name="Grupo 10468">
              <rect id="Rectángulo_4335" data-name="Rectángulo 4335" width="0.911" height="95.228" transform="translate(-793.452 1179.499)" fill="gray"/>
            </g>
            <g id="Grupo_10469" data-name="Grupo 10469">
              <rect id="Rectángulo_4336" data-name="Rectángulo 4336" width="0.911" height="95.228" transform="translate(-768.512 1179.499)" fill="gray"/>
            </g>
            <g id="Grupo_10470" data-name="Grupo 10470">
              <rect id="Rectángulo_4337" data-name="Rectángulo 4337" width="179.954" height="0.911" transform="translate(-922.6 1201.81)" fill="gray"/>
            </g>
            <g id="Grupo_10471" data-name="Grupo 10471">
              <rect id="Rectángulo_4338" data-name="Rectángulo 4338" width="179.954" height="0.911" transform="translate(-922.6 1225.492)" fill="gray"/>
            </g>
            <g id="Grupo_10472" data-name="Grupo 10472">
              <rect id="Rectángulo_4339" data-name="Rectángulo 4339" width="179.954" height="0.911" transform="translate(-922.6 1252.019)" fill="gray"/>
            </g>
          </g>
        </g>
      </g>
      <g id="Grupo_10477" data-name="Grupo 10477">
        <g id="Grupo_10476" data-name="Grupo 10476">
          <rect id="Rectángulo_4340" data-name="Rectángulo 4340" width="16.35" height="16.35" transform="matrix(0.055, -0.998, 0.998, 0.055, -842.117, 1199.155)" fill="#5d5d5d" opacity="0.27" style="mix-blend-mode: multiply;isolation: isolate"/>
          <rect id="Rectángulo_4341" data-name="Rectángulo 4341" width="16.35" height="16.35" transform="translate(-843.098 1197.847) rotate(-86.852)" fill="#64dbff"/>
        </g>
        <path id="Trazado_3807" data-name="Trazado 3807" d="M-839.669,1186.358c1.2.062,2.169.76,3.354.884a36.182,36.182,0,0,0,3.712-.024c1.179,0,3.09-.464,3.814.75a.646.646,0,0,1-1.115.651c-.335-.562-4.418-.114-4.976-.1a9.664,9.664,0,0,1-2.075-.061,18.687,18.687,0,0,0-2.714-.806C-840.495,1187.606-840.5,1186.315-839.669,1186.358Z" fill="#695c70"/>
        <path id="Trazado_3808" data-name="Trazado 3808" d="M-837.733,1189.584c2.033.039,4.292.05,6.132.948.746.364.092,1.477-.652,1.114-1.578-.77-3.734-.738-5.48-.772A.645.645,0,0,1-837.733,1189.584Z" fill="#695c70"/>
      </g>
      <g id="Grupo_10479" data-name="Grupo 10479">
        <g id="Grupo_10478" data-name="Grupo 10478">
          <rect id="Rectángulo_4342" data-name="Rectángulo 4342" width="16.351" height="16.35" transform="matrix(0.984, -0.176, 0.176, 0.984, -790.932, 1184.835)" fill="#5d5d5d" opacity="0.27" style="mix-blend-mode: multiply;isolation: isolate"/>
          <rect id="Rectángulo_4343" data-name="Rectángulo 4343" width="16.351" height="16.35" transform="matrix(0.984, -0.176, 0.176, 0.984, -791.913, 1183.527)" fill="#ffe527"/>
        </g>
        <path id="Trazado_3809" data-name="Trazado 3809" d="M-788.813,1186.69a19.861,19.861,0,0,1,4.355-.865,26.985,26.985,0,0,0,5.752-1.286c.773-.3,1.109.944.343,1.244a22.343,22.343,0,0,1-4.871,1.252,22.708,22.708,0,0,0-5.236.9C-789.238,1188.247-789.573,1187-788.813,1186.69Z" fill="#695c70"/>
        <path id="Trazado_3810" data-name="Trazado 3810" d="M-788.211,1189.677c1.7-.015,3.136-.871,4.768-1.08a14.587,14.587,0,0,0,2.694-.4,7.516,7.516,0,0,1,2.215-.453c.83-.028.829,1.263,0,1.29a13.577,13.577,0,0,0-2.722.688c-.83.2-1.71.036-2.533.244a18.22,18.22,0,0,1-4.422,1A.645.645,0,0,1-788.211,1189.677Z" fill="#695c70"/>
        <path id="Trazado_3811" data-name="Trazado 3811" d="M-782.646,1191.371a2.655,2.655,0,0,1,1.929-.468c.873.049,1.737.064,2.613.064a.646.646,0,0,1,0,1.291c-.665,0-1.336.025-2-.016-.417-.026-1.271-.244-1.63.042C-782.377,1192.8-783.295,1191.889-782.646,1191.371Z" fill="#695c70"/>
      </g>
      <g id="Grupo_10483" data-name="Grupo 10483">
        <path id="Trazado_3812" data-name="Trazado 3812" d="M-601.495,1439.37s-30.683-10.11-38.4-24.6a10.233,10.233,0,0,1,9.465-14.982c23.117.452,31.628,37.168,31.628,37.168Z" fill="#8db1e2"/>
        <g id="Grupo_10480" data-name="Grupo 10480">
          <path id="Trazado_3813" data-name="Trazado 3813" d="M-599.2,1441.405l.816-.481c-.846-1.435-20.639-35.123-40.024-37.758l-.676.818C-620.157,1406.557-599.409,1441.058-599.2,1441.405Z" fill="#709ddb"/>
        </g>
        <path id="Trazado_3814" data-name="Trazado 3814" d="M-577.933,1415.571a42.474,42.474,0,0,0,6.953-13.077,18.049,18.049,0,0,0-14.388-22.778c-5.941-1.011-13.269-.033-20.161,6.955-15.149,15.359,5.26,57.29,5.26,57.29h7.364S-592.627,1435.213-577.933,1415.571Z" fill="#cae4fd"/>
        <path id="Trazado_3815" data-name="Trazado 3815" d="M-584.7,1443.961s21.475-4.68,25.37-21.111a7.973,7.973,0,0,0-8.207-9.692c-26.593,1.355-25.368,30.8-25.368,30.8Z" fill="#a9c4e9"/>
        <g id="Grupo_10481" data-name="Grupo 10481">
          <path id="Trazado_3816" data-name="Trazado 3816" d="M-596.312,1444.068l.922-.215c-.1-.423-9.335-42.671,14.172-62.911l-1.019-.4C-606.18,1401.154-596.412,1443.64-596.312,1444.068Z" fill="#e2ebf8"/>
        </g>
        <g id="Grupo_10482" data-name="Grupo 10482">
          <path id="Trazado_3817" data-name="Trazado 3817" d="M-589.4,1444.2c.148-.252,15.061-25.13,29.447-26.609l-.533-.907c-14.864,1.528-29.121,26-29.731,27.038Z" fill="#8db1e2"/>
        </g>
        <rect id="Rectángulo_4344" data-name="Rectángulo 4344" width="27.403" height="26.556" transform="translate(-607.263 1443.961)" fill="#ffe7ba"/>
        <path id="Trazado_3818" data-name="Trazado 3818" d="M-609.231,1447.266h31.321a1.9,1.9,0,0,0,1.894-1.893h0a1.9,1.9,0,0,0-1.894-1.894h-31.321a1.9,1.9,0,0,0-1.894,1.894h0A1.9,1.9,0,0,0-609.231,1447.266Z" fill="#ffa726"/>
      </g>
      <g id="Grupo_10491" data-name="Grupo 10491">
        <g id="Grupo_10490" data-name="Grupo 10490">
          <g id="Grupo_10484" data-name="Grupo 10484">
            <path id="Trazado_3819" data-name="Trazado 3819" d="M-684.26,1460.186s-3.776,3.5-12.385,5.694c-1.895.483-3.939-.162-3.939,2.965h10.448l8.688-1.5v1.5h4.693s1.307-7.675-1.434-8.659Z" fill="#212b53"/>
            <path id="Trazado_3820" data-name="Trazado 3820" d="M-683.732,1454.673l-.528,5.513h0a5.31,5.31,0,0,0,5.749.192l.322-.192.975-5.513Z" fill="#f7b58e"/>
          </g>
          <g id="Grupo_10485" data-name="Grupo 10485">
            <path id="Trazado_3821" data-name="Trazado 3821" d="M-646.424,1460.186s-3.775,3.5-12.384,5.694c-1.9.483-3.939-.162-3.939,2.965H-652.3l8.689-1.5v1.5h4.693s1.307-7.675-1.434-8.659Z" fill="#212b53"/>
            <path id="Trazado_3822" data-name="Trazado 3822" d="M-645.9,1454.673l-.529,5.513h0a5.311,5.311,0,0,0,5.75.192l.322-.192.975-5.513Z" fill="#f7b58e"/>
          </g>
          <g id="Grupo_10486" data-name="Grupo 10486">
            <path id="Trazado_3823" data-name="Trazado 3823" d="M-740.242,1250.811c-.581.165-.332-.606-4.236-1.984-3.5-1.236-9.96-8.368-10.216-4.186,2.376,3.332,4.768,7.563,4.768,7.563,1.634,1.86,3.421,6,6.065,5.931l8.153-1.235s2.262-3.53,2.4-3.677l-1.154-1.284A18,18,0,0,1-740.242,1250.811Z" fill="#f7b58e"/>
          </g>
          <g id="Grupo_10488" data-name="Grupo 10488">
            <path id="Trazado_3824" data-name="Trazado 3824" d="M-661.616,1220.92l-1.1,10.79,11.563.458-2.317-16.728Z" fill="#f39f85"/>
            <g id="Grupo_10487" data-name="Grupo 10487">
              <path id="Trazado_3825" data-name="Trazado 3825" d="M-665.169,1222.892a5.809,5.809,0,0,1-3.239-.768c-3.875-5.635.539-20.824.539-20.824l6.192-2.607,7.868,4.908.448,10.178a8.26,8.26,0,0,1-3.513,7.021h0A16.122,16.122,0,0,1-665.169,1222.892Z" fill="#f7b58e"/>
            </g>
            <path id="Trazado_3826" data-name="Trazado 3826" d="M-655.049,1209.369c-.432-1.71-.206-5.655-1.947-5.37-1.27.208-5.622.387-7.087.387-3.49,0-9.711-1.365-9.711-6.676,0-2.656,2.575-4.945,4.206-5.626a7.074,7.074,0,0,1,5.047-.063c3.844,1.343,8.94,4.307,10.973,3.9,3.419-.687,6.831,1.318,6.783,4.224-.051,3.1-1.671,7.772-3.2,10.738a16.326,16.326,0,0,1-3.485,4.56h0Z" fill="#603813"/>
            <path id="Trazado_3827" data-name="Trazado 3827" d="M-651.51,1209.753a2.626,2.626,0,0,0-3.252.291c-1.018.847-1.213,2.091-.435,2.777a2.627,2.627,0,0,0,3.252-.29C-650.927,1211.684-650.732,1210.44-651.51,1209.753Z" fill="#f7b58e"/>
          </g>
          <path id="Trazado_3828" data-name="Trazado 3828" d="M-672.683,1236.568c-21.789,16.941-64.046,12.46-64.046,12.46l-1.953,11.077s53.614,15.843,60.3,3.168S-650.894,1219.628-672.683,1236.568Z" fill="#c2f5f9"/>
          <path id="Trazado_3829" data-name="Trazado 3829" d="M-656.932,1228.579c-.4,0-.785.008-1.169.022-12.752.468-22.711,18.063-22.711,30.823v46.146H-631.6v-52.812a23.931,23.931,0,0,0-20.007-23.783A35.056,35.056,0,0,0-656.932,1228.579Z" fill="#c2f5f9"/>
          <path id="Trazado_3830" data-name="Trazado 3830" d="M-672.631,1296.638l-10.892,1.252c-4.454.171-8.023-6.17-9.22-11.02a1,1,0,0,1,1.22-1.2c3.824.937,13.666,3.417,16.273,4.715Z" fill="#f7b58e"/>
          <path id="Trazado_3831" data-name="Trazado 3831" d="M-634.49,1241.232s24.822,33.152,9.228,49.233-50.677,9.258-50.677,9.258V1289.49s33.135.081,35.084-11.167-7.879-23.43-7.879-23.43" fill="#c2f5f9"/>
          <g id="Grupo_10489" data-name="Grupo 10489">
            <path id="Trazado_3832" data-name="Trazado 3832" d="M-631.6,1294.725c-15.708,9.047-40.439,5.183-43.856,4.591v-9.341c4.3-.034,33.19-.676,35.077-11.569,1.964-11.335-7.573-23.315-7.98-23.819l-.758.612c.1.12,9.668,12.136,7.779,23.041-1.848,10.661-33.945,10.763-34.6,10.763h-.5v11.123l.394.076a99.793,99.793,0,0,0,16.857,1.406c8.745,0,19.292-1.207,27.579-5.786Z" fill="#85ebf2"/>
          </g>
          <path id="Trazado_3833" data-name="Trazado 3833" d="M-680.812,1305.57c-5.626,27.3-6.49,56.675-6.618,81.333a652.409,652.409,0,0,0,3.054,68.744h8.121L-659.3,1342.11s1.849,16.885,4.352,45.516c1.964,22.467,2.891,41.46,8.167,68.021h8.147s7.035-81.981,7.035-150.077Z" fill="#053c5e"/>
          <path id="Trazado_3834" data-name="Trazado 3834" d="M-662.2,1225.666h10.282l1.636,3.785h-13.241Z" fill="#fff"/>
        </g>
        <path id="Trazado_3835" data-name="Trazado 3835" d="M-781.894,1193.919l44.9,73.436a1.337,1.337,0,0,0,1.848.434h0a1.32,1.32,0,0,0,.419-1.827l-45.913-72.667A.7.7,0,0,0-781.894,1193.919Z" fill="#223361"/>
        <path id="Trazado_3836" data-name="Trazado 3836" d="M-738.775,1251.458l-8-6.435s-1.516.868-.055,3.212a46.855,46.855,0,0,0,4.006,5.127c1.359.668,2.7,1.369,4.049,2.062Z" fill="#f7b58e"/>
      </g>
      <g id="Grupo_10509" data-name="Grupo 10509">
        <g id="Grupo_10504" data-name="Grupo 10504">
          <g id="Grupo_10492" data-name="Grupo 10492">
            <path id="Trazado_3837" data-name="Trazado 3837" d="M-770.581,1460.19l-10.643-77.541,1.951-.267,10.68,77.809Z" fill="#ffca7d"/>
          </g>
          <g id="Grupo_10493" data-name="Grupo 10493">
            <path id="Trazado_3838" data-name="Trazado 3838" d="M-839.613,1468.306l16.046-85.657-1.951-.267-16.083,85.924Z" fill="#ffca7d"/>
          </g>
          <g id="Grupo_10503" data-name="Grupo 10503">
            <g id="Grupo_10496" data-name="Grupo 10496">
              <path id="Trazado_3839" data-name="Trazado 3839" d="M-739.218,1461.594l12.8-9.324c1.873-1,4.243-1.733,5.991,0a18.723,18.723,0,0,1,2.078,2.472c.063,1.04-17.51,12.571-17.51,12.571l-.134-.027A5.318,5.318,0,0,1-739.218,1461.594Z" fill="#01888b"/>
              <path id="Trazado_3840" data-name="Trazado 3840" d="M-718.351,1454.746l-17.51,12.572.809.8,17.315-12.575Z" fill="#92cec6"/>
              <g id="Grupo_10494" data-name="Grupo 10494">
                <path id="Trazado_3841" data-name="Trazado 3841" d="M-734.161,1457.891l1.161-.828,1.163,2.357-1.119.813Z" fill="#fff"/>
              </g>
              <g id="Grupo_10495" data-name="Grupo 10495">
                <path id="Trazado_3842" data-name="Trazado 3842" d="M-731.687,1456.094l1.161-.827,1.163,2.357-1.119.813Z" fill="#fff"/>
              </g>
              <path id="Trazado_3843" data-name="Trazado 3843" d="M-742.173,1455.513l2.955,6.081h0a3.983,3.983,0,0,0,3.514-2.386l.112-.255-2.081-4.953Z" fill="#f7b58e"/>
            </g>
            <path id="Trazado_3844" data-name="Trazado 3844" d="M-832.224,1379.279s-24.16-55.4-7.434-71.43c9.931-9.518,28.416-8.135,41.8-5.44a19.792,19.792,0,0,1,15.926,19.389v56.793Z" fill="#00718b"/>
            <path id="Trazado_3845" data-name="Trazado 3845" d="M-832.755,1388.391h53.17c0-3.552-1.931-6.644-4.682-7.483-9.685-2.952-29.3-9.085-43.136-7.088-4.587.662-7.773,6.343-6.441,11.888A8.03,8.03,0,0,0-832.755,1388.391Z" fill="#0096b9"/>
            <path id="Trazado_3846" data-name="Trazado 3846" d="M-808.616,1357.092v6.478c0,10.2,7.41,19.97,16.086,20.032,8.782.063,19.228-1.266,31.47-4.323-3.313,25.44,18.887,78.623,18.887,78.623l6.581-2.924-7.931-81.55c-.661-9.827-4.718-16.892-11.517-16.829Z" fill="#212b53"/>
            <g id="Grupo_10498" data-name="Grupo 10498">
              <path id="Trazado_3847" data-name="Trazado 3847" d="M-780.1,1302.882a28.214,28.214,0,0,0-14.562-10.083,55.418,55.418,0,0,0-15.342-2q-.765,0-1.506.022c-11.951.361-21.69,7.548-26.965,18.279l-2.65,5.319,13.927,5.412,2.567-4.059-4.1,40.823,40.7-2.139-.4-43.7,13.535.239Z" fill="#7ac943"/>
              <path id="Trazado_3848" data-name="Trazado 3848" d="M-804.739,1287.671l.663,5s.284,2.594-4.35,2.594a6.958,6.958,0,0,1-3.883-.94,2.8,2.8,0,0,1-1.2-2.726l1.437-10.765Z" fill="#f39f85"/>
              <path id="Trazado_3849" data-name="Trazado 3849" d="M-840.328,1314.821s-6.686,14.8-3.821,18.862,41.028-4.537,41.028-4.537v-5.013l-28.851,1.91,4.017-6.5Z" fill="#f7b58e"/>
              <path id="Trazado_3850" data-name="Trazado 3850" d="M-771.445,1322.235s9.3,6.037,9.307,10.6-17.031,1.1-17.031,1.1Z" fill="#f7b58e"/>
              <path id="Trazado_3851" data-name="Trazado 3851" d="M-801.411,1310.285h40.35l-11.813,25.288h-40.047Z" fill="#ccc"/>
              <g id="Grupo_10497" data-name="Grupo 10497">
                <path id="Trazado_3852" data-name="Trazado 3852" d="M-803.594,1287.943a5.328,5.328,0,0,0,3.135-1.033c3.426-6.321-1.965-22.427-1.965-22.427l-13.681,3.366.26,11.007a9.24,9.24,0,0,0,3.942,7.352h0A14.822,14.822,0,0,0-803.594,1287.943Z" fill="#f7b58e"/>
                <path id="Trazado_3853" data-name="Trazado 3853" d="M-799.625,1261.02c-2.316-1.5-5.225-1.131-6.341.01-.829.847-5.778-3.841-12.419-1.571-4.564,1.56-8.791,10.459,2.741,22.647.068-1.732,1.113-11.461,3.9-10.479a14.128,14.128,0,0,0,7.58,1.25,9.5,9.5,0,0,0,7.006-5.287C-796.317,1265.435-796.244,1263.247-799.625,1261.02Z" fill="#603813"/>
                <path id="Trazado_3854" data-name="Trazado 3854" d="M-816.949,1274.566a2.419,2.419,0,0,1,3.221.109,2.084,2.084,0,0,1,.62,2.968,2.419,2.419,0,0,1-3.221-.108A2.084,2.084,0,0,1-816.949,1274.566Z" fill="#f7b58e"/>
                <path id="Trazado_3855" data-name="Trazado 3855" d="M-819.982,1258.044s-2.352-2.567-7.306.02c-8.778,5.183-4.472,16.226-1.9,21.767a11.488,11.488,0,0,1,.18,9.3c-3.055,7.267-6.9,20.7,4.2,24.726a7.6,7.6,0,0,0,6.4-.427,6.852,6.852,0,0,0,3.219-4.287,7.968,7.968,0,0,0-.974-6.184c-.86-1.41-1.855-3.394-1.548-4.631.516-2.084,5.355-7.207,4.233-12.779s-5.17-6.726-7.6-12.262c-4.278-9.741-2.42-11.627-2.42-11.627Z" fill="#603813"/>
                <path id="Trazado_3856" data-name="Trazado 3856" d="M-822.211,1263.141l3.826-3.682-1.6-1.414-3.514,3.617Z" fill="#f6a505"/>
              </g>
            </g>
            <g id="Grupo_10501" data-name="Grupo 10501">
              <path id="Trazado_3857" data-name="Trazado 3857" d="M-784.544,1460.094l15.834-.025c2.1.294,4.452,1.092,4.845,3.525a18.666,18.666,0,0,1,.229,3.221c-.56.878-21.555-.117-21.555-.117l-.092-.1A5.319,5.319,0,0,1-784.544,1460.094Z" fill="#01888b"/>
              <path id="Trazado_3858" data-name="Trazado 3858" d="M-763.636,1466.815l-21.556-.117.187,1.12h21.4Z" fill="#92cec6"/>
              <g id="Grupo_10499" data-name="Grupo 10499">
                <path id="Trazado_3859" data-name="Trazado 3859" d="M-778.276,1460.069l1.425.013-.444,2.591h-1.383Z" fill="#fff"/>
              </g>
              <g id="Grupo_10500" data-name="Grupo 10500">
                <path id="Trazado_3860" data-name="Trazado 3860" d="M-775.219,1460.069l1.426.013-.444,2.591h-1.383Z" fill="#fff"/>
              </g>
              <path id="Trazado_3861" data-name="Trazado 3861" d="M-785.191,1452.266l.647,7.828h0a3.98,3.98,0,0,0,4.245.134l.241-.141,1.381-7.033Z" fill="#f7b58e"/>
            </g>
            <path id="Trazado_3862" data-name="Trazado 3862" d="M-826.958,1354.964v6.619a21.514,21.514,0,0,0,17.685,21.218,67.268,67.268,0,0,0,35.32-3.325c-13.1,22.6-11.461,75.5-11.461,75.5h6.245l27.857-84.691a11.633,11.633,0,0,0-10.941-15.827Z" fill="#053c5e"/>
            <g id="Grupo_10502" data-name="Grupo 10502">
              <rect id="Rectángulo_4345" data-name="Rectángulo 4345" width="30.239" height="2.865" transform="translate(-823.136 1337.774)" fill="#fff"/>
            </g>
          </g>
        </g>
        <g id="Grupo_10508" data-name="Grupo 10508">
          <path id="Trazado_3863" data-name="Trazado 3863" d="M-860.006,1289.473l2.864,2.98-3.057,17.56-2.9,1.67Z" fill="gray"/>
          <g id="Grupo_10507" data-name="Grupo 10507">
            <g id="Grupo_10505" data-name="Grupo 10505">
              <path id="Trazado_3864" data-name="Trazado 3864" d="M-920.329,1470.517l-2.964-.4,13.6-129.094,2.963.4Z" fill="#ffca7d"/>
            </g>
            <g id="Grupo_10506" data-name="Grupo 10506">
              <path id="Trazado_3865" data-name="Trazado 3865" d="M-692.369,1470.517l2.964-.4L-703,1341.026l-2.963.4Z" fill="#ffca7d"/>
            </g>
          </g>
        </g>
      </g>
      <g id="Grupo_10521" data-name="Grupo 10521">
        <g id="Grupo_10514" data-name="Grupo 10514">
          <g id="Grupo_10513" data-name="Grupo 10513">
            <path id="Trazado_3866" data-name="Trazado 3866" d="M-965.33,1289.75l-2.828,10.718-8.352-5.359,2.9-14.431Z" fill="#f39f85"/>
            <path id="Trazado_3867" data-name="Trazado 3867" d="M-967.2,1296.84s4.8,9.557,8.677,18.21a19.781,19.781,0,0,1,.147,17.277c-5.867,13.674-6.953,33.068-6.953,33.068h-27.284s10.995-26.9,7.965-41.493c-2.934-14.132,6.274-33.328,6.274-33.328Z" fill="#ffd147"/>
            <path id="Trazado_3868" data-name="Trazado 3868" d="M-963.78,1267.1c-6.446.876-9.653,9.139-9.653,9.139l.073,24.455-11.178-9.664a87.113,87.113,0,0,1,1.946-23.054c2.392-7.57,12.039-9.564,18.812-5.871,3.294,1.8,5.251,5.321,6.414,8.821a27.874,27.874,0,0,1,.663,14.6l-3.834,17.945-6.664-6.629s.669-2.681,1.871-7.09C-962.875,1280.743-959.453,1266.51-963.78,1267.1Z" fill="#943b1e"/>
            <path id="Trazado_3869" data-name="Trazado 3869" d="M-975.331,1276.58a2.278,2.278,0,0,1,3.021.3,1.964,1.964,0,0,1,.4,2.828,2.278,2.278,0,0,1-3.021-.3A1.963,1.963,0,0,1-975.331,1276.58Z" fill="#f7b58e"/>
            <g id="Grupo_10510" data-name="Grupo 10510">
              <path id="Trazado_3870" data-name="Trazado 3870" d="M-962.641,1289.958a5.027,5.027,0,0,0,3.009-.783c3.6-5.737-.5-21.2-.5-21.2l-5.753-2.655-7.311,5-.416,10.363a8.7,8.7,0,0,0,3.264,7.148h0A13.966,13.966,0,0,0-962.641,1289.958Z" fill="#f7b58e"/>
            </g>
            <path id="Trazado_3871" data-name="Trazado 3871" d="M-956.038,1351.084l4.42,9.74h4.431a9.805,9.805,0,0,1,4.764,1.234l5.562,3.631-16.865-.329-10.865-12.32Z" fill="#f39f85"/>
            <path id="Trazado_3872" data-name="Trazado 3872" d="M-962.564,1266.252c1.378,4.621-10.869,9.985-10.869,9.985l-3.077-5.769,5.622-6.892,7.108,1.135A4.085,4.085,0,0,1-962.564,1266.252Z" fill="#943b1e"/>
            <g id="Grupo_10511" data-name="Grupo 10511">
              <path id="Trazado_3873" data-name="Trazado 3873" d="M-945.528,1467.721a11.839,11.839,0,0,0-2.214-2.18,32.513,32.513,0,0,1-1.533-4.778c-.47-2.568,2.093-4.583,2.093-4.583s6.7,6.95,14.888,8.166,7.262,5,7.262,5h-13.946c-.956,0-6.6-5.976-6.608-5.61Z" fill="#63c0c4"/>
              <path id="Trazado_3874" data-name="Trazado 3874" d="M-955.8,1384.5h12.932a48.542,48.542,0,0,0-3.887,17.995,49.666,49.666,0,0,0,.584,7c2.367,15.059-1.009,46.678-1.009,46.678s8.872,11.3,15.583,8.28c-7.454-3.4-9.382-8.045-10.03-10.263a5.514,5.514,0,0,1-.049-2.232c.592-4.946,6.241-26.408,14.863-72.974.812-4.39,1.459-8.595-1.042-11.83C-934.639,1358.39-955.8,1384.5-955.8,1384.5Z" fill="#f39f85"/>
            </g>
            <path id="Trazado_3875" data-name="Trazado 3875" d="M-962.486,1267.225c.257,1.823,3.1,4.035,3.1,4.035l.268-2.179-.649-1.532-1.459-.811S-962.742,1265.4-962.486,1267.225Z" fill="#943b1e"/>
            <path id="Trazado_3876" data-name="Trazado 3876" d="M-970.518,1309.135a8.133,8.133,0,0,0-2.847-4.653,5.352,5.352,0,0,0-5.172-1.013c-3.169,1.052-4.058,4.692-4.3,6.984a7.6,7.6,0,0,0,.384,3.277s4.456,40.769,11.564,43.85,33.216-22.054,33.216-22.054l4.865-3.081c1.71-1.073,3.946-2.536,4.3-4.524.347-1.97-1.2-3.763-1.7-5.369-.535-1.694-.737-2.1-2.416-1.532a6.585,6.585,0,0,0-3.617,3.063l-4.67,8.362-25.622,13.784Z" fill="#f7b58e"/>
            <path id="Trazado_3877" data-name="Trazado 3877" d="M-965.33,1363.743" fill="#f7b58e"/>
            <g id="Grupo_10512" data-name="Grupo 10512">
              <path id="Trazado_3878" data-name="Trazado 3878" d="M-951.876,1456.18s-2.563,2.015-2.093,4.583,1.135,8.583,1.135,8.583h2.635l-.081-5.61c.008-.366,5.652,5.61,6.608,5.61h13.946s.927-3.784-7.262-5S-951.876,1456.18-951.876,1456.18Z" fill="#63c0c4"/>
              <path id="Trazado_3879" data-name="Trazado 3879" d="M-957.172,1385.148h9.77a41.634,41.634,0,0,0-4.049,17.351,49.656,49.656,0,0,0,.584,7c2.367,15.059-1.009,46.678-1.009,46.678s8.872,11.3,15.583,8.28c-7.454-3.4-9.382-8.045-10.03-10.263a5.515,5.515,0,0,1-.049-2.232c.592-4.946,6.241-26.408,14.863-72.974.812-4.39,1.459-8.595-1.042-11.83-3.792-4.9-19.8,3.392-28.067,7.163C-966.758,1377.123-957.172,1385.148-957.172,1385.148Z" fill="#f7b58e"/>
            </g>
            <path id="Trazado_3880" data-name="Trazado 3880" d="M-992.614,1365.4s-3.437,5.483-1.654,11.159a13.049,13.049,0,0,0,3.581,5.289c2.929,2.8,6.876,3.3,10.928,3.3h22.587s1.3-10.7,7.5-13.621c3.144-1.482,9.682-2.624,12.255-3.231,2.831-.667,7.165-.646,8.957-2.936Z" fill="#00666b"/>
          </g>
        </g>
        <g id="Grupo_10520" data-name="Grupo 10520">
          <g id="Grupo_10515" data-name="Grupo 10515">
            <path id="Trazado_3881" data-name="Trazado 3881" d="M-957.576,1468.306l-10.681-77.808-1.951.267,10.643,77.541Z" fill="#ffca7d"/>
          </g>
          <g id="Grupo_10519" data-name="Grupo 10519">
            <g id="Grupo_10517" data-name="Grupo 10517">
              <path id="Trazado_3882" data-name="Trazado 3882" d="M-954.577,1390.631h-46.809v-9.194c16.419-7.553,46.809,4.6,46.809,4.6Z" fill="#0096b9"/>
              <g id="Grupo_10516" data-name="Grupo 10516">
                <path id="Trazado_3883" data-name="Trazado 3883" d="M-1001.386,1389.646v-1.97c-.262,0-6.568-.207-6.568-10.508,0-11.167,6.978-28.085,7.05-28.255l-1.821-.756c-.293.707-7.2,17.455-7.2,29.011C-1009.925,1389.5-1001.472,1389.646-1001.386,1389.646Z" fill="#ffca7d"/>
              </g>
              <path id="Trazado_3884" data-name="Trazado 3884" d="M-990.55,1351.225c-11.493-2.69-12.927-1.174-12.927-1.174s3.535-13.6.163-21.715c14.1-8.136,16.705,1.544,16.705,1.544S-984.173,1338.1-990.55,1351.225Z" fill="#0096b9"/>
            </g>
            <g id="Grupo_10518" data-name="Grupo 10518">
              <path id="Trazado_3885" data-name="Trazado 3885" d="M-1005.994,1468.306l10.643-77.541-1.951-.267-10.68,77.808Z" fill="#ffca7d"/>
            </g>
          </g>
        </g>
      </g>
      <rect id="Rectángulo_4346" data-name="Rectángulo 4346" width="21.281" height="1.768" transform="translate(-919.609 1334.689)" fill="#b3b3b3"/>
      <g id="Grupo_10522" data-name="Grupo 10522">
        <path id="Trazado_3886" data-name="Trazado 3886" d="M-875.489,1336.076h-15.093v-2.286h15.093a8.233,8.233,0,0,0,8.125-7.085l10.325-63.627,2.256.366-10.32,63.6A10.522,10.522,0,0,1-875.489,1336.076Z" fill="#b3b3b3"/>
      </g>
      <path id="Trazado_3887" data-name="Trazado 3887" d="M-857.039,1264.079l-1.539,1.19-9.715,58.239,1.363,1.524Z" fill="#fff"/>
      <g id="Grupo_10524" data-name="Grupo 10524">
        <path id="Trazado_3888" data-name="Trazado 3888" d="M-751.423,1287.712l-2.866,2.983,3.06,17.579,2.906,1.672Z" fill="gray"/>
        <rect id="Rectángulo_4347" data-name="Rectángulo 4347" width="21.304" height="1.77" transform="translate(-691.755 1335.749) rotate(180)" fill="#b3b3b3"/>
        <g id="Grupo_10523" data-name="Grupo 10523">
          <path id="Trazado_3889" data-name="Trazado 3889" d="M-735.923,1335.367h15.109v-2.288h-15.109a8.243,8.243,0,0,1-8.134-7.093l-10.336-63.695-2.259.366,10.332,63.668A10.533,10.533,0,0,0-735.923,1335.367Z" fill="#b3b3b3"/>
        </g>
        <path id="Trazado_3890" data-name="Trazado 3890" d="M-754.393,1262.291l1.541,1.192,9.726,58.3-1.365,1.526Z" fill="#fff"/>
      </g>
      <path id="Trazado_3891" data-name="Trazado 3891" d="M-782.967,1322.34a2.457,2.457,0,0,1-2.456,2.456,2.457,2.457,0,0,1-2.457-2.456,2.457,2.457,0,0,1,2.457-2.457A2.457,2.457,0,0,1-782.967,1322.34Z" fill="#fff"/>
      <rect id="Rectángulo_4348" data-name="Rectángulo 4348" width="249.626" height="12.356" rx="4.719" transform="translate(-932.328 1335.573)" fill="#3f2c3c"/>
      <rect id="Rectángulo_4349" data-name="Rectángulo 4349" width="502.956" height="3.477" rx="1.738" transform="translate(-1044.171 1468.306)" fill="#783a35"/>
      <g id="Grupo_10526" data-name="Grupo 10526">
        <g id="Grupo_10525" data-name="Grupo 10525">
          <rect id="Rectángulo_4350" data-name="Rectángulo 4350" width="15.826" height="15.826" transform="translate(-892.966 1209.666)" fill="#5d5d5d" opacity="0.27" style="mix-blend-mode: multiply;isolation: isolate"/>
          <rect id="Rectángulo_4351" data-name="Rectángulo 4351" width="15.826" height="15.826" transform="translate(-893.916 1208.4)" fill="#ff5592"/>
        </g>
        <path id="Trazado_3892" data-name="Trazado 3892" d="M-888.951,1212.026c1.1-.02,2.236-.192,3.35-.232,1.322-.049,2.637-.191,3.962-.2a.645.645,0,0,1,0,1.29c-1.325.007-2.64.15-3.962.2-1.124.041-2.239.212-3.35.232A.645.645,0,0,1-888.951,1212.026Z" fill="#695c70"/>
        <path id="Trazado_3893" data-name="Trazado 3893" d="M-890.2,1214.629c2.925-.933,5.955-.574,8.989-.238.816.091.825,1.382,0,1.291-2.838-.315-5.883-.69-8.646.192C-890.648,1216.126-890.987,1214.881-890.2,1214.629Z" fill="#695c70"/>
        <path id="Trazado_3894" data-name="Trazado 3894" d="M-889.6,1216.972c1.733,0,3.5-.088,5.226.029a6.532,6.532,0,0,1,3.271.7c.663.486.02,1.606-.651,1.114-.866-.634-2.74-.546-3.76-.557-1.362-.015-2.725,0-4.086,0A.645.645,0,0,1-889.6,1216.972Z" fill="#695c70"/>
      </g>
      <g id="Grupo_10528" data-name="Grupo 10528">
        <g id="Grupo_10527" data-name="Grupo 10527">
          <path id="Trazado_3895" data-name="Trazado 3895" d="M-868.661,1247.265l15.515,2.5a.009.009,0,0,0,.01-.008l2.5-15.514a.008.008,0,0,0-.007-.01l-15.514-2.5a.011.011,0,0,0-.011.008l-2.5,15.514A.008.008,0,0,0-868.661,1247.265Z" fill="#5d5d5d" opacity="0.27" style="mix-blend-mode: multiply;isolation: isolate"/>
          <path id="Trazado_3896" data-name="Trazado 3896" d="M-869.6,1246.007l15.515,2.5a.008.008,0,0,0,.01-.007l2.5-15.514a.009.009,0,0,0-.007-.011l-15.514-2.5a.009.009,0,0,0-.011.007l-2.5,15.514A.009.009,0,0,0-869.6,1246.007Z" fill="#bee51c"/>
        </g>
        <path id="Trazado_3897" data-name="Trazado 3897" d="M-865.024,1236.284c1.4.534,3.418.31,4.924.427a14.3,14.3,0,0,1,4.322.864c.756.314.424,1.563-.342,1.244a16.918,16.918,0,0,0-5.171-.866,15.571,15.571,0,0,1-4.077-.424C-866.136,1237.237-865.8,1235.989-865.024,1236.284Z" fill="#695c70"/>
        <path id="Trazado_3898" data-name="Trazado 3898" d="M-865.67,1238.435c1.246.282,2.472.706,3.721,1.016,1.482.368,2.973.743,4.451,1.134a.646.646,0,0,1-.343,1.244c-1.478-.391-2.969-.766-4.451-1.134-1.244-.308-2.482-.736-3.721-1.016C-866.822,1239.5-866.48,1238.252-865.67,1238.435Z" fill="#695c70"/>
        <path id="Trazado_3899" data-name="Trazado 3899" d="M-862.444,1242.306c.9.158,1.655.712,2.544.9a.633.633,0,0,1,.451.45l.036.173a.655.655,0,0,1-1.161.533,18.006,18.006,0,0,0-2.213-.814C-863.6,1243.406-863.257,1242.162-862.444,1242.306Z" fill="#695c70"/>
      </g>
      <g id="Grupo_10530" data-name="Grupo 10530">
        <g id="Grupo_10529" data-name="Grupo 10529">
          <rect id="Rectángulo_4352" data-name="Rectángulo 4352" width="15.733" height="15.733" transform="translate(-815.684 1208.357) rotate(-4.379)" fill="#5d5d5d" opacity="0.27" style="mix-blend-mode: multiply;isolation: isolate"/>
          <rect id="Rectángulo_4353" data-name="Rectángulo 4353" width="15.733" height="15.733" transform="translate(-816.628 1207.098) rotate(-4.379)" fill="#ffa21a"/>
        </g>
        <path id="Trazado_3900" data-name="Trazado 3900" d="M-812.063,1211.026a9.565,9.565,0,0,0,1.6-.413c.71-.119,1.44-.092,2.156-.209.525-.086,1.039-.18,1.572-.215.584-.039,1.479.123,1.961-.265.641-.516,1.56.392.912.912-1.089.877-2.571.553-3.877.766-.7.114-1.348.2-2.05.257-.8.064-1.473.46-2.27.457A.645.645,0,0,1-812.063,1211.026Z" fill="#695c70"/>
        <path id="Trazado_3901" data-name="Trazado 3901" d="M-810.73,1213.844c.771-.163,1.535-.229,2.3-.382a4.438,4.438,0,0,1,2.088-.011.642.642,0,0,1,.45.45c.012.06.025.119.037.179a.662.662,0,0,1-1.15.563,4.733,4.733,0,0,0-1.465.151c-.641.13-1.28.159-1.922.294C-811.2,1215.26-811.543,1214.016-810.73,1213.844Z" fill="#695c70"/>
      </g>
    </g>
  </g>
</svg>
