<svg xmlns="http://www.w3.org/2000/svg" width="116.633" height="113.348" viewBox="0 0 116.633 113.348">
  <g id="Grupo_10535" data-name="Grupo 10535" transform="translate(1328.985 -839.069)">
    <path id="Trazado_3902" data-name="Trazado 3902" d="M-1263.032,913.443h-15.273c0,23.51-14.323,35.543-14.323,35.543h43.919s-14.323-12.033-14.323-35.543Zm0,0" fill="#b3b3b3"/>
    <path id="Trazado_3903" data-name="Trazado 3903" d="M-1245.7,950.709h-49.931a2.177,2.177,0,0,1-2.177-2.177,6.936,6.936,0,0,1,6.936-6.934h40.413a6.935,6.935,0,0,1,6.935,6.934,2.176,2.176,0,0,1-2.176,2.177Zm0,0" fill="#cdd6df"/>
    <path id="Trazado_3904" data-name="Trazado 3904" d="M-1218.461,926.932h-104.416a4.4,4.4,0,0,1-4.4-4.4V845.177a4.4,4.4,0,0,1,4.4-4.4h104.416a4.4,4.4,0,0,1,4.4,4.4v77.355a4.4,4.4,0,0,1-4.4,4.4Zm0,0" fill="#b3b3b3"/>
    <path id="Trazado_3905" data-name="Trazado 3905" d="M-1218.461,840.777H-1230.7a4.4,4.4,0,0,1,4.4,4.4v77.355a4.4,4.4,0,0,1-4.4,4.4h12.236a4.4,4.4,0,0,0,4.4-4.4V845.177a4.4,4.4,0,0,0-4.4-4.4Zm0,0" fill="#999"/>
    <rect id="Rectángulo_4359" data-name="Rectángulo 4359" width="100.46" height="60.022" transform="translate(-1320.899 847.383)" fill="#f2f2f2"/>
    <path id="Trazado_3906" data-name="Trazado 3906" d="M-1327.277,914.24v8.292a4.4,4.4,0,0,0,4.4,4.4h104.416a4.4,4.4,0,0,0,4.4-4.4V914.24Zm0,0" fill="#cdd6df"/>
    <path id="Trazado_3907" data-name="Trazado 3907" d="M-1218.461,926.932a4.4,4.4,0,0,0,4.4-4.4v-8.293H-1226.3v8.293a4.4,4.4,0,0,1-4.4,4.4Zm0,0" fill="#abb2ba"/>
    <path id="Trazado_3908" data-name="Trazado 3908" d="M-1257.633,862.178c-4.067,3.731-12.182,4.666-16.455,4.9a3.64,3.64,0,0,0-3.368,2.882l-5.7,27.1,27.1-5.706a3.637,3.637,0,0,0,2.881-3.368c.23-4.272,1.165-12.387,4.9-16.455Zm-5.969,21.362a4.273,4.273,0,0,1-6.043,0,4.274,4.274,0,0,1,0-6.041,4.274,4.274,0,0,1,6.043,0,4.272,4.272,0,0,1,0,6.041Zm0,0" fill="#46d1c0"/>
    <path id="Trazado_3909" data-name="Trazado 3909" d="M-1251.059,855.56l-6.574,6.618,9.352,9.352,6.617-6.574Zm0,0" fill="#426175"/>
    <path id="Trazado_3910" data-name="Trazado 3910" d="M-1304.58,864.212h-6.665a1.338,1.338,0,0,1-1.337-1.337V856.21a1.338,1.338,0,0,1,1.337-1.337h6.665a1.338,1.338,0,0,1,1.338,1.337v6.665a1.338,1.338,0,0,1-1.338,1.337Zm0,0" fill="#fd715c"/>
    <path id="Trazado_3911" data-name="Trazado 3911" d="M-1304.58,881.092h-6.665a1.337,1.337,0,0,1-1.337-1.336V873.09a1.338,1.338,0,0,1,1.337-1.337h6.665a1.338,1.338,0,0,1,1.338,1.337v6.666a1.337,1.337,0,0,1-1.338,1.336Zm0,0" fill="#fed066"/>
    <path id="Trazado_3912" data-name="Trazado 3912" d="M-1304.58,897.746h-6.665a1.338,1.338,0,0,1-1.337-1.338v-6.665a1.338,1.338,0,0,1,1.337-1.337h6.665a1.338,1.338,0,0,1,1.338,1.337v6.665a1.338,1.338,0,0,1-1.338,1.338Zm0,0" fill="#88dbfd"/>
    <path id="Trazado_3913" data-name="Trazado 3913" d="M-1218.46,839.069h-104.417a6.114,6.114,0,0,0-6.108,6.108v77.355a6.114,6.114,0,0,0,6.108,6.108h40.63a47.157,47.157,0,0,1-5.138,11.249h-3.49a8.653,8.653,0,0,0-8.644,8.643,3.889,3.889,0,0,0,3.885,3.885h49.931a3.89,3.89,0,0,0,3.885-3.885,8.653,8.653,0,0,0-8.644-8.643h-3.49a47.076,47.076,0,0,1-5.138-11.249h40.63a6.115,6.115,0,0,0,6.108-6.108V845.177a6.115,6.115,0,0,0-6.108-6.108Zm-104.417,3.417h104.417a2.694,2.694,0,0,1,2.691,2.691v67.354h-109.8V845.177a2.694,2.694,0,0,1,2.691-2.691Zm77.642,106.047a.469.469,0,0,1-.468.468h-49.931a.469.469,0,0,1-.468-.468,5.233,5.233,0,0,1,5.227-5.227h40.413a5.233,5.233,0,0,1,5.227,5.227Zm-12.7-8.644H-1283.4a50.9,50.9,0,0,0,4.719-11.249h16.028a50.942,50.942,0,0,0,4.72,11.249Zm39.475-14.666h-104.417a2.694,2.694,0,0,1-2.691-2.691v-6.584h109.8v6.584a2.7,2.7,0,0,1-2.691,2.691Zm0,0" fill="#4d4d4d"/>
    <path id="Trazado_3914" data-name="Trazado 3914" d="M-1320.9,909.114h100.46a1.708,1.708,0,0,0,1.708-1.708V879.665a1.708,1.708,0,0,0-1.708-1.709,1.709,1.709,0,0,0-1.709,1.709V905.7h-97.042v-26.02a1.709,1.709,0,0,0-1.709-1.709,1.708,1.708,0,0,0-1.708,1.709v27.729a1.708,1.708,0,0,0,1.708,1.708Zm0,0" fill="#4d4d4d"/>
    <path id="Trazado_3915" data-name="Trazado 3915" d="M-1320.9,874.539a1.709,1.709,0,0,0,1.709-1.708V849.092h97.042v23.739a1.709,1.709,0,0,0,1.709,1.708,1.707,1.707,0,0,0,1.708-1.708V847.383a1.708,1.708,0,0,0-1.708-1.708H-1320.9a1.708,1.708,0,0,0-1.708,1.708v25.448a1.707,1.707,0,0,0,1.708,1.708Zm0,0" fill="#4d4d4d"/>
    <path id="Trazado_3916" data-name="Trazado 3916" d="M-1301.534,856.21a3.049,3.049,0,0,0-3.046-3.045h-6.665a3.048,3.048,0,0,0-3.046,3.045v6.665a3.049,3.049,0,0,0,3.046,3.045h6.665a3.049,3.049,0,0,0,3.046-3.045Zm-3.417,6.293h-5.923v-5.921h5.923Zm0,0" fill="#4d4d4d"/>
    <path id="Trazado_3917" data-name="Trazado 3917" d="M-1301.534,873.091a3.05,3.05,0,0,0-3.046-3.046h-6.665a3.049,3.049,0,0,0-3.046,3.046v6.665a3.05,3.05,0,0,0,3.046,3.046h6.665a3.05,3.05,0,0,0,3.046-3.046Zm-3.417,6.294h-5.923v-5.923h5.923Zm0,0" fill="#4d4d4d"/>
    <path id="Trazado_3918" data-name="Trazado 3918" d="M-1304.58,886.7h-6.665a3.05,3.05,0,0,0-3.046,3.046v6.665a3.05,3.05,0,0,0,3.046,3.046h6.665a3.05,3.05,0,0,0,3.046-3.046v-6.665a3.049,3.049,0,0,0-3.046-3.046Zm-.371,9.34h-5.923v-5.923h5.923Zm0,0" fill="#4d4d4d"/>
    <path id="Trazado_3919" data-name="Trazado 3919" d="M-1284.87,897.087v.048l0,.048h0l0,.048v.009l.006.044v0a1.7,1.7,0,0,0,.377.857h0a.442.442,0,0,0,.031.036l.006.008.027.03.008.009.035.035.031.031.022.02.009.009a1.707,1.707,0,0,0,1.054.439h.19l.031,0h.01l.035,0h.007l.037-.005h.005c.052-.007.1-.016.154-.027l27.077-5.7a5.355,5.355,0,0,0,4.236-4.947c.541-10.034,3.252-14.071,4.423-15.363l6.589-6.546a1.7,1.7,0,0,0,.5-1.209,1.708,1.708,0,0,0-.5-1.211l-9.4-9.4a1.709,1.709,0,0,0-1.208-.5h0a1.7,1.7,0,0,0-1.209.5l-6.544,6.587c-1.289,1.17-5.326,3.884-15.365,4.426a5.358,5.358,0,0,0-4.949,4.236l-5.7,27.081c-.013.059-.023.117-.03.177v.009c0,.013,0,.026,0,.039v.014c0,.013,0,.025,0,.039v.011c0,.015,0,.03,0,.046v.017a.154.154,0,0,0,0,.03v.02Zm33.815-39.106,6.971,6.97-4.193,4.167-6.943-6.944Zm-24.729,12.327A1.935,1.935,0,0,1-1274,868.78c4.223-.227,11.6-1.1,16.231-4.319l7.2,7.2c-3.22,4.632-4.091,12.007-4.32,16.229a1.932,1.932,0,0,1-1.527,1.789l-21.477,4.522,8.421-8.421a5.983,5.983,0,0,0,2.845.716,5.966,5.966,0,0,0,4.229-1.748,5.989,5.989,0,0,0,0-8.458,5.942,5.942,0,0,0-4.229-1.752,5.94,5.94,0,0,0-4.229,1.752,5.944,5.944,0,0,0-1.751,4.229,5.961,5.961,0,0,0,.717,2.847l-8.42,8.419Zm6.6,10.212a2.541,2.541,0,0,1,.751-1.812,2.542,2.542,0,0,1,1.812-.752,2.542,2.542,0,0,1,1.812.752,2.565,2.565,0,0,1,0,3.625,2.566,2.566,0,0,1-3.624,0,2.545,2.545,0,0,1-.751-1.813Zm0,0" fill="#4d4d4d"/>
  </g>
</svg>
