<svg xmlns="http://www.w3.org/2000/svg" width="104.16" height="101.227" viewBox="0 0 104.16 101.227">
  <g id="Grupo_8852" data-name="Grupo 8852" transform="translate(-1734.851 -3951.551)">
    <path id="Trazado_1901" data-name="Trazado 1901" d="M1793.751,4017.972h-13.64c0,21-12.791,31.742-12.791,31.742h39.222s-12.791-10.746-12.791-31.742Zm0,0" fill="#b3b3b3"/>
    <path id="Trazado_1902" data-name="Trazado 1902" d="M1809.227,4051.253h-44.591a1.943,1.943,0,0,1-1.944-1.944,6.194,6.194,0,0,1,6.194-6.193h36.091a6.193,6.193,0,0,1,6.193,6.193,1.943,1.943,0,0,1-1.943,1.944Zm0,0" fill="#cdd6df"/>
    <path id="Trazado_1903" data-name="Trazado 1903" d="M1833.556,4030.018h-93.25a3.929,3.929,0,0,1-3.929-3.929v-69.083a3.929,3.929,0,0,1,3.929-3.929h93.251a3.93,3.93,0,0,1,3.929,3.929v69.083a3.93,3.93,0,0,1-3.93,3.929Zm0,0" fill="#b3b3b3"/>
    <path id="Trazado_1904" data-name="Trazado 1904" d="M1833.556,3953.077h-10.928a3.929,3.929,0,0,1,3.929,3.929v69.083a3.929,3.929,0,0,1-3.929,3.929h10.928a3.93,3.93,0,0,0,3.93-3.929v-69.083a3.93,3.93,0,0,0-3.93-3.929Zm0,0" fill="#999"/>
    <rect id="Rect치ngulo_3135" data-name="Rect치ngulo 3135" width="89.716" height="53.604" transform="translate(1742.073 3958.977)" fill="#f2f2f2"/>
    <rect id="Rect치ngulo_3136" data-name="Rect치ngulo 3136" width="89.716" height="9.984" transform="translate(1742.073 3958.977)" fill="#46d1c0"/>
    <path id="Trazado_1905" data-name="Trazado 1905" d="M1736.377,4018.683v7.406a3.929,3.929,0,0,0,3.929,3.929h93.251a3.93,3.93,0,0,0,3.929-3.929v-7.406Zm0,0" fill="#cdd6df"/>
    <path id="Trazado_1906" data-name="Trazado 1906" d="M1837.486,4018.683h-10.929v7.406a3.929,3.929,0,0,1-3.929,3.929h10.928a3.93,3.93,0,0,0,3.93-3.929Zm0,0" fill="#abb2ba"/>
    <path id="Trazado_1907" data-name="Trazado 1907" d="M1833.556,3951.551h-93.25a5.462,5.462,0,0,0-5.455,5.455v69.083a5.461,5.461,0,0,0,5.455,5.455h36.286a42.151,42.151,0,0,1-4.59,10.046h-3.116a7.728,7.728,0,0,0-7.72,7.719,3.473,3.473,0,0,0,3.47,3.469h44.591a3.472,3.472,0,0,0,3.469-3.469,7.727,7.727,0,0,0-7.719-7.719h-3.117a42.148,42.148,0,0,1-4.589-10.046h36.285a5.46,5.46,0,0,0,5.455-5.455v-69.083a5.461,5.461,0,0,0-5.455-5.455Zm-93.25,3.052h93.25a2.407,2.407,0,0,1,2.4,2.4v60.152H1737.9v-60.152a2.407,2.407,0,0,1,2.4-2.4Zm69.339,94.707a.42.42,0,0,1-.418.418h-44.591a.418.418,0,0,1-.418-.418,4.673,4.673,0,0,1,4.668-4.668h36.091a4.673,4.673,0,0,1,4.668,4.668Zm-11.342-7.72h-22.744a45.485,45.485,0,0,0,4.215-10.046h14.314a45.485,45.485,0,0,0,4.215,10.046Zm35.253-13.1h-93.25a2.406,2.406,0,0,1-2.4-2.4v-5.88h98.058v5.88a2.406,2.406,0,0,1-2.4,2.4Zm0,0" fill="#4d4d4d"/>
    <path id="Trazado_1908" data-name="Trazado 1908" d="M1742.073,4014.106h89.716a1.525,1.525,0,0,0,1.526-1.526v-23.751a1.525,1.525,0,0,0-3.051,0v22.225H1743.6v-22.225a1.526,1.526,0,0,0-3.052,0v23.751a1.526,1.526,0,0,0,1.526,1.526Zm0,0" fill="#4d4d4d"/>
    <path id="Trazado_1909" data-name="Trazado 1909" d="M1742.073,3984.253a1.526,1.526,0,0,0,1.526-1.526v-12.24h86.665v12.24a1.525,1.525,0,1,0,3.051,0v-23.751a1.525,1.525,0,0,0-1.526-1.525h-89.716a1.526,1.526,0,0,0-1.526,1.525v23.751a1.526,1.526,0,0,0,1.526,1.526Zm88.191-23.751v6.934H1743.6V3960.5Zm0,0" fill="#4d4d4d"/>
    <path id="Trazado_1910" data-name="Trazado 1910" d="M1806.778,3965.391a1.422,1.422,0,1,1,1.422-1.422,1.424,1.424,0,0,1-1.422,1.422Zm0,0" fill="#f2f2f2"/>
    <path id="Trazado_1911" data-name="Trazado 1911" d="M1814.57,3965.391a1.422,1.422,0,1,1,1.423-1.422,1.424,1.424,0,0,1-1.423,1.422Zm0,0" fill="#f2f2f2"/>
    <path id="Trazado_1912" data-name="Trazado 1912" d="M1822.364,3965.391a1.422,1.422,0,1,1,1.421-1.422,1.424,1.424,0,0,1-1.421,1.422Zm0,0" fill="#f2f2f2"/>
    <g id="Grupo_8851" data-name="Grupo 8851">
      <path id="Trazado_1913" data-name="Trazado 1913" d="M1777.419,3978.947a2.225,2.225,0,0,1,.645,1.437,1.931,1.931,0,0,1-3.225,1.436,2.653,2.653,0,0,0-1.818-.674,2.653,2.653,0,0,0-2.7,2.7v13.924a2.653,2.653,0,0,0,2.7,2.7,2.649,2.649,0,0,0,1.818-.674,1.838,1.838,0,0,1,1.349-.557,1.951,1.951,0,0,1,1.934,1.935,1.949,1.949,0,0,1-.2.821,1.843,1.843,0,0,1-.5.674,6.4,6.4,0,0,1-4.4,1.671,6.607,6.607,0,0,1-6.566-6.567v-13.924a6.607,6.607,0,0,1,6.566-6.567A6.4,6.4,0,0,1,1777.419,3978.947Z" fill="#4d4d4d"/>
      <path id="Trazado_1914" data-name="Trazado 1914" d="M1786.887,3984.429a1.953,1.953,0,0,1,1.935,1.935v1.964h1.993a1.886,1.886,0,0,1,1.363.557,1.827,1.827,0,0,1,.572,1.363,1.953,1.953,0,0,1-1.935,1.95h-1.993v1.934a1.935,1.935,0,0,1-3.87,0V3992.2h-1.993a1.953,1.953,0,0,1-1.935-1.95,1.831,1.831,0,0,1,.572-1.363,1.886,1.886,0,0,1,1.363-.557h1.993v-1.964a1.886,1.886,0,0,1,.557-1.363,1.814,1.814,0,0,1,1.349-.572Z" fill="#4d4d4d"/>
      <path id="Trazado_1915" data-name="Trazado 1915" d="M1801.544,3984.429a1.952,1.952,0,0,1,1.935,1.935v1.964h1.994a1.888,1.888,0,0,1,1.363.557,1.83,1.83,0,0,1,.571,1.363,1.951,1.951,0,0,1-1.934,1.95h-1.994v1.934a1.935,1.935,0,0,1-3.869,0V3992.2h-1.994a1.953,1.953,0,0,1-1.935-1.95,1.83,1.83,0,0,1,.572-1.363,1.887,1.887,0,0,1,1.363-.557h1.994v-1.964a1.882,1.882,0,0,1,.557-1.363,1.812,1.812,0,0,1,1.348-.572Z" fill="#4d4d4d"/>
    </g>
  </g>
</svg>
