<svg xmlns="http://www.w3.org/2000/svg" width="108.201" height="112.599" viewBox="0 0 108.201 112.599">
  <g id="Grupo_10551" data-name="Grupo 10551" transform="translate(1324.769 -3499.282)">
    <path id="Trazado_3928" data-name="Trazado 3928" d="M-1264.338,3500.932h-54.35a4.432,4.432,0,0,0-4.432,4.432V3605.8a4.431,4.431,0,0,0,4.432,4.431h72.6a4.431,4.431,0,0,0,4.432-4.431v-82.183Zm0,0" fill="#f2f2f2"/>
    <path id="Trazado_3929" data-name="Trazado 3929" d="M-1259.726,3505.544v23.967a2.287,2.287,0,0,0,2.288,2.287h3.971v74a4.431,4.431,0,0,1-4.432,4.431h11.813a4.431,4.431,0,0,0,4.432-4.431v-82.183Zm0,0" fill="#cdd6df"/>
    <path id="Trazado_3930" data-name="Trazado 3930" d="M-1281.72,3589.225h-9.49a2.46,2.46,0,0,1-2.459-2.458v-7.722a2.46,2.46,0,0,1,2.459-2.459h9.49Zm0,0" fill="#fd715c"/>
    <path id="Trazado_3931" data-name="Trazado 3931" d="M-1264.338,3521.327v-20.4l22.684,22.684h-20.4a2.289,2.289,0,0,1-2.288-2.289Zm0,0" fill="#b3b3b3"/>
    <path id="Trazado_3932" data-name="Trazado 3932" d="M-1270.53,3609.951l-.473.126a4.482,4.482,0,0,1-5.489-3.173l-5.127-19.173,9.135-2.443,5.126,19.174a4.483,4.483,0,0,1-3.172,5.489Zm0,0" fill="#426175"/>
    <path id="Trazado_3933" data-name="Trazado 3933" d="M-1267.261,3593.133h-15.355a3.978,3.978,0,0,1-3.978-3.98v-12.5a3.978,3.978,0,0,1,3.978-3.979h15.355Zm0,0" fill="#fed066"/>
    <path id="Trazado_3934" data-name="Trazado 3934" d="M-1225.491,3590.178h-8.594v-14.545h8.594a7.272,7.272,0,0,1,7.272,7.272,7.272,7.272,0,0,1-7.272,7.273Zm0,0" fill="#cdd6df"/>
    <path id="Trazado_3935" data-name="Trazado 3935" d="M-1230.714,3610.026l-36.547-16.893v-20.454l36.547-16.893a1.9,1.9,0,0,1,2.748,1.693v50.854a1.9,1.9,0,0,1-2.748,1.693Zm0,0" fill="#fd715c"/>
    <path id="Trazado_3936" data-name="Trazado 3936" d="M-1267.261,3593.133h-15.355a3.978,3.978,0,0,1-3.978-3.98v-12.5a3.978,3.978,0,0,1,3.978-3.979h15.355Zm0,0" fill="#fed066"/>
    <path id="Trazado_3937" data-name="Trazado 3937" d="M-1230.714,3610.026l-36.547-16.893v-20.454l36.547-16.893a1.9,1.9,0,0,1,2.748,1.693v50.854a1.9,1.9,0,0,1-2.748,1.693Zm0,0" fill="#fd715c"/>
    <path id="Trazado_3938" data-name="Trazado 3938" d="M-1286.594,3589.153a3.978,3.978,0,0,0,3.978,3.98h15.355v-12.916h-19.333Zm0,0" fill="#f5b556"/>
    <path id="Trazado_3939" data-name="Trazado 3939" d="M-1267.261,3580.217v12.915l36.547,16.893a1.9,1.9,0,0,0,2.748-1.693V3598.2Zm0,0" fill="#e5483c"/>
    <path id="Trazado_3940" data-name="Trazado 3940" d="M-1281.553,3608.581h-37.135a2.785,2.785,0,0,1-2.782-2.782V3505.364a2.785,2.785,0,0,1,2.782-2.783h52.7v18.746a3.942,3.942,0,0,0,3.937,3.938h18.747v28.722a1.649,1.649,0,0,0,1.649,1.649,1.649,1.649,0,0,0,1.649-1.649v-30.372a1.652,1.652,0,0,0-.483-1.166l-22.683-22.684a1.655,1.655,0,0,0-1.167-.483h-54.35a6.088,6.088,0,0,0-6.081,6.082V3605.8a6.088,6.088,0,0,0,6.081,6.081h37.134a1.649,1.649,0,0,0,1.649-1.65,1.649,1.649,0,0,0-1.648-1.649Zm18.864-87.254v-16.414l17.053,17.053h-16.414a.64.64,0,0,1-.639-.639Zm0,0" fill="#4d4d4d"/>
    <path id="Trazado_3941" data-name="Trazado 3941" d="M-1225.491,3573.983h-.825v-16.5a3.524,3.524,0,0,0-1.686-3.018,3.523,3.523,0,0,0-3.425-.163l-36.2,16.732h-14.993a5.638,5.638,0,0,0-5.359,3.907h-3.234a4.113,4.113,0,0,0-4.109,4.108v7.722a4.113,4.113,0,0,0,4.109,4.108h3.234a5.639,5.639,0,0,0,5.359,3.907h1.176l3.355,12.548a6.142,6.142,0,0,0,5.11,4.495,1.65,1.65,0,0,0,.425.055h26.464a6.093,6.093,0,0,0,5.856-4.436l8.8,4.069a3.538,3.538,0,0,0,1.567.368,3.536,3.536,0,0,0,1.857-.53,3.523,3.523,0,0,0,1.686-3.018v-16.505h.825a8.933,8.933,0,0,0,8.923-8.923,8.934,8.934,0,0,0-8.923-8.922Zm-66.528,12.784v-7.722a.81.81,0,0,1,.81-.809h2.965v9.34h-2.965a.81.81,0,0,1-.81-.809Zm7.074,2.386v-12.5a2.331,2.331,0,0,1,2.329-2.329h13.706v17.153h-13.706a2.331,2.331,0,0,1-2.329-2.329Zm6.919,5.628h6.373l2.7,10.107a2.839,2.839,0,0,1-2.006,3.47l-.473.126a2.837,2.837,0,0,1-3.469-2.006Zm31.94,13.8h-20.235a6.118,6.118,0,0,0,.557-4.545l-2.475-9.254h.615l24.311,11.237a2.785,2.785,0,0,1-2.773,2.562Zm16.471-.248a.229.229,0,0,1-.118.209.229.229,0,0,1-.239.01l-.049-.023-35.59-16.451v-18.344l35.59-16.451.049-.024a.227.227,0,0,1,.239.011.228.228,0,0,1,.118.209Zm4.124-19.8h-.825v-11.247h.825a5.63,5.63,0,0,1,5.624,5.623,5.63,5.63,0,0,1-5.624,5.624Zm0,0" fill="#4d4d4d"/>
    <g id="Grupo_10550" data-name="Grupo 10550">
      <path id="Trazado_3942" data-name="Trazado 3942" d="M-1294.222,3527.149a2.412,2.412,0,0,1,.566.82,2.409,2.409,0,0,1,.237.967,2.315,2.315,0,0,1-.712,1.7,2.315,2.315,0,0,1-1.7.711,2.336,2.336,0,0,1-1.6-.619,3.3,3.3,0,0,0-2.261-.839,3.245,3.245,0,0,0-2.389.966,3.245,3.245,0,0,0-.967,2.389v17.324a3.241,3.241,0,0,0,.967,2.389,3.242,3.242,0,0,0,2.389.967,3.3,3.3,0,0,0,2.261-.839,2.282,2.282,0,0,1,1.677-.693,2.314,2.314,0,0,1,1.7.712,2.315,2.315,0,0,1,.712,1.695,2.433,2.433,0,0,1-.256,1.022,2.291,2.291,0,0,1-.62.839,7.967,7.967,0,0,1-5.47,2.078,7.863,7.863,0,0,1-5.764-2.407,7.863,7.863,0,0,1-2.407-5.763V3533.24a7.862,7.862,0,0,1,2.407-5.762,7.86,7.86,0,0,1,5.764-2.408A7.963,7.963,0,0,1-1294.222,3527.149Z" fill="#4d4d4d"/>
      <path id="Trazado_3943" data-name="Trazado 3943" d="M-1282.441,3533.97a2.314,2.314,0,0,1,1.7.71,2.319,2.319,0,0,1,.711,1.7v2.443h2.48a2.349,2.349,0,0,1,1.7.693,2.278,2.278,0,0,1,.71,1.7,2.339,2.339,0,0,1-.71,1.715,2.318,2.318,0,0,1-1.7.71h-2.48v2.407a2.316,2.316,0,0,1-.711,1.7,2.315,2.315,0,0,1-1.7.711,2.315,2.315,0,0,1-1.7-.711,2.316,2.316,0,0,1-.711-1.7v-2.407h-2.481a2.314,2.314,0,0,1-1.7-.71,2.337,2.337,0,0,1-.712-1.715,2.276,2.276,0,0,1,.712-1.7,2.345,2.345,0,0,1,1.7-.693h2.481v-2.443a2.345,2.345,0,0,1,.693-1.7,2.254,2.254,0,0,1,1.677-.71Z" fill="#4d4d4d"/>
      <path id="Trazado_3944" data-name="Trazado 3944" d="M-1264.2,3533.97a2.316,2.316,0,0,1,1.7.71,2.319,2.319,0,0,1,.711,1.7v2.443h2.48a2.345,2.345,0,0,1,1.7.693,2.275,2.275,0,0,1,.711,1.7,2.336,2.336,0,0,1-.711,1.715,2.314,2.314,0,0,1-1.7.71h-2.48v2.407a2.316,2.316,0,0,1-.711,1.7,2.317,2.317,0,0,1-1.7.711,2.315,2.315,0,0,1-1.7-.711,2.316,2.316,0,0,1-.711-1.7v-2.407h-2.481a2.317,2.317,0,0,1-1.7-.71,2.34,2.34,0,0,1-.711-1.715,2.279,2.279,0,0,1,.711-1.7,2.348,2.348,0,0,1,1.7-.693h2.481v-2.443a2.348,2.348,0,0,1,.692-1.7,2.257,2.257,0,0,1,1.678-.71Z" fill="#4d4d4d"/>
    </g>
  </g>
</svg>
