<svg xmlns="http://www.w3.org/2000/svg" width="101.228" height="101.228" viewBox="0 0 101.228 101.228">
  <g id="Grupo_10417" data-name="Grupo 10417" transform="translate(-169.347 -1157.287)">
    <path id="Trazado_3741" data-name="Trazado 3741" d="M244.462,1166.127a1.861,1.861,0,1,1-1.86-1.86,1.86,1.86,0,0,1,1.86,1.86Zm0,0" fill="#fff"/>
    <path id="Trazado_3742" data-name="Trazado 3742" d="M253.38,1166.127a1.861,1.861,0,1,1-1.86-1.86,1.86,1.86,0,0,1,1.86,1.86Zm0,0" fill="#fff"/>
    <path id="Trazado_3743" data-name="Trazado 3743" d="M262.3,1166.127a1.861,1.861,0,1,1-1.861-1.86,1.861,1.861,0,0,1,1.861,1.86Zm0,0" fill="#fff"/>
    <path id="Trazado_3744" data-name="Trazado 3744" d="M215.515,1164.644H179.4a1.483,1.483,0,1,0,0,2.966h36.112a1.483,1.483,0,1,0,0-2.966Zm0,0" fill="#fff"/>
    <path id="Trazado_3745" data-name="Trazado 3745" d="M269.092,1191.855a1.482,1.482,0,0,0-1.483,1.483v60a2.215,2.215,0,0,1-2.213,2.213H174.525a2.215,2.215,0,0,1-2.212-2.213v-12.9a1.483,1.483,0,1,0-2.966,0v12.9a5.184,5.184,0,0,0,5.178,5.179H265.4a5.184,5.184,0,0,0,5.179-5.179v-60a1.482,1.482,0,0,0-1.483-1.483Zm0,0" fill="#fff"/>
    <path id="Trazado_3746" data-name="Trazado 3746" d="M265.4,1157.287H174.525a5.184,5.184,0,0,0-5.178,5.178v72.042a1.483,1.483,0,1,0,2.966,0v-59.54h95.3v12.4a1.483,1.483,0,0,0,2.966,0v-24.9a5.184,5.184,0,0,0-5.179-5.178ZM172.313,1172v-9.536a2.214,2.214,0,0,1,2.212-2.212H265.4a2.214,2.214,0,0,1,2.213,2.212V1172Zm0,0" fill="#fff"/>
    <path id="Trazado_3747" data-name="Trazado 3747" d="M194.043,1212.876h-4.179a4.822,4.822,0,1,0,0,2.966h4.18a7.784,7.784,0,0,0,.647,1.918l0,.009.024.048.038.074,0,.007a8.357,8.357,0,0,0,3.094,3.306,7.691,7.691,0,0,0-.2,1.734c0,.033,0,.065,0,.1v.131l0,.068,0,.029c0,.026,0,.052,0,.078v.019c.006.1.013.2.023.3v0a7.736,7.736,0,0,0,.593,2.321h-5.3a1.482,1.482,0,0,0-1.482,1.483v8.742a4.822,4.822,0,1,0,2.965,0v-7.259h6.005a8.816,8.816,0,0,0,3.66,1.876,7.684,7.684,0,0,0-.049.872,8.442,8.442,0,0,0,8.68,8.161,8.838,8.838,0,0,0,7.2-3.6,8.837,8.837,0,0,0,7.2,3.6,8.442,8.442,0,0,0,8.68-8.161c0-.036,0-.072,0-.108v-.025l0-.084v-.022l0-.086v-.017l0-.094v-.008c-.008-.143-.02-.286-.037-.428a8.819,8.819,0,0,0,3.661-1.876h6.005v7.259a4.822,4.822,0,1,0,2.965,0v-8.742a1.482,1.482,0,0,0-1.483-1.483h-5.3a7.718,7.718,0,0,0,.431-4.789,8.172,8.172,0,0,0,3.809-5.361h4.181a4.822,4.822,0,1,0,0-2.966H245.88a7.815,7.815,0,0,0-.677-1.978l-.034-.068-.008-.014a8.339,8.339,0,0,0-3.091-3.3,7.719,7.719,0,0,0-.431-4.789h5.3a1.482,1.482,0,0,0,1.483-1.483V1192.5a4.822,4.822,0,1,0-2.965,0v7.258H239.45a8.831,8.831,0,0,0-3.661-1.876,7.459,7.459,0,0,0,.05-.871,8.442,8.442,0,0,0-8.68-8.161,8.839,8.839,0,0,0-7.2,3.6,8.84,8.84,0,0,0-7.2-3.6,8.442,8.442,0,0,0-8.68,8.161c0,.036,0,.071,0,.108v.025l0,.084v.022c0,.028,0,.058,0,.085v.018c0,.031,0,.062,0,.092v.011c0,.033,0,.067.006.1v0q.012.164.03.324a8.827,8.827,0,0,0-3.66,1.876h-6.005V1192.5a4.822,4.822,0,1,0-2.965,0v8.741a1.482,1.482,0,0,0,1.482,1.483h5.3a7.731,7.731,0,0,0-.628,3.054,7.637,7.637,0,0,0,.2,1.735,8.171,8.171,0,0,0-3.808,5.362Zm-1.059,29.785a1.857,1.857,0,1,1,1.856-1.856,1.857,1.857,0,0,1-1.856,1.856Zm53.953,0a1.857,1.857,0,1,1,1.857-1.856,1.857,1.857,0,0,1-1.857,1.856Zm0-56.6a1.857,1.857,0,1,1-1.855,1.857,1.858,1.858,0,0,1,1.855-1.857Zm-53.953,0a1.857,1.857,0,1,1-1.856,1.857,1.858,1.858,0,0,1,1.856-1.857Zm-7.71,30.156a1.857,1.857,0,1,1,1.856-1.856,1.859,1.859,0,0,1-1.856,1.856Zm69.374-3.713a1.857,1.857,0,1,1-1.856,1.857,1.86,1.86,0,0,1,1.856-1.857Zm-27.489-20.683a5.48,5.48,0,0,1,5.714,5.2,4.683,4.683,0,0,1-.043.637,8.874,8.874,0,0,0-5.341,2.321,1.483,1.483,0,0,0,2.018,2.174,5.969,5.969,0,0,1,4.081-1.56c.1,0,.193,0,.291.007l.036,0a5.95,5.95,0,0,1,3.733,1.531,1.513,1.513,0,0,0,.315.314,4.9,4.9,0,0,1,1.339,3.342,4.731,4.731,0,0,1-.04.619,9.169,9.169,0,0,0-1.92-.2,1.483,1.483,0,0,0,0,2.966,6.166,6.166,0,0,1,2.323.448l.039.017a5.239,5.239,0,0,1,3.348,4.494l0,.074v.163a5.211,5.211,0,0,1-3.353,4.73,1.483,1.483,0,0,0-.795,1.957,4.765,4.765,0,0,1,.393,1.892A5.33,5.33,0,0,1,234.89,1228a8.765,8.765,0,0,0-7.731-4.453,1.483,1.483,0,0,0,0,2.966,5.7,5.7,0,0,1,5.421,3.551l.015.043a4.8,4.8,0,0,1,.276,1.426v.115c0,.02,0,.041,0,.061a5.74,5.74,0,0,1-11.429,0v-34.694a5.479,5.479,0,0,1,5.714-5.2Zm-26.941,17.812a1.481,1.481,0,0,0,.794-1.956,4.755,4.755,0,0,1-.393-1.892,4.919,4.919,0,0,1,1.437-3.444c.032-.03.063-.061.092-.094a5.864,5.864,0,0,1,2.883-1.522,8.767,8.767,0,0,0,7.732,4.453,1.483,1.483,0,1,0,0-2.966,5.7,5.7,0,0,1-5.421-3.551l-.014-.042a4.739,4.739,0,0,1-.276-1.427l0-.03v-.026c0-.013,0-.026,0-.039v-.081a5.741,5.741,0,0,1,11.43,0v34.7a5.741,5.741,0,0,1-11.43,0,4.823,4.823,0,0,1,.043-.637,8.881,8.881,0,0,0,5.342-2.322,1.483,1.483,0,0,0-2.018-2.174,5.965,5.965,0,0,1-4.081,1.561c-.1,0-.194,0-.291-.007l-.036,0a6.191,6.191,0,0,1-.826-.1,5.459,5.459,0,0,1-4.495-4.3v-.005l-.009-.056,0-.01-.008-.052,0-.014-.006-.05,0-.015c0-.017,0-.033-.007-.05v-.015l0-.046,0-.021,0-.044v-.02l0-.045,0-.021,0-.041,0-.025,0-.041v-.09c0-.015,0-.03,0-.046v-.085a4.565,4.565,0,0,1,.041-.619,9.241,9.241,0,0,0,1.919.2,1.483,1.483,0,0,0,0-2.966,6.171,6.171,0,0,1-2.323-.448l-.038-.017a5.237,5.237,0,0,1-3.348-4.493l0-.074v-.046c0-.013,0-.026,0-.038v-.079a5.211,5.211,0,0,1,3.354-4.731Zm0,0" fill="#fff"/>
  </g>
</svg>
