<svg xmlns="http://www.w3.org/2000/svg" width="90.709" height="72.144" viewBox="0 0 90.709 72.144">
  <g id="Grupo_10599" data-name="Grupo 10599" transform="translate(-172 -1346.513)">
    <line id="Línea_425" data-name="Línea 425" y2="68.144" transform="translate(260.709 1348.513)" fill="none" stroke="#a4dbf5" stroke-linecap="round" stroke-miterlimit="10" stroke-width="4"/>
    <g id="Grupo_10334" data-name="Grupo 10334">
      <path id="Trazado_3597" data-name="Trazado 3597" d="M227.034,1356.516H215.448v-.724a7.972,7.972,0,0,0-7.966-7.965H179.965a7.971,7.971,0,0,0-7.965,7.965v44.9a7.971,7.971,0,0,0,7.965,7.965h6.518a8.7,8.7,0,0,0,8.689,8.69h31.862a8.7,8.7,0,0,0,8.689-8.69v-43.447a8.7,8.7,0,0,0-8.689-8.69Zm2.9,52.137a2.9,2.9,0,0,1-2.9,2.9H195.172a2.9,2.9,0,0,1-2.9-2.9v-43.447a2.9,2.9,0,0,1,2.9-2.9h31.862a2.9,2.9,0,0,1,2.9,2.9Z" fill="#a4dbf5"/>
      <path id="Trazado_3598" data-name="Trazado 3598" d="M198.793,1383.309H208.93a2.173,2.173,0,0,0,2.173-2.173V1371a2.173,2.173,0,0,0-2.173-2.173H198.793A2.173,2.173,0,0,0,196.62,1371v10.137a2.173,2.173,0,0,0,2.173,2.173Z" fill="#a4dbf5"/>
      <path id="Trazado_3599" data-name="Trazado 3599" d="M224.137,1377.516H217.62a2.9,2.9,0,1,0,0,5.793h6.517a2.9,2.9,0,1,0,0-5.793Z" fill="#a4dbf5"/>
      <path id="Trazado_3600" data-name="Trazado 3600" d="M224.137,1368.826H217.62a2.9,2.9,0,1,0,0,5.793h6.517a2.9,2.9,0,1,0,0-5.793Z" fill="#a4dbf5"/>
      <path id="Trazado_3601" data-name="Trazado 3601" d="M223.413,1400.688h-24.62a2.9,2.9,0,1,0,0,5.793h24.62a2.9,2.9,0,0,0,0-5.793Z" fill="#a4dbf5"/>
      <path id="Trazado_3602" data-name="Trazado 3602" d="M223.413,1389.1h-24.62a2.9,2.9,0,1,0,0,5.793h24.62a2.9,2.9,0,0,0,0-5.793Z" fill="#a4dbf5"/>
    </g>
  </g>
</svg>
