<svg xmlns="http://www.w3.org/2000/svg" width="105.504" height="114.385" viewBox="0 0 105.504 114.385">
  <g id="Grupo_14527" data-name="Grupo 14527" transform="translate(-1722.872 -2495.499)">
    <path id="Trazado_2849" data-name="Trazado 2849" d="M1782.465,2552.692a29.042,29.042,0,1,1-29.042-29.043,29.041,29.041,0,0,1,29.042,29.043Zm0,0" fill="#f2f2f2"/>
    <path id="Trazado_2850" data-name="Trazado 2850" d="M1753.423,2523.649a29.222,29.222,0,0,0-6.016.625,29.048,29.048,0,0,1,0,56.835,29.045,29.045,0,1,0,6.016-57.46Zm0,0" fill="#cdd6df"/>
    <path id="Trazado_2851" data-name="Trazado 2851" d="M1826.7,2591.156a17.052,17.052,0,1,1-17.052-17.052,17.052,17.052,0,0,1,17.052,17.052Zm0,0" fill="#f2f2f2"/>
    <path id="Trazado_2852" data-name="Trazado 2852" d="M1809.648,2574.1a17.03,17.03,0,0,0-6.016,1.094,17.055,17.055,0,0,1,0,31.916,17.053,17.053,0,1,0,6.016-33.01Zm0,0" fill="#cdd6df"/>
    <path id="Trazado_2853" data-name="Trazado 2853" d="M1809.648,2594.088a10.551,10.551,0,0,0-10.55,10.466,17.053,17.053,0,0,0,21.1,0,10.551,10.551,0,0,0-10.55-10.466Zm0,0" fill="#ffd553"/>
    <path id="Trazado_2854" data-name="Trazado 2854" d="M1815.553,2588.184a5.9,5.9,0,1,1-5.905-5.9,5.9,5.9,0,0,1,5.905,5.9Zm0,0" fill="#ffd553"/>
    <path id="Trazado_2855" data-name="Trazado 2855" d="M1826.7,2514.227a17.052,17.052,0,1,1-17.052-17.052,17.051,17.051,0,0,1,17.052,17.052Zm0,0" fill="#f2f2f2"/>
    <path id="Trazado_2856" data-name="Trazado 2856" d="M1809.648,2497.175a17.008,17.008,0,0,0-6.016,1.095,17.054,17.054,0,0,1,0,31.915,17.053,17.053,0,1,0,6.016-33.01Zm0,0" fill="#cdd6df"/>
    <path id="Trazado_2857" data-name="Trazado 2857" d="M1809.648,2517.159a10.551,10.551,0,0,0-10.55,10.466,17.057,17.057,0,0,0,21.1,0,10.551,10.551,0,0,0-10.55-10.466Zm0,0" fill="#33bdb0"/>
    <path id="Trazado_2858" data-name="Trazado 2858" d="M1815.553,2511.254a5.9,5.9,0,1,1-5.905-5.9,5.9,5.9,0,0,1,5.905,5.9Zm0,0" fill="#33bdb0"/>
    <path id="Trazado_2859" data-name="Trazado 2859" d="M1724.369,2551.223a1.673,1.673,0,0,0,1.844-1.487,27.37,27.37,0,0,1,45.557-17.351q1.031.933,1.956,1.956c.027.032.054.063.083.092a27.27,27.27,0,0,1,6.824,15.306,1.675,1.675,0,0,0,1.664,1.5,1.647,1.647,0,0,0,.181-.01,1.676,1.676,0,0,0,1.487-1.844,30.6,30.6,0,0,0-6.435-15.732l15.883-10.093a18.909,18.909,0,0,0,4.517,5.27,1.79,1.79,0,0,0,.271.213,18.692,18.692,0,0,0,22.895,0,1.838,1.838,0,0,0,.268-.211,18.721,18.721,0,1,0-29.368-8.341l-16.714,10.621c-.409-.413-.83-.818-1.264-1.21a30.721,30.721,0,0,0-51.136,19.479,1.675,1.675,0,0,0,1.487,1.845Zm76.45-24.413a8.875,8.875,0,0,1,17.658,0,15.347,15.347,0,0,1-17.658,0Zm4.6-15.556a4.228,4.228,0,1,1,4.228,4.23,4.233,4.233,0,0,1-4.228-4.23Zm4.228-12.4a15.37,15.37,0,0,1,11.706,25.338,12.328,12.328,0,0,0-6.427-7.5,7.579,7.579,0,1,0-10.558,0,12.323,12.323,0,0,0-6.426,7.5,15.369,15.369,0,0,1,11.7-25.338Zm0,0" fill="#4d4d4d"/>
    <path id="Trazado_2860" data-name="Trazado 2860" d="M1809.648,2572.429a18.74,18.74,0,0,0-16.235,9.4l-15.883-10.094a30.505,30.505,0,0,0,6.379-15.247,1.676,1.676,0,1,0-3.326-.41,27.37,27.37,0,0,1-54.32,0,1.676,1.676,0,0,0-3.326.41,30.718,30.718,0,0,0,52.343,17.788L1792,2584.9a18.719,18.719,0,0,0,5.935,20.86,1.722,1.722,0,0,0,.271.214,18.694,18.694,0,0,0,22.893,0,1.74,1.74,0,0,0,.269-.214,18.721,18.721,0,0,0-11.717-33.327Zm-8.829,31.311a8.875,8.875,0,0,1,17.658,0,15.352,15.352,0,0,1-17.658,0Zm4.6-15.556a4.228,4.228,0,1,1,4.228,4.228,4.233,4.233,0,0,1-4.228-4.228Zm15.934,12.933a12.328,12.328,0,0,0-6.427-7.5,7.579,7.579,0,1,0-10.558,0,12.323,12.323,0,0,0-6.426,7.5,15.378,15.378,0,1,1,23.411,0Zm0,0" fill="#4d4d4d"/>
    <g id="Grupo_14526" data-name="Grupo 14526">
      <path id="Trazado_2861" data-name="Trazado 2861" d="M1772.926,2549.394h-1.4a2.092,2.092,0,0,1-2.006-1.476,16.8,16.8,0,0,0-1.341-3.2,2.1,2.1,0,0,1,.362-2.484l1-1a2.1,2.1,0,0,0,0-2.971l-1.692-1.693a2.1,2.1,0,0,0-2.972,0l-1,1a2.1,2.1,0,0,1-2.484.362,16.851,16.851,0,0,0-3.2-1.341,2.092,2.092,0,0,1-1.475-2.005v-1.4a2.1,2.1,0,0,0-2.1-2.1h-2.4a2.1,2.1,0,0,0-2.1,2.1v1.309a2.094,2.094,0,0,1-1.512,2.016,16.93,16.93,0,0,0-3.3,1.327,2.092,2.092,0,0,1-2.457-.377l-.894-.894a2.1,2.1,0,0,0-2.971,0l-1.693,1.693a2.1,2.1,0,0,0,0,2.971l.8.8a2.1,2.1,0,0,1,.352,2.5,16.88,16.88,0,0,0-1.441,3.377,2.1,2.1,0,0,1-2.017,1.479h-1.078a2.1,2.1,0,0,0-2.1,2.1v2.4a2.1,2.1,0,0,0,2.1,2.1h.994a2.092,2.092,0,0,1,2.018,1.507,16.879,16.879,0,0,0,1.428,3.486,2.09,2.09,0,0,1-.368,2.475l-.691.692a2.1,2.1,0,0,0,0,2.972l1.693,1.692a2.1,2.1,0,0,0,2.971,0l.691-.692a2.09,2.09,0,0,1,2.476-.366,16.9,16.9,0,0,0,3.487,1.427,2.093,2.093,0,0,1,1.507,2.018v.994a2.1,2.1,0,0,0,2.1,2.1h2.394a2.1,2.1,0,0,0,2.1-2.1v-1.078a2.1,2.1,0,0,1,1.478-2.016,16.894,16.894,0,0,0,3.376-1.441,2.092,2.092,0,0,1,2.5.351l.8.8a2.1,2.1,0,0,0,2.972,0l1.692-1.692a2.1,2.1,0,0,0,0-2.972l-.894-.894a2.094,2.094,0,0,1-.376-2.457,16.873,16.873,0,0,0,1.327-3.3,2.091,2.091,0,0,1,2.015-1.511h1.309a2.1,2.1,0,0,0,2.1-2.1V2551.5a2.1,2.1,0,0,0-2.1-2.1Zm-19.5,12.58a9.283,9.283,0,1,1,9.282-9.282,9.283,9.283,0,0,1-9.282,9.282Zm0,0" fill="#fd715c"/>
      <path id="Trazado_2862" data-name="Trazado 2862" d="M1753.423,2541.885a10.807,10.807,0,1,0,10.806,10.807,10.819,10.819,0,0,0-10.806-10.807Zm0,18.566a7.759,7.759,0,1,1,7.759-7.759,7.768,7.768,0,0,1-7.759,7.759Zm0,0" fill="#4d4d4d"/>
      <path id="Trazado_2863" data-name="Trazado 2863" d="M1772.926,2547.87h-1.4a.57.57,0,0,1-.547-.394,18.522,18.522,0,0,0-1.462-3.486.575.575,0,0,1,.1-.676l1-1a3.628,3.628,0,0,0,0-5.125l-1.694-1.694a3.629,3.629,0,0,0-5.125,0l-1,1a.575.575,0,0,1-.677.1,18.465,18.465,0,0,0-3.486-1.463.567.567,0,0,1-.393-.546v-1.4a3.629,3.629,0,0,0-3.625-3.625h-2.394a3.629,3.629,0,0,0-3.625,3.625v1.308a.569.569,0,0,1-.4.55,18.39,18.39,0,0,0-3.6,1.447.571.571,0,0,1-.665-.108l-.894-.9a3.624,3.624,0,0,0-5.126,0l-1.693,1.694a3.624,3.624,0,0,0,0,5.126l.8.8a.568.568,0,0,1,.1.678,18.448,18.448,0,0,0-1.571,3.682.582.582,0,0,1-.559.4h-1.077a3.628,3.628,0,0,0-3.625,3.624v2.394a3.629,3.629,0,0,0,3.625,3.625h.993a.568.568,0,0,1,.553.4,18.455,18.455,0,0,0,1.556,3.8.565.565,0,0,1-.108.667l-.691.693a3.628,3.628,0,0,0,0,5.125l1.693,1.693a3.629,3.629,0,0,0,5.126,0l.692-.692a.567.567,0,0,1,.667-.107,18.381,18.381,0,0,0,3.8,1.556.57.57,0,0,1,.4.552v.994a3.628,3.628,0,0,0,3.624,3.624h2.394a3.628,3.628,0,0,0,3.625-3.624v-1.077a.579.579,0,0,1,.4-.559,18.411,18.411,0,0,0,3.682-1.571.568.568,0,0,1,.678.1l.8.8a3.628,3.628,0,0,0,5.125,0l1.693-1.693a3.628,3.628,0,0,0,0-5.125l-.894-.9a.571.571,0,0,1-.108-.665,18.455,18.455,0,0,0,1.447-3.6.569.569,0,0,1,.55-.4h1.308a3.629,3.629,0,0,0,3.624-3.625V2551.5a3.629,3.629,0,0,0-3.624-3.625Zm.577,6.019a.578.578,0,0,1-.577.577h-1.309a3.626,3.626,0,0,0-3.48,2.617,15.367,15.367,0,0,1-1.208,3,3.6,3.6,0,0,0,.645,4.25l.9.894a.579.579,0,0,1,0,.816l-1.693,1.694a.581.581,0,0,1-.817,0l-.8-.8a3.627,3.627,0,0,0-4.328-.6,15.377,15.377,0,0,1-3.071,1.311,3.647,3.647,0,0,0-2.56,3.475v1.077a.578.578,0,0,1-.577.577h-2.4a.578.578,0,0,1-.577-.577v-.994a3.626,3.626,0,0,0-2.614-3.483,15.379,15.379,0,0,1-3.172-1.3,3.569,3.569,0,0,0-1.712-.435,3.643,3.643,0,0,0-2.572,1.061l-.692.693a.578.578,0,0,1-.815,0l-1.694-1.693a.579.579,0,0,1,0-.817l.692-.692a3.631,3.631,0,0,0,.626-4.284,15.378,15.378,0,0,1-1.3-3.171,3.627,3.627,0,0,0-3.484-2.615h-.994a.578.578,0,0,1-.577-.577V2551.5a.579.579,0,0,1,.577-.578H1735a3.646,3.646,0,0,0,3.475-2.56,15.4,15.4,0,0,1,1.312-3.071,3.629,3.629,0,0,0-.6-4.328l-.8-.8a.577.577,0,0,1,0-.816l1.693-1.693a.577.577,0,0,1,.816,0l.9.894a3.6,3.6,0,0,0,4.249.646,15.347,15.347,0,0,1,3-1.208,3.628,3.628,0,0,0,2.618-3.482v-1.308a.578.578,0,0,1,.577-.577h2.4a.578.578,0,0,1,.577.577v1.4a3.593,3.593,0,0,0,2.558,3.463,15.387,15.387,0,0,1,2.909,1.22,3.639,3.639,0,0,0,4.292-.622l1-1a.579.579,0,0,1,.817,0l1.694,1.693a.579.579,0,0,1,0,.816l-1,1a3.641,3.641,0,0,0-.622,4.292,15.394,15.394,0,0,1,1.221,2.91,3.59,3.59,0,0,0,3.463,2.557h1.4a.578.578,0,0,1,.577.577Zm0,0" fill="#4d4d4d"/>
    </g>
  </g>
</svg>
