<svg xmlns="http://www.w3.org/2000/svg" width="114.375" height="114.385" viewBox="0 0 114.375 114.385">
  <g id="Grupo_13812" data-name="Grupo 13812" transform="translate(-1722.436 -3484.253)">
    <path id="Trazado_2679" data-name="Trazado 2679" d="M1727.714,3581.735a3.6,3.6,0,0,1-3.6-3.6v-88.6a3.6,3.6,0,0,1,3.6-3.6h88.6a3.6,3.6,0,0,1,3.6,3.6v88.6a3.6,3.6,0,0,1-3.6,3.6Zm0,0" fill="#f2f2f2"/>
    <path id="Trazado_2680" data-name="Trazado 2680" d="M1727.714,3485.928a3.6,3.6,0,0,0-3.6,3.6v88.6a3.6,3.6,0,0,0,3.6,3.6h10.355a3.6,3.6,0,0,1-3.6-3.6v-88.6a3.6,3.6,0,0,1,3.6-3.6Zm0,0" fill="#e1e6ec"/>
    <path id="Trazado_2681" data-name="Trazado 2681" d="M1727.714,3485.928a3.6,3.6,0,0,0-3.6,3.6v10.743h95.8v-10.743a3.6,3.6,0,0,0-3.6-3.6Zm0,0" fill="#cdd6df"/>
    <path id="Trazado_2682" data-name="Trazado 2682" d="M1734.466,3500.275v-10.743a3.6,3.6,0,0,1,3.6-3.6h-10.355a3.6,3.6,0,0,0-3.6,3.6v10.743Zm-10.354,0" fill="#b3b3b3"/>
    <path id="Trazado_2683" data-name="Trazado 2683" d="M1748.125,3493.1a1.814,1.814,0,1,1,1.814,1.815,1.814,1.814,0,0,1-1.814-1.815Zm0,0" fill="#46d1c0"/>
    <path id="Trazado_2684" data-name="Trazado 2684" d="M1739.431,3493.1a1.813,1.813,0,1,1,1.813,1.815,1.813,1.813,0,0,1-1.813-1.815Zm0,0" fill="#46d1c0"/>
    <path id="Trazado_2685" data-name="Trazado 2685" d="M1730.736,3493.1a1.814,1.814,0,1,1,1.814,1.815,1.814,1.814,0,0,1-1.814-1.815Zm0,0" fill="#46d1c0"/>
    <path id="Trazado_2686" data-name="Trazado 2686" d="M1765.829,3545.877a1.511,1.511,0,0,1-1.2-.6,1.477,1.477,0,0,1-.234-1.312l1.821-6.21-5.124-3.954a1.5,1.5,0,0,1,.87-2.678l6.469-.188,2.178-6.094a1.494,1.494,0,0,1,2.814,0l2.179,6.094,6.468.188a1.5,1.5,0,0,1,.87,2.678l-5.123,3.954,1.821,6.21a1.48,1.48,0,0,1-.234,1.312,1.511,1.511,0,0,1-1.2.6,1.49,1.49,0,0,1-.842-.263l-5.343-3.649-5.345,3.649a1.485,1.485,0,0,1-.841.263Zm0,0" fill="#fed066"/>
    <path id="Trazado_2687" data-name="Trazado 2687" d="M1793.883,3545.877a1.511,1.511,0,0,1-1.2-.6,1.477,1.477,0,0,1-.234-1.312l1.82-6.21-5.122-3.954a1.5,1.5,0,0,1,.87-2.678l6.468-.188,2.178-6.094a1.495,1.495,0,0,1,2.815,0l2.177,6.094,6.469.188a1.5,1.5,0,0,1,.871,2.678l-5.124,3.954,1.821,6.21a1.477,1.477,0,0,1-.234,1.312,1.51,1.51,0,0,1-1.2.6,1.484,1.484,0,0,1-.841-.263l-5.345-3.649-5.343,3.649a1.489,1.489,0,0,1-.841.263Zm0,0" fill="#fed066"/>
    <path id="Trazado_2688" data-name="Trazado 2688" d="M1736.872,3545.877a1.51,1.51,0,0,1-1.2-.6,1.473,1.473,0,0,1-.233-1.312l1.82-6.21-5.123-3.954a1.5,1.5,0,0,1,.87-2.678l6.469-.188,2.177-6.094a1.495,1.495,0,0,1,2.815,0l2.178,6.094,6.469.188a1.5,1.5,0,0,1,.87,2.678l-5.124,3.954,1.821,6.21a1.474,1.474,0,0,1-.234,1.312,1.509,1.509,0,0,1-1.2.6,1.489,1.489,0,0,1-.841-.263l-5.344-3.649-5.344,3.649a1.49,1.49,0,0,1-.842.263Zm0,0" fill="#fed066"/>
    <path id="Trazado_2689" data-name="Trazado 2689" d="M1786.751,3564.245a2.793,2.793,0,0,0-.16,3.946l6.115,6.631,1.778,1.927a26.893,26.893,0,0,0,6.948,5.409l6.708,3.641a1.889,1.889,0,0,1,.48.373l3.681,3.992,16.508-15.222-3.2-3.472a1.857,1.857,0,0,1-.43-1.732l-.106-21.492a3.617,3.617,0,0,0-7.209-.406l-1.127,9.544-7.216-7.824-14.542-15.769a3.686,3.686,0,0,0-5.419,5l11.511,12.482-.4-.434a2.793,2.793,0,0,0-3.946-.159l-1.313,1.21a2.792,2.792,0,0,0-.16,3.946l.964,1.046a2.792,2.792,0,0,0-3.945-.16l-1.314,1.212a2.793,2.793,0,0,0-.159,3.946l1.555,1.686-.341-.371a2.8,2.8,0,0,0-3.947-.16l-1.312,1.212Zm0,0" fill="#ffe8c2"/>
    <path id="Trazado_2690" data-name="Trazado 2690" d="M1786.751,3564.245a2.793,2.793,0,0,0-.16,3.946l6.115,6.63,1.777,1.927a26.926,26.926,0,0,0,6.948,5.409l6.709,3.642a1.843,1.843,0,0,1,.479.373l3.682,3.992,8.76-8.078-4.217-4.573-6.979-3.788a26.9,26.9,0,0,1-6.948-5.41l-1.778-1.927-8.9-9.645-1.289,1.189a2.793,2.793,0,0,0-.159,3.946l1.555,1.686-.341-.371a2.8,2.8,0,0,0-3.947-.16l-1.312,1.212Zm0,0" fill="#efd5af"/>
    <path id="Trazado_2691" data-name="Trazado 2691" d="M1811.322,3592.934a1.817,1.817,0,0,1,.1-2.567l17.462-16.1a1.818,1.818,0,0,1,2.559.095l3.2,3.422a1.817,1.817,0,0,1-.1,2.576l-17.486,16.127a1.816,1.816,0,0,1-2.567-.1l-3.176-3.444Zm0,0" fill="#fd715c"/>
    <path id="Trazado_2692" data-name="Trazado 2692" d="M1776.349,3491.425a1.676,1.676,0,0,0,0,3.352h35.21a1.676,1.676,0,0,0,0-3.352Zm0,0" fill="#4d4d4d"/>
    <path id="Trazado_2693" data-name="Trazado 2693" d="M1758.989,3531.632a3.138,3.138,0,0,0,1.077,3.489l4.217,3.255-1.5,5.113a3.138,3.138,0,0,0,.5,2.788,3.2,3.2,0,0,0,2.543,1.276,3.157,3.157,0,0,0,1.787-.555l4.4-3.005,4.4,3.005a3.154,3.154,0,0,0,1.786.555,3.2,3.2,0,0,0,2.543-1.276,3.132,3.132,0,0,0,.5-2.788l-1.5-5.113,4.217-3.255a3.17,3.17,0,0,0-1.845-5.678l-5.325-.154-1.793-5.017a3.17,3.17,0,0,0-5.97,0l-1.792,5.017-5.326.154a3.138,3.138,0,0,0-2.922,2.189Zm3.526,1.146,5.963-.173a1.676,1.676,0,0,0,1.529-1.111l2.008-5.617,2.007,5.617a1.675,1.675,0,0,0,1.529,1.111l5.963.173-4.722,3.645a1.674,1.674,0,0,0-.584,1.8l1.677,5.724-4.925-3.364a1.672,1.672,0,0,0-1.891,0l-4.925,3.364,1.677-5.724a1.676,1.676,0,0,0-.584-1.8Zm4.722,3.645" fill="#4d4d4d"/>
    <path id="Trazado_2694" data-name="Trazado 2694" d="M1730.033,3531.632a3.135,3.135,0,0,0,1.077,3.489l4.217,3.255-1.5,5.113a3.142,3.142,0,0,0,.5,2.788,3.2,3.2,0,0,0,2.543,1.276,3.155,3.155,0,0,0,1.787-.555l4.4-3.005,4.4,3.005a3.154,3.154,0,0,0,1.786.555,3.193,3.193,0,0,0,2.543-1.277,3.129,3.129,0,0,0,.5-2.787l-1.5-5.113,4.217-3.255a3.17,3.17,0,0,0-1.846-5.678l-5.324-.154-1.793-5.017a3.17,3.17,0,0,0-5.97,0l-1.793,5.017-5.324.154a3.137,3.137,0,0,0-2.923,2.189Zm3.526,1.146,5.962-.173a1.677,1.677,0,0,0,1.53-1.111l2.007-5.617,2.007,5.617a1.676,1.676,0,0,0,1.529,1.111l5.963.173-4.722,3.645a1.676,1.676,0,0,0-.584,1.8l1.677,5.724-4.925-3.364a1.676,1.676,0,0,0-1.89,0l-4.926,3.364,1.678-5.724a1.678,1.678,0,0,0-.584-1.8Zm4.722,3.645" fill="#4d4d4d"/>
    <path id="Trazado_2695" data-name="Trazado 2695" d="M1727.714,3484.253a5.285,5.285,0,0,0-5.278,5.279v88.6a5.285,5.285,0,0,0,5.278,5.279H1792.6a1.675,1.675,0,1,0,0-3.351h-64.889a1.929,1.929,0,0,1-1.927-1.928V3501.95h92.455v36.186a1.676,1.676,0,1,0,3.351,0v-48.6a5.285,5.285,0,0,0-5.279-5.279Zm-1.927,14.346v-9.067a1.929,1.929,0,0,1,1.927-1.928h88.6a1.93,1.93,0,0,1,1.928,1.928v9.067Zm92.455,0" fill="#4d4d4d"/>
    <path id="Trazado_2696" data-name="Trazado 2696" d="M1793.252,3577.884a28.551,28.551,0,0,0,7.38,5.747l6.709,3.641a.145.145,0,0,1,.046.036l2.323,2.519a3.5,3.5,0,0,0,.38,4.243l3.177,3.444a3.473,3.473,0,0,0,2.426,1.122l.144,0a3.467,3.467,0,0,0,2.365-.925l17.485-16.125a3.493,3.493,0,0,0,.183-4.953l-3.2-3.423a3.5,3.5,0,0,0-3.934-.821l-1.9-2.058a.177.177,0,0,1-.041-.167,1.655,1.655,0,0,0,.055-.437l-.106-21.493a5.292,5.292,0,0,0-10.548-.594l-.7,5.929-6.712-7.279.012-.016a3.137,3.137,0,0,0,.5-2.788l-1.5-5.112,4.217-3.255a3.171,3.171,0,0,0-1.846-5.679l-5.324-.154-1.792-5.016a3.17,3.17,0,0,0-5.97,0l-1.794,5.016-5.324.154a3.177,3.177,0,0,0-2.645,4.78,5.368,5.368,0,0,0,1.005,5.7l2.7,2.928-.186.637a3.138,3.138,0,0,0,.5,2.788,3.2,3.2,0,0,0,2.543,1.276,3.142,3.142,0,0,0,1.242-.256l1.378,1.495a4.5,4.5,0,0,0-.916.654l-1.313,1.211a4.464,4.464,0,0,1-3.14,4.832l-1.313,1.21a4.442,4.442,0,0,0-1.436,3.1,4.563,4.563,0,0,0,.084,1.067,4.483,4.483,0,0,0-1.541.931l-1.312,1.21a4.469,4.469,0,0,0-.255,6.314l7.892,8.558Zm11.592-41.461a1.676,1.676,0,0,0-.583,1.8l1.36,4.643-9.415-10.208-.036-.04.361-.011a1.675,1.675,0,0,0,1.529-1.111l2.007-5.617,2.008,5.617a1.676,1.676,0,0,0,1.529,1.111l5.963.173-4.723,3.645Zm7.71,55.375a.132.132,0,0,1-.037-.1.138.138,0,0,1,.045-.1l.564-.52.01-.009.009-.008,16.489-15.207.009-.008.008-.008.373-.344a.142.142,0,0,1,.2.008l3.2,3.421a.132.132,0,0,1,.039.1.138.138,0,0,1-.046.1l-17.486,16.126a.122.122,0,0,1-.1.037.139.139,0,0,1-.1-.045l-3.176-3.444Zm-10.323-11.113a25.212,25.212,0,0,1-6.517-5.073l-7.891-8.557a1.116,1.116,0,0,1,.063-1.579l1.313-1.21a1.122,1.122,0,0,1,.8-.3,1.11,1.11,0,0,1,.776.358l.342.371a1.675,1.675,0,0,0,2.463-2.272l-1.555-1.686a1.118,1.118,0,0,1,.064-1.579l1.313-1.21a1.118,1.118,0,0,1,1.578.063,1.675,1.675,0,0,0,2.464-2.271l0-.005-.961-1.042a1.118,1.118,0,0,1,.064-1.577l1.313-1.211a1.128,1.128,0,0,1,.8-.3,1.109,1.109,0,0,1,.772.355l.4.437a1.675,1.675,0,1,0,2.464-2.271l-.4-.434-.011-.01-5.228-5.669-.031-.034-2.486-2.7c-.01-.012-.021-.024-.032-.035l-3.325-3.606a2.013,2.013,0,0,1-.144-2.549c.026-.03.051-.059.075-.091l.034-.045c.046-.053.1-.1.15-.155a2.012,2.012,0,0,1,2.84.115l21.759,23.594a1.676,1.676,0,0,0,2.9-.94l1.128-9.546a1.942,1.942,0,0,1,2.461-1.638,1.954,1.954,0,0,1,1.408,1.857l.106,21.305a3.511,3.511,0,0,0,.873,3.046l1.766,1.914-14.044,12.951-2.244-2.434a3.49,3.49,0,0,0-.911-.709l-6.709-3.642Zm0,0" fill="#4d4d4d"/>
  </g>
</svg>
