<svg xmlns="http://www.w3.org/2000/svg" width="117.7" height="114.385" viewBox="0 0 117.7 114.385">
  <g id="Grupo_14534" data-name="Grupo 14534" transform="translate(-187.174 -1314.36)">
    <path id="Trazado_2871" data-name="Trazado 2871" d="M253.73,1389.414H238.318c0,23.725-14.454,35.869-14.454,35.869h44.32s-14.454-12.144-14.454-35.869Zm0,0" fill="#cdd6df"/>
    <path id="Trazado_2872" data-name="Trazado 2872" d="M271.218,1427.021H220.83a2.2,2.2,0,0,1-2.2-2.2,7,7,0,0,1,7-7h40.782a7,7,0,0,1,7,7,2.2,2.2,0,0,1-2.2,2.2Zm0,0" fill="#cdd6df"/>
    <path id="Trazado_2873" data-name="Trazado 2873" d="M298.709,1403.026H193.339a4.44,4.44,0,0,1-4.441-4.44v-78.062a4.44,4.44,0,0,1,4.441-4.44H298.71a4.44,4.44,0,0,1,4.44,4.44v78.062a4.44,4.44,0,0,1-4.441,4.44Zm0,0" fill="#cdd6df"/>
    <path id="Trazado_2874" data-name="Trazado 2874" d="M298.709,1316.084H286.361a4.44,4.44,0,0,1,4.44,4.44v78.062a4.44,4.44,0,0,1-4.44,4.44h12.348a4.44,4.44,0,0,0,4.441-4.44v-78.062a4.44,4.44,0,0,0-4.441-4.44Zm0,0" fill="#b3b3b3"/>
    <rect id="Rect치ngulo_4878" data-name="Rect치ngulo 4878" width="101.378" height="60.571" transform="translate(195.335 1322.75)" fill="#f2f2f2"/>
    <rect id="Rect치ngulo_4879" data-name="Rect치ngulo 4879" width="101.378" height="11.282" transform="translate(195.335 1322.75)" fill="#46d1c0"/>
    <path id="Trazado_2875" data-name="Trazado 2875" d="M188.9,1390.218v8.368a4.44,4.44,0,0,0,4.441,4.44H298.71a4.44,4.44,0,0,0,4.44-4.44v-8.368Zm0,0" fill="#b3b3b3"/>
    <path id="Trazado_2876" data-name="Trazado 2876" d="M303.15,1390.218H290.8v8.368a4.44,4.44,0,0,1-4.44,4.44h12.348a4.44,4.44,0,0,0,4.441-4.44Zm0,0" fill="#999"/>
    <path id="Trazado_2877" data-name="Trazado 2877" d="M233.16,1354.3a1.929,1.929,0,0,0-1.757-1.831.951.951,0,0,0-.549.146l-9.63,6.3a1.9,1.9,0,0,0-.8,1.5,1.837,1.837,0,0,0,.8,1.465l9.63,6.3a.951.951,0,0,0,.549.146,1.892,1.892,0,0,0,1.757-1.794,1.19,1.19,0,0,0-.549-1.061l-7.689-5.053,7.689-5.053a1.282,1.282,0,0,0,.549-1.061Zm0,0" fill="#4d4d4d"/>
    <path id="Trazado_2878" data-name="Trazado 2878" d="M250.882,1343.018l-13.474,26.91a1.478,1.478,0,0,0-.11.55,1.416,1.416,0,0,0,1.428,1.354,1.329,1.329,0,0,0,1.209-.7l13.437-26.8a1.074,1.074,0,0,0,.147-.586,1.494,1.494,0,0,0-1.539-1.391,1.114,1.114,0,0,0-1.1.659Zm0,0" fill="#4d4d4d"/>
    <path id="Trazado_2879" data-name="Trazado 2879" d="M257.656,1366.523a1.865,1.865,0,0,0,1.758,1.794.839.839,0,0,0,.512-.146l9.629-6.3a1.743,1.743,0,0,0,.806-1.465,1.9,1.9,0,0,0-.806-1.5l-9.628-6.3a.842.842,0,0,0-.513-.146,1.9,1.9,0,0,0-1.758,1.831,1.357,1.357,0,0,0,.513,1.062l7.726,5.052-7.726,5.053a1.248,1.248,0,0,0-.513,1.061Zm0,0" fill="#4d4d4d"/>
    <path id="Trazado_2880" data-name="Trazado 2880" d="M298.709,1314.36H193.339a6.171,6.171,0,0,0-6.165,6.164v78.062a6.171,6.171,0,0,0,6.165,6.164h41a47.555,47.555,0,0,1-5.186,11.352h-3.521a8.732,8.732,0,0,0-8.723,8.722,3.925,3.925,0,0,0,3.92,3.921h50.388a3.925,3.925,0,0,0,3.92-3.921,8.732,8.732,0,0,0-8.723-8.722h-3.522a47.634,47.634,0,0,1-5.186-11.352h41a6.171,6.171,0,0,0,6.165-6.164v-78.062a6.171,6.171,0,0,0-6.165-6.164Zm-105.37,3.448h105.37a2.719,2.719,0,0,1,2.717,2.716v67.97h-110.8v-67.97a2.719,2.719,0,0,1,2.717-2.716Zm78.351,107.017a.474.474,0,0,1-.472.473H220.83a.473.473,0,0,1-.472-.473,5.28,5.28,0,0,1,5.275-5.274h40.782a5.28,5.28,0,0,1,5.275,5.274Zm-12.816-8.723h-25.7a51.412,51.412,0,0,0,4.763-11.352h16.174a51.414,51.414,0,0,0,4.763,11.352Zm39.835-14.8H193.339a2.719,2.719,0,0,1-2.717-2.716v-6.644h110.8v6.644a2.72,2.72,0,0,1-2.717,2.716Zm0,0" fill="#4d4d4d"/>
    <path id="Trazado_2881" data-name="Trazado 2881" d="M195.335,1385.046H296.713a1.724,1.724,0,0,0,1.724-1.724v-26.838a1.724,1.724,0,0,0-3.448,0V1381.6h-97.93v-25.113a1.724,1.724,0,0,0-3.448,0v26.838a1.724,1.724,0,0,0,1.724,1.724Zm0,0" fill="#4d4d4d"/>
    <path id="Trazado_2882" data-name="Trazado 2882" d="M195.335,1351.312a1.724,1.724,0,0,0,1.724-1.724v-13.83h97.93v13.83a1.724,1.724,0,1,0,3.448,0V1322.75a1.724,1.724,0,0,0-1.724-1.724H195.335a1.724,1.724,0,0,0-1.724,1.724v26.838a1.724,1.724,0,0,0,1.724,1.724Zm99.654-26.838v7.835h-97.93v-7.835Zm0,0" fill="#4d4d4d"/>
    <path id="Trazado_2883" data-name="Trazado 2883" d="M268.45,1330a1.607,1.607,0,1,1,1.607-1.608A1.609,1.609,0,0,1,268.45,1330Zm0,0" fill="#f2f2f2"/>
    <path id="Trazado_2884" data-name="Trazado 2884" d="M277.256,1330a1.607,1.607,0,1,1,1.607-1.608,1.609,1.609,0,0,1-1.607,1.608Zm0,0" fill="#f2f2f2"/>
    <path id="Trazado_2885" data-name="Trazado 2885" d="M286.062,1330a1.607,1.607,0,1,1,1.607-1.608,1.609,1.609,0,0,1-1.607,1.608Zm0,0" fill="#f2f2f2"/>
  </g>
</svg>
