<svg xmlns="http://www.w3.org/2000/svg" width="98.395" height="72.144" viewBox="0 0 98.395 72.144">
  <g id="Grupo_14632" data-name="Grupo 14632" transform="translate(-1697.297 -1268.294)">
    <g id="Grupo_13811" data-name="Grupo 13811">
      <path id="Trazado_2670" data-name="Trazado 2670" d="M1699.614,1339.124h74.46a2.317,2.317,0,0,0,2.317-2.317v-64.882a2.317,2.317,0,0,0-2.317-2.317h-74.46a2.317,2.317,0,0,0-2.317,2.317v64.882a2.317,2.317,0,0,0,2.317,2.317Zm2.318-64.882h69.825v60.248h-69.825Zm0,0" fill="#a4dbf5"/>
      <path id="Trazado_2671" data-name="Trazado 2671" d="M1767.122,1281.194a2.317,2.317,0,1,1-2.317-2.317,2.317,2.317,0,0,1,2.317,2.317Zm0,0" fill="#a4dbf5"/>
      <path id="Trazado_2672" data-name="Trazado 2672" d="M1757.853,1281.194a2.317,2.317,0,1,1-2.317-2.317,2.317,2.317,0,0,1,2.317,2.317Zm0,0" fill="#a4dbf5"/>
      <path id="Trazado_2673" data-name="Trazado 2673" d="M1748.585,1281.194a2.318,2.318,0,1,1-2.318-2.317,2.317,2.317,0,0,1,2.318,2.317Zm0,0" fill="#a4dbf5"/>
      <path id="Trazado_2674" data-name="Trazado 2674" d="M1708.883,1283.511H1737a2.317,2.317,0,1,0,0-4.634h-28.116a2.317,2.317,0,1,0,0,4.634Zm0,0" fill="#a4dbf5"/>
      <path id="Trazado_2675" data-name="Trazado 2675" d="M1764.805,1288.146h-55.922a2.317,2.317,0,0,0-2.317,2.317v37.075a2.317,2.317,0,0,0,2.317,2.317h55.922a2.317,2.317,0,0,0,2.317-2.317v-37.075a2.317,2.317,0,0,0-2.317-2.317Zm-2.317,37.075H1711.2V1292.78h51.288Zm0,0" fill="#a4dbf5"/>
      <path id="Trazado_2676" data-name="Trazado 2676" d="M1746.657,1314.921a2.317,2.317,0,0,0,3.213.642l6.951-4.635a2.316,2.316,0,0,0,0-3.855l-6.951-4.635a2.317,2.317,0,1,0-2.57,3.856l4.059,2.706-4.06,2.707a2.317,2.317,0,0,0-.642,3.214Zm0,0" fill="#a4dbf5"/>
      <path id="Trazado_2677" data-name="Trazado 2677" d="M1716.867,1310.928l6.952,4.635a2.317,2.317,0,0,0,2.57-3.856l-4.06-2.707,4.06-2.706a2.317,2.317,0,0,0-2.57-3.856l-6.952,4.635a2.316,2.316,0,0,0,0,3.855Zm0,0" fill="#a4dbf5"/>
      <path id="Trazado_2678" data-name="Trazado 2678" d="M1730.992,1320.328a2.318,2.318,0,0,0,3.122-.995l9.578-18.538a2.317,2.317,0,0,0-4.118-2.127L1730,1317.206a2.318,2.318,0,0,0,1,3.122Zm0,0" fill="#a4dbf5"/>
    </g>
    <line id="Línea_696" data-name="Línea 696" y2="68.144" transform="translate(1793.692 1270.294)" fill="none" stroke="#a4dbf5" stroke-linecap="round" stroke-miterlimit="10" stroke-width="4"/>
  </g>
</svg>
