<svg xmlns="http://www.w3.org/2000/svg" width="1140" height="458.406" viewBox="0 0 1140 458.406">
  <g id="Grupo_14631" data-name="Grupo 14631" transform="translate(-149.307 -821.802)">
    <rect id="Rectángulo_4876" data-name="Rectángulo 4876" width="1140" height="455.94" transform="translate(149.307 821.802)" fill="#cae4fd"/>
    <path id="Trazado_2864" data-name="Trazado 2864" d="M1058.17,1262.132a77.232,77.232,0,0,1-5.575,12.255q-.953,1.689-2,3.332H375.236s-61.51-140.859,22.288-209.053q1.571-1.277,3.153-2.506,1.458-1.125,2.928-2.213,1.43-1.061,2.872-2.077c25.258-17.84,52.916-26.663,81.926-32.132,1.021-.2,2.045-.381,3.072-.565q1.461-.267,2.925-.517c23.519-4.057,47.871-6.191,72.509-9.361,8.576-1.1,17.188-2.337,25.811-3.818,34.506-5.921,69.2-15.862,102.6-37.822,41.209-27.093,83.7-33.954,119.807-28.576q3.69.547,7.284,1.263,5.286,1.052,10.348,2.444c43.365,11.9,74.064,41.793,75.825,72.7,1.187,20.833,3.658,40.853,9.131,58.219a105.52,105.52,0,0,0,9.707,22.244q1.63,2.75,3.445,5.323c11.945,16.915,30.094,28.061,57.752,29.915,19.226,1.289,35.422,9.9,47.75,22.65.113.118.228.236.344.358C1060.539,1189.121,1069.731,1229.559,1058.17,1262.132Z" fill="#bce2fc"/>
    <g id="Grupo_14616" data-name="Grupo 14616">
      <line id="Línea_699" data-name="Línea 699" x1="604.8" transform="translate(405.907 1277.742)" fill="none" stroke="#709ddb" stroke-linecap="round" stroke-miterlimit="10" stroke-width="4.931"/>
      <g id="Grupo_14543" data-name="Grupo 14543">
        <g id="Grupo_14541" data-name="Grupo 14541">
          <path id="Trazado_2886" data-name="Trazado 2886" d="M544.191,1009.892c-1.579.067-5.329-2.776-4.718-.538.347,1.274-6.86,58.914-14.642,119.995" fill="none" stroke="#9396ac" stroke-linecap="round" stroke-miterlimit="10" stroke-width="11.167"/>
          <path id="Trazado_2887" data-name="Trazado 2887" d="M549.306,1019.935c.229,1.756.55,44.017.851,93.9" fill="none" stroke="#9396ac" stroke-linecap="round" stroke-miterlimit="10" stroke-width="11.167"/>
          <path id="Trazado_2888" data-name="Trazado 2888" d="M570.893,1019.063c.472,1.085,7.542,44.455,15.657,94.853" fill="none" stroke="#9396ac" stroke-linecap="round" stroke-miterlimit="10" stroke-width="11.167"/>
          <g id="Grupo_14538" data-name="Grupo 14538">
            <path id="Trazado_2889" data-name="Trazado 2889" d="M513.32,1098.458H629.8L601.412,937.486H484.936Z" fill="#c17553"/>
            <path id="Trazado_2890" data-name="Trazado 2890" d="M487.665,937.483l1.287,7.29,18.362,104.145,3.961,22.478,4.772,27.063H632.526l-27.1-153.686-1.287-7.29Z" fill="#ffd8bd"/>
            <path id="Trazado_2891" data-name="Trazado 2891" d="M518.437,1084.84H622.451L596.708,936.885l-104.014-.648Z" fill="#85807e" opacity="0.39" style="mix-blend-mode: multiply;isolation: isolate"/>
            <path id="Trazado_2892" data-name="Trazado 2892" d="M520.5,1082.364H624.513L598.771,934.41l-104.014-.648Z" fill="#fff"/>
            <path id="Trazado_2893" data-name="Trazado 2893" d="M487.663,937.483l1.287,7.29H605.423l-1.287-7.29Z" fill="#85807e" opacity="0.39" style="mix-blend-mode: multiply;isolation: isolate"/>
          </g>
          <g id="Grupo_14539" data-name="Grupo 14539">
            <path id="Trazado_2894" data-name="Trazado 2894" d="M485.17,923.793v15.621H604.458v-.043a7.28,7.28,0,0,0,5.514-3.72,8.381,8.381,0,0,0,.538-7.067,7.344,7.344,0,0,0-6.782-4.914,6.855,6.855,0,0,0-1.244.123Z" fill="#4d6199"/>
          </g>
          <path id="Trazado_2895" data-name="Trazado 2895" d="M536.867,991.284a78.333,78.333,0,0,0-11.147,7.4" fill="none" stroke="#07113d" stroke-linecap="round" stroke-linejoin="round" stroke-width="2.482"/>
          <path id="Trazado_2896" data-name="Trazado 2896" d="M527.352,994.663a9.593,9.593,0,0,1-2.888,5.312l3.317-.321" fill="none" stroke="#07113d" stroke-linecap="round" stroke-linejoin="round" stroke-width="2.482"/>
          <path id="Trazado_2897" data-name="Trazado 2897" d="M529.222,1006.547l-7.561-.367a12.368,12.368,0,0,0-3.55.169" fill="none" stroke="#07113d" stroke-linecap="round" stroke-linejoin="round" stroke-width="2.482"/>
          <path id="Trazado_2898" data-name="Trazado 2898" d="M529.513,1010.618l-7.561-.367a12.334,12.334,0,0,0-3.55.17" fill="none" stroke="#07113d" stroke-linecap="round" stroke-linejoin="round" stroke-width="2.482"/>
          <path id="Trazado_2899" data-name="Trazado 2899" d="M585.336,1053.191c2.524-.905,5.121-1.854,7.094-3.669a15.127,15.127,0,0,0,4.093-8.035,17.231,17.231,0,0,0-.031-8.662,9.475,9.475,0,0,0-5.62-6.295" fill="none" stroke="#ff4343" stroke-miterlimit="10" stroke-width="1.749"/>
          <path id="Trazado_2900" data-name="Trazado 2900" d="M596.687,1027.3l-6.764-.995a9.015,9.015,0,0,1,.931,5.258" fill="none" stroke="#ff4343" stroke-miterlimit="10" stroke-width="1.749"/>
          <path id="Trazado_2901" data-name="Trazado 2901" d="M558.607,1054.813a43.142,43.142,0,0,1-31.935-33.554" fill="none" stroke="#ff4343" stroke-miterlimit="10" stroke-width="1.749"/>
          <path id="Trazado_2902" data-name="Trazado 2902" d="M531.844,1027.133a17.94,17.94,0,0,1-5.306-5.584" fill="none" stroke="#ff4343" stroke-miterlimit="10" stroke-width="1.749"/>
          <path id="Trazado_2903" data-name="Trazado 2903" d="M526.372,1022.582a22.721,22.721,0,0,0-2.726,7.814" fill="none" stroke="#d93838" stroke-miterlimit="10" stroke-width="1.749"/>
          <g id="Grupo_14540" data-name="Grupo 14540">
            <path id="Trazado_2904" data-name="Trazado 2904" d="M555.555,984.568a2.581,2.581,0,0,0,1.65,1.858,2.412,2.412,0,0,0,1.342.121l-.933,5.031a.62.62,0,0,0,.473.717.644.644,0,0,0,.136.015.62.62,0,0,0,.6-.462,59.964,59.964,0,0,0,1.339-6.549,2.4,2.4,0,0,0,2.085.865,1.791,1.791,0,0,0,.963-.454,3.966,3.966,0,0,0,2.809,1.459,2.594,2.594,0,0,0,1.548-.348,2.9,2.9,0,0,0,.907-3.31,3.471,3.471,0,0,0-2.229-2.5,2.375,2.375,0,0,0-2.076.437,1.887,1.887,0,0,0-.761,1.554.22.22,0,0,0,0,.025,1.426,1.426,0,0,0-.113-.093.618.618,0,0,0-.988.53,3.7,3.7,0,0,0,.24,1.116.685.685,0,0,1-.462.358c-.611.079-1.227-.549-1.409-1.186a4.238,4.238,0,0,1-.018-1.8l.142-.769a.619.619,0,0,0-1.215-.233c-.016.082-.033.166-.05.251a2.1,2.1,0,0,0-1.662-.13A3.167,3.167,0,0,0,555.555,984.568Zm8.218-1.026a.655.655,0,0,0,.276.053.62.62,0,0,0,.594-.643.678.678,0,0,1,.289-.532,1.2,1.2,0,0,1,.724-.252.92.92,0,0,1,.249.033,2.339,2.339,0,0,1,1.379,1.656c.206.706.142,1.59-.377,1.915a1.449,1.449,0,0,1-.822.162,2.793,2.793,0,0,1-2.211-1.435A1.7,1.7,0,0,0,563.773,983.542Zm-5.558-1.286a.906.906,0,0,1,.7.013c.186.12.272.425.257.906l-.355,1.914a.607.607,0,0,0-.194.1,1.04,1.04,0,0,1-.981.08,1.361,1.361,0,0,1-.873-.942A1.963,1.963,0,0,1,558.215,982.256Z" fill="#37a9e2"/>
            <path id="Trazado_2905" data-name="Trazado 2905" d="M549.765,985.67a4.313,4.313,0,0,0,2.723,3.345c-.153.62-.313,1.229-.469,1.822a.619.619,0,0,0,1.116.5,12.192,12.192,0,0,0,1.08-2.05l.063-.005a.619.619,0,0,0,.332-1.1,12.494,12.494,0,0,0,.364-5.823,1.794,1.794,0,0,0-.507-1.06.62.62,0,0,0-.659-.415.607.607,0,0,0-.279.106,2.333,2.333,0,0,0-.327.034A4.312,4.312,0,0,0,549.765,985.67Zm3.563-3.411a20.24,20.24,0,0,1-.556,5.534,2.9,2.9,0,0,1,.556-5.534Z" fill="#37a9e2"/>
            <path id="Trazado_2906" data-name="Trazado 2906" d="M524.46,969.4l.14,4.326a.618.618,0,0,0,.617.6h.021a.618.618,0,0,0,.6-.639l-.112-3.471c.1.027.213.043.319.067a44.372,44.372,0,0,0,10.125,8.055.615.615,0,0,0,.31.084h0a9.236,9.236,0,0,0-3.037,6.748c.037,3.235,2.108,6.467,5.4,8.433,2.992,1.785,6.549,2.391,9.635,2.749.176.02.347.034.522.053l-4.1,11.154a19.313,19.313,0,0,0-.518-2.906.619.619,0,0,0-1.2.313,18.013,18.013,0,0,1,.568,5.416.62.62,0,0,0,.618.649.627.627,0,0,0,.244-.05,13.652,13.652,0,0,0,4.218-2.831.619.619,0,1,0-.868-.882,12.561,12.561,0,0,1-2.29,1.773l4.591-12.506q2.745.246,5.314.246a40.055,40.055,0,0,0,13.868-2.24l5.264,11.644c.007.017.02.029.028.045v0a7.494,7.494,0,0,0-3.184-1.758.619.619,0,0,0-.316,1.2,6.247,6.247,0,0,1,3.395,2.289.62.62,0,0,0,.5.248.58.58,0,0,0,.137-.016.618.618,0,0,0,.47-.484,34.011,34.011,0,0,0,.624-6.087.62.62,0,0,0-.612-.626.63.63,0,0,0-.626.612c-.008.75-.045,1.5-.1,2.251l-4.417-9.769a28.276,28.276,0,0,0,4.153-2.131A8.2,8.2,0,0,0,578.1,988.6a5.484,5.484,0,0,0,.382-1.268.566.566,0,0,0,.174.04,80.158,80.158,0,0,1,10.179.94c-1.129.391-2.25.8-3.354,1.237a.619.619,0,1,0,.457,1.15c2.248-.892,4.565-1.691,6.885-2.374a.619.619,0,0,0,.147-1.122c-1.61-.982-3.266-1.939-4.921-2.846a.619.619,0,0,0-.6,1.085c1.143.627,2.285,1.279,3.413,1.945a81.2,81.2,0,0,0-12.178-1.252.547.547,0,0,0-.106.019,14.837,14.837,0,0,0-.286-2.76,12.619,12.619,0,0,0-6.041-8.919c-.35-.213-.72-.4-1.09-.587a107.881,107.881,0,0,0,6.569-11.292c-.02,1-.006,2,.054,2.989a.617.617,0,0,0,.617.582h.037a.619.619,0,0,0,.581-.654,36.107,36.107,0,0,1,.161-6.159.619.619,0,0,0-.911-.613l-5.7,3.1a.619.619,0,0,0,.591,1.088l4.141-2.249a106.561,106.561,0,0,1-7.275,12.685l0,.009c-7.432-3.1-18.1-1.783-25.511.509a20.8,20.8,0,0,0-7.423,3.97.618.618,0,0,0-.3-.584,43.138,43.138,0,0,1-8.766-6.721,11.321,11.321,0,0,0,1.552-.024.619.619,0,1,0-.112-1.233,10.274,10.274,0,0,1-2.793-.145c-.066-.072-.134-.14-.2-.211a.618.618,0,0,0-.867-.047c-.109-.032-.221-.055-.328-.091a.618.618,0,0,0-.816.606Zm20.42,5.663a50.919,50.919,0,0,1,14.549-2.261c4.628,0,8.992.792,12.18,2.732a11.425,11.425,0,0,1,5.466,8.081,7.776,7.776,0,0,1-.108,4.483,7.107,7.107,0,0,1-2.858,2.81c-6.419,4.01-14.994,5.427-25.483,4.212-2.956-.342-6.353-.917-9.143-2.582-2.929-1.747-4.768-4.577-4.8-7.384C534.624,980.05,540.139,976.527,544.88,975.062Z" fill="#37a9e2"/>
            <path id="Trazado_2907" data-name="Trazado 2907" d="M515.2,964.106a46.123,46.123,0,0,0,8.68.234c1.192-.08,1.187,1.777,0,1.857a46.113,46.113,0,0,1-8.68-.235C514.031,965.82,514.017,963.962,515.2,964.106Z" fill="#37a9e2"/>
            <path id="Trazado_2908" data-name="Trazado 2908" d="M506.886,964.308a.95.95,0,0,1,1.142-.648l2.475.418a.936.936,0,0,1,.648,1.142.951.951,0,0,1-1.142.649l-2.474-.419A.936.936,0,0,1,506.886,964.308Z" fill="#37a9e2"/>
            <path id="Trazado_2909" data-name="Trazado 2909" d="M508.09,957.659c5.368,1.531,10.975-.541,16.47.935a.929.929,0,0,1-.493,1.79c-5.5-1.476-11.05.611-16.471-.935A.929.929,0,0,1,508.09,957.659Z" fill="#37a9e2"/>
            <path id="Trazado_2910" data-name="Trazado 2910" d="M579.912,955.855a4.573,4.573,0,0,1-1.528-1.239c-1.011.594-1.326.223-3.059.056a14.013,14.013,0,0,0-5.7.7c-1.139.368-1.627-1.424-.493-1.791a15.812,15.812,0,0,1,4.687-.825c1.463-.017,3.132.681,4.353-.236a.933.933,0,0,1,1.27.333,2.323,2.323,0,0,0,1.41,1.4C581.912,954.8,580.974,956.4,579.912,955.855Z" fill="#37a9e2"/>
            <path id="Trazado_2911" data-name="Trazado 2911" d="M554.452,952.11q4.3.5,8.624.58a.929.929,0,0,1,0,1.857q-4.329-.084-8.624-.58C553.279,953.831,553.266,951.973,554.452,952.11Z" fill="#37a9e2"/>
            <path id="Trazado_2912" data-name="Trazado 2912" d="M580.4,949.062l-25.981-1.447c-1.188-.066-1.2-1.923,0-1.856l25.981,1.446C581.588,947.271,581.6,949.129,580.4,949.062Z" fill="#37a9e2"/>
            <path id="Trazado_2913" data-name="Trazado 2913" d="M595.674,982.513a42.167,42.167,0,0,1,6.835.543c1.177.188.678,1.978-.493,1.791a39.046,39.046,0,0,0-6.342-.477A.929.929,0,0,1,595.674,982.513Z" fill="#37a9e2"/>
            <path id="Trazado_2914" data-name="Trazado 2914" d="M596.109,985.527a5.769,5.769,0,0,1,2.86.15,34.871,34.871,0,0,1,3.989.907.929.929,0,0,1-.493,1.79c-.927-.265-1.86-.5-2.805-.692a16.927,16.927,0,0,0-2.188-.456.839.839,0,0,1-.637.665A1.239,1.239,0,0,1,596.109,985.527Z" fill="#37a9e2"/>
            <path id="Trazado_2915" data-name="Trazado 2915" d="M600.625,990.372h2.063a.929.929,0,0,1,0,1.857h-2.063A.929.929,0,0,1,600.625,990.372Z" fill="#37a9e2"/>
            <path id="Trazado_2916" data-name="Trazado 2916" d="M568.866,1010.781q8.872-.445,17.745-.141c1.191.041,1.2,1.9,0,1.857q-8.879-.3-17.745.14C567.672,1012.7,567.676,1010.84,568.866,1010.781Z" fill="#37a9e2"/>
            <path id="Trazado_2917" data-name="Trazado 2917" d="M576.694,1014.509l9.9.049a.929.929,0,0,1,0,1.857l-9.9-.049A.929.929,0,0,1,576.694,1014.509Z" fill="#37a9e2"/>
            <path id="Trazado_2918" data-name="Trazado 2918" d="M549.877,1013.683a.929.929,0,0,1,0-1.856h2.063a.929.929,0,0,1,0,1.856Z" fill="#37a9e2"/>
            <path id="Trazado_2919" data-name="Trazado 2919" d="M535.831,1012.059a42.026,42.026,0,0,1,10.557.349c1.177.185.677,1.974-.493,1.79a40.129,40.129,0,0,0-10.064-.282C534.642,1014.029,534.649,1012.171,535.831,1012.059Z" fill="#37a9e2"/>
            <path id="Trazado_2920" data-name="Trazado 2920" d="M538.331,1016.457l13.175-.848c1.193-.076,1.188,1.78,0,1.857l-13.175.848C537.138,1018.39,537.143,1016.533,538.331,1016.457Z" fill="#37a9e2"/>
            <path id="Trazado_2921" data-name="Trazado 2921" d="M582.717,1045.7c1.11.413.629,2.208-.494,1.791a12.748,12.748,0,0,0-5.116-.8c-1.194.055-1.191-1.8,0-1.857A14.147,14.147,0,0,1,582.717,1045.7Z" fill="#37a9e2"/>
            <path id="Trazado_2922" data-name="Trazado 2922" d="M573.42,1044.65c1.17.147,1.185,2.006,0,1.857a20.281,20.281,0,0,0-8.029.566.929.929,0,0,1-.494-1.79A21.589,21.589,0,0,1,573.42,1044.65Z" fill="#37a9e2"/>
            <path id="Trazado_2923" data-name="Trazado 2923" d="M561.006,1046.713c-.018,0-.177-.054-.18-.055a.964.964,0,0,0-.382.018.928.928,0,1,1-.493-1.79,2.782,2.782,0,0,1,2.555.624.938.938,0,0,1,0,1.313.947.947,0,0,1-1.313,0c.062.039.047.028-.047-.033A1.455,1.455,0,0,0,561.006,1046.713Z" fill="#37a9e2"/>
            <path id="Trazado_2924" data-name="Trazado 2924" d="M558.36,1048.323c7.861,1.776,15.849.837,23.79.247,1.192-.088,1.186,1.769,0,1.857-8.121.6-16.249,1.5-24.283-.314C556.7,1049.85,557.2,1048.06,558.36,1048.323Z" fill="#37a9e2"/>
            <path id="Trazado_2925" data-name="Trazado 2925" d="M573.07,1053.291a17.335,17.335,0,0,1,9.632-.117.93.93,0,0,1-.494,1.791,15.431,15.431,0,0,0-8.644.116A.929.929,0,0,1,573.07,1053.291Z" fill="#37a9e2"/>
            <path id="Trazado_2926" data-name="Trazado 2926" d="M565.143,1053.5h4.126a.929.929,0,0,1,0,1.856h-4.126A.929.929,0,0,1,565.143,1053.5Z" fill="#37a9e2"/>
          </g>
          <path id="Trazado_2927" data-name="Trazado 2927" d="M485.17,928.584v7.067h124.8a8.381,8.381,0,0,0,.538-7.067Z" fill="#365089"/>
          <path id="Trazado_2928" data-name="Trazado 2928" d="M524.831,1129.349c-8.881,69.707-19.008,141.4-19.008,141.4" fill="none" stroke="#a3a6bf" stroke-linecap="round" stroke-miterlimit="10" stroke-width="11.167"/>
          <path id="Trazado_2929" data-name="Trazado 2929" d="M550.157,1113.833c.448,74.068.854,156.357.854,156.357" fill="none" stroke="#a3a6bf" stroke-linecap="round" stroke-miterlimit="10" stroke-width="11.167"/>
          <path id="Trazado_2930" data-name="Trazado 2930" d="M586.55,1113.916c11.454,71.136,24.991,156.274,24.991,156.274" fill="none" stroke="#a3a6bf" stroke-linecap="round" stroke-miterlimit="10" stroke-width="11.167"/>
        </g>
        <path id="Trazado_2931" data-name="Trazado 2931" d="M609.44,926.628H486.03v4.332H611.024Z" fill="#6581c1"/>
        <ellipse id="Elipse_10" data-name="Elipse 10" cx="7.321" cy="7.87" rx="7.321" ry="7.87" transform="translate(479.437 923.672)" fill="#07113d"/>
        <ellipse id="Elipse_11" data-name="Elipse 11" cx="2.955" cy="3.324" rx="2.955" ry="3.324" transform="translate(483.803 928.218)" fill="#4d6199"/>
        <g id="Grupo_14542" data-name="Grupo 14542">
          <path id="Trazado_2932" data-name="Trazado 2932" d="M514.545,1098.578H642.31l-.927-5.257H513.618Z" fill="#4d6199"/>
          <path id="Trazado_2933" data-name="Trazado 2933" d="M519.1,1093.4l-1.828,4.571-5.7.609-.091-5.181Z" fill="#07113d"/>
        </g>
        <path id="Trazado_2934" data-name="Trazado 2934" d="M507.263,1049.073l3.961,22.477c.118.025.229.044.328.056,10.644,1.541,20.677-5.929,24.823-15.88.043-.106,14.1-32.281,14.1-32.281l-11.373-2.284s-11.953,14.946-18.742,25.752a8.739,8.739,0,0,1-5.235,4.289C513.644,1051.728,510.011,1050.861,507.263,1049.073Z" fill="#444c77" opacity="0.3" style="mix-blend-mode: multiply;isolation: isolate"/>
      </g>
      <g id="Grupo_14573" data-name="Grupo 14573">
        <g id="Grupo_14572" data-name="Grupo 14572">
          <g id="Grupo_14545" data-name="Grupo 14545">
            <g id="Grupo_14544" data-name="Grupo 14544">
              <path id="Trazado_2935" data-name="Trazado 2935" d="M553.979,999.666l6.7-9.111a1.883,1.883,0,0,0-.381-2.615h0a1.855,1.855,0,0,0-2.6.4l-6.7,9.111c-.609.829-3.121,3.849-2.3,4.459l2.683-1.844A1.854,1.854,0,0,0,553.979,999.666Z" fill="#f4a891"/>
              <rect id="Rectángulo_4881" data-name="Rectángulo 4881" width="15.065" height="3.708" rx="1.854" transform="matrix(-0.14, 0.99, -0.99, -0.14, 553.498, 988.424)" fill="#f4a891"/>
              <path id="Trazado_2936" data-name="Trazado 2936" d="M554.261,1005l8.3-10.5a1.885,1.885,0,0,0-.29-2.628h0a1.854,1.854,0,0,0-2.608.306l-8.3,10.5a1.883,1.883,0,0,0,.289,2.628h0A1.854,1.854,0,0,0,554.261,1005Z" fill="#f4a891"/>
              <path id="Trazado_2937" data-name="Trazado 2937" d="M556.169,1008.6l8.3-10.5a1.885,1.885,0,0,0-.29-2.628h0a1.853,1.853,0,0,0-2.608.3l-8.3,10.5a1.884,1.884,0,0,0,.289,2.628h0A1.854,1.854,0,0,0,556.169,1008.6Z" fill="#f4a891"/>
            </g>
            <path id="Trazado_2938" data-name="Trazado 2938" d="M556.178,990.553c-.1.114-1.351,1.267-2.714,2.511a20.271,20.271,0,0,0-5.3,7.819L546,1006.609s8.611,4.678,8.952,4.4c5.614-4.573,9.427-13.015,9.427-13.015Z" fill="#f4a891"/>
          </g>
          <path id="Trazado_2939" data-name="Trazado 2939" d="M543.543,1006.836l2.147-5.119,14.534,6.71-3.28,5.763Z" fill="#fff"/>
          <g id="Grupo_14546" data-name="Grupo 14546">
            <path id="Trazado_2940" data-name="Trazado 2940" d="M559.9,1012.246s-13.756,31.481-13.8,31.588c-4.057,9.735-13.875,17.046-24.285,15.534a47.894,47.894,0,0,1-7.082-2c-2.072-.811-24.315-15.755-24.315-15.755l-1.982-26.041s27.392,20.545,28.975,21.619c2.712,1.839,6.411,2.739,7.893,2.215a8.566,8.566,0,0,0,5.128-4.2c6.64-10.574,13.177-30.618,13.177-30.618Z" fill="#3d72b9"/>
          </g>
          <path id="Trazado_2941" data-name="Trazado 2941" d="M481.232,1245.32c-.093,1.248-.581,19.066-.581,19.066l13.052.246-.29-22.334Z" fill="#591239"/>
          <path id="Trazado_2942" data-name="Trazado 2942" d="M475.218,1124.187c-.023.15-.01.978.034,2.4.639,20.751,4.24,133.935,4.24,133.935l16.835-.578,4.453-132.5Z" fill="#07113d"/>
          <g id="Grupo_14548" data-name="Grupo 14548">
            <path id="Trazado_2943" data-name="Trazado 2943" d="M479.442,1275.3l34.433.252a3.744,3.744,0,0,0,3.742-3.749h0a3.775,3.775,0,0,0-2.47-3.583l-17-6.16-18.624.325Z" fill="#884c2e"/>
            <path id="Rectángulo_4882" data-name="Rectángulo 4882" d="M0,0H37.356a0,0,0,0,1,0,0V0a2.536,2.536,0,0,1-2.536,2.536H0a0,0,0,0,1,0,0V0A0,0,0,0,1,0,0Z" transform="translate(479.699 1273.999)" fill="#07113d"/>
            <g id="Grupo_14547" data-name="Grupo 14547">
              <line id="Línea_700" data-name="Línea 700" y1="4.39" x2="4.04" transform="translate(497.733 1262.788)" fill="none" stroke="#07113d" stroke-linecap="round" stroke-miterlimit="10" stroke-width="1.67"/>
              <line id="Línea_701" data-name="Línea 701" y1="4.39" x2="4.04" transform="translate(500.696 1264.056)" fill="none" stroke="#07113d" stroke-linecap="round" stroke-miterlimit="10" stroke-width="1.67"/>
              <line id="Línea_702" data-name="Línea 702" y1="4.978" x2="4.548" transform="translate(503.535 1265.166)" fill="none" stroke="#07113d" stroke-linecap="round" stroke-miterlimit="10" stroke-width="1.67"/>
            </g>
          </g>
          <path id="Trazado_2944" data-name="Trazado 2944" d="M451.684,1245.1c-.071,1.242-.247,18.963-.247,18.963l13.054.011-.68-22.2Z" fill="#591239"/>
          <path id="Trazado_2945" data-name="Trazado 2945" d="M443.558,1124.8c-.02.15.007.972.076,2.381,1,20.615,6.576,133.056,6.576,133.056l16.823-.876,2.14-131.786Z" fill="#07113d"/>
          <g id="Grupo_14550" data-name="Grupo 14550">
            <path id="Trazado_2946" data-name="Trazado 2946" d="M450.153,1275.008l34.407,1.343a3.732,3.732,0,0,0,3.859-3.606h0a3.755,3.755,0,0,0-2.356-3.639l-16.794-6.661-18.625-.268Z" fill="#a36440"/>
            <path id="Rectángulo_4883" data-name="Rectángulo 4883" d="M0,0H37.356a0,0,0,0,1,0,0V0a2.52,2.52,0,0,1-2.52,2.52H0a0,0,0,0,1,0,0V0A0,0,0,0,1,0,0Z" transform="matrix(1, 0.032, -0.032, 1, 450.451, 1273.723)" fill="#07113d"/>
            <g id="Grupo_14549" data-name="Grupo 14549">
              <line id="Línea_703" data-name="Línea 703" y1="4.234" x2="4.177" transform="translate(468.691 1263.279)" fill="none" stroke="#07113d" stroke-linecap="round" stroke-miterlimit="10" stroke-width="1.666"/>
              <line id="Línea_704" data-name="Línea 704" y1="4.234" x2="4.177" transform="translate(471.613 1264.634)" fill="none" stroke="#07113d" stroke-linecap="round" stroke-miterlimit="10" stroke-width="1.666"/>
              <line id="Línea_705" data-name="Línea 705" y1="4.802" x2="4.703" transform="translate(474.397 1265.843)" fill="none" stroke="#07113d" stroke-linecap="round" stroke-miterlimit="10" stroke-width="1.666"/>
            </g>
          </g>
          <path id="Trazado_2947" data-name="Trazado 2947" d="M501.682,1121.185a15.736,15.736,0,0,1-2.6,10.292,15.478,15.478,0,0,1-11.389,6.839l-26.012,2.538a14.761,14.761,0,0,1-2.288.047,15.042,15.042,0,0,1-5.491-1.318c-.3-.129-.6-.277-.889-.433a15.677,15.677,0,0,1-8.3-12.407l-.321-8.381,55.985-5.957Z" fill="#07113d"/>
          <g id="Grupo_14553" data-name="Grupo 14553">
            <path id="Trazado_2948" data-name="Trazado 2948" d="M471.238,1022.294l-2.393.428a7.738,7.738,0,0,1-8.938-6.3l-4.567-26a7.8,7.8,0,0,1,6.244-9.024l2.393-.429a7.739,7.739,0,0,1,8.938,6.306l4.567,26A7.8,7.8,0,0,1,471.238,1022.294Z" fill="#f4a891"/>
            <path id="Trazado_2949" data-name="Trazado 2949" d="M496.084,957.57q.067.656.11,1.313a30.048,30.048,0,0,1-.275,6.23A29.625,29.625,0,0,1,482.3,985.864a28.933,28.933,0,0,1-12.243,4.2c-7.274.777-12.986,4.712-18.547.8a29.073,29.073,0,0,1-4.908-4.333c-.576-.641-1.126-1.295-1.644-1.978-3.159-4.169-6.5-15.168-7.084-20.765a29.512,29.512,0,0,1,24.7-32.335q.66-.1,1.322-.169a29.078,29.078,0,0,1,25.033,9.845l.01.008a29.65,29.65,0,0,1,7.14,16.433Z" fill="#a36440"/>
            <g id="Grupo_14551" data-name="Grupo 14551">
              <path id="Trazado_2950" data-name="Trazado 2950" d="M459.077,970.054a4.821,4.821,0,0,1-.112,1.8,5.521,5.521,0,0,1-.9,2.019,5.088,5.088,0,0,1-3.331,2.021l-2.966.37-2.275.289-.853-6.816h.008l-.162-1.26-.122-.979-.107-.9-.032-.232h.008l5.233-.658a5,5,0,0,1,3.588.926,5.093,5.093,0,0,1,1.475,1.7A4.618,4.618,0,0,1,459.077,970.054Z" fill="#ffc4bc"/>
              <path id="Trazado_2951" data-name="Trazado 2951" d="M494.268,960.793l1.366,11.023.206,1.65a22.9,22.9,0,0,1,.174,3.241,23.268,23.268,0,0,1-16.3,21.766,8.282,8.282,0,0,1-.872.249,21.621,21.621,0,0,1-3.155.633,23.306,23.306,0,0,1-8.987-.637.024.024,0,0,1-.018-.005,23.2,23.2,0,0,1-16.537-17.572c-.055-.262-.107-.515-.146-.779a9.093,9.093,0,0,1-.146-.932l-.029-.165-.1-.745-.236-1.967-.85-6.749,0-.067,0-.008-.152-1.253-.122-.979-.107-.9-.024-.233a18.838,18.838,0,0,1,.061-4.623,25.474,25.474,0,0,1,.578-3.113c.03-.167.064-.309.1-.46a21.559,21.559,0,0,1,.775-2.47.032.032,0,0,1,.006-.018,23.405,23.405,0,0,1,5.217-8.157c.456-.463.931-.913,1.419-1.34a23.353,23.353,0,0,1,29.592-.84,22.448,22.448,0,0,1,5.919,7.265,17.164,17.164,0,0,1,1.4,3.4A27.981,27.981,0,0,1,494.268,960.793Z" fill="#ffc7b0"/>
              <path id="Trazado_2952" data-name="Trazado 2952" d="M450.914,969.422l.849,6.842.568,4.621-1.8.228a2.91,2.91,0,0,1-.39.028,5.963,5.963,0,0,1-6.136-5.2,5.632,5.632,0,0,1,4.628-6.2h.008a2.215,2.215,0,0,1,.464-.084Z" fill="#ffc4bc"/>
            </g>
            <path id="Trazado_2953" data-name="Trazado 2953" d="M475.044,999.385a15.234,15.234,0,0,1-8.346-.667.024.024,0,0,1-.018-.005,23.2,23.2,0,0,1-16.537-17.572,5.963,5.963,0,0,1-6.136-5.2,5.632,5.632,0,0,1,4.628-6.2l0-.008-.152-1.253-.122-.979-.107-.9-.032-.232h.008a18.838,18.838,0,0,1,.061-4.623c2.772-2.286,5.849-3.176,8.314.393,0,0,.13,1.791.446,4.5.23,2.027.558,4.563,1.011,7.237.916,5.5,2.32,11.581,4.374,15.054C466.81,996.341,475.044,999.385,475.044,999.385Z" fill="#f4a891"/>
            <g id="Grupo_14552" data-name="Grupo 14552">
              <path id="Trazado_2954" data-name="Trazado 2954" d="M491.922,962.027l-7.191,1.288a1.315,1.315,0,0,1-1.518-1.071h0a1.326,1.326,0,0,1,1.061-1.532l7.19-1.288a1.315,1.315,0,0,1,1.518,1.071h0A1.324,1.324,0,0,1,491.922,962.027Z" fill="#a36440"/>
              <path id="Trazado_2955" data-name="Trazado 2955" d="M474.42,965.162l-7.191,1.287a1.313,1.313,0,0,1-1.517-1.07h0a1.325,1.325,0,0,1,1.06-1.533l7.191-1.287a1.314,1.314,0,0,1,1.517,1.07h0A1.325,1.325,0,0,1,474.42,965.162Z" fill="#a36440"/>
              <path id="Trazado_2956" data-name="Trazado 2956" d="M478.7,983.51a5.359,5.359,0,0,0,4.8,1.59c2.074-.262,4.231-1.606,4.642-3.4Z" fill="#fff"/>
              <path id="Trazado_2957" data-name="Trazado 2957" d="M485.7,976.131c.01.034-.139.021-.139.021.171,1.173-.668,2.28-3.161,2.652l-1.908-9.149C483.733,972.572,485.183,974.255,485.7,976.131Z" fill="#f4a891"/>
            </g>
          </g>
          <path id="Trazado_2958" data-name="Trazado 2958" d="M445.846,1133.381s22.873-2.5,22.6-3.339-.276-10.573-.276-10.573,18.188-3.061,18.188-1.948,1.654,9.739,1.654,9.739l13.5-2.5-.275-14.47-58.7,6.122Z" fill="#080b2e"/>
          <g id="Grupo_14554" data-name="Grupo 14554">
            <path id="Trazado_2959" data-name="Trazado 2959" d="M489.87,1112.112l-27.28,2.755-9.321-112.475,8.411-.459,7.957,21,1.749-21.064,7.117-.627Z" fill="#fff"/>
          </g>
          <g id="Grupo_14555" data-name="Grupo 14555" opacity="0.09">
            <path id="Trazado_2960" data-name="Trazado 2960" d="M476.449,1006.868c0,2.066,8.525,107.425,8.525,107.425l5.456.345-10.051-106.222Z" fill="#080b2e"/>
            <path id="Trazado_2961" data-name="Trazado 2961" d="M455.989,1006.868l11.935,119.821-4.774,1.033-10.762-120.716Z" fill="#080b2e"/>
          </g>
          <path id="Trazado_2962" data-name="Trazado 2962" d="M464.657,1127.019a59.367,59.367,0,0,1-7.509,1.791c-1.63.289-3.485.564-5.517.785a78.182,78.182,0,0,1-9.494.44,1.957,1.957,0,0,1-.6-.137l-5.551-73.8c-.069-.579-.13-1.15-.191-1.7-1.235-11.28-.853-17.684-1-27.4-.027-1.4-.054-2.871-.109-4.427a9.378,9.378,0,0,1,.273-2.624c1.077-4.332,5.135-7.355,9.575-9.606a82.282,82.282,0,0,1,7.857-3.333c1.105-.427.436-.062,1.623-.235Z" fill="#4c91db"/>
          <path id="Trazado_2963" data-name="Trazado 2963" d="M504.817,1122.53l-4.514.425-10.367.969S477.849,1006.1,478.916,1006.5a24.992,24.992,0,0,1,5.679,3.13,29.175,29.175,0,0,1,9.855,12.138,21.852,21.852,0,0,1,1.372,4.583,1.509,1.509,0,0,1,.042.183C497.666,1036.6,504.817,1122.53,504.817,1122.53Z" fill="#4c91db"/>
          <g id="Grupo_14556" data-name="Grupo 14556">
            <path id="Trazado_2964" data-name="Trazado 2964" d="M471.828,1029.983a1.364,1.364,0,1,1-1.478-1.25A1.374,1.374,0,0,1,471.828,1029.983Z" fill="#9995a7"/>
            <path id="Trazado_2965" data-name="Trazado 2965" d="M473.039,1043.817a1.364,1.364,0,1,1-1.479-1.251A1.373,1.373,0,0,1,473.039,1043.817Z" fill="#9995a7"/>
            <path id="Trazado_2966" data-name="Trazado 2966" d="M474.25,1057.65a1.364,1.364,0,1,1-1.479-1.251A1.374,1.374,0,0,1,474.25,1057.65Z" fill="#9995a7"/>
            <path id="Trazado_2967" data-name="Trazado 2967" d="M475.46,1071.484a1.364,1.364,0,1,1-1.478-1.251A1.373,1.373,0,0,1,475.46,1071.484Z" fill="#9995a7"/>
            <path id="Trazado_2968" data-name="Trazado 2968" d="M476.671,1085.317a1.364,1.364,0,1,1-1.479-1.251A1.373,1.373,0,0,1,476.671,1085.317Z" fill="#9995a7"/>
          </g>
          <path id="Trazado_2969" data-name="Trazado 2969" d="M461.68,1001.932l-1.137,8.034h-6.593l-.682-7.575Z" fill="#fff"/>
          <path id="Trazado_2970" data-name="Trazado 2970" d="M471.386,1001.87l2.514,6.89,6.479-.344-.853-7.4Z" fill="#fff"/>
          <path id="Trazado_2971" data-name="Trazado 2971" d="M447.585,967.959l1.121,5.5a1.85,1.85,0,0,0,2.59,1.321h0a1.861,1.861,0,0,0,1.03-1.287c.561-2.54,2.267-9.854,4.126-13.794,2.273-4.82,7.729-5.05,7.729-5.05l7.254,1.768a2.744,2.744,0,0,0,3.038-3.979l-.289-.543,9.333,2.174c2.022.471,3.289-1.529,2.667-3.528-.009-.029.006-.038.049-.024.368.124,5.381.248,9.913.336a2.755,2.755,0,0,0,1.776-4.88c-5.61-4.664-14.5-11.068-22.147-12.212-12.276-1.837-27.962,13.084-29.1,16.527S447.585,967.959,447.585,967.959Z" fill="#a36440"/>
          <path id="Trazado_2972" data-name="Trazado 2972" d="M472.8,973.021h0a.969.969,0,0,1-1.145-.753l-.469-2.246a.98.98,0,0,1,.747-1.156h0a.968.968,0,0,1,1.144.753l.469,2.246A.978.978,0,0,1,472.8,973.021Z" fill="#07113d"/>
          <path id="Trazado_2973" data-name="Trazado 2973" d="M489.451,969.635h0a.969.969,0,0,1-1.145-.753l-.468-2.246a.978.978,0,0,1,.746-1.156h0a.971.971,0,0,1,1.145.754l.468,2.246A.977.977,0,0,1,489.451,969.635Z" fill="#07113d"/>
          <path id="Trazado_2974" data-name="Trazado 2974" d="M447.919,1129.443c-2.851.3-2.344.647-5.782.592a1.957,1.957,0,0,1-.6-.137l-5.895-76.433c-.068-.579,3.017-5.188,2.956-5.739C440.923,1056.031,449.951,1129.223,447.919,1129.443Z" fill="#3d72b9"/>
          <g id="Grupo_14571" data-name="Grupo 14571">
            <g id="Grupo_14557" data-name="Grupo 14557">
              <path id="Trazado_2975" data-name="Trazado 2975" d="M444.593,1120.6l13.168,5.592a1.9,1.9,0,0,0,2.483-1.023h0a1.921,1.921,0,0,0-1.013-2.508l-13.168-5.592a1.9,1.9,0,0,0-2.484,1.023h0A1.929,1.929,0,0,0,444.593,1120.6Z" fill="#ffc7b0"/>
            </g>
            <g id="Grupo_14558" data-name="Grupo 14558">
              <path id="Trazado_2976" data-name="Trazado 2976" d="M490.178,1138.723l-36.893,31.66L431.1,1144.029l36.893-31.66Z" fill="#85807e"/>
              <path id="Trazado_2977" data-name="Trazado 2977" d="M490.265,1142.7l-40.728,26.436-18.523-29.093,40.728-26.436Z" fill="#fff"/>
            </g>
            <g id="Grupo_14563" data-name="Grupo 14563" opacity="0.51">
              <g id="Grupo_14559" data-name="Grupo 14559">
                <path id="Trazado_2978" data-name="Trazado 2978" d="M450.685,1138.286c.063-.157,7.4-7.621,6.311-9.367a42.782,42.782,0,0,0-6.806-8.278l-4.856-4.545s-6.149,6.9-6.482,7.248c-4.629,4.832,6,12.57,6,12.57S449.271,1141.791,450.685,1138.286Z" fill="#85807e"/>
              </g>
              <g id="Grupo_14560" data-name="Grupo 14560">
                <path id="Trazado_2979" data-name="Trazado 2979" d="M451.146,1128.7l10.908,10.809a2.1,2.1,0,0,0,3.064-.512h0a2.593,2.593,0,0,0,.167-3.382l-10.908-10.809a2.1,2.1,0,0,0-3.064.512h0A2.593,2.593,0,0,0,451.146,1128.7Z" fill="#85807e"/>
              </g>
              <g id="Grupo_14561" data-name="Grupo 14561">
                <path id="Trazado_2980" data-name="Trazado 2980" d="M450.321,1134.858l8.83,8.6a1.851,1.851,0,0,0,2.763-.172h0a2.282,2.282,0,0,0-.157-3.016l-8.831-8.6a1.849,1.849,0,0,0-2.763.172h0A2.282,2.282,0,0,0,450.321,1134.858Z" fill="#85807e"/>
              </g>
              <g id="Grupo_14562" data-name="Grupo 14562">
                <path id="Trazado_2981" data-name="Trazado 2981" d="M443,1134.48l10.452,10.175a1.849,1.849,0,0,0,2.763-.172h0a2.281,2.281,0,0,0-.158-3.015L445.6,1131.293a1.849,1.849,0,0,0-2.763.172h0A2.282,2.282,0,0,0,443,1134.48Z" fill="#85807e"/>
              </g>
            </g>
            <g id="Grupo_14568" data-name="Grupo 14568">
              <g id="Grupo_14564" data-name="Grupo 14564">
                <path id="Trazado_2982" data-name="Trazado 2982" d="M450.285,1136c.061-.141,7.171-6.835,6.117-8.4a39.164,39.164,0,0,0-6.6-7.424L445.1,1116.1s-5.96,6.188-6.283,6.5c-4.487,4.334,5.818,11.274,5.818,11.274S448.915,1139.14,450.285,1136Z" fill="#ffc7b0"/>
              </g>
              <g id="Grupo_14565" data-name="Grupo 14565">
                <path id="Trazado_2983" data-name="Trazado 2983" d="M450.645,1127.494l10.66,9.6a1.89,1.89,0,0,0,2.678-.155h0a1.935,1.935,0,0,0-.153-2.7l-10.66-9.6a1.89,1.89,0,0,0-2.678.154h0A1.934,1.934,0,0,0,450.645,1127.494Z" fill="#ffc7b0"/>
              </g>
              <g id="Grupo_14566" data-name="Grupo 14566">
                <path id="Trazado_2984" data-name="Trazado 2984" d="M449.932,1132.922l8.559,7.71a1.891,1.891,0,0,0,2.679-.154h0a1.935,1.935,0,0,0-.153-2.7l-8.559-7.71a1.89,1.89,0,0,0-2.678.154h0A1.934,1.934,0,0,0,449.932,1132.922Z" fill="#ffc7b0"/>
              </g>
              <g id="Grupo_14567" data-name="Grupo 14567">
                <path id="Trazado_2985" data-name="Trazado 2985" d="M442.835,1132.583l10.131,9.126a1.89,1.89,0,0,0,2.678-.154h0a1.934,1.934,0,0,0-.152-2.7l-10.131-9.126a1.89,1.89,0,0,0-2.678.154h0A1.934,1.934,0,0,0,442.835,1132.583Z" fill="#ffc7b0"/>
              </g>
            </g>
            <g id="Grupo_14569" data-name="Grupo 14569">
              <path id="Trazado_2986" data-name="Trazado 2986" d="M448.444,1116.128l-1.372-1.236-3.047-2.737-8.72,9.871-1.824,2.071.586.526,1.282,1.162,2.544,2.288.486-.552,6.145-6.96,2.489-2.813.181-.2Z" fill="#e6e6e6"/>
            </g>
            <g id="Grupo_14570" data-name="Grupo 14570">
              <path id="Trazado_2987" data-name="Trazado 2987" d="M445.937,1025.288l-6.789-8.213-1.138-.977c-.142.17-2.081,2.491-4.817,6.276-2.335,3.234-5.259,7.543-8.146,12.5-8.838,15.189-12.972,28.791-12.3,40.437,1.4,24.206,19.48,49.068,20.248,50.114l1.068-.8,1.967-1.47,8.1-6.062,1.14-.845,1.8-1.355,1.225-.914c-.145-.2-15.46-21.356-16.532-39.792-.814-14.05,5.747-28.7,12.808-38.054C445.581,1034.806,445.175,1026.193,445.937,1025.288Z" fill="#4c91db"/>
            </g>
          </g>
          <path id="Trazado_2988" data-name="Trazado 2988" d="M560.172,1008.262l3.454-1.2-8.632-24.891-2.658-2.331-.8,3.529Z" fill="#38c5fc"/>
          <path id="Trazado_2989" data-name="Trazado 2989" d="M601.6,1095.907l0-3.655-26.347-.011-3.075,1.747,3.072,1.909Z" fill="#ff4343"/>
          <rect id="Rectángulo_4884" data-name="Rectángulo 4884" width="4.042" height="8.089" rx="2.021" transform="translate(560.213 1002.177) rotate(-136.105)" fill="#ffc7b0"/>
          <rect id="Rectángulo_4885" data-name="Rectángulo 4885" width="4.044" height="8.088" rx="2.022" transform="matrix(-0.655, -0.756, 0.756, -0.655, 557.848, 998.888)" fill="#ffc7b0"/>
          <rect id="Rectángulo_4886" data-name="Rectángulo 4886" width="4.043" height="8.088" rx="2.022" transform="matrix(-0.811, -0.585, 0.585, -0.811, 557.61, 994.855)" fill="#ffc7b0"/>
        </g>
      </g>
      <g id="Grupo_14612" data-name="Grupo 14612">
        <path id="Trazado_2990" data-name="Trazado 2990" d="M897.35,987.1l-7.727,4.782a12.654,12.654,0,0,0-4.608,16.51,18.777,18.777,0,0,1,.891,1.832c-.292-.336,11.835-23.026,11.835-23.026" fill="#7c4b39"/>
        <rect id="Rectángulo_4887" data-name="Rectángulo 4887" width="17.335" height="32.13" rx="8.668" transform="translate(928.126 1061.007) rotate(180)" fill="#fcbba4"/>
        <path id="Trazado_2991" data-name="Trazado 2991" d="M886.043,1010.225c-.18,1.514,6.912,4.073,7,5.67l-1.154,3.2c8.708-3.157,1.026,1.655,1.026,1.667,2.586,7.673,1.687,11.919,9.075,14.839a27.122,27.122,0,0,0,11.927,1.823c5.648-.393,10.665,1.37,14.764-.584a8.575,8.575,0,0,0,2.407-1.7,27.6,27.6,0,0,0,3.813-4.742c.416-.68.822-1.359,1.191-2.074,2.228-4.3,6.786-16.932,6.417-22.115-1.025-14.633-15.044-24.427-31.178-23.319-.416.028-.822.035-1.239.059a27.243,27.243,0,0,0-20.709,11.94c-.239.357-.477.727-.7,1.1V996c-1.311,2.133-2.014,11.26-2.014,11.26A16.5,16.5,0,0,0,886.043,1010.225Z" fill="#7c4b39"/>
        <path id="Trazado_2992" data-name="Trazado 2992" d="M886.693,1014.908l.2,4.016.346,6.661.541,2.361c.048,1.049.579,6.563.77,7.564,1.835,9.426,8.024,11.427,17.628,12.619a6.9,6.9,0,0,0,.87.083,20.773,20.773,0,0,0,3.122.072,21.215,21.215,0,0,0,3.014-.369,21.779,21.779,0,0,0,5.469-1.764.035.035,0,0,0,.024-.012,22.541,22.541,0,0,0,10-9.294,21.79,21.79,0,0,0,2.859-10.152c.012-.251.012-.5.012-.763a7.95,7.95,0,0,0-.023-.905v-.155l-.024-.727-.108-1.895-.321-6.542-.012-.059v-.012l-.06-1.215-.047-.942-.048-.869-.012-.227a17.744,17.744,0,0,0-.846-4.361,20.963,20.963,0,0,0-1.073-2.86c-.059-.143-.107-.274-.178-.417a19.52,19.52,0,0,0-1.156-2.2v-.012a22.384,22.384,0,0,0-6.363-6.84c-.513-.369-1.048-.715-1.585-1.036a22.911,22.911,0,0,0-12.785-3.134,19.922,19.922,0,0,0-9.824,3.229,22.553,22.553,0,0,0-5.052,4.135,21.561,21.561,0,0,0-4.445,7.876c-.06.167-.107.333-.155.5a16.583,16.583,0,0,0-.619,2.967A27.647,27.647,0,0,0,886.693,1014.908Z" fill="#fcbba4"/>
        <path id="Trazado_2993" data-name="Trazado 2993" d="M894.8,995c-4.712,12.981,7.692,11.923,8.269,17.885a56.092,56.092,0,0,1,.481,6.538l.948,3.054a2.238,2.238,0,0,0,4.385-.631v-.059l-.108-4.862,2.419,6.411a36.746,36.746,0,0,0,17.361,19.613s15.133-9,15.134-29.539a45.217,45.217,0,0,0-.3-5.112,34.464,34.464,0,0,0-.811-4.48c-6.267-25.524-37.63-16.814-40.644-15.681C898.768,989.325,894.8,995,894.8,995Z" fill="#7c4b39"/>
        <path id="Trazado_2994" data-name="Trazado 2994" d="M884.024,1028.665c0,.042.005.337.005.337.041,1.4,1.257,2.519,4.269,2.432l-.422-10.961C885.431,1024.2,884.245,1026.369,884.024,1028.665Z" fill="#fcbba4"/>
        <path id="Trazado_2995" data-name="Trazado 2995" d="M885.662,1015.4h6.7a1.42,1.42,0,0,0,1.415-1.415h0a1.419,1.419,0,0,0-1.415-1.415h-6.7a1.419,1.419,0,0,0-1.415,1.415h0A1.419,1.419,0,0,0,885.662,1015.4Z" fill="#7c4b39"/>
        <path id="Trazado_2996" data-name="Trazado 2996" d="M889.429,1020.444h0a1.014,1.014,0,0,0,1.01-1.011v-1.488a1.014,1.014,0,0,0-1.01-1.011h0a1.013,1.013,0,0,0-1.011,1.011v1.488A1.013,1.013,0,0,0,889.429,1020.444Z" fill="#081344"/>
        <path id="Trazado_2997" data-name="Trazado 2997" d="M918.918,1035.665a36.819,36.819,0,0,0,9.639,7.281s15.133-9,15.134-29.539a45.217,45.217,0,0,0-.3-5.112,34.464,34.464,0,0,0-.811-4.48c-.667,3.908-2.431,9.83-6.935,17.146C928.8,1032.091,921.36,1034.986,918.918,1035.665Z" fill="#081344" opacity="0.2"/>
        <path id="Trazado_2998" data-name="Trazado 2998" d="M888.352,1034.828l.2,7.67c0,6.538,7.744,9.166,13.492,8.545l9.161-.991-.922-7.939-2.5-15.192,4.038-11.347-8.317,3.453v.013c.628,9.015-5.832,16.3-14.859,15.886Z" fill="#7c4b39"/>
        <path id="Trazado_2999" data-name="Trazado 2999" d="M909.435,1015.291a1.676,1.676,0,0,0-1.666,1.687l.039,5.708.04,4.986,1.96-.012a3.241,3.241,0,0,0,.422-.026,6.43,6.43,0,0,0,5.848-6.39,5.918,5.918,0,0,0-1.879-4.271,6.074,6.074,0,0,0-3.954-1.66h-.009a2.41,2.41,0,0,0-.509-.022Z" fill="#fcbba4"/>
        <path id="Trazado_3000" data-name="Trazado 3000" d="M725.987,1122.809s0,.29-.016.831A5.315,5.315,0,0,1,725.987,1122.809Z" fill="#0c0f39" opacity="0.62"/>
        <path id="Trazado_3001" data-name="Trazado 3001" d="M725.987,1122.809s0,.29-.016.831A5.315,5.315,0,0,1,725.987,1122.809Z" fill="#0c0f39" opacity="0.16" style="mix-blend-mode: multiply;isolation: isolate"/>
        <line id="Línea_706" data-name="Línea 706" y2="3.444" transform="translate(965.08 1256.178)" fill="#394679"/>
        <rect id="Rectángulo_4888" data-name="Rectángulo 4888" width="45.117" height="8.979" transform="translate(871.546 1172.421)" fill="#0a194d"/>
        <rect id="Rectángulo_4889" data-name="Rectángulo 4889" width="10.146" height="133.055" transform="translate(880.378 1274.94) rotate(180)" fill="#9396ac"/>
        <rect id="Rectángulo_4890" data-name="Rectángulo 4890" width="10.146" height="135.791" transform="translate(918.159 1277.677) rotate(180)" fill="#b1aec1"/>
        <rect id="Rectángulo_4891" data-name="Rectángulo 4891" width="42.845" height="8.979" transform="translate(677.105 1173.18)" fill="#9396ac"/>
        <rect id="Rectángulo_4892" data-name="Rectángulo 4892" width="10.146" height="133.055" transform="translate(686.36 1275.005) rotate(180)" fill="#9396ac"/>
        <rect id="Rectángulo_4893" data-name="Rectángulo 4893" width="10.146" height="135.791" transform="translate(723.261 1277.677) rotate(180)" fill="#b1aec1"/>
        <path id="Rectángulo_4894" data-name="Rectángulo 4894" d="M0,0H86.141a0,0,0,0,1,0,0V5.277a6.047,6.047,0,0,1-6.047,6.047H6.047A6.047,6.047,0,0,1,0,5.277V0A0,0,0,0,1,0,0Z" transform="translate(749.845 1142.546) rotate(180)" fill="#bf9645"/>
        <g id="Grupo_14574" data-name="Grupo 14574">
          <path id="Trazado_3002" data-name="Trazado 3002" d="M930.08,1135.229v7.318H704.951v-7.318a4.007,4.007,0,0,1,4.011-4.005H926.069A4.007,4.007,0,0,1,930.08,1135.229Z" fill="#ddba6e"/>
          <path id="Trazado_3003" data-name="Trazado 3003" d="M901.188,1131.224v11.323h-76.57c-1.346-2.95-3.52-7.769-5.065-11.323Z" fill="#bf9645"/>
        </g>
        <g id="Grupo_14586" data-name="Grupo 14586">
          <path id="Trazado_3004" data-name="Trazado 3004" d="M832.8,1131.609H775.171a5.05,5.05,0,0,1-.727-1.542l-12.894-46.545a3.478,3.478,0,0,1,3.352-4.413h50.7a3.487,3.487,0,0,1,3.352,2.55Z" fill="#ddd"/>
          <path id="Trazado_3005" data-name="Trazado 3005" d="M781.476,1132.028h54.069L821.128,1080a3.476,3.476,0,0,0-3.349-2.546H767.122a3.477,3.477,0,0,0-3.35,4.407l12.885,46.5A5,5,0,0,0,781.476,1132.028Z" fill="#2d2d3a"/>
          <path id="Trazado_3006" data-name="Trazado 3006" d="M766.62,1083.909l10.529,37.917,2.21,7.942H833l-2.2-7.942-11.014-39.642a3.219,3.219,0,0,0-3.1-2.356H769.725A3.221,3.221,0,0,0,766.62,1083.909Z" fill="#2f558c"/>
          <g id="Grupo_14581" data-name="Grupo 14581">
            <g id="Grupo_14575" data-name="Grupo 14575">
              <path id="Trazado_3007" data-name="Trazado 3007" d="M798.218,1084.986h16.51l-.368-1.161h-16.51Z" fill="#eceef0"/>
              <path id="Trazado_3008" data-name="Trazado 3008" d="M783.242,1084.986h7.817l-.368-1.161h-7.817Z" fill="#ea5444"/>
              <path id="Trazado_3009" data-name="Trazado 3009" d="M771.956,1084.986h7.817l-.368-1.161h-7.817Z" fill="#a29fb0"/>
              <path id="Trazado_3010" data-name="Trazado 3010" d="M780.7,1084.986h1.849l-.368-1.161H780.33Z" fill="#6e89c4"/>
              <path id="Trazado_3011" data-name="Trazado 3011" d="M791.965,1084.986h5.48l-.368-1.161H791.6Z" fill="#a29fb0"/>
            </g>
            <g id="Grupo_14576" data-name="Grupo 14576">
              <path id="Trazado_3012" data-name="Trazado 3012" d="M786.476,1104.8h-7.817l-.368-1.161h7.817Z" fill="#ddd"/>
              <path id="Trazado_3013" data-name="Trazado 3013" d="M797.762,1104.8h-7.817l-.368-1.161h7.817Z" fill="#ffc543"/>
              <path id="Trazado_3014" data-name="Trazado 3014" d="M789.021,1104.8h-1.849l-.368-1.161h1.849Z" fill="#6e89c4"/>
            </g>
            <g id="Grupo_14577" data-name="Grupo 14577">
              <path id="Trazado_3015" data-name="Trazado 3015" d="M810.106,1089.938H816.3l-.368-1.161h-6.191Z" fill="#ea5444"/>
              <path id="Trazado_3016" data-name="Trazado 3016" d="M795.13,1089.938h2.658l-.368-1.161h-2.658Z" fill="#6e89c4"/>
              <path id="Trazado_3017" data-name="Trazado 3017" d="M773.524,1089.938H786.5l-.368-1.161H773.157Z" fill="#ea5444"/>
              <path id="Trazado_3018" data-name="Trazado 3018" d="M787.425,1089.938h7.009l-.368-1.161h-7.009Z" fill="#6e89c4"/>
              <path id="Trazado_3019" data-name="Trazado 3019" d="M798.693,1089.938h10.639l-.368-1.161H798.325Z" fill="#6e89c4"/>
            </g>
            <g id="Grupo_14578" data-name="Grupo 14578">
              <path id="Trazado_3020" data-name="Trazado 3020" d="M782.314,1119.654h6.191l-.368-1.161h-6.191Z" fill="#313d6e"/>
            </g>
            <g id="Grupo_14579" data-name="Grupo 14579">
              <path id="Trazado_3021" data-name="Trazado 3021" d="M811.674,1094.891h6.191l-.368-1.161h-6.191Z" fill="#ddd"/>
              <path id="Trazado_3022" data-name="Trazado 3022" d="M801.569,1094.891h6.191l-.368-1.161H801.2Z" fill="#ddd"/>
              <path id="Trazado_3023" data-name="Trazado 3023" d="M776.811,1094.891H787.45l-.368-1.161H776.443Z" fill="#6e89c4"/>
            </g>
            <g id="Grupo_14580" data-name="Grupo 14580">
              <path id="Trazado_3024" data-name="Trazado 3024" d="M788.378,1099.844H777.739l-.368-1.161H788.01Z" fill="#6e89c4"/>
            </g>
          </g>
          <path id="Trazado_3025" data-name="Trazado 3025" d="M777.149,1121.826l2.209,7.942H833l-2.2-7.942Z" fill="#2d2d3a"/>
          <g id="Grupo_14582" data-name="Grupo 14582">
            <path id="Trazado_3026" data-name="Trazado 3026" d="M806.062,1132.151h65.87a2.808,2.808,0,0,0,2.8-2.8h0a2.808,2.808,0,0,0-2.8-2.8h-65.87a2.808,2.808,0,0,0-2.8,2.8h0A2.808,2.808,0,0,0,806.062,1132.151Z" fill="#85818e"/>
          </g>
          <path id="Trazado_3027" data-name="Trazado 3027" d="M773.142,1077.453l33.908,48.969h20.714l-33.908-48.969Z" fill="#c5cbed" opacity="0.55" style="mix-blend-mode: overlay;isolation: isolate"/>
          <g id="Grupo_14585" data-name="Grupo 14585">
            <g id="Grupo_14583" data-name="Grupo 14583">
              <path id="Trazado_3028" data-name="Trazado 3028" d="M781.16,1132.116h39.068a2.877,2.877,0,0,0,2.869-2.868h0a2.877,2.877,0,0,0-2.869-2.869H781.16a2.877,2.877,0,0,0-2.869,2.869h0A2.877,2.877,0,0,0,781.16,1132.116Z" fill="#ddd"/>
            </g>
            <g id="Grupo_14584" data-name="Grupo 14584">
              <rect id="Rectángulo_4895" data-name="Rectángulo 4895" width="5.445" height="1.633" transform="translate(800.236 1129.868) rotate(180)" fill="#081344"/>
              <rect id="Rectángulo_4896" data-name="Rectángulo 4896" width="3.947" height="1.633" transform="translate(805.817 1129.868) rotate(180)" fill="#081344"/>
            </g>
          </g>
        </g>
        <g id="Grupo_14590" data-name="Grupo 14590">
          <g id="Grupo_14588" data-name="Grupo 14588">
            <path id="Trazado_3029" data-name="Trazado 3029" d="M747.827,1116.889V1131.8H735.374v-14.907a1.192,1.192,0,0,1,1.19-1.191h10.072A1.193,1.193,0,0,1,747.827,1116.889Z" fill="#f14747"/>
            <g id="Grupo_14587" data-name="Grupo 14587">
              <path id="Trazado_3030" data-name="Trazado 3030" d="M735.527,1129.245c-.163-.093-3.985-2.332-4.326-6.254a3.591,3.591,0,0,1,.933-2.936,5.458,5.458,0,0,1,3.9-1.318l-.1,1.82a3.689,3.689,0,0,0-2.491.77,1.822,1.822,0,0,0-.424,1.506c.26,2.984,3.387,4.814,3.419,4.832Z" fill="#f14747"/>
            </g>
          </g>
          <path id="Trazado_3031" data-name="Trazado 3031" d="M742.007,1131.8h-6.633v-14.907a1.192,1.192,0,0,1,1.19-1.191h.4c.018.778.231,6.725,1.9,11.008C740.318,1130.435,741.612,1131.535,742.007,1131.8Z" fill="#f14747"/>
          <g id="Grupo_14589" data-name="Grupo 14589">
            <path id="Trazado_3032" data-name="Trazado 3032" d="M731.2,1122.988c.3,3.53,3.432,5.7,4.173,6.16v2.649h6.634c-.4-.261-1.689-1.361-3.141-5.091-1.67-4.282-1.883-10.23-1.9-11.007h-.4a1.193,1.193,0,0,0-1.191,1.19v1.853a5.054,5.054,0,0,0-3.237,1.312A3.6,3.6,0,0,0,731.2,1122.988Zm2.242-1.664a3.227,3.227,0,0,1,1.931-.747v6.3a6.3,6.3,0,0,1-2.357-4.051A1.826,1.826,0,0,1,733.442,1121.324Z" fill="#6c1a48" opacity="0.37"/>
          </g>
        </g>
        <g id="Grupo_14611" data-name="Grupo 14611">
          <g id="Grupo_14610" data-name="Grupo 14610">
            <g id="Grupo_14591" data-name="Grupo 14591">
              <path id="Trazado_3033" data-name="Trazado 3033" d="M896.844,1275l-32.7-.677a3.532,3.532,0,0,1-3.458-3.6h0a3.533,3.533,0,0,1,2.437-3.285l16.3-5.308,17.675.8Z" fill="#884c2e"/>
              <path id="Trazado_3034" data-name="Trazado 3034" d="M863.47,1275.222l33.1.931.067-2.372-35.47-1h0A2.374,2.374,0,0,0,863.47,1275.222Z" fill="#0a194d"/>
            </g>
            <g id="Grupo_14592" data-name="Grupo 14592">
              <line id="Línea_707" data-name="Línea 707" x1="3.724" y1="4.212" transform="translate(875.96 1262.71)" fill="none" stroke="#0a194d" stroke-linecap="round" stroke-miterlimit="10" stroke-width="1.185"/>
              <line id="Línea_708" data-name="Línea 708" x1="3.724" y1="4.212" transform="translate(873.114 1263.818)" fill="none" stroke="#0a194d" stroke-linecap="round" stroke-miterlimit="10" stroke-width="1.185"/>
              <line id="Línea_709" data-name="Línea 709" x1="4.191" y1="4.775" transform="translate(869.908 1264.767)" fill="none" stroke="#0a194d" stroke-linecap="round" stroke-miterlimit="10" stroke-width="1.185"/>
            </g>
            <g id="Grupo_14593" data-name="Grupo 14593">
              <path id="Trazado_3035" data-name="Trazado 3035" d="M898.37,1263.718c-1.9-31.9-1.385-61.4,1.1-67.372,2.549-3.709,22.417-11.748,42.275-12.615l-9.293-20.287c-26.046,1.309-44.663,11.081-51.175,22.25-2.749,4.715-5.137,14.223-3.849,46.754.674,17.038,1.506,30.386,1.506,30.386Z" fill="#0a0a2c"/>
            </g>
            <g id="Grupo_14594" data-name="Grupo 14594">
              <path id="Trazado_3036" data-name="Trazado 3036" d="M868.12,1275.257l-32.706.245a3.53,3.53,0,0,1-3.558-3.5h0a3.534,3.534,0,0,1,2.343-3.353l16.14-5.766,17.69.3Z" fill="#a36440"/>
              <path id="Trazado_3037" data-name="Trazado 3037" d="M834.765,1276.416l33.11,0v-2.372l-35.483,0h0A2.374,2.374,0,0,0,834.765,1276.416Z" fill="#0a194d"/>
            </g>
            <g id="Grupo_14595" data-name="Grupo 14595">
              <line id="Línea_710" data-name="Línea 710" x1="3.841" y1="4.105" transform="translate(846.898 1263.557)" fill="none" stroke="#0a194d" stroke-linecap="round" stroke-miterlimit="10" stroke-width="1.185"/>
              <line id="Línea_711" data-name="Línea 711" x1="3.841" y1="4.105" transform="translate(844.084 1264.744)" fill="none" stroke="#0a194d" stroke-linecap="round" stroke-miterlimit="10" stroke-width="1.185"/>
              <line id="Línea_712" data-name="Línea 712" x1="4.324" y1="4.654" transform="translate(840.907 1265.784)" fill="none" stroke="#0a194d" stroke-linecap="round" stroke-miterlimit="10" stroke-width="1.185"/>
            </g>
            <g id="Grupo_14596" data-name="Grupo 14596">
              <path id="Trazado_3038" data-name="Trazado 3038" d="M869.314,1263.718c-1.9-31.9-1.385-61.4,1.1-67.372,2.549-3.709,22.417-11.748,42.275-12.615l-9.293-20.287c-26.046,1.309-44.664,11.081-51.175,22.25-2.75,4.715-5.137,14.223-3.849,46.754.674,17.038,1.506,30.386,1.506,30.386Z" fill="#25253a"/>
            </g>
            <path id="Trazado_3039" data-name="Trazado 3039" d="M897.3,1169.281a14.773,14.773,0,0,0,14.771,14.764H936.9a14.078,14.078,0,0,0,2.168-.165,14.4,14.4,0,0,0,5.073-1.736c.275-.149.542-.314.8-.487a14.746,14.746,0,0,0,6.722-12.376l-.455-7.877-53.472-.463Z" fill="#25253a"/>
            <g id="Grupo_14599" data-name="Grupo 14599">
              <g id="Grupo_14598" data-name="Grupo 14598">
                <g id="Grupo_14597" data-name="Grupo 14597">
                  <path id="Trazado_3040" data-name="Trazado 3040" d="M880.249,1127.212l-12.8-2.045a1.726,1.726,0,0,1-1.427-1.971h0a1.725,1.725,0,0,1,1.97-1.427l12.795,2.045a1.724,1.724,0,0,1,1.427,1.971h0A1.725,1.725,0,0,1,880.249,1127.212Z" fill="#ffc7b0"/>
                  <path id="Trazado_3041" data-name="Trazado 3041" d="M876.175,1130.671l-10.274-1.642a1.725,1.725,0,0,1-1.427-1.97h0a1.726,1.726,0,0,1,1.971-1.428l10.273,1.642a1.726,1.726,0,0,1,1.427,1.971h0A1.725,1.725,0,0,1,876.175,1130.671Z" fill="#ffc7b0"/>
                  <path id="Trazado_3042" data-name="Trazado 3042" d="M878.55,1135.158l-12.16-1.944a1.726,1.726,0,0,1-1.427-1.971h0a1.725,1.725,0,0,1,1.97-1.427l12.16,1.944a1.725,1.725,0,0,1,1.428,1.97h0A1.726,1.726,0,0,1,878.55,1135.158Z" fill="#ffc7b0"/>
                </g>
                <path id="Trazado_3043" data-name="Trazado 3043" d="M874.726,1123.9c.137.016,1.707-.006,3.407-.034a18.5,18.5,0,0,1,8.478,1.9l5.047,2.482s-2.89,8.576-3.289,8.648c-9.729,1.759-13.067-2.658-13.067-2.658Z" fill="#ffc7b0"/>
              </g>
              <rect id="Rectángulo_4897" data-name="Rectángulo 4897" width="4.319" height="14.037" transform="translate(886.578 1137.907) rotate(180)" fill="#fff"/>
            </g>
            <g id="Grupo_14600" data-name="Grupo 14600">
              <path id="Trazado_3044" data-name="Trazado 3044" d="M914.881,1139.43a26.228,26.228,0,0,0,23.772-15.2l.211-.457,13.329-40.7-16.419-5.377-12.989,39.664a8.927,8.927,0,0,1-7.991,4.795l-28.314-.28-.171,17.276,28.313.28Z" fill="#49a352"/>
            </g>
            <g id="Grupo_14602" data-name="Grupo 14602">
              <g id="Grupo_14601" data-name="Grupo 14601">
                <path id="Trazado_3045" data-name="Trazado 3045" d="M822.719,1121.433a10.73,10.73,0,0,1,4.589-4.388l.046-.022a18.512,18.512,0,0,1,8.484-1.874l5.623.109s1.13,13.33,1.057,12.932c-.146-.792-5.414-1.584-19.685-1.584a1.749,1.749,0,0,1-1.558-2.6Z" fill="#ffc7b0"/>
              </g>
              <rect id="Rectángulo_4898" data-name="Rectángulo 4898" width="5.366" height="14.378" transform="translate(844.422 1129.27) rotate(180)" fill="#fff"/>
            </g>
            <path id="Trazado_3046" data-name="Trazado 3046" d="M953.435,1173.6s-5.535.61-13.02.928c-1.359.066-2.791.113-4.256.146-8.645.219-18.768-.073-25.961-1.936a69.969,69.969,0,0,1-10.157-3.394c-1.014-.444-1.882-.862-2.632-1.26a15.894,15.894,0,0,1-3.944-2.658.122.122,0,0,0-.013-.02l-.411-46.174-.312-36.264a25.882,25.882,0,0,1,25.882-25.881h8.751a26.394,26.394,0,0,1,4.494.385,25.53,25.53,0,0,1,4.389,1.18c.007,0,.007.006.013.006a25.906,25.906,0,0,1,16.985,24.31Z" fill="#61da6d"/>
            <path id="Trazado_3047" data-name="Trazado 3047" d="M953.435,1173.6s-5.535.61-13.02.928c-1.359.066-2.791.113-4.256.146-4.614.119-9.659.086-14.446-.252l-.212-97.6a29.2,29.2,0,0,0-7.3-19.358,25.418,25.418,0,0,1,4.409-.378h8.751a26.394,26.394,0,0,1,4.494.385,25.53,25.53,0,0,1,4.389,1.18c.007,0,.007.006.013.006a25.906,25.906,0,0,1,16.985,24.31Z" fill="#49a352" opacity="0.33"/>
            <g id="Grupo_14608" data-name="Grupo 14608">
              <g id="Grupo_14603" data-name="Grupo 14603">
                <rect id="Rectángulo_4899" data-name="Rectángulo 4899" width="8.737" height="48.574" transform="translate(924.361 1201.969)" fill="#394679"/>
                <path id="Trazado_3048" data-name="Trazado 3048" d="M924.361,1204.8v10.977l8.737-3.186v-7.432C930.912,1205.058,926.7,1204.893,924.361,1204.8Z" fill="#0a194d"/>
              </g>
              <rect id="Rectángulo_4900" data-name="Rectángulo 4900" width="46.847" height="7.36" rx="3.68" transform="translate(951.431 1205.896) rotate(-180)" fill="#394679"/>
              <g id="Grupo_14605" data-name="Grupo 14605">
                <g id="Grupo_14604" data-name="Grupo 14604">
                  <path id="Trazado_3049" data-name="Trazado 3049" d="M892.05,1268.481h5.465c0-6.155,5.313-11.162,11.842-11.162h39.82c6.53,0,11.842,5.007,11.842,11.162h5.465c0-8.995-7.764-16.314-17.307-16.314h-39.82C899.814,1252.167,892.05,1259.486,892.05,1268.481Z" fill="#0a194d"/>
                </g>
                <rect id="Rectángulo_4901" data-name="Rectángulo 4901" width="12.753" height="10.642" transform="translate(935.164 1253.337) rotate(180)" fill="#0a194d"/>
              </g>
              <g id="Grupo_14606" data-name="Grupo 14606">
                <path id="Trazado_3050" data-name="Trazado 3050" d="M959.42,1273.463a4.548,4.548,0,1,0,4.54-4.28A4.416,4.416,0,0,0,959.42,1273.463Z" fill="#0a194d"/>
                <path id="Rectángulo_4902" data-name="Rectángulo 4902" d="M0,0H12.425a0,0,0,0,1,0,0V.719A6.212,6.212,0,0,1,6.212,6.932h0A6.212,6.212,0,0,1,0,.719V0A0,0,0,0,1,0,0Z" transform="translate(969.838 1273.085) rotate(180)" fill="#394679"/>
                <path id="Trazado_3051" data-name="Trazado 3051" d="M889.986,1273.463a4.548,4.548,0,1,0,4.54-4.28A4.416,4.416,0,0,0,889.986,1273.463Z" fill="#0a194d"/>
                <path id="Rectángulo_4903" data-name="Rectángulo 4903" d="M0,0H12.425a0,0,0,0,1,0,0V.719A6.212,6.212,0,0,1,6.212,6.932h0A6.212,6.212,0,0,1,0,.719V0A0,0,0,0,1,0,0Z" transform="translate(900.404 1273.085) rotate(180)" fill="#394679"/>
              </g>
              <rect id="Rectángulo_4904" data-name="Rectángulo 4904" width="7.234" height="15.455" transform="translate(932.497 1269.217) rotate(180)" fill="#0a194d"/>
              <g id="Grupo_14607" data-name="Grupo 14607">
                <path id="Trazado_3052" data-name="Trazado 3052" d="M924.187,1273.463a4.548,4.548,0,1,0,4.54-4.28A4.416,4.416,0,0,0,924.187,1273.463Z" fill="#0a194d"/>
                <path id="Rectángulo_4905" data-name="Rectángulo 4905" d="M0,0H12.425a0,0,0,0,1,0,0V.719A6.212,6.212,0,0,1,6.212,6.932h0A6.212,6.212,0,0,1,0,.719V0A0,0,0,0,1,0,0Z" transform="translate(934.605 1273.085) rotate(180)" fill="#394679"/>
              </g>
            </g>
            <path id="Trazado_3053" data-name="Trazado 3053" d="M998.294,1107.6l-11.7,84.462a10.637,10.637,0,0,1-10.206,9.173l-26.649.49,16.275-106.2,21.726-.017A10.637,10.637,0,0,1,998.294,1107.6Z" fill="#6c1a48"/>
            <rect id="Rectángulo_4906" data-name="Rectángulo 4906" width="86.7" height="18.402" rx="9.201" transform="translate(960.766 1201.726) rotate(-180)" fill="#f14747"/>
            <rect id="Rectángulo_4907" data-name="Rectángulo 4907" width="26.7" height="7.46" transform="translate(909.495 1051.195)" fill="#fff"/>
            <path id="Trazado_3054" data-name="Trazado 3054" d="M961.876,1190.1l12.4-86.619a7.188,7.188,0,0,0-6.439-7.963h0a7.466,7.466,0,0,0-8.448,6.069l-12.4,86.619a7.189,7.189,0,0,0,6.439,7.963h0C957.522,1196.693,959.64,1199.587,961.876,1190.1Z" fill="#f14747"/>
            <path id="Trazado_3055" data-name="Trazado 3055" d="M909.588,1083.333c-1.014,4.4-7.074,31.7-9.865,44.272h0l.319,41.74c-1.014-.444-1.882-.862-2.632-1.26a15.894,15.894,0,0,1-3.944-2.658.122.122,0,0,0-.013-.02l-.411-46.174C894.242,1117.6,910.914,1077.585,909.588,1083.333Z" fill="#49a352" opacity="0.48"/>
            <g id="Grupo_14609" data-name="Grupo 14609">
              <path id="Trazado_3056" data-name="Trazado 3056" d="M870.905,1131.577a26.229,26.229,0,0,0,23.771-15.2l19.193-41.532-15.683-7.247-19.193,41.532a8.875,8.875,0,0,1-8.176,5.171l-28.314-.28-.171,17.276,28.314.28Z" fill="#61da6d"/>
            </g>
          </g>
        </g>
      </g>
      <g id="Grupo_14613" data-name="Grupo 14613">
        <rect id="Rectángulo_4908" data-name="Rectángulo 4908" width="16.35" height="16.35" transform="translate(810.777 940.737)" fill="#5d5d5d" opacity="0.27" style="mix-blend-mode: multiply;isolation: isolate"/>
        <rect id="Rectángulo_4909" data-name="Rectángulo 4909" width="16.35" height="16.35" transform="translate(811.758 939.429)" fill="#ffa21a"/>
      </g>
      <g id="Grupo_14614" data-name="Grupo 14614">
        <rect id="Rectángulo_4910" data-name="Rectángulo 4910" width="16.35" height="16.35" transform="matrix(0.998, -0.055, 0.055, 0.998, 830.859, 941.634)" fill="#5d5d5d" opacity="0.27" style="mix-blend-mode: multiply;isolation: isolate"/>
        <rect id="Rectángulo_4911" data-name="Rectángulo 4911" width="16.35" height="16.35" transform="translate(831.84 940.326) rotate(-3.148)" fill="#64dbff"/>
      </g>
      <g id="Grupo_14615" data-name="Grupo 14615">
        <rect id="Rectángulo_4912" data-name="Rectángulo 4912" width="16.35" height="16.351" transform="matrix(0.176, -0.984, 0.984, 0.176, 809.379, 963.817)" fill="#5d5d5d" opacity="0.27" style="mix-blend-mode: multiply;isolation: isolate"/>
        <rect id="Rectángulo_4913" data-name="Rectángulo 4913" width="16.35" height="16.351" transform="matrix(0.176, -0.984, 0.984, 0.176, 810.36, 962.509)" fill="#ffe527"/>
      </g>
      <path id="Trazado_3057" data-name="Trazado 3057" d="M845.635,944.265c-1.2.062-2.168.76-3.354.884a36.2,36.2,0,0,1-3.712-.024c-1.179,0-3.089-.464-3.813.75a.646.646,0,0,0,1.114.651c.335-.563,4.418-.114,4.976-.1a9.66,9.66,0,0,0,2.075-.061,18.6,18.6,0,0,1,2.714-.806C846.461,945.513,846.466,944.222,845.635,944.265Z" fill="#695c70"/>
      <path id="Trazado_3058" data-name="Trazado 3058" d="M843.7,947.491c-2.033.039-4.292.05-6.131.948-.746.364-.093,1.477.651,1.114,1.578-.77,3.734-.738,5.48-.772A.645.645,0,0,0,843.7,947.491Z" fill="#695c70"/>
      <path id="Trazado_3059" data-name="Trazado 3059" d="M826.237,952.46a19.835,19.835,0,0,0-4.355-.865,26.933,26.933,0,0,1-5.752-1.286c-.773-.3-1.108.944-.343,1.245a22.4,22.4,0,0,0,4.871,1.251,22.82,22.82,0,0,1,5.236.9C826.663,954.017,827,952.77,826.237,952.46Z" fill="#695c70"/>
      <path id="Trazado_3060" data-name="Trazado 3060" d="M825.636,955.447c-1.7-.015-3.137-.87-4.769-1.08a14.506,14.506,0,0,1-2.694-.4,7.574,7.574,0,0,0-2.215-.453c-.83-.027-.829,1.263,0,1.29a13.523,13.523,0,0,1,2.723.689c.83.194,1.709.036,2.533.244a18.244,18.244,0,0,0,4.422,1A.646.646,0,0,0,825.636,955.447Z" fill="#695c70"/>
      <path id="Trazado_3061" data-name="Trazado 3061" d="M820.071,957.142a2.646,2.646,0,0,0-1.93-.468c-.873.049-1.737.064-2.613.064a.645.645,0,0,0,0,1.29c.666,0,1.337.026,2-.016.416-.026,1.271-.244,1.629.042C819.8,958.567,820.72,957.66,820.071,957.142Z" fill="#695c70"/>
      <path id="Trazado_3062" data-name="Trazado 3062" d="M825.013,943.663c.025-.12-8.488-.258-9.055-.258a.645.645,0,0,0,0,1.29c1.877,0,3.767-.068,5.641.005a18.121,18.121,0,0,0,4.171-.065.625.625,0,0,0,.451-.45c.012-.06.024-.119.037-.179C826.425,943.2,825.181,942.849,825.013,943.663Z" fill="#695c70"/>
    </g>
  </g>
</svg>
