<svg xmlns="http://www.w3.org/2000/svg" width="105.476" height="109.763" viewBox="0 0 105.476 109.763">
  <g id="Grupo_13661" data-name="Grupo 13661" transform="translate(-189.286 -1312.507)">
    <path id="Trazado_2281" data-name="Trazado 2281" d="M248.2,1314.115H195.214a4.32,4.32,0,0,0-4.32,4.32v97.907a4.319,4.319,0,0,0,4.32,4.319h70.774a4.319,4.319,0,0,0,4.32-4.319v-80.114Zm0,0" fill="#f2f2f2"/>
    <path id="Trazado_2282" data-name="Trazado 2282" d="M252.691,1318.611v23.363a2.23,2.23,0,0,0,2.23,2.23h3.872v72.137a4.32,4.32,0,0,1-4.32,4.32h11.515a4.32,4.32,0,0,0,4.32-4.32v-80.113Zm0,0" fill="#cdd6df"/>
    <path id="Trazado_2283" data-name="Trazado 2283" d="M231.251,1400.185H222a2.4,2.4,0,0,1-2.4-2.4v-7.528a2.4,2.4,0,0,1,2.4-2.4h9.251Zm0,0" fill="#fd715c"/>
    <path id="Trazado_2284" data-name="Trazado 2284" d="M248.2,1334v-19.882l22.113,22.113H250.426A2.231,2.231,0,0,1,248.2,1334Zm0,0" fill="#b3b3b3"/>
    <path id="Trazado_2285" data-name="Trazado 2285" d="M242.159,1420.389l-.461.123a4.371,4.371,0,0,1-5.351-3.093l-5-18.691,8.9-2.381,5,18.691a4.37,4.37,0,0,1-3.093,5.351Zm0,0" fill="#426175"/>
    <path id="Trazado_2286" data-name="Trazado 2286" d="M245.346,1403.994H230.377a3.879,3.879,0,0,1-3.878-3.879v-12.181a3.878,3.878,0,0,1,3.878-3.878h14.969Zm0,0" fill="#fed066"/>
    <path id="Trazado_2287" data-name="Trazado 2287" d="M286.065,1401.114h-8.379v-14.179h8.379a7.089,7.089,0,0,1,0,14.179Zm0,0" fill="#cdd6df"/>
    <path id="Trazado_2288" data-name="Trazado 2288" d="M280.973,1420.462l-35.627-16.468v-19.938l35.627-16.468a1.848,1.848,0,0,1,2.679,1.65v49.573a1.849,1.849,0,0,1-2.679,1.651Zm0,0" fill="#fd715c"/>
    <path id="Trazado_2289" data-name="Trazado 2289" d="M245.346,1403.994H230.377a3.879,3.879,0,0,1-3.878-3.879v-12.181a3.878,3.878,0,0,1,3.878-3.878h14.969Zm0,0" fill="#fed066"/>
    <path id="Trazado_2290" data-name="Trazado 2290" d="M280.973,1420.462l-35.627-16.468v-19.938l35.627-16.468a1.848,1.848,0,0,1,2.679,1.65v49.573a1.849,1.849,0,0,1-2.679,1.651Zm0,0" fill="#fd715c"/>
    <path id="Trazado_2291" data-name="Trazado 2291" d="M226.5,1400.115a3.879,3.879,0,0,0,3.878,3.879h14.969V1391.4H226.5Zm0,0" fill="#f5b556"/>
    <path id="Trazado_2292" data-name="Trazado 2292" d="M245.346,1391.4v12.59l35.627,16.468a1.848,1.848,0,0,0,2.679-1.651v-9.879Zm0,0" fill="#e5483c"/>
    <path id="Trazado_2293" data-name="Trazado 2293" d="M231.413,1419.053h-36.2a2.715,2.715,0,0,1-2.712-2.712v-97.906a2.715,2.715,0,0,1,2.712-2.712h51.373V1334a3.844,3.844,0,0,0,3.838,3.839H268.7v28a1.607,1.607,0,1,0,3.214,0v-29.607a1.607,1.607,0,0,0-.47-1.136l-22.112-22.113a1.612,1.612,0,0,0-1.138-.471H195.214a5.934,5.934,0,0,0-5.928,5.928v97.906a5.934,5.934,0,0,0,5.928,5.928h36.2a1.608,1.608,0,0,0,0-3.216ZM249.8,1334v-16l16.623,16.623h-16a.623.623,0,0,1-.622-.622Zm0,0" fill="#4d4d4d"/>
    <path id="Trazado_2294" data-name="Trazado 2294" d="M286.065,1385.327h-.8v-16.089a3.456,3.456,0,0,0-4.982-3.1l-35.285,16.311H230.377a5.5,5.5,0,0,0-5.223,3.809H222a4.009,4.009,0,0,0-4.006,4v7.528a4.009,4.009,0,0,0,4.006,4h3.153a5.5,5.5,0,0,0,5.223,3.809h1.147l3.271,12.232a5.986,5.986,0,0,0,4.981,4.381,1.572,1.572,0,0,0,.414.054h25.8a5.939,5.939,0,0,0,5.708-4.324l8.583,3.966a3.455,3.455,0,0,0,4.981-3.1v-16.089h.8a8.7,8.7,0,0,0,0-17.4Zm-64.854,12.462v-7.528a.79.79,0,0,1,.79-.789h2.89v9.1H222a.79.79,0,0,1-.79-.788Zm6.9,2.326v-12.181a2.273,2.273,0,0,1,2.27-2.27h13.362v16.721H230.377a2.273,2.273,0,0,1-2.27-2.27Zm6.745,5.486h6.213l2.634,9.852a2.765,2.765,0,0,1-1.955,3.382l-.461.124A2.765,2.765,0,0,1,237.9,1417Zm31.136,13.452H246.262a5.959,5.959,0,0,0,.543-4.431l-2.412-9.02h.6l23.7,10.954a2.714,2.714,0,0,1-2.7,2.5Zm16.056-.242a.24.24,0,0,1-.348.214l-.048-.023-34.694-16.036v-17.882l34.694-16.037.048-.023a.241.241,0,0,1,.348.214Zm4.021-19.305h-.8v-10.963h.8a5.482,5.482,0,0,1,0,10.963Zm0,0" fill="#4d4d4d"/>
    <g id="Grupo_13660" data-name="Grupo 13660">
      <path id="Trazado_2295" data-name="Trazado 2295" d="M220.607,1347.4a2.332,2.332,0,0,1,.677,1.509,2.029,2.029,0,0,1-3.388,1.509,2.785,2.785,0,0,0-1.909-.708,2.789,2.789,0,0,0-2.834,2.833v14.63a2.789,2.789,0,0,0,2.834,2.833,2.781,2.781,0,0,0,1.909-.708,1.931,1.931,0,0,1,1.417-.585,2.052,2.052,0,0,1,2.033,2.033,2.046,2.046,0,0,1-.216.862,1.923,1.923,0,0,1-.523.708,6.722,6.722,0,0,1-4.62,1.756,6.942,6.942,0,0,1-6.9-6.9v-14.63a6.942,6.942,0,0,1,6.9-6.9A6.727,6.727,0,0,1,220.607,1347.4Z" fill="#4d4d4d"/>
      <path id="Trazado_2296" data-name="Trazado 2296" d="M230.555,1353.158a2.052,2.052,0,0,1,2.033,2.033v2.063h2.094a1.982,1.982,0,0,1,1.432.586,1.925,1.925,0,0,1,.6,1.432,2.052,2.052,0,0,1-2.033,2.048h-2.094v2.033a2.033,2.033,0,0,1-4.066,0v-2.033h-2.094a2.052,2.052,0,0,1-2.033-2.048,1.921,1.921,0,0,1,.6-1.432,1.98,1.98,0,0,1,1.432-.586h2.094v-2.063a1.981,1.981,0,0,1,.585-1.432,1.9,1.9,0,0,1,1.417-.6Z" fill="#4d4d4d"/>
      <path id="Trazado_2297" data-name="Trazado 2297" d="M245.954,1353.158a2.051,2.051,0,0,1,2.033,2.033v2.063h2.094a1.984,1.984,0,0,1,1.433.586,1.924,1.924,0,0,1,.6,1.432,2.05,2.05,0,0,1-2.033,2.048h-2.094v2.033a2.033,2.033,0,0,1-4.065,0v-2.033h-2.1a2.05,2.05,0,0,1-2.032-2.048,1.924,1.924,0,0,1,.6-1.432,1.983,1.983,0,0,1,1.432-.586h2.1v-2.063a1.981,1.981,0,0,1,.585-1.432,1.9,1.9,0,0,1,1.417-.6Z" fill="#4d4d4d"/>
    </g>
  </g>
</svg>
