<svg xmlns="http://www.w3.org/2000/svg" width="54.095" height="61.823" viewBox="0 0 54.095 61.823">
  <g id="Grupo_15098" data-name="Grupo 15098" transform="translate(-555.79 -2789.137)">
    <path id="Trazado_7199" data-name="Trazado 7199" d="M567.382,2789.137a3.876,3.876,0,0,0-3.864,3.864V2847.1a3.876,3.876,0,0,0,3.864,3.864h38.639a3.875,3.875,0,0,0,3.864-3.864v-42.5l-15.455-15.456Z" fill="#fff"/>
    <path id="Trazado_7200" data-name="Trazado 7200" d="M598.294,2804.593h11.591l-15.455-15.456v11.592a3.875,3.875,0,0,0,3.864,3.864Z" fill="#e6e6e6"/>
    <path id="Trazado_7201" data-name="Trazado 7201" d="M602.157,2839.368a1.937,1.937,0,0,1-1.931,1.932h-42.5a1.938,1.938,0,0,1-1.932-1.932v-19.319a1.938,1.938,0,0,1,1.932-1.932h42.5a1.937,1.937,0,0,1,1.931,1.932v19.319Z" fill="#e94b38"/>
    <path id="Trazado_7202" data-name="Trazado 7202" d="M566.25,2826.621v3.849h2.579a1.926,1.926,0,0,0,0-3.849Zm-2.038-.879a1.063,1.063,0,0,1,1.049-1.066h3.568a3.862,3.862,0,0,1,0,7.724H566.25v2.04a.969.969,0,0,1-.989,1.064,1.04,1.04,0,0,1-1.049-1.064v-8.7Z" fill="#fff"/>
    <path id="Trazado_7203" data-name="Trazado 7203" d="M576.646,2826.7v6.921h2.564c4.171,0,4.356-6.921,0-6.921Zm-.974,8.8a.966.966,0,0,1-1.066-.956v-8.775a1.051,1.051,0,0,1,1.066-.958h3.538c7.059,0,6.9,10.689.139,10.689Z" fill="#fff"/>
    <path id="Trazado_7204" data-name="Trazado 7204" d="M588.618,2826.824v2.456h3.94a1.194,1.194,0,0,1,1.112,1.095,1.073,1.073,0,0,1-1.112.927h-3.94v3.244a.914.914,0,0,1-.925.956.982.982,0,0,1-1.1-.956v-8.775a.977.977,0,0,1,1.1-.958h5.423a.964.964,0,0,1,1.082.958,1.067,1.067,0,0,1-1.082,1.051h-4.5v0Z" fill="#fff"/>
    <path id="Trazado_7205" data-name="Trazado 7205" d="M600.226,2841.3H563.518v1.932h36.708a1.937,1.937,0,0,0,1.931-1.932v-1.932a1.937,1.937,0,0,1-1.931,1.932Z" fill="#e6e6e6"/>
  </g>
</svg>
