<svg xmlns="http://www.w3.org/2000/svg" width="93.606" height="72.144" viewBox="0 0 93.606 72.144">
  <g id="Grupo_14633" data-name="Grupo 14633" transform="translate(-1702.086 -2265.604)">
    <g id="Grupo_13810" data-name="Grupo 13810">
      <path id="Trazado_2669" data-name="Trazado 2669" d="M1712.269,2336.434h49.15a10.2,10.2,0,0,0,10.183-10.183,2.035,2.035,0,0,0-2.036-2.036h-2.037v-34.623a2.036,2.036,0,0,0-2.037-2.036h-17.151l-9.672-19.506a2.036,2.036,0,0,0-3.649,0l-9.673,19.506H1708.2a2.036,2.036,0,0,0-2.037,2.036v34.623h-2.036a2.036,2.036,0,0,0-2.037,2.036,10.2,10.2,0,0,0,10.183,10.183Zm49.15-4.073h-49.15a6.12,6.12,0,0,1-5.761-4.075h60.672a6.118,6.118,0,0,1-5.761,4.075Zm-24.575-58.822c.321.653,12.185,24.573,12.51,25.228l-10.473-2.619v-6.556a2.036,2.036,0,0,0-4.073,0v6.556l-10.473,2.619c1.026-2.071,11.158-22.481,12.509-25.228Zm-26.611,18.09h13.095l-4.6,9.279a2.036,2.036,0,0,0,2.318,2.88l13.763-3.441v5.538a6.117,6.117,0,0,0,6.109,6.11h8.147a2.036,2.036,0,0,1,0,4.073h-28.513a2.036,2.036,0,0,0,0,4.073h28.513a6.109,6.109,0,1,0,0-12.219h-8.147a2.039,2.039,0,0,1-2.036-2.037v-5.538l13.762,3.441a2.036,2.036,0,0,0,2.318-2.88l-4.6-9.279h13.1v32.586h-53.223Zm0,0" fill="#a4dbf5"/>
    </g>
    <line id="Línea_697" data-name="Línea 697" y2="68.144" transform="translate(1793.692 2267.604)" fill="none" stroke="#a4dbf5" stroke-linecap="round" stroke-miterlimit="10" stroke-width="4"/>
  </g>
</svg>
